<svg width="48" height="48" viewBox="0 0 48 48" fill="none" xmlns="http://www.w3.org/2000/svg">
<path d="M38 34H10C6.68 34 4 31.32 4 28V20C4 16.68 6.68 14 10 14H38C41.32 14 44 16.68 44 20V28C44 31.32 41.32 34 38 34ZM10 32H38C40.2 32 42 30.2 42 28V20C42 17.8 40.2 16 38 16H10C7.8 16 6 17.8 6 20V28C6 30.2 7.8 32 10 32Z" fill="#002EFF"/>
<path d="M13.9772 28.04C13.4791 28.04 13.0759 27.6368 13.0759 27.1388V20.9012C13.0759 20.4032 13.4791 20 13.9772 20C14.4752 20 14.8784 20.4032 14.8784 20.9012V27.1388C14.8784 27.6368 14.4752 28.04 13.9772 28.04Z" fill="#FF3D00"/>
<path d="M10.894 26.3561C10.562 26.3561 10.2299 26.1664 10.0876 25.8343C9.87419 25.3837 10.0876 24.862 10.5145 24.6485L16.7046 21.8025C17.1553 21.589 17.677 21.8025 17.8905 22.2294C18.1039 22.68 17.8905 23.2018 17.4636 23.4152L11.2735 26.2612C11.1549 26.3087 11.0363 26.3324 10.894 26.3324V26.3561Z" fill="#FF3D00"/>
<path d="M17.0841 26.3563C16.9655 26.3563 16.8232 26.3326 16.7046 26.2851L10.5145 23.4391C10.0639 23.2257 9.87415 22.7039 10.0876 22.2533C10.301 21.8026 10.8228 21.6129 11.2734 21.8264L17.4635 24.6724C17.9141 24.8858 18.1039 25.4076 17.8904 25.8582C17.7481 26.1903 17.4161 26.38 17.0841 26.38V26.3563Z" fill="#FF3D00"/>
<path d="M24.0008 28.04C23.5028 28.04 23.0996 27.6368 23.0996 27.1388V20.9012C23.0996 20.4032 23.5028 20 24.0008 20C24.4989 20 24.9021 20.4032 24.9021 20.9012V27.1388C24.9021 27.6368 24.4989 28.04 24.0008 28.04Z" fill="#FF3D00"/>
<path d="M20.9177 26.3561C20.5857 26.3561 20.2536 26.1664 20.1113 25.8343C19.8979 25.3837 20.1113 24.862 20.5382 24.6485L26.7283 21.8025C27.1789 21.589 27.7007 21.8025 27.9142 22.2294C28.1276 22.68 27.9142 23.2018 27.4873 23.4152L21.2972 26.2612C21.1786 26.3087 21.06 26.3324 20.9177 26.3324V26.3561Z" fill="#FF3D00"/>
<path d="M27.0841 26.3563C26.9655 26.3563 26.8232 26.3326 26.7046 26.2851L20.5145 23.4391C20.0639 23.2257 19.8741 22.7039 20.0876 22.2533C20.301 21.8026 20.8228 21.6129 21.2734 21.8264L27.4635 24.6724C27.9141 24.8858 28.1039 25.4076 27.8904 25.8582C27.7481 26.1903 27.4161 26.38 27.0841 26.38V26.3563Z" fill="#FF3D00"/>
<path d="M34.0008 28.04C33.5028 28.04 33.0996 27.6368 33.0996 27.1388V20.9012C33.0996 20.4032 33.5028 20 34.0008 20C34.4989 20 34.9021 20.4032 34.9021 20.9012V27.1388C34.9021 27.6368 34.4989 28.04 34.0008 28.04Z" fill="#FF3D00"/>
<path d="M30.894 26.3561C30.562 26.3561 30.2299 26.1664 30.0876 25.8343C29.8742 25.3837 30.0876 24.862 30.5145 24.6485L36.7046 21.8025C37.1553 21.589 37.677 21.8025 37.8905 22.2294C38.1039 22.68 37.8905 23.2018 37.4636 23.4152L31.2735 26.2612C31.1549 26.3087 31.0363 26.3324 30.894 26.3324V26.3561Z" fill="#FF3D00"/>
<path d="M37.0841 26.3563C36.9655 26.3563 36.8232 26.3326 36.7046 26.2851L30.5145 23.4391C30.0639 23.2257 29.8741 22.7039 30.0876 22.2533C30.301 21.8026 30.8228 21.6129 31.2734 21.8264L37.4635 24.6724C37.9141 24.8858 38.1039 25.4076 37.8904 25.8582C37.7481 26.1903 37.4161 26.38 37.0841 26.38V26.3563Z" fill="#FF3D00"/>
</svg>
