<svg width="48" height="48" viewBox="0 0 48 48" fill="none" xmlns="http://www.w3.org/2000/svg">
<path d="M38 32H10C6.68 32 4 29.32 4 26V22C4 18.68 6.68 16 10 16H38C41.32 16 44 18.68 44 22V26C44 29.32 41.32 32 38 32ZM10 30H38C40.2 30 42 28.2 42 26V22C42 19.8 40.2 18 38 18H10C7.8 18 6 19.8 6 22V26C6 28.2 7.8 30 10 30Z" fill="#002EFF"/>
<path d="M12.02 26C13.1246 26 14.02 25.1046 14.02 24C14.02 22.8954 13.1246 22 12.02 22C10.9154 22 10.02 22.8954 10.02 24C10.02 25.1046 10.9154 26 12.02 26Z" fill="#FF3D00"/>
<path d="M29.98 26C31.0845 26 31.98 25.1046 31.98 24C31.98 22.8954 31.0845 22 29.98 22C28.8754 22 27.98 22.8954 27.98 24C27.98 25.1046 28.8754 26 29.98 26Z" fill="#FF3D00"/>
<path d="M35.98 26C37.0845 26 37.98 25.1046 37.98 24C37.98 22.8954 37.0845 22 35.98 22C34.8754 22 33.98 22.8954 33.98 24C33.98 25.1046 34.8754 26 35.98 26Z" fill="#FF3D00"/>
</svg>
