<svg width="48" height="48" viewBox="0 0 48 48" fill="none" xmlns="http://www.w3.org/2000/svg">
<path fill-rule="evenodd" clip-rule="evenodd" d="M41.5 24C41.5 33.665 33.665 41.5 24 41.5C14.335 41.5 6.5 33.665 6.5 24C6.5 14.335 14.335 6.5 24 6.5C33.665 6.5 41.5 14.335 41.5 24ZM44 24C44 35.0457 35.0457 44 24 44C12.9543 44 4 35.0457 4 24C4 12.9543 12.9543 4 24 4C35.0457 4 44 12.9543 44 24ZM35.2501 19.5178C35.7383 19.0296 35.7383 18.2382 35.2501 17.75C34.7619 17.2619 33.9705 17.2619 33.4823 17.75L20.2501 30.9823L14.5179 25.25C14.0297 24.7619 13.2382 24.7619 12.7501 25.25C12.2619 25.7382 12.2619 26.5296 12.7501 27.0178L18.4823 32.75C19.4586 33.7263 21.0416 33.7263 22.0179 32.75L35.2501 19.5178Z" fill="#002EFF"/>
<path fill-rule="evenodd" clip-rule="evenodd" d="M35.2502 19.5177C35.7383 19.0295 35.7383 18.2381 35.2502 17.7499C34.762 17.2618 33.9705 17.2618 33.4824 17.7499L20.2501 30.9821L14.5179 25.2499C14.0298 24.7618 13.2383 24.7617 12.7501 25.2499C12.262 25.7381 12.262 26.5295 12.7501 27.0177L18.4824 32.7499C19.4587 33.7262 21.0416 33.7262 22.0179 32.7499L35.2502 19.5177Z" fill="#FF3D00"/>
</svg>
