<svg width="48" height="48" viewBox="0 0 48 48" fill="none" xmlns="http://www.w3.org/2000/svg">
<path d="M22 6H32.7C36.02 6 38.7 8.68 38.7 12V36C38.7 39.32 36.02 42 32.7 42H22C18.68 42 16 39.32 16 36L16 31C16 30.44 16.44 30 17 30C17.56 30 18 30.44 18 31L18 36C18 38.2 19.8 40 22 40H32.7C34.9 40 36.7 38.2 36.7 36V12C36.7 9.8 34.9 8 32.7 8H22C19.8 8 18 9.8 18 12V17C18 17.56 17.56 18 17 18C16.44 18 16 17.56 16 17V12C16 8.68 18.68 6 22 6Z" fill="#002EFF"/>
<path d="M29.6219 23.3508L25.1418 20.1839C24.7259 19.8975 24.1399 19.948 23.8185 20.3186C23.4972 20.6892 23.5539 21.2114 23.9698 21.4978L26.3894 23.1991H10.9452C10.4159 23.1991 10 23.5697 10 24.0414C10 24.5131 10.4159 24.8837 10.9452 24.8837H26.2571L23.9887 26.5008C23.5728 26.7872 23.5161 27.3262 23.8374 27.6799C24.0265 27.8821 24.2911 28 24.5747 28C24.7826 28 24.9905 27.9326 25.1607 27.8147L29.6408 24.6478C29.8677 24.4962 30 24.2435 30 23.9909C30 23.7382 29.8677 23.4855 29.6408 23.3339L29.6219 23.3508Z" fill="#FF3D00"/>
</svg>
