<svg width="366" height="366" viewBox="0 0 366 366" fill="none" xmlns="http://www.w3.org/2000/svg">
<mask id="mask0_121_1452" style="mask-type:alpha" maskUnits="userSpaceOnUse" x="12" y="54" width="345" height="253">
<rect x="12" y="54" width="345" height="253" fill="#D9D9D9"/>
</mask>
<g mask="url(#mask0_121_1452)">
</g>
<path d="M99.8135 232.298C100.872 232.651 84.4699 246.045 73.937 266.477C73.238 267.838 71.7749 268.626 70.2536 268.448C65.364 267.875 54.0053 266.608 41.1493 265.638C33.9537 265.096 16.9551 263.448 16.9551 263.448C16.9551 263.448 11.4831 259.179 26.7342 257.318C51.6342 254.279 57.9355 247.272 57.9355 247.272C68.2285 234.632 77.5793 217.846 77.5793 217.846C77.5793 217.846 98.998 232.021 99.817 232.295H99.8135V232.298Z" fill="white" stroke="black" stroke-miterlimit="10"/>
<path d="M130.336 224.431C124.295 241.512 123.531 246.696 121.465 261.567C121.308 262.701 120.52 263.644 119.43 263.99C115.89 265.117 107.807 267.875 96.6715 272.802C92.7824 274.523 82.6127 278.038 76.3184 280.176C74.2179 280.889 72.4876 278.449 73.8342 276.685C75.2013 274.896 77.2195 272.751 80.2074 270.418C99.8581 255.043 99.8581 250.465 99.8581 250.465C101.845 242.328 106.42 221.68 107.708 217.085C107.708 217.085 130.59 223.712 130.333 224.428H130.336V224.431Z" fill="white" stroke="black" stroke-miterlimit="10"/>
<path d="M193.332 138.468L178.341 125.592C173.136 121.888 166.184 122.597 162.069 127.206L86.4641 211.979C86.2242 212.14 86.022 212.332 85.861 212.552C85.7856 212.654 85.7171 212.764 85.6623 212.88L85.3745 213.203L85.5012 213.295C84.3328 217.246 91.6174 226.326 102.651 234.392C113.252 242.146 123.692 246.319 127.52 244.582L127.619 244.657L127.732 244.479C128.061 244.298 128.346 244.068 128.551 243.78C128.832 243.393 128.979 242.93 129.021 242.396L193.342 138.479L193.332 138.468V138.468Z" fill="#002EFF"/>
<path d="M154.102 126.702C149.148 123.012 142.192 123.718 138.08 128.33C138.08 128.33 61.0227 214.656 60.8719 214.851C58.3535 218.291 65.8745 228.067 77.6581 236.691C89.4451 245.316 99.8581 250.469 103.559 246.073C103.727 245.874 121.219 212.432 121.219 212.432C123.644 206.093 128.174 205.829 132.649 200.727L144.303 187.45C147.996 182.152 152.944 175.598 152.944 166.117C152.944 156.636 163.785 153.521 167.411 144.29L169.741 138.356L154.088 126.702H154.102V126.702Z" fill="#002EFF"/>
<path d="M139.125 305.535H132.934L129.716 281.656L143.353 281.423L139.125 305.539V305.535Z" fill="black"/>
<path d="M244.465 305.535H250.656L253.874 281.656L240.233 281.423L244.465 305.539V305.535Z" fill="black"/>
<path d="M201.788 305.535H195.596L192.379 281.656L206.02 281.423L201.788 305.539V305.535Z" fill="black"/>
<path d="M311.112 305.535H316.811L320.919 281.66L306.881 281.42L311.112 305.535V305.535Z" fill="black"/>
<path d="M330.235 93.3145L321.405 150.111C318.041 169.224 301.429 183.153 282.025 183.135L267.134 183.122C259.328 183.111 252.832 189.118 252.225 196.9L249.673 229.55L143.926 229.458L132.173 182.817L167.424 182.947C186.89 183.04 203.584 169.084 206.955 149.913L212.989 116.748C215.395 103.063 227.291 93.0815 241.189 93.0952L327.734 93.1706C328.58 93.1706 329.413 93.222 330.235 93.3111V93.3145Z" fill="white" stroke="black" stroke-miterlimit="10"/>
<path d="M278.911 64.166C278.359 64.1352 272.931 66.0026 272.232 71.4575C271.52 77.0118 275.433 83.9915 284.633 84.7864C293.829 85.5813 285.716 64.8273 285.716 64.8273L278.911 64.1626V64.166Z" fill="black"/>
<path d="M276.488 209.053C276.488 209.053 264.955 210.568 244.232 226.035C233.767 233.847 222.539 229.084 213.431 218.507L161.63 158.342L187.435 133.342L276.495 209.063V209.053H276.488Z" fill="#002EFF"/>
<path d="M260.24 206.024L249.731 218.051C236.197 233.542 212.335 234.234 197.93 219.548L142.329 162.875L166.047 135.724L260.243 206.021H260.24V206.024Z" fill="#002EFF"/>
<path d="M230.162 154.107L229.744 155.292L210.93 138.054L202.449 100.078C202.138 98.6665 200.883 97.6695 199.438 97.6763L144.762 97.9401C143.49 97.9538 142.017 99.1942 142.373 101.658L151.097 140.665C151.19 141.065 151.378 141.432 151.656 141.737L170.083 161.843C171.334 162.95 173.044 163.08 173.948 162.995L228.333 157.368C229.258 157.283 230.135 156.687 230.159 155.878V154.107H230.162Z" fill="white" stroke="black" stroke-miterlimit="10"/>
<path d="M211.115 136.296L152.951 139.894L143.569 100.277C143.251 98.9309 144.052 97.8584 145.385 97.855L199.39 97.6699C200.798 97.6665 202.247 98.8418 202.586 100.267L211.118 136.296H211.115Z" fill="black"/>
<path d="M207.092 134.799L203.83 134.994L172.118 136.868L156.826 137.78C155.836 137.841 154.774 137.149 154.321 136.231C154.301 136.193 154.284 136.152 154.253 136.104C154.205 135.988 154.167 135.857 154.136 135.731L154.116 135.669L151.968 126.565L150.83 121.741L150.799 121.624L146.074 101.679C145.81 100.551 146.495 99.6571 147.647 99.6571L165.132 99.6091L198.595 99.5303C199.732 99.5303 200.904 100.462 201.178 101.583L208.545 132.688L208.566 132.774C208.823 133.856 208.192 134.727 207.102 134.795H207.092V134.799Z" fill="white"/>
<path d="M229.083 155.511L174.4 160.675C172.787 160.826 171.193 160.264 170.155 159.167L152.954 139.894L211.118 136.296L229.837 153.737C230.522 154.374 230.084 155.415 229.087 155.511H229.083Z" fill="black"/>
<path d="M167.198 152.462L155.884 140.531L210.203 137.249L221.476 147.5L167.198 152.462Z" fill="white"/>
<path d="M207.164 156.643L204.649 155.193C203.45 154.456 202.244 153.744 200.997 153.052C200.722 152.901 200.445 152.757 200.167 152.61L199.999 152.514C199.246 152.12 198.478 151.722 197.69 151.355C196.977 151.02 196.254 150.691 195.507 150.403C193.558 149.481 191.564 148.662 189.528 147.936C187.191 147.103 184.786 146.397 182.346 145.89C181.531 145.726 179.777 145.74 179.53 146.552C179.269 147.412 180.619 148.71 182.196 149.276C182.196 149.276 183.117 149.598 184.306 150.036C183.919 150.129 183.532 150.218 183.141 150.328C182.459 150.513 176.789 151.873 177.124 152.966C177.854 155.368 181.925 153.881 183.23 153.682C183.895 153.583 184.56 153.507 185.228 153.452C184.077 153.864 182.919 154.347 181.665 154.933C180.229 155.604 178.971 156.365 179.55 157.163C180.688 158.739 184.001 157.444 185.266 156.989C187.592 156.156 190.097 155.594 192.585 155.796C192.989 155.827 193.386 155.896 193.791 155.991C192.146 156.046 190.464 156.447 188.754 157.239C187.226 157.941 184.084 159.291 184.313 160.007C184.837 161.631 187.76 161.409 188.864 160.963C191.289 159.983 193.935 159.538 196.354 160.658C198.094 162.772 202.072 167.384 204.142 167.929C205.382 168.255 206.78 168.114 208.007 167.604C210.426 169.406 215.771 173.418 217.745 175.598L224.081 167.429C224.081 167.429 215.446 160.956 207.168 156.639L207.164 156.643Z" fill="white" stroke="black" stroke-linecap="round" stroke-linejoin="round"/>
<path d="M315.745 126.829C313.939 115.466 306.709 107.976 293.799 108.754C285.058 109.278 262.447 126.794 261.244 134.918C260.247 141.669 261.34 147.459 261.336 147.792C261.22 153.596 263.697 154.388 260.685 164.544C259.407 168.847 251.67 181.299 251.67 181.299C247.38 199.846 235.511 212.887 249.806 223.489C255.977 228.066 273.226 232.48 279.592 224.702C288.7 210.79 302.625 187.628 309.759 164.372C313.662 152.578 317.133 135.535 315.745 126.829Z" fill="#FF3D00"/>
<path d="M262.433 211.842C262.433 211.842 216.847 183.334 214.168 181.337C212.156 179.839 209.813 178.894 208.312 178.119L215.453 160.13C217.951 161.419 218.667 162.244 220.229 163.005C223.231 164.468 299.438 178.04 299.438 178.04L288.433 200.782C282.998 209.365 271.975 215.324 262.433 211.839V211.842Z" fill="#FF3D00"/>
<path d="M310.283 163.697C302.632 188.858 287.614 209.197 278.986 207.35C270.362 205.503 272.791 181.618 283.876 155.786C293.637 133.037 300.24 113.448 308.861 115.295C317.482 117.142 319.511 133.335 310.276 163.704H310.28L310.283 163.697Z" fill="#FF3D00"/>
<path d="M293.456 109.416C293.531 109.303 293.603 109.186 293.668 109.07C297.321 102.621 295.889 92.9619 295.889 92.9619L284.441 94.2126C284.441 94.2126 287.84 98.5059 282.296 100.651C276.752 102.796 270.67 108.521 273.531 114.244C274.909 116.992 278.763 117.386 282.806 116.351C284.523 114.662 286.702 112.983 289.132 111.492C290.427 110.697 291.911 109.995 293.456 109.412H293.459L293.456 109.416Z" fill="black"/>
<path d="M293.456 109.416C291.911 109.998 290.42 110.7 289.132 111.495C286.699 112.986 284.52 114.668 282.806 116.354C287.031 115.268 291.451 112.612 293.456 109.416Z" fill="black"/>
<path d="M309.403 80.5647L304.496 82.1752C304.434 81.9353 304.379 81.7023 304.314 81.4625C301.909 72.5571 291.626 70.1244 284.143 75.5279C277.516 80.3078 280.963 92.8006 281.261 93.6778C282.865 98.4919 287.456 101.627 292.404 102.264C292.394 102.309 292.39 102.347 292.387 102.391C292.277 103.077 292.14 103.762 291.983 104.457C291.722 105.578 291.4 106.702 290.992 107.832C290.184 110.118 289.06 112.383 287.518 114.517C286.01 115.316 284.393 115.95 282.803 116.357C279.668 119.445 278.109 122.546 279.514 124.516C281.964 127.963 298.133 123.145 305.469 119.798C311.527 117.032 309.358 114.123 307.545 111.279C311.41 96.8781 309.512 81.3323 309.413 80.5647H309.409H309.403Z" fill="white" stroke="black" stroke-miterlimit="10"/>
<path d="M330.235 93.3145L321.405 150.111C318.041 169.224 301.429 183.153 282.025 183.135L253.26 183.108C245.455 183.098 238.958 189.104 238.352 196.886L235.799 229.536L143.926 229.458L141.065 191.928C140.674 186.781 136.398 182.806 131.237 182.779H130.638C123.117 182.741 117.285 189.632 118.32 197.297L131.073 291.867L148.685 291.887L230.92 291.99L319.072 292.1L349.657 119.29C351.904 106.499 342.81 94.7125 330.239 93.3042V93.3145H330.235Z" fill="white" stroke="black" stroke-miterlimit="10"/>
<path d="M274.919 71.848C278.969 76.3606 286.603 83.0901 301.655 85.0432C301.655 85.0432 307.103 83.9879 306.346 88.2024C305.585 92.4135 293.781 109.059 296.69 124.108C299.599 139.157 317.976 127.404 315.186 142.241C313.024 153.747 306.12 174.751 306.12 174.751C331.551 182.55 346.669 136.831 339.898 119.445C337.205 112.527 334.063 105.924 328.769 100.832C322.344 94.651 319.86 88.0414 317.516 79.7185C315.646 73.0712 312.507 66.0538 306.298 62.4389C300.333 58.9645 291.006 60.2186 284.742 61.6543C277.855 63.227 270.016 66.3896 274.915 71.8548H274.919V71.848Z" fill="black"/>
<path d="M231.739 154.782C231.598 156.272 231.386 157.663 231.108 158.894C231.06 158.883 231.009 158.88 230.957 158.876C229.72 158.784 228.168 158.476 226.835 157.972C225.814 157.588 224.92 157.091 224.399 156.488C222.412 154.186 222.611 149.988 218.42 146.164C215.062 143.098 211.581 137.338 213.866 137.968C213.866 137.968 218.077 140.476 223.865 144.074C225.568 145.133 227.086 146.233 228.49 147.264C229.666 148.138 230.766 148.96 231.821 149.673C231.924 151.157 231.907 152.918 231.728 154.782H231.739V154.782Z" fill="white" stroke="black" stroke-linecap="round" stroke-linejoin="round"/>
<path d="M263.91 169.475C263.91 169.475 263.93 169.475 263.94 169.485H263.913V169.475H263.91Z" fill="black"/>
<path d="M74.5709 275.769C75.4206 274.892 76.3698 274.145 77.3634 273.672L80.7727 272.045" stroke="black" stroke-linecap="round" stroke-linejoin="round"/>
<path d="M17.0099 260.028C17.0099 260.028 20.0869 258.983 25.2506 260.028" stroke="black" stroke-linecap="round" stroke-linejoin="round"/>
<path d="M307.984 86.6537C308.33 84.4402 307.042 82.4118 305.096 82.1205C303.149 81.8327 301.292 83.3986 300.946 85.6121C300.6 87.8256 301.888 89.854 303.835 90.1453C305.781 90.4331 307.638 88.8672 307.984 86.6537Z" fill="white"/>
<path d="M192.557 156.097C192.557 156.097 198.619 155.32 201.459 157.872" stroke="black" stroke-linecap="round" stroke-linejoin="round"/>
<path d="M185.225 153.449C185.225 153.449 192.965 149.351 203.786 154.665" stroke="black" stroke-linecap="round" stroke-linejoin="round"/>
<path d="M184.299 150.029C184.299 150.029 190.412 147.507 196.34 150.738" stroke="black" stroke-linecap="round" stroke-linejoin="round"/>
<path d="M103.565 246.073L120.537 213.741" stroke="black" stroke-linecap="round" stroke-linejoin="round"/>
<path d="M143.922 229.461L148.685 291.898" stroke="black" stroke-miterlimit="10"/>
<path d="M235.799 229.54L230.913 291.997" stroke="black" stroke-miterlimit="10"/>
<path d="M136.535 182.834L149.045 166.116" stroke="black" stroke-linecap="round" stroke-linejoin="round"/>
<path d="M147.273 168.827L185.012 206.384" stroke="black" stroke-linecap="round" stroke-linejoin="round"/>
<path d="M289.183 175.769L228.014 165.98L230.228 145.205C230.228 145.205 232.736 146.233 233.685 146.408C235.617 146.764 267.83 150.913 278.993 150.742C289.026 150.584 298.202 142.083 308.234 141.929C308.724 141.919 314.501 139.668 314.59 139.332L308.118 163.704C304.797 172.188 298.184 177.211 289.187 175.776H289.183V175.769Z" fill="#FF3D00"/>
<path d="M238.348 196.89L213.596 180.706L220.685 163.19L262.433 172.356" stroke="black" stroke-linecap="round" stroke-linejoin="round"/>
<path d="M290.567 139.894L276.488 174.477" stroke="black" stroke-linecap="round" stroke-linejoin="round"/>
<path d="M231.896 165.582L233.685 146.404L261.148 149.762" stroke="black" stroke-linecap="round" stroke-linejoin="round"/>
<path d="M260.713 136.923C260.713 136.923 259.147 155.244 274.124 167.004" stroke="black" stroke-linecap="round" stroke-linejoin="round"/>
<path d="M261.148 144.55L262.433 168.827" stroke="black" stroke-linecap="round" stroke-linejoin="round"/>
<path d="M292.661 135.045C292.661 135.045 295.731 125.037 304.465 125.705" stroke="black" stroke-linecap="round" stroke-linejoin="round"/>
<path d="M159.088 144.551L213.949 140.483" stroke="black" stroke-linecap="round" stroke-linejoin="round"/>
<path d="M186.516 146.884L216.577 144.229" stroke="black" stroke-linecap="round" stroke-linejoin="round"/>
<path d="M162.127 148.891L179.684 147.363" stroke="black" stroke-linecap="round" stroke-linejoin="round"/>
<path d="M160.523 139.894L173.592 153.497" stroke="black" stroke-linecap="round" stroke-linejoin="round"/>
<path d="M165.3 138.157L178.368 151.76" stroke="black" stroke-linecap="round" stroke-linejoin="round"/>
<path d="M182.192 136.902L194.805 150.029" stroke="black" stroke-linecap="round" stroke-linejoin="round"/>
<path d="M190.107 138.287L202.72 151.413" stroke="black" stroke-linecap="round" stroke-linejoin="round"/>
<path d="M194.503 137.286L207.116 150.413" stroke="black" stroke-linecap="round" stroke-linejoin="round"/>
<path d="M200.301 136.536L212.914 149.663" stroke="black" stroke-linecap="round" stroke-linejoin="round"/>
<path d="M206.068 136.296L218.681 149.416" stroke="black" stroke-linecap="round" stroke-linejoin="round"/>
<path d="M171.378 137.722L179.523 146.545" stroke="black" stroke-linecap="round" stroke-linejoin="round"/>
<path d="M176.59 137.286L185.139 146.544" stroke="black" stroke-linecap="round" stroke-linejoin="round"/>
</svg>
