<svg width="48" height="48" viewBox="0 0 48 48" fill="none" xmlns="http://www.w3.org/2000/svg">
<path d="M32.04 43.97H15.96C12.64 43.97 9.95996 41.29 9.95996 37.97V10.01C9.95996 6.69001 12.64 4.01001 15.96 4.01001H26.6C27.08 4.01001 27.54 4.17001 27.9 4.49001L37.34 15.89C37.78 16.27 38.04 16.83 38.04 17.41V37.99C38.04 41.31 35.36 43.99 32.04 43.99V43.97ZM15.96 41.97H32.04C34.24 41.97 36.04 40.17 36.04 37.97V17.39L26.6 5.99001H15.96C13.76 5.99001 11.96 7.79001 11.96 9.99001V37.97C11.96 40.17 13.76 41.97 15.96 41.97Z" fill="#002EFF"/>
<path d="M37.04 17.93H27.96C26.86 17.93 25.96 17.03 25.96 15.93V5.01001H27.96V15.95H37.04V17.95V17.93Z" fill="#002EFF"/>
<path d="M20.16 27.9099H15.78C14.78 27.9099 13.98 27.1099 13.98 26.1099V21.7299C13.98 20.7299 14.78 19.9299 15.78 19.9299H20.16C21.16 19.9299 21.96 20.7299 21.96 21.7299V26.1099C21.96 27.1099 21.16 27.9099 20.16 27.9099ZM15.78 26.1099H20.16V21.7299H15.78V26.1099Z" fill="#FF3D00"/>
<path d="M20.16 38.01H15.78C14.78 38.01 13.98 37.21 13.98 36.21V31.83C13.98 30.83 14.78 30.03 15.78 30.03H20.16C21.16 30.03 21.96 30.83 21.96 31.83V36.21C21.96 37.21 21.16 38.01 20.16 38.01ZM15.78 36.21H20.16V31.83H15.78V36.21Z" fill="#FF3D00"/>
<path d="M33.18 24.83H24.78C24.32 24.83 23.96 24.43 23.96 23.93C23.96 23.43 24.32 23.03 24.78 23.03H33.18C33.64 23.03 34 23.43 34 23.93C34 24.43 33.64 24.83 33.18 24.83Z" fill="#FF3D00"/>
<path d="M31.1 34.9101H24.82C24.34 34.9101 23.96 34.5101 23.96 34.0101C23.96 33.5101 24.34 33.1101 24.82 33.1101H31.1C31.58 33.1101 31.96 33.5101 31.96 34.0101C31.96 34.5101 31.58 34.9101 31.1 34.9101Z" fill="#FF3D00"/>
</svg>
