<svg width="28" height="32" viewBox="0 0 28 32" fill="none" xmlns="http://www.w3.org/2000/svg">
<path fill-rule="evenodd" clip-rule="evenodd" d="M25.6666 16C25.6666 22.4433 20.4433 27.6666 14 27.6666C7.55664 27.6666 2.33329 22.4433 2.33329 16C2.33329 9.55664 7.55664 4.33329 14 4.33329C20.4433 4.33329 25.6666 9.55664 25.6666 16ZM27.3333 16C27.3333 23.3638 21.3638 29.3333 14 29.3333C6.63616 29.3333 0.666626 23.3638 0.666626 16C0.666626 8.63616 6.63616 2.66663 14 2.66663C21.3638 2.66663 27.3333 8.63616 27.3333 16ZM15.25 10.5833C15.25 11.2736 14.6903 11.8333 14 11.8333C13.3096 11.8333 12.75 11.2736 12.75 10.5833C12.75 9.89294 13.3096 9.33329 14 9.33329C14.6903 9.33329 15.25 9.89294 15.25 10.5833ZM14 12.6666C14.4166 12.6666 14.8333 13.0833 14.8333 13.5V21.8333H15.6666C16.0833 21.8333 16.5 22.25 16.5 22.6666C16.5 23.0833 16.0833 23.5 15.6666 23.5H12.3333C11.9166 23.5 11.5 23.0833 11.5 22.6666C11.5 22.25 11.9166 21.8333 12.3333 21.8333H13.1666V14.3333H12.3333C11.9166 14.3333 11.5 13.9166 11.5 13.5C11.5 13.0833 11.9166 12.6666 12.3333 12.6666H14Z" fill="#002EFF"/>
</svg>
