<svg width="424" height="424" viewBox="0 0 424 424" fill="none" xmlns="http://www.w3.org/2000/svg">
<g clip-path="url(#clip0_16_3868)">
<path fill-rule="evenodd" clip-rule="evenodd" d="M168.491 145.329C168.802 145.033 169.031 144.79 169.143 144.621C170.102 143.216 168.9 142.04 166.746 143.448C164.848 144.692 160.515 147.615 158.92 148.994C158.815 148.908 159.025 149.072 158.92 148.994C160.407 147.825 164.339 145.048 165.979 143.954C167.937 142.647 167.417 140.642 166.121 140.747C164.825 140.852 162.245 142.111 159.819 143.741C159.025 144.277 158.085 145.007 157.183 145.749C157.943 142.59 156.374 139.96 155.412 142.309C154.269 145.093 153.064 147.982 153.064 147.982C153.064 147.982 151.296 150.953 150.727 152.336C149.956 153.962 149.521 155.536 148.735 156.42C148.417 156.78 148.076 157.132 147.743 157.465L112.146 171.655L104.496 146.334C102.905 141.23 97.681 138.173 92.4311 139.267C86.4322 140.518 82.8187 146.637 84.6273 152.471L95.4642 188.56C97.1306 193.93 102.774 197.01 108.211 195.511C109.061 195.279 109.855 194.941 110.589 194.529C110.589 194.529 110.592 194.529 110.596 194.529C111.087 194.252 111.547 193.941 111.978 193.596C119.329 188.624 153.461 165.54 154.075 165.18C154.082 165.176 154.086 165.169 154.093 165.165C154.573 164.948 155.097 164.674 155.651 164.322C157.92 162.898 160.295 157.413 161.946 155.832C162.062 155.723 162.141 155.577 162.193 155.408C162.815 154.73 164.721 152.684 166.226 151.5C167.282 150.669 168.256 149.338 167.611 148.717C167.608 148.713 167.6 148.709 167.596 148.705C168.046 148.271 168.405 147.881 168.611 147.577C169.51 146.244 169.18 145.438 168.495 145.337L168.491 145.329Z" fill="white"/>
<path d="M158.92 148.994C160.515 147.615 164.848 144.692 166.746 143.448C168.9 142.04 170.102 143.216 169.143 144.621C169.031 144.79 168.802 145.033 168.491 145.329L168.495 145.337C169.18 145.438 169.51 146.244 168.611 147.577C168.405 147.881 168.046 148.271 167.596 148.705C167.6 148.709 167.608 148.713 167.611 148.717C168.256 149.338 167.282 150.669 166.226 151.5C164.721 152.684 162.815 154.73 162.193 155.408C162.141 155.577 162.062 155.723 161.946 155.832C160.295 157.413 157.92 162.898 155.651 164.322C155.097 164.674 154.573 164.948 154.093 165.165C154.086 165.169 154.082 165.176 154.075 165.18C153.461 165.54 119.329 188.624 111.978 193.596C111.547 193.941 111.087 194.252 110.596 194.529C110.592 194.529 110.589 194.529 110.589 194.529C109.855 194.941 109.061 195.279 108.211 195.511C102.774 197.01 97.1306 193.93 95.4642 188.56L84.6273 152.471C82.8187 146.637 86.4322 140.518 92.4311 139.267C97.681 138.173 102.905 141.23 104.496 146.334L112.146 171.655L147.743 157.465C148.076 157.132 148.417 156.78 148.735 156.42C149.521 155.536 149.956 153.962 150.727 152.336C151.296 150.953 153.064 147.982 153.064 147.982C153.064 147.982 154.269 145.093 155.412 142.309C156.374 139.96 157.943 142.59 157.183 145.749C158.085 145.007 159.025 144.277 159.819 143.741C162.245 142.111 164.825 140.852 166.121 140.747C167.417 140.642 167.937 142.647 165.979 143.954C164.339 145.048 160.407 147.825 158.92 148.994ZM158.92 148.994C158.815 148.908 159.025 149.072 158.92 148.994Z" stroke="#0C0C0C" stroke-linecap="round" stroke-linejoin="round"/>
<path d="M55.7527 244.913L43.1296 323.799" stroke="#0C0C0C" stroke-linecap="round" stroke-linejoin="round"/>
<path d="M93.0227 244.677L105.623 324.177" stroke="#0C0C0C" stroke-linecap="round" stroke-linejoin="round"/>
<path d="M265.45 244.913L252.827 323.799" stroke="#0C0C0C" stroke-linecap="round" stroke-linejoin="round"/>
<path d="M302.72 244.677L315.321 324.177" stroke="#0C0C0C" stroke-linecap="round" stroke-linejoin="round"/>
<path d="M275.718 244.066C276.546 244.265 277.362 244.392 278.141 244.433C279.137 244.486 280.084 244.399 280.946 244.141C286.124 242.59 295.58 238.315 301.796 235.392C302.608 235.01 303.365 234.654 304.05 234.328C306.386 233.215 307.888 232.481 307.888 232.481C307.888 232.481 322.447 208.344 324.488 203.461C326.529 198.583 335.512 164.303 335.512 164.303H334.662L334.055 164.416L323.451 166.315C318.837 167.14 314.988 170.294 313.28 174.641C309.068 185.36 306.978 204.155 298.852 214.117C298.609 214.417 298.362 214.706 298.107 214.991C297.703 215.44 297.287 215.879 296.86 216.306C292.711 220.51 287.765 223.721 282.878 226.149C281.908 226.628 280.946 227.082 279.987 227.501C271.678 231.162 264.057 232.638 261.515 233.005L261.403 233.02C257.984 233.522 267.611 242.136 275.722 244.066H275.718Z" fill="white" stroke="#0C0C0C" stroke-miterlimit="10"/>
<path d="M342.975 173.374L329.049 233.425C327.416 240.465 321.121 245.452 313.868 245.452H255.744C252.887 245.452 250.453 243.38 250.008 240.566C249.502 237.374 251.719 234.384 254.932 233.931L291.127 228.831C303.687 227.059 314.055 218.153 317.661 206.036L328.51 169.575C329.521 166.177 332.797 163.955 336.34 164.266C340.87 164.663 343.997 168.961 342.975 173.371V173.374Z" fill="white" stroke="#0C0C0C" stroke-miterlimit="10"/>
<path d="M226.874 190.142L225.874 185.241C225.874 185.241 229.195 188.081 228.959 190.587L226.874 190.142Z" fill="#F3F5FF"/>
<path d="M244.799 226.34C257.542 244.107 286.383 284.573 286.383 284.573L275.37 294.251L223.694 242.781C219.59 238.843 220.298 231.233 225.117 226.381C230.51 220.948 240.339 220.128 244.795 226.344L244.799 226.34Z" fill="white" stroke="#0C0C0C" stroke-miterlimit="10"/>
<path d="M282.369 274.756L266.323 288.668L222.93 243.444C216.422 236.707 218.048 225.658 226.222 221.064C232.502 217.535 240.437 219.194 244.762 224.946L282.369 274.76V274.756Z" fill="#002EFF"/>
<path d="M275.082 286.154C275.048 286.181 271.876 282.58 267.944 286.537L272.408 294.33L277.388 288.193L275.082 286.158V286.154Z" fill="white" stroke="#0C0C0C" stroke-miterlimit="10"/>
<path d="M293.629 287.799L283.923 279.238L269.981 290.152L272.408 294.33L270.753 308.242C270.753 308.242 266.147 318.921 265.911 319.183C265.705 319.415 266.855 321.817 267.139 322.39C267.18 322.469 267.199 322.514 267.199 322.514L269.015 322.177L293.629 287.799Z" fill="white" stroke="#0C0C0C" stroke-miterlimit="10"/>
<path d="M267.199 322.514L269.405 324.462L298.852 291.31L294.617 287.571L293.629 287.799L267.136 322.39C267.173 322.469 267.195 322.514 267.195 322.514H267.199Z" fill="white" stroke="#0C0C0C" stroke-linecap="round" stroke-linejoin="round"/>
<path d="M276.246 143.208C271.771 142.879 267.783 145.996 267.031 150.402L262.084 180.388C261.646 180.34 261.395 180.325 261.395 180.325C261.395 180.325 225.11 178.455 221.654 179.493L226.877 190.138C226.877 190.138 274.546 204.02 276.448 191.232C276.579 190.351 276.564 189.542 276.43 188.796C277.864 187.522 278.886 185.776 279.227 183.749L284.2 153.295C285.05 148.259 281.369 143.583 276.254 143.208H276.246Z" fill="white" stroke="#0C0C0C" stroke-linecap="round" stroke-linejoin="round"/>
<path d="M274.497 119.289C274.524 119.555 270.247 149.185 282.923 151.748C293.146 153.816 310.011 145.666 310.011 145.666L285.701 109.277L274.497 119.285V119.289Z" fill="#0C0C0C"/>
<path d="M293.962 128.791C294.602 128.221 294.988 127.854 294.988 127.854L289.113 107.898C289.113 107.898 282.342 105.583 274.628 112.552C274.628 112.552 272.816 113.702 273.88 119.686C274.939 125.67 277.145 135.25 281.515 136.037C282.17 136.153 282.964 136.018 283.836 135.715C284.181 139.278 284.657 143.891 284.911 145.078C286.944 154.663 296.126 142.8 296.126 142.8C296.048 142.534 294.737 133.695 293.962 128.787V128.791Z" fill="white" stroke="#0C0C0C" stroke-linecap="round" stroke-linejoin="round"/>
<path d="M311.254 128.221C307.135 123.29 306.431 125.516 298.777 114.575C298.227 113.683 297.665 112.829 297.092 112.035C292.621 105.841 285.9 105.995 283.481 106.306C280.26 106.722 275.939 108.236 275.295 109.948C272.239 118.067 290.88 120.034 290.88 120.034C290.88 120.034 291.438 122.747 291.962 124.302C294.265 131.148 292.161 138.266 296.838 141.998C297.864 142.819 298.759 139.02 301.766 137.671C303.81 140.099 306.667 148.173 309.161 147.33C313.7 145.794 320.691 139.51 311.258 128.217L311.254 128.221Z" fill="#0C0C0C"/>
<path d="M289.161 120.405C289.161 120.405 291.352 117.576 293.73 119.487C297.07 122.17 293.879 126.471 291.356 126.247C288.832 126.022 289.158 120.405 289.158 120.405H289.161Z" fill="white"/>
<path d="M277.381 113.897L273.984 120.619C273.984 120.619 272.138 112.732 275.029 109.914C277.92 107.1 283.316 108.835 283.316 108.835L277.381 113.893V113.897Z" fill="#0C0C0C"/>
<path d="M311.726 211.753L305.96 195.979L271.992 195.676C271.992 195.676 265.477 214.132 266.731 214.541C267.986 214.949 311.726 211.757 311.726 211.757V211.753Z" fill="#002EFF"/>
<path d="M314.879 149.627L335.145 181.123C337.841 184.982 336.976 190.276 333.187 193.079C329.229 196.009 325.57 193.188 322.758 189.152L301.26 158.863C298.703 155.191 299.365 150.181 302.792 147.296C306.705 143.999 311.947 145.438 314.879 149.627Z" fill="white" stroke="#0C0C0C" stroke-linecap="round" stroke-linejoin="round"/>
<path d="M315.658 148.926C313.943 146.423 311.247 145 308.442 144.805C308.626 144.288 308.779 144.022 308.779 144.022L296.482 140.604L296.074 138.338C287.978 140.604 283.541 139.012 283.541 139.012L283.574 141.564L273.685 142.673C273.685 142.673 273.677 142.703 273.67 142.751C269.813 143.531 266.69 146.656 266.124 150.758L263.103 172.528L272.236 173.243C272.359 179.182 272.835 197.032 272.835 197.032L288.308 197.534H305.398L308.51 172.123L313.913 179.976L328.517 168.972L315.666 148.93L315.658 148.926Z" fill="white" stroke="#0C0C0C" stroke-linecap="round" stroke-linejoin="round"/>
<path d="M322.694 180.239L291.397 184.521C291.397 184.521 291.397 184.532 291.397 184.536C288.513 183.528 282.687 181.475 280.56 180.602C278.014 179.549 275.171 183.052 273.625 184.589C273.284 184.926 273.119 185.398 273.187 185.866C273.239 186.218 273.61 186.387 274.119 186.563C274.16 186.578 274.217 186.578 274.28 186.571C273.621 187.399 273.737 188.051 274.029 188.354C274.475 188.804 275.179 188.568 275.928 188.137C275.932 188.137 275.935 188.133 275.939 188.129C274.715 189.201 275.516 189.868 276.153 189.935C276.239 189.965 276.381 189.947 276.564 189.898C276.46 190.025 276.403 190.141 276.4 190.25C276.46 191.412 277.194 191.221 277.722 191.221C278.594 191.198 281.436 190.452 282.975 190.925C283.181 190.984 285.596 193.652 288.427 194.641C289.334 194.96 290.326 194.945 291.288 194.758C297.223 194.701 329.944 194.285 329.944 194.285" fill="white"/>
<path d="M322.694 180.239L291.397 184.521C291.397 184.521 291.397 184.532 291.397 184.536C288.513 183.528 282.687 181.475 280.56 180.602C278.014 179.549 275.171 183.052 273.625 184.589C273.284 184.926 273.119 185.398 273.187 185.866C273.239 186.218 273.61 186.387 274.119 186.563C274.16 186.578 274.217 186.578 274.28 186.571C273.621 187.399 273.737 188.051 274.029 188.354C274.475 188.804 275.179 188.568 275.928 188.137C275.932 188.137 275.935 188.133 275.939 188.129C274.715 189.201 275.516 189.868 276.153 189.935C276.239 189.965 276.381 189.947 276.564 189.898C276.46 190.025 276.403 190.141 276.4 190.25C276.46 191.412 277.194 191.221 277.722 191.221C278.594 191.198 281.436 190.452 282.975 190.925C283.181 190.984 285.596 193.652 288.427 194.641C289.334 194.96 290.326 194.945 291.288 194.758C297.223 194.701 329.944 194.285 329.944 194.285" stroke="#0C0C0C" stroke-linecap="round" stroke-linejoin="round"/>
<path d="M312.299 214.923C311.771 208.014 306.828 202.611 300.567 201.034C298.336 200.472 295.939 200.397 293.516 200.91L284.716 202.776L280.762 203.612L231.034 217.969C229.555 218.43 228.214 219.15 227.046 220.068C224.136 222.361 222.335 225.89 222.32 229.742C222.29 237.052 228.705 245.958 235.973 244.969C253.153 242.631 281.358 234.328 299.264 231.424C301.908 230.993 304.301 229.922 306.289 228.386C309.674 225.778 311.906 221.832 312.288 217.445C312.359 216.617 312.363 215.77 312.299 214.919V214.923Z" fill="#002EFF"/>
<path d="M246.81 232.174C248.229 253.969 251.315 306.964 251.315 306.964L236.838 305.938L220.186 235.047C218.781 229.543 223.414 223.451 230.075 221.862C237.531 220.082 246.316 224.549 246.81 232.174Z" fill="white" stroke="#0C0C0C" stroke-miterlimit="10"/>
<path d="M253.097 293.056L232.101 296.439L219.175 235.208C217.213 226.062 224.443 217.531 233.82 217.924C241.024 218.228 246.885 223.807 247.514 230.963L253.093 293.052L253.097 293.056Z" fill="#002EFF"/>
<path d="M231.427 293.502C231.333 293.502 231.251 293.434 231.236 293.337C231.217 293.232 231.292 293.131 231.397 293.112L252.775 289.586C252.88 289.568 252.981 289.639 253 289.748C253.018 289.853 252.943 289.954 252.839 289.972L231.461 293.498C231.461 293.498 231.438 293.498 231.427 293.498V293.502Z" fill="#0C0C0C"/>
<path d="M293.756 133.497C293.756 133.497 294.486 155.202 312.082 145.801L302.762 132.212L293.752 133.497H293.756Z" fill="#0C0C0C"/>
<path d="M240.923 303.008C240.882 303 241.485 298.246 235.906 297.935L233.011 306.429L240.923 306.076V303.008Z" fill="white" stroke="#0C0C0C" stroke-miterlimit="10"/>
<path d="M252.809 318.523L251.981 317.939V305.02L234.543 301.85L233.011 306.428L221.459 314.417C221.459 314.417 210.382 318.059 210.03 318.059C209.72 318.059 208.679 320.509 208.431 321.101C208.398 321.184 208.379 321.229 208.379 321.229V322.96L252.809 322.637V318.527V318.523Z" fill="white" stroke="#0C0C0C" stroke-miterlimit="10"/>
<path d="M208.379 321.225V324.162H252.809V318.523L251.981 317.939L208.431 321.101C208.398 321.183 208.379 321.228 208.379 321.228V321.225Z" fill="white" stroke="#0C0C0C" stroke-miterlimit="10"/>
<path d="M242.957 244.025C242.867 244.025 242.784 243.961 242.766 243.871C242.743 243.766 242.811 243.661 242.915 243.639L299.223 231.241C299.328 231.218 299.433 231.286 299.455 231.391C299.478 231.495 299.41 231.6 299.305 231.623L242.998 244.021C242.998 244.021 242.968 244.025 242.957 244.025Z" fill="#0C0C0C"/>
<path d="M243.091 194.387H178.13C176.145 194.387 174.734 192.783 174.977 190.805L179.306 155.685C179.549 153.707 181.358 152.104 183.343 152.104H248.304C250.289 152.104 251.7 153.707 251.457 155.685L247.128 190.805C246.885 192.783 245.076 194.387 243.091 194.387Z" fill="white"/>
<path d="M219.309 171.4L206.443 171.276L208.154 158.417L221.021 158.544L219.309 171.4Z" fill="#F3F5FF"/>
<path d="M220.777 160.545L207.911 160.418C207.802 160.418 207.716 160.328 207.716 160.219C207.716 160.111 207.806 160.024 207.911 160.024L220.777 160.152C220.886 160.152 220.972 160.242 220.972 160.35C220.972 160.459 220.882 160.545 220.777 160.545Z" fill="#F3F5FF"/>
<path d="M207.772 168.627L218.624 168.732C218.624 168.732 218.268 165.802 217.003 165.585C215.426 165.315 214.498 167.102 213.547 166.27C212.599 165.439 212.386 163.13 211.131 163.138C209.42 163.153 207.772 168.623 207.772 168.623V168.627Z" fill="#F3F5FF"/>
<path fill-rule="evenodd" clip-rule="evenodd" d="M214.771 162.711C215.134 162.37 215.673 162.355 215.977 162.674C216.28 162.996 216.231 163.532 215.868 163.873C215.505 164.213 214.966 164.228 214.662 163.91C214.359 163.588 214.408 163.052 214.771 162.711Z" fill="#F3F5FF"/>
<path d="M194.735 168.797C195.847 167.785 196.023 166.166 195.129 165.182C194.234 164.198 192.607 164.22 191.495 165.233C190.382 166.245 190.206 167.863 191.101 168.848C191.996 169.832 193.623 169.809 194.735 168.797Z" fill="#F3F5FF"/>
<path d="M194.558 167.057L192.378 168.204L192.685 165.873L194.554 167.057H194.558Z" fill="#F3F5FF"/>
<path d="M200.485 175.581H183.725C183.668 175.581 183.616 175.559 183.578 175.514C183.541 175.473 183.522 175.416 183.53 175.36L185.589 158.657C185.601 158.559 185.683 158.484 185.784 158.484H202.545C202.601 158.484 202.654 158.507 202.691 158.552C202.728 158.593 202.747 158.649 202.74 158.705L200.68 175.409C200.669 175.506 200.586 175.581 200.485 175.581ZM183.945 175.192H200.313L202.324 158.882H185.956L183.945 175.192Z" fill="#F3F5FF"/>
<path d="M198.988 187.976H182.219L183.534 177.323H200.302L198.991 187.976H198.988Z" fill="#F3F5FF"/>
<path d="M188.08 186.676H188.076C188.008 186.676 187.948 186.638 187.915 186.582L184.717 181.329C184.661 181.235 184.691 181.115 184.784 181.063C184.878 181.007 184.998 181.037 185.054 181.13L188.091 186.125L192.446 179.665C192.483 179.609 192.543 179.572 192.61 179.579C192.678 179.579 192.738 179.613 192.771 179.669L195.438 183.835L198.167 181.239C198.246 181.164 198.37 181.168 198.445 181.246C198.519 181.325 198.516 181.449 198.437 181.524L195.535 184.285C195.494 184.326 195.434 184.345 195.378 184.338C195.318 184.33 195.269 184.296 195.235 184.248L192.603 180.134L188.244 186.601C188.207 186.653 188.147 186.687 188.083 186.687L188.08 186.676Z" fill="#F3F5FF"/>
<path fill-rule="evenodd" clip-rule="evenodd" d="M184.799 181.089C184.919 180.977 185.103 180.969 185.204 181.078C185.305 181.187 185.286 181.363 185.166 181.479C185.046 181.595 184.863 181.599 184.762 181.49C184.661 181.381 184.679 181.205 184.799 181.089Z" fill="#F3F5FF"/>
<path fill-rule="evenodd" clip-rule="evenodd" d="M187.904 186.278C188.023 186.166 188.207 186.158 188.308 186.267C188.409 186.376 188.39 186.552 188.27 186.668C188.151 186.784 187.967 186.788 187.866 186.679C187.765 186.571 187.784 186.395 187.904 186.278Z" fill="#F3F5FF"/>
<path fill-rule="evenodd" clip-rule="evenodd" d="M192.408 179.564C192.528 179.452 192.712 179.444 192.813 179.553C192.914 179.661 192.895 179.838 192.775 179.954C192.655 180.066 192.472 180.074 192.371 179.965C192.27 179.856 192.288 179.68 192.408 179.564Z" fill="#F3F5FF"/>
<path fill-rule="evenodd" clip-rule="evenodd" d="M195.22 183.85C195.34 183.738 195.524 183.73 195.625 183.839C195.726 183.948 195.707 184.124 195.587 184.24C195.468 184.352 195.284 184.36 195.183 184.251C195.082 184.143 195.101 183.967 195.22 183.85Z" fill="#F3F5FF"/>
<path fill-rule="evenodd" clip-rule="evenodd" d="M198.048 181.201C198.167 181.089 198.351 181.082 198.452 181.19C198.553 181.299 198.534 181.475 198.415 181.591C198.295 181.707 198.111 181.711 198.01 181.602C197.909 181.494 197.928 181.318 198.048 181.201Z" fill="#F3F5FF"/>
<path d="M248.094 153.76C249.158 153.76 249.918 154.621 249.787 155.682L245.458 190.801C245.327 191.861 244.353 192.723 243.29 192.723H178.329C177.265 192.723 176.505 191.861 176.636 190.801L180.965 155.682C181.096 154.621 182.069 153.76 183.133 153.76H248.094ZM248.3 152.1H183.339C181.354 152.1 179.546 153.704 179.302 155.682L174.973 190.801C174.73 192.779 176.142 194.383 178.126 194.383H243.088C245.072 194.383 246.881 192.779 247.124 190.801L251.453 155.682C251.697 153.704 250.285 152.1 248.3 152.1Z" fill="#0C0C0C"/>
<path d="M240.515 188.021H221.916L225.578 158.282H244.181L240.515 188.021Z" fill="#F3F5FF"/>
<path d="M241.399 162.658H226.952C226.844 162.658 226.757 162.572 226.757 162.463C226.757 162.355 226.844 162.269 226.952 162.269H241.399C241.507 162.269 241.594 162.355 241.594 162.463C241.594 162.572 241.507 162.658 241.399 162.658Z" fill="#F3F5FF"/>
<path d="M241.099 165.105H226.653C226.544 165.105 226.458 165.019 226.458 164.91C226.458 164.802 226.544 164.715 226.653 164.715H241.099C241.208 164.715 241.294 164.802 241.294 164.91C241.294 165.019 241.208 165.105 241.099 165.105Z" fill="#F3F5FF"/>
<path d="M240.796 167.552H226.349C226.241 167.552 226.155 167.465 226.155 167.357C226.155 167.248 226.241 167.162 226.349 167.162H240.796C240.905 167.162 240.991 167.248 240.991 167.357C240.991 167.465 240.905 167.552 240.796 167.552Z" fill="#F3F5FF"/>
<path d="M240.496 169.995H226.05C225.941 169.995 225.855 169.908 225.855 169.8C225.855 169.691 225.941 169.605 226.05 169.605H240.496C240.605 169.605 240.691 169.691 240.691 169.8C240.691 169.908 240.605 169.995 240.496 169.995Z" fill="#F3F5FF"/>
<path d="M240.193 172.441H225.746C225.638 172.441 225.552 172.355 225.552 172.246C225.552 172.138 225.638 172.052 225.746 172.052H240.193C240.302 172.052 240.388 172.138 240.388 172.246C240.388 172.355 240.302 172.441 240.193 172.441Z" fill="#F3F5FF"/>
<path d="M232.232 174.888H225.447C225.338 174.888 225.252 174.802 225.252 174.693C225.252 174.584 225.338 174.498 225.447 174.498H232.232C232.341 174.498 232.427 174.584 232.427 174.693C232.427 174.802 232.341 174.888 232.232 174.888Z" fill="#F3F5FF"/>
<path d="M231.933 177.334H225.144C225.035 177.334 224.949 177.248 224.949 177.14C224.949 177.031 225.035 176.945 225.144 176.945H231.933C232.041 176.945 232.127 177.031 232.127 177.14C232.127 177.248 232.041 177.334 231.933 177.334Z" fill="#F3F5FF"/>
<path d="M231.633 179.778H224.844C224.735 179.778 224.649 179.691 224.649 179.583C224.649 179.474 224.735 179.388 224.844 179.388H231.633C231.742 179.388 231.828 179.474 231.828 179.583C231.828 179.691 231.742 179.778 231.633 179.778Z" fill="#F3F5FF"/>
<path d="M231.33 182.224H224.541C224.432 182.224 224.346 182.138 224.346 182.029C224.346 181.921 224.432 181.834 224.541 181.834H231.33C231.438 181.834 231.524 181.921 231.524 182.029C231.524 182.138 231.438 182.224 231.33 182.224Z" fill="#F3F5FF"/>
<path d="M231.03 184.671H224.245C224.136 184.671 224.05 184.585 224.05 184.476C224.05 184.367 224.136 184.281 224.245 184.281H231.03C231.139 184.281 231.225 184.367 231.225 184.476C231.225 184.585 231.139 184.671 231.03 184.671Z" fill="#F3F5FF"/>
<path d="M238.688 184.671H232.213C232.157 184.671 232.105 184.648 232.067 184.603C232.03 184.562 232.011 184.506 232.019 184.45L233.243 174.513C233.254 174.416 233.337 174.341 233.438 174.341H239.912C239.968 174.341 240.021 174.363 240.058 174.408C240.096 174.449 240.114 174.506 240.107 174.562L238.883 184.499C238.871 184.596 238.789 184.671 238.688 184.671ZM232.434 184.281H238.516L239.691 174.734H233.61L232.434 184.281Z" fill="#F3F5FF"/>
<path d="M220.1 188.171H201.511C201.455 188.171 201.403 188.148 201.365 188.103C201.328 188.062 201.309 188.006 201.317 187.95L203.144 173.127C203.155 173.03 203.238 172.955 203.339 172.955H221.927C221.983 172.955 222.036 172.977 222.073 173.022C222.11 173.063 222.129 173.12 222.122 173.176L220.294 187.998C220.283 188.096 220.201 188.171 220.1 188.171ZM201.732 187.781H219.924L221.702 173.348H203.511L201.732 187.781Z" fill="#F3F5FF"/>
<path d="M245.237 194.63L138.58 194.612C137.891 194.612 137.333 194.057 137.333 193.371C137.333 192.686 137.891 192.131 138.58 192.131H245.256C246.323 192.131 246.896 193.383 246.196 194.184L246.181 194.203C245.945 194.477 245.6 194.63 245.241 194.63H245.237Z" fill="#0C0C0C"/>
<path d="M144.365 193.439H139.875L140.298 191.273C140.351 191.011 140.579 190.82 140.849 190.82H143.305C143.564 190.82 143.792 190.999 143.852 191.25L144.365 193.439Z" fill="#0C0C0C"/>
<path d="M152.019 193.439H147.529L147.952 191.273C148.005 191.011 148.233 190.82 148.503 190.82H150.959C151.218 190.82 151.446 190.999 151.506 191.25L152.019 193.439Z" fill="#0C0C0C"/>
<path d="M159.669 193.439H155.179L155.603 191.273C155.655 191.011 155.883 190.82 156.153 190.82H158.609C158.868 190.82 159.096 190.999 159.156 191.25L159.669 193.439Z" fill="#0C0C0C"/>
<path d="M167.323 193.439H162.833L163.257 191.273C163.309 191.011 163.537 190.82 163.807 190.82H166.263C166.522 190.82 166.75 190.999 166.81 191.25L167.323 193.439Z" fill="#0C0C0C"/>
<path d="M174.973 193.439H170.484L170.907 191.273C170.959 191.011 171.188 190.82 171.457 190.82H173.914C174.172 190.82 174.4 190.999 174.46 191.25L174.973 193.439Z" fill="#0C0C0C"/>
<path d="M182.627 193.439H178.138L178.561 191.273C178.613 191.011 178.842 190.82 179.111 190.82H181.568C181.826 190.82 182.054 190.999 182.114 191.25L182.627 193.439Z" fill="#0C0C0C"/>
<path d="M190.281 193.439H185.792L186.215 191.273C186.267 191.011 186.495 190.82 186.765 190.82H189.222C189.48 190.82 189.708 190.999 189.768 191.25L190.281 193.439Z" fill="#0C0C0C"/>
<path d="M191.045 194.806C190.251 194.806 189.604 194.162 189.604 193.371C189.604 192.581 190.251 191.936 191.045 191.936V192.326C190.465 192.326 189.997 192.794 189.997 193.371C189.997 193.948 190.469 194.417 191.045 194.417V194.806Z" fill="#F3F5FF"/>
<path d="M113.895 225.534C104.197 246.925 80.5719 305.342 80.5719 305.342H97.2654L138.898 237.382C142.399 232.372 140.744 225.575 134.644 221.465C127.818 216.864 117.284 218.048 113.891 225.53L113.895 225.534Z" fill="white" stroke="#0C0C0C" stroke-miterlimit="10"/>
<path d="M115.329 222.653L83.9608 291.119L107.941 296.365L141.175 233.002L115.326 222.649L115.329 222.653Z" fill="#FF3D00"/>
<path d="M119.336 320.884C119.336 320.884 119.314 320.835 119.272 320.749C118.98 320.127 118.362 318.235 117.411 317.561C117.209 317.418 112.045 316.051 108.432 315.103C106.192 314.518 104.249 313.135 102.961 311.217L101.295 308.737L98.1791 304.405L81.0999 303.431L72.36 319.449L71.5025 320.12L71.7309 323.836L119.441 323.218L119.336 320.891V320.884Z" fill="white" stroke="#0C0C0C" stroke-miterlimit="10"/>
<path d="M119.336 320.884L119.478 324.035L71.7759 324.365L71.5025 320.108L72.36 319.438L119.272 320.745C119.314 320.831 119.332 320.88 119.332 320.88L119.336 320.884Z" fill="white" stroke="#0C0C0C" stroke-miterlimit="10"/>
<path d="M81.0999 303.427L83.5789 297.721L100.662 299.796L97.8495 304.386L81.0999 303.431V303.427Z" fill="white" stroke="#0C0C0C" stroke-miterlimit="10"/>
<path d="M83.7324 243.53C82.9048 243.729 82.0885 243.856 81.3096 243.898C80.3136 243.95 79.3662 243.864 78.5049 243.605C73.3261 242.054 63.871 237.779 57.655 234.856C56.8424 234.474 56.086 234.118 55.4007 233.792C53.0641 232.68 51.5625 231.945 51.5625 231.945C51.5625 231.945 37.0035 207.808 34.9627 202.926C32.9219 198.047 23.9386 163.768 23.9386 163.768H24.7886L25.3952 163.88L35.9999 165.78C40.6133 166.604 44.4627 169.759 46.1703 174.105C50.3829 184.825 52.4724 203.619 60.5982 213.582C60.8416 213.882 61.0888 214.17 61.3434 214.455C61.7478 214.904 62.1635 215.343 62.5903 215.77C66.7394 219.974 71.686 223.185 76.5727 225.613C77.5425 226.093 78.5049 226.546 79.4635 226.966C87.7728 230.626 95.3931 232.102 97.9357 232.47L98.048 232.485C101.467 232.987 91.8432 241.601 83.7286 243.53H83.7324Z" fill="white" stroke="#0C0C0C" stroke-miterlimit="10"/>
<path d="M16.4756 172.835L30.4017 232.885C32.0344 239.926 38.3291 244.913 45.5824 244.913H103.706C106.563 244.913 108.997 242.841 109.443 240.027C109.948 236.835 107.732 233.845 104.519 233.391L68.3233 228.292C55.7639 226.52 45.3951 217.613 41.7891 205.496L30.941 169.035C29.9299 165.637 26.6534 163.415 23.111 163.726C18.58 164.123 15.4533 168.421 16.4756 172.831V172.835Z" fill="white" stroke="#0C0C0C" stroke-miterlimit="10"/>
<path d="M89.8473 174.038L112.24 167.466L104.463 145.794C102.553 140.473 96.8947 137.476 91.4013 138.881C85.395 140.413 81.8526 146.596 83.5826 152.531L89.8511 174.038H89.8473Z" fill="#002EFF"/>
<path d="M112.914 122.106C112.693 120.342 112.101 118.404 111.251 114.789C109.51 107.37 107.054 105.467 99.441 106.205C99.3174 106.216 99.1901 106.231 99.0665 106.246C88.9786 107.452 91.5586 119.128 92.7194 122.859C92.9179 123.493 93.21 124.171 93.5769 124.872C92.5884 124.606 91.9069 124.546 91.8095 124.849C91.3938 126.179 88.0799 142.238 87.9301 142.643C87.9301 142.643 100.343 146.794 101.19 146.716C101.684 146.667 102.489 140.623 103.07 135.621C103.182 134.658 103.283 133.74 103.377 132.909C103.744 132.923 104.118 132.92 104.496 132.89C109.858 132.466 113.584 127.449 112.914 122.11V122.106Z" fill="white" stroke="#0C0C0C" stroke-miterlimit="10"/>
<path d="M128.761 235.875C136.074 258.188 156.359 307.654 156.359 307.654L170.873 303.008L155.243 227.82C154.438 221.769 148.619 217.861 141.332 218.925C133.18 220.116 126.204 228.067 128.761 235.872V235.875Z" fill="white" stroke="#0C0C0C" stroke-miterlimit="10"/>
<path d="M127.87 232.784L150.203 296.84L172.296 292.179L154.753 224.586L127.87 232.784Z" fill="#FF3D00"/>
<path d="M141.886 242.028C136.381 243.407 120.635 239.349 103.489 235.771C90.4053 233.039 76.9172 230.469 67.5969 228.138C62.8038 226.939 59.0742 223.766 57.0146 219.73C55.1049 215.983 54.6331 211.495 56.101 207.16C56.3406 206.444 56.6289 205.758 56.9585 205.103C60.3661 198.272 68.2073 194.623 75.7976 196.653L143.923 214.886C147.001 215.886 149.566 217.242 151.468 219.056C153.371 220.877 154.614 223.159 155.056 226.025C156.247 233.792 149.533 240.109 141.886 242.024V242.028Z" fill="#FF3D00"/>
<path d="M155.011 306.369L153.408 300.404L169.918 298.414L171.364 303.933L155.011 306.369Z" fill="white" stroke="#0C0C0C" stroke-miterlimit="10"/>
<path d="M202.238 320.884C202.238 320.884 202.215 320.835 202.174 320.749C201.882 320.127 201.264 318.235 200.313 317.56C200.002 317.339 187.866 314.2 187.866 314.2L175.078 306.178L171.352 301.445L154.64 305.574L155.266 319.445L154.408 320.116L154.636 323.833L202.346 323.214L202.242 320.888L202.238 320.884Z" fill="white" stroke="#0C0C0C" stroke-miterlimit="10"/>
<path d="M202.238 320.884L202.38 324.035L154.678 324.365L154.404 320.108L155.262 319.438L202.174 320.745C202.215 320.831 202.234 320.88 202.234 320.88L202.238 320.884Z" fill="white" stroke="#0C0C0C" stroke-miterlimit="10"/>
<path d="M114.157 104.867L110.401 106.029C113.146 103.042 111.158 100.03 109.776 98.9771C102.762 104.238 100.313 103.29 100.313 103.29C95.4043 100.236 93.9327 105.122 93.9327 105.122C86.8741 105.073 88.9224 111.563 88.9224 111.563C87.6567 111.626 86.6532 111.934 86.6457 114.538C86.6457 115.01 86.758 115.553 86.8329 116.156C87.4508 121.098 89.7687 129.881 89.7687 129.881C93.371 130.844 97.7934 121.615 97.7934 121.615C103.249 119.071 101.527 112.454 101.527 112.454C101.527 112.454 100.699 112.616 108.039 112.765C112.424 112.855 113.989 109.326 114.285 107.213C114.416 106.295 114.333 105.44 114.154 104.867H114.157Z" fill="#0C0C0C"/>
<path d="M89.9634 134.044L101.969 141.294C101.969 141.294 102.98 142.039 104.039 145.299C107.38 155.592 108.166 172.539 107.327 176.889C106.593 180.707 106.822 203.836 106.822 203.836C91.1916 213.574 72.4574 217.1 54.341 213.705L51.8246 213.233C51.8246 213.233 69.0386 165.51 71.304 157.889C74.5918 146.824 84.7696 133.987 89.9596 134.04L89.9634 134.044Z" fill="#002EFF"/>
<path d="M102.594 118.479C102.594 118.479 99.8566 115.508 97.3665 117.887C93.869 121.226 97.8757 125.756 100.692 125.258C103.508 124.763 102.594 118.479 102.594 118.479Z" fill="white"/>
<path d="M155.539 187.339C154.176 185.124 151.869 180.257 148.611 180.763C144.942 181.325 132.783 182.547 132.783 182.547L94.9812 175.664L100.782 153.115C102.043 147.922 99.1339 142.624 94.0675 140.882C88.2783 138.888 82.0211 142.29 80.5682 148.222L71.9032 181.67C70.5664 187.129 73.8279 192.659 79.2613 194.154C80.1713 194.405 81.0887 194.525 81.9911 194.529C81.9911 194.529 133.172 194.817 133.974 194.795C133.977 194.795 133.981 194.787 133.985 194.787C134.487 194.877 134.992 194.907 135.502 194.859C139.066 194.503 142.628 192.09 142.886 192.075C144.807 191.966 147.9 193.622 148.907 193.896C149.518 194.042 150.315 194.473 150.716 193.139C150.742 193.011 150.708 192.858 150.622 192.682C150.824 192.794 150.985 192.854 151.09 192.843C151.847 192.948 152.963 192.397 151.854 190.812C151.854 190.812 151.858 190.812 151.862 190.816C152.607 191.524 153.36 192 154.004 191.595C154.43 191.333 154.753 190.602 154.217 189.452C154.292 189.478 154.359 189.493 154.412 189.486C155.048 189.433 155.531 189.332 155.689 188.942C155.902 188.418 155.842 187.815 155.543 187.335L155.539 187.339Z" fill="white" stroke="#0C0C0C" stroke-miterlimit="10"/>
<path d="M74.2248 166.679L99.587 170.1L102.519 151.017C103.451 144.951 99.3998 139.237 93.3523 138.09C87.5519 136.985 81.8601 140.462 80.2162 146.112L74.2248 166.679Z" fill="#002EFF"/>
<path d="M388.914 194.612H90.4352V199.142H388.914V194.612Z" fill="#0C0C0C"/>
<path d="M76.5128 311.832C76.5128 311.832 85.4212 311.67 85.3388 319.805" stroke="#0C0C0C" stroke-linecap="round" stroke-linejoin="round"/>
<path d="M136.453 196.901L120.639 324.346" stroke="#0C0C0C" stroke-linecap="round" stroke-linejoin="round"/>
<path d="M154.992 313.379C154.992 313.379 166.803 311.172 168.244 319.805" stroke="#0C0C0C" stroke-linecap="round" stroke-linejoin="round"/>
<path d="M70.6525 228.697L130.907 241.537L150.203 297.035L172.337 292.37L157.198 233.234" stroke="#0C0C0C" stroke-linecap="round" stroke-linejoin="round"/>
<path d="M74.0301 166.652L99.5608 170.294L102.096 153.767" stroke="#0C0C0C" stroke-linecap="round" stroke-linejoin="round"/>
<path d="M102.583 141.68C102.583 141.68 108.45 149.893 107.387 177.822" stroke="#0C0C0C" stroke-linecap="round" stroke-linejoin="round"/>
<path d="M94.9849 175.664L87.9338 174.693" stroke="#0C0C0C" stroke-linecap="round" stroke-linejoin="round"/>
<path d="M167.611 148.709L161.871 152.887" stroke="#0C0C0C" stroke-linecap="round" stroke-linejoin="round"/>
<path d="M112.146 171.655L109.087 173.243" stroke="#0C0C0C" stroke-linecap="round" stroke-linejoin="round"/>
<path d="M157.183 145.749C157.183 145.749 156.932 146.959 156.385 147.986C156.292 148.166 156.243 148.361 156.258 148.563C156.389 150.283 156.707 158.811 150.379 161.205" stroke="#0C0C0C" stroke-linecap="round" stroke-linejoin="round"/>
<path d="M157.4 148.154C157.4 148.154 162.129 150.174 161.991 155.566" stroke="#0C0C0C" stroke-linecap="round" stroke-linejoin="round"/>
<path d="M168.48 145.348L160.912 151.264" stroke="#0C0C0C" stroke-linecap="round" stroke-linejoin="round"/>
<path d="M249.094 242.676L252.314 284.356" stroke="#0C0C0C" stroke-linecap="round" stroke-linejoin="round"/>
<path d="M242.766 243.871L299.309 231.619" stroke="#0C0C0C" stroke-linecap="round" stroke-linejoin="round"/>
<path d="M23.9423 324.458H407.719" stroke="#0C0C0C" stroke-linecap="round" stroke-linejoin="round"/>
<path d="M343.286 196.856L358.661 323.911" stroke="#0C0C0C" stroke-linecap="round" stroke-linejoin="round"/>
<path d="M272.232 173.243C272.232 173.243 268.944 160.418 275.299 153.76L272.232 173.243Z" fill="white"/>
<path d="M272.232 173.243C272.232 173.243 268.944 160.418 275.299 153.76" stroke="#0C0C0C" stroke-linecap="round" stroke-linejoin="round"/>
<path d="M299.994 159.747L313.718 179.695" stroke="#0C0C0C" stroke-linecap="round" stroke-linejoin="round"/>
<path d="M262.084 180.392L266.57 184.327" stroke="#0C0C0C" stroke-linecap="round" stroke-linejoin="round"/>
<path d="M271.15 304.892C271.15 304.892 272.292 302.536 276.467 303.645L271.15 304.892Z" fill="white"/>
<path d="M271.15 304.892C271.15 304.892 272.292 302.536 276.467 303.645" stroke="#0C0C0C" stroke-linecap="round" stroke-linejoin="round"/>
<path d="M271.603 302.27C271.603 302.27 272.745 299.913 276.92 301.022L271.603 302.27Z" fill="white"/>
<path d="M271.603 302.27C271.603 302.27 272.745 299.913 276.92 301.022" stroke="#0C0C0C" stroke-linecap="round" stroke-linejoin="round"/>
<path d="M271.899 299.647C271.899 299.647 273.041 297.29 277.216 298.399L271.899 299.647Z" fill="white"/>
<path d="M271.899 299.647C271.899 299.647 273.041 297.29 277.216 298.399" stroke="#0C0C0C" stroke-linecap="round" stroke-linejoin="round"/>
<path d="M224.694 312.225C224.694 312.225 227.177 311.389 229.308 315.151L224.694 312.225Z" fill="white"/>
<path d="M224.694 312.225C224.694 312.225 227.177 311.389 229.308 315.151" stroke="#0C0C0C" stroke-linecap="round" stroke-linejoin="round"/>
<path d="M226.881 310.711C226.881 310.711 229.364 309.876 231.494 313.637L226.881 310.711Z" fill="white"/>
<path d="M226.881 310.711C226.881 310.711 229.364 309.876 231.494 313.637" stroke="#0C0C0C" stroke-linecap="round" stroke-linejoin="round"/>
<path d="M229.188 309.209C229.188 309.209 231.67 308.373 233.801 312.135L229.188 309.209Z" fill="white"/>
<path d="M229.188 309.209C229.188 309.209 231.67 308.373 233.801 312.135" stroke="#0C0C0C" stroke-linecap="round" stroke-linejoin="round"/>
<path d="M276.92 204.724L229.547 218.187C222.028 220.322 217.456 227.936 219.1 235.583L227.937 276.716" stroke="#0C0C0C" stroke-linecap="round" stroke-linejoin="round"/>
<path d="M274.041 186.709L277.935 183.326C278.631 182.723 279.579 182.498 280.47 182.727L284.001 183.633" fill="white"/>
<path d="M274.041 186.709L277.935 183.326C278.631 182.723 279.579 182.498 280.47 182.727L284.001 183.633" stroke="#0C0C0C" stroke-linecap="round" stroke-linejoin="round"/>
<path d="M275.767 188.249L279.485 185.762C280.051 185.383 280.743 185.241 281.414 185.368L285.031 186.046" fill="white"/>
<path d="M275.767 188.249L279.485 185.762C280.051 185.383 280.743 185.241 281.414 185.368L285.031 186.046" stroke="#0C0C0C" stroke-linecap="round" stroke-linejoin="round"/>
<path d="M276.568 189.898L281.114 187.964C281.788 187.68 282.53 187.597 283.249 187.732L285.978 188.249" fill="white"/>
<path d="M276.568 189.898L281.114 187.964C281.788 187.68 282.53 187.597 283.249 187.732L285.978 188.249" stroke="#0C0C0C" stroke-linecap="round" stroke-linejoin="round"/>
<path d="M154.322 189.624L151.03 184.975C150.124 183.689 148.611 182.974 147.042 183.086L143.792 183.319" fill="white"/>
<path d="M154.322 189.624L151.03 184.975C150.124 183.689 148.611 182.974 147.042 183.086L143.792 183.319" stroke="#0C0C0C" stroke-linecap="round" stroke-linejoin="round"/>
<path d="M151.989 190.962L147.952 186.713C147.177 185.9 146.076 185.484 144.957 185.582L142.122 185.836" fill="white"/>
<path d="M151.989 190.962L147.952 186.713C147.177 185.9 146.076 185.484 144.957 185.582L142.122 185.836" stroke="#0C0C0C" stroke-linecap="round" stroke-linejoin="round"/>
<path d="M150.618 192.682L145.428 188.714C144.751 188.197 143.889 187.983 143.051 188.126L140.422 188.572" fill="white"/>
<path d="M150.618 192.682L145.428 188.714C144.751 188.197 143.889 187.983 143.051 188.126L140.422 188.572" stroke="#0C0C0C" stroke-linecap="round" stroke-linejoin="round"/>
</g>
<defs>
<clipPath id="clip0_16_3868">
<rect width="392" height="392" fill="white" transform="translate(16 16)"/>
</clipPath>
</defs>
</svg>
