<svg width="289" height="289" viewBox="0 0 289 289" fill="none" xmlns="http://www.w3.org/2000/svg">
<g clip-path="url(#clip0_16_2008)">
<path d="M117.797 265.241C117.773 265.241 117.746 265.241 117.722 265.233C117.485 265.193 117.323 264.967 117.365 264.727L129.848 191.101C130.625 186.529 134.196 183.209 138.341 183.209H165.38C165.62 183.209 165.819 183.403 165.819 183.648C165.819 183.893 165.625 184.088 165.38 184.088H138.341C134.624 184.088 131.413 187.102 130.71 191.253L118.228 264.879C118.193 265.092 118.004 265.244 117.797 265.244V265.241Z" fill="black"/>
<path d="M129.491 183.654H191.652C193.519 183.654 195.034 182.141 195.034 180.272C195.034 178.403 193.521 176.891 191.652 176.891H129.491C127.624 176.891 126.109 178.403 126.109 180.272C126.109 182.141 127.622 183.654 129.491 183.654Z" fill="black"/>
<path d="M91.8257 227.145L83.6648 255.949L73.2806 252.655L78.8881 220.752L91.8257 227.142V227.145Z" fill="white" stroke="black" stroke-linecap="round" stroke-linejoin="round"/>
<path d="M131.983 220.736L141.691 249.061L131.283 252.272L117.706 222.858L131.983 220.736Z" fill="white" stroke="black" stroke-linecap="round" stroke-linejoin="round"/>
<path d="M141.18 238.533L147.232 264.807H105.453L104.199 259.714C103.701 257.695 105.019 255.675 107.064 255.315L120.587 252.927L124.821 249.351L117.515 243.695L141.174 238.533H141.177H141.18Z" fill="white" stroke="black" stroke-linecap="round" stroke-linejoin="round"/>
<path d="M91.0509 238.405L86.3487 251.337L90.5104 264.805H48.7288L47.4747 259.711C46.9768 257.693 48.2948 255.672 50.3396 255.312L63.863 252.924L69.979 248.906L69.5503 235.756L91.0456 238.405H91.0482H91.0509Z" fill="white" stroke="black" stroke-linecap="round" stroke-linejoin="round"/>
<path d="M134.22 83.726C134.22 83.726 134.137 86.1437 135.58 87.0783C135.961 87.3259 135.788 87.901 135.335 87.8797C134.502 87.8398 133.586 87.5149 132.859 86.5218C131.072 84.0802 134.222 83.7234 134.222 83.7234H134.22V83.726Z" fill="black"/>
<path d="M133.844 82.4987C134.233 83.1723 135.327 84.7645 136.906 84.5702C137.21 84.5355 137.364 84.9296 137.111 85.1C136.294 85.6379 135.125 86.016 133.743 85.3184C131.616 84.2453 132.803 82.93 133.405 82.4214C133.543 82.3043 133.751 82.3442 133.844 82.4987Z" fill="black"/>
<path d="M124.775 147.045L133.184 150.675L134.656 154.724L124.054 154.844L124.775 147.045Z" fill="black"/>
<path d="M195.987 154.844V113.678C195.987 104.484 188.537 97.0337 179.343 97.0337H158.013C148.827 97.0337 141.379 104.476 141.369 113.662L141.324 154.847H195.987V154.844Z" fill="black"/>
<path d="M189.945 154.844V113.678C189.945 104.484 182.618 97.6916 173.429 97.6916L151.383 97.6277C142.197 97.6277 135.338 104.479 135.333 113.665L135.287 154.85H189.951H189.948L189.945 154.844Z" fill="white"/>
<path d="M187.52 144.556L166.059 100.817C164.427 97.4891 161.059 95.359 157.352 95.3084L137.135 95.0288L138.283 96.4853L133.224 96.1098L120.127 96.1737C116.596 96.1924 113.348 98.1041 111.62 101.185L89.5225 140.583C86.3674 146.207 90.34 154.511 96.7861 154.565L110.789 154.676L119.647 142.085L106.808 139.763L118.825 119.996L129.589 159.062L175.671 166.658L176.041 154.653L186.958 154.621C186.958 154.621 190.252 150.912 187.517 144.559L187.52 144.556Z" fill="white" stroke="black" stroke-linecap="round" stroke-linejoin="round"/>
<path d="M137.279 94.6482L132.457 85.7977C133.314 84.6527 133.929 83.3001 134.193 81.7372C135.165 75.9221 131.557 70.4744 126.139 69.5691C120.72 68.6638 115.536 72.6417 114.564 78.4595C113.592 84.2746 116.383 90.4306 121.932 90.4572C123.111 90.4652 124.301 90.3347 125.457 90.0658L129.802 95.9129L127.305 96.1419C127.305 96.1419 129.552 99.803 133.408 100.17C138.68 100.671 142.333 95.1567 142.333 95.1567L137.284 94.6508L137.279 94.6482Z" fill="white" stroke="black" stroke-miterlimit="10"/>
<path d="M135.519 81.0022C136.491 75.187 132.417 70.2133 126.975 69.4385C121.13 68.6077 116.862 71.4461 114.788 73.435C113.835 74.3456 119.812 73.0037 119.812 73.0037C119.812 73.0037 122.36 75.5545 124.759 73.9436C124.759 73.9436 123.654 80.4377 128.902 80.6853L132.284 86.0105C133.232 84.8203 135.242 82.669 135.519 81.0048H135.516L135.519 81.0022Z" fill="black"/>
<path d="M133.727 81.0289C134.26 79.4313 133.471 77.7299 131.967 77.2267C130.463 76.7261 128.812 77.6127 128.279 79.2076C127.747 80.8052 128.535 82.5066 130.039 83.0098C131.544 83.5104 133.195 82.6238 133.727 81.0289Z" fill="white"/>
<path d="M129.086 80.2755C129.014 80.2755 128.945 80.2329 128.913 80.1636C128.871 80.0678 128.913 79.956 129.009 79.9134L132.1 78.5102C132.196 78.4676 132.308 78.5102 132.351 78.606C132.393 78.7019 132.351 78.8137 132.255 78.8563L129.163 80.2595C129.139 80.2701 129.11 80.2781 129.086 80.2781V80.2755Z" fill="black"/>
<path d="M130.487 81.5959C130.415 81.5959 130.346 81.5533 130.314 81.4868L129.653 80.041C129.611 79.9451 129.653 79.8333 129.749 79.7907C129.845 79.7481 129.957 79.7907 129.999 79.8865L130.66 81.327C130.702 81.4229 130.66 81.5347 130.564 81.5773C130.54 81.5879 130.511 81.5959 130.487 81.5959Z" fill="black"/>
<path d="M83.6116 151.713H78.707C78.6511 151.713 78.6085 151.758 78.6085 151.812V153.138C78.6085 153.194 78.6538 153.236 78.707 153.236H83.6116C83.6675 153.236 83.7101 153.191 83.7101 153.138V151.812C83.7101 151.758 83.6648 151.713 83.6116 151.713Z" fill="black"/>
<path d="M89.8394 151.713H84.9349C84.879 151.713 84.8364 151.758 84.8364 151.812V153.138C84.8364 153.194 84.8816 153.236 84.9349 153.236H89.8394C89.8953 153.236 89.9379 153.191 89.9379 153.138V151.812C89.9379 151.758 89.8927 151.713 89.8394 151.713Z" fill="black"/>
<path d="M91.168 151.713H96.0726C96.1285 151.713 96.1711 151.758 96.1711 151.812V153.138C96.1711 153.194 96.1258 153.236 96.0726 153.236H91.168C91.1121 153.236 91.0695 153.191 91.0695 153.138V151.812C91.0695 151.756 91.1148 151.713 91.168 151.713Z" fill="black"/>
<path d="M102.3 151.713H97.3959C97.3399 151.713 97.2973 151.758 97.2973 151.812V153.138C97.2973 153.194 97.3426 153.236 97.3959 153.236H102.3C102.356 153.236 102.399 153.191 102.399 153.138V151.812C102.399 151.758 102.354 151.713 102.3 151.713Z" fill="black"/>
<path d="M108.531 151.713H103.626C103.57 151.713 103.528 151.758 103.528 151.812V153.138C103.528 153.194 103.573 153.236 103.626 153.236H108.531C108.587 153.236 108.629 153.191 108.629 153.138V151.812C108.629 151.758 108.584 151.713 108.531 151.713Z" fill="black"/>
<path d="M109.292 152.608H77.0775C76.9444 152.608 76.8379 152.714 76.8379 152.847V154.607C76.8379 154.74 76.9444 154.847 77.0775 154.847H109.292C109.426 154.847 109.532 154.74 109.532 154.607V152.847C109.532 152.714 109.426 152.608 109.292 152.608Z" fill="#002EFF"/>
<path d="M119.048 146.116H114.588C109.769 146.116 105.86 150.025 105.86 154.844H127.776C127.776 150.025 123.867 146.116 119.048 146.116H119.046H119.048Z" fill="#002EFF"/>
<path d="M114.208 155.036C114.101 155.036 114.016 154.951 114.016 154.844V148.422C114.016 148.316 114.101 148.23 114.208 148.23C114.314 148.23 114.399 148.316 114.399 148.422V154.844C114.399 154.951 114.314 155.036 114.208 155.036Z" fill="black"/>
<path d="M178.249 147.541H178.227L170.567 146.686C170.46 146.676 170.386 146.58 170.397 146.473C170.407 146.367 170.503 146.292 170.61 146.303L178.27 147.157C178.376 147.168 178.451 147.264 178.44 147.37C178.43 147.469 178.347 147.541 178.254 147.541H178.251H178.249Z" fill="white"/>
<path d="M147.426 144.857L133.187 142.729C129.448 141.3 124.421 139.854 119.181 139.729C110.874 139.534 107.673 143.273 106.678 144.894C106.59 145.035 106.55 145.195 106.55 145.352C106.164 145.783 105.882 146.183 105.687 146.5C105.429 146.92 105.557 147.458 105.993 147.81C106.699 148.382 107.743 148.489 108.494 148.071C108.712 147.951 108.962 147.82 109.242 147.685C109.186 147.783 109.133 147.876 109.09 147.967C108.8 148.539 109.119 149.245 109.806 149.578C110.36 149.847 111.026 149.804 111.462 149.469C111.486 149.45 111.516 149.429 111.54 149.413C111.596 149.698 111.806 149.972 112.131 150.126C112.858 150.48 113.728 150.427 114.317 150.004C115.006 149.508 116.135 148.838 117.829 148.222C121.048 147.054 126.735 151.479 131.951 152.618C133.543 152.965 142.034 151.588 144.29 150.467C148.907 148.175 147.421 144.854 147.421 144.854L147.426 144.857Z" fill="white" stroke="black" stroke-linecap="round" stroke-linejoin="round"/>
<path d="M173.174 154.618H136.512L138.163 142.312L169.273 146.199" fill="white"/>
<path d="M57.4488 152.24L52.3153 152.086L58.5218 120.393L60.7398 122.195L57.4461 152.24H57.4488Z" fill="black"/>
<path d="M65.8866 110.554H61.7569C61.4747 110.554 61.2457 110.783 61.2457 111.066V134.667C61.2457 134.949 61.4747 135.178 61.7569 135.178H65.8866C66.1688 135.178 66.3978 134.949 66.3978 134.667V111.066C66.3978 110.783 66.1688 110.554 65.8866 110.554Z" fill="black"/>
<path d="M69.7687 78.0708H64.313C64.0387 78.0708 63.8177 78.2918 63.8177 78.566V140.352C63.8177 140.626 64.0387 140.847 64.313 140.847H69.7687C70.0429 140.847 70.2639 140.626 70.2639 140.352V78.566C70.2639 78.2918 70.0429 78.0708 69.7687 78.0708Z" fill="#002EFF"/>
<path d="M58.647 118.596H62.979C63.2053 118.596 63.3917 118.779 63.3917 119.008V121.785C63.3917 122.012 63.208 122.198 62.979 122.198H58.647C58.4206 122.198 58.2343 122.014 58.2343 121.785V119.008C58.2343 118.782 58.418 118.596 58.647 118.596Z" fill="black"/>
<path d="M70.4689 152.355H47.1791C46.9581 152.355 46.7797 152.533 46.7797 152.754V154.256C46.7797 154.477 46.9581 154.655 47.1791 154.655H70.4689C70.6899 154.655 70.8683 154.477 70.8683 154.256V152.754C70.8683 152.533 70.6899 152.355 70.4689 152.355Z" fill="#002EFF"/>
<path d="M164.036 180.693L120.859 181.3L107.977 159.056L154.33 157.501L173.869 160.958L174.936 167.774C175.988 174.497 170.841 180.594 164.036 180.69V180.693Z" fill="#002EFF"/>
<path d="M197.004 154.844C197.004 154.844 167.374 158.979 161.125 183.648L196.144 182.86L197.001 171.342V154.842L197.004 154.844Z" fill="black"/>
<path d="M161.125 184.088C161.101 184.088 161.072 184.088 161.048 184.08C160.811 184.037 160.651 183.808 160.694 183.571C164.959 159.954 196.615 154.541 196.932 154.487C197.169 154.448 197.395 154.61 197.433 154.847C197.473 155.084 197.31 155.31 197.073 155.348C196.759 155.398 165.708 160.715 161.554 183.723C161.514 183.936 161.33 184.082 161.123 184.082L161.125 184.088Z" fill="black"/>
<path d="M135.359 158.119L105.762 158.599C98.1573 158.721 93.0079 166.392 95.777 173.477L119.498 235.228L140.623 231.921L120.856 181.295L154.927 180.815L135.359 158.117V158.119Z" fill="#002EFF"/>
<path d="M107.974 159.057L93.2795 159.275C89.3601 159.403 86.0745 162.265 85.4088 166.126L75.8873 229.033L95.0181 232.819L105.429 176.933L107.972 159.057H107.974Z" fill="#002EFF"/>
<path d="M202.082 265.241C201.874 265.241 201.69 265.089 201.65 264.876L189.168 191.25C188.465 187.099 185.254 184.085 181.537 184.085H138.051C137.812 184.085 137.612 183.891 137.612 183.646C137.612 183.401 137.806 183.206 138.051 183.206H181.537C185.68 183.206 189.253 186.524 190.031 191.098L202.513 264.725C202.553 264.962 202.393 265.188 202.156 265.231C202.132 265.233 202.105 265.239 202.082 265.239V265.241Z" fill="black"/>
<path d="M187.797 265.241C187.589 265.241 187.405 265.089 187.365 264.876L174.883 191.25C174.18 187.099 170.969 184.085 167.252 184.085H140.213C139.974 184.085 139.774 183.891 139.774 183.646C139.774 183.401 139.968 183.206 140.213 183.206H167.252C171.395 183.206 174.968 186.524 175.746 191.098L188.228 264.725C188.268 264.962 188.108 265.188 187.871 265.231C187.847 265.233 187.821 265.239 187.797 265.239V265.241Z" fill="black"/>
<path d="M34.8726 264.805H41.151V160.71H34.8726V264.805Z" fill="white"/>
<path d="M41.1536 265.241H34.8752C34.6356 265.241 34.4359 265.047 34.4359 264.802V160.707C34.4359 160.468 34.6303 160.268 34.8752 160.268H41.1536C41.3933 160.268 41.593 160.462 41.593 160.707V264.807C41.593 265.047 41.3986 265.247 41.1536 265.247V265.241Z" fill="white" stroke="black" stroke-linecap="round" stroke-linejoin="round"/>
<path d="M191.897 264.805H198.175V160.71H191.897V264.805Z" fill="white" stroke="black" stroke-linecap="round" stroke-linejoin="round"/>
<path d="M16.639 160.71H216.409V154.605H16.639V160.71Z" fill="white"/>
<path d="M216.409 161.144H16.639C16.3994 161.144 16.1997 160.95 16.1997 160.705V154.599C16.1997 154.36 16.3941 154.16 16.639 154.16H216.409C216.649 154.16 216.848 154.354 216.848 154.599V160.705C216.848 160.944 216.654 161.144 216.409 161.144Z" fill="white" stroke="black" stroke-linecap="round" stroke-linejoin="round"/>
<path d="M171.722 98.5942C171.722 98.5942 154.607 94.2408 147.668 87.1902C147.277 86.7908 146.643 86.7722 146.231 87.1476C145.52 87.7973 145.472 88.897 146.122 89.6079C147.394 91.0004 149.665 93.2264 152.562 94.9651C151.881 95.21 151.167 95.6254 150.488 96.3017C148.672 98.1069 150.35 100.628 151.825 102.016C152.387 102.545 153.414 103.046 154.029 102.655C154.485 103.153 154.948 103.563 155.318 103.832C155.757 104.439 156.269 104.995 156.732 105.418C157.227 105.874 157.999 105.842 158.46 105.352L158.835 104.95C158.835 104.95 158.838 104.947 158.843 104.942C159.102 104.662 159.166 104.258 159.019 103.906L158.316 102.213L159.365 102.442C159.365 102.442 160.108 104.385 163.551 104.665C166.44 104.902 167.742 104.58 167.742 104.58L168.533 103.392L171.73 98.5942H171.722Z" fill="white" stroke="black" stroke-linecap="round" stroke-linejoin="round"/>
<path d="M255.973 152.76L253.217 252.067L242.082 252.727L236.016 159.6L255.975 152.76H255.973Z" fill="white" stroke="black" stroke-miterlimit="10"/>
<path d="M211.039 89.1817L206.76 164.842L225.88 163.934L218.323 84.9961L211.039 89.1817Z" fill="#FF3D00"/>
<path d="M219.37 128.612L202.497 254.287L214.862 252.732L236.24 148.241L219.37 128.612Z" fill="white" stroke="black" stroke-miterlimit="10"/>
<path d="M219.724 127.55L236.24 148.238L232.811 160.212L214.5 154.078L219.727 127.547L219.724 127.55Z" fill="white" stroke="black" stroke-linecap="round" stroke-linejoin="round"/>
<path d="M222.474 47.7915L217.959 40.93C219.096 39.7424 219.926 38.27 220.28 36.4648C221.412 30.6976 217.937 25.162 212.519 24.0996C207.103 23.0373 201.791 26.8528 200.662 32.6173C199.531 38.3845 201.693 45.3925 207.668 44.9984C209.103 44.9026 210.565 44.6709 211.968 44.2769L215.861 49.5595L222.477 47.7942H222.474V47.7915Z" fill="white" stroke="black" stroke-miterlimit="10"/>
<path d="M226.463 49.4077L223.43 44.7615L212.772 48.7021L212.57 54.9672L226.46 49.4104L226.463 49.4077Z" fill="#FF3D00"/>
<path d="M226.085 49.5596L269.536 84.5169C274.1 88.1887 274.164 95.1167 269.666 98.871L253.411 111.3L250.158 95.1008L254.785 91.2879L231.421 73.9677L226.09 49.5622H226.088L226.085 49.5596Z" fill="#FF3D00"/>
<path d="M166.469 108.036L165.385 94.1501L194.312 93.1783L213.195 51.9798L225.739 49.1255C225.739 49.1255 240.223 61.8767 248.019 87.254C255.813 112.631 261.676 154.309 261.676 154.309L222.757 169.997L213.874 88.8276L203.157 105.328C201.709 107.562 199.203 108.88 196.543 108.808L166.469 108.038H166.472L166.469 108.036Z" fill="#FF3D00"/>
<path d="M201.227 28.738C203.855 24.6535 208.719 23.3542 212.516 24.0997C217.932 25.1621 222.317 30.4314 221.018 36.1613C220.475 38.563 224.863 43.0229 229.956 44.7562C230.896 45.0784 229.741 45.8399 227.77 46.7159C227.406 46.8783 223.175 45.6003 222.765 45.7653C222.32 45.9464 224.73 47.9274 224.245 48.1084C220.549 49.5036 217.04 50.4995 216.369 50.5953C213.919 50.9548 215.011 37.908 215.011 37.908L214.503 33.4135C209.995 33.4268 210.868 28.0217 210.868 28.0217L210.229 31.0358L206.749 29.6406V27.7102L205.237 29.4143L201.229 28.7327L201.227 28.738Z" fill="black"/>
<path d="M211.912 34.3588C212.287 32.6441 213.866 31.5364 215.437 31.8773C217.008 32.2207 217.985 33.8875 217.61 35.6022C217.234 37.317 215.655 38.4246 214.085 38.0838C212.514 37.7403 211.536 36.0735 211.912 34.3588Z" fill="white"/>
<path d="M253.632 247.213L250.605 251.375L244.185 248.217L237.292 251.106L233.138 252.107C231.139 252.586 229.722 254.367 229.701 256.428L229.616 264.552L257.911 264.443L253.635 247.216H253.632V247.213Z" fill="white" stroke="black" stroke-miterlimit="10"/>
<path d="M236.975 251.122C238.762 250.44 240.109 248.712 240.333 246.811C240.572 244.777 243.091 243.475 244.989 244.249C246.888 245.024 247.828 247.434 247.202 249.383C246.576 251.332 244.638 252.703 242.598 252.937C240.564 253.172 236.978 251.122 236.978 251.122H236.975Z" fill="white" stroke="black" stroke-miterlimit="10"/>
<path d="M204.72 246.377L209.412 252.317L216.318 251.076L215.309 264.81L177.215 256.377L179.228 250.453C180.136 247.785 183.097 246.257 186.071 246.923L190.704 247.958L204.72 246.382V246.377Z" fill="white" stroke="black" stroke-miterlimit="10"/>
<path d="M190.704 247.948C196.155 246.976 201.155 246.867 204.073 242.865C204.656 242.063 205.996 241.858 206.874 242.433C207.75 243.008 208.008 244.263 207.412 245.056C203.788 249.865 196.173 251.263 190.707 247.95H190.704V247.948Z" fill="white" stroke="black" stroke-miterlimit="10"/>
<path d="M32.7771 143.885C33.5572 144.122 34.38 143.677 34.6143 142.892L40.1898 124.296C40.4241 123.511 39.9821 122.688 39.1993 122.451C38.4191 122.214 37.5964 122.659 37.3621 123.444L31.7866 142.04C31.5523 142.825 31.9943 143.648 32.7771 143.885Z" fill="#FF3D00"/>
<path d="M39.596 126.285L36.7683 125.433L37.1784 124.07L40.0061 124.922L39.596 126.285Z" fill="black"/>
<path d="M34.7341 142.141L32.2233 142.442C32.1061 142.455 32.0023 142.373 31.9863 142.256L29.3636 120.462C29.3503 120.345 29.4328 120.241 29.55 120.225L32.0608 119.924C32.178 119.911 32.2818 119.993 32.2978 120.111L34.9205 141.904C34.9338 142.021 34.8513 142.125 34.7341 142.141Z" fill="#FF3D00"/>
<path d="M32.5348 122.012L29.6033 122.366L29.7737 123.78L32.7052 123.428L32.5348 122.014V122.012Z" fill="black"/>
<path d="M28.4876 154.123H40.3895C40.6611 154.123 40.8794 153.902 40.8794 153.633V131.677C40.8794 131.405 40.6584 131.187 40.3895 131.187H28.4876C28.216 131.187 27.9977 131.408 27.9977 131.677V153.633C27.9977 153.904 28.2187 154.123 28.4876 154.123Z" fill="#002EFF"/>
<path d="M47.4773 259.714L88.4229 260.142" stroke="black" stroke-linecap="round" stroke-linejoin="round"/>
<path d="M104.199 259.714H145.666" stroke="black" stroke-linecap="round" stroke-linejoin="round"/>
<path d="M178.07 253.856L215.504 262.147" stroke="black" stroke-linecap="round" stroke-linejoin="round"/>
<path d="M229.637 262.147H257.339" stroke="black" stroke-miterlimit="10"/>
<path d="M150.486 96.3016C150.486 96.3016 152.909 92.9414 159.576 95.9315" stroke="black" stroke-linecap="round" stroke-linejoin="round"/>
<path d="M154.181 102.535C154.181 102.535 150.507 99.1398 153.558 97.0337C153.558 97.0337 155.71 95.5666 159.576 97.4011" stroke="black" stroke-linecap="round" stroke-linejoin="round"/>
<path d="M155.316 103.831C155.316 103.831 152.765 100.663 155.489 99.2463C155.803 99.0839 156.146 98.9774 156.495 98.9135C157.153 98.791 158.351 98.6579 159.725 98.9481" stroke="black" stroke-linecap="round" stroke-linejoin="round"/>
<path d="M213.528 36.2014L216.143 33.5894" stroke="black" stroke-linecap="round" stroke-linejoin="round"/>
<path d="M214.673 35.1389L215.733 36.9362" stroke="black" stroke-linecap="round" stroke-linejoin="round"/>
<path d="M212.317 53.3779C212.317 53.3779 216.91 47.8955 226.463 49.4079C226.463 49.4079 238.362 60.4417 247.615 86.4101" stroke="black" stroke-linecap="round" stroke-linejoin="round"/>
<path d="M194.309 93.1758L194.648 99.6379" stroke="black" stroke-linecap="round" stroke-linejoin="round"/>
<path d="M211.062 92.7151L225.584 72.8228" stroke="black" stroke-linecap="round" stroke-linejoin="round"/>
<path d="M213.872 89.1738L218.744 132.654L214.497 154.077" stroke="black" stroke-linecap="round" stroke-linejoin="round"/>
<path d="M250.022 94.6802C250.022 94.6802 254.862 114.445 256.537 123.633" stroke="black" stroke-linecap="round" stroke-linejoin="round"/>
<path d="M254.436 91.5515L259.399 87.6934" stroke="black" stroke-linecap="round" stroke-linejoin="round"/>
<path d="M136.512 154.618L138.325 142.525L168.943 145.965L155.041 117.403" stroke="black" stroke-linecap="round" stroke-linejoin="round"/>
<path d="M174.414 149.604L168.943 145.965" stroke="black" stroke-linecap="round" stroke-linejoin="round"/>
<path d="M97.2973 140.091L106.808 139.763" stroke="black" stroke-linecap="round" stroke-linejoin="round"/>
<path d="M111.548 149.415C111.548 149.415 113.158 142.684 124.658 144.306" stroke="black" stroke-linecap="round" stroke-linejoin="round"/>
<path d="M109.095 147.85C109.095 147.85 111.516 140.621 124.65 142.924" stroke="black" stroke-linecap="round" stroke-linejoin="round"/>
<path d="M106.31 145.637C106.31 145.637 111.574 138.224 123.572 141.204" stroke="black" stroke-linecap="round" stroke-linejoin="round"/>
<path d="M98.7378 161.354C98.7378 161.354 93.8599 163.793 94.8664 171.294C95.0208 172.458 95.351 173.587 95.7877 174.676L105.083 197.712" stroke="black" stroke-linecap="round" stroke-linejoin="round"/>
<path d="M77.6553 260.129L83.079 237.627" stroke="black" stroke-linecap="round" stroke-linejoin="round"/>
<path d="M134.696 239.947L139.779 259.714" stroke="black" stroke-linecap="round" stroke-linejoin="round"/>
<path d="M241.275 253.028C241.275 253.028 244.042 257.07 243.336 262.147" stroke="black" stroke-linecap="round" stroke-linejoin="round"/>
<path d="M189.879 247.716C189.879 247.716 192.645 251.758 191.94 256.835" stroke="black" stroke-linecap="round" stroke-linejoin="round"/>
<path d="M192.872 251.611L190.978 244.803L198.492 250.679L198.74 243.735L204.39 249.308" stroke="black" stroke-linecap="round" stroke-linejoin="round"/>
<path d="M241.429 253.598L233.314 250.349L245.272 252.344L238.107 247.199L246.925 250.874" stroke="black" stroke-linecap="round" stroke-linejoin="round"/>
</g>
<defs>
<clipPath id="clip0_16_2008">
<rect width="257" height="257" fill="white" transform="translate(16 16)"/>
</clipPath>
</defs>
</svg>
