<svg width="32" height="33" viewBox="0 0 32 33" fill="none" xmlns="http://www.w3.org/2000/svg">
<path d="M8.91019 12.8642C9.261 12.8642 9.49487 13.0382 9.6248 13.1854C9.84568 13.4263 9.97561 13.7609 9.96262 14.0956C9.88466 16.4379 10.3654 18.2716 11.3918 19.5566C12.4443 20.8817 14.0034 21.5509 16.0173 21.5509C18.0312 21.5509 19.5903 20.8817 20.6428 19.5566C21.6692 18.2716 22.1499 16.4379 22.072 14.0956C22.072 13.7609 22.1889 13.4263 22.4098 13.1854C22.5397 13.0382 22.7736 12.8642 23.1244 12.8642C23.5532 12.8642 24.0079 13.172 24.0339 13.694C24.1379 15.6348 23.852 17.5756 23.2413 19.155C22.6956 20.5604 21.9291 21.5509 21.1495 21.8989C20.8636 22.0194 20.6168 22.2068 20.4349 22.4209C20.279 22.5949 20.175 22.7957 20.1231 23.0098L20.0711 23.1839V27.3064C20.0711 27.4402 19.9671 27.5473 19.8372 27.5473H12.1844C12.0545 27.5473 11.9505 27.4402 11.9505 27.3064V23.1839L11.8986 23.0098C11.8466 22.7957 11.7426 22.6083 11.5867 22.4343C11.4048 22.2201 11.158 22.0328 10.8721 21.9123C10.0925 21.5777 9.32596 20.5738 8.78026 19.1684C8.1696 17.589 7.88376 15.6482 7.9877 13.7074C8.01368 13.1854 8.46843 12.8775 8.8972 12.8775M8.8972 11.5391C7.77981 11.5391 6.75337 12.3957 6.68841 13.6271C6.57147 15.9025 6.93527 18.0039 7.57193 19.6636C8.20858 21.2832 9.17005 22.6217 10.3654 23.1437C10.4693 23.1838 10.5603 23.2508 10.5993 23.3043C10.6253 23.3311 10.6382 23.3579 10.6382 23.3579V27.293C10.6382 28.163 11.3269 28.8724 12.1714 28.8724H19.8242C20.6688 28.8724 21.3574 28.163 21.3574 27.293V23.3579C21.3574 23.3579 21.3574 23.3311 21.3964 23.3043C21.4483 23.2508 21.5263 23.1838 21.6302 23.1437C22.8256 22.6217 23.787 21.2966 24.4237 19.677C25.0733 18.0173 25.4371 15.9159 25.3072 13.6405C25.2423 12.4091 24.2158 11.5524 23.0984 11.5524C21.6822 11.5524 20.6947 12.824 20.7467 14.1625C20.8117 16.2505 20.3829 17.763 19.6163 18.7267C18.8627 19.677 17.6934 20.2258 16.0043 20.2258C14.3152 20.2258 13.1329 19.677 12.3923 18.7267C11.6257 17.763 11.1969 16.2505 11.2619 14.1625C11.3009 12.824 10.3134 11.5524 8.91019 11.5524L8.8972 11.5391Z" fill="white"/>
<path d="M16 13.5911C17.0933 13.5911 17.9867 14.4845 17.9867 15.5778C17.9867 16.6711 17.0933 17.5645 16 17.5645C14.9067 17.5645 14.0133 16.6711 14.0133 15.5778C14.0133 14.4845 14.9067 13.5911 16 13.5911ZM16 12.2578C14.1733 12.2578 12.68 13.7378 12.68 15.5778C12.68 17.4178 14.16 18.8978 16 18.8978C17.84 18.8978 19.32 17.4178 19.32 15.5778C19.32 13.7378 17.84 12.2578 16 12.2578Z" fill="white"/>
<path d="M17.8667 11.6072C17.7867 11.6072 17.7067 11.5939 17.64 11.5539L16 10.6872L14.36 11.5539C14.1867 11.6339 13.9867 11.6205 13.8267 11.5139C13.6667 11.4072 13.6 11.2072 13.6267 11.0205L13.9334 9.19385L12.6134 7.90052C12.48 7.76719 12.4267 7.56719 12.4934 7.39385C12.5467 7.20719 12.7067 7.08719 12.8934 7.06052L14.72 6.79385L15.5334 5.12719C15.7067 4.78052 16.2667 4.78052 16.4267 5.12719L17.24 6.79385L19.0667 7.06052C19.2534 7.08719 19.4134 7.22052 19.4667 7.39385C19.52 7.58052 19.4667 7.78052 19.3467 7.90052L18.0267 9.19385L18.3334 11.0205C18.36 11.2072 18.2934 11.3939 18.1334 11.5139C18.0534 11.5805 17.9467 11.6072 17.84 11.6072H17.8667ZM16 9.62052C16.08 9.62052 16.16 9.63385 16.2267 9.67385L17.2 10.1805L17.0134 9.10052C16.9867 8.94052 17.04 8.76719 17.16 8.66052L17.9467 7.88719L16.8534 7.72719C16.6934 7.70052 16.5467 7.60719 16.48 7.44719L15.9867 6.46052L15.4934 7.44719C15.4267 7.59385 15.28 7.70052 15.12 7.72719L14.0267 7.88719L14.8134 8.66052C14.9334 8.78052 14.9867 8.94052 14.96 9.10052L14.7734 10.1805L15.7467 9.67385C15.8134 9.63385 15.8934 9.62052 15.9734 9.62052H16Z" fill="#42E8B4"/>
<path d="M20.32 11.2449C20.1467 11.2449 19.9733 11.1782 19.8533 11.0449C19.5867 10.7782 19.5867 10.3649 19.8533 10.0982L22.4 7.55156C22.6667 7.2849 23.08 7.2849 23.3467 7.55156C23.6133 7.81823 23.6133 8.23156 23.3467 8.49823L20.8 11.0449C20.6667 11.1782 20.4933 11.2449 20.3333 11.2449H20.32Z" fill="#42E8B4"/>
<path d="M11.68 11.2449C11.5067 11.2449 11.3333 11.1782 11.2133 11.0449L8.66667 8.49823C8.40001 8.23156 8.40001 7.81823 8.66667 7.55156C8.93334 7.2849 9.34667 7.2849 9.61334 7.55156L12.16 10.0982C12.4267 10.3649 12.4267 10.7782 12.16 11.0449C12.0267 11.1782 11.8533 11.2449 11.6933 11.2449H11.68Z" fill="#42E8B4"/>
</svg>
