<svg width="32" height="33" viewBox="0 0 32 33" fill="none" xmlns="http://www.w3.org/2000/svg">
<path fill-rule="evenodd" clip-rule="evenodd" d="M8.2171 6.63787C7.67238 6.98588 7.16371 7.7664 7.16371 9.40427L7.16371 17.1712H5.69015L5.69014 9.40427C5.69014 7.51172 6.28666 6.17398 7.39971 5.46287C8.49107 4.76561 9.86001 4.81407 11.0806 5.20399L11.1303 5.21986L12.3875 5.94839L11.6918 7.21147L10.5665 6.52858C9.59765 6.22919 8.7743 6.28187 8.2171 6.63787ZM24.4608 14.243L16.623 10.0197L17.3452 8.7888L25.232 13.0384L25.2552 13.0533C25.4531 13.1797 25.6602 13.3048 25.87 13.4315L25.87 13.4316C26.8394 14.0171 27.8674 14.6382 28.317 15.5885C28.6048 16.1968 28.5706 17.1909 28.317 17.899C28.0692 18.5912 27.5153 19.2111 26.6865 19.7681L26.6635 19.7836L24.5715 20.9981L23.8197 19.7836L25.8627 18.5969C26.5201 18.1506 26.811 17.7541 26.9232 17.4407C27.031 17.1397 27.1406 16.5218 26.975 16.1716C26.6999 15.5901 26.0037 15.1748 25.2012 14.6959C24.9611 14.5527 24.7115 14.4037 24.4608 14.243ZM11.4452 26.651C9.97125 27.4821 8.87922 27.5101 8.22034 27.2383C7.59266 26.9794 7.15091 26.3617 7.13875 25.3979L7.16369 22.8265L5.69018 22.8133L5.66518 25.3919L5.66504 25.3919L5.66518 25.4056C5.67995 26.802 6.35849 28.0078 7.6378 28.5355C8.88732 29.0508 10.4912 28.8274 12.1924 27.8682L19.1777 23.9296L18.4305 22.7124L11.4452 26.651Z" fill="white"/>
<path fill-rule="evenodd" clip-rule="evenodd" d="M15.268 9.4C16.0817 9.4 16.7413 8.76784 16.7413 7.98802C16.7413 7.20821 16.0817 6.57604 15.268 6.57604C14.4542 6.57604 13.7946 7.20821 13.7946 7.98802C13.7946 8.76784 14.4542 9.4 15.268 9.4ZM15.268 10.812C16.8954 10.812 18.2147 9.54765 18.2147 7.98802C18.2147 6.42839 16.8954 5.16406 15.268 5.16406C13.6405 5.16406 12.3212 6.42839 12.3212 7.98802C12.3212 9.54765 13.6405 10.812 15.268 10.812ZM6.42654 20.6974C7.24026 20.6974 7.89991 20.0652 7.89991 19.2854C7.89991 18.5056 7.24026 17.8734 6.42654 17.8734C5.61282 17.8734 4.95317 18.5056 4.95317 19.2854C4.95317 20.0652 5.61282 20.6974 6.42654 20.6974ZM6.42654 22.1093C8.05398 22.1093 9.37328 20.845 9.37328 19.2854C9.37328 17.7258 8.05398 16.4614 6.42654 16.4614C4.7991 16.4614 3.4798 17.7258 3.4798 19.2854C3.4798 20.845 4.7991 22.1093 6.42654 22.1093ZM22.6356 22.1097C22.6356 22.8895 21.976 23.5217 21.1622 23.5217C20.3485 23.5217 19.6889 22.8895 19.6889 22.1097C19.6889 21.3299 20.3485 20.6977 21.1622 20.6977C21.976 20.6977 22.6356 21.3299 22.6356 22.1097ZM24.109 22.1097C24.109 23.6694 22.7897 24.9337 21.1622 24.9337C19.5348 24.9337 18.2155 23.6694 18.2155 22.1097C18.2155 20.5501 19.5348 19.2858 21.1622 19.2858C22.7897 19.2858 24.109 20.5501 24.109 22.1097Z" fill="#42E8B4"/>
</svg>
