<svg width="32" height="33" viewBox="0 0 32 33" fill="none" xmlns="http://www.w3.org/2000/svg">
<path d="M18.3199 26.1979H13.6801C12.7944 26.1979 12 25.4653 12 24.5778C12 23.4226 11.5712 22.3237 10.6995 21.5489C8.99824 20.0274 8.01406 17.8578 8 15.5755C8 11.1801 11.5431 7.57351 15.9438 7.53125C18.1371 7.53125 20.1195 8.33427 21.638 9.85578C23.1564 11.3773 24 13.3919 24 15.5474C24 17.8437 23.0158 20.0274 21.3005 21.5489C20.4429 22.3096 20 23.3593 20 24.5145C20 25.4162 19.2056 26.1979 18.3199 26.1979ZM16 8.94006H15.9438C12.3304 8.96823 9.39192 11.9408 9.40598 15.5614C9.40598 17.4492 10.2214 19.2384 11.6274 20.4923C12.7944 21.5207 13.4552 23.014 13.4552 24.5778C13.4552 24.6905 13.5536 24.7891 13.6661 24.7891H18.3058C18.4183 24.7891 18.5167 24.6905 18.5167 24.5778C18.5167 23.014 19.1916 21.5348 20.3445 20.4923C21.7645 19.2384 22.5659 17.4352 22.5659 15.5474C22.5659 13.7723 21.877 12.1099 20.6116 10.856C19.3743 9.61628 17.7153 8.94006 15.9719 8.94006H16Z" fill="white"/>
<path d="M17.2093 30.1953H14.7907C13.2594 30.1953 12 28.8826 12 27.275L12 24.1953H13.4311L13.4311 27.275C13.4311 28.0714 14.0465 28.7204 14.7907 28.7204H17.2093C17.9535 28.7204 18.5689 28.0714 18.5689 27.275L18.5689 24.1953H20L20 27.275C20 28.8826 18.7549 30.1953 17.2093 30.1953Z" fill="white"/>
<path d="M27.4 16.224H25.1867C24.8134 16.224 24.52 15.9306 24.52 15.5573C24.52 15.184 24.8134 14.8906 25.1867 14.8906H27.4C27.7734 14.8906 28.0667 15.184 28.0667 15.5573C28.0667 15.9306 27.7734 16.224 27.4 16.224Z" fill="#42E8B4"/>
<path d="M6.81335 16.6771H4.60002C4.22668 16.6771 3.93335 16.3838 3.93335 16.0104C3.93335 15.6371 4.22668 15.3438 4.60002 15.3438H6.81335C7.18668 15.3438 7.48002 15.6371 7.48002 16.0104C7.48002 16.3838 7.18668 16.6771 6.81335 16.6771Z" fill="#42E8B4"/>
<path d="M24.0666 24.2503C23.8933 24.2503 23.72 24.1836 23.6 24.0503L22.2667 22.717C22 22.4503 22 22.037 22.2667 21.7703C22.5333 21.5036 22.9466 21.5036 23.2133 21.7703L24.5466 23.1036C24.8133 23.3703 24.8133 23.7836 24.5466 24.0503C24.4133 24.1836 24.24 24.2503 24.08 24.2503H24.0666Z" fill="#42E8B4"/>
<path d="M9.2667 9.51904C9.09336 9.51904 8.9067 9.45237 8.7867 9.30571L7.53336 7.97237C7.28003 7.70571 7.29336 7.27904 7.56003 7.02571C7.8267 6.77237 8.25336 6.78571 8.5067 7.05237L9.76003 8.3857C10.0134 8.65237 10 9.07904 9.73337 9.33237C9.60003 9.45237 9.44003 9.51904 9.28003 9.51904H9.2667Z" fill="#42E8B4"/>
<path d="M22.7333 9.51594C22.56 9.51594 22.3867 9.44927 22.2667 9.31594C22 9.04927 22 8.63594 22.2667 8.36927L23.6 7.03594C23.8667 6.76927 24.28 6.76927 24.5466 7.03594C24.8133 7.3026 24.8133 7.71594 24.5466 7.9826L23.2133 9.31594C23.08 9.44927 22.9066 9.51594 22.7466 9.51594H22.7333Z" fill="#42E8B4"/>
<path d="M8.01335 24.2503C7.84001 24.2503 7.66668 24.1836 7.54668 24.0503C7.28001 23.7836 7.28001 23.3703 7.54668 23.1036L8.88001 21.7703C9.14668 21.5036 9.56001 21.5036 9.82668 21.7703C10.0933 22.037 10.0933 22.4503 9.82668 22.717L8.49335 24.0503C8.36001 24.1836 8.18668 24.2503 8.02668 24.2503H8.01335Z" fill="#42E8B4"/>
<path d="M16.04 7.06458C15.6667 7.06458 15.3734 6.77125 15.3734 6.39792V4.19792C15.3734 3.82458 15.6667 3.53125 16.04 3.53125C16.4134 3.53125 16.7067 3.82458 16.7067 4.19792V6.39792C16.7067 6.77125 16.4134 7.06458 16.04 7.06458Z" fill="#42E8B4"/>
</svg>
