<svg width="32" height="33" viewBox="0 0 32 33" fill="none" xmlns="http://www.w3.org/2000/svg">
<path d="M26.6062 25.5312H5.42035C4.63717 25.5312 4.01327 24.9313 4.01327 24.1979L4 6.86458C4 6.13125 4.63717 5.53125 5.40708 5.53125H26.5796C27.3628 5.53125 27.9867 6.13125 27.9867 6.86458L28 24.1979C28 24.9313 27.3628 25.5312 26.5929 25.5312H26.6062ZM5.43363 24.1979H26.6062L26.5929 6.86458H5.40708L5.42035 24.1979H5.43363Z" fill="white"/>
<path d="M19.3333 28.2005L11.3333 28.2005C10.96 28.2005 10.6667 27.9072 10.6667 27.5339C10.6667 27.1605 10.96 26.8672 11.3333 26.8672L19.3333 26.8672C19.7067 26.8672 20 27.1605 20 27.5339C20 27.9072 19.7067 28.2005 19.3333 28.2005Z" fill="white"/>
<path d="M16.6714 12.2005H8.66194C8.29125 12.2005 8 11.9072 8 11.5339C8 11.1605 8.29125 10.8672 8.66194 10.8672H16.6714C17.0421 10.8672 17.3333 11.1605 17.3333 11.5339C17.3333 11.9072 17.0421 12.2005 16.6714 12.2005Z" fill="#42E8B4"/>
<path d="M20.4246 13.5312C20.4246 13.5312 20.4096 13.5312 20.3946 13.5312C20.1999 13.5312 20.0051 13.4308 19.8703 13.2872L18.8515 12.1819C18.5818 11.8804 18.6118 11.4354 18.9114 11.1627C19.2261 10.9043 19.6905 10.9186 19.9752 11.2201L20.4845 11.7656L22.7318 9.72715C23.0315 9.4544 23.5109 9.46876 23.7955 9.75586C24.0802 10.043 24.0652 10.5023 23.7656 10.7751L20.964 13.3303C20.8291 13.4595 20.6344 13.5312 20.4546 13.5312H20.4246Z" fill="#42E8B4"/>
<path d="M16.6714 16.2005H8.66194C8.29125 16.2005 8 15.9072 8 15.5339C8 15.1605 8.29125 14.8672 8.66194 14.8672H16.6714C17.0421 14.8672 17.3333 15.1605 17.3333 15.5339C17.3333 15.9072 17.0421 16.2005 16.6714 16.2005Z" fill="#42E8B4"/>
<path d="M20.4246 17.5312C20.4246 17.5312 20.4096 17.5312 20.3946 17.5312C20.1999 17.5312 20.0051 17.4308 19.8703 17.2872L18.8515 16.1819C18.5818 15.8804 18.6118 15.4354 18.9114 15.1627C19.2261 14.9043 19.6905 14.9186 19.9752 15.2201L20.4845 15.7656L22.7318 13.7271C23.0315 13.4544 23.5109 13.4688 23.7955 13.7559C24.0802 14.043 24.0652 14.5023 23.7656 14.7751L20.964 17.3303C20.8291 17.4595 20.6344 17.5312 20.4546 17.5312H20.4246Z" fill="#42E8B4"/>
<path d="M16.6714 20.2005H8.66194C8.29125 20.2005 8 19.9072 8 19.5339C8 19.1605 8.29125 18.8672 8.66194 18.8672H16.6714C17.0421 18.8672 17.3333 19.1605 17.3333 19.5339C17.3333 19.9072 17.0421 20.2005 16.6714 20.2005Z" fill="#42E8B4"/>
<path d="M20.4246 21.5312C20.4246 21.5312 20.4096 21.5312 20.3946 21.5312C20.1999 21.5312 20.0051 21.4308 19.8703 21.2872L18.8515 20.1819C18.5818 19.8804 18.6118 19.4354 18.9114 19.1627C19.2261 18.9043 19.6905 18.9186 19.9752 19.2201L20.4845 19.7656L22.7318 17.7271C23.0315 17.4544 23.5109 17.4688 23.7955 17.7559C24.0802 18.043 24.0652 18.5023 23.7656 18.7751L20.964 21.3303C20.8291 21.4595 20.6344 21.5312 20.4546 21.5312H20.4246Z" fill="#42E8B4"/>
</svg>
