<svg width="32" height="33" viewBox="0 0 32 33" fill="none" xmlns="http://www.w3.org/2000/svg">
<path d="M22.5867 26.0431C22.0134 22.8565 19.24 20.5365 16 20.5365C12.76 20.5365 9.98669 22.8565 9.41336 26.0431L8.10669 25.8031C8.78669 21.9765 12.12 19.2031 16 19.2031C19.88 19.2031 23.2134 21.9765 23.8934 25.8031L22.5867 26.0431Z" fill="#42E8B4"/>
<path d="M16 20.3058C12.8267 20.3058 10.2534 17.7325 10.2534 14.5592C10.2534 11.3858 12.8267 8.8125 16 8.8125C19.1734 8.8125 21.7467 11.3858 21.7467 14.5592C21.7467 17.7325 19.1734 20.3058 16 20.3058ZM16 10.1458C13.56 10.1458 11.5867 12.1325 11.5867 14.5592C11.5867 16.9858 13.5734 18.9725 16 18.9725C18.4267 18.9725 20.4134 16.9858 20.4134 14.5592C20.4134 12.1325 18.4267 10.1458 16 10.1458Z" fill="#42E8B4"/>
<path d="M16 28.8672C9.38667 28.8672 4 23.4805 4 16.8672C4 10.2539 9.38667 4.86719 16 4.86719C22.6133 4.86719 28 10.2539 28 16.8672C28 23.4805 22.6133 28.8672 16 28.8672ZM16 6.20052C10.12 6.20052 5.33333 10.9872 5.33333 16.8672C5.33333 22.7472 10.12 27.5339 16 27.5339C21.88 27.5339 26.6667 22.7472 26.6667 16.8672C26.6667 10.9872 21.88 6.20052 16 6.20052Z" fill="white"/>
</svg>
