<svg width="32" height="33" viewBox="0 0 32 33" fill="none" xmlns="http://www.w3.org/2000/svg">
<path d="M20.4898 26.8958H11.0498C10.6765 26.8958 10.3831 26.6025 10.3831 26.2292C10.3831 25.8558 10.6765 25.5625 11.0498 25.5625H20.4898C20.8631 25.5625 21.1565 25.8558 21.1565 26.2292C21.1565 26.6025 20.8631 26.8958 20.4898 26.8958Z" fill="white"/>
<path d="M26.3697 19.4002V15.1469C25.9564 15.4135 25.5031 15.6135 25.0364 15.7735V18.8135H6.50307V6.88021H18.1964C18.5431 6.37354 18.9697 5.93354 19.4497 5.54688H6.50307C5.76973 5.54688 5.16973 6.14687 5.16973 6.88021V19.4002L2.94307 27.8669C2.7164 28.7069 3.3564 29.5335 4.2364 29.5335H27.3031C28.1831 29.5335 28.8097 28.7069 28.5964 27.8669L26.3697 19.4002ZM4.2364 28.2135L6.3564 20.1602H25.1964L27.3164 28.2135H4.2364Z" fill="white"/>
<path d="M15.0763 10.8802H8.43632C8.06299 10.8802 7.76965 10.5869 7.76965 10.2135C7.76965 9.84021 8.06299 9.54688 8.43632 9.54688H15.0763C15.4497 9.54688 15.743 9.84021 15.743 10.2135C15.743 10.5869 15.4497 10.8802 15.0763 10.8802Z" fill="white"/>
<path d="M13.1563 13.5208H8.43632C8.06299 13.5208 7.76965 13.2275 7.76965 12.8542C7.76965 12.4808 8.06299 12.1875 8.43632 12.1875H13.1563C13.5297 12.1875 13.823 12.4808 13.823 12.8542C13.823 13.2275 13.5297 13.5208 13.1563 13.5208Z" fill="white"/>
<path d="M15.0763 16.1458H8.43632C8.06299 16.1458 7.76965 15.8525 7.76965 15.4792C7.76965 15.1058 8.06299 14.8125 8.43632 14.8125H15.0763C15.4497 14.8125 15.743 15.1058 15.743 15.4792C15.743 15.8525 15.4497 16.1458 15.0763 16.1458Z" fill="white"/>
<path d="M23.1164 4.21094C21.6904 4.21094 20.4124 4.72215 19.3765 5.55623C18.8922 5.94636 18.4617 6.39031 18.1119 6.90152C17.4796 7.85668 17.103 8.98672 17.103 10.2109C17.103 13.5204 19.7936 16.2109 23.103 16.2109C23.7756 16.2109 24.4079 16.0764 24.9998 15.8746C25.4707 15.7132 25.9281 15.5114 26.3451 15.2423C27.9998 14.1661 29.103 12.323 29.103 10.2109C29.103 6.90152 26.4124 4.21094 23.103 4.21094H23.1164ZM26.3586 13.5473C25.9684 13.9239 25.511 14.2334 25.0133 14.4621C24.4348 14.7311 23.7891 14.8791 23.1164 14.8791C20.5469 14.8791 18.4617 12.7939 18.4617 10.2244C18.4617 8.93291 18.9998 7.74905 19.8474 6.91497C20.6949 6.08089 21.8384 5.56968 23.1164 5.56968C24.3944 5.56968 25.5245 6.08089 26.3586 6.90152C27.233 7.74905 27.7711 8.93291 27.7711 10.2378C27.7711 11.5428 27.233 12.7266 26.3586 13.5742V13.5473Z" fill="#42E8B4"/>
<path d="M23.1564 10.822C22.783 10.822 22.4897 10.5286 22.4897 10.1553V7.86198C22.4897 7.48865 22.783 7.19531 23.1564 7.19531C23.5297 7.19531 23.823 7.48865 23.823 7.86198V10.1553C23.823 10.5286 23.5297 10.822 23.1564 10.822Z" fill="#42E8B4"/>
<path d="M26.0764 12.2797C25.9697 12.2797 25.8764 12.253 25.783 12.213L22.863 10.7597C22.5297 10.5997 22.3964 10.1997 22.5564 9.86634C22.7164 9.533 23.1164 9.39967 23.4497 9.55967L26.3697 11.013C26.703 11.173 26.8364 11.573 26.6764 11.9063C26.5564 12.1463 26.3297 12.2797 26.0764 12.2797Z" fill="#42E8B4"/>
</svg>
