<svg width="32" height="33" viewBox="0 0 32 33" fill="none" xmlns="http://www.w3.org/2000/svg">
<path d="M28 23.472V8.18963C28 7.81656 27.7059 7.52344 27.3315 7.52344H8.59944C8.22507 7.52344 7.93092 7.81656 7.93092 8.18963V10.8544H4.66852C4.29415 10.8544 4 11.1475 4 11.5206V23.8718C4 25.1508 5.0429 26.2034 6.33983 26.2034H23.9889C26.2084 26.2034 28 25.6971 28 23.4854V23.472ZM7.93092 23.8584C7.93092 24.4047 7.14206 24.8577 6.5805 24.8577C6.01894 24.8577 5.32368 24.4047 5.32368 23.8584V12.1734H7.91755V23.8584H7.93092ZM26.663 23.472C26.663 24.9377 25.4596 24.8577 23.9889 24.8577H9.04067C9.18774 24.5513 9.26797 24.2182 9.26797 23.8584V8.85582H26.663V23.4854V23.472Z" fill="white"/>
<path d="M24.644 12.723H11.795C11.4206 12.723 11.1265 12.4299 11.1265 12.0568C11.1265 11.6837 11.4206 11.3906 11.795 11.3906H24.644C25.0184 11.3906 25.3125 11.6837 25.3125 12.0568C25.3125 12.4299 25.0184 12.723 24.644 12.723Z" fill="#42E8B4"/>
<path d="M24.644 17.5355H11.795C11.4206 17.5355 11.1265 17.2424 11.1265 16.8693C11.1265 16.4962 11.4206 16.2031 11.795 16.2031H24.644C25.0184 16.2031 25.3125 16.4962 25.3125 16.8693C25.3125 17.2424 25.0184 17.5355 24.644 17.5355Z" fill="#42E8B4"/>
<path d="M24.644 22.3324H11.795C11.4206 22.3324 11.1265 22.0393 11.1265 21.6662C11.1265 21.2931 11.4206 21 11.795 21H24.644C25.0184 21 25.3125 21.2931 25.3125 21.6662C25.3125 22.0393 25.0184 22.3324 24.644 22.3324Z" fill="#42E8B4"/>
</svg>
