<svg width="32" height="33" viewBox="0 0 32 33" fill="none" xmlns="http://www.w3.org/2000/svg">
<path fill-rule="evenodd" clip-rule="evenodd" d="M15.3267 7.53906C15.3267 7.9124 15.62 8.20573 15.9933 8.20573C16.3667 8.20573 16.66 7.9124 16.66 7.53906V4.20573C16.66 3.8324 16.3667 3.53906 15.9933 3.53906C15.62 3.53906 15.3267 3.8324 15.3267 4.20573V7.53906ZM8.84667 10.3792C8.67334 10.3792 8.50001 10.3125 8.38001 10.1792L6.02001 7.81919C5.75334 7.55253 5.75334 7.13919 6.02001 6.87253C6.28667 6.60586 6.70001 6.60586 6.96667 6.87253L9.32667 9.23253C9.59334 9.49919 9.59334 9.91253 9.32667 10.1792C9.19334 10.3125 9.02001 10.3792 8.86001 10.3792H8.84667ZM22.6733 10.1792C22.7933 10.3125 22.9667 10.3792 23.14 10.3792H23.1533C23.3133 10.3792 23.4867 10.3125 23.62 10.1792L25.98 7.81919C26.2467 7.55253 26.2467 7.13919 25.98 6.87253C25.7133 6.60586 25.3 6.60586 25.0333 6.87253L22.6733 9.23253C22.4067 9.49919 22.4067 9.91253 22.6733 10.1792ZM5.99335 20.1924C5.99335 25.7124 10.4733 30.1924 15.9933 30.1924C21.5133 30.1924 25.9933 25.7124 25.9933 20.1924C25.9933 14.6724 21.5133 10.1924 15.9933 10.1924C10.4733 10.1924 5.99335 14.6724 5.99335 20.1924ZM7.32668 20.1924C7.32668 15.419 11.22 11.5257 15.9933 11.5257C20.7667 11.5257 24.66 15.419 24.66 20.1924C24.66 24.9657 20.7667 28.859 15.9933 28.859C11.22 28.859 7.32668 24.9657 7.32668 20.1924Z" fill="white"/>
<path d="M19.42 26.2042C19.3 26.2042 19.18 26.1775 19.06 26.1108L15.9933 24.4975L12.9266 26.1108C12.6733 26.2442 12.3533 26.2308 12.1266 26.0575C11.8866 25.8842 11.78 25.5908 11.82 25.3108L12.4066 21.8975L9.92663 19.4842C9.7133 19.2842 9.64663 18.9775 9.73996 18.6975C9.8333 18.4175 10.0733 18.2175 10.3533 18.1775L13.78 17.6842L15.3133 14.5775C15.5666 14.0575 16.42 14.0575 16.6866 14.5775L18.22 17.6842L21.6466 18.1775C21.94 18.2175 22.1666 18.4175 22.26 18.6975C22.3533 18.9775 22.2733 19.2842 22.0733 19.4842L19.5933 21.8975L20.18 25.3108C20.2333 25.5908 20.1133 25.8842 19.8733 26.0575C19.74 26.1508 19.58 26.2042 19.42 26.2042ZM15.9933 22.8842C16.1133 22.8842 16.2333 22.9108 16.3533 22.9775L18.4066 24.0575L18.02 21.7775C17.98 21.5242 18.06 21.2708 18.2333 21.0975L19.8866 19.4842L17.5933 19.1508C17.34 19.1108 17.1266 18.9642 17.02 18.7375L15.9933 16.6575L14.9666 18.7375C14.86 18.9642 14.6466 19.1242 14.3933 19.1508L12.1 19.4842L13.7533 21.0975C13.9266 21.2708 14.02 21.5242 13.9666 21.7775L13.58 24.0575L15.6333 22.9775C15.74 22.9242 15.86 22.8842 15.9933 22.8842Z" fill="#42E8B4"/>
</svg>
