<svg width="31" height="33" viewBox="0 0 31 33" fill="none" xmlns="http://www.w3.org/2000/svg">
<path d="M14.7812 29.9848L4.14347 23.5113C3.74643 23.2715 3.5 22.8453 3.5 22.3791V7.68709C3.5 6.79465 4.37621 6.15529 5.25242 6.40837L8.20964 7.24753C9.26383 7.54057 10.4139 7.31413 11.249 6.62149L14.6169 3.85093C15.1235 3.42469 15.8765 3.42469 16.3831 3.85093L19.7647 6.63481C20.5998 7.31413 21.7225 7.55389 22.7767 7.26085L25.7476 6.42169C26.6238 6.16861 27.5 6.80797 27.5 7.70041V22.3924C27.5 22.8453 27.2536 23.2848 26.8565 23.5246L16.2188 29.9981C15.7807 30.2645 15.2056 30.2645 14.7675 29.9981L14.7812 29.9848ZM4.86908 7.68709V22.3791L15.5068 28.8526L26.1446 22.3791V7.68709L23.16 8.52626C21.6677 8.9525 20.0659 8.6195 18.8748 7.63381L15.4932 4.84993L12.1115 7.63381C10.9341 8.60618 9.3186 8.93918 7.8263 8.52626L4.8417 7.68709H4.86908Z" fill="white"/>
<path d="M12.8733 21.5942C12.7133 21.5942 12.54 21.5275 12.4066 21.4075L9.24662 18.3542C8.97995 18.1008 8.97995 17.6742 9.23329 17.4075C9.48662 17.1408 9.91329 17.1408 10.18 17.3942L12.8733 19.9942L20.82 12.1275C21.0866 11.8742 21.5 11.8742 21.7666 12.1275C22.02 12.3942 22.02 12.8075 21.7666 13.0742L13.3533 21.4075C13.22 21.5408 13.06 21.5942 12.8866 21.5942H12.8733Z" fill="#42E8B4"/>
</svg>
