<svg width="48" height="48" viewBox="0 0 48 48" fill="none" xmlns="http://www.w3.org/2000/svg">
<path d="M23.5954 4H26.5872C32.0737 4.51051 37.279 7.57356 40.1975 12.2825C44.4163 18.7149 43.8334 27.9041 38.7097 33.6626C37.2871 35.3248 34.3767 34.9042 33.5085 32.8907C32.0696 29.7501 30.9365 26.4746 29.5832 23.2972C28.3033 26.3685 27.1701 29.505 25.8454 32.5599C25.2666 34.1895 23.31 35.2391 21.6836 34.4876C20.4526 34.0261 19.8738 32.76 19.4092 31.6287C17.5871 27.0301 15.7202 22.4478 13.8738 17.8573C15.3656 17.8532 16.8616 17.8573 18.3616 17.8532C19.8535 21.5493 21.3372 25.2535 22.8413 28.9455C23.9663 26.1724 25.0668 23.3912 26.1674 20.6058C26.6647 19.3561 27.3128 17.9512 28.7109 17.5264C30.2517 16.9465 31.9188 18.0451 32.5017 19.4705C33.9814 22.8235 35.2124 26.2827 36.6512 29.648C38.1023 27.1689 39.0195 24.3346 38.8605 21.4267C38.6975 15.0352 33.533 9.21128 27.215 8.32912C19.7026 7.18966 12.0476 12.3519 9.88322 19.5767C7.76362 25.9764 10.1767 33.4707 15.5491 37.4976C19.4295 40.63 24.7652 41.6388 29.5424 40.2502C29.5384 41.6796 29.5302 43.1091 29.5384 44.5344C28.6416 44.6937 27.753 44.8611 26.8563 45H23.7992C18.6469 44.5099 13.6659 42.1575 10.2378 38.2368C7.18889 34.9001 5.47691 30.5179 5 26.0499V23.1135C5.41984 18.5801 7.16443 14.1367 10.2419 10.7551C13.6251 6.88744 18.5287 4.56769 23.5954 4Z" fill="#002EFF"/>
</svg>
