<svg width="24" height="24" viewBox="0 0 24 24" fill="none" xmlns="http://www.w3.org/2000/svg">
<circle cx="12" cy="12" r="12" fill="#002EFF"/>
<path d="M15.61 12.672C15.8233 13.184 15.93 13.7707 15.93 14.432C15.93 15.0293 15.8393 15.5573 15.658 16.016C15.4127 16.688 15.0073 17.2107 14.442 17.584C13.8767 17.9467 13.194 18.128 12.394 18.128C11.6047 18.128 10.9167 17.9307 10.33 17.536C9.754 17.1307 9.34333 16.5867 9.098 15.904C8.97 15.5733 8.89533 15.1413 8.874 14.608C8.874 14.48 8.938 14.416 9.066 14.416H10.554C10.682 14.416 10.746 14.48 10.746 14.608C10.7673 14.9493 10.8207 15.2213 10.906 15.424C11.002 15.7653 11.178 16.0373 11.434 16.24C11.7007 16.432 12.0207 16.528 12.394 16.528C13.098 16.528 13.5833 16.208 13.85 15.568C13.9887 15.2587 14.058 14.8587 14.058 14.368C14.058 13.824 13.978 13.376 13.818 13.024C13.5407 12.4267 13.0607 12.128 12.378 12.128C12.1967 12.128 11.9513 12.2347 11.642 12.448C11.5993 12.4693 11.562 12.48 11.53 12.48C11.4767 12.48 11.4233 12.448 11.37 12.384L10.634 11.36C10.602 11.3067 10.586 11.264 10.586 11.232C10.586 11.1787 10.6073 11.1307 10.65 11.088L13.29 8.496C13.3113 8.47467 13.3167 8.45333 13.306 8.432C13.2953 8.41067 13.274 8.4 13.242 8.4H9.242C9.18867 8.4 9.14067 8.384 9.098 8.352C9.066 8.30933 9.05 8.26133 9.05 8.208V6.992C9.05 6.93867 9.066 6.896 9.098 6.864C9.14067 6.82133 9.18867 6.8 9.242 6.8H15.626C15.6793 6.8 15.722 6.82133 15.754 6.864C15.7967 6.896 15.818 6.93867 15.818 6.992V8.384C15.818 8.48 15.786 8.56 15.722 8.624L13.434 10.928C13.3913 10.9707 13.4127 11.0027 13.498 11.024C14.49 11.1627 15.194 11.712 15.61 12.672Z" fill="white"/>
</svg>
