<svg width="24" height="24" viewBox="0 0 24 24" fill="none" xmlns="http://www.w3.org/2000/svg">
<circle cx="12" cy="12" r="12" fill="#002EFF"/>
<path d="M11.7397 6.848C11.825 6.816 11.905 6.8 11.9797 6.8H13.5157C13.569 6.8 13.6117 6.82133 13.6437 6.864C13.6864 6.896 13.7077 6.93867 13.7077 6.992V17.808C13.7077 17.8613 13.6864 17.9093 13.6437 17.952C13.6117 17.984 13.569 18 13.5157 18H12.0437C11.9904 18 11.9424 17.984 11.8997 17.952C11.8677 17.9093 11.8517 17.8613 11.8517 17.808V8.72C11.8517 8.69867 11.841 8.68267 11.8197 8.672C11.7984 8.65067 11.777 8.64533 11.7557 8.656L10.1557 9.152C10.1344 9.16267 10.1077 9.168 10.0757 9.168C10.033 9.168 9.99569 9.152 9.96369 9.12C9.94235 9.088 9.93169 9.04533 9.93169 8.992L9.88369 7.936C9.88369 7.82933 9.92635 7.75467 10.0117 7.712L11.7397 6.848Z" fill="white"/>
</svg>
