<svg width="24" height="25" viewBox="0 0 24 25" fill="none" xmlns="http://www.w3.org/2000/svg">
<circle cx="12" cy="12.4062" r="12" fill="#002EFF"/>
<path d="M15.9058 13.3822C16.0445 13.8622 16.1138 14.3582 16.1138 14.8702C16.1138 15.3716 16.0445 15.8462 15.9058 16.2943C15.6818 16.9769 15.2711 17.5209 14.6738 17.9262C14.0765 18.3209 13.3778 18.5183 12.5778 18.5183C11.7885 18.5183 11.1005 18.3262 10.5138 17.9422C9.92715 17.5476 9.51648 17.0196 9.28181 16.3582C9.19648 16.1236 9.12715 15.8569 9.07381 15.5582V15.5262C9.07381 15.4089 9.13781 15.3502 9.26581 15.3502H10.7858C10.8925 15.3502 10.9618 15.4089 10.9938 15.5262C11.0045 15.5902 11.0311 15.6862 11.0738 15.8142C11.1911 16.1662 11.3778 16.4382 11.6338 16.6302C11.8898 16.8222 12.1991 16.9182 12.5618 16.9182C12.9351 16.9182 13.2551 16.8169 13.5218 16.6142C13.7885 16.4009 13.9751 16.1129 14.0818 15.7502C14.1778 15.4942 14.2258 15.2009 14.2258 14.8702C14.2258 14.5609 14.1831 14.2569 14.0978 13.9582C14.0231 13.6062 13.8525 13.3396 13.5858 13.1582C13.3191 12.9662 12.9938 12.8702 12.6098 12.8702C12.2471 12.8702 11.9165 12.9556 11.6178 13.1262C11.3298 13.2862 11.1431 13.4996 11.0578 13.7662C11.0151 13.8729 10.9405 13.9262 10.8338 13.9262H9.28181C9.22848 13.9262 9.18048 13.9102 9.13781 13.8782C9.10581 13.8356 9.08981 13.7876 9.08981 13.7342V7.39825C9.08981 7.34492 9.10581 7.30225 9.13781 7.27025C9.18048 7.22758 9.22848 7.20625 9.28181 7.20625H15.5058C15.5591 7.20625 15.6018 7.22758 15.6338 7.27025C15.6765 7.30225 15.6978 7.34492 15.6978 7.39825V8.61425C15.6978 8.66758 15.6765 8.71558 15.6338 8.75825C15.6018 8.79025 15.5591 8.80625 15.5058 8.80625H11.0258C10.9725 8.80625 10.9458 8.83292 10.9458 8.88625L10.9298 11.7662C10.9298 11.8089 10.9405 11.8356 10.9618 11.8462C10.9831 11.8462 11.0045 11.8356 11.0258 11.8142C11.5271 11.4409 12.1298 11.2542 12.8338 11.2542C13.5805 11.2542 14.2258 11.4462 14.7698 11.8302C15.3245 12.2036 15.7031 12.7209 15.9058 13.3822Z" fill="white"/>
</svg>
