<svg width="24" height="25" viewBox="0 0 24 25" fill="none" xmlns="http://www.w3.org/2000/svg">
<circle cx="12" cy="12.4062" r="12" fill="#002EFF"/>
<path d="M15.6723 13.7982C15.7256 13.7982 15.7683 13.8196 15.8003 13.8622C15.843 13.8942 15.8643 13.9369 15.8643 13.9902V15.2702C15.8643 15.3236 15.843 15.3716 15.8003 15.4142C15.7683 15.4462 15.7256 15.4622 15.6723 15.4622H15.0003C14.947 15.4622 14.9203 15.4889 14.9203 15.5422V18.2142C14.9203 18.2676 14.899 18.3156 14.8563 18.3582C14.8243 18.3902 14.7816 18.4062 14.7283 18.4062H13.2563C13.203 18.4062 13.155 18.3902 13.1123 18.3582C13.0803 18.3156 13.0643 18.2676 13.0643 18.2142V15.5422C13.0643 15.4889 13.0376 15.4622 12.9843 15.4622H8.12031C8.06698 15.4622 8.01898 15.4462 7.97631 15.4142C7.94431 15.3716 7.92831 15.3236 7.92831 15.2702V14.2462C7.92831 14.1822 7.94431 14.1022 7.97631 14.0062L11.0003 7.35025C11.043 7.25425 11.1176 7.20625 11.2243 7.20625H12.7923C12.867 7.20625 12.915 7.22758 12.9363 7.27025C12.9683 7.30225 12.9683 7.35558 12.9363 7.43025L10.0883 13.7023C10.0776 13.7236 10.0776 13.7449 10.0883 13.7662C10.099 13.7876 10.115 13.7982 10.1363 13.7982H12.9843C13.0376 13.7982 13.0643 13.7716 13.0643 13.7182V11.5422C13.0643 11.4889 13.0803 11.4462 13.1123 11.4142C13.155 11.3716 13.203 11.3502 13.2563 11.3502H14.7283C14.7816 11.3502 14.8243 11.3716 14.8563 11.4142C14.899 11.4462 14.9203 11.4889 14.9203 11.5422V13.7182C14.9203 13.7716 14.947 13.7982 15.0003 13.7982H15.6723Z" fill="white"/>
</svg>
