<svg width="24" height="24" viewBox="0 0 24 24" fill="none" xmlns="http://www.w3.org/2000/svg">
<circle cx="12" cy="12" r="12" fill="#002EFF"/>
<path d="M11.3738 16.304C11.3524 16.3253 11.3418 16.3467 11.3418 16.368C11.3524 16.3893 11.3738 16.4 11.4058 16.4H15.9658C16.0191 16.4 16.0618 16.4213 16.0938 16.464C16.1364 16.496 16.1578 16.5387 16.1578 16.592V17.808C16.1578 17.8613 16.1364 17.9093 16.0938 17.952C16.0618 17.984 16.0191 18 15.9658 18H9.08575C9.03242 18 8.98442 17.984 8.94175 17.952C8.90975 17.9093 8.89375 17.8613 8.89375 17.808V16.656C8.89375 16.56 8.92575 16.48 8.98975 16.416C9.80042 15.552 10.7391 14.4907 11.8058 13.232L12.5578 12.352C13.5391 11.2107 14.0298 10.3467 14.0298 9.76C14.0298 9.32267 13.8751 8.96533 13.5658 8.688C13.2564 8.41067 12.8564 8.272 12.3658 8.272C11.8751 8.272 11.4751 8.41067 11.1658 8.688C10.8671 8.96533 10.7178 9.33333 10.7178 9.792V10.208C10.7178 10.2613 10.6964 10.3093 10.6538 10.352C10.6218 10.384 10.5791 10.4 10.5258 10.4H9.03775C8.98442 10.4 8.93642 10.384 8.89375 10.352C8.86175 10.3093 8.84575 10.2613 8.84575 10.208V9.52C8.86708 8.944 9.03242 8.44267 9.34175 8.016C9.65108 7.58933 10.0671 7.25867 10.5898 7.024C11.1231 6.78933 11.7151 6.672 12.3658 6.672C13.0804 6.672 13.7044 6.80533 14.2378 7.072C14.7711 7.33867 15.1818 7.70667 15.4698 8.176C15.7578 8.63467 15.9018 9.152 15.9018 9.728C15.9018 10.6027 15.4378 11.6107 14.5098 12.752C13.9978 13.392 13.1551 14.352 11.9818 15.632L11.3738 16.304Z" fill="white"/>
</svg>
