<svg width="350" height="240" viewBox="0 0 350 240" fill="none" xmlns="http://www.w3.org/2000/svg">
<mask id="mask0_7_92" style="mask-type:alpha" maskUnits="userSpaceOnUse" x="0" y="0" width="350" height="240">
<path d="M0 16C0 7.16344 7.16344 0 16 0H334C342.837 0 350 7.16344 350 16V224C350 232.837 342.837 240 334 240H16C7.16343 240 0 232.837 0 224V16Z" fill="#FF0000"/>
</mask>
<g mask="url(#mask0_7_92)">
<mask id="mask1_7_92" style="mask-type:alpha" maskUnits="userSpaceOnUse" x="-11" y="0" width="350" height="240">
<rect x="-11" width="350" height="240" rx="16" fill="#D9D9D9"/>
</mask>
<g mask="url(#mask1_7_92)">
<path d="M180.538 777.804C168.507 787.24 148.955 785.668 136.923 774.659L64.7331 705.46C54.2053 694.452 54.2053 678.725 66.2371 669.289C66.2371 669.289 177.53 584.363 177.53 400.359C177.53 227.363 60.2212 126.711 60.2212 126.711C48.1895 117.275 48.1895 99.9757 58.7172 88.9669L129.404 21.3413C139.931 10.3325 159.483 8.75977 173.019 18.1959C173.019 18.1959 339.959 137.72 339.959 400.359C342.967 659.852 180.538 777.804 180.538 777.804" fill="#42E8B4"/>
<path d="M236.729 114.902C236.729 98.8353 249.77 85.8082 265.865 85.8082C281.959 85.8082 295 98.8314 295 114.902C295 130.972 281.959 143.996 265.865 143.996C262.315 143.996 258.914 143.36 255.764 142.197L249.742 146.696C248.674 147.492 247.15 146.733 247.15 145.399V137.194C240.779 131.858 236.729 123.851 236.729 114.902V114.902Z" fill="white" stroke="black" stroke-miterlimit="10"/>
<path d="M257.574 108.297H259.244V106.629H257.574V108.297Z" fill="black"/>
<path d="M256.214 105.272H260.598V109.649H256.214V105.272ZM254.854 103.914V111.001H261.954V103.914H254.854Z" fill="black"/>
<path d="M274.147 117.403V113.762H272.787V117.403H274.147Z" fill="black"/>
<path d="M274.151 112.404H271.167V113.762H274.151V112.404Z" fill="black"/>
<path d="M271.121 120.151H275.505V124.528H271.121V120.151ZM269.762 118.793V125.88H276.861V118.793H269.762V118.793Z" fill="black"/>
<path d="M271.163 117.395V112.401H269.762V117.395H271.163Z" fill="black"/>
<path d="M268.36 114.203H263.359V115.603H268.36V114.203Z" fill="black"/>
<path d="M268.36 124.489H261.958V125.888H268.36V124.489Z" fill="black"/>
<path d="M268.36 103.914H264.759V105.313H268.36V103.914Z" fill="black"/>
<path d="M268.36 121.551H264.759V122.95H268.36V121.551Z" fill="black"/>
<path d="M257.751 114.203V117.145H259.152V114.203H257.751Z" fill="black"/>
<path d="M266.958 111.007V114.203H268.36V111.007H266.958Z" fill="black"/>
<path d="M266.958 122.954V124.489H268.36V122.954H266.958Z" fill="black"/>
<path d="M254.86 124.431V125.886H256.262V124.431H254.86Z" fill="black"/>
<path d="M257.751 114.197V115.652H261.954V114.197H257.751Z" fill="black"/>
<path d="M256.26 122.978V124.433H257.662V122.978H256.26Z" fill="black"/>
<path d="M263.363 109.607H268.364V108.208H263.363V109.607Z" fill="black"/>
<path d="M263.359 115.603V120.199H264.761V115.603H263.359Z" fill="black"/>
<path d="M260.6 111.001V115.597H261.954V111.001H260.6Z" fill="black"/>
<path d="M263.359 109.607V111.007H264.761V109.607H263.359Z" fill="black"/>
<path d="M266.964 117V120.197H268.366V117H266.964Z" fill="black"/>
<path d="M264.761 105.317V108.208H266.162V105.317H264.761Z" fill="black"/>
<path d="M272.475 108.297H274.145V106.629H272.475V108.297Z" fill="black"/>
<path d="M272.475 123.329H274.145V121.662H272.475V123.329Z" fill="black"/>
<path d="M271.121 105.272H275.505V109.649H271.121V105.272ZM269.762 103.914V111.001H276.861V103.914H269.762Z" fill="black"/>
<path d="M257.616 119.952H259.285V121.62H257.616V119.952ZM256.256 118.594V122.972H260.639V118.594H256.256Z" fill="black"/>
<path d="M281.401 122.231V131.822H282.803V122.231H281.401Z" fill="black"/>
<path d="M273.204 131.822H282.809V130.423H273.204V131.822Z" fill="black"/>
<path d="M248.917 122.231V131.822H250.318V122.231H248.917Z" fill="black"/>
<path d="M258.521 130.419H248.917V131.818H258.521V130.419Z" fill="black"/>
<path d="M282.803 107.568V97.9777H281.401V107.568H282.803Z" fill="black"/>
<path d="M273.204 99.3773H282.809V97.9777H273.204V99.3773Z" fill="black"/>
<path d="M250.318 107.568V97.9777H248.917V107.568H250.318Z" fill="black"/>
<path d="M258.521 97.9837H248.917V99.3833H258.521V97.9837Z" fill="black"/>
<path d="M191.829 146.332C197.187 147.204 203.975 151.96 206.119 158.859C208.263 165.758 215.884 188.672 215.884 188.672L219.267 182.779L237.791 192.968L234.071 199.686C234.071 199.686 234.428 202.791 233.297 204.629C232.165 206.473 221.064 220.936 217.431 223.076C213.798 225.216 208.318 225.694 203.675 222.482C199.031 219.272 191.825 146.332 191.825 146.332H191.829V146.332Z" fill="#FF3D00"/>
<path d="M241.924 185.501L235.647 191.783L219.271 182.775L221.238 179.222L241.926 185.499L241.924 185.501Z" fill="white" stroke="black" stroke-miterlimit="10"/>
<path d="M209.224 240.679C209.224 240.679 212.517 239.25 212.098 234.09C211.673 228.93 194.93 149.074 194.93 149.074C194.93 149.074 161.812 140.714 147.864 143.573C133.917 146.432 124.958 150.517 125.087 178.388C125.216 206.259 128.001 240.673 128.001 240.673H209.224V240.677V240.679Z" fill="#FF3D00"/>
<path d="M125.015 178.477C125.039 183.625 125.144 188.993 125.307 194.332C145.452 180.242 186.228 188.558 197.06 191.117C198.722 191.507 199.677 191.761 199.746 191.781L215.199 186.615C213.283 180.842 207.87 164.497 206.115 158.859C203.971 151.96 197.179 147.204 191.825 146.332C191.825 146.332 159.511 140.861 146.41 143.714C133.314 146.567 124.892 150.648 125.013 178.477H125.015Z" fill="#FF3D00"/>
<path d="M197.364 174.026C198.487 180.016 199.887 185.952 201.15 191.91C201.229 192.275 200.667 192.428 200.588 192.062C199.325 186.101 197.926 180.171 196.802 174.179C196.732 173.814 197.294 173.661 197.364 174.026V174.026Z" fill="black"/>
<path d="M139.538 190.913C145.926 199.851 156.908 215.063 161.816 221.059C168.961 229.778 179.381 230.793 186.586 228.827C192.121 227.322 215.165 210.235 217.707 208.012C220.244 205.792 219.275 202.564 219.275 202.564L203.139 182.823L184.321 196.378L171.385 178.724C171.004 178.686 151.407 176.768 139.536 190.913H139.538Z" fill="#FF3D00"/>
<path d="M184.438 196.287C182.053 198.038 179.753 199.886 177.529 201.842C177.251 202.088 176.838 201.679 177.12 201.435C179.379 199.452 181.722 197.571 184.144 195.793C184.446 195.57 184.734 196.075 184.436 196.293V196.289L184.438 196.287Z" fill="black"/>
<path d="M184.168 196.096C181.978 196.527 179.782 196.958 177.593 197.389C177.225 197.462 177.073 196.902 177.44 196.829C179.63 196.398 181.823 195.967 184.013 195.537C184.38 195.463 184.533 196.023 184.166 196.096H184.168Z" fill="black"/>
<path d="M219.279 202.564L228.512 194.536L213.379 175.281L203.145 182.823L219.281 202.564H219.279Z" fill="#FF3D00"/>
<path d="M176.268 157.432C174.426 158.172 151.179 144.047 148.799 142.89C146.418 141.733 146.97 138.562 147.212 136.182C147.449 133.805 149.593 130.867 154.278 130.867C158.963 130.867 170.952 132.851 180.954 137.131C190.957 141.411 189.607 144.284 188.893 145.864C188.178 147.438 183.969 154.337 176.268 157.432V157.432Z" fill="#FF3D00"/>
<path d="M165.953 142.713C163.392 139.489 160.464 136.617 157.184 134.125C156.893 133.903 157.18 133.398 157.476 133.625C160.797 136.146 163.767 139.041 166.36 142.302C166.592 142.59 166.183 143.007 165.951 142.709V142.713H165.953Z" fill="black"/>
<path d="M244.364 175.281H233.438C232.477 175.281 231.8 174.34 232.102 173.433L239.306 151.738C239.497 151.164 240.035 150.775 240.642 150.775H251.567C252.528 150.775 253.205 151.716 252.903 152.624L245.698 174.318C245.508 174.892 244.97 175.281 244.362 175.281H244.364Z" fill="black"/>
<path d="M248.541 154.778C248.375 155.337 248.43 156.181 249.252 155.941C249.832 155.77 250.31 155.181 250.501 154.625C250.681 154.097 250.63 153.281 249.865 153.443C249.24 153.573 248.766 154.222 248.547 154.782C248.412 155.125 247.852 154.976 247.985 154.629C248.319 153.771 249.113 152.784 250.143 152.846C251.14 152.905 251.327 154.003 251.063 154.782C250.775 155.629 249.949 156.574 248.98 156.57C247.918 156.57 247.745 155.435 247.987 154.629C248.095 154.271 248.656 154.424 248.549 154.782L248.545 154.778H248.541Z" fill="white"/>
<path d="M215.829 178.396L221.901 173.822C221.901 173.822 224.5 165.641 227.121 164.454C229.741 163.262 235.703 162.591 235.703 162.591L233.926 167.942C233.926 167.942 247.924 164.061 250.902 163.262C253.723 162.508 253.723 166.751 252.131 168.099C250.544 169.447 248.952 170.159 248.952 170.159C248.952 170.159 250.34 170.83 250.538 172.299C250.737 173.768 249.945 174.995 249.945 174.995C249.945 174.995 250.618 175.829 250.382 177.455C250.145 179.081 248.754 179.915 248.754 179.915C248.754 179.915 249.784 182.768 247.126 184.594C244.468 186.42 239.203 186.484 233.287 187.477L226.003 191.072L215.829 178.396Z" fill="white" stroke="black" stroke-miterlimit="10"/>
<path d="M135.849 170.088L130.314 180.423" stroke="black" stroke-linecap="round" stroke-linejoin="round"/>
<path d="M192.631 108.339C188.015 99.2959 177.241 95.5379 168.576 99.9491C159.91 104.36 156.625 115.269 161.24 124.318C162.539 126.861 164.526 128.737 166.841 130.091L165.262 148.298L179.227 152L181.601 133.148C182.983 133.075 184.245 132.916 185.293 132.704C194.829 130.768 197.245 117.383 192.629 108.335V108.339H192.631Z" fill="white" stroke="black" stroke-miterlimit="10"/>
<path d="M166.491 130.611C166.491 130.611 158.979 124.608 157.595 118.773C156.47 114.026 154.306 106.786 162.183 103.622C162.763 99.7426 165.495 95.3969 170.946 97.1181C170.946 97.1181 172.659 94.2395 175.649 94.4241C178.639 94.6088 181.297 97.4338 181.297 97.4338C181.297 97.4338 188.428 93.8166 191.37 100.602C194.306 107.39 186.622 108.059 184.736 108.196C182.848 108.331 175.272 107.12 173.571 107.189C171.873 107.259 171.397 109.657 173.003 112.105C176.417 117.318 174.289 121.894 172.473 124.31C170.033 127.558 166.493 130.611 166.493 130.611H166.491Z" fill="black"/>
<path d="M166.372 120.697C165.342 117.634 166.854 114.545 169.759 113.79C172.659 113.04 175.852 114.912 176.88 117.973C177.91 121.036 176.398 124.125 173.493 124.88C170.593 125.63 167.402 123.758 166.372 120.697Z" fill="white"/>
<path d="M181.996 142.808C181.996 142.808 175.327 144.836 172.121 150.08C172.121 150.08 162.135 135.691 156.627 133L153 138.97L165.315 150.08L174.296 152.792L182 153V142.81H181.996V142.808Z" fill="#FF3D00"/>
<path d="M184.346 142.235C184.346 142.235 177.428 142.592 172.109 149.624C172.109 149.624 162.993 135.999 157.087 133.627" stroke="black" stroke-linecap="round" stroke-linejoin="round"/>
<path d="M248.972 170.167C248.972 170.167 244.62 172.577 239.034 172.678" stroke="black" stroke-linecap="round" stroke-linejoin="round"/>
<path d="M249.961 174.979C249.961 174.979 243.155 177.981 239.272 177.217" stroke="black" stroke-linecap="round" stroke-linejoin="round"/>
<path d="M248.758 179.919C248.758 179.919 244.067 181.961 239.981 181.86" stroke="black" stroke-linecap="round" stroke-linejoin="round"/>
<path d="M203.135 182.823L219.257 201.943L228.671 194.381L213.379 175.281L203.135 182.823Z" stroke="black" stroke-linecap="round" stroke-linejoin="round"/>
<path d="M235.647 191.784L237.795 192.966L234.075 199.688L226.986 195.735" stroke="black" stroke-linecap="round" stroke-linejoin="round"/>
<path d="M219.257 201.943C219.257 201.943 220.718 205.038 218.632 207.359L193.727 225.659C186.363 231.07 176.483 231.918 168.47 227.521C165.368 225.816 162.388 223.356 160.073 219.816" stroke="black" stroke-linecap="round" stroke-linejoin="round"/>
<path d="M205.11 223.348L204.215 217.956" stroke="black" stroke-linecap="round" stroke-linejoin="round"/>
<path d="M232.238 210.595V215.048C232.306 215.048 232.373 215.044 232.445 215.044C238.018 215.044 242.538 219.566 242.538 225.149C242.538 230.731 238.018 235.253 232.445 235.253C232.332 235.253 232.221 235.249 232.107 235.245C231.407 239.24 227.942 242.277 223.771 242.277H211.642C206.964 242.277 203.175 238.46 203.175 233.759V210.595H232.24H232.238ZM239.369 225.15C239.369 221.319 236.269 218.21 232.441 218.21C232.373 218.21 232.302 218.21 232.235 218.214V232.083C232.302 232.083 232.37 232.087 232.441 232.087C236.269 232.087 239.369 228.982 239.369 225.147V225.15V225.15Z" fill="#002EFF"/>
<path d="M221.254 224.996C221.341 224.996 221.415 224.936 221.415 224.857V210.732C221.415 210.656 221.345 210.593 221.254 210.593C221.163 210.593 221.093 210.652 221.093 210.732V224.857C221.093 224.932 221.163 224.996 221.254 224.996Z" fill="black"/>
<path d="M226.535 236.584V229.939C226.535 229.599 226.394 229.278 226.146 229.048L221.403 224.678L216.39 229.044C216.126 229.274 215.973 229.605 215.973 229.957V236.584C215.973 237.255 216.519 237.798 217.192 237.798H225.316C225.991 237.798 226.535 237.255 226.535 236.584V236.584Z" fill="#FF3D00"/>
<path d="M221.254 234.918C222.753 234.918 223.974 233.697 223.974 232.198C223.974 230.699 222.753 229.478 221.254 229.478C219.755 229.478 218.534 230.699 218.534 232.198C218.534 233.697 219.755 234.918 221.254 234.918ZM221.254 230.316C222.29 230.316 223.136 231.158 223.136 232.198C223.136 233.238 222.294 234.08 221.254 234.08C220.214 234.08 219.372 233.238 219.372 232.198C219.372 231.158 220.214 230.316 221.254 230.316Z" fill="white"/>
<path d="M170.108 116.415L173.136 119.335" stroke="black" stroke-linecap="round" stroke-linejoin="round"/>
<path d="M171.623 117.876L169.634 119.952" stroke="black" stroke-linecap="round" stroke-linejoin="round"/>
<path d="M148.543 143.412L170.507 155.117C174.573 157.285 179.566 156.699 183.002 153.63C184.954 151.887 187.167 149.427 189.486 145.959" stroke="black" stroke-linecap="round" stroke-linejoin="round"/>
<path d="M166.579 153.025L167.708 158.252" stroke="black" stroke-linecap="round" stroke-linejoin="round"/>
<path d="M181.112 155.101L182.242 160.326" stroke="black" stroke-linecap="round" stroke-linejoin="round"/>
<path d="M198.759 156.834H87.8159C87.3653 156.834 87 157.2 87 157.65V223.477C87 223.928 87.3653 224.293 87.8159 224.293H198.759C199.21 224.293 199.575 223.928 199.575 223.477V157.65C199.575 157.2 199.21 156.834 198.759 156.834V156.834Z" fill="#002EFF"/>
<path d="M152.457 237.959H134.122C133.264 237.959 132.577 237.241 132.619 236.385L134.35 200.091C134.388 199.289 135.051 198.659 135.853 198.659H150.82C151.628 198.659 152.285 199.295 152.322 200.095L153.96 236.389C153.998 237.247 153.315 237.959 152.457 237.959Z" fill="black"/>
<path d="M159.88 210.7H126.695C124.745 210.7 123.159 209.116 123.159 207.174V192.821C123.159 190.875 124.745 189.291 126.695 189.291H159.876C161.824 189.291 163.412 190.875 163.412 192.821V207.174C163.412 209.12 161.826 210.7 159.876 210.7H159.88ZM126.699 190.51C125.422 190.51 124.388 191.542 124.388 192.817V207.17C124.388 208.445 125.426 209.477 126.699 209.477H159.88C161.157 209.477 162.191 208.445 162.191 207.17V192.817C162.191 191.542 161.157 190.51 159.88 190.51H126.695H126.699Z" fill="black"/>
<path d="M163.75 236.57H122.82C122.715 236.57 122.629 236.655 122.629 236.76V240.606C122.629 240.711 122.715 240.796 122.82 240.796H163.75C163.855 240.796 163.94 240.711 163.94 240.606V236.76C163.94 236.655 163.855 236.57 163.75 236.57Z" fill="#002EFF"/>
<path d="M147.473 172.952C147.32 172.845 147.083 172.863 146.946 172.988L146.071 173.79C145.934 173.917 145.946 174.11 146.095 174.219C146.095 174.219 147.443 175.212 147.443 177.344C147.443 179.476 146.023 180.53 146.023 180.53C145.878 180.649 145.874 180.848 146.011 180.973L146.879 181.763C147.014 181.888 147.252 181.906 147.405 181.801C147.405 181.801 149.44 180.413 149.44 177.35C149.44 174.287 147.471 172.95 147.471 172.95" fill="#FF3D00"/>
<path d="M143.022 175.206C142.752 174.63 142.188 174.201 141.332 174.201C140.477 174.201 139.915 174.63 139.643 175.206C139.486 175.559 139.428 175.821 139.408 176.248H143.254C143.234 175.821 143.174 175.559 143.02 175.206M139.667 177.906C139.667 177.906 139.414 177.882 139.414 178.084C139.414 179.24 140.274 180.064 141.622 180.064C142.625 180.064 143.051 179.823 143.657 179.369C143.798 179.262 143.947 179.164 144.064 179.287C144.143 179.373 145.205 180.357 145.205 180.357C145.338 180.482 145.303 180.631 145.16 180.752C145.019 180.872 143.431 182.11 141.604 182.11C139.214 182.11 136.925 181.066 136.925 177.139C136.925 173.975 138.712 172.188 141.332 172.188C144.149 172.188 145.739 174.161 145.739 176.822V177.495C145.739 177.769 145.517 177.902 145.334 177.902H139.667V177.906Z" fill="white"/>
</g>
</g>
</svg>
