<svg width="32" height="32" viewBox="0 0 32 32" fill="none" xmlns="http://www.w3.org/2000/svg">
<path fill-rule="evenodd" clip-rule="evenodd" d="M15.9998 17.0207L25.8025 26.8235C26.0843 27.1052 26.5412 27.1052 26.823 26.8235C27.1047 26.5417 27.1047 26.0848 26.823 25.803L17.0203 16.0003L26.823 6.19761C27.1047 5.91583 27.1047 5.45898 26.823 5.1772C26.5412 4.89542 26.0843 4.89542 25.8025 5.1772L15.9998 14.9799L6.19713 5.1772C5.91535 4.89542 5.45849 4.89542 5.17671 5.1772C4.89493 5.45898 4.89493 5.91583 5.17671 6.19761L14.9794 16.0003L5.17671 25.803C4.89493 26.0848 4.89493 26.5417 5.17671 26.8235C5.45849 27.1052 5.91535 27.1052 6.19713 26.8235L15.9998 17.0207Z" fill="#002EFF"/>
</svg>
