<svg width="350" height="241" viewBox="0 0 350 241" fill="none" xmlns="http://www.w3.org/2000/svg">
<mask id="mask0_6587_33333" style="mask-type:alpha" maskUnits="userSpaceOnUse" x="0" y="1" width="350" height="240">
<rect y="1" width="350" height="240" rx="16" fill="#D9D9D9"/>
</mask>
<g mask="url(#mask0_6587_33333)">
<path d="M191.538 778.804C179.507 788.24 159.955 786.668 147.923 775.659L75.7331 706.46C65.2053 695.452 65.2053 679.725 77.2371 670.289C77.2371 670.289 188.53 585.363 188.53 401.359C188.53 228.363 71.2212 127.711 71.2212 127.711C59.1895 118.275 59.1895 100.976 69.7172 89.9669L140.404 22.3413C150.931 11.3325 170.483 9.75977 184.019 19.1959C184.019 19.1959 350.959 138.72 350.959 401.359C353.967 660.852 191.538 778.804 191.538 778.804Z" fill="#42E8B4"/>
</g>
<g clip-path="url(#clip0_6587_33333)">
<path d="M113.09 109.638C138.905 109.638 159.832 88.7107 159.832 62.8953C159.832 37.0799 138.905 16.1523 113.09 16.1523C87.2741 16.1523 66.3466 37.0799 66.3466 62.8953C66.3466 88.7107 87.2741 109.638 113.09 109.638Z" stroke="#0C0C0C" stroke-miterlimit="10"/>
<path d="M101.839 86.5789L112.949 62.8962L87.7857 34.6328" stroke="#0C0C0C" stroke-linecap="round" stroke-linejoin="round"/>
<path d="M114.19 95.6992V109.639" stroke="#0C0C0C" stroke-linecap="round" stroke-linejoin="round"/>
<path d="M235.044 224.001C234.639 224.001 234.261 223.746 234.123 223.344L216.888 173.084C216.713 172.575 216.984 172.022 217.494 171.847C218.003 171.67 218.556 171.943 218.731 172.453L235.966 222.713C236.141 223.221 235.87 223.775 235.36 223.95C235.256 223.986 235.148 224.003 235.044 224.003V224.001Z" fill="#0C0C0C"/>
<path d="M202.168 224.001C201.763 224.001 201.384 223.746 201.246 223.344L184.011 173.084C183.837 172.575 184.107 172.022 184.618 171.847C185.126 171.67 185.679 171.943 185.854 172.453L203.089 222.713C203.264 223.221 202.993 223.775 202.483 223.95C202.379 223.986 202.271 224.003 202.168 224.003V224.001Z" fill="#0C0C0C"/>
<path d="M153.885 223.998C153.781 223.998 153.673 223.982 153.57 223.946C153.061 223.771 152.791 223.217 152.963 222.709L170.198 172.449C170.373 171.94 170.926 171.666 171.435 171.843C171.943 172.018 172.214 172.571 172.041 173.08L154.806 223.339C154.668 223.744 154.29 223.996 153.885 223.996V223.998Z" fill="#0C0C0C"/>
<path d="M217.871 104.352H177.415C171.637 104.352 166.954 109.035 166.954 114.813V162.306C166.954 168.084 171.637 172.768 177.415 172.768H217.871C223.648 172.768 228.332 168.084 228.332 162.306V114.813C228.332 109.035 223.648 104.352 217.871 104.352Z" fill="white" stroke="#0C0C0C" stroke-miterlimit="10"/>
<path d="M58.6008 200.91L65.7364 214.44L84.2444 206.05L74.5093 190.906C65.8401 196.292 58.6008 200.91 58.6008 200.91Z" fill="white" stroke="#0C0C0C" stroke-miterlimit="10"/>
<path d="M69.2573 213.703L53.9286 223.027L38.0547 186.587L44.9217 183.713C48.1742 182.322 51.927 183.196 53.7496 185.767L62.1645 197.64C62.1645 197.64 61.9815 206.903 64.2535 210.992C66.5256 215.08 69.2573 213.703 69.2573 213.703Z" fill="white" stroke="#0C0C0C" stroke-miterlimit="10"/>
<path d="M143.265 208.889L158.838 207.715L146.542 188.914L128.396 191.868C129.889 202.192 143.265 208.889 143.265 208.889Z" fill="white" stroke="#0C0C0C" stroke-miterlimit="10"/>
<path d="M157.9 204.283L166.667 222.287L121.466 222.311L121.586 214.7C121.614 211.081 123.966 207.92 127.119 207.259L135.855 204.995C135.855 204.995 150.254 208.158 155.008 207.694C159.761 207.231 157.902 204.281 157.902 204.281L157.9 204.283Z" fill="white" stroke="#0C0C0C" stroke-miterlimit="10"/>
<path d="M175.877 167.192L82.0415 212.304L65.8442 192.091L154.037 144.352L175.877 167.192Z" fill="#002EFF"/>
<path d="M177.297 137.117C177.297 137.117 125.619 142.186 112.534 147.229C99.449 152.271 100.761 168.509 129.112 199.057L158.897 196.325L141.772 171.458L178.481 170.366L203.53 149.234L177.297 137.119V137.117Z" fill="#002EFF"/>
<path d="M201.614 118.532C201.73 119 204.771 147.167 204.771 147.167L164.722 138.468L166.199 109.832L201.614 118.532Z" fill="#FF3D00"/>
<path d="M182.543 99.3012C182.543 99.3012 195.675 95.8372 202.41 97.8529C209.146 99.8687 216.522 111.801 219.831 126.405L195.99 131.724L193.089 125.921L166.404 122.563L153.191 128.868L148.307 109.927C148.307 109.927 160.001 105.322 165.007 103.278C170.013 101.234 177.887 99.6897 179.878 99.5717C181.87 99.4558 182.543 99.2971 182.543 99.2971V99.3012Z" fill="#FF3D00"/>
<path d="M206.158 137.044C206.124 137.044 206.087 137.038 206.053 137.026L198.628 134.451C198.459 134.392 198.37 134.207 198.429 134.038C198.488 133.869 198.673 133.779 198.842 133.838L206.266 136.414C206.435 136.473 206.525 136.658 206.466 136.827C206.419 136.961 206.293 137.044 206.158 137.044Z" fill="#0C0C0C"/>
<path d="M148.619 111.137L139.846 112.488L122.446 93.2903L119.814 82.9979C119.664 82.2249 118.917 81.7185 118.144 81.869C117.528 81.989 117.084 82.4873 117.003 83.0752L116.804 82.5606C116.482 81.7307 115.547 81.3177 114.717 81.6412C114.247 81.8242 113.911 82.2026 113.767 82.648L113.738 82.5748C113.395 81.69 112.4 81.2506 111.515 81.5944C110.785 81.8771 110.36 82.6053 110.427 83.3498L108.517 77.4001C108.259 76.5946 107.396 76.1512 106.591 76.4095C105.785 76.6679 105.342 77.5303 105.6 78.3358L108.267 86.6429C107.378 87.4789 106.194 89.0737 106.747 91.3254C107.52 94.4741 110.994 96.7828 113.24 97.9788C119.552 108.125 130.044 124.65 132.857 127.025C139.709 132.812 154.037 125.545 154.037 125.545L148.617 111.137H148.619Z" fill="white" stroke="#0C0C0C" stroke-miterlimit="10"/>
<path d="M217.002 123.776L197.082 126.613L198.734 134.147L170.174 123.332C169.82 123.167 169.435 123.023 169.027 122.899L169.014 122.895C165.746 121.902 160.947 122.13 158.425 122.274C155.063 122.468 151.001 123.609 148.942 124.321C147.598 124.784 144.965 126.162 145.102 127.325C145.155 127.779 146.078 129.656 148.116 128.371C148.737 127.978 151.021 127.295 152.372 126.857L148.564 130.24C147.929 130.803 147.974 131.743 148.663 132.351C148.926 132.583 149.245 132.734 149.579 132.803C149.052 133.36 149.123 134.214 149.762 134.78C150.37 135.317 151.291 135.412 151.942 135.032C151.928 135.421 152.099 135.823 152.451 136.135C153.079 136.688 154.058 136.751 154.68 136.279L159.778 132.408C159.804 132.422 159.833 132.439 159.861 132.453C162.269 134.385 164.285 134.865 165.758 134.825C170.074 137.459 179.528 143.038 188.877 147.308C208.107 156.089 218.149 152.885 220.407 147.31C222.665 141.734 217.002 123.778 217.002 123.778V123.776Z" fill="white" stroke="#0C0C0C" stroke-miterlimit="10"/>
<path d="M176.447 78.603C177.734 79.199 178.363 80.5781 177.85 81.6866C177.338 82.7952 175.879 83.2081 174.592 82.6142C173.304 82.0182 172.676 80.6391 173.188 79.5305C173.701 78.424 175.159 78.009 176.447 78.603Z" fill="#0C0C0C"/>
<path d="M183.924 98.9658L182.333 93.9336C183.519 93.2949 184.424 92.231 185.126 90.4675C186.774 86.3322 184.337 81.6213 180.745 80.1975C176.011 78.32 173.188 80.7284 171.553 84.8697C169.443 90.2132 170.613 94.8631 175.806 94.8794C175.875 94.8794 175.942 94.8794 176.009 94.8794L175.832 94.9628L177.203 99.9544C176.424 100.095 175.542 100.27 174.594 100.475C174.134 102.186 174.148 104.486 177.452 104.639C182.779 104.887 185.315 100.687 186.284 98.4594C185.348 98.6445 184.544 98.8214 183.922 98.9658H183.924Z" fill="white" stroke="#0C0C0C" stroke-linecap="round" stroke-linejoin="round"/>
<path d="M182.038 89.9081C183.22 87.2537 178.013 79.3757 179.992 78.8977C181.971 78.4217 186.208 79.5486 187.797 84.048C189.866 89.9081 185.968 93.7647 182.529 94.5438C182.529 94.5438 180.954 92.3429 182.038 89.9081Z" fill="#0C0C0C"/>
<path d="M176.333 77.4312C176.949 76.5016 178.597 76.5077 180.01 77.4474C181.426 78.3851 185.059 79.7154 184.443 80.645C183.826 81.5746 179.193 81.7536 177.777 80.8138C176.361 79.8761 175.715 78.3607 176.333 77.4312Z" fill="#0C0C0C"/>
<path d="M178.052 78.859C179.117 78.3159 180.466 78.8204 181.06 79.9879C181.654 81.1555 181.272 82.5427 180.206 83.0858C179.14 83.6289 177.791 83.1245 177.197 81.9569C176.603 80.7894 176.986 79.4021 178.052 78.859Z" fill="#0C0C0C"/>
<path d="M179.988 81.9518C181.546 81.1565 183.422 81.7159 184.178 83.1967C184.933 84.6795 184.282 86.5244 182.724 87.3177C181.166 88.113 179.29 87.5537 178.534 86.0729C177.779 84.59 178.43 82.7451 179.988 81.9518Z" fill="#0C0C0C"/>
<path d="M179.64 88.0846C180.399 86.9414 181.845 86.5651 182.868 87.2445C183.893 87.9239 184.107 89.4026 183.348 90.5458C182.59 91.6889 181.143 92.0652 180.12 91.3858C179.095 90.7065 178.882 89.2277 179.64 88.0846Z" fill="white"/>
<path d="M170.528 137.824H111.499C111.27 137.824 111.084 138.01 111.084 138.239V142.663C111.084 142.892 111.27 143.078 111.499 143.078H170.528C170.757 143.078 170.943 142.892 170.943 142.663V138.239C170.943 138.01 170.757 137.824 170.528 137.824Z" fill="#0C0C0C"/>
<path d="M151.904 142.805H111.712C111.198 142.805 110.736 142.526 110.545 142.103L93.6255 104.579C93.294 103.844 93.9022 103.043 94.7931 103.043H134.984C135.499 103.043 135.961 103.322 136.152 103.745L153.071 141.269C153.403 142.004 152.795 142.805 151.904 142.805Z" fill="#0C0C0C"/>
<path d="M221.446 145.379H170.222C166.42 145.379 163.337 148.462 163.337 152.264V165.88C163.337 169.683 166.42 172.766 170.222 172.766H221.446C225.249 172.766 228.332 169.683 228.332 165.88V152.264C228.332 148.462 225.249 145.379 221.446 145.379Z" fill="white" stroke="#0C0C0C" stroke-miterlimit="10"/>
<path d="M198.734 134.148L206.466 136.829" stroke="#0C0C0C" stroke-linecap="round" stroke-linejoin="round"/>
<path d="M218.998 126.589L195.99 131.723L194.465 124.26L216.955 121.449L218.998 126.589Z" fill="#FF3D00"/>
<path d="M182.185 88.4219L180.678 89.7298" stroke="#0C0C0C" stroke-linecap="round" stroke-linejoin="round"/>
<path d="M181.495 89.0195L182.038 89.9104" stroke="#0C0C0C" stroke-linecap="round" stroke-linejoin="round"/>
<path d="M66.546 62.9961H80.4163" stroke="#0C0C0C" stroke-linecap="round" stroke-linejoin="round"/>
<path d="M145.976 62.9961H159.847" stroke="#0C0C0C" stroke-linecap="round" stroke-linejoin="round"/>
<path d="M112.949 65.632C114.461 65.632 115.687 64.4062 115.687 62.8941C115.687 61.382 114.461 60.1562 112.949 60.1562C111.437 60.1562 110.211 61.382 110.211 62.8941C110.211 64.4062 111.437 65.632 112.949 65.632Z" fill="white" stroke="#0C0C0C" stroke-linecap="round" stroke-linejoin="round"/>
<path d="M112.949 16.2539V30.1954" stroke="#0C0C0C" stroke-linecap="round" stroke-linejoin="round"/>
<path d="M108.102 86.1289L109.355 90.4005" stroke="#0C0C0C" stroke-linecap="round" stroke-linejoin="round"/>
<path d="M110.11 82.3672L112.064 88.4043" stroke="#0C0C0C" stroke-linecap="round" stroke-linejoin="round"/>
<path d="M113.757 82.6172L114.997 87.621" stroke="#0C0C0C" stroke-linecap="round" stroke-linejoin="round"/>
<path d="M117.003 83.0742L117.709 87.1078" stroke="#0C0C0C" stroke-linecap="round" stroke-linejoin="round"/>
<path d="M121.511 219.453H165.137" stroke="#0C0C0C" stroke-miterlimit="10"/>
<path d="M129.72 206.586V219.453" stroke="#0C0C0C" stroke-miterlimit="10"/>
<path d="M130.786 204.285L134.675 208.174" stroke="#0C0C0C" stroke-linecap="round" stroke-linejoin="round"/>
<path d="M133.526 203.039L137.415 206.928" stroke="#0C0C0C" stroke-linecap="round" stroke-linejoin="round"/>
<path d="M41.9744 185.113L57.2055 221.033" stroke="#0C0C0C" stroke-linecap="round" stroke-linejoin="round"/>
<path d="M45.054 192.376L55.3219 187.984" stroke="#0C0C0C" stroke-linecap="round" stroke-linejoin="round"/>
<path d="M57.8727 196.434L60.5597 191.418" stroke="#0C0C0C" stroke-linecap="round" stroke-linejoin="round"/>
<path d="M59.2172 197.832L61.9042 192.816" stroke="#0C0C0C" stroke-linecap="round" stroke-linejoin="round"/>
<path d="M192.339 120.461L195.99 131.726L218.216 126.767" stroke="#0C0C0C" stroke-linecap="round" stroke-linejoin="round"/>
<path d="M189.55 121.258L193.559 124.516" stroke="#0C0C0C" stroke-linecap="round" stroke-linejoin="round"/>
<path d="M194.79 110.158C194.79 110.158 195.435 103.411 202.467 98.6875" stroke="#0C0C0C" stroke-linecap="round" stroke-linejoin="round"/>
<path d="M167.538 111.625C167.538 111.625 166.215 118.846 166.382 122.357" stroke="#0C0C0C" stroke-linecap="round" stroke-linejoin="round"/>
<path d="M107.297 169.285C107.297 169.285 121.629 190.749 123.431 192.762" stroke="#0C0C0C" stroke-linecap="round" stroke-linejoin="round"/>
<path d="M135.003 161.434L148.128 180.887" stroke="#0C0C0C" stroke-linecap="round" stroke-linejoin="round"/>
<path d="M141.774 171.456L165.359 170.754" stroke="#0C0C0C" stroke-linecap="round" stroke-linejoin="round"/>
<path d="M150.799 128.234L155.046 124.52" stroke="#0C0C0C" stroke-linecap="round" stroke-linejoin="round"/>
<path d="M149.579 132.801L156.877 126.914" stroke="#0C0C0C" stroke-linecap="round" stroke-linejoin="round"/>
<path d="M152.697 136.347C152.697 136.347 150.763 135.245 152.923 133.532C155.083 131.819 158.392 128.805 158.392 128.805" stroke="#0C0C0C" stroke-linecap="round" stroke-linejoin="round"/>
<path d="M146.585 85.2266L152.022 88.774" stroke="#0C0C0C" stroke-linecap="round" stroke-linejoin="round"/>
<path d="M131.282 98.8711L133.959 104.121" stroke="#0C0C0C" stroke-linecap="round" stroke-linejoin="round"/>
<path d="M148.907 44.5815L154.686 41.5508" stroke="#0C0C0C" stroke-linecap="round" stroke-linejoin="round"/>
<path d="M135.261 29.2842L138.808 23.8594" stroke="#0C0C0C" stroke-linecap="round" stroke-linejoin="round"/>
<path d="M94.6161 26.9577L91.746 21.2969" stroke="#0C0C0C" stroke-linecap="round" stroke-linejoin="round"/>
<path d="M79.3158 40.606L74.131 37.0586" stroke="#0C0C0C" stroke-linecap="round" stroke-linejoin="round"/>
<path d="M76.9929 81.25L71.4196 84.0997" stroke="#0C0C0C" stroke-linecap="round" stroke-linejoin="round"/>
<path d="M90.6395 96.5508L87.09 101.75" stroke="#0C0C0C" stroke-linecap="round" stroke-linejoin="round"/>
</g>
<defs>
<clipPath id="clip0_6587_33333">
<rect width="208" height="208" fill="white" transform="translate(33 16)"/>
</clipPath>
</defs>
</svg>
