<svg width="24" height="24" viewBox="0 0 24 24" fill="none" xmlns="http://www.w3.org/2000/svg">
<circle cx="12" cy="12" r="10" fill="#DB110A"/>
<path fill-rule="evenodd" clip-rule="evenodd" d="M12 16C11.5858 16 11.25 15.6642 11.25 15.25L11.25 5.75C11.25 5.33579 11.5858 5 12 5C12.4142 5 12.75 5.33579 12.75 5.75V15.25C12.75 15.6642 12.4142 16 12 16ZM13.125 17.875C13.125 18.4963 12.6213 19 12 19C11.3787 19 10.875 18.4963 10.875 17.875C10.875 17.2537 11.3787 16.75 12 16.75C12.6213 16.75 13.125 17.2537 13.125 17.875Z" fill="white"/>
</svg>
