<svg width="100" height="90" viewBox="0 0 100 90" fill="none" xmlns="http://www.w3.org/2000/svg">
<path d="M75.8694 55.9805L75.865 55.9847C75.0556 56.7506 74.601 57.9409 74.8267 59.0893C74.827 59.0908 74.8273 59.0923 74.8276 59.0938L79.7159 86.1673C79.9352 87.3816 78.6761 88.3265 77.5714 87.7766L51.7567 74.9272C51.2353 74.6471 50.6468 74.51 50.0636 74.51H49.9364C49.3532 74.51 48.7646 74.6471 48.2433 74.9272L22.4286 87.7766C21.3239 88.3265 20.0648 87.3816 20.2841 86.1673L25.1724 59.0938C25.1727 59.0923 25.173 59.0909 25.1733 59.0894C25.3977 57.9487 25.014 56.8165 24.135 55.9847L24.135 55.9846L24.1306 55.9805L3.45151 36.8817C2.52038 36.0217 3.00949 34.4661 4.26522 34.2937L32.9499 30.3557C34.1813 30.2166 35.2243 29.5244 35.7512 28.4604L48.6694 3.63957C49.2298 2.56291 50.7702 2.56291 51.3306 3.63957L51.7741 3.40873L51.3306 3.63957L64.2511 28.465L64.2584 28.479L64.2666 28.4926C64.8417 29.4449 65.8564 30.2127 67.0484 30.3555C67.05 30.3557 67.0516 30.3559 67.0532 30.3561L95.7348 34.2937C96.9905 34.4661 97.4796 36.0217 96.5485 36.8817L75.8694 55.9805Z" stroke="#A4A4A6"/>
<path d="M55.4307 52.78C55.5707 52.78 55.6807 52.82 55.7607 52.9C55.8407 52.98 55.8807 53.09 55.8807 53.23V54.91C55.8807 55.05 55.8407 55.16 55.7607 55.24C55.6807 55.32 55.5707 55.36 55.4307 55.36H54.2907C54.1907 55.36 54.1407 55.41 54.1407 55.51V60.55C54.1407 60.69 54.1007 60.8 54.0207 60.88C53.9407 60.96 53.8307 61 53.6907 61H51.7107C51.5707 61 51.4607 60.96 51.3807 60.88C51.3007 60.8 51.2607 60.69 51.2607 60.55V55.51C51.2607 55.41 51.2107 55.36 51.1107 55.36H42.1707C42.0307 55.36 41.9207 55.32 41.8407 55.24C41.7607 55.16 41.7207 55.05 41.7207 54.91V53.56C41.7207 53.36 41.7607 53.17 41.8407 52.99L47.6607 40.33C47.7607 40.11 47.9307 40 48.1707 40H50.2707C50.5307 40 50.6607 40.1 50.6607 40.3L50.6007 40.54L45.0807 52.6C45.0607 52.64 45.0607 52.68 45.0807 52.72C45.1007 52.76 45.1307 52.78 45.1707 52.78H51.1107C51.2107 52.78 51.2607 52.73 51.2607 52.63V48.34C51.2607 48.2 51.3007 48.09 51.3807 48.01C51.4607 47.93 51.5707 47.89 51.7107 47.89H53.6907C53.8307 47.89 53.9407 47.93 54.0207 48.01C54.1007 48.09 54.1407 48.2 54.1407 48.34V52.63C54.1407 52.73 54.1907 52.78 54.2907 52.78H55.4307Z" fill="#0C0C0C"/>
</svg>
