<svg width="100" height="90" viewBox="0 0 100 90" fill="none" xmlns="http://www.w3.org/2000/svg">
<path d="M75.8694 55.9805L75.865 55.9847C75.0556 56.7506 74.601 57.9409 74.8267 59.0893C74.827 59.0908 74.8273 59.0923 74.8276 59.0938L79.7159 86.1673C79.9352 87.3816 78.6761 88.3265 77.5714 87.7766L51.7567 74.9272C51.2353 74.6471 50.6468 74.51 50.0636 74.51H49.9364C49.3532 74.51 48.7646 74.6471 48.2433 74.9272L22.4286 87.7766C21.3239 88.3265 20.0648 87.3816 20.2841 86.1673L25.1724 59.0938C25.1727 59.0923 25.173 59.0909 25.1733 59.0894C25.3977 57.9487 25.014 56.8165 24.135 55.9847L24.135 55.9846L24.1306 55.9805L3.45151 36.8817C2.52038 36.0217 3.00949 34.4661 4.26522 34.2937L32.9499 30.3557C34.1813 30.2166 35.2243 29.5244 35.7512 28.4604L48.6694 3.63957C49.2298 2.56291 50.7702 2.56291 51.3306 3.63957L51.7741 3.40873L51.3306 3.63957L64.2511 28.465L64.2584 28.479L64.2666 28.4926C64.8417 29.4449 65.8564 30.2127 67.0484 30.3555C67.05 30.3557 67.0516 30.3559 67.0532 30.3561L95.7348 34.2937C96.9905 34.4661 97.4796 36.0217 96.5485 36.8817L75.8694 55.9805Z" stroke="#A4A4A6"/>
<path d="M43.4108 61C43.2708 61 43.1608 60.96 43.0808 60.88C43.0008 60.8 42.9608 60.69 42.9608 60.55V58.99C42.9608 58.77 43.0308 58.58 43.1708 58.42C44.2708 57.18 45.4208 55.84 46.6208 54.4C47.8208 52.96 48.5908 52.04 48.9308 51.64C48.9708 51.6 49.2808 51.23 49.8608 50.53C51.7208 48.31 52.6508 46.59 52.6508 45.37C52.6508 44.43 52.3308 43.68 51.6908 43.12C51.0708 42.54 50.2408 42.25 49.2008 42.25C48.1608 42.25 47.3308 42.54 46.7108 43.12C46.0908 43.7 45.7908 44.46 45.8108 45.4V46.15C45.8108 46.29 45.7708 46.4 45.6908 46.48C45.6108 46.56 45.5008 46.6 45.3608 46.6H43.3508C43.2108 46.6 43.1008 46.56 43.0208 46.48C42.9408 46.4 42.9008 46.29 42.9008 46.15V45.01C42.9408 43.97 43.2308 43.05 43.7708 42.25C44.3308 41.45 45.0808 40.84 46.0208 40.42C46.9608 39.98 48.0208 39.76 49.2008 39.76C50.4808 39.76 51.6008 40 52.5608 40.48C53.5208 40.96 54.2608 41.62 54.7808 42.46C55.3008 43.3 55.5608 44.25 55.5608 45.31C55.5608 46.97 54.6608 48.93 52.8608 51.19C51.7208 52.65 49.7208 55.03 46.8608 58.33C46.8208 58.37 46.8108 58.41 46.8308 58.45C46.8508 58.49 46.8908 58.51 46.9508 58.51H55.6808C55.8208 58.51 55.9308 58.55 56.0108 58.63C56.0908 58.71 56.1308 58.82 56.1308 58.96V60.55C56.1308 60.69 56.0908 60.8 56.0108 60.88C55.9308 60.96 55.8208 61 55.6808 61H43.4108Z" fill="#0C0C0C"/>
</svg>
