<svg width="48" height="48" viewBox="0 0 48 48" fill="none" xmlns="http://www.w3.org/2000/svg">
<path d="M40.4193 10.2198L35.9341 14.7049C35.4457 15.1933 35.4457 15.9852 35.9341 16.4735C36.4225 16.9619 37.2143 16.9619 37.7027 16.4735L42.1879 11.9884C42.6763 11.5 42.6763 10.7082 42.1879 10.2198C41.6995 9.73138 40.9077 9.73138 40.4193 10.2198Z" fill="#42E8B4"/>
<path d="M34.8624 4.28895L32.7795 7.79783C32.4332 8.37815 31.6909 8.58058 31.0971 8.25219C30.4808 7.9103 30.2693 7.12755 30.6292 6.52024L32.7121 3.01136C33.0585 2.43105 33.8007 2.22861 34.3945 2.55701C35.0108 2.8989 35.2223 3.68165 34.8624 4.28895Z" fill="#42E8B4"/>
<path d="M7.83115 10.2158C7.34276 9.7274 6.55092 9.7274 6.06253 10.2158C5.57414 10.7042 5.57414 11.496 6.06253 11.9844L10.5477 16.4696C11.0361 16.958 11.8279 16.958 12.3163 16.4696C12.8047 15.9812 12.8047 15.1893 12.3163 14.7009L7.83115 10.2158Z" fill="#42E8B4"/>
<path d="M15.5408 3.01136L17.6236 6.52024C17.9835 7.12755 17.7721 7.9103 17.1558 8.25219C16.5664 8.58058 15.8197 8.37815 15.4733 7.79783L13.3905 4.28895C13.0306 3.68165 13.242 2.8989 13.8583 2.55701C14.4476 2.22861 15.1944 2.43105 15.5408 3.01136Z" fill="#42E8B4"/>
<path d="M34.8487 45.5956C34.4349 45.5956 34.0255 45.4922 33.6611 45.3032L23.9757 40.2109L14.2903 45.3032C13.4356 45.7486 12.3829 45.6721 11.6092 45.1098C10.8219 44.5385 10.435 43.5848 10.597 42.6221L12.4504 31.8346L4.60941 24.1915C3.91213 23.5122 3.66471 22.509 3.96612 21.5823C4.26752 20.6511 5.05477 19.9898 6.02196 19.8504L16.85 18.2759L21.6949 8.46453C22.1178 7.60081 23.013 7.04749 23.9802 7.04749C24.9474 7.04749 25.8381 7.60531 26.2655 8.46903L31.1104 18.2804L41.9385 19.8549C42.9056 19.9943 43.6929 20.6601 43.9943 21.5868C44.2957 22.518 44.0483 23.5167 43.351 24.196L35.5145 31.8346L37.3634 42.6221C37.5254 43.5893 37.1385 44.543 36.3467 45.1143C35.9149 45.4292 35.3931 45.6001 34.8532 45.6001L34.8487 45.5956ZM23.9802 37.7097L34.6958 43.3464C34.7857 43.3959 34.8982 43.4273 35.0422 43.3239C35.1501 43.2474 35.1996 43.1214 35.1771 42.9955L33.1303 31.0653L41.799 22.6125C41.889 22.5225 41.9205 22.3921 41.8845 22.2706C41.844 22.1492 41.7405 22.0637 41.6146 22.0457L29.6349 20.3047L24.2771 9.44522C24.1646 9.22029 23.7913 9.22029 23.6833 9.44522L18.3255 20.3047L6.34585 22.0457C6.21989 22.0637 6.11643 22.1492 6.07594 22.2706C6.03545 22.3921 6.06694 22.5225 6.16141 22.6125L14.8346 31.0653L12.7878 43C12.7653 43.1259 12.8193 43.2474 12.9183 43.3239C13.0217 43.4004 13.1567 43.4093 13.2691 43.3509L23.9847 37.7142L23.9802 37.7097Z" fill="#002EFF"/>
</svg>
