<svg width="100" height="90" viewBox="0 0 100 90" fill="none" xmlns="http://www.w3.org/2000/svg">
<path d="M75.8694 55.9805L75.865 55.9847C75.0556 56.7506 74.601 57.9409 74.8267 59.0893C74.827 59.0908 74.8273 59.0923 74.8276 59.0938L79.7159 86.1673C79.9352 87.3816 78.6761 88.3265 77.5714 87.7766L51.7567 74.9272C51.2353 74.6471 50.6468 74.51 50.0636 74.51H49.9364C49.3532 74.51 48.7646 74.6471 48.2433 74.9272L22.4286 87.7766C21.3239 88.3265 20.0648 87.3816 20.2841 86.1673L25.1724 59.0938C25.1727 59.0923 25.173 59.0909 25.1733 59.0894C25.3977 57.9487 25.014 56.8165 24.135 55.9847L24.135 55.9846L24.1306 55.9805L3.45151 36.8817C2.52038 36.0217 3.00949 34.4661 4.26522 34.2937L32.9499 30.3557C34.1813 30.2166 35.2243 29.5244 35.7512 28.4604L48.6694 3.63957C49.2298 2.56291 50.7702 2.56291 51.3306 3.63957L51.7741 3.40873L51.3306 3.63957L64.2511 28.465L64.2584 28.479L64.2666 28.4926C64.8417 29.4449 65.8564 30.2127 67.0484 30.3555C67.05 30.3557 67.0516 30.3559 67.0532 30.3561L95.7348 34.2937C96.9905 34.4661 97.4796 36.0217 96.5485 36.8817L75.8694 55.9805Z" stroke="#A4A4A6"/>
<path d="M54.5291 51.04C54.9291 52 55.1291 53.13 55.1291 54.43C55.1291 55.39 54.9691 56.37 54.6491 57.37C54.2091 58.59 53.4791 59.54 52.4591 60.22C51.4591 60.9 50.2291 61.24 48.7691 61.24C47.3291 61.24 46.0791 60.87 45.0191 60.13C43.9791 59.37 43.2491 58.36 42.8291 57.1C42.6091 56.42 42.4791 55.68 42.4391 54.88C42.4391 54.58 42.5891 54.43 42.8891 54.43H44.8991C45.1991 54.43 45.3491 54.58 45.3491 54.88C45.4491 55.62 45.5291 56.1 45.5891 56.32C45.7891 57.06 46.1691 57.65 46.7291 58.09C47.2891 58.51 47.9691 58.72 48.7691 58.72C49.5291 58.72 50.1591 58.55 50.6591 58.21C51.1791 57.87 51.5591 57.37 51.7991 56.71C52.0791 55.99 52.2191 55.21 52.2191 54.37C52.2191 53.29 52.0491 52.38 51.7091 51.64C51.1891 50.36 50.1991 49.72 48.7391 49.72C48.3991 49.72 48.0491 49.81 47.6891 49.99C47.6291 50.03 47.5391 50.05 47.4191 50.05C47.2991 50.05 47.1791 49.99 47.0591 49.87L46.0991 48.7C46.0191 48.6 45.9791 48.5 45.9791 48.4C45.9791 48.32 46.0291 48.21 46.1291 48.07L51.1691 42.7C51.2691 42.58 51.2491 42.52 51.1091 42.52H43.1591C43.0191 42.52 42.9091 42.48 42.8291 42.4C42.7491 42.32 42.7091 42.21 42.7091 42.07V40.45C42.7091 40.31 42.7491 40.2 42.8291 40.12C42.9091 40.04 43.0191 40 43.1591 40H54.4991C54.6391 40 54.7491 40.04 54.8291 40.12C54.9091 40.2 54.9491 40.31 54.9491 40.45V42.19C54.9491 42.43 54.8791 42.62 54.7391 42.76L50.1491 47.77C50.1091 47.81 50.0991 47.85 50.1191 47.89C50.1391 47.93 50.1891 47.96 50.2691 47.98C52.3091 48.14 53.7291 49.16 54.5291 51.04Z" fill="#0C0C0C"/>
</svg>
