<svg width="100" height="90" viewBox="0 0 100 90" fill="none" xmlns="http://www.w3.org/2000/svg">
<path d="M75.8694 55.9805L75.865 55.9847C75.0556 56.7506 74.601 57.9409 74.8267 59.0893C74.827 59.0908 74.8273 59.0923 74.8276 59.0938L79.7159 86.1673C79.9352 87.3816 78.6761 88.3265 77.5714 87.7766L51.7567 74.9272C51.2353 74.6471 50.6468 74.51 50.0636 74.51H49.9364C49.3532 74.51 48.7646 74.6471 48.2433 74.9272L22.4286 87.7766C21.3239 88.3265 20.0648 87.3816 20.2841 86.1673L25.1724 59.0938C25.1727 59.0923 25.173 59.0909 25.1733 59.0894C25.3977 57.9487 25.014 56.8165 24.135 55.9847L24.135 55.9846L24.1306 55.9805L3.45151 36.8817C2.52038 36.0217 3.00949 34.4661 4.26522 34.2937L32.9499 30.3557C34.1813 30.2166 35.2243 29.5244 35.7512 28.4604L48.6694 3.63957C49.2298 2.56291 50.7702 2.56291 51.3306 3.63957L51.7741 3.40873L51.3306 3.63957L64.2511 28.465L64.2584 28.479L64.2666 28.4926C64.8417 29.4449 65.8564 30.2127 67.0484 30.3555C67.05 30.3557 67.0516 30.3559 67.0532 30.3561L95.7348 34.2937C96.9905 34.4661 97.4796 36.0217 96.5485 36.8817L75.8694 55.9805Z" stroke="#A4A4A6"/>
<path d="M49.0984 40.12C49.2584 40.04 49.4484 40 49.6684 40H51.7984C51.9384 40 52.0484 40.04 52.1284 40.12C52.2084 40.2 52.2484 40.31 52.2484 40.45V60.55C52.2484 60.69 52.2084 60.8 52.1284 60.88C52.0484 60.96 51.9384 61 51.7984 61H49.8184C49.6784 61 49.5684 60.96 49.4884 60.88C49.4084 60.8 49.3684 60.69 49.3684 60.55V42.97C49.3684 42.93 49.3484 42.9 49.3084 42.88C49.2684 42.84 49.2284 42.83 49.1884 42.85L46.2184 43.87C46.1784 43.89 46.1184 43.9 46.0384 43.9C45.8184 43.9 45.7084 43.77 45.7084 43.51V42.13C45.7084 41.91 45.8184 41.74 46.0384 41.62L49.0984 40.12Z" fill="#0C0C0C"/>
</svg>
