<svg width="100" height="90" viewBox="0 0 100 90" fill="none" xmlns="http://www.w3.org/2000/svg">
<path d="M75.8694 55.9805L75.865 55.9847C75.0556 56.7506 74.601 57.9409 74.8267 59.0893C74.827 59.0908 74.8273 59.0923 74.8276 59.0938L79.7159 86.1673C79.9352 87.3816 78.6761 88.3265 77.5714 87.7766L51.7567 74.9272C51.2353 74.6471 50.6468 74.51 50.0636 74.51H49.9364C49.3532 74.51 48.7646 74.6471 48.2433 74.9272L22.4286 87.7766C21.3239 88.3265 20.0648 87.3816 20.2841 86.1673L25.1724 59.0938C25.1727 59.0923 25.173 59.0909 25.1733 59.0894C25.3977 57.9487 25.014 56.8165 24.135 55.9847L24.135 55.9846L24.1306 55.9805L3.45151 36.8817C2.52038 36.0217 3.00949 34.4661 4.26522 34.2937L32.9499 30.3557C34.1813 30.2166 35.2243 29.5244 35.7512 28.4604L48.6694 3.63957C49.2298 2.56291 50.7702 2.56291 51.3306 3.63957L51.7741 3.40873L51.3306 3.63957L64.2511 28.465L64.2584 28.479L64.2666 28.4926C64.8417 29.4449 65.8564 30.2127 67.0484 30.3555C67.05 30.3557 67.0516 30.3559 67.0532 30.3561L95.7348 34.2937C96.9905 34.4661 97.4796 36.0217 96.5485 36.8817L75.8694 55.9805Z" stroke="#A4A4A6"/>
<path d="M55.1884 51.7C55.4084 52.58 55.5184 53.49 55.5184 54.43C55.5184 55.37 55.3984 56.24 55.1584 57.04C54.7784 58.32 54.0484 59.34 52.9684 60.1C51.9084 60.84 50.6384 61.21 49.1584 61.21C47.6984 61.21 46.4484 60.85 45.4084 60.13C44.3684 59.41 43.6384 58.43 43.2184 57.19C43.0584 56.67 42.9484 56.24 42.8884 55.9V55.84C42.8884 55.56 43.0384 55.42 43.3384 55.42H45.3784C45.6384 55.42 45.7984 55.56 45.8584 55.84C45.8984 56.08 45.9384 56.24 45.9784 56.32C46.1784 57.06 46.5584 57.65 47.1184 58.09C47.6784 58.51 48.3584 58.72 49.1584 58.72C49.9784 58.72 50.6684 58.49 51.2284 58.03C51.7884 57.57 52.1584 56.95 52.3384 56.17C52.4984 55.75 52.5784 55.19 52.5784 54.49C52.6184 53.95 52.5584 53.32 52.3984 52.6C52.2584 51.84 51.8984 51.26 51.3184 50.86C50.7384 50.44 50.0184 50.23 49.1584 50.23C48.4384 50.23 47.7884 50.38 47.2084 50.68C46.6484 50.96 46.2484 51.38 46.0084 51.94C45.8884 52.18 45.7084 52.3 45.4684 52.3H43.3384C43.1984 52.3 43.0884 52.26 43.0084 52.18C42.9284 52.1 42.8884 51.99 42.8884 51.85V40.45C42.8884 40.31 42.9284 40.2 43.0084 40.12C43.0884 40.04 43.1984 40 43.3384 40H54.2584C54.3984 40 54.5084 40.04 54.5884 40.12C54.6684 40.2 54.7084 40.31 54.7084 40.45V42.04C54.7084 42.18 54.6684 42.29 54.5884 42.37C54.5084 42.45 54.3984 42.49 54.2584 42.49H45.9184C45.8184 42.49 45.7684 42.54 45.7684 42.64L45.7384 48.85C45.7384 48.99 45.7984 49.02 45.9184 48.94C46.8784 48.12 48.0884 47.71 49.5484 47.71C50.9484 47.71 52.1484 48.06 53.1484 48.76C54.1684 49.46 54.8484 50.44 55.1884 51.7Z" fill="#0C0C0C"/>
</svg>
