<svg width="32" height="24" viewBox="0 0 32 24" fill="none" xmlns="http://www.w3.org/2000/svg">
<path fill-rule="evenodd" clip-rule="evenodd" d="M26.3787 2.08767C26.0071 1.83188 25.4258 1.87461 25.0903 2.17494L22.9537 4.10448C22.6176 4.40722 22.6459 4.86884 23.0115 5.13546C23.0115 5.13546 26.3119 7.517 26.3119 12.643C26.3119 17.5024 22.8326 20.3028 22.8326 20.3028C22.482 20.5844 22.467 21.0623 22.8031 21.3657L24.9234 23.2639C25.2589 23.5672 25.8408 23.604 26.2161 23.3584C26.2161 23.3584 31.2001 20.0187 31.2001 12.6604C31.2001 5.35333 26.3787 2.08767 26.3787 2.08767Z" fill="#0C0C0C"/>
<path fill-rule="evenodd" clip-rule="evenodd" d="M6.72502 13.8236C6.72502 13.8236 6.10538 13.7648 6.10538 14.2599C6.10538 17.0564 8.20903 19.0494 11.514 19.0494C13.9672 19.0494 15.0148 18.464 16.4964 17.3648C16.843 17.1073 17.2125 16.8673 17.4928 17.1703C17.6881 17.3775 20.2908 19.7583 20.2908 19.7583C20.6169 20.0613 20.5277 20.4231 20.1781 20.7133C19.8309 21.0048 15.9389 24 11.4664 24C5.61654 24 0 21.478 0 11.9797C0 4.32287 4.37787 0 10.8009 0C17.7001 0 21.6 4.7737 21.6 11.2114V12.8402C21.6 13.5043 21.0563 13.8236 20.6079 13.8236H6.72502ZM14.9391 7.29443C14.2737 5.90073 12.8964 4.86152 10.8012 4.86152C8.70837 4.86152 7.32925 5.90073 6.6632 7.29443C6.28285 8.15064 6.13759 8.78204 6.08997 9.8158H15.5118C15.4635 8.78204 15.3195 8.15064 14.9391 7.29443Z" fill="#0C0C0C"/>
<mask id="mask0_12899_796" style="mask-type:luminance" maskUnits="userSpaceOnUse" x="0" y="0" width="22" height="24">
<path fill-rule="evenodd" clip-rule="evenodd" d="M6.72502 13.8236C6.72502 13.8236 6.10538 13.7648 6.10538 14.2599C6.10538 17.0564 8.20903 19.0494 11.514 19.0494C13.9672 19.0494 15.0148 18.464 16.4964 17.3648C16.843 17.1073 17.2125 16.8673 17.4928 17.1703C17.6881 17.3775 20.2908 19.7583 20.2908 19.7583C20.6169 20.0613 20.5277 20.4231 20.1781 20.7133C19.8309 21.0048 15.9389 24 11.4664 24C5.61654 24 0 21.478 0 11.9797C0 4.32287 4.37787 0 10.8009 0C17.7001 0 21.6 4.7737 21.6 11.2114V12.8402C21.6 13.5043 21.0563 13.8236 20.6079 13.8236H6.72502ZM14.9391 7.29443C14.2737 5.90073 12.8964 4.86152 10.8012 4.86152C8.70837 4.86152 7.32925 5.90073 6.6632 7.29443C6.28285 8.15064 6.13759 8.78204 6.08997 9.8158H15.5118C15.4635 8.78204 15.3195 8.15064 14.9391 7.29443Z" fill="white"/>
</mask>
<g mask="url(#mask0_12899_796)">
</g>
</svg>
