<svg width="208" height="208" viewBox="0 0 208 208" fill="none" xmlns="http://www.w3.org/2000/svg">
<g clip-path="url(#clip0_6169_4550)">
<path d="M103.868 208.001C154.882 208.001 196.236 166.647 196.236 115.633C196.236 64.6193 154.882 23.2656 103.868 23.2656C52.8542 23.2656 11.5005 64.6193 11.5005 115.633C11.5005 166.647 52.8542 208.001 103.868 208.001Z" fill="#F3F5FF"/>
<path d="M150.713 195.271H108.224L105.919 188.572L100.495 188.836L99.6178 195.133H61.9203L61.2255 166.401L61.5417 166.391L142.098 163.684L150.713 195.271Z" fill="white" stroke="black" stroke-miterlimit="10"/>
<path d="M85.1034 53.9627C85.1034 53.9627 59.0501 57.5806 48.9057 67.7249C35.3879 81.2427 20.7536 130.843 21.2136 140.935C21.6736 151.022 34.6212 170.985 56.3379 157.261L56.5631 170.362L145.634 166.351L145.414 128.174C145.414 128.174 154.461 150.701 165.434 156.547C176.412 162.398 191.861 148.841 187.989 134.677C184.117 120.512 167.078 80.524 158.639 71.108C150.201 61.692 117.932 54.6144 117.932 54.6144L85.0986 53.9531V53.9627H85.1034Z" fill="#002EFF"/>
<path d="M97.5957 6.20078C97.5957 6.20078 104.175 2.43438 102.469 0.484097C100.763 -1.46619 94.2079 2.80815 92.5883 7.37957C92.5883 7.37957 88.5439 4.85906 87.2741 7.02498C86.0043 9.1861 89.6748 9.718 90.9159 9.53112C90.9159 9.53112 85.2232 11.9175 83.8144 19.6276C82.4056 27.3376 88.242 32.0385 88.242 32.0385L121.363 30.6632C121.363 30.6632 124.785 26.8537 122.719 18.0031C121.962 14.759 112.772 8.15106 112.772 8.15106L97.5957 6.21036V6.20078Z" fill="black"/>
<path d="M94.9122 43.3672C82.5684 43.3433 76.6361 51.5517 75.8359 55.7542C73.7083 66.9815 111.55 64.2453 111.55 64.2453C111.55 64.2453 131.57 66.9719 128.11 55.0354C124.732 43.3672 108.128 43.396 94.9074 43.3672H94.9122Z" fill="#002EFF"/>
<path d="M103.001 83.3872C103.399 83.3872 103.72 83.0662 103.72 82.6684V64.5313C103.72 64.1336 103.399 63.8125 103.001 63.8125C102.603 63.8125 102.282 64.1336 102.282 64.5313V82.6684C102.282 83.0662 102.603 83.3872 103.001 83.3872Z" fill="black"/>
<path d="M108.603 83.3872C109 83.3872 109.321 83.0662 109.321 82.6684V64.5313C109.321 64.1336 109 63.8125 108.603 63.8125C108.205 63.8125 107.884 64.1336 107.884 64.5313V82.6684C107.884 83.0662 108.205 83.3872 108.603 83.3872Z" fill="black"/>
<path d="M71.3316 129.098C74.2306 133.367 78.4571 135.557 80.7715 133.985C83.086 132.413 82.6116 127.679 79.7125 123.41C76.8134 119.14 72.6685 117.31 70.354 118.881C68.0396 120.453 68.4325 124.828 71.3316 129.098Z" fill="black"/>
<path d="M149.654 104.587C152.367 101.075 153.263 97.2222 151.657 95.9859C150.052 94.7496 146.554 96.5945 143.847 100.107C141.134 103.619 140.238 107.472 141.844 108.708C143.449 109.945 146.947 108.1 149.654 104.587Z" fill="black"/>
<path d="M126.903 26.2534C124.957 24.3079 123.189 25.2902 122.389 25.9467C121.636 15.855 113.768 7.91016 104.16 7.91016C94.5528 7.91016 86.675 15.8598 85.9275 25.9563L85.616 25.1752C85.616 25.1752 83.2968 22.4007 80.6469 25.0506C78.2989 27.3986 80.6469 30.9877 82.9086 31.534C84.0203 31.8023 85.2279 31.304 86.1192 30.7721C87.1159 37.1644 90.9877 42.5073 96.2683 45.2195V55.1722L105.387 60.4145L107.778 58.4211V46.7481C114.717 45.2579 120.232 39.5603 121.919 32.2384C122.734 32.6505 123.721 32.9572 124.646 32.732C126.907 32.1857 129.255 28.5918 126.907 26.2486H126.903V26.2534Z" fill="white" stroke="black" stroke-miterlimit="10"/>
<path d="M95.5352 11.9543C95.5352 11.9543 94.4522 18.6581 86.5601 22.1514L87.1111 15.4716L95.885 7.64167C95.885 7.64167 98.1707 4.28258 105.176 4.72822C112.177 5.17386 118.929 9.91301 123.63 13.0038C126.644 14.9828 130.468 17.8387 126.222 19.5446C122.906 20.8768 117.108 18.8115 114.751 16.4539C114.751 16.4539 119.317 19.4248 112.513 20.2395C105.79 21.0397 101.036 18.27 95.5304 11.9543H95.5352Z" fill="black"/>
<path d="M115.934 87.4847C114.842 88.0789 114.76 88.4479 115.163 89.1906C115.565 89.9333 116.298 90.7671 117.391 90.1777C118.483 89.5835 118.733 88.146 118.325 87.4032C117.923 86.6605 117.022 86.8953 115.929 87.4847H115.934Z" fill="black"/>
<path d="M136.764 81.5C136.764 81.5 132.202 82.0702 130.372 89.2293C128.537 96.3931 136.783 94.2703 136.783 94.2703L140.248 84.2314L136.764 81.5Z" fill="white"/>
<path d="M142.582 83.3867C142.582 83.3867 137.344 83.3436 135.605 90.2966C134.646 94.1253 136.592 95.0836 138.537 95.0741C140.454 95.0693 142.04 94.4847 143.137 93.0519C143.89 92.0696 143.76 89.712 141.963 89.8845L144.977 86.1181L142.582 83.3867Z" fill="white"/>
<path d="M141.331 92.208C141.369 92.208 141.403 92.1984 141.436 92.1745C141.527 92.117 141.551 91.9924 141.494 91.9013C141.235 91.5084 141.384 90.9621 141.551 90.574C142.002 89.5341 142.955 88.6476 143.205 88.5566C143.276 88.5806 143.353 88.5662 143.411 88.5087C143.487 88.432 143.487 88.3074 143.411 88.2308C143.195 88.0199 142.836 88.3122 142.701 88.4224C141.829 89.1316 140.435 91.0005 141.168 92.117C141.206 92.1745 141.269 92.208 141.331 92.208Z" fill="black"/>
<path d="M126.232 72.3516H83.9246C82.8847 72.3516 82.0414 73.1949 82.0414 74.2348V126.629C82.0414 127.669 82.8847 128.512 83.9246 128.512H126.232C127.272 128.512 128.115 127.669 128.115 126.629V74.2348C128.115 73.1949 127.272 72.3516 126.232 72.3516Z" fill="black"/>
<path d="M128.11 94.4506C128.264 94.4602 128.422 94.465 128.58 94.465C128.762 94.465 128.944 94.4602 129.136 94.4458C130.257 94.3692 131.134 94.0912 131.167 94.0769C131.273 94.0433 131.326 93.9331 131.297 93.8325C131.263 93.7271 131.153 93.6743 131.052 93.7031C131.028 93.7079 129.596 94.1583 128.115 94.0529V94.4458L128.11 94.4506Z" fill="black"/>
<path d="M128.11 82.3477V82.4004C128.417 82.0985 128.719 81.8445 129.006 81.6289C128.92 81.6864 128.834 81.7487 128.743 81.8158C128.518 81.9835 128.311 82.1656 128.11 82.3477Z" fill="white"/>
<path d="M124.555 88.7073C124.401 89.6082 124.363 90.4084 124.444 91.1032C124.411 90.4515 124.502 89.6705 124.746 88.7409C124.799 88.5396 124.857 88.3479 124.914 88.1562C124.813 88.2425 124.713 88.324 124.612 88.4102C124.593 88.5108 124.574 88.6115 124.555 88.7073Z" fill="#002EFF"/>
<path d="M125.46 93.4023C125.508 93.4503 125.556 93.4982 125.609 93.5413C126.222 94.0732 127.075 94.3847 128.115 94.4518V94.2553C127.161 94.2218 126.174 94.0061 125.465 93.4023H125.46Z" fill="#002EFF"/>
<path d="M125.46 93.4047C124.895 92.844 124.559 92.0773 124.444 91.1094C124.497 92.1923 124.89 92.9255 125.46 93.4047Z" fill="#002EFF"/>
<path d="M124.943 88.7724C124.986 88.5232 125.039 88.2644 125.096 87.9961C125.034 88.0488 124.976 88.1015 124.914 88.1542C124.857 88.3459 124.799 88.5376 124.746 88.7388C124.497 89.6685 124.411 90.4495 124.444 91.1012C124.555 92.0692 124.895 92.8359 125.46 93.3965C126.174 94.0003 127.161 94.2159 128.11 94.2495V94.053C127.305 93.9955 126.481 93.7799 125.863 93.2384C124.885 92.3902 124.574 90.8856 124.938 88.7676L124.943 88.7724Z" fill="#002EFF"/>
<path d="M125.652 86.1188C126.39 84.4273 127.267 83.2341 128.11 82.4004V82.3477C126.931 83.4354 126.155 84.7867 125.652 86.1188Z" fill="#002EFF"/>
<path d="M128.11 82.3474V81.8203C125.939 83.6604 125.005 86.3342 124.607 88.4091C124.708 88.3229 124.809 88.2462 124.909 88.1551C125.134 87.4028 125.384 86.7272 125.647 86.1186C126.15 84.7865 126.927 83.4352 128.105 82.3474H128.11Z" fill="#002EFF"/>
<path d="M151.303 95.3433C150.828 94.6102 147.8 89.5164 146.003 86.1957C143.602 81.7584 139.347 81.8974 135.528 81.0061C134.33 80.7282 126.141 80.2825 125.283 80.4263L125.652 94.2508V96.2873C129.006 98.482 134.09 99.9819 136.309 99.402C137.981 101.448 142.692 106.671 143.526 107.826C143.535 107.826 148.576 106.235 150.972 102.32C152.376 100.025 152.673 97.3943 151.298 95.3433H151.303Z" fill="white" stroke="black" stroke-miterlimit="10"/>
<path d="M128.11 82.4062C127.267 83.24 126.39 84.4332 125.652 86.1247C125.585 86.2972 125.527 86.4697 125.47 86.6375C125.489 86.5991 125.503 86.58 125.503 86.58L128.11 82.4062Z" fill="#002EFF"/>
<path d="M124.943 88.7728C124.579 90.886 124.89 92.3906 125.868 93.2436C126.486 93.7851 125.508 86.5781 125.508 86.5781C125.508 86.5781 125.499 86.5973 125.475 86.6356C125.321 87.1052 125.197 87.5652 125.096 88.0013C125.039 88.2696 124.986 88.5284 124.943 88.7776V88.7728Z" fill="#002EFF"/>
<path d="M125.096 88.0034C125.23 87.4044 125.412 86.7671 125.657 86.125C125.388 86.7384 125.139 87.414 124.919 88.1615C124.981 88.1088 125.039 88.0561 125.101 88.0034H125.096Z" fill="#002EFF"/>
<path d="M88.9177 105.6C88.9177 105.6 89.3825 92.6138 82.4918 98.1867C82.3385 98.3113 82.1899 98.4407 82.0414 98.5653V126.353L94.6248 117.963L88.9177 105.6Z" fill="#0022BF"/>
<path d="M75.7496 55.75C75.7496 55.75 83.8622 64.6053 100.605 66.9869C105.612 67.7009 110.725 67.399 115.57 65.9327C120.103 64.5574 125.317 62.0034 128.637 57.2451" stroke="black" stroke-linecap="round" stroke-linejoin="round"/>
<path d="M88.4337 50.8047L109.077 62.7124" stroke="black" stroke-linecap="round" stroke-linejoin="round"/>
<path d="M116.073 51.4023L105.387 60.4206" stroke="black" stroke-linecap="round" stroke-linejoin="round"/>
<path d="M41.6365 195.273H172.545" stroke="black" stroke-linecap="round" stroke-linejoin="round"/>
<path d="M44.0659 72.4805C44.0659 72.4805 47.1087 76.5871 54.3684 98.874" stroke="black" stroke-linecap="round" stroke-linejoin="round"/>
<path d="M35.9341 125.954C35.9341 125.954 58.3504 113.974 64.9871 122.925L70.1 119.082C70.1 119.082 66.7217 130.089 80.0671 134.335L74.1731 138.494C74.1731 138.494 71.3171 146.836 63.4777 152.692C55.2644 158.826 50.5492 160.23 50.5492 160.23" stroke="black" stroke-linecap="round" stroke-linejoin="round"/>
<path d="M39.274 118.57L43.6969 122.514" stroke="black" stroke-linecap="round" stroke-linejoin="round"/>
<path d="M64.9872 122.926C64.9872 122.926 62.1696 131.403 74.1731 138.495" stroke="black" stroke-linecap="round" stroke-linejoin="round"/>
<path d="M145.323 128.254C145.323 128.254 141.877 122.054 144.982 113.285L141.954 108.752C141.954 108.752 151.772 107.257 152.247 96.6953L156.286 102.148C156.286 102.148 170.063 101.391 181.999 126.381" stroke="black" stroke-linecap="round" stroke-linejoin="round"/>
<path d="M144.982 113.28C144.982 113.28 152.252 112.911 156.281 102.148" stroke="black" stroke-linecap="round" stroke-linejoin="round"/>
<path d="M152.242 96.695L151.303 95.3438" stroke="black" stroke-miterlimit="10"/>
<path d="M133.142 94.6094C133.142 94.6094 134.373 99.545 140.473 98.2943" stroke="black" stroke-linecap="round" stroke-linejoin="round"/>
<path d="M142.975 83.1523C142.975 83.1523 133.798 85.4764 135.993 93.1817C136.232 94.0299 136.927 94.6768 137.795 94.8397C138.753 95.0218 140.143 95.0218 141.81 94.2551C145.021 92.7696 143.593 89.353 141.959 89.8897" stroke="black" stroke-linecap="round" stroke-linejoin="round"/>
<path d="M136.764 81.2461C136.764 81.2461 131.23 82.4393 130.104 91.1029C130.104 91.1029 129.375 95.7175 136.635 94.4956" stroke="black" stroke-linecap="round" stroke-linejoin="round"/>
<path d="M131.436 80.7383C131.436 80.7383 125.901 81.9314 124.775 90.5951C124.775 90.5951 124.047 95.2097 131.306 93.9878" stroke="black" stroke-linecap="round" stroke-linejoin="round"/>
<path d="M141.494 91.9083C141.494 91.9083 140.789 89.5411 143.411 88.5156" stroke="black" stroke-linecap="round" stroke-linejoin="round"/>
<path d="M128.11 88.8747C128.11 86.934 128.153 84.6867 128.11 81.8211V75.2467C128.11 74.6956 127.665 74.25 127.114 74.25H83.0381C82.487 74.25 82.0414 74.6956 82.0414 75.2467V98.5639C82.1899 98.4345 82.3385 98.3099 82.4918 98.1853C89.3825 92.6124 88.9177 105.598 88.9177 105.598L94.6248 117.961L82.0414 126.352V127.511C82.0414 128.063 82.487 128.508 83.0381 128.508H127.114C127.665 128.508 128.11 128.063 128.11 127.511V88.87V88.8747Z" fill="#0022BF"/>
<path d="M91.9557 77.1641H85.458C84.7967 77.1641 84.26 77.7008 84.26 78.362V84.0356C84.26 84.6969 84.7967 85.2335 85.458 85.2335H91.9557C92.617 85.2335 93.1537 84.6969 93.1537 84.0356V78.362C93.1537 77.7008 92.617 77.1641 91.9557 77.1641Z" fill="black"/>
<path d="M82.0414 98.57C75.5436 104.133 74.2402 112.05 72.8698 115.236C71.6622 118.044 70.1001 119.084 70.1001 119.084C69.3861 127.613 75.1363 130.963 75.1363 130.963L80.6182 127.307L89.6125 123.718C92.1234 123.181 95.5927 122.127 99.0381 120.038C102.498 117.939 104.482 116.587 105.579 115.778C106.312 115.241 106.556 114.201 106.149 113.353C105.9 112.835 105.445 112.51 104.946 112.433C106.691 111.417 107.836 110.751 108.526 110.248C109.144 109.793 109.254 108.705 108.909 108C108.449 107.061 107.405 106.625 106.461 106.98C105.905 107.191 105.224 107.44 104.472 107.718C107.223 106.007 108.881 104.986 109.781 104.296C110.4 103.822 110.491 102.734 110.098 102.025C109.575 101.081 108.521 100.674 107.582 101.052C105.775 101.785 102.699 103.012 99.6898 104.129C102.939 102.126 104.736 101.014 105.656 100.305C106.178 99.907 106.288 98.939 105.948 98.3352C105.382 97.329 104.276 96.8929 103.279 97.2906C99.8144 98.6755 91.9701 101.752 88.6398 102.509C88.4768 102.547 88.3187 102.595 88.1654 102.648C88.1558 102.648 88.1462 102.648 88.1414 102.653C85.7359 103.386 83.5891 103.808 82.0414 104.047" fill="white"/>
<path d="M82.0414 98.57C75.5436 104.133 74.2402 112.05 72.8698 115.236C71.6622 118.044 70.1001 119.084 70.1001 119.084C69.3861 127.613 75.1363 130.963 75.1363 130.963L80.6182 127.307L89.6125 123.718C92.1234 123.181 95.5927 122.127 99.0381 120.038C102.498 117.939 104.482 116.587 105.579 115.778C106.312 115.241 106.557 114.201 106.149 113.353C105.9 112.835 105.445 112.51 104.946 112.433C106.691 111.417 107.836 110.751 108.526 110.248C109.144 109.793 109.254 108.705 108.909 108C108.449 107.061 107.405 106.625 106.461 106.98C105.905 107.191 105.224 107.44 104.472 107.718C107.223 106.007 108.881 104.986 109.781 104.296C110.4 103.822 110.491 102.734 110.098 102.025C109.575 101.081 108.521 100.674 107.582 101.052C105.775 101.785 102.699 103.012 99.6898 104.129C102.939 102.126 104.736 101.014 105.656 100.305C106.178 99.907 106.288 98.939 105.948 98.3352C105.382 97.329 104.276 96.8929 103.279 97.2906C99.8144 98.6755 91.9701 101.752 88.6398 102.509C88.4768 102.547 88.3187 102.595 88.1654 102.648C88.1558 102.648 88.1462 102.648 88.1414 102.653C85.7359 103.386 83.5891 103.808 82.0414 104.047" stroke="black" stroke-miterlimit="10"/>
<path d="M88.0312 79.6223C88.0312 80.3267 87.4178 80.8969 86.6655 80.8969C85.9132 80.8969 85.2998 80.3267 85.2998 79.6223C85.2998 78.9179 85.9132 78.3477 86.6655 78.3477C87.4178 78.3477 88.0312 78.9179 88.0312 79.6223Z" fill="white"/>
<path d="M92.2384 81.5051C92.2384 82.2095 91.6251 82.7797 90.8728 82.7797C90.1204 82.7797 89.5071 82.2095 89.5071 81.5051C89.5071 80.8007 90.1204 80.2305 90.8728 80.2305C91.6251 80.2305 92.2384 80.8007 92.2384 81.5051Z" fill="white"/>
<path d="M88.0312 83.0754C88.0312 83.7798 87.4178 84.35 86.6655 84.35C85.9132 84.35 85.2998 83.7798 85.2998 83.0754C85.2998 82.371 85.9132 81.8008 86.6655 81.8008C87.4178 81.8008 88.0312 82.371 88.0312 83.0754Z" fill="white"/>
<path d="M99.6897 104.129C99.6897 104.129 92.5019 108.432 88.6876 108.413" stroke="black" stroke-linecap="round" stroke-linejoin="round"/>
<path d="M104.472 107.715C104.472 107.715 94.5577 113.575 91.7065 113.939" stroke="black" stroke-linecap="round" stroke-linejoin="round"/>
<path d="M104.946 112.43C104.946 112.43 97.15 117.691 92.9188 117.945" stroke="black" stroke-linecap="round" stroke-linejoin="round"/>
<path d="M157.053 69.043L149.376 84.9423" stroke="black" stroke-linecap="round" stroke-linejoin="round"/>
<path d="M121.569 30.3554C121.862 30.0679 122.595 28.3908 125.733 27.5234" stroke="black" stroke-linecap="round" stroke-linejoin="round"/>
<path d="M122.657 29.1445L124.234 30.6396" stroke="black" stroke-linecap="round" stroke-linejoin="round"/>
<path d="M81.8209 26.3281C81.8209 26.3281 84.7919 26.999 85.985 29.1601" stroke="black" stroke-linecap="round" stroke-linejoin="round"/>
<path d="M83.3159 29.4404L84.8924 27.9453" stroke="black" stroke-linecap="round" stroke-linejoin="round"/>
</g>
<defs>
<clipPath id="clip0_6169_4550">
<rect width="208" height="208" fill="white"/>
</clipPath>
</defs>
</svg>
