<svg width="350" height="240" viewBox="0 0 350 240" fill="none" xmlns="http://www.w3.org/2000/svg">
<mask id="mask0_48_858" style="mask-type:alpha" maskUnits="userSpaceOnUse" x="0" y="0" width="350" height="240">
<rect width="350" height="240" rx="16" fill="#D9D9D9"/>
</mask>
<g mask="url(#mask0_48_858)">
<path d="M191.538 777.804C179.507 787.24 159.955 785.668 147.923 774.659L75.7331 705.46C65.2053 694.452 65.2053 678.725 77.2371 669.289C77.2371 669.289 188.53 584.363 188.53 400.359C188.53 227.363 71.2212 126.711 71.2212 126.711C59.1895 117.275 59.1895 99.9757 69.7172 88.9669L140.404 21.3413C150.931 10.3325 170.483 8.75977 184.019 18.1959C184.019 18.1959 350.959 137.72 350.959 400.359C353.967 659.852 191.538 777.804 191.538 777.804Z" fill="#FF3D00"/>
</g>
<g clip-path="url(#clip0_48_858)">
<path d="M103.09 109.638C128.905 109.638 149.833 88.711 149.833 62.8955C149.833 37.0801 128.905 16.1526 103.09 16.1526C77.2742 16.1526 56.3467 37.0801 56.3467 62.8955C56.3467 88.711 77.2742 109.638 103.09 109.638Z" stroke="#0C0C0C" stroke-miterlimit="10"/>
<path d="M91.8395 86.5782L102.95 62.8955L77.7861 34.6321" stroke="#0C0C0C" stroke-linecap="round" stroke-linejoin="round"/>
<path d="M104.19 95.7009V109.64" stroke="#0C0C0C" stroke-linecap="round" stroke-linejoin="round"/>
<path d="M225.044 224C224.639 224 224.261 223.746 224.123 223.343L206.888 173.083C206.713 172.575 206.984 172.021 207.494 171.846C208.003 171.67 208.556 171.942 208.731 172.453L225.966 222.712C226.141 223.221 225.87 223.774 225.36 223.949C225.256 223.986 225.148 224.002 225.044 224.002V224Z" fill="#0C0C0C"/>
<path d="M192.167 224C191.763 224 191.384 223.746 191.246 223.343L174.011 173.083C173.836 172.575 174.107 172.021 174.617 171.846C175.126 171.67 175.679 171.942 175.854 172.453L193.089 222.712C193.264 223.221 192.993 223.774 192.483 223.949C192.379 223.986 192.271 224.002 192.167 224.002V224Z" fill="#0C0C0C"/>
<path d="M143.885 224C143.781 224 143.673 223.984 143.569 223.947C143.061 223.772 142.79 223.219 142.963 222.71L160.198 172.45C160.373 171.942 160.926 171.667 161.435 171.844C161.943 172.019 162.214 172.573 162.041 173.081L144.806 223.341C144.668 223.746 144.29 223.998 143.885 223.998V224Z" fill="#0C0C0C"/>
<path d="M207.871 104.352H167.415C161.638 104.352 156.954 109.035 156.954 114.813V162.307C156.954 168.084 161.638 172.768 167.415 172.768H207.871C213.649 172.768 218.332 168.084 218.332 162.307V114.813C218.332 109.035 213.649 104.352 207.871 104.352Z" fill="white" stroke="#0C0C0C" stroke-miterlimit="10"/>
<path d="M48.6006 200.911L55.7361 214.442L74.2441 206.051L64.5091 190.908C55.8398 196.294 48.6006 200.911 48.6006 200.911Z" fill="white" stroke="#0C0C0C" stroke-miterlimit="10"/>
<path d="M59.2573 213.702L43.9286 223.026L28.0547 186.585L34.9217 183.711C38.1742 182.32 41.927 183.195 43.7496 185.766L52.1645 197.638C52.1645 197.638 51.9815 206.902 54.2535 210.99C56.5256 215.079 59.2573 213.702 59.2573 213.702Z" fill="white" stroke="#0C0C0C" stroke-miterlimit="10"/>
<path d="M133.265 208.889L148.837 207.715L136.541 188.914L118.396 191.868C119.889 202.193 133.265 208.889 133.265 208.889Z" fill="white" stroke="#0C0C0C" stroke-miterlimit="10"/>
<path d="M147.9 204.284L156.667 222.287L111.466 222.312L111.586 214.7C111.614 211.082 113.966 207.921 117.119 207.26L125.855 204.996C125.855 204.996 140.254 208.159 145.008 207.695C149.761 207.231 147.902 204.282 147.902 204.282L147.9 204.284Z" fill="white" stroke="#0C0C0C" stroke-miterlimit="10"/>
<path d="M165.877 167.19L72.0411 212.302L55.8438 192.089L144.037 144.35L165.877 167.19Z" fill="#002EFF"/>
<path d="M167.297 137.117C167.297 137.117 115.62 142.186 102.534 147.228C89.4493 152.271 90.7613 168.509 119.112 199.056L148.897 196.324L131.772 171.458L168.481 170.366L193.531 149.234L167.297 137.119V137.117Z" fill="#002EFF"/>
<path d="M191.615 118.532C191.731 118.999 194.771 147.167 194.771 147.167L154.723 138.467L156.199 109.832L191.615 118.532Z" fill="#42E8B4"/>
<path d="M172.543 99.2992C172.543 99.2992 185.675 95.8352 192.41 97.851C199.147 99.8667 206.522 111.799 209.832 126.403L185.99 131.722L183.09 125.919L156.405 122.561L143.191 128.866L138.308 109.925C138.308 109.925 150.001 105.32 155.007 103.276C160.013 101.232 167.887 99.6877 169.878 99.5698C171.87 99.4538 172.543 99.2952 172.543 99.2952V99.2992Z" fill="#42E8B4"/>
<path d="M196.159 137.045C196.124 137.045 196.088 137.039 196.053 137.027L188.629 134.452C188.46 134.393 188.37 134.208 188.429 134.039C188.488 133.87 188.673 133.781 188.842 133.84L196.267 136.415C196.435 136.474 196.525 136.659 196.466 136.828C196.419 136.962 196.293 137.045 196.159 137.045Z" fill="#0C0C0C"/>
<path d="M138.619 111.137L129.846 112.488L112.446 93.2905L109.814 82.9981C109.664 82.2252 108.917 81.7187 108.144 81.8692C107.528 81.9892 107.084 82.4876 107.003 83.0754L106.804 82.5608C106.482 81.7309 105.547 81.318 104.717 81.6414C104.247 81.8245 103.911 82.2028 103.767 82.6483L103.738 82.575C103.395 81.6902 102.4 81.2509 101.515 81.5946C100.785 81.8774 100.36 82.6056 100.427 83.35L98.5168 77.4004C98.2585 76.5949 97.396 76.1514 96.5906 76.4098C95.7851 76.6681 95.3416 77.5305 95.6 78.336L98.2666 86.6432C97.3777 87.4792 96.1939 89.0739 96.7472 91.3256C97.5201 94.4744 100.994 96.783 103.24 97.9791C109.552 108.125 120.043 124.65 122.857 127.026C129.709 132.813 144.037 125.545 144.037 125.545L138.616 111.137H138.619Z" fill="white" stroke="#0C0C0C" stroke-miterlimit="10"/>
<path d="M207.002 123.775L187.082 126.613L188.734 134.147L160.174 123.332C159.82 123.167 159.435 123.023 159.027 122.899L159.014 122.895C155.746 121.902 150.947 122.13 148.425 122.274C145.063 122.467 141.001 123.609 138.942 124.32C137.598 124.784 134.965 126.161 135.102 127.325C135.155 127.778 136.078 129.656 138.116 128.37C138.737 127.978 141.021 127.294 142.372 126.857L138.564 130.24C137.929 130.803 137.974 131.743 138.663 132.351C138.926 132.583 139.245 132.733 139.579 132.803C139.052 133.36 139.123 134.214 139.762 134.78C140.37 135.317 141.291 135.412 141.942 135.032C141.928 135.42 142.099 135.823 142.451 136.134C143.079 136.688 144.058 136.751 144.68 136.279L149.778 132.408C149.804 132.422 149.833 132.438 149.861 132.453C152.269 134.385 154.285 134.865 155.758 134.824C160.074 137.459 169.528 143.038 178.877 147.307C198.107 156.089 208.149 152.885 210.407 147.31C212.665 141.734 207.002 123.777 207.002 123.777V123.775Z" fill="white" stroke="#0C0C0C" stroke-miterlimit="10"/>
<path d="M166.447 78.6047C167.734 79.2007 168.363 80.5798 167.85 81.6884C167.338 82.7969 165.879 83.2098 164.592 82.6159C163.304 82.0199 162.676 80.6408 163.188 79.5322C163.701 78.4257 165.159 78.0108 166.447 78.6047Z" fill="#0C0C0C"/>
<path d="M173.924 98.9656L172.333 93.9333C173.519 93.2946 174.424 92.2308 175.126 90.4672C176.774 86.332 174.337 81.6211 170.745 80.1972C166.011 78.3198 163.188 80.7281 161.553 84.8695C159.443 90.213 160.613 94.8629 165.806 94.8791C165.875 94.8791 165.942 94.8791 166.009 94.8791L165.832 94.9625L167.203 99.9542C166.424 100.095 165.542 100.269 164.594 100.475C164.134 102.186 164.148 104.486 167.452 104.639C172.779 104.887 175.315 100.686 176.284 98.4591C175.348 98.6442 174.544 98.8212 173.922 98.9656H173.924Z" fill="white" stroke="#0C0C0C" stroke-linecap="round" stroke-linejoin="round"/>
<path d="M172.038 89.9101C173.22 87.2556 168.013 79.3777 169.992 78.8997C171.971 78.4237 176.208 79.5506 177.797 84.0499C179.865 89.9101 175.968 93.7667 172.528 94.5457C172.528 94.5457 170.954 92.3449 172.038 89.9101Z" fill="#0C0C0C"/>
<path d="M166.333 77.4331C166.949 76.5035 168.597 76.5096 170.011 77.4494C171.426 78.3871 175.059 79.7174 174.443 80.6469C173.827 81.5765 169.193 81.7555 167.777 80.8158C166.362 79.8781 165.715 78.3627 166.333 77.4331Z" fill="#0C0C0C"/>
<path d="M168.052 78.861C169.118 78.3179 170.467 78.8223 171.061 79.9899C171.654 81.1574 171.272 82.5447 170.206 83.0878C169.14 83.6309 167.792 83.1264 167.198 81.9589C166.604 80.7913 166.986 79.4041 168.052 78.861Z" fill="#0C0C0C"/>
<path d="M169.988 81.9506C171.546 81.1553 173.422 81.7147 174.179 83.1955C174.933 84.6783 174.282 86.5232 172.724 87.3165C171.166 88.1118 169.291 87.5525 168.534 86.0717C167.779 84.5888 168.43 82.7439 169.988 81.9506Z" fill="#0C0C0C"/>
<path d="M169.641 88.0855C170.399 86.9424 171.846 86.5661 172.869 87.2455C173.894 87.9248 174.107 89.4036 173.349 90.5467C172.59 91.6899 171.144 92.0662 170.121 91.3868C169.095 90.7074 168.882 89.2287 169.641 88.0855Z" fill="white"/>
<path d="M160.528 137.823H101.499C101.27 137.823 101.084 138.008 101.084 138.237V142.662C101.084 142.891 101.27 143.077 101.499 143.077H160.528C160.757 143.077 160.943 142.891 160.943 142.662V138.237C160.943 138.008 160.757 137.823 160.528 137.823Z" fill="#0C0C0C"/>
<path d="M141.904 142.804H101.713C101.198 142.804 100.737 142.525 100.545 142.102L83.6259 104.578C83.2943 103.843 83.9025 103.042 84.7935 103.042H124.985C125.499 103.042 125.961 103.321 126.152 103.744L143.072 141.268C143.403 142.003 142.795 142.804 141.904 142.804Z" fill="#0C0C0C"/>
<path d="M211.446 145.379H160.222C156.42 145.379 153.337 148.462 153.337 152.264V165.881C153.337 169.683 156.42 172.766 160.222 172.766H211.446C215.249 172.766 218.332 169.683 218.332 165.881V152.264C218.332 148.462 215.249 145.379 211.446 145.379Z" fill="white" stroke="#0C0C0C" stroke-miterlimit="10"/>
<path d="M188.734 134.147L196.466 136.828" stroke="#0C0C0C" stroke-linecap="round" stroke-linejoin="round"/>
<path d="M208.998 126.59L185.99 131.724L184.465 124.261L206.956 121.45L208.998 126.59Z" fill="#42E8B4"/>
<path d="M172.185 88.4211L170.678 89.729" stroke="#0C0C0C" stroke-linecap="round" stroke-linejoin="round"/>
<path d="M171.495 89.019L172.038 89.91" stroke="#0C0C0C" stroke-linecap="round" stroke-linejoin="round"/>
<path d="M56.5459 62.9951H70.4162" stroke="#0C0C0C" stroke-linecap="round" stroke-linejoin="round"/>
<path d="M135.977 62.9951H149.847" stroke="#0C0C0C" stroke-linecap="round" stroke-linejoin="round"/>
<path d="M102.949 65.6334C104.461 65.6334 105.687 64.4077 105.687 62.8956C105.687 61.3835 104.461 60.1577 102.949 60.1577C101.437 60.1577 100.211 61.3835 100.211 62.8956C100.211 64.4077 101.437 65.6334 102.949 65.6334Z" fill="white" stroke="#0C0C0C" stroke-linecap="round" stroke-linejoin="round"/>
<path d="M102.949 16.2542V30.1957" stroke="#0C0C0C" stroke-linecap="round" stroke-linejoin="round"/>
<path d="M98.1016 86.1306L99.3546 90.4022" stroke="#0C0C0C" stroke-linecap="round" stroke-linejoin="round"/>
<path d="M100.109 82.3677L102.064 88.4048" stroke="#0C0C0C" stroke-linecap="round" stroke-linejoin="round"/>
<path d="M103.757 82.6157L104.998 87.6195" stroke="#0C0C0C" stroke-linecap="round" stroke-linejoin="round"/>
<path d="M107.003 83.0754L107.709 87.109" stroke="#0C0C0C" stroke-linecap="round" stroke-linejoin="round"/>
<path d="M111.511 219.454H155.137" stroke="#0C0C0C" stroke-miterlimit="10"/>
<path d="M119.72 206.586V219.454" stroke="#0C0C0C" stroke-miterlimit="10"/>
<path d="M120.786 204.284L124.675 208.173" stroke="#0C0C0C" stroke-linecap="round" stroke-linejoin="round"/>
<path d="M123.525 203.039L127.415 206.928" stroke="#0C0C0C" stroke-linecap="round" stroke-linejoin="round"/>
<path d="M31.9746 185.115L47.2057 221.034" stroke="#0C0C0C" stroke-linecap="round" stroke-linejoin="round"/>
<path d="M35.0537 192.376L45.3217 187.985" stroke="#0C0C0C" stroke-linecap="round" stroke-linejoin="round"/>
<path d="M47.873 196.434L50.5601 191.418" stroke="#0C0C0C" stroke-linecap="round" stroke-linejoin="round"/>
<path d="M49.2168 197.834L51.9038 192.818" stroke="#0C0C0C" stroke-linecap="round" stroke-linejoin="round"/>
<path d="M182.339 120.46L185.99 131.724L208.216 126.765" stroke="#0C0C0C" stroke-linecap="round" stroke-linejoin="round"/>
<path d="M179.55 121.259L183.559 124.518" stroke="#0C0C0C" stroke-linecap="round" stroke-linejoin="round"/>
<path d="M184.79 110.157C184.79 110.157 185.435 103.41 192.467 98.687" stroke="#0C0C0C" stroke-linecap="round" stroke-linejoin="round"/>
<path d="M157.537 111.624C157.537 111.624 156.215 118.845 156.382 122.356" stroke="#0C0C0C" stroke-linecap="round" stroke-linejoin="round"/>
<path d="M97.2969 169.283C97.2969 169.283 111.629 190.747 113.431 192.761" stroke="#0C0C0C" stroke-linecap="round" stroke-linejoin="round"/>
<path d="M125.003 161.434L138.129 180.888" stroke="#0C0C0C" stroke-linecap="round" stroke-linejoin="round"/>
<path d="M131.774 171.456L155.359 170.754" stroke="#0C0C0C" stroke-linecap="round" stroke-linejoin="round"/>
<path d="M140.799 128.232L145.046 124.518" stroke="#0C0C0C" stroke-linecap="round" stroke-linejoin="round"/>
<path d="M139.579 132.8L146.877 126.914" stroke="#0C0C0C" stroke-linecap="round" stroke-linejoin="round"/>
<path d="M142.697 136.348C142.697 136.348 140.763 135.245 142.923 133.533C145.083 131.82 148.392 128.805 148.392 128.805" stroke="#0C0C0C" stroke-linecap="round" stroke-linejoin="round"/>
<path d="M136.585 85.2275L142.022 88.775" stroke="#0C0C0C" stroke-linecap="round" stroke-linejoin="round"/>
<path d="M121.282 98.8721L123.959 104.122" stroke="#0C0C0C" stroke-linecap="round" stroke-linejoin="round"/>
<path d="M138.907 44.5828L144.686 41.552" stroke="#0C0C0C" stroke-linecap="round" stroke-linejoin="round"/>
<path d="M125.261 29.2825L128.808 23.8577" stroke="#0C0C0C" stroke-linecap="round" stroke-linejoin="round"/>
<path d="M84.6162 26.9596L81.7461 21.2988" stroke="#0C0C0C" stroke-linecap="round" stroke-linejoin="round"/>
<path d="M69.3157 40.6041L64.1309 37.0566" stroke="#0C0C0C" stroke-linecap="round" stroke-linejoin="round"/>
<path d="M66.9933 81.249L61.4199 84.0988" stroke="#0C0C0C" stroke-linecap="round" stroke-linejoin="round"/>
<path d="M80.6393 96.5493L77.0898 101.748" stroke="#0C0C0C" stroke-linecap="round" stroke-linejoin="round"/>
</g>
<defs>
<clipPath id="clip0_48_858">
<rect width="208" height="208" fill="white" transform="translate(23 16)"/>
</clipPath>
</defs>
</svg>
