<svg width="32" height="32" viewBox="0 0 32 32" fill="none" xmlns="http://www.w3.org/2000/svg">
<path fill-rule="evenodd" clip-rule="evenodd" d="M16 17.0204L25.8027 26.8231C26.0844 27.1049 26.5413 27.1049 26.8231 26.8231C27.1049 26.5413 27.1049 26.0845 26.8231 25.8027L17.0204 16L26.8231 6.19728C27.1049 5.9155 27.1049 5.45864 26.8231 5.17686C26.5413 4.89508 26.0844 4.89508 25.8027 5.17686L16 14.9796L6.19725 5.17686C5.91547 4.89508 5.45861 4.89508 5.17683 5.17686C4.89505 5.45864 4.89505 5.9155 5.17683 6.19728L14.9795 16L5.17683 25.8027C4.89505 26.0845 4.89505 26.5413 5.17683 26.8231C5.45861 27.1049 5.91547 27.1049 6.19725 26.8231L16 17.0204Z" fill="#002EFF"/>
</svg>
