<svg width="373" height="345" viewBox="0 0 373 345" fill="none" xmlns="http://www.w3.org/2000/svg">
<g clip-path="url(#clip0_644_1456)">
<path d="M211.589 136.886V74.9456C177.592 74.9456 150.033 102.677 150.033 136.884C150.033 171.091 177.592 198.822 211.589 198.822C245.586 198.822 273.145 171.091 273.145 136.884C273.145 126.545 270.624 116.798 266.17 108.229L211.589 136.884V136.886Z" fill="white"/>
<path d="M266.17 108.231L211.589 74.9481C177.592 74.9481 150.033 102.679 150.033 136.886C150.033 171.093 177.592 198.824 211.589 198.824C245.586 198.824 273.145 171.093 273.145 136.886C273.145 126.547 270.624 116.801 266.17 108.231Z" fill="#F3F5FF"/>
<path d="M266.17 108.231C255.892 88.4492 235.31 74.9481 211.589 74.9481V136.886L266.17 108.231Z" fill="#002EFF"/>
<path d="M211.589 166.45C227.917 166.45 241.153 153.214 241.153 136.886C241.153 120.559 227.917 107.322 211.589 107.322C195.262 107.322 182.025 120.559 182.025 136.886C182.025 153.214 195.262 166.45 211.589 166.45Z" fill="white"/>
<path d="M171.395 116.914C183.192 105.116 183.192 85.9886 171.395 74.1911C159.597 62.3935 140.47 62.3935 128.672 74.1911C116.874 85.9887 116.874 105.116 128.672 116.914C140.47 128.711 159.597 128.711 171.395 116.914Z" fill="white"/>
<path d="M150.033 125.765C133.347 125.765 119.823 112.239 119.823 95.5554C119.823 78.8721 133.347 65.3433 150.033 65.3433C163.124 65.3433 174.268 73.6697 178.463 85.3151" fill="white"/>
<path d="M150.033 125.765C133.347 125.765 119.823 112.239 119.823 95.5554C119.823 78.8721 133.347 65.3433 150.033 65.3433C163.124 65.3433 174.268 73.6697 178.463 85.3151" stroke="#0C0C0C" stroke-linecap="round" stroke-linejoin="round"/>
<path d="M162.826 89.1402C162.826 82.0745 157.099 76.348 150.033 76.348C142.968 76.348 137.241 82.0745 137.241 89.1402C137.241 94.5907 140.651 99.2413 145.454 101.084V106.758H154.613V101.084C159.416 99.2413 162.826 94.5907 162.826 89.1402Z" fill="white" stroke="#0C0C0C" stroke-linecap="round" stroke-linejoin="round"/>
<path d="M197.861 201.566C206.907 192.52 206.907 177.853 197.861 168.807C188.815 159.761 174.148 159.761 165.102 168.807C156.056 177.853 156.056 192.52 165.102 201.566C174.148 210.612 188.815 210.612 197.861 201.566Z" fill="white"/>
<path d="M200.855 197.885C196.716 204.186 189.584 208.348 181.481 208.348C168.688 208.348 158.316 197.979 158.316 185.184C158.316 180.777 159.547 176.658 161.683 173.151" fill="white"/>
<path d="M200.855 197.885C196.716 204.186 189.584 208.348 181.481 208.348C168.688 208.348 158.316 197.979 158.316 185.184C158.316 180.777 159.547 176.658 161.683 173.151" stroke="#0C0C0C" stroke-linecap="round" stroke-linejoin="round"/>
<path d="M165.757 188.29C165.944 189.245 166.871 189.865 167.825 189.675L167.934 189.652C168.759 192.164 170.238 194.318 172.139 195.964L172.076 196.057C171.534 196.865 171.749 197.959 172.557 198.498C173.364 199.04 174.458 198.824 174.997 198.017L175.06 197.923C177.306 199.057 179.86 199.604 182.496 199.414L182.519 199.523C182.706 200.478 183.632 201.098 184.587 200.908C185.541 200.721 186.162 199.794 185.972 198.84L185.949 198.731C188.46 197.905 190.615 196.427 192.26 194.526L192.354 194.589C193.161 195.131 194.255 194.916 194.794 194.108C195.336 193.3 195.121 192.207 194.313 191.668L194.22 191.604C195.354 189.359 195.901 186.804 195.711 184.169L195.82 184.146C196.774 183.959 197.394 183.032 197.204 182.078C197.017 181.123 196.09 180.503 195.136 180.693L195.027 180.716C194.202 178.207 192.723 176.05 190.822 174.405L190.886 174.311C191.427 173.503 191.212 172.41 190.405 171.87C189.597 171.329 188.503 171.544 187.964 172.351L187.901 172.445C185.655 171.311 183.101 170.764 180.465 170.954L180.443 170.845C180.255 169.891 179.329 169.27 178.374 169.46C177.42 169.648 176.8 170.574 176.99 171.529L177.012 171.638C174.504 172.463 172.347 173.941 170.701 175.843L170.607 175.779C169.8 175.237 168.706 175.453 168.167 176.26C167.625 177.068 167.84 178.161 168.648 178.701L168.742 178.764C167.607 181.009 167.061 183.564 167.25 186.199L167.142 186.222C166.187 186.409 165.567 187.336 165.757 188.29ZM180.068 178.027C184.022 177.248 187.86 179.82 188.64 183.774C189.42 187.728 186.848 191.566 182.893 192.346C178.939 193.126 175.101 190.554 174.321 186.599C173.542 182.645 176.114 178.807 180.068 178.027Z" fill="#002EFF"/>
<path d="M293.118 164.096C302.042 155.173 302.042 140.705 293.118 131.781C284.195 122.858 269.727 122.858 260.803 131.781C251.88 140.705 251.879 155.173 260.803 164.096C269.727 173.02 284.195 173.02 293.118 164.096Z" fill="white"/>
<path d="M271.533 125.735C273.272 125.312 275.09 125.086 276.96 125.086C289.58 125.086 299.811 135.317 299.811 147.937C299.811 160.557 289.58 170.787 276.96 170.787C272.424 170.787 268.196 169.465 264.642 167.187" fill="white"/>
<path d="M271.533 125.735C273.272 125.312 275.09 125.086 276.96 125.086C289.58 125.086 299.811 135.317 299.811 147.937C299.811 160.557 289.58 170.787 276.96 170.787C272.424 170.787 268.196 169.465 264.642 167.187" stroke="#0C0C0C" stroke-linecap="round" stroke-linejoin="round"/>
<path d="M181.48 214.146V226.581H219.865" fill="white"/>
<path d="M181.48 214.146V226.581H219.865" stroke="#0C0C0C" stroke-linecap="round" stroke-linejoin="round"/>
<path d="M146.734 85.7378H148.185L149.266 83.5581L149.818 87.1201L151.119 83.8923L151.694 85.5176H153.2" fill="white"/>
<path d="M146.734 85.7378H148.185L149.266 83.5581L149.818 87.1201L151.119 83.8923L151.694 85.5176H153.2" stroke="#0C0C0C" stroke-linecap="round" stroke-linejoin="round"/>
<path d="M145.671 85.2948L149.349 103.338" stroke="#0C0C0C" stroke-linecap="round" stroke-linejoin="round"/>
<path d="M154.398 85.2948L150.717 103.338" stroke="#0C0C0C" stroke-linecap="round" stroke-linejoin="round"/>
<path d="M145.302 109.451H154.762V112.413H146.866C146.866 112.413 147.864 116.335 152.451 114.071" fill="white"/>
<path d="M145.302 109.451H154.762V112.413H146.866C146.866 112.413 147.864 116.335 152.451 114.071" stroke="#0C0C0C" stroke-linecap="round" stroke-linejoin="round"/>
<path d="M264.729 136.914V158.962H289.19" fill="white"/>
<path d="M264.729 136.914V158.962H289.19" stroke="#0C0C0C" stroke-linecap="round" stroke-linejoin="round"/>
<path d="M285.831 137.651H288.299L279.682 151.544L274.765 144.053L266.993 156.01" fill="white"/>
<path d="M285.831 137.651H288.299L279.682 151.544L274.765 144.053L266.993 156.01" stroke="#0C0C0C" stroke-linecap="round" stroke-linejoin="round"/>
<path d="M289.19 139.722L288.299 137.651" stroke="#0C0C0C" stroke-linecap="round" stroke-linejoin="round"/>
</g>
<path d="M246.815 147.283L247.623 169.896L228.881 171.66L226.627 149.381L246.815 147.283Z" fill="white"/>
<path d="M247.126 155.964L246.816 147.283L226.62 149.373L227.845 161.525C236.583 162.432 243.141 159.01 247.118 155.964H247.126Z" fill="black"/>
<path d="M239.417 110.598C239.417 110.598 245.681 109.765 250.842 115.506C257.612 123.052 258.903 139.304 250.034 148.173C241.173 157.034 217.294 150.427 217.294 150.427C217.294 150.427 208.776 137.981 209.486 127.748C210.221 117.164 221.099 110.051 226.759 109.194C232.418 108.336 239.409 110.606 239.409 110.606L239.417 110.598Z" fill="white"/>
<path d="M212.762 137.507C211.398 125.412 219.981 114.747 231.276 113.75C242.57 112.754 251.292 121.386 252.362 133.514C253.432 145.641 248.417 155.768 235.147 157.662C224.007 159.255 214.591 153.718 212.762 137.507Z" fill="white"/>
<path d="M253.74 132.566C253.74 132.566 242.152 120.798 239.857 115.588C239.857 115.588 228.718 122.619 221.956 120.414C221.956 120.414 212.646 124.457 211.576 135.539L210.857 129.104L214.957 118.487L223.001 113.342L230.645 110.925L241.262 111.733L248.342 116.56L252.605 123.877L253.732 132.566H253.74Z" fill="white"/>
<path d="M252.01 131.888C254.019 128.965 257.579 128.23 259.948 130.247C262.316 132.264 262.61 136.266 260.601 139.189C258.592 142.113 255.031 142.848 252.663 140.831C250.295 138.814 250.001 134.812 252.01 131.888Z" fill="white"/>
<path d="M254.107 137.083C253.871 137.083 253.634 136.96 253.503 136.731C253.307 136.397 253.421 135.972 253.756 135.784L258.762 132.893C259.097 132.697 259.522 132.811 259.71 133.146C259.906 133.481 259.791 133.906 259.457 134.094L254.45 136.985C254.344 137.05 254.222 137.074 254.099 137.074H254.107V137.083Z" fill="black"/>
<path d="M257.27 139.075C257.033 139.075 256.796 138.953 256.666 138.724L255.22 136.192C255.032 135.857 255.147 135.433 255.481 135.245C255.808 135.057 256.241 135.171 256.429 135.506L257.874 138.038C258.062 138.373 257.948 138.797 257.613 138.985C257.507 139.051 257.384 139.075 257.27 139.075Z" fill="black"/>
<path d="M214.346 136.658C212.084 133.922 208.474 133.506 206.294 135.727C204.113 137.948 204.178 141.958 206.441 144.694C208.703 147.43 212.312 147.846 214.493 145.625C216.673 143.404 216.608 139.394 214.346 136.658Z" fill="white" stroke="black" stroke-miterlimit="10"/>
<path d="M239.417 110.598C239.417 110.598 245.681 109.765 250.842 115.506C257.612 123.052 258.903 139.304 250.034 148.173C241.173 157.034 217.294 150.427 217.294 150.427C217.294 150.427 208.776 137.981 209.486 127.748C210.221 117.164 221.099 110.051 226.759 109.194C232.418 108.336 239.409 110.606 239.409 110.606L239.417 110.598Z" fill="black"/>
<path d="M259.947 130.247C257.62 128.27 254.165 128.956 252.132 131.741C250.408 120.561 242.005 112.803 231.274 113.742C219.98 114.738 211.388 125.404 212.76 137.499C214.149 149.79 219.898 155.931 227.452 157.499L228.881 171.66L247.624 169.888L246.987 152.076C249.968 149.03 251.642 144.979 252.238 140.382C252.377 140.537 252.499 140.7 252.662 140.831C255.031 142.848 258.591 142.113 260.6 139.189C262.609 136.266 262.324 132.264 259.947 130.247Z" fill="white" stroke="black" stroke-miterlimit="10"/>
<path d="M252.009 131.888C252.009 131.888 242.152 120.798 239.857 115.588C239.857 115.588 228.718 122.619 221.956 120.414C221.956 120.414 212.646 124.457 211.576 135.539L210.857 129.104L214.957 118.487L223.001 113.342L230.645 110.925L241.262 111.733L248.342 116.56L252.605 123.877L252.009 131.897V131.888Z" fill="black"/>
<path d="M304.194 206.205C304.194 206.205 304.113 206.205 304.072 206.205C303.696 206.139 303.443 205.772 303.508 205.396C305.689 193.285 310.336 188.295 310.532 188.083C310.801 187.805 311.242 187.797 311.512 188.058C311.789 188.32 311.797 188.761 311.536 189.038C311.487 189.087 306.979 193.979 304.872 205.641C304.815 205.976 304.521 206.213 304.186 206.213H304.194V206.205Z" fill="black"/>
<path d="M311.032 282.35C310.713 282.35 310.427 282.13 310.354 281.803L300.244 235.703C300.162 235.327 300.399 234.959 300.774 234.878C301.158 234.796 301.526 235.033 301.607 235.409L311.718 281.509C311.799 281.885 311.563 282.252 311.187 282.334C311.138 282.342 311.089 282.35 311.04 282.35H311.032Z" fill="black"/>
<path d="M187.003 277.287C186.635 277.287 186.325 276.993 186.309 276.626L183.932 224.572C183.916 224.188 184.21 223.861 184.594 223.845H184.626C184.994 223.845 185.304 224.139 185.321 224.506L187.697 276.56C187.713 276.944 187.419 277.271 187.036 277.287H187.003Z" fill="black"/>
<path d="M265.437 170.933L249.61 158.373L235.882 168.532L250.541 190.092L265.437 170.933Z" fill="white"/>
<path d="M226.887 161.166L236.189 168.606L224.094 191.105L213.854 174.502L226.887 161.166Z" fill="white"/>
<path d="M239.914 279.116C239.539 279.116 239.22 278.814 239.22 278.43L237.611 171.88C237.611 171.497 237.913 171.178 238.297 171.178H238.305C238.681 171.178 239 171.48 239 171.864L240.608 278.414C240.608 278.798 240.306 279.116 239.922 279.125H239.914V279.116Z" fill="black"/>
<path d="M190.523 277.891L180.764 283.861C177.35 285.952 175.725 289.839 176.722 293.514L179.76 304.711C180.037 305.74 180.789 306.597 181.818 307.054L188.482 310.027C190.197 310.795 192.238 310.591 193.765 309.504L199.678 305.397L190.523 277.891Z" fill="white"/>
<path d="M224.979 310.484L226.514 285.854C226.514 285.854 214.027 283.339 200.871 278.365C193.635 275.637 180.128 274.96 169.56 275.531C165.705 275.735 162.504 275.727 160.928 277.148C158.862 279.01 159.981 283.2 164.146 283.224C174.958 283.281 189.332 283.192 189.332 283.192C189.332 283.192 189.519 283.306 189.617 283.363C187.633 287.887 186.375 293.898 193.203 301.06C205.142 313.58 224.979 310.484 224.979 310.484Z" fill="white"/>
<path d="M177.033 296.185C177.033 296.185 176.967 296.185 176.935 296.185C176.649 296.136 176.461 295.85 176.518 295.564C176.575 295.221 177.482 292.085 190.434 287.185C190.712 287.087 191.006 287.218 191.104 287.487C191.202 287.757 191.071 288.059 190.801 288.157C178.503 292.812 177.547 295.744 177.539 295.768C177.498 296.021 177.278 296.185 177.033 296.185Z" fill="black"/>
<path d="M179.065 303.714C179 303.714 178.934 303.714 178.877 303.681C178.616 303.575 178.485 303.289 178.575 303.028C178.689 302.718 180.021 299.859 191.74 295.074C192.009 294.968 192.311 295.09 192.418 295.36C192.524 295.629 192.401 295.931 192.132 296.037C180.878 300.635 179.563 303.371 179.547 303.404C179.457 303.6 179.261 303.722 179.065 303.722V303.714Z" fill="black"/>
<path d="M199.417 306.589C199.319 306.589 199.221 306.564 199.131 306.499L194.149 303.208C193.912 303.053 193.847 302.726 194.002 302.481C194.157 302.236 194.484 302.179 194.729 302.334L199.711 305.625C199.947 305.78 200.013 306.107 199.858 306.352C199.76 306.507 199.588 306.589 199.425 306.589H199.417Z" fill="black"/>
<path d="M187.617 306.377C187.421 306.377 187.233 306.27 187.144 306.083C187.021 305.821 187.127 305.511 187.389 305.388L194.877 301.795C195.13 301.673 195.449 301.779 195.571 302.04C195.694 302.301 195.588 302.612 195.326 302.734L187.838 306.328C187.764 306.36 187.691 306.377 187.609 306.377H187.617Z" fill="black"/>
<path d="M192.622 308.108C192.524 308.108 192.426 308.083 192.336 308.026C192.091 307.871 192.025 307.544 192.181 307.307C192.393 306.981 192.401 306.385 192.197 305.797C191.985 305.176 191.593 304.702 191.176 304.555C190.907 304.457 190.76 304.163 190.858 303.886C190.956 303.616 191.25 303.477 191.527 303.567C192.246 303.829 192.867 304.531 193.185 305.454C193.495 306.36 193.446 307.258 193.054 307.863C192.956 308.018 192.785 308.1 192.613 308.1H192.622V308.108Z" fill="black"/>
<path d="M180.782 283.861C180.603 283.861 180.423 283.763 180.325 283.592C180.186 283.339 180.276 283.02 180.529 282.881C180.937 282.653 190.574 277.32 195.09 279.59C195.352 279.721 195.45 280.031 195.319 280.292C195.188 280.554 194.878 280.652 194.617 280.521C190.582 278.504 181.125 283.739 181.027 283.788C180.946 283.837 180.864 283.853 180.774 283.853H180.782V283.861Z" fill="black"/>
<path d="M224.481 319.231H224.44C224.056 319.206 223.762 318.88 223.787 318.496L226.163 280.423C226.188 280.105 226.416 279.835 226.735 279.778C264.955 272.885 326.596 283.535 327.217 283.641C327.593 283.706 327.846 284.065 327.78 284.449C327.715 284.825 327.339 285.078 326.972 285.013C326.359 284.907 265.526 274.396 227.511 281.052L225.167 318.578C225.142 318.945 224.84 319.231 224.473 319.231H224.481Z" fill="black"/>
<path d="M265.436 170.933C265.436 170.933 305.983 171.733 320.397 182.023C333.105 191.096 374.322 268.9 372.607 299.198C370.892 329.496 340.969 348.198 302.406 343.216C263.843 338.234 222.986 319.721 222.986 319.721H181.205H132.132H72L136.428 270.051C136.428 270.051 160.756 208.05 169.143 195.098C177.53 182.146 234.582 168.622 234.582 168.622L265.428 170.933H265.436Z" fill="#002EFF"/>
<path d="M187.003 277.287C186.635 277.287 186.325 276.993 186.309 276.626L183.932 224.572C183.916 224.188 184.21 223.861 184.594 223.845H184.626C184.994 223.845 185.304 224.139 185.321 224.506L187.697 276.56C187.713 276.944 187.419 277.271 187.036 277.287H187.003Z" fill="black"/>
<path d="M265.437 170.933L249.61 158.373L235.882 168.532L250.541 190.092L265.437 170.933Z" fill="#002EFF"/>
<path d="M226.887 161.166L236.189 168.606L224.094 191.105L213.854 174.502L226.887 161.166Z" fill="#002EFF"/>
<path d="M190.523 277.891L180.764 283.861C177.35 285.952 175.725 289.839 176.722 293.514L179.76 304.711C180.037 305.74 180.789 306.597 181.818 307.054L188.482 310.027C190.197 310.795 192.238 310.591 193.765 309.504L199.678 305.397L190.523 277.891Z" fill="white" stroke="black" stroke-miterlimit="10"/>
<path d="M194.72 302.334C207.076 313.441 224.545 311.219 224.545 311.219L225.247 301.73L225.851 293.081L226.252 285.797C226.252 285.797 214.042 283.339 200.878 278.365C193.642 275.637 180.135 274.96 169.567 275.531C165.712 275.735 162.511 275.727 160.935 277.148C158.869 279.01 159.988 283.2 164.153 283.224C174.965 283.281 181.801 283.224 181.801 283.224" fill="white"/>
<path d="M194.72 302.334C207.076 313.441 224.545 311.219 224.545 311.219L225.247 301.73L225.851 293.081L226.252 285.797C226.252 285.797 214.042 283.339 200.878 278.365C193.642 275.637 180.135 274.96 169.567 275.531C165.712 275.735 162.511 275.727 160.935 277.148C158.869 279.01 159.988 283.2 164.153 283.224C174.965 283.281 181.801 283.224 181.801 283.224" stroke="black" stroke-linecap="round" stroke-linejoin="round"/>
<path d="M213.854 174.502L226.348 189.153L236.304 168.393L251.093 188.883L265.434 170.933" stroke="black" stroke-linecap="round" stroke-linejoin="round"/>
<path d="M236.305 168.393L243.026 277.891" stroke="black" stroke-linecap="round" stroke-linejoin="round"/>
<path d="M223.812 319.721C224.604 312.763 226.735 279.77 226.735 279.77C226.735 279.77 274.289 273.922 327.781 284.441" stroke="black" stroke-linecap="round" stroke-linejoin="round"/>
<path d="M300.773 234.87L311.717 281.501" stroke="black" stroke-linecap="round" stroke-linejoin="round"/>
<path d="M181.801 283.224C181.801 283.224 188.767 278.708 195.317 280.292" stroke="black" stroke-linecap="round" stroke-linejoin="round"/>
<path d="M177.849 296.185C177.849 296.185 181.703 289.39 191.928 287.479" stroke="black" stroke-linecap="round" stroke-linejoin="round"/>
<path d="M179.556 303.396C179.556 303.396 184.243 297.941 192.426 295.352" stroke="black" stroke-linecap="round" stroke-linejoin="round"/>
<path d="M187.617 306.377L194.722 302.334" stroke="black" stroke-linecap="round" stroke-linejoin="round"/>
<path d="M192.115 304.556C192.115 304.556 193.691 306.287 192.344 308.026" stroke="black" stroke-linecap="round" stroke-linejoin="round"/>
<path d="M311.512 188.051C311.512 188.051 306.383 191.824 304.072 206.197" stroke="black" stroke-linecap="round" stroke-linejoin="round"/>
<path d="M253.505 136.739L258.903 133.971" stroke="black" stroke-linecap="round" stroke-linejoin="round"/>
<path d="M256.428 135.506L257.873 138.038" stroke="black" stroke-linecap="round" stroke-linejoin="round"/>
<path d="M207.601 139.418L213.285 141.615" stroke="black" stroke-linecap="round" stroke-linejoin="round"/>
<path d="M209.683 143.469L211.193 141.125" stroke="black" stroke-linecap="round" stroke-linejoin="round"/>
<path d="M357.247 72H274V113.503H357.247V72Z" fill="white"/>
<path d="M274.218 113.285H357.026V72.2202H274.218V113.285Z" fill="white" stroke="#0C0C0C" stroke-linecap="round" stroke-linejoin="round"/>
<path d="M302.215 107.488H295.559C295.438 107.488 295.339 107.389 295.339 107.268V78.2328C295.339 78.1113 295.438 78.0126 295.559 78.0126H302.215C302.336 78.0126 302.435 78.1113 302.435 78.2328V107.268C302.435 107.389 302.336 107.488 302.215 107.488Z" fill="white" stroke="#0C0C0C" stroke-linecap="round" stroke-linejoin="round"/>
<path d="M335.685 107.488H329.03C328.908 107.488 328.81 107.389 328.81 107.268V78.2328C328.81 78.1113 328.908 78.0126 329.03 78.0126H335.685C335.807 78.0126 335.906 78.1113 335.906 78.2328V107.268C335.906 107.389 335.807 107.488 335.685 107.488Z" fill="white" stroke="#0C0C0C" stroke-linecap="round" stroke-linejoin="round"/>
<path d="M346.843 107.488H340.187C340.066 107.488 339.967 107.389 339.967 107.268V78.2328C339.967 78.1113 340.066 78.0126 340.187 78.0126H346.843C346.964 78.0126 347.063 78.1113 347.063 78.2328V107.268C347.063 107.389 346.964 107.488 346.843 107.488Z" fill="white" stroke="#0C0C0C" stroke-linecap="round" stroke-linejoin="round"/>
<path d="M291.058 91.2579H284.402V103.42H291.058V91.2579Z" fill="#FF3D00"/>
<path d="M302.215 87.5643H295.56V103.42H302.215V87.5643Z" fill="#FF3D00"/>
<path d="M313.371 82.0859H306.716V103.42H313.371V82.0859Z" fill="#FF3D00"/>
<path d="M324.529 91.2579H317.873V103.42H324.529V91.2579Z" fill="#FF3D00"/>
<path d="M335.688 86.7542H329.032V103.42H335.688V86.7542Z" fill="#FF3D00"/>
<path d="M346.844 90.3617H340.188V103.42H346.844V90.3617Z" fill="#FF3D00"/>
<path d="M284.623 107.05H290.841V78.453H284.623V107.05Z" stroke="#0C0C0C" stroke-linecap="round" stroke-linejoin="round"/>
<path d="M306.937 107.05H313.154V78.453H306.937V107.05Z" stroke="#0C0C0C" stroke-linecap="round" stroke-linejoin="round"/>
<path d="M318.094 107.05H324.311V78.453H318.094V107.05Z" stroke="#0C0C0C" stroke-linecap="round" stroke-linejoin="round"/>
<defs>
<clipPath id="clip0_644_1456">
<rect width="292" height="292" fill="white" transform="translate(16 16)"/>
</clipPath>
</defs>
</svg>
