<svg width="48" height="48" viewBox="0 0 48 48" fill="none" xmlns="http://www.w3.org/2000/svg">
<path fill-rule="evenodd" clip-rule="evenodd" d="M17.12 6H35.98C39.3 6 41.98 8.68 41.98 12V28C41.98 31.32 39.3 34 35.98 34H32.86L32.86 36C32.86 39.32 30.18 42 26.86 42H12C8.68 42 6 39.32 6 36V16C6 14.9 6.9 14 8 14H15.12V8C15.12 6.9 16.02 6 17.12 6ZM17.12 14H26.86C30.18 14 32.86 16.68 32.86 20L32.86 32H35.98C38.18 32 39.98 30.2 39.98 28V12C39.98 9.8 38.18 8 35.98 8H17.12V14ZM30.86 36V34V20C30.86 17.8 29.06 16 26.86 16H8V36C8 38.2 9.8 40 12 40H26.86C29.06 40 30.86 38.2 30.86 36Z" fill="#002EFF"/>
<path fill-rule="evenodd" clip-rule="evenodd" d="M26.9995 22.8599H11.9395C11.3795 22.8599 10.9395 22.4199 10.9395 21.8599C10.9395 21.2999 11.3795 20.8599 11.9395 20.8599H26.9995C27.5595 20.8599 27.9995 21.2999 27.9995 21.8599C27.9995 22.4199 27.5595 22.8599 26.9995 22.8599ZM26.9995 28.8999H11.9395C11.3795 28.8999 10.9395 28.4599 10.9395 27.8999C10.9395 27.3399 11.3795 26.8999 11.9395 26.8999H26.9995C27.5595 26.8999 27.9995 27.3399 27.9995 27.8999C27.9995 28.4599 27.5595 28.8999 26.9995 28.8999ZM11.9395 34.9399H21.6395C22.1995 34.9399 22.6395 34.4999 22.6395 33.9399C22.6395 33.3799 22.1995 32.9399 21.6395 32.9399H11.9395C11.3795 32.9399 10.9395 33.3799 10.9395 33.9399C10.9395 34.4999 11.3795 34.9399 11.9395 34.9399Z" fill="#FF3D00"/>
</svg>
