<svg width="52" height="60" viewBox="0 0 52 60" fill="none" xmlns="http://www.w3.org/2000/svg">
<path d="M3.73046 19.5645H3.57676C1.60647 19.5645 0 21.176 0 23.1412V38.7138C0 40.6867 1.60647 42.2931 3.57676 42.2931H3.73307C5.70336 42.2931 7.30983 40.6815 7.30983 38.7138V23.1411C7.30721 21.176 5.69825 19.5645 3.73046 19.5645Z" fill="black"/>
<path d="M9.02124 44.7246C9.02124 46.5334 10.4995 48.0066 12.3084 48.0066H15.8212V56.4181C15.8212 58.3935 17.4327 60 19.3979 60H19.5516C21.5245 60 23.1335 58.391 23.1335 56.4181V48.0066H28.0426V56.4181C28.0426 58.3935 29.6592 60 31.6244 60H31.7756C33.7484 60 35.3549 58.391 35.3549 56.4181V48.0066H38.8701C40.6764 48.0066 42.1548 46.5334 42.1548 44.7246V20.1358H9.02124V44.7246Z" fill="black"/>
<path d="M33.8407 5.22417L36.6309 0.917291C36.8103 0.645646 36.7308 0.274227 36.4567 0.0973671C36.1851 -0.0819874 35.8136 -0.00763252 35.6367 0.271614L32.7441 4.72721C30.5741 3.83816 28.1503 3.33858 25.5906 3.33858C23.0285 3.33858 20.6098 3.83816 18.4346 4.72721L15.5471 0.271614C15.3704 -0.00763252 14.9962 -0.0819874 14.7221 0.0973671C14.448 0.274109 14.3685 0.645646 14.5479 0.917291L17.3406 5.22417C12.3059 7.69155 8.91113 12.3418 8.91113 17.6761C8.91113 18.0041 8.93168 18.3269 8.95983 18.6471H42.2239C42.2521 18.3269 42.27 18.0041 42.27 17.6761C42.2701 12.3418 38.8727 7.69155 33.8407 5.22417ZM17.8786 12.9362C16.9947 12.9362 16.2773 12.2239 16.2773 11.3374C16.2773 10.451 16.9947 9.74118 17.8786 9.74118C18.7677 9.74118 19.48 10.4509 19.48 11.3374C19.48 12.224 18.7626 12.9362 17.8786 12.9362ZM33.3001 12.9362C32.4162 12.9362 31.6988 12.2239 31.6988 11.3374C31.6988 10.451 32.4162 9.74118 33.3001 9.74118C34.1866 9.74118 34.8989 10.4509 34.8989 11.3374C34.8989 12.2239 34.1866 12.9362 33.3001 12.9362Z" fill="black"/>
<path d="M47.5994 19.5645H47.4508C45.4805 19.5645 43.8689 21.176 43.8689 23.1412V38.7138C43.8689 40.6867 45.4831 42.2931 47.4508 42.2931H47.602C49.5747 42.2931 51.1787 40.6815 51.1787 38.7138V23.1411C51.1787 21.176 49.5696 19.5645 47.5994 19.5645Z" fill="black"/>
</svg>
