<svg width="32" height="32" viewBox="0 0 32 32" fill="none" xmlns="http://www.w3.org/2000/svg">
<g id="Clave">
<path id="Primary" d="M25.3334 22.6667H6.66669C4.45335 22.6667 2.66669 20.88 2.66669 18.6667V13.3334C2.66669 11.12 4.45335 9.33337 6.66669 9.33337H25.3334C27.5467 9.33337 29.3334 11.12 29.3334 13.3334V18.6667C29.3334 20.88 27.5467 22.6667 25.3334 22.6667ZM6.66669 21.3334H25.3334C26.8 21.3334 28 20.1334 28 18.6667V13.3334C28 11.8667 26.8 10.6667 25.3334 10.6667H6.66669C5.20002 10.6667 4.00002 11.8667 4.00002 13.3334V18.6667C4.00002 20.1334 5.20002 21.3334 6.66669 21.3334Z" fill="#002EFF"/>
<g id="Secondary">
<g id="Group 2662">
<path id="Vector" d="M9.31811 18.6934C8.98608 18.6934 8.71729 18.4246 8.71729 18.0925V13.9342C8.71729 13.6022 8.98608 13.3334 9.31811 13.3334C9.65015 13.3334 9.91894 13.6022 9.91894 13.9342V18.0925C9.91894 18.4246 9.65015 18.6934 9.31811 18.6934Z" fill="#FF3D00"/>
<path id="Vector_2" d="M7.26266 17.5708C7.0413 17.5708 6.81994 17.4443 6.72508 17.223C6.58277 16.9226 6.72508 16.5747 7.00968 16.4324L11.1364 14.5351C11.4368 14.3928 11.7847 14.5351 11.927 14.8197C12.0693 15.1201 11.927 15.4679 11.6424 15.6102L7.51564 17.5076C7.43658 17.5392 7.35752 17.555 7.26266 17.555V17.5708Z" fill="#FF3D00"/>
<path id="Vector_3" d="M11.3894 17.5708C11.3103 17.5708 11.2155 17.555 11.1364 17.5233L7.00969 15.626C6.70927 15.4837 6.58278 15.1358 6.72508 14.8354C6.86739 14.535 7.21523 14.4085 7.51565 14.5508L11.6424 16.4482C11.9428 16.5905 12.0693 16.9383 11.927 17.2387C11.8321 17.4601 11.6107 17.5866 11.3894 17.5866V17.5708Z" fill="#FF3D00"/>
</g>
<g id="Group 2663">
<path id="Vector_4" d="M16.0006 18.6934C15.6686 18.6934 15.3998 18.4246 15.3998 18.0925V13.9342C15.3998 13.6022 15.6686 13.3334 16.0006 13.3334C16.3326 13.3334 16.6014 13.6022 16.6014 13.9342V18.0925C16.6014 18.4246 16.3326 18.6934 16.0006 18.6934Z" fill="#FF3D00"/>
<path id="Vector_5" d="M13.9452 17.5708C13.7238 17.5708 13.5024 17.4443 13.4076 17.223C13.2653 16.9226 13.4076 16.5747 13.6922 16.4324L17.8189 14.5351C18.1193 14.3928 18.4672 14.5351 18.6095 14.8197C18.7518 15.1201 18.6095 15.4679 18.3249 15.6102L14.1981 17.5076C14.1191 17.5392 14.04 17.555 13.9452 17.555V17.5708Z" fill="#FF3D00"/>
<path id="Vector_6" d="M18.0561 17.5708C17.977 17.5708 17.8822 17.555 17.8031 17.5233L13.6764 15.626C13.376 15.4837 13.2495 15.1358 13.3918 14.8354C13.5341 14.535 13.8819 14.4085 14.1823 14.5508L18.3091 16.4482C18.6095 16.5905 18.736 16.9383 18.5937 17.2387C18.4988 17.4601 18.2774 17.5866 18.0561 17.5866V17.5708Z" fill="#FF3D00"/>
</g>
<g id="Group 2664">
<path id="Vector_7" d="M22.6672 18.6934C22.3352 18.6934 22.0664 18.4246 22.0664 18.0925V13.9342C22.0664 13.6022 22.3352 13.3334 22.6672 13.3334C22.9993 13.3334 23.2681 13.6022 23.2681 13.9342V18.0925C23.2681 18.4246 22.9993 18.6934 22.6672 18.6934Z" fill="#FF3D00"/>
<path id="Vector_8" d="M20.596 17.5708C20.3746 17.5708 20.1533 17.4443 20.0584 17.223C19.9161 16.9226 20.0584 16.5747 20.343 16.4324L24.4697 14.5351C24.7701 14.3928 25.118 14.5351 25.2603 14.8197C25.4026 15.1201 25.2603 15.4679 24.9757 15.6102L20.8489 17.5076C20.7699 17.5392 20.6908 17.555 20.596 17.555V17.5708Z" fill="#FF3D00"/>
<path id="Vector_9" d="M24.7227 17.5708C24.6436 17.5708 24.5488 17.555 24.4697 17.5233L20.343 15.626C20.0426 15.4837 19.9161 15.1358 20.0584 14.8354C20.2007 14.535 20.5485 14.4085 20.849 14.5508L24.9757 16.4482C25.2761 16.5905 25.4026 16.9383 25.2603 17.2387C25.1654 17.4601 24.9441 17.5866 24.7227 17.5866V17.5708Z" fill="#FF3D00"/>
</g>
</g>
</g>
</svg>
