<svg width="64" height="64" viewBox="0 0 64 64" fill="none" xmlns="http://www.w3.org/2000/svg">
<g clip-path="url(#clip0_1_4343)">
<path d="M48.5333 56.9334C47.68 54.2134 45.2 52.3734 42.3733 52.3734C41.52 52.3734 40.72 52.5868 39.9466 52.9068C38.1333 50.3468 35.1733 48.7734 32 48.7734C28.8266 48.7734 25.8933 50.3201 24.0533 52.9068C23.28 52.5868 22.48 52.3734 21.6266 52.3734C18.8 52.3734 16.32 54.2134 15.4666 56.9334C15.2533 57.6268 15.6533 58.3734 16.3466 58.6134C16.48 58.6668 16.6133 58.6668 16.7466 58.6668C17.3066 58.6668 17.84 58.2934 18.0266 57.7334C18.5333 56.1334 19.9733 55.0401 21.6266 55.0401C22.4 55.0401 23.1466 55.2801 23.7866 55.7334C24.4533 56.2134 24.96 56.9068 25.2266 57.7334C25.44 58.4268 26.1866 58.8268 26.9066 58.6134C27.6 58.4001 28 57.6534 27.7866 56.9334C27.4933 56.0001 26.9866 55.1468 26.32 54.4534C27.6533 52.6134 29.7066 51.4668 32 51.4668C34.2933 51.4668 36.3466 52.6134 37.68 54.4534C37.04 55.1468 36.5066 56.0001 36.2133 56.9334C36 57.6268 36.3733 58.3734 37.0933 58.6134C37.8133 58.8268 38.5333 58.4534 38.7733 57.7334C39.04 56.9068 39.5466 56.2134 40.2133 55.7334C40.8533 55.2801 41.6 55.0401 42.3733 55.0401C44.0266 55.0401 45.4933 56.1068 45.9733 57.7334C46.16 58.2934 46.6666 58.6668 47.2533 58.6668C47.3866 58.6668 47.52 58.6668 47.6533 58.6134C48.3466 58.4001 48.7466 57.6534 48.5333 56.9334Z" fill="#002EFF"/>
<path d="M43.4935 25.4932H43.2268C42.5602 17.1732 38.8268 12.9599 32.9602 6.4532L31.9735 5.35986L30.9868 6.4532C25.1735 12.9332 21.4668 17.1199 20.7735 25.4932H20.5068C16.0802 25.4932 12.5068 29.0665 12.5068 33.4932V40.3465C12.5068 41.8132 13.7068 43.0132 15.1735 43.0132H48.8268C50.2935 43.0132 51.4935 41.8132 51.4935 40.3465V33.4932C51.4935 29.0665 47.9202 25.4932 43.4935 25.4932ZM15.1735 40.3465V33.4932C15.1735 30.5599 17.5735 28.1599 20.5068 28.1599H20.6402C20.6402 28.1599 20.6402 28.2665 20.6402 28.3199V40.3465H15.1735ZM23.3068 40.3465V28.3199C23.3068 28.3199 23.3068 28.2132 23.3068 28.1599C23.3068 27.1999 23.3602 26.3199 23.4135 25.4932C24.0002 18.6132 26.8535 15.0399 31.9468 9.3332C37.0935 15.0665 39.9468 18.6399 40.5335 25.4932C40.6135 26.3199 40.6402 27.1999 40.6402 28.1599C40.6402 28.2132 40.6402 28.2665 40.6402 28.3199V40.3465H23.2535H23.3068ZM48.8268 40.3465H43.3602V28.3199C43.3602 28.3199 43.3602 28.2132 43.3602 28.1599H43.4935C46.4268 28.1599 48.8268 30.5599 48.8268 33.4932V40.3465Z" fill="#002EFF"/>
</g>
<g clip-path="url(#clip1_1_4343)">
<path d="M31.9997 28.2933C29.413 28.2933 27.333 26.1866 27.333 23.6266C27.333 21.0666 29.4397 18.96 31.9997 18.96C34.5597 18.96 36.6663 21.0666 36.6663 23.6266C36.6663 26.1866 34.5597 28.2933 31.9997 28.2933ZM31.9997 21.6266C30.9063 21.6266 29.9997 22.5333 29.9997 23.6266C29.9997 24.72 30.9063 25.6266 31.9997 25.6266C33.093 25.6266 33.9997 24.72 33.9997 23.6266C33.9997 22.5333 33.093 21.6266 31.9997 21.6266Z" fill="#FF3D00"/>
<path d="M32.0003 47.1198C31.2537 47.1198 30.667 46.5331 30.667 45.7864V37.9198C30.667 37.1731 31.2537 36.5864 32.0003 36.5864C32.747 36.5864 33.3337 37.1731 33.3337 37.9198V45.7864C33.3337 46.5331 32.747 47.1198 32.0003 47.1198Z" fill="#FF3D00"/>
</g>
<defs>
<clipPath id="clip0_1_4343">
<rect width="38.9867" height="53.3133" fill="white" transform="translate(12.5068 5.35986)"/>
</clipPath>
<clipPath id="clip1_1_4343">
<rect width="9.33333" height="28.1598" fill="white" transform="translate(27.333 18.96)"/>
</clipPath>
</defs>
</svg>
