<svg width="32" height="32" viewBox="0 0 32 32" fill="none" xmlns="http://www.w3.org/2000/svg">
<path d="M24.8089 8.24479V8.74806L15.9866 15.4761L7.16425 8.74806V8C7.16425 8 6.13184 8.23775 5.8905 9.31209C6.03799 9.63439 6.30615 9.83583 6.30615 9.83583L12.5408 14.5898L13.6536 15.4493L15.1151 16.5639C15.1151 16.5639 15.9061 17.2219 16.8581 16.5639L18.3196 15.4358L19.4324 14.5898L25.667 9.83583C25.667 9.83583 25.9084 9.67468 26.0827 9.31209C26.257 8.9495 25.5196 8.01649 24.8089 8.24479Z" fill="#FF3D00"/>
<path d="M26.2302 7.45895C25.8145 7.16351 25.3318 6.94864 24.8223 6.81435C24.4872 6.73377 24.1251 6.66663 23.7631 6.66663H8.23687C7.87486 6.66663 7.51285 6.73377 7.17765 6.81435C6.66816 6.94864 6.18548 7.16351 5.76983 7.45895C4.69721 8.21099 4 9.43305 4 10.8297V21.1702C4 23.4666 5.90391 25.3333 8.23687 25.3333H23.7631C26.0961 25.3333 28 23.4666 28 21.1702V10.8297C28 9.43305 27.3028 8.21099 26.2302 7.45895ZM26.5788 21.1702C26.5788 21.8283 26.3374 22.4326 25.9486 22.9026L19.4458 14.5496L18.333 15.3956L24.8223 23.7352C24.4872 23.8695 24.1385 23.9501 23.7631 23.9501H8.23687C7.86145 23.9501 7.51285 23.8695 7.19106 23.7486L13.667 15.4091L12.5542 14.5496L6.0514 22.916C5.66257 22.4326 5.42123 21.8417 5.42123 21.1702V10.8297C5.42123 10.2522 5.59553 9.71507 5.90391 9.2719C6.34637 8.58701 7.17765 8.26471 7.17765 8.26471C7.51285 8.13042 7.86145 8.04984 8.23687 8.04984H23.7631C24.1385 8.04984 24.4872 8.14384 24.8223 8.26471C25.5196 8.51986 25.6804 8.73473 26.0961 9.2719C26.4313 9.70164 26.5788 10.2522 26.5788 10.8297V21.1702Z" fill="#002EFF"/>
</svg>
