<svg width="56" height="60" viewBox="0 0 56 60" fill="none" xmlns="http://www.w3.org/2000/svg">
<path d="M55.0683 20.3787H46.6667V12.9723L32.8297 0H0V60H46.6667V50.8333H55.0683V20.3787ZM50.0683 45.8333H15.0683V25.3788H50.0683V45.8333Z" fill="black"/>
<path d="M20.9434 37.646H24.6634L25.6534 40.301H27.7834L23.7334 29.651H21.9034L17.8384 40.301H19.9684L20.9434 37.646ZM22.8184 32.006L24.2884 36.191H21.2884L22.8184 32.006Z" fill="#020247"/>
<path d="M31.0234 36.731H33.5436C34.0334 36.731 34.4834 36.6312 34.8936 36.431C35.3034 36.2312 35.6534 35.966 35.9436 35.636C36.2334 35.306 36.4584 34.9287 36.6186 34.5035C36.7784 34.0787 36.8584 33.641 36.8584 33.191C36.8584 32.7612 36.7734 32.3337 36.6036 31.9085C36.4334 31.4837 36.1986 31.1037 35.8986 30.7685C35.5986 30.4335 35.2411 30.1635 34.8263 29.9585C34.4111 29.7537 33.9586 29.651 33.4686 29.651H28.9536V40.301H31.0236V36.731H31.0234ZM31.0234 31.466H33.3334C33.5134 31.466 33.6909 31.5035 33.8658 31.5785C34.0408 31.6535 34.1933 31.766 34.3234 31.916C34.4533 32.066 34.5581 32.2487 34.6384 32.4635C34.7183 32.6787 34.7584 32.921 34.7584 33.191C34.7584 33.7212 34.6309 34.1412 34.3759 34.451C34.1211 34.761 33.8033 34.916 33.4234 34.916H31.0234V31.466Z" fill="#020247"/>
<path d="M40.3683 37.121L41.7333 35.696L45.0483 40.301H47.3733L43.0383 34.376L47.1183 29.651H44.8382L40.3683 34.721V29.666H38.2983V40.301H40.3683V37.121Z" fill="#020247"/>
</svg>
