<svg width="50" height="60" viewBox="0 0 50 60" fill="none" xmlns="http://www.w3.org/2000/svg">
<path d="M2.5304 22.0562C-2.54206 30.8584 0.682601 44.2164 6.29191 52.3158C9.09185 56.3651 11.9266 60 15.8093 60C15.8825 60 15.9558 59.9986 16.031 59.9956C17.8552 59.9229 19.1734 59.3612 20.448 58.8185C21.8789 58.2086 23.3589 57.5781 25.6802 57.5781C27.8886 57.5781 29.2979 58.1882 30.6608 58.7779C32.004 59.359 33.3875 59.9602 35.4319 59.9219C39.8054 59.8404 42.4906 55.9182 44.8597 52.4581C47.3319 48.8453 48.5721 45.3375 48.9905 43.9971L49.0074 43.9438C49.0871 43.7055 48.9745 43.4455 48.7462 43.3406C48.7399 43.3377 48.7166 43.328 48.7102 43.3253C47.94 43.0103 41.1842 40.0133 41.1132 31.8446C41.0473 25.208 46.1813 21.6936 47.2109 21.0566L47.2589 21.0267C47.3705 20.9549 47.4482 20.841 47.4745 20.7108C47.5009 20.5807 47.4734 20.4454 47.3986 20.336C43.8549 15.1501 38.4234 14.3685 36.2366 14.2744C35.9193 14.2428 35.5918 14.2268 35.2629 14.2268C32.6945 14.2268 30.2341 15.1969 28.2574 15.9763C26.893 16.5143 25.7144 16.979 24.9016 16.979C23.9882 16.979 22.8029 16.5086 21.4304 15.9641C19.595 15.2356 17.5147 14.4102 15.3124 14.4102C15.2598 14.4102 15.2081 14.4108 15.1572 14.4118C10.0365 14.4871 5.19795 17.4167 2.5304 22.0562Z" fill="black"/>
<path d="M36.2411 0.000377987C33.1402 0.126673 29.4204 2.03546 27.1971 4.63966C25.3076 6.82858 23.4617 10.4782 23.948 14.1568C23.9785 14.387 24.1658 14.5646 24.3973 14.5825C24.6066 14.5989 24.8203 14.6071 25.0331 14.6073C28.0652 14.6073 31.3361 12.9299 33.5698 10.2289C35.9209 7.37684 37.1097 3.71664 36.75 0.438083C36.7217 0.181165 36.4957 -0.0096548 36.2411 0.000377987Z" fill="black"/>
</svg>
