<svg width="32" height="32" viewBox="0 0 32 32" fill="none" xmlns="http://www.w3.org/2000/svg">
<g id="Usuarios">
<path id="Secondary" d="M23.5199 15.9734C25.4666 14.9734 26.7866 12.9734 26.7866 10.6934C26.7866 7.74671 24.5733 5.21338 21.5333 4.80005C20.9333 4.70671 20.2933 4.72005 19.6533 4.85338C19.1866 4.94671 18.7333 5.10671 18.3199 5.30671C18.7333 5.58671 19.1333 5.90671 19.4933 6.28005H19.5066C19.6533 6.24005 19.7733 6.18671 19.9199 6.16005C20.2266 6.09338 20.5333 6.06671 20.8266 6.06671C20.9999 6.06671 21.1733 6.09338 21.4533 6.13338C23.7333 6.44005 25.4533 8.40005 25.4533 10.6934C25.4533 12.9867 23.7333 14.9467 21.3333 15.28C21.2666 15.28 21.1733 15.28 21.1066 15.28C21.1066 15.28 20.9066 15.2934 20.6799 15.2934L20.1866 16.7467C20.5333 16.7067 20.8933 16.7067 21.2399 16.7467L21.4399 16.7734C23.8799 17.04 25.9066 18.8 26.7866 21.3334H20.7866C21.2133 21.7334 21.6133 22.1867 21.9466 22.6667H27.6666C27.8799 22.6667 28.0666 22.5734 28.1866 22.4134C28.3199 22.2534 28.3599 22.04 28.3199 21.84C27.6666 19.0534 25.8666 16.92 23.5199 15.96V15.9734Z" fill="#FF3D00"/>
<path id="Primary" d="M22.36 23.3066C22.36 23.3066 22.3333 23.2133 22.28 23.1733C22.1733 23 22.0533 22.84 21.9333 22.68C21.6 22.2 21.2133 21.7466 20.7733 21.3466C20.7733 21.3466 20.76 21.3333 20.76 21.3466C20.4933 21.0933 20.2266 20.8533 19.9333 20.64C19.9333 20.6133 19.9066 20.6 19.8933 20.6133C19.6666 20.4266 19.4133 20.2533 19.16 20.1066C19.08 20.04 18.9866 19.9866 18.8933 19.9466C18.6666 19.8133 18.44 19.68 18.2 19.5733C18.1333 19.5333 18.08 19.5066 18.0133 19.4933C17.7066 19.3466 17.4 19.2266 17.08 19.12C17.08 19.12 17.0711 19.12 17.0533 19.12C17.36 18.9866 17.6666 18.84 17.9466 18.68C18.1866 18.5466 18.4 18.4 18.6133 18.24C18.7066 18.1866 18.8 18.1066 18.8933 18.0266C18.96 17.9866 19.0266 17.92 19.0933 17.8666C20.7733 16.4266 21.84 14.28 21.84 11.8933C21.84 9.98664 21.16 8.23997 20.04 6.87997C19.96 6.79997 19.8933 6.70664 19.8133 6.62664C19.7066 6.50664 19.6 6.39997 19.4933 6.29331C19.1333 5.91997 18.7333 5.59997 18.3066 5.31997C18.2933 5.31997 18.2933 5.33331 18.28 5.33331C17.6933 4.94664 17.0533 4.62664 16.36 4.39997C16.2266 4.35997 16.0933 4.31997 15.9466 4.27997C15.6666 4.19997 15.3733 4.14664 15.08 4.10664H14.9333C14.7733 4.06664 14.6133 4.03997 14.44 4.03997C14.28 4.01331 14.12 4.01331 13.96 4.01331C13.7066 4.01331 13.4533 4.02664 13.2133 4.05331C12.9733 4.07997 12.7333 4.11997 12.48 4.15997C12.2933 4.19997 12.12 4.23997 11.9466 4.27997C11.88 4.29331 11.8133 4.30664 11.7466 4.33331C8.43996 5.31997 6.11996 8.38664 6.11996 11.8933C6.11996 15.0533 8.02663 17.84 10.8266 19.08C10.8133 19.08 10.8 19.0933 10.7866 19.0933C9.95996 19.3866 9.1733 19.7866 8.42663 20.3066C8.38663 20.3333 8.34663 20.36 8.30663 20.3866C8.0933 20.5333 7.8933 20.68 7.70663 20.84C7.14663 21.2933 6.6533 21.8 6.22663 22.3466C6.07996 22.52 5.94663 22.6933 5.83996 22.8666C5.7733 22.9466 5.71996 23.0266 5.67996 23.1066C5.54663 23.28 5.43996 23.4666 5.3333 23.6666C5.1333 24.0133 4.94663 24.3866 4.79996 24.76C4.47996 25.4933 4.2133 26.2933 4.0133 27.1733C3.98663 27.3333 4.0133 27.5066 4.0933 27.6533C4.10663 27.6933 4.11996 27.72 4.14663 27.7466C4.26663 27.9066 4.46663 28 4.66663 28H23.36C23.5466 28 23.7066 27.9333 23.8266 27.8C23.8533 27.7866 23.8666 27.76 23.88 27.7466C24.0133 27.5866 24.0533 27.3733 24.0133 27.1733C23.68 25.7333 23.12 24.44 22.36 23.3066ZM7.4533 11.8933C7.4533 8.75997 9.66663 6.06664 12.7333 5.45331C13.1733 5.37331 13.6 5.31997 14.0133 5.31997C14.2666 5.31997 14.5066 5.35997 14.7466 5.39997H14.9066C15.6666 5.51997 16.3733 5.75997 17.0266 6.10664C17.4533 6.31997 17.84 6.58664 18.2133 6.89331C19.6533 8.09331 20.5733 9.90664 20.5733 11.8933C20.5733 13.08 20.24 14.2 19.68 15.1733C19.6 15.2933 19.52 15.4 19.44 15.52C19.2533 15.7866 19.0533 16.0533 18.8266 16.3066C17.8133 17.3866 16.4533 18.1466 14.9066 18.36H14.76C14.12 18.4666 13.4266 18.4666 12.7333 18.32C9.66663 17.72 7.4533 15.0133 7.4533 11.8933ZM5.5333 26.6666C6.03996 24.9066 6.82663 23.5333 7.90663 22.4666C9.58663 20.7866 11.7466 19.8666 13.96 19.8666H14C14.2133 19.8666 14.4133 19.8933 14.6266 19.92L14.8933 19.96C15.0533 19.9733 15.2133 20.0266 15.3866 20.0533C16.56 20.2533 17.6533 20.6933 18.6266 21.3466C19.1866 21.72 19.7066 22.1733 20.1733 22.68C21.2 23.76 22 25.1066 22.4933 26.6666H5.5333Z" fill="#002EFF"/>
</g>
</svg>
