<svg width="350" height="240" viewBox="0 0 350 240" fill="none" xmlns="http://www.w3.org/2000/svg">
<mask id="mask0_6587_33335" style="mask-type:alpha" maskUnits="userSpaceOnUse" x="0" y="0" width="350" height="240">
<rect width="350" height="240" rx="16" fill="#D9D9D9"/>
</mask>
<g mask="url(#mask0_6587_33335)">
<path d="M191.538 777.804C179.507 787.24 159.955 785.668 147.923 774.659L75.7331 705.46C65.2053 694.452 65.2053 678.725 77.2371 669.289C77.2371 669.289 188.53 584.363 188.53 400.359C188.53 227.363 71.2212 126.711 71.2212 126.711C59.1895 117.275 59.1895 99.9757 69.7172 88.9669L140.404 21.3413C150.931 10.3325 170.483 8.75977 184.019 18.1959C184.019 18.1959 350.959 137.72 350.959 400.359C353.967 659.852 191.538 777.804 191.538 777.804Z" fill="#42E8B4"/>
</g>
<g clip-path="url(#clip0_6587_33335)">
<path d="M219.977 179.324H185.822V184.713H219.977V179.324Z" fill="white" stroke="black" stroke-miterlimit="10"/>
<path d="M185.981 131.383H180.731V223.832H185.981V131.383Z" fill="white" stroke="black" stroke-miterlimit="10"/>
<path d="M233.45 125.992H176.665V131.381H233.45V125.992Z" fill="white" stroke="black" stroke-miterlimit="10"/>
<path d="M106.745 106.625H101.495V223.833H106.745V106.625Z" fill="white" stroke="black" stroke-miterlimit="10"/>
<path d="M148.684 48.4366C148.615 43.819 148.545 38.2551 148.473 33.6376C148.449 31.9444 148.514 30.0292 149.77 28.8967C150.642 28.1095 151.878 27.9077 153.041 27.7418C153.878 27.6207 154.714 27.5018 155.553 27.3807C157.412 27.1138 158.108 27.9772 159.386 29.1681C159.592 29.3609 159.655 29.6637 159.855 29.8364C160.124 30.0673 160.554 30.1212 160.85 30.3566C161.756 31.081 161.548 31.8099 161.783 32.7764C161.992 33.6309 162.839 34.1467 162.844 35.1087C162.844 35.3936 162.774 35.6761 162.703 35.952C162.629 36.2457 162.552 36.5373 162.478 36.8311C162.268 37.6586 161.969 38.5938 161.187 38.9369C160.787 39.1118 160.334 39.0916 159.899 39.123C159.464 39.1544 158.996 39.2576 158.722 39.5962C158.774 38.9548 158.825 38.3134 158.877 37.6698C158.886 37.5599 158.895 37.4433 158.949 37.3469C159.045 37.1675 159.254 37.0867 159.446 37.0217C160.009 36.8288 160.572 36.636 161.135 36.4431" stroke="black" stroke-linecap="round" stroke-linejoin="round"/>
<path d="M155.961 48.8458C155.991 48.1326 156.02 46.4708 156.049 45.7577C156.836 45.6388 157.406 44.9055 157.628 44.1408C157.85 43.376 157.809 42.5642 157.861 41.7703C157.915 40.9764 158.09 40.1399 158.646 39.5703" stroke="black" stroke-linecap="round" stroke-linejoin="round"/>
<path d="M161.83 32.9599C160.895 32.8231 159.933 33.0339 159.063 33.4039C158.193 33.774 157.397 34.2987 156.609 34.8213" stroke="black" stroke-linecap="round" stroke-linejoin="round"/>
<path d="M159.875 29.9297C159.097 30.0799 158.325 30.2616 157.563 30.4769C156.897 30.6653 156.226 30.885 155.665 31.2887C155.168 31.6475 154.773 32.1387 154.253 32.4616" stroke="black" stroke-linecap="round" stroke-linejoin="round"/>
<path d="M157.966 28.1133C156.634 28.1402 155.307 28.4519 154.1 29.0193C153.815 29.1539 153.537 29.3019 153.259 29.4499C152.703 29.7459 152.144 30.0442 151.588 30.3402" stroke="black" stroke-linecap="round" stroke-linejoin="round"/>
<path d="M159.034 37.2578C159.242 37.8611 159.955 38.2378 160.572 38.0719" stroke="black" stroke-linecap="round" stroke-linejoin="round"/>
<path d="M247.247 47.4801C245.782 43.1002 244.002 37.8279 242.537 33.448C242.001 31.8423 241.304 30.0572 239.741 29.4046C238.658 28.9516 237.424 29.1714 236.272 29.4001C235.442 29.5638 234.612 29.7275 233.782 29.8913C231.939 30.2546 231.571 31.2996 230.759 32.8493C230.629 33.1004 230.67 33.4054 230.537 33.6342C230.36 33.9414 229.97 34.1343 229.77 34.455C229.156 35.4372 229.595 36.0584 229.692 37.0474C229.777 37.922 229.149 38.6913 229.463 39.5995C229.557 39.8709 229.716 40.1108 229.876 40.3486C230.044 40.5997 230.212 40.8531 230.378 41.1043C230.851 41.8152 231.443 42.5979 232.295 42.6629C232.73 42.6943 233.15 42.5284 233.571 42.4118C233.993 42.2951 234.469 42.2391 234.841 42.4678C234.578 41.8803 234.318 41.2904 234.056 40.7029C234.011 40.602 233.964 40.4966 233.881 40.4203C233.731 40.2835 233.506 40.2768 233.302 40.279C232.708 40.2835 232.112 40.288 231.517 40.2925" stroke="black" stroke-linecap="round" stroke-linejoin="round"/>
<path d="M240.517 50.28C240.252 49.6162 239.674 48.0576 239.409 47.396C238.626 47.544 237.848 47.0417 237.384 46.3958C236.92 45.7499 236.691 44.9695 236.377 44.2384C236.063 43.5073 235.619 42.7762 234.906 42.4219" stroke="black" stroke-linecap="round" stroke-linejoin="round"/>
<path d="M229.714 37.2399C230.553 36.8003 231.528 36.6792 232.473 36.742C233.417 36.8048 234.341 37.0336 235.258 37.2646" stroke="black" stroke-linecap="round" stroke-linejoin="round"/>
<path d="M230.555 33.7329C231.34 33.6163 232.127 33.5333 232.919 33.484C233.61 33.4414 234.316 33.4257 234.98 33.6208C235.567 33.7935 236.103 34.1276 236.702 34.2577" stroke="black" stroke-linecap="round" stroke-linejoin="round"/>
<path d="M231.753 31.3858C233.02 30.9709 234.374 30.8229 235.7 30.9597C236.014 30.9911 236.325 31.0404 236.635 31.0875C237.258 31.1839 237.882 31.2781 238.505 31.3746" stroke="black" stroke-linecap="round" stroke-linejoin="round"/>
<path d="M233.778 40.3672C233.78 41.0063 233.233 41.5984 232.596 41.6455" stroke="black" stroke-linecap="round" stroke-linejoin="round"/>
<path d="M209.955 28.1328H188.762V45.3763H209.955V28.1328Z" fill="black"/>
<path d="M214.157 26.221C213.37 23.7048 210.502 24.4112 209.501 24.7454C208.199 18.9236 202.507 15.1941 196.692 16.3917C191.899 17.3806 188.508 21.4129 188.085 26.0797C186.957 26.0797 185.192 26.378 185.039 28.2506C184.878 30.2398 187.033 31.4396 188.773 31.0381C190.177 34.7115 193.422 37.304 197.174 37.9275V41.4685L193.411 41.1164L194.727 50.8494L206.234 49.3334L208.308 41.4842L203.956 41.4663V36.8331C206.647 35.4202 208.604 32.9332 209.389 30.0312C211.697 31.1256 214.994 28.8965 214.157 26.221Z" fill="white" stroke="black" stroke-miterlimit="10"/>
<path d="M172.59 106.67L127.46 185.421L142.465 209.386L201.287 106.625L172.59 106.67Z" fill="#FF3D00"/>
<path d="M194.066 106.625H220.793L221.04 111.817C221.34 118.161 219.88 124.458 216.842 129.908L173.481 207.377L155.271 186.215" fill="#FF3D00"/>
<path d="M200.562 45.8026C206.651 45.8026 207.781 41.4856 207.781 41.4856L219.098 42.1427C222.767 42.1135 226.256 43.7349 228.597 46.5606L263.47 79.0426C266.87 82.5231 267.049 88.0265 263.876 91.7179C263.82 91.7829 263.766 91.8457 263.71 91.9107C260.514 95.6357 254.986 96.2681 251.03 93.3617L224.778 75.6854L220.737 101.543L148.823 101.419C146.215 101.39 138.637 95.2545 143.192 90.379C143.192 90.379 164.12 60.6039 171.056 49.1239C174.701 43.0913 180.022 40.7523 183.505 40.9227L194.265 41.1627C194.265 41.1627 194.005 45.8049 200.562 45.8049V45.8026Z" fill="#002EFF"/>
<path d="M252.849 44.3516L235.114 50.6982L248.411 87.995C250.151 93.0409 255.762 95.5997 260.714 93.6038C265.338 91.7402 267.679 86.5687 266.027 81.8637L252.849 44.3516Z" fill="#002EFF"/>
<path d="M160.859 48.3932L142.066 47.1328L139.368 86.6364C138.949 91.9581 143.073 96.5443 148.408 96.69C153.394 96.8268 157.603 93.0189 157.966 88.047L160.859 48.3932Z" fill="#002EFF"/>
<path d="M128.855 200.367C125.334 193.271 125.235 186.151 128.635 184.462C132.035 182.776 137.646 187.16 141.167 194.256C144.688 201.352 144.786 208.472 141.387 210.161C137.987 211.847 132.376 207.463 128.855 200.367Z" fill="white" stroke="black" stroke-miterlimit="10"/>
<path d="M158.475 199.86C154.208 193.634 153.533 186.68 156.968 184.323C160.404 181.966 166.65 185.103 170.917 191.329C175.185 197.554 175.86 204.509 172.424 206.866C168.989 209.22 162.743 206.085 158.475 199.86Z" fill="white" stroke="black" stroke-miterlimit="10"/>
<path d="M175.703 203.201C175.566 200.017 174.131 196.021 171.53 192.226C169.632 189.461 167.412 187.236 165.217 185.738L164.791 186.786L161.42 195.068L162.952 203.686L163.288 205.585L165.214 216.424L168.195 215.177L171.014 211.546L174.837 204.738L175.701 203.201H175.703Z" fill="white" stroke="black" stroke-miterlimit="10"/>
<path d="M126.558 193.875C126.989 195.931 127.754 198.149 128.855 200.367C131.015 204.72 133.959 208.048 136.7 209.587L142.889 198.564C142.456 197.158 141.887 195.709 141.167 194.258C138.24 188.362 133.874 184.341 130.53 184.117L126.561 193.875H126.558Z" fill="white" stroke="black" stroke-miterlimit="10"/>
<path d="M156.455 223.279L151.857 177.074L152.564 177.09C156.372 177.18 159.747 179.664 160.962 183.275L164.986 195.224C166.585 199.976 169.453 204.192 173.283 207.423L172.662 209.029L167.538 217.879C165.661 221.119 162.308 223.151 158.567 223.312L156.455 223.277V223.279Z" fill="white"/>
<path d="M152.043 177.248L152.559 177.259C156.298 177.347 159.61 179.787 160.803 183.33L164.826 195.279C166.423 200.022 169.276 204.234 173.084 207.476L172.512 208.957L167.394 217.795C165.548 220.984 162.247 222.984 158.567 223.143L156.609 223.11L152.046 177.244M151.673 176.898L156.304 223.439L158.572 223.477C162.353 223.316 165.788 221.235 167.686 217.961L172.817 209.1L173.485 207.371C169.635 204.151 166.748 199.928 165.147 195.169L161.124 183.22C159.881 179.531 156.464 177.013 152.571 176.921L151.673 176.901V176.898Z" fill="black"/>
<path d="M156.121 223.28C152.972 223.28 150.205 221.038 149.543 217.95L142.939 187.152C142.465 184.941 142.891 182.685 144.141 180.803C145.385 178.926 147.287 177.661 149.496 177.242C150.012 177.143 150.536 177.094 151.055 177.094C155.268 177.094 158.805 180.265 159.278 184.472L162.81 215.772C163.023 217.649 162.434 219.544 161.193 220.968C159.958 222.388 158.173 223.229 156.296 223.278C156.237 223.278 156.177 223.28 156.118 223.28H156.121Z" fill="white"/>
<path d="M151.055 177.263C155.183 177.263 158.648 180.371 159.112 184.491L162.644 215.791C162.851 217.623 162.277 219.469 161.068 220.857C159.864 222.241 158.123 223.061 156.293 223.108C156.235 223.108 156.179 223.111 156.121 223.111C153.05 223.111 150.353 220.924 149.707 217.912L143.102 187.115C142.638 184.948 143.055 182.739 144.28 180.894C145.5 179.055 147.363 177.814 149.527 177.404C150.032 177.308 150.545 177.258 151.055 177.258M151.055 176.922C150.53 176.922 149.998 176.971 149.465 177.072C144.798 177.96 141.775 182.528 142.775 187.184L149.379 217.982C150.063 221.175 152.88 223.445 156.123 223.445C156.183 223.445 156.244 223.445 156.305 223.443C160.35 223.337 163.436 219.78 162.981 215.75L159.449 184.45C158.958 180.091 155.268 176.922 151.057 176.922H151.055Z" fill="black"/>
<path d="M109.427 177.457L110.134 177.345C110.607 177.269 111.089 177.23 111.569 177.23C114.868 177.23 117.911 179.025 119.512 181.911L124.314 190.567C127.666 196.611 131.952 202.038 137.058 206.696L137.722 207.302C137.247 208.259 133.896 214.965 132.548 217.115C130.685 220.085 126.749 222.024 122.022 222.309H122.004L120.333 222.785L109.432 177.457H109.427Z" fill="white"/>
<path d="M111.569 177.062V177.399C114.805 177.399 117.792 179.159 119.364 181.992L124.166 190.648C127.527 196.708 131.824 202.148 136.944 206.82L137.514 207.34C136.875 208.621 133.706 214.954 132.405 217.026C130.571 219.948 126.684 221.861 122.01 222.141H121.975L121.939 222.152L120.454 222.574L109.636 177.594L110.163 177.511C110.627 177.437 111.102 177.399 111.571 177.399V177.062M111.571 177.062C111.087 177.062 110.598 177.101 110.111 177.179L109.225 177.32L120.21 222.993L122.031 222.475C126.455 222.211 130.678 220.408 132.692 217.203C134.161 214.864 137.931 207.262 137.931 207.262L137.173 206.571C132.091 201.933 127.799 196.501 124.464 190.485L119.662 181.828C118.014 178.857 114.897 177.062 111.573 177.062H111.571Z" fill="black"/>
<path d="M196.692 16.3921C192.931 17.168 190.04 19.8233 188.762 23.1827C188.979 22.8351 191.135 19.4891 194.007 18.2624C194.007 18.2624 196.925 22.705 209.3 23.9833C207.689 18.6033 202.249 15.2461 196.692 16.3921Z" fill="black"/>
<path d="M119.243 222.891C116.355 222.891 113.794 221.05 112.87 218.312C112.802 218.103 105.962 197.157 104.325 190.048C103.657 187.144 103.635 184.292 104.262 182.015C104.937 179.573 106.308 177.914 108.23 177.218C109.387 176.799 110.477 176.586 111.472 176.586C114.886 176.586 117.339 179.093 118.763 184.036L125.809 214.648C126.231 216.482 125.863 218.422 124.796 219.972C123.731 221.521 122.049 222.562 120.185 222.824C119.873 222.869 119.557 222.889 119.243 222.889V222.891Z" fill="white"/>
<path d="M111.468 176.756C114.796 176.756 117.193 179.218 118.595 184.076L125.641 214.688C126.054 216.475 125.693 218.368 124.652 219.879C123.612 221.391 121.975 222.404 120.158 222.66C119.855 222.703 119.546 222.725 119.241 222.725C116.424 222.725 113.928 220.931 113.027 218.262C112.957 218.051 106.119 197.112 104.484 190.012C103.821 187.135 103.798 184.311 104.419 182.062C105.079 179.674 106.413 178.054 108.281 177.379C109.42 176.967 110.492 176.758 111.466 176.758M111.466 176.422C110.416 176.422 109.308 176.651 108.167 177.063C103.991 178.575 102.823 184.3 104.157 190.088C105.814 197.285 112.706 218.368 112.706 218.368C113.663 221.202 116.317 223.061 119.239 223.061C119.557 223.061 119.88 223.039 120.203 222.994C124.21 222.431 126.875 218.556 125.966 214.614L118.918 183.993C117.348 178.543 114.668 176.422 111.466 176.422Z" fill="black"/>
<path d="M210.071 27.5018L212.094 25.9297" stroke="black" stroke-linecap="round" stroke-linejoin="round"/>
<path d="M210.86 27.043L211.753 28.4244" stroke="black" stroke-linecap="round" stroke-linejoin="round"/>
<path d="M188.822 29.1397L186.925 27.6641" stroke="black" stroke-linecap="round" stroke-linejoin="round"/>
<path d="M188.082 28.707L187.244 30.001" stroke="black" stroke-linecap="round" stroke-linejoin="round"/>
<path d="M174.398 58.0547L174.205 84.1071" stroke="black" stroke-linecap="round" stroke-linejoin="round"/>
<path d="M208.506 96.2891H161.075C160.952 96.2891 160.853 96.3885 160.853 96.5111V100.983C160.853 101.105 160.952 101.205 161.075 101.205H208.506C208.628 101.205 208.728 101.105 208.728 100.983V96.5111C208.728 96.3885 208.628 96.2891 208.506 96.2891Z" fill="#10069F"/>
<path d="M126.005 64.5586H163.932C165.228 64.5586 166.407 65.3031 166.966 66.4738L183.507 101.205H138.137L122.973 69.3623C121.91 67.1331 123.535 64.5586 126.007 64.5586H126.005Z" fill="#10069F"/>
<path d="M226.498 46.8398L222.758 63.5226" stroke="black" stroke-linecap="round" stroke-linejoin="round"/>
<path d="M235.397 50.5977L245.038 78.5339" stroke="black" stroke-linecap="round" stroke-linejoin="round"/>
<path d="M242.277 80.3005L243.986 75.582" stroke="black" stroke-linecap="round" stroke-linejoin="round"/>
<path d="M182.032 120.09L194.729 120.453" stroke="black" stroke-linecap="round" stroke-linejoin="round"/>
<path d="M158.883 179.92L190.188 120.293" stroke="black" stroke-linecap="round" stroke-linejoin="round"/>
<path d="M263.315 101.418H83.7268V106.623H263.315V101.418Z" fill="white" stroke="black" stroke-miterlimit="10"/>
<path d="M250.945 106.625H245.695V223.833H250.945V106.625Z" fill="white" stroke="black" stroke-miterlimit="10"/>
<path d="M225.227 131.383H219.977V223.832H225.227V131.383Z" fill="white" stroke="black" stroke-miterlimit="10"/>
</g>
<defs>
<clipPath id="clip0_6587_33335">
<rect width="208" height="208" fill="white" transform="translate(71 16)"/>
</clipPath>
</defs>
</svg>
