<svg width="350" height="240" viewBox="0 0 350 240" fill="none" xmlns="http://www.w3.org/2000/svg">
<mask id="mask0_3_131" style="mask-type:alpha" maskUnits="userSpaceOnUse" x="0" y="0" width="350" height="240">
<rect width="350" height="240" rx="16" fill="#D9D9D9"/>
</mask>
<g mask="url(#mask0_3_131)">
<path d="M191.538 777.804C179.507 787.24 159.955 785.668 147.923 774.659L75.7331 705.46C65.2053 694.452 65.2053 678.725 77.2371 669.289C77.2371 669.289 188.53 584.363 188.53 400.359C188.53 227.363 71.2212 126.711 71.2212 126.711C59.1895 117.275 59.1895 99.9757 69.7172 88.9669L140.404 21.3413C150.931 10.3325 170.483 8.75977 184.019 18.1959C184.019 18.1959 350.959 137.72 350.959 400.359C353.967 659.852 191.538 777.804 191.538 777.804Z" fill="#42E8B4"/>
</g>
<path d="M229.638 62.059L224.125 73.5857C223.454 74.9845 221.355 74.5078 221.355 72.959V33.9252C221.355 33.6163 221.451 33.3142 221.637 33.0657L226.831 25.9506C227.659 24.8181 229.45 25.3933 229.463 26.7966L229.779 61.4189C229.779 61.6405 229.732 61.8621 229.638 62.059V62.059Z" fill="black"/>
<path d="M226.294 40.6509L225.312 42.7055C225.191 42.954 224.819 42.8689 224.819 42.5959V35.6352C224.819 35.5814 224.835 35.5277 224.868 35.4807L225.795 34.2139C225.943 34.0125 226.261 34.1132 226.265 34.3639L226.321 40.5368C226.321 40.577 226.314 40.6129 226.294 40.6509Z" stroke="white" stroke-miterlimit="10"/>
<path d="M223.508 76.0745V34.1154L229 26" stroke="white" stroke-miterlimit="10"/>
<path d="M176.499 65.4409C176.336 65.4409 176.175 65.3581 176.088 65.2059C175.953 64.9776 176.027 64.6822 176.255 64.5479C179.06 62.8849 179.722 53.6211 179.74 50.1945C179.74 49.9304 179.955 49.7177 180.219 49.7177C180.483 49.7177 180.698 49.9348 180.696 50.2012C180.696 50.7272 180.586 63.0998 176.741 65.3715C176.665 65.4185 176.58 65.4387 176.497 65.4387H176.499V65.4409Z" fill="black"/>
<path d="M182.871 30.6619C182.871 30.6619 195.795 19.565 192.22 16.4629C188.646 13.3608 177.117 26.6243 168.464 33.1732C159.816 39.7221 150.933 45.4406 145.279 47.643C138.039 50.4631 142.405 52.361 150.631 51.571C158.41 50.8189 169.212 42.5511 169.212 42.5511L182.871 30.6619V30.6619Z" fill="#002EFF"/>
<path d="M187.968 34.2184C184.246 24.1488 176.609 19.6881 168.605 22.0561C160.602 24.4241 156.289 33.7103 158.977 42.7973C159.527 44.6617 160.364 46.318 161.412 47.7616L154.084 55.6825L163.99 63.8451L173.507 54.4716C175.436 54.6395 177.397 54.4918 179.302 54.0016C187.386 51.9201 192.37 46.1232 187.97 34.2184H187.968V34.2184Z" fill="white" stroke="black" stroke-miterlimit="10"/>
<path d="M168.605 22.0561C160.602 24.4241 156.289 33.7103 158.977 42.7973C159.547 44.7266 160.432 46.4232 161.533 47.8981L163.594 45.989L164.172 41.1567C164.172 41.1567 177.24 40.8725 174.718 26.8772C174.718 26.8772 182.113 31.734 183.684 26.7496C179.657 22.1076 174.228 20.3954 168.608 22.0539H168.605V22.0561Z" fill="black"/>
<path d="M169.259 41.3156C168.31 38.8134 165.564 37.5555 163.126 38.509C160.689 39.4624 159.485 42.2624 160.436 44.7624C161.385 47.2647 164.131 48.5226 166.569 47.5691C169.006 46.6156 170.21 43.8157 169.259 41.3156V41.3156Z" fill="white"/>
<path d="M175.866 78.8745H175.844C175.579 78.861 175.374 78.6372 175.387 78.3709L176.011 65.1455C169.295 58.1176 168.574 36.0313 168.547 35.089C168.54 34.8249 168.749 34.6033 169.013 34.5966C169.257 34.5966 169.498 34.7981 169.505 35.0622C169.512 35.2905 170.253 58.037 176.84 64.624C176.936 64.7202 176.987 64.8523 176.981 64.9866L176.347 78.4246C176.334 78.682 176.123 78.8812 175.868 78.8812L175.866 78.8745Z" fill="black"/>
<path d="M165.953 58.5697C165.953 58.5697 198.019 89.602 209.029 104.869L217.147 67.0994L230.612 69.783C230.612 69.783 229.428 112.919 225.072 135.849L190.025 118.374L165.958 58.572H165.955L165.953 58.5697Z" fill="white" stroke="black" stroke-miterlimit="10"/>
<path d="M142.974 130.527C142.974 130.527 186.106 110.831 211.435 117.998C254.694 130.238 194.185 211.157 194.185 211.157L166.582 200.443L181.851 166.027L135.892 178.65L142.974 130.527V130.527Z" fill="white" stroke="black" stroke-miterlimit="10"/>
<path d="M142.974 130.194L142.302 134.748L178.832 161.123L191.18 116.485C168.044 118.752 142.976 130.198 142.976 130.198H142.974V130.194Z" fill="#FF3D00"/>
<path d="M142.974 130.194L142.302 134.748L178.832 161.123L191.18 116.485C168.044 118.752 142.976 130.198 142.976 130.198H142.974V130.194Z" stroke="#FF3D00" stroke-miterlimit="10"/>
<path d="M194.185 211.155C194.185 211.155 206.267 194.991 215.775 176.025L185.396 160.145L182.639 166.718L181.846 166.027L166.578 200.443L194.181 211.157H194.183L194.185 211.155Z" fill="white"/>
<path d="M194.185 211.155C194.185 211.155 206.267 194.991 215.775 176.025L185.396 160.145L182.639 166.718L181.846 166.027L166.578 200.443L194.181 211.157H194.183L194.185 211.155Z" stroke="black" stroke-miterlimit="10"/>
<path d="M216.141 200.05L208.299 198.268L212.075 195.186C214.131 193.506 213.815 190.491 211.491 189.623L205.038 187.213C202.957 186.437 200.491 187.873 200.11 190.086L199.057 196.168L191.867 194.536L177.361 198.786L168.484 193.251L163 221.838L225.884 222L225.999 212.95C226.08 206.761 221.959 201.369 216.146 200.05H216.144H216.141Z" fill="white" stroke="black" stroke-miterlimit="10"/>
<path d="M90.4931 112.913C90.4931 112.913 79.168 145.351 92.3105 158.493C105.453 171.636 118.28 181.193 118.28 181.193L58.7156 180.83L57.8069 204.257C57.8069 204.257 154.635 222.778 173.847 222.778C193.06 222.778 213.14 201.958 198.545 181.011C183.948 160.062 137.36 128.237 137.36 128.237L90.4931 112.913V112.913Z" fill="white" stroke="black" stroke-miterlimit="10"/>
<path d="M139.035 128.777L90.1888 112.91C90.1888 112.91 78.8636 145.348 92.0062 158.491C104.229 170.718 116.178 179.836 117.785 181.049L149.415 183.37L172.417 155.078C155.528 140.95 139.037 128.777 139.037 128.777H139.035Z" fill="#FF3D00" stroke="#FF3D00" stroke-miterlimit="10"/>
<path d="M190.795 127.732C190.732 127.732 190.665 127.718 190.6 127.691C190.358 127.584 190.248 127.3 190.358 127.058L197.088 111.957C197.196 111.715 197.478 111.606 197.722 111.713C197.963 111.82 198.073 112.105 197.963 112.346L191.233 127.447C191.153 127.624 190.978 127.732 190.795 127.732V127.732Z" fill="black"/>
<path d="M213.962 74.0758L196.251 113.761L178.039 76.7392L158.249 113.638C158.249 113.638 176.137 137.926 183.648 143.513C188.171 146.877 205.649 154.368 212.619 140.545C218.418 129.045 223.237 89.4678 225.643 79.096" fill="white"/>
<path d="M213.962 74.0758L196.251 113.761L178.039 76.7392L158.249 113.638C158.249 113.638 176.137 137.926 183.648 143.513C188.171 146.877 205.649 154.368 212.619 140.545C218.418 129.045 223.237 89.4678 225.643 79.096" stroke="black" stroke-miterlimit="10"/>
<path d="M105.252 181.114L58.7111 180.83L57.8024 204.257C57.8024 204.257 77.8318 208.091 101.483 212.265L105.249 181.114H105.252V181.114Z" fill="white"/>
<path d="M105.252 181.114L58.7111 180.83L57.8024 204.257C57.8024 204.257 77.8318 208.091 101.483 212.265L105.249 181.114H105.252V181.114Z" stroke="black" stroke-miterlimit="10"/>
<path d="M155.228 51.0204C155.228 51.0204 167.878 53.4846 175.604 70.3291C185.839 92.646 188.538 97.6326 188.538 97.6326L159.633 122.04L150.924 107.969C150.924 107.969 150.058 122.826 146.752 133.372L84.9 115.829C84.9 115.829 101.16 80.9269 117.244 67.3635C131.111 55.6735 148.563 49.1381 155.228 51.0159V51.0204Z" fill="white"/>
<path d="M155.228 51.0204C155.228 51.0204 167.878 53.4846 175.604 70.3291C185.839 92.646 188.538 97.6326 188.538 97.6326L159.633 122.04L150.924 107.969C150.924 107.969 150.058 122.826 146.752 133.372L84.9 115.829C84.9 115.829 101.16 80.9269 117.244 67.3635C131.111 55.6735 148.563 49.1381 155.228 51.0159V51.0204Z" stroke="black" stroke-miterlimit="10"/>
<path d="M81.7307 204.17C83.1497 203.257 83.8122 201.493 82.9774 199.944L79.7052 193.879C78.6532 191.922 75.804 191.502 74.018 193.037L72.3371 194.478C72.364 191.092 73.0153 186.567 75.043 180.756L48.9527 180.514L50.6425 212.796C50.967 219 56.0924 223.861 62.3034 223.861H86.1444L87.4157 214.076C87.973 209.794 85.558 205.783 81.7307 204.17Z" fill="white" stroke="black" stroke-miterlimit="10"/>
<path d="M135.771 79.8257C135.771 79.8257 138.927 60.4364 154.897 52.6229" stroke="black" stroke-linecap="round" stroke-linejoin="round"/>
<path d="M150.922 107.969L141.566 92.6437" stroke="black" stroke-linecap="round" stroke-linejoin="round"/>
<path d="M117.109 181.052L161.962 184.733" stroke="black" stroke-linecap="round" stroke-linejoin="round"/>
<path d="M107.447 122.463C107.447 122.463 105.475 157.591 151.239 181.26" stroke="black" stroke-linecap="round" stroke-linejoin="round"/>
<path d="M135.219 182.466L163.988 148.164" stroke="black" stroke-linecap="round" stroke-linejoin="round"/>
<path d="M126.948 127.732C126.948 127.732 124.923 142.255 111.807 141.79" stroke="black" stroke-linecap="round" stroke-linejoin="round"/>
<path d="M144.05 132.606C144.05 132.606 174.843 155.684 186.312 167.108" stroke="black" stroke-linecap="round" stroke-linejoin="round"/>
<path d="M191.965 216.652H225.824" stroke="black" stroke-linecap="round" stroke-linejoin="round"/>
<path d="M54.519 180.687L56.464 211.965C56.7057 215.902 59.9779 218.971 63.9216 218.96L86.7084 218.897" stroke="black" stroke-linecap="round" stroke-linejoin="round"/>
<path d="M82.0038 204.136L66.0792 202.5" stroke="black" stroke-linecap="round" stroke-linejoin="round"/>
<path d="M176.399 136.353L171.316 153.75" stroke="black" stroke-linecap="round" stroke-linejoin="round"/>
<path d="M185.396 160.147L190.316 146.87" stroke="black" stroke-miterlimit="10"/>
<path d="M185.291 91.0703C186.112 90.222 192.343 85.4122 192.343 85.4122L185.291 91.0703V91.0703Z" fill="white"/>
<path d="M185.291 91.0703C186.112 90.222 192.343 85.4122 192.343 85.4122" stroke="black" stroke-miterlimit="10"/>
<path d="M225.574 35.6284C225.236 35.7292 224.94 36.0805 224.92 36.4208C224.9 36.7587 225.157 36.9512 225.497 36.8527C225.835 36.752 226.131 36.4006 226.151 36.0604C226.171 35.7224 225.914 35.53 225.574 35.6284Z" fill="white"/>
<path d="M225.652 79.096C226.252 77.2003 227.57 73.3036 227.906 71.9876C230.307 70.2866 235.066 65.8371 236.722 62.9342C238.618 59.6172 239.759 55.8145 239.251 51.9313C239.168 51.2778 238.873 50.6063 238.282 50.2639C237.926 50.0602 237.463 50.0289 237.091 50.19C237.105 50.1072 237.118 50.0199 237.131 49.9349C237.225 49.3417 237.319 48.7441 237.315 48.1443C237.313 47.0812 236.939 45.8815 235.927 45.3667C235.558 45.1787 235.126 45.1026 234.721 45.1765C234.743 44.993 234.768 44.805 234.784 44.6192C234.831 44.1089 234.777 43.6075 234.56 43.1375C234.376 42.7414 234.083 42.3967 233.7 42.1818C233.309 41.9602 232.854 41.9334 232.442 42.1191C232.246 42.2087 232.058 42.3273 231.883 42.4616C231.796 42.3273 231.699 42.1997 231.592 42.0833C231.093 41.5327 230.415 41.1612 229.69 41.5506C229.076 41.8797 228.716 42.5377 228.472 43.1644C228.224 43.7978 227.989 44.4357 227.731 45.0668C227.474 45.6935 227.198 46.3135 226.912 46.9312C226.346 48.1645 225.735 49.3798 225.101 50.5794C224.468 51.7858 223.81 52.9832 223.152 54.1807C222.492 55.3803 221.838 56.6225 220.835 57.5805C220.802 57.614 217.807 59.85 217.773 59.8835" fill="white"/>
<path d="M225.652 79.096C226.252 77.2003 227.57 73.3036 227.906 71.9876C230.307 70.2866 235.066 65.8371 236.722 62.9342C238.618 59.6172 239.759 55.8145 239.251 51.9313C239.168 51.2778 238.873 50.6063 238.282 50.2639C237.926 50.0602 237.463 50.0289 237.091 50.19C237.105 50.1072 237.118 50.0199 237.131 49.9349C237.225 49.3417 237.319 48.7441 237.315 48.1443C237.313 47.0812 236.939 45.8815 235.927 45.3667C235.558 45.1787 235.126 45.1026 234.721 45.1765C234.743 44.993 234.768 44.805 234.784 44.6192C234.831 44.1089 234.777 43.6075 234.56 43.1375C234.376 42.7414 234.083 42.3967 233.7 42.1818C233.309 41.9602 232.854 41.9334 232.442 42.1191C232.246 42.2087 232.058 42.3273 231.883 42.4616C231.796 42.3273 231.699 42.1997 231.592 42.0833C231.093 41.5327 230.415 41.1612 229.69 41.5506C229.076 41.8797 228.716 42.5377 228.472 43.1644C228.224 43.7978 227.989 44.4357 227.731 45.0668C227.474 45.6935 227.198 46.3135 226.912 46.9312C226.346 48.1645 225.735 49.3798 225.101 50.5794C224.468 51.7858 223.81 52.9832 223.152 54.1807C222.492 55.3803 221.838 56.6225 220.835 57.5805C220.802 57.614 217.807 59.85 217.773 59.8835" stroke="black" stroke-linecap="round" stroke-linejoin="round"/>
<path d="M221.496 49.7155C220.735 50.3355 216.435 52.1529 214.799 55.4475C214.273 56.5061 214.166 57.7103 214.154 58.8876C214.145 60.0917 215.352 68.8497 215.468 69.5726C215.186 70.3985 213.975 73.852 213.478 75.271" stroke="black" stroke-linecap="round" stroke-linejoin="round"/>
<path d="M216.238 64.5278C216.312 64.7493 216.137 69.5748 216.137 69.5748L214.615 76.4125L220.826 76.8556L226.088 65.4365C226.088 65.4365 221.688 63.0953 220.999 62.7036C220.307 62.312 216.243 64.5255 216.243 64.5255H216.24L216.238 64.5278Z" fill="white"/>
<path d="M231.717 42.4258C231.717 42.4258 231.057 52.7975 226.82 58.5899" stroke="black" stroke-linecap="round" stroke-linejoin="round"/>
<path d="M234.779 44.6192C234.779 44.6192 232.935 56.2957 231.288 58.619" stroke="black" stroke-linecap="round" stroke-linejoin="round"/>
<path d="M237.127 49.9304C237.127 49.9304 235.923 58.9077 234.276 60.555" stroke="black" stroke-linecap="round" stroke-linejoin="round"/>
<path d="M162.923 41.0336L166.101 44.2118" stroke="black" stroke-linecap="round" stroke-linejoin="round"/>
<path d="M164.744 42.8555L162.923 44.6192" stroke="black" stroke-linecap="round" stroke-linejoin="round"/>
<path d="M159.561 27.5755C153.126 35.8209 158.726 43.941 158.726 43.941C176.889 35.0734 182.26 24.498 182.26 24.498C181.587 23.0118 181.285 23.6632 179.83 22.8306C173.894 19.4464 164.939 20.6841 159.565 27.5755H159.563H159.561Z" fill="#002EFF"/>
<path d="M157.327 41.0336C157.327 41.0336 173.1 31.0514 179.83 22.8306" stroke="black" stroke-linecap="round" stroke-linejoin="round"/>
</svg>
