<svg width="32" height="32" viewBox="0 0 32 32" fill="none" xmlns="http://www.w3.org/2000/svg">
<g clip-path="url(#clip0_4146_7439)">
<path fill-rule="evenodd" clip-rule="evenodd" d="M15.8437 0.148724C12.3709 3.4774 10.0778 7.80136 9.24202 12.47C6.54802 12.7386 4.44434 15.012 4.44434 17.7767V21.7767C4.44434 22.5131 5.04129 23.1101 5.77767 23.1101H26.2221C26.9585 23.1101 27.5554 22.5131 27.5554 21.7767V17.7767C27.5554 15.012 25.4518 12.7386 22.7578 12.47C21.922 7.80135 19.6289 3.4774 16.1561 0.148724C16.0688 0.0650088 15.931 0.0650086 15.8437 0.148724ZM21.3332 16.4489C21.3332 11.2958 19.4214 6.34564 15.9999 2.54078C12.5784 6.34564 10.6666 11.2958 10.6666 16.4489V21.3323H21.3332V16.4489ZM8.88878 21.3323H6.22211V17.7767C6.22211 16.12 7.35525 14.7279 8.88878 14.3332V21.3323ZM25.7777 21.3323H23.111V14.3332C24.6445 14.7279 25.7777 16.12 25.7777 17.7767V21.3323Z" fill="#002EFF"/>
<path d="M15.9999 26.6656C14.324 26.6656 12.8286 27.4395 11.8521 28.6461C11.481 28.5148 11.0818 28.4434 10.6667 28.4434C9.11538 28.4434 7.79825 29.4365 7.31198 30.8189C7.14907 31.282 7.39244 31.7895 7.85554 31.9524C8.31864 32.1153 8.82612 31.8719 8.98902 31.4088C9.23278 30.7158 9.89315 30.2212 10.6667 30.2212C11.0408 30.2212 11.3855 30.3357 11.6709 30.5316C11.9807 30.7442 12.2192 31.0518 12.3449 31.4099C12.5075 31.8732 13.0148 32.1169 13.478 31.9543C13.9412 31.7917 14.1849 31.2844 14.0223 30.8212C13.8689 30.384 13.6329 29.9865 13.3333 29.647C13.9859 28.9077 14.9386 28.4434 15.9999 28.4434C17.0613 28.4434 18.0141 28.9078 18.6667 29.6472C18.3686 29.9851 18.1337 30.3799 17.9804 30.8132C17.8168 31.276 18.0593 31.7839 18.5221 31.9476C18.9849 32.1113 19.4928 31.8688 19.6565 31.406C19.9011 30.7145 20.5607 30.2212 21.3332 30.2212C22.1076 30.2212 22.7685 30.7168 23.0117 31.4108C23.174 31.8741 23.6812 32.1181 24.1445 31.9558C24.6078 31.7935 24.8518 31.2863 24.6894 30.823C24.2043 29.4384 22.8861 28.4434 21.3332 28.4434C20.9173 28.4434 20.5183 28.5148 20.1475 28.6459C19.1711 27.4394 17.6757 26.6656 15.9999 26.6656Z" fill="#002EFF"/>
<path fill-rule="evenodd" clip-rule="evenodd" d="M15.9997 8.88867C14.5269 8.88867 13.333 10.0826 13.333 11.5553C13.333 13.0281 14.5269 14.222 15.9997 14.222C17.4724 14.222 18.6663 13.0281 18.6663 11.5553C18.6663 10.0826 17.4724 8.88867 15.9997 8.88867ZM15.1108 11.5553C15.1108 11.0644 15.5088 10.6664 15.9997 10.6664C16.4906 10.6664 16.8886 11.0644 16.8886 11.5553C16.8886 12.0463 16.4906 12.4442 15.9997 12.4442C15.5088 12.4442 15.1108 12.0463 15.1108 11.5553Z" fill="#FD6C98"/>
<path d="M15.9997 18.6664C16.4906 18.6664 16.8886 19.0644 16.8886 19.5553V23.9998C16.8886 24.4907 16.4906 24.8887 15.9997 24.8887C15.5088 24.8887 15.1108 24.4907 15.1108 23.9998V19.5553C15.1108 19.0644 15.5088 18.6664 15.9997 18.6664Z" fill="#FD6C98"/>
</g>
<defs>
<clipPath id="clip0_4146_7439">
<rect width="32" height="32" fill="white"/>
</clipPath>
</defs>
</svg>
