<svg width="424" height="424" viewBox="0 0 424 424" fill="none" xmlns="http://www.w3.org/2000/svg">
<g clip-path="url(#clip0_1379_7230)">
<path d="M211.901 408C308.116 408 386.111 330.005 386.111 233.79C386.111 137.575 308.116 59.5798 211.901 59.5798C115.686 59.5798 37.6904 137.575 37.6904 233.79C37.6904 330.005 115.686 408 211.901 408Z" fill="#F3F5FF"/>
<path d="M179.555 125.175C183.107 125.22 181.507 76.9141 180.676 73.4527C177.784 61.4416 182.827 47.9213 191.801 40.429C199.239 36.1542 208.701 35.6029 216.582 38.983C224.472 42.3631 230.591 49.6023 232.624 57.935C235.082 68.0301 240.722 114.529 240.722 114.529C240.722 114.529 221.698 134.312 179.546 125.184H179.555V125.175Z" fill="black"/>
<path d="M306.209 361.257L249.561 222.059L237.884 225.801L240.342 213.238L131.303 236.492L133.291 361.257" fill="white"/>
<path d="M306.209 361.257L249.561 222.059L237.884 225.801L240.342 213.238L131.303 236.492L133.291 361.257" stroke="black" stroke-linecap="round" stroke-linejoin="round"/>
<path d="M208.312 361.257L207.219 330.755L220.152 361.257" fill="white"/>
<path d="M208.312 361.257L207.219 330.755L220.152 361.257" stroke="black" stroke-linecap="round" stroke-linejoin="round"/>
<path d="M217.061 101.09C217.061 101.09 286 101.09 309.399 135.587C322.485 154.873 340.136 178.326 332.689 206.135C328.504 221.761 311.043 231.422 293.953 222.059C276.854 212.696 265.06 191.033 265.06 191.033L272.932 261.924L131.311 270.564C131.311 270.564 105.843 290.998 77.5822 279.024C39.1721 262.756 58.8381 209.922 70.9576 190.545C91.4189 157.855 114.302 131.7 128.392 119.716C142.482 107.742 193.382 101.569 193.382 101.569L217.07 101.081H217.061V101.09Z" fill="#002EFF"/>
<path d="M233.057 62.2459C232.127 61.8482 231.141 61.7759 230.174 61.9205C229.117 46.7463 219.356 39.9951 207.454 39.9951C194.846 39.9951 184.625 51.0572 184.625 64.7041V64.7945C183.766 64.7132 182.889 64.7945 182.058 65.165C179.112 66.4303 177.864 70.199 179.283 73.5791C180.702 76.9592 184.236 78.6764 187.182 77.402C187.273 77.3659 187.345 77.3026 187.435 77.2574C189.677 81.8215 193.147 85.4275 197.521 87.461L197.964 100.123H197.82C197.82 100.123 189.297 102.057 183.16 103.033C186.134 109.188 192.135 119.292 212.714 117.231C222.239 116.273 227.102 107.353 229.099 101.912C223.785 101.379 219.456 100.692 217.449 100.34L217.26 86.3041C221.95 83.7013 225.845 79.562 228.114 74.5461C231.024 75.6487 234.431 73.9587 235.814 70.6599C237.233 67.2799 235.986 63.5111 233.039 62.2459H233.057Z" fill="white" stroke="black" stroke-linecap="round" stroke-linejoin="round"/>
<path d="M141.605 245.711L121.903 245.367C118.622 245.313 116.02 248.042 116.119 251.432C116.218 254.92 119.129 257.704 122.491 257.514L142.12 256.411C145.003 256.249 147.127 253.664 146.829 250.681C146.558 247.916 144.289 245.756 141.605 245.702V245.711Z" fill="white" stroke="black" stroke-linecap="round" stroke-linejoin="round"/>
<path d="M144.1 267.654L120.593 268.639C118.044 268.748 115.703 266.958 114.98 264.365L114.836 263.831C113.851 260.289 116.255 256.827 119.734 256.755L143.386 256.303C146.224 256.249 148.7 258.508 149.052 261.482C149.441 264.708 147.173 267.528 144.091 267.654H144.1Z" fill="white" stroke="black" stroke-linecap="round" stroke-linejoin="round"/>
<path d="M144.1 272.001C143.729 269.561 141.633 267.763 139.174 267.781L123.503 267.844C120.963 267.853 118.84 269.778 118.587 272.299L118.46 273.556C118.144 276.647 120.71 279.268 123.81 279.014L139.608 277.695C142.473 277.46 144.534 274.848 144.1 272.01V272.001Z" fill="white" stroke="black" stroke-linecap="round" stroke-linejoin="round"/>
<path d="M141.136 281.021C140.539 279.159 138.867 277.885 137.087 277.921L124.163 278.228C122.048 278.282 120.503 280.144 120.683 282.431L120.801 283.868C121 286.371 123.178 288.296 125.455 287.98L138.271 286.236C140.575 285.919 141.931 283.461 141.154 281.021H141.136Z" fill="white" stroke="black" stroke-linecap="round" stroke-linejoin="round"/>
<path d="M320.868 117.439C321.003 115.08 319.078 113.101 316.683 113.209C314.623 113.3 313.005 115.044 312.842 117.096L311.866 129.938L311.631 108.076C311.686 105.573 309.607 103.512 307.04 103.675C304.817 103.81 303.109 105.735 303.009 107.968L302.25 125.094L301.925 105.202C302.042 102.581 299.919 100.34 297.189 100.421C294.803 100.493 292.923 102.491 292.77 104.877L292.065 115.659L291.468 111.14C291.17 108.889 289.29 107.082 287.031 107.118C284.41 107.154 282.422 109.432 282.711 111.998L284.789 130.86L286.615 145.103L279.837 136.039C278.581 134.358 276.592 133.318 274.496 133.418C270.166 133.616 268.106 137.955 269.932 141.208C272.625 145.998 276.728 153.273 279.123 157.413C281.744 161.941 286.823 169.966 289.715 174.485C291.965 178.01 295.156 180.883 299.015 182.492C300.813 183.242 302.829 183.776 304.934 183.776C312.056 183.776 317.822 181.055 317.822 177.702C317.822 177.277 320.877 117.439 320.877 117.439H320.868Z" fill="white" stroke="black" stroke-linecap="round" stroke-linejoin="round"/>
<path d="M207.463 39.1006C194.647 39.1006 184.227 51.2291 183.576 64.9303C188.818 62.0111 199.853 54.799 200.305 45.5083C200.305 45.5083 212.28 56.2541 230.418 57.3567C227.418 45.6258 218.272 39.1006 207.463 39.1006Z" fill="black"/>
<path d="M88.4551 361.809H335.355" stroke="black" stroke-linecap="round" stroke-linejoin="round"/>
<path d="M207.219 330.755L205.719 292.002C205.222 281.509 212.895 272.417 223.325 271.143L230.094 270.32" stroke="black" stroke-linecap="round" stroke-linejoin="round"/>
<path d="M76.5889 222.285C76.5889 222.285 112.496 212.913 124.787 245.412" stroke="black" stroke-linecap="round" stroke-linejoin="round"/>
<path d="M84.1982 212.38C84.1982 212.38 100.927 213.627 109.196 226.226" stroke="black" stroke-linecap="round" stroke-linejoin="round"/>
<path d="M122.681 240.406L145.618 187.589" stroke="black" stroke-linecap="round" stroke-linejoin="round"/>
<path d="M177.513 104.542C177.513 104.542 182.727 124.235 204.707 124.208" stroke="black" stroke-linecap="round" stroke-linejoin="round"/>
<path d="M291.983 114.908L294.315 137.466" stroke="black" stroke-linecap="round" stroke-linejoin="round"/>
<path d="M302.413 121.325L301.871 137.403" stroke="black" stroke-linecap="round" stroke-linejoin="round"/>
<path d="M312.111 125.718L311.424 138.28" stroke="black" stroke-linecap="round" stroke-linejoin="round"/>
<path d="M296.06 168.095C296.06 168.095 303.66 162.058 305.341 152.984" stroke="black" stroke-linecap="round" stroke-linejoin="round"/>
<path d="M273.004 180.124C273.004 180.124 273.501 171.99 281.996 162.23" stroke="black" stroke-linecap="round" stroke-linejoin="round"/>
<path d="M291.984 177.467C291.984 177.467 288.857 189.334 305.106 189.406C310.068 189.424 313.593 188.421 316.087 187.011C321.618 183.893 323.073 176.301 319.006 171.421C318.735 171.096 318.437 170.797 318.13 170.544" stroke="black" stroke-linecap="round" stroke-linejoin="round"/>
<path d="M185.9 72.7839C185.9 72.7839 185.411 70.398 181.245 69.8467" stroke="black" stroke-linecap="round" stroke-linejoin="round"/>
<path d="M184.625 71.8801L182.854 73.4436" stroke="black" stroke-linecap="round" stroke-linejoin="round"/>
<path d="M229.027 69.178C229.027 69.178 229.515 66.792 233.682 66.2407" stroke="black" stroke-linecap="round" stroke-linejoin="round"/>
<path d="M230.292 68.2742L232.063 69.8377" stroke="black" stroke-linecap="round" stroke-linejoin="round"/>
<path d="M318.075 16.0002H282.738C274.182 16.0002 267.247 22.9356 267.247 31.4908V66.8281C267.247 75.3833 274.182 82.3187 282.738 82.3187H318.075C326.63 82.3187 333.566 75.3833 333.566 66.8281V31.4908C333.566 22.9356 326.63 16.0002 318.075 16.0002Z" fill="#F5B207"/>
<path d="M290.89 39.2632C294.081 33.7412 295.671 30.9757 297.777 30.09C299.458 29.385 301.356 29.385 303.037 30.09C305.143 30.9757 306.733 33.7322 309.924 39.2632L317.651 52.648C320.841 58.17 322.432 60.9356 322.152 63.195C321.926 65.0025 320.977 66.6474 319.522 67.75C317.705 69.1327 314.515 69.1327 308.134 69.1327H292.68C286.299 69.1327 283.109 69.1327 281.292 67.75C279.837 66.6474 278.888 65.0116 278.662 63.195C278.373 60.9265 279.973 58.17 283.163 52.648L290.89 39.2632Z" fill="white"/>
<path d="M301.229 40.1851H299.584C298.835 40.1851 298.229 40.792 298.229 41.5407V54.8713C298.229 55.62 298.835 56.2269 299.584 56.2269H301.229C301.978 56.2269 302.585 55.62 302.585 54.8713V41.5407C302.585 40.792 301.978 40.1851 301.229 40.1851Z" fill="#F5B207"/>
<path d="M301.229 59.345H299.584C298.835 59.345 298.229 59.9519 298.229 60.7006V62.3455C298.229 63.0942 298.835 63.7011 299.584 63.7011H301.229C301.978 63.7011 302.585 63.0942 302.585 62.3455V60.7006C302.585 59.9519 301.978 59.345 301.229 59.345Z" fill="#F5B207"/>
</g>
<defs>
<clipPath id="clip0_1379_7230">
<rect width="392" height="392" fill="white" transform="translate(16 16.0002)"/>
</clipPath>
</defs>
</svg>
