<svg width="64" height="64" viewBox="0 0 64 64" fill="none" xmlns="http://www.w3.org/2000/svg">
<g id="Alimentos y bebidas">
<path id="Primary" fill-rule="evenodd" clip-rule="evenodd" d="M19.04 11.84C19.28 11.36 19.7867 11.04 20.3467 11.04H34.6667C35.2267 11.04 35.7333 11.36 35.9733 11.84L38.56 17.04H16.4533L19.04 11.84ZM13.0933 17.04L16.3467 10.5067C17.0933 8.98668 18.64 8.05334 20.32 8.05334H34.64C36.32 8.05334 37.8667 9.01334 38.6133 10.5067L41.8667 17.04H45.44C46.2667 17.04 46.9333 17.7067 46.9333 18.5333C46.9333 19.36 46.2667 20.0267 45.44 20.0267H42.32L41.3067 32.2933C40.2133 32.5333 39.1733 32.9333 38.2133 33.4667L39.3333 20.0267H15.6533L18.2933 51.6533C18.3467 52.4 18.9867 52.9867 19.7333 52.9867H35.2267C35.4667 52.9867 35.68 52.9333 35.8933 52.8267C36.6667 53.52 37.52 54.1333 38.4533 54.6133C37.6267 55.44 36.48 55.9733 35.2267 55.9733H19.7333C17.4133 55.9733 15.4933 54.1867 15.3067 51.8933L12.64 20.0267H9.52001C8.69334 20.0267 8.02667 19.36 8.02667 18.5333C8.02667 17.7067 8.69334 17.04 9.52001 17.04H13.0933Z" fill="#002EFF"/>
<path id="Secondary" fill-rule="evenodd" clip-rule="evenodd" d="M50.24 29.8666C49.6267 30.8 48.6933 31.5466 47.1467 31.8666C47.3333 30.8266 47.68 29.68 48.2933 28.6666C48.9867 27.52 49.9467 26.6133 51.4133 26.2133C51.2533 27.6533 50.88 28.9066 50.24 29.8666ZM52.9867 23.0133C49.3867 23.0133 47.0667 24.88 45.7067 27.12C44.7467 28.72 44.2667 30.5066 44.08 32C36.56 31.9466 30.6133 38.8 32.2667 46.6133C33.2267 51.12 36.8533 54.7466 41.3333 55.7066C49.0933 57.36 55.9467 51.4933 55.9467 44C55.9467 39.7066 53.68 35.9466 50.2933 33.8133C51.28 33.2266 52.08 32.4533 52.6933 31.52C54.0533 29.4666 54.4533 26.88 54.4533 24.5066V23.0133H52.96H52.9867ZM44 34.9866H43.9733C40.4 34.9866 37.0133 37.0666 35.7067 40.4C32.9067 47.5733 39.04 54.3466 46.1333 52.72C49.4933 51.9466 52.1867 49.1466 52.8267 45.7333C53.92 40 49.5467 34.9866 44 34.9866Z" fill="#FF3D00"/>
</g>
</svg>
