<svg width="96" height="96" viewBox="0 0 96 96" fill="none" xmlns="http://www.w3.org/2000/svg">
<g clip-path="url(#clip0_6383_21179)">
<path d="M48 87.4489C68.9536 87.4489 85.9393 70.4632 85.9393 49.5096C85.9393 28.556 68.9536 11.5703 48 11.5703C27.0464 11.5703 10.0607 28.556 10.0607 49.5096C10.0607 70.4632 27.0464 87.4489 48 87.4489Z" fill="#F3F5FF"/>
<path d="M61.2874 54.5147L39.0407 53.0366L39.4068 55.1859L37.1079 55.1013L28.7961 82.0894L38.4994 82.1052L51.9561 82.0894L66.7236 82.1052L61.2874 54.5147Z" fill="white" stroke="black" stroke-width="0.5" stroke-miterlimit="10"/>
<path d="M46.2188 26.7964C46.2188 26.7964 30.3806 27.1152 24.8322 34.868L18.4807 37.4739C18.4807 37.4739 12.8103 43.6226 13.7177 53.5661C14.623 63.5075 21.8149 63.8775 25.7749 61.6869C29.735 59.4963 33.2896 55.1013 33.2896 55.1013L56.7822 57.347C56.7822 57.347 79.458 71.1402 77.4996 51.9698C76.9564 46.6517 70.0204 33.9607 66.7571 31.1579C63.4938 28.3552 51.7042 26.9105 51.7042 26.9105L46.2188 26.7964Z" fill="#FF3D00"/>
<path d="M26.58 45.8623C26.58 45.8623 28.0738 53.3947 26.7158 57.0398" stroke="black" stroke-width="0.5" stroke-linecap="round" stroke-linejoin="round"/>
<path d="M52.9146 21.4036C54.5266 18.5123 53.1449 15.6309 51.2161 13.887C49.6021 12.8734 47.5138 12.6746 45.7424 13.3694C43.9711 14.0642 42.5598 15.6328 42.0461 17.481C41.4242 19.7188 50.4681 25.7947 52.9166 21.4036H52.9146Z" fill="black"/>
<path d="M43.6365 19.3586C43.3491 18.591 42.5796 18.1816 41.9163 18.4414C41.253 18.7012 40.9499 19.5337 41.2372 20.3013C41.5246 21.0689 42.2942 21.4783 42.9575 21.2185C43.6208 20.9587 43.9239 20.1262 43.6365 19.3586Z" fill="white" stroke="black" stroke-width="0.5" stroke-miterlimit="10"/>
<path d="M51.5231 26.7963L51.4129 26.7923L50.9287 22.9996C51.224 22.7083 51.4916 22.3875 51.7219 22.045C51.7908 22.1021 51.8676 22.1513 51.9502 22.1906C52.5938 22.4977 53.389 22.1414 53.7295 21.3975C54.068 20.6535 53.822 19.8012 53.1804 19.4942C52.9993 19.4076 52.8064 19.3761 52.6155 19.3879V19.3722C52.7218 16.3214 50.5449 13.7687 47.756 13.6702C44.967 13.5718 42.6465 15.1858 42.5146 19.0159C42.4083 22.0666 43.8943 24.6804 46.6853 24.7788C46.762 24.7788 46.8388 24.7788 46.9175 24.7788L47.1871 26.6073L46.4077 26.5739C46.4077 26.5739 45.1343 26.8199 43.4279 26.9931C43.8904 28.2645 45.0162 30.3528 47.2226 30.5772C51.9896 31.0614 53.3811 28.6956 54.068 27.2568C52.647 27.0285 51.5271 26.8002 51.5271 26.8002L51.5231 26.7963Z" fill="white" stroke="black" stroke-width="0.5" stroke-miterlimit="10"/>
<path d="M41.9536 23.2046H21.067V52.1432H41.9536V23.2046Z" fill="white" stroke="black" stroke-width="0.5" stroke-miterlimit="10"/>
<path d="M25.6273 34.6436L21.6653 33.2718C21.006 33.0435 20.3013 33.4293 20.0986 34.128C19.89 34.8483 20.2974 35.6081 20.9882 35.7911L25.031 36.8658C25.6254 37.0232 26.2237 36.6355 26.3595 36.0056C26.4855 35.4211 26.1686 34.8306 25.6293 34.6436H25.6273Z" fill="white" stroke="black" stroke-width="0.5" stroke-miterlimit="10"/>
<path d="M24.6944 39.2928L19.8762 37.9386C19.3526 37.791 18.9964 37.2734 19.022 36.6928L19.0279 36.5747C19.0613 35.7854 19.7738 35.2363 20.4824 35.4528L25.2966 36.925C25.8753 37.1022 26.2276 37.7281 26.1036 38.3579C25.9698 39.0428 25.3281 39.468 24.6963 39.2908L24.6944 39.2928Z" fill="white" stroke="black" stroke-width="0.5" stroke-miterlimit="10"/>
<path d="M24.411 40.1803C24.4956 39.6587 24.1885 39.1529 23.6906 38.9915L20.5178 37.968C20.0041 37.8027 19.4491 38.0546 19.2306 38.5526L19.1224 38.8026C18.8547 39.4127 19.205 40.1193 19.8486 40.2708L23.1316 41.0463C23.726 41.1861 24.3145 40.7904 24.4129 40.1823L24.411 40.1803Z" fill="white" stroke="black" stroke-width="0.5" stroke-miterlimit="10"/>
<path d="M23.2202 41.8275C23.2202 41.4083 22.9663 41.0363 22.6042 40.9261L19.9687 40.1329C19.5377 40.003 19.1027 40.2825 18.9905 40.7607L18.9197 41.0619C18.7957 41.5854 19.1106 42.1228 19.5908 42.2113L22.2971 42.7034C22.7833 42.7919 23.2202 42.3786 23.2202 41.8275Z" fill="white" stroke="black" stroke-width="0.5" stroke-miterlimit="10"/>
<path d="M48.7558 11.5703C48.7558 13.3239 50.0332 14.7469 51.6097 14.7469C53.1862 14.7469 54.4636 13.3239 54.4636 11.5703C54.4636 9.81657 53.1862 8.39355 51.6097 8.39355C50.0332 8.39355 48.7558 9.81657 48.7558 11.5703Z" fill="black"/>
<path d="M8.14764 82.105H87.8524" stroke="black" stroke-width="0.5" stroke-linecap="round" stroke-linejoin="round"/>
<path d="M47.7618 13.4659C50.598 13.5663 52.8103 16.3572 52.8497 19.4257C51.712 18.7328 49.3266 17.0323 49.297 14.9519C49.297 14.9519 46.5632 17.2606 42.5402 17.3669C43.294 14.7689 45.3705 13.3813 47.7618 13.4639V13.4659Z" fill="black"/>
<path d="M55.4615 27.6074C55.4615 27.6074 53.4126 32.2937 49.1357 31.9276" stroke="black" stroke-width="0.5" stroke-linecap="round" stroke-linejoin="round"/>
<path d="M56.7821 57.5241C56.7821 57.5241 49.9761 53.07 48.1633 50.3755L52.6292 42.8589C52.6292 42.8589 65.9304 42.7881 73.9843 49.3619" stroke="black" stroke-width="0.5" stroke-linecap="round" stroke-linejoin="round"/>
<path d="M70.0283 46.756C70.0283 46.756 70.9966 45.9609 72.6066 45.9864" stroke="black" stroke-width="0.5" stroke-linecap="round" stroke-linejoin="round"/>
<path d="M44.4237 38.6982L41.6958 39.0958C40.7412 39.2356 40.013 39.9422 39.885 40.8495L39.4953 43.6188C39.4599 43.8746 39.5445 44.1344 39.7276 44.3332L40.9223 45.6244C41.2293 45.957 41.7017 46.1046 42.1426 46.0102L43.8431 45.6598L44.4237 38.6982Z" fill="white" stroke="black" stroke-width="0.5" stroke-miterlimit="10"/>
<path d="M43.0362 44.5125C44.7209 48.1439 48.8011 49.3091 48.8011 49.3091L49.7753 47.7463L50.9582 45.6698L52.027 43.8709C52.027 43.8709 49.116 42.133 46.6714 39.7849C45.3272 38.4937 42.3985 37.0628 40.0031 36.187C39.1312 35.8681 38.4227 35.5611 37.9365 35.7264C37.3028 35.9429 37.1512 36.9762 38.0743 37.3778C40.4637 38.415 41.9851 39.0527 41.9851 39.0527" fill="white"/>
<path d="M43.0362 44.5125C44.7209 48.1439 48.8011 49.3091 48.8011 49.3091L49.7753 47.7463L50.9582 45.6698L52.027 43.8709C52.027 43.8709 49.116 42.133 46.6714 39.7849C45.3272 38.4937 42.3985 37.0628 40.0031 36.187C39.1312 35.8681 38.4227 35.5611 37.9365 35.7264C37.3028 35.9429 37.1512 36.9762 38.0743 37.3778C40.4637 38.415 41.9851 39.0527 41.9851 39.0527" stroke="black" stroke-width="0.5" stroke-linecap="round" stroke-linejoin="round"/>
<path d="M41.9852 39.0524C41.9852 39.0524 43.9573 38.7119 45.2583 39.6842" stroke="black" stroke-width="0.5" stroke-linecap="round" stroke-linejoin="round"/>
<path d="M39.8811 41.5483C39.8811 41.5483 41.3789 40.4087 43.8254 40.9539" stroke="black" stroke-width="0.5" stroke-linecap="round" stroke-linejoin="round"/>
<path d="M39.5741 43.308C39.5741 43.308 41.129 42.5424 43.1877 42.7451" stroke="black" stroke-width="0.5" stroke-linecap="round" stroke-linejoin="round"/>
<path d="M41.0778 44.7346L43.0362 44.5122" stroke="black" stroke-width="0.5" stroke-linecap="round" stroke-linejoin="round"/>
<path d="M42.2489 44.7563C42.2489 44.7563 42.4339 45.2897 41.9694 45.5456" stroke="black" stroke-width="0.5" stroke-linecap="round" stroke-linejoin="round"/>
<path d="M51.9896 21.2323L53.0327 20.3525" stroke="black" stroke-width="0.5" stroke-linecap="round" stroke-linejoin="round"/>
<path d="M52.5682 20.8369L52.9146 21.4038" stroke="black" stroke-width="0.5" stroke-linecap="round" stroke-linejoin="round"/>
<path d="M42.0147 20.3523L42.4398 19.8307L41.8198 19.2974" fill="white"/>
<path d="M42.0147 20.3523L42.4398 19.8307L41.8198 19.2974" stroke="black" stroke-width="0.5" stroke-linecap="round" stroke-linejoin="round"/>
<path d="M27.2255 29.9888H36.6336" stroke="black" stroke-width="0.5" stroke-linecap="round" stroke-linejoin="round"/>
<path d="M27.2255 31.5024H36.6336" stroke="black" stroke-width="0.5" stroke-linecap="round" stroke-linejoin="round"/>
<path d="M27.2255 33.0161H36.6336" stroke="black" stroke-width="0.5" stroke-linecap="round" stroke-linejoin="round"/>
<path d="M27.2255 34.5298H36.6336" stroke="black" stroke-width="0.5" stroke-linecap="round" stroke-linejoin="round"/>
<path d="M27.2255 36.041H32.831" stroke="black" stroke-width="0.5" stroke-linecap="round" stroke-linejoin="round"/>
</g>
<defs>
<clipPath id="clip0_6383_21179">
<rect width="80" height="80" fill="white" transform="translate(8 8)"/>
</clipPath>
</defs>
</svg>
