<svg width="24" height="24" viewBox="0 0 24 24" fill="none" xmlns="http://www.w3.org/2000/svg">
<path fill-rule="evenodd" clip-rule="evenodd" d="M7.04504 11.7173C7.04504 8.95586 9.28362 6.71729 12.045 6.71729C14.8065 6.71729 17.045 8.95586 17.045 11.7173C17.045 14.4787 14.8065 16.7173 12.045 16.7173C9.28362 16.7173 7.04504 14.4787 7.04504 11.7173ZM12.045 8.71729C10.3882 8.71729 9.04504 10.0604 9.04504 11.7173C9.04504 13.3741 10.3882 14.7173 12.045 14.7173C13.7019 14.7173 15.045 13.3741 15.045 11.7173C15.045 10.0604 13.7019 8.71729 12.045 8.71729Z" fill="#002EFF"/>
<path fill-rule="evenodd" clip-rule="evenodd" d="M16.5299 2.35376C17.3976 1.63387 18.6613 1.69431 19.4579 2.49005L21.4954 4.52363C22.306 5.33386 22.3646 6.63606 21.6323 7.51775L21.6311 7.51917L21.2194 8.01312C21.2604 8.10779 21.2999 8.2031 21.3379 8.29901L22.0119 8.361C23.1536 8.46772 23.995 9.43375 24 10.5582L24 10.5627L24 13.4373C24 14.5671 23.1511 15.5325 22.011 15.6391L21.3383 15.701C21.3002 15.7972 21.2606 15.8929 21.2194 15.9879L21.6319 16.4832C22.3626 17.363 22.3077 18.6674 21.4926 19.4779L21.4916 19.4789L19.4565 21.5101C18.661 22.3044 17.3963 22.3641 16.5299 21.6463L16.0078 21.213C15.8992 21.2604 15.7897 21.3058 15.6796 21.3493L15.6195 21.9995L15.6188 22.0065C15.508 23.1201 14.5841 23.9947 13.4472 24L13.4425 24L10.5593 24C9.41364 24 8.48649 23.1158 8.38024 21.9971L8.38 21.9945L8.32045 21.3497C8.21021 21.3062 8.10078 21.2608 7.9922 21.2134L7.47006 21.6462C6.60392 22.3649 5.33824 22.3077 4.54255 21.5092L4.54103 21.5076L2.50582 19.4764C1.69532 18.6663 1.63651 17.3641 2.36864 16.4825L2.78088 15.9875C2.7398 15.8926 2.70019 15.7971 2.66207 15.701L1.98806 15.639C0.848355 15.5325 0 14.5666 0 13.4373V10.5627C0 9.43291 0.848863 8.46749 1.98903 8.36091L2.66165 8.29905C2.6998 8.20276 2.73944 8.10711 2.78055 8.01211L2.36807 7.51677C1.63742 6.63701 1.69231 5.33261 2.50742 4.52203L2.5084 4.52105L4.54347 2.48992C5.33902 1.69556 6.60371 1.63591 7.47004 2.35374L7.99223 2.787C8.10083 2.73961 8.21024 2.69417 8.32041 2.6507L8.37979 2.00769C8.48194 0.883739 9.41529 0 10.5593 0H13.4407C14.5864 0 15.5135 0.884206 15.6198 2.00287L15.62 2.00547L15.6795 2.64974C15.7899 2.69331 15.8996 2.73887 16.0085 2.7864L16.5299 2.35376ZM10.5593 2C10.4769 2 10.3825 2.06768 10.3716 2.18881L10.2533 3.46981C10.2163 3.86974 9.94374 4.20877 9.56106 4.33068C9.12941 4.46819 8.70948 4.64258 8.30574 4.85205C7.94895 5.03715 7.51602 4.99065 7.20668 4.734L6.19338 3.89326C6.12278 3.83486 6.02301 3.83888 5.95632 3.9055L3.91952 5.93836L3.91779 5.94008C3.84226 6.0151 3.83265 6.14958 3.90665 6.23898L4.72577 7.22262C4.9829 7.5314 5.03024 7.9641 4.84595 8.32117C4.64427 8.71194 4.47507 9.12007 4.34008 9.54152C4.21771 9.92359 3.87884 10.1955 3.47934 10.2323L2.17483 10.3523C2.08893 10.3605 2 10.439 2 10.5627V13.4373C2 13.5615 2.08977 13.6396 2.17419 13.6477L3.47945 13.7677C3.87881 13.8045 4.2176 14.0762 4.34008 14.4581C4.47488 14.8784 4.64429 15.2868 4.84645 15.6789C5.0305 16.0359 4.98308 16.4684 4.72606 16.777L3.90689 17.7607C3.83397 17.849 3.84212 17.9839 3.91968 18.0618L5.95915 20.0973C6.02267 20.1612 6.12053 20.1672 6.19333 20.1068L7.20749 19.2661C7.51707 19.0095 7.95027 18.9632 8.30704 19.1488C8.70846 19.3575 9.12781 19.5316 9.56071 19.6693C9.94357 19.7911 10.2163 20.1302 10.2533 20.5303L10.3713 21.8088C10.3837 21.9351 10.4798 22 10.5593 22L13.4392 22C13.5217 21.9989 13.6153 21.9323 13.6284 21.8107L13.6287 21.8085L13.7467 20.5302C13.7836 20.1303 14.0563 19.7912 14.4389 19.6693C14.8706 19.5318 15.2905 19.3574 15.6943 19.148C16.051 18.9628 16.484 19.0094 16.7933 19.266L17.8065 20.1066C17.8771 20.1651 17.9769 20.1612 18.0437 20.0945L20.0805 18.0616L20.0822 18.0599C20.1578 17.9848 20.1676 17.8504 20.0933 17.761L19.2742 16.7774C19.0171 16.4686 18.9698 16.0359 19.154 15.6788C19.3557 15.2881 19.5249 14.8799 19.6599 14.4585C19.7823 14.0764 20.1212 13.8045 20.5207 13.7677L21.8252 13.6477C21.9111 13.6395 22 13.561 22 13.4373V10.5658C21.9988 10.4347 21.9065 10.36 21.8258 10.3523L20.5205 10.2323C20.1212 10.1955 19.7824 9.92377 19.6599 9.54188C19.5251 9.12169 19.3558 8.71339 19.1537 8.32133C18.9695 7.96415 19.0171 7.53146 19.2744 7.22281L20.0942 6.23944C20.1675 6.15063 20.1593 6.01592 20.0815 5.93819L18.0444 3.90498C17.9765 3.83716 17.8783 3.83382 17.807 3.89294L16.7937 4.73364C16.4841 4.9905 16.0508 5.03686 15.6939 4.85129C15.2905 4.64154 14.8709 4.4673 14.4397 4.33035C14.0566 4.20868 13.7836 3.86946 13.7467 3.46921L13.6286 2.19109C13.6162 2.06483 13.5202 2 13.4407 2H10.5593Z" fill="#002EFF"/>
</svg>
