<svg width="36" height="36" viewBox="0 0 36 36" fill="none" xmlns="http://www.w3.org/2000/svg">
<rect width="36" height="36" rx="18" fill="url(#paint0_linear_4270_5364)"/>
<path d="M7.08142 28.4738L8.62482 22.8692C7.67062 21.2242 7.17006 19.3612 7.17528 17.4566C7.17528 11.4888 12.0558 6.63672 18.0469 6.63672C20.9564 6.63672 23.6886 7.76282 25.7378 9.80745C27.7922 11.8521 28.9237 14.5713 28.9184 17.4618C28.9184 23.4297 24.038 28.2818 18.0416 28.2818H18.0364C16.2167 28.2818 14.4282 27.8251 12.8379 26.9636L7.08142 28.4738ZM13.1142 25.0072L13.4427 25.2044C14.8297 26.0244 16.42 26.4551 18.0416 26.4603H18.0469C23.0264 26.4603 27.0831 22.4281 27.0831 17.467C27.0831 15.0643 26.1445 12.8069 24.4395 11.1048C22.7344 9.40268 20.461 8.46858 18.0469 8.46858C13.0673 8.46339 9.01067 12.4956 9.01067 17.4566C9.01067 19.1536 9.48516 20.809 10.3924 22.2413L10.6062 22.5838L9.69373 25.8998L13.1142 25.0072Z" fill="white"/>
<path d="M7.46204 28.095L8.95329 22.6825C8.03038 21.0997 7.54546 19.299 7.54546 17.4619C7.55068 11.7017 12.2591 7.01562 18.0468 7.01562C20.8573 7.01562 23.4905 8.1054 25.4719 10.0774C27.4532 12.0494 28.543 14.6752 28.543 17.4671C28.543 23.2274 23.8294 27.9134 18.0468 27.9134H18.0416C16.2844 27.9134 14.5585 27.4723 13.0256 26.642L7.46204 28.095Z" fill="url(#paint1_linear_4270_5364)"/>
<path d="M7.08142 28.4738L8.62482 22.8692C7.67062 21.2242 7.17006 19.3612 7.17528 17.4566C7.17528 11.4888 12.0558 6.63672 18.0469 6.63672C20.9564 6.63672 23.6886 7.76282 25.7378 9.80745C27.7922 11.8521 28.9237 14.5713 28.9184 17.4618C28.9184 23.4297 24.038 28.2818 18.0416 28.2818H18.0364C16.2167 28.2818 14.4282 27.8251 12.8379 26.9636L7.08142 28.4738ZM13.1142 25.0072L13.4427 25.2044C14.8297 26.0244 16.42 26.4551 18.0416 26.4603H18.0469C23.0264 26.4603 27.0831 22.4281 27.0831 17.467C27.0831 15.0643 26.1445 12.8069 24.4395 11.1048C22.7344 9.40268 20.461 8.46858 18.0469 8.46858C13.0673 8.46339 9.01067 12.4956 9.01067 17.4566C9.01067 19.1536 9.48516 20.809 10.3924 22.2413L10.6062 22.5838L9.69373 25.8998L13.1142 25.0072Z" fill="url(#paint2_linear_4270_5364)"/>
<path fill-rule="evenodd" clip-rule="evenodd" d="M15.3301 12.9332C15.1268 12.4817 14.913 12.4713 14.7201 12.4661C14.5637 12.4609 14.3812 12.4609 14.1987 12.4609C14.0162 12.4609 13.7242 12.5284 13.4739 12.7982C13.2236 13.0681 12.5249 13.722 12.5249 15.0556C12.5249 16.3841 13.5 17.6711 13.6355 17.8527C13.7711 18.0344 15.5178 20.8522 18.2762 21.9368C20.5704 22.8398 21.0397 22.6581 21.535 22.6114C22.0304 22.5647 23.141 21.9576 23.3704 21.3245C23.5946 20.6913 23.5946 20.1516 23.5268 20.0375C23.4591 19.9233 23.2766 19.8559 23.0054 19.7209C22.7343 19.586 21.3995 18.9321 21.1492 18.8387C20.8989 18.7505 20.7164 18.7038 20.5391 18.9737C20.3566 19.2435 19.8352 19.8507 19.6788 20.0323C19.5223 20.2139 19.3607 20.2347 19.0896 20.0998C18.8184 19.9648 17.9424 19.6794 16.9048 18.7557C16.0966 18.0396 15.5491 17.1522 15.3927 16.8823C15.2363 16.6125 15.3771 16.4672 15.5126 16.3322C15.6326 16.2129 15.7838 16.0157 15.9193 15.86C16.0549 15.7043 16.1018 15.5902 16.1905 15.4085C16.2791 15.2269 16.2374 15.0712 16.1696 14.9363C16.1018 14.8066 15.57 13.4677 15.3301 12.9332Z" fill="white"/>
<defs>
<linearGradient id="paint0_linear_4270_5364" x1="17.9991" y1="35.9982" x2="17.9991" y2="-0.00125955" gradientUnits="userSpaceOnUse">
<stop stop-color="#20B038"/>
<stop offset="1" stop-color="#60D66A"/>
</linearGradient>
<linearGradient id="paint1_linear_4270_5364" x1="18.002" y1="28.094" x2="18.002" y2="7.01489" gradientUnits="userSpaceOnUse">
<stop stop-color="#20B038"/>
<stop offset="1" stop-color="#60D66A"/>
</linearGradient>
<linearGradient id="paint2_linear_4270_5364" x1="18.0021" y1="28.4717" x2="18.0021" y2="6.63672" gradientUnits="userSpaceOnUse">
<stop stop-color="#F9F9F9"/>
<stop offset="1" stop-color="white"/>
</linearGradient>
</defs>
</svg>
