<svg width="131" height="155" viewBox="0 0 131 155" fill="none" xmlns="http://www.w3.org/2000/svg">
<path d="M72.1944 6.24357C72.1944 6.24357 72.1944 -0.101149 61.3026 1.16779C50.4108 2.43674 45.8469 12.0596 42.5561 14.0856C39.2653 16.1117 33.1828 17.8925 32.929 20.9252C32.6753 23.958 35.4669 25.2312 32.6753 27.5111C29.8836 29.7909 25.603 31.8297 26.597 34.8709C27.591 37.9122 30.4039 40.9492 29.1349 42.9795C27.866 45.0098 24.3214 47.0316 27.6122 49.3242C30.903 51.6167 32.4257 52.1116 32.4257 55.1486C32.4257 58.1856 31.1568 60.2244 34.2022 61.2311C37.2477 62.2378 39.0115 60.2159 40.788 64.0143C42.5645 67.8127 44.3326 68.8278 47.3738 68.0665C50.4151 67.3051 54.7168 66.0404 56.2564 67.0555C57.7961 68.0707 62.6011 70.8624 64.6145 69.3354C66.6279 67.8084 68.4214 65.5286 71.4541 66.7975C74.4869 68.0665 77.029 69.8388 78.2937 67.5589C79.5585 65.279 78.2937 64.7714 83.1073 63.7521C87.9208 62.7327 89.6931 62.9949 89.6931 58.9428C89.6931 54.8906 89.4393 53.867 91.7191 52.1032C93.999 50.3393 96.0251 51.088 95.268 46.7821C94.5108 42.4761 92.9881 41.461 93.7452 37.155C94.5024 32.8491 92.4763 31.3306 90.9578 30.0616C89.4393 28.7927 87.667 26.517 88.1746 24.2372C88.6821 21.9573 92.4805 21.6993 88.6779 17.6514C84.8753 13.6034 83.1073 14.8639 82.3332 11.8227C81.5591 8.78145 79.034 2.19141 72.1944 6.24357Z" fill="#263238" stroke="#263238" stroke-linecap="round" stroke-linejoin="round"/>
<path d="M62.4684 13.8699C60.9076 16.3401 59.7021 19.1275 57.1896 21.4835C53.5604 24.8674 44.2633 27.8282 43.8107 31.0091C43.3581 34.1899 44.9443 35.996 41.7719 38.7158C38.5996 41.4355 33.6084 42.0996 33.6084 44.8405C33.6084 47.5815 34.9662 48.4697 34.2894 50.5085" stroke="#616161" stroke-miterlimit="10"/>
<path d="M69.2122 10.8242C69.2122 10.8242 68.0786 7.86337 64.902 10.8242C64.6567 11.0527 64.4241 11.2895 64.2041 11.5306" stroke="#616161" stroke-miterlimit="10"/>
<path d="M43.5949 23.7844C40.8032 24.4612 38.5995 24.9476 38.371 26.9272C37.9142 30.7805 38.5952 33.2719 35.8755 34.4097C33.1557 35.5475 29.5307 37.3706 30.6601 39.6251C31.7895 41.8796 32.0179 42.5859 31.7937 43.4784" stroke="#616161" stroke-miterlimit="10"/>
<path d="M68.7447 7.19489C68.7447 7.19489 62.3999 3.11735 59.0161 6.7423C55.6322 10.3672 57.2015 14.9058 51.9862 19.897C50.6616 21.1304 49.0982 22.0791 47.3926 22.6844" stroke="#616161" stroke-miterlimit="10"/>
<path d="M90.8145 39.3545C91.195 39.9454 91.7208 40.4289 92.3414 40.7588" stroke="#616161" stroke-miterlimit="10"/>
<path d="M73.2959 12.8753C73.2959 12.8753 78.9638 11.0607 80.3216 14.233C81.6794 17.4054 82.3646 23.0776 84.8602 23.987C87.3558 24.8964 88.4851 26.2542 88.4851 31.2411C88.4822 32.8484 88.7218 34.4469 89.1957 35.9827" stroke="#616161" stroke-miterlimit="10"/>
<path d="M36.5596 53.2278C38.3742 50.2669 40.8655 51.4174 41.0939 48.2408C41.3223 45.0642 39.5077 44.1591 41.3181 42.1203C43.1285 40.0815 46.0809 39.1594 46.0809 39.1594" stroke="#616161" stroke-miterlimit="10"/>
<path d="M39.0498 59.5811C38.2119 58.8874 37.4845 58.0701 36.8926 57.1575" stroke="#616161" stroke-miterlimit="10"/>
<path d="M101.835 154.684C101.835 154.684 102.592 144.3 98.0281 133.912C93.4641 123.523 92.4363 122.774 92.4363 119.733C92.4363 116.692 95.4902 113.143 95.9978 106.304C96.5053 99.464 96.2515 96.1521 96.2515 96.1521C96.2515 96.1521 107.143 113.376 114.744 114.391C122.345 115.406 126.905 108.313 124.118 98.6857C121.33 89.0587 109.169 81.2081 104.36 74.8719C99.5508 68.5356 88.6506 68.5272 83.0799 68.5272C77.5093 68.5272 74.7218 66.5011 73.7067 62.7027C72.6915 58.9044 72.6957 51.2822 72.6957 51.2822C72.6957 51.2822 66.1057 55.3344 54.9602 50.7747C54.9602 50.7747 55.9753 64.7076 54.7064 66.7337C53.4374 68.7598 51.6778 70.8239 44.0769 70.8239C36.4759 70.8239 30.1439 72.3467 26.5993 75.8997C23.0547 79.4528 8.36036 93.6311 4.56199 99.206C0.763624 104.781 2.78547 110.859 7.34521 113.139C11.9049 115.419 16.4647 113.389 19.7597 110.352C23.0547 107.315 33.4389 97.6832 33.4389 97.6832C33.4389 97.6832 33.4389 103.512 36.2263 111.87C39.0138 120.228 41.3021 119.217 39.2633 125.295C37.2246 131.374 33.1851 133.15 31.9204 141.001C31.1629 145.52 30.823 150.099 30.9052 154.68" fill="#5CDEB1"/>
<g opacity="0.2">
<path d="M85.2113 76.4709C85.0379 76.4709 84.4035 76.8939 85.2113 78.1248C86.0192 76.9024 85.3848 76.4709 85.2113 76.4709Z" fill="black"/>
<path d="M105.513 76.4709C105.34 76.4709 104.705 76.8939 105.513 78.1248C106.321 76.9024 105.687 76.4709 105.513 76.4709Z" fill="black"/>
<path d="M105.513 86.6221C105.34 86.6221 104.705 87.0451 105.513 88.2759C106.321 87.0535 105.687 86.6221 105.513 86.6221Z" fill="black"/>
<path d="M85.2113 86.6221C85.0379 86.6221 84.4035 87.0451 85.2113 88.2759C86.0192 87.0535 85.3848 86.6221 85.2113 86.6221Z" fill="black"/>
<path d="M95.3637 81.5459C95.1903 81.5459 94.5558 81.9689 95.3637 83.1998C96.1716 81.9773 95.5371 81.5459 95.3637 81.5459Z" fill="black"/>
<path d="M95.3637 71.3953C95.1903 71.3953 94.5558 71.8182 95.3637 73.0491C96.1716 71.8267 95.5371 71.3953 95.3637 71.3953Z" fill="black"/>
<path d="M85.668 78.3783C87.1315 78.4587 87.1822 77.6931 87.0976 77.5324C87.013 77.3716 86.2982 77.0629 85.668 78.3783Z" fill="black"/>
<path d="M107.209 78.0866L106.647 77.5071C106.338 77.7264 106.098 78.0284 105.953 78.3784C106.394 78.4508 106.846 78.3459 107.209 78.0866Z" fill="black"/>
<path d="M95.8213 83.454C97.2848 83.5344 97.3356 82.7688 97.251 82.6081C97.1664 82.4473 96.4515 82.1386 95.8213 83.454Z" fill="black"/>
<path d="M95.8213 73.3024C97.2848 73.3828 97.3356 72.6172 97.251 72.4564C97.1664 72.2957 96.4515 71.9869 95.8213 73.3024Z" fill="black"/>
<path d="M103.644 77.5448C103.559 77.6928 103.614 78.4584 105.074 78.3908C104.426 77.0626 103.733 77.3925 103.644 77.5448Z" fill="black"/>
<path d="M103.645 87.6969C103.615 87.8043 103.621 87.9184 103.66 88.0226C103.7 88.1268 103.771 88.2157 103.865 88.2764C104.225 88.503 104.654 88.5931 105.075 88.5301C105.035 88.4429 104.989 88.3581 104.939 88.2764C104.334 87.2612 103.729 87.5531 103.645 87.6969Z" fill="black"/>
<path d="M93.4936 82.6215C93.409 82.7695 93.464 83.5351 94.9233 83.4674C94.2761 82.1393 93.5824 82.4692 93.4936 82.6215Z" fill="black"/>
<path d="M93.4936 72.4691C93.409 72.6172 93.464 73.3828 94.9233 73.3151C94.2761 71.9869 93.5824 72.3168 93.4936 72.4691Z" fill="black"/>
<path d="M85.2113 106.925C85.0379 106.925 84.4035 107.348 85.2113 108.579C86.0192 107.357 85.3848 106.925 85.2113 106.925Z" fill="black"/>
<path d="M105.515 106.925C105.388 106.925 105.024 107.154 105.138 107.742C105.316 107.932 105.493 108.122 105.675 108.308C106.225 107.293 105.675 106.925 105.515 106.925Z" fill="black"/>
<path d="M85.2113 117.076C85.0379 117.076 84.4035 117.499 85.2113 118.73C86.0192 117.508 85.3848 117.076 85.2113 117.076Z" fill="black"/>
<path d="M115.666 112.002C115.493 112.002 114.859 112.425 115.666 113.656C116.474 112.433 115.84 112.002 115.666 112.002Z" fill="black"/>
<path d="M85.2113 96.7737C85.0379 96.7737 84.4035 97.1967 85.2113 98.4275C86.0192 97.2051 85.3848 96.7737 85.2113 96.7737Z" fill="black"/>
<path d="M105.513 96.7737C105.34 96.7737 104.705 97.1967 105.513 98.4275C106.321 97.2051 105.687 96.7737 105.513 96.7737Z" fill="black"/>
<path d="M95.3637 101.85C95.1903 101.85 94.5558 102.273 95.3637 103.503C96.1716 102.281 95.5371 101.85 95.3637 101.85Z" fill="black"/>
<path d="M115.666 101.85C115.493 101.85 114.859 102.273 115.666 103.503C116.474 102.281 115.84 101.85 115.666 101.85Z" fill="black"/>
<path d="M95.3637 91.698C95.1903 91.698 94.5558 92.121 95.3637 93.3519C96.1716 92.1294 95.5371 91.698 95.3637 91.698Z" fill="black"/>
<path d="M115.666 91.698C115.493 91.698 114.859 92.121 115.666 93.3519C116.474 92.1294 115.84 91.698 115.666 91.698Z" fill="black"/>
<path d="M85.668 108.833C87.1315 108.913 87.1822 108.148 87.0976 107.987C87.013 107.826 86.2982 107.517 85.668 108.833Z" fill="black"/>
<path d="M106.036 108.681L106.188 108.838C107.419 108.838 107.457 108.14 107.385 107.992C107.314 107.844 106.658 107.547 106.036 108.681Z" fill="black"/>
<path d="M86.7593 117.999C86.5742 117.996 86.394 118.059 86.2517 118.177C86.1655 118.245 86.0862 118.322 86.0148 118.405C85.9298 118.507 85.8534 118.616 85.7864 118.731C85.7876 118.74 85.7876 118.748 85.7864 118.756C85.7483 118.824 85.706 118.9 85.668 118.985C86.0886 119.049 86.5181 118.958 86.8777 118.731C86.9077 118.708 86.936 118.682 86.9623 118.655C87.0045 118.609 87.0401 118.558 87.068 118.503C87.1093 118.454 87.1345 118.394 87.1401 118.33C87.1458 118.267 87.1317 118.203 87.0997 118.148C87.0677 118.093 87.0195 118.049 86.9615 118.022C86.9036 117.996 86.8389 117.988 86.7762 117.999H86.7593Z" fill="black"/>
<path d="M116.121 113.909C117.58 113.989 117.635 113.224 117.551 113.063C117.466 112.902 116.751 112.594 116.121 113.909Z" fill="black"/>
<path d="M85.668 98.6818C87.1315 98.7622 87.1822 97.9966 87.0976 97.8358C87.013 97.6751 86.2982 97.3663 85.668 98.6818Z" fill="black"/>
<path d="M107.383 97.8483C107.294 97.696 106.6 97.3661 105.953 98.6942C107.412 98.7619 107.467 97.9963 107.383 97.8483Z" fill="black"/>
<path d="M95.8213 103.757C95.9439 103.763 96.0667 103.763 96.1893 103.757C96.1893 103.545 96.2104 103.334 96.2189 103.139C96.0587 103.326 95.925 103.534 95.8213 103.757Z" fill="black"/>
<path d="M116.121 103.757C117.58 103.837 117.635 103.072 117.551 102.911C117.466 102.75 116.751 102.442 116.121 103.757Z" fill="black"/>
<path d="M95.8213 93.6056C97.2848 93.686 97.3356 92.9204 97.251 92.7597C97.1664 92.5989 96.4515 92.2902 95.8213 93.6056Z" fill="black"/>
<path d="M116.121 93.6056C117.58 93.686 117.635 92.9204 117.551 92.7597C117.466 92.5989 116.751 92.2902 116.121 93.6056Z" fill="black"/>
<path d="M94.2503 113.875L94.483 113.244C93.9923 112.737 93.5609 112.957 93.4932 113.075C93.4255 113.194 93.4467 113.726 94.2503 113.875Z" fill="black"/>
<path d="M123.948 108C123.917 108.121 123.928 108.249 123.979 108.363C124.031 108.477 124.12 108.57 124.232 108.626C124.321 108.38 124.397 108.127 124.469 107.869C124.379 107.838 124.282 107.834 124.189 107.858C124.097 107.881 124.013 107.93 123.948 108Z" fill="black"/>
<path d="M113.795 113.075C113.706 113.223 113.765 113.989 115.225 113.921C114.577 112.593 113.884 112.923 113.795 113.075Z" fill="black"/>
<path d="M103.644 97.8483C103.559 97.9963 103.614 98.7619 105.074 98.6942C104.426 97.3661 103.733 97.696 103.644 97.8483Z" fill="black"/>
<path d="M93.4936 102.923C93.409 103.072 93.464 103.837 94.9233 103.769C94.2761 102.441 93.5824 102.771 93.4936 102.923Z" fill="black"/>
<path d="M113.795 102.923C113.706 103.072 113.765 103.837 115.225 103.769C114.577 102.441 113.884 102.771 113.795 102.923Z" fill="black"/>
<path d="M93.4936 92.7723C93.409 92.9204 93.464 93.686 94.9233 93.6183C94.2761 92.2901 93.5824 92.6201 93.4936 92.7723Z" fill="black"/>
<path d="M113.795 92.7723C113.706 92.9204 113.765 93.686 115.225 93.6183C114.577 92.2901 113.884 92.6201 113.795 92.7723Z" fill="black"/>
<path d="M107.163 88.276C107.256 88.2153 107.328 88.1264 107.368 88.0222C107.407 87.918 107.412 87.804 107.383 87.6965C107.298 87.5527 106.693 87.2735 106.088 88.276C106.038 88.3578 105.993 88.4425 105.953 88.5298C106.374 88.5935 106.803 88.5034 107.163 88.276Z" fill="black"/>
<path d="M86.8601 88.276C86.9536 88.2153 87.0253 88.1264 87.0648 88.0222C87.1044 87.918 87.1097 87.804 87.0801 87.6965C86.9955 87.5527 86.3906 87.2735 85.7857 88.276C85.7355 88.3578 85.6903 88.4425 85.6504 88.5298C86.071 88.5935 86.5005 88.5034 86.8601 88.276Z" fill="black"/>
<path d="M85.2113 137.38C85.0379 137.38 84.4035 137.803 85.2113 139.033C86.0192 137.811 85.3848 137.38 85.2113 137.38Z" fill="black"/>
<path d="M85.2113 147.532C85.0379 147.532 84.4035 147.955 85.2113 149.186C86.0192 147.963 85.3848 147.532 85.2113 147.532Z" fill="black"/>
<path d="M95.3637 142.455C95.1903 142.455 94.5558 142.878 95.3637 144.109C96.1716 142.887 95.5371 142.455 95.3637 142.455Z" fill="black"/>
<path d="M85.2113 127.228C85.0379 127.228 84.4035 127.651 85.2113 128.882C86.0192 127.659 85.3848 127.228 85.2113 127.228Z" fill="black"/>
<path d="M95.3637 132.304C95.1903 132.304 94.5558 132.727 95.3637 133.958C96.1716 132.735 95.5371 132.304 95.3637 132.304Z" fill="black"/>
<path d="M85.668 139.288C87.1315 139.368 87.1822 138.603 87.0976 138.442C87.013 138.281 86.2982 137.972 85.668 139.288Z" fill="black"/>
<path d="M86.7586 148.454H86.6698C86.5607 148.462 86.455 148.495 86.361 148.551L86.251 148.627C86.0628 148.781 85.905 148.969 85.7857 149.181C85.7355 149.263 85.6903 149.348 85.6504 149.435C86.071 149.499 86.5005 149.409 86.8601 149.181C86.9536 149.121 87.0253 149.032 87.0648 148.928C87.1044 148.823 87.1097 148.709 87.0801 148.602C87.0404 148.555 86.9911 148.518 86.9356 148.493C86.8801 148.467 86.8197 148.454 86.7586 148.454Z" fill="black"/>
<path d="M95.8213 144.363C97.2848 144.444 97.3356 143.678 97.251 143.517C97.1664 143.357 96.4515 143.048 95.8213 144.363Z" fill="black"/>
<path d="M85.668 129.137C87.1315 129.217 87.1822 128.451 87.0976 128.291C87.013 128.13 86.2982 127.821 85.668 129.137Z" fill="black"/>
<path d="M95.8213 134.212C97.2848 134.292 97.3356 133.527 97.251 133.366C97.1664 133.205 96.4515 132.896 95.8213 134.212Z" fill="black"/>
<path d="M93.4936 143.53C93.409 143.678 93.464 144.444 94.9233 144.376C94.2761 143.048 93.5824 143.378 93.4936 143.53Z" fill="black"/>
<path d="M93.4936 133.379C93.409 133.527 93.464 134.293 94.9233 134.225C94.2761 132.897 93.5824 133.227 93.4936 133.379Z" fill="black"/>
<path d="M95.3637 152.607C95.1903 152.607 94.5558 153.03 95.3637 154.261C96.1716 153.039 95.5371 152.607 95.3637 152.607Z" fill="black"/>
<path d="M95.8213 154.515C97.2848 154.595 97.3356 153.83 97.251 153.669C97.1664 153.508 96.4515 153.2 95.8213 154.515Z" fill="black"/>
<path d="M93.4936 153.681C93.409 153.829 93.464 154.595 94.9233 154.527C94.2761 153.199 93.5824 153.529 93.4936 153.681Z" fill="black"/>
<path d="M64.9086 56.1677C64.7352 56.1677 64.1007 56.5907 64.9086 57.8216C65.7165 56.5992 65.082 56.1677 64.9086 56.1677Z" fill="black"/>
<path d="M54.998 51.2314C54.998 51.4599 55.0319 51.7771 55.0573 52.1747C55.1377 52.028 55.1748 51.8615 55.1643 51.6945C55.1538 51.5275 55.0962 51.367 54.998 51.2314Z" fill="black"/>
<path d="M66.4555 57.0896C66.2705 57.0858 66.0903 57.1489 65.948 57.2672C65.8618 57.3355 65.7825 57.412 65.7111 57.4956C65.6261 57.5977 65.5497 57.7066 65.4827 57.8213V57.8467C65.4446 57.9144 65.4023 57.9905 65.3643 58.0751C65.7849 58.1388 66.2144 58.0487 66.574 57.8213C66.604 57.7981 66.6323 57.7726 66.6586 57.7452C66.7008 57.6997 66.7364 57.6484 66.7643 57.5929C66.7942 57.54 66.8123 57.4812 66.8174 57.4206C66.8225 57.36 66.8145 57.299 66.7939 57.2418C66.7528 57.1924 66.701 57.153 66.6423 57.1266C66.5837 57.1002 66.5198 57.0876 66.4555 57.0896Z" fill="black"/>
<path d="M55.2148 52.9997C56.6784 53.08 56.7291 52.3144 56.6445 52.1537C56.5599 51.993 55.8451 51.6842 55.2148 52.9997Z" fill="black"/>
<path d="M44.9943 76.9402C44.9868 76.8754 44.9682 76.8125 44.9393 76.7541C44.9271 76.7277 44.9129 76.7023 44.897 76.6779C44.8701 76.6367 44.8374 76.5997 44.7997 76.568C44.7693 76.5418 44.7351 76.5204 44.6982 76.5045C44.6721 76.4908 44.6431 76.4836 44.6136 76.4836C44.5842 76.4836 44.5551 76.4908 44.529 76.5045C44.3345 76.5891 44.0172 76.9275 44.3725 77.7142C44.443 77.8607 44.5235 78.002 44.6136 78.1372C44.7037 78.002 44.7843 77.8607 44.8547 77.7142C44.9545 77.5157 45.0094 77.2977 45.0155 77.0755C45.0177 77.0361 45.0177 76.9966 45.0155 76.9571L44.9943 76.9402Z" fill="black"/>
<path d="M64.9086 76.4709C64.7352 76.4709 64.1007 76.8939 64.9086 78.1248C65.7165 76.9024 65.082 76.4709 64.9086 76.4709Z" fill="black"/>
<path d="M64.9086 86.6221C64.7352 86.6221 64.1007 87.0451 64.9086 88.2759C65.7165 87.0535 65.082 86.6221 64.9086 86.6221Z" fill="black"/>
<path d="M44.9943 87.0916C44.9868 87.0268 44.9682 86.9639 44.9393 86.9054C44.9271 86.8791 44.9129 86.8537 44.897 86.8293C44.8701 86.7881 44.8374 86.751 44.7997 86.7193C44.7693 86.6931 44.7351 86.6717 44.6982 86.6559C44.6721 86.6422 44.6431 86.635 44.6136 86.635C44.5842 86.635 44.5551 86.6422 44.529 86.6559C44.3345 86.7405 44.0172 87.0789 44.3725 87.8656C44.443 88.012 44.5235 88.1534 44.6136 88.2886C44.7037 88.1534 44.7843 88.012 44.8547 87.8656C44.9545 87.6671 45.0094 87.449 45.0155 87.2269C45.0177 87.1875 45.0177 87.1479 45.0155 87.1085L44.9943 87.0916Z" fill="black"/>
<path d="M54.7572 81.5459C54.5838 81.5459 53.9493 81.9689 54.7572 83.1998C55.5651 81.9773 54.9307 81.5459 54.7572 81.5459Z" fill="black"/>
<path d="M75.06 81.5459C74.8866 81.5459 74.2521 81.9689 75.06 83.1998C75.8679 81.9773 75.2334 81.5459 75.06 81.5459Z" fill="black"/>
<path d="M64.9086 66.3193C64.7352 66.3193 64.1007 66.7423 64.9086 67.9732C65.7165 66.7508 65.082 66.3193 64.9086 66.3193Z" fill="black"/>
<path d="M54.7572 71.3953C54.5838 71.3953 53.9493 71.8182 54.7572 73.0491C55.5651 71.8267 54.9307 71.3953 54.7572 71.3953Z" fill="black"/>
<path d="M75.06 71.3953C74.8866 71.3953 74.2521 71.8182 75.06 73.0491C75.8679 71.8267 75.2334 71.3953 75.06 71.3953Z" fill="black"/>
<path d="M45.0605 78.3783C46.5241 78.4587 46.5748 77.6931 46.4902 77.5324C46.4056 77.3716 45.6908 77.0629 45.0605 78.3783Z" fill="black"/>
<path d="M65.3643 78.3783C66.8235 78.4587 66.8785 77.6931 66.7939 77.5324C66.7093 77.3716 65.9945 77.0629 65.3643 78.3783Z" fill="black"/>
<path d="M55.2148 83.454C56.6784 83.5344 56.7291 82.7688 56.6445 82.6081C56.5599 82.4473 55.8451 82.1386 55.2148 83.454Z" fill="black"/>
<path d="M75.5146 83.454C76.9739 83.5344 77.0289 82.7688 76.9443 82.6081C76.8597 82.4473 76.1449 82.1386 75.5146 83.454Z" fill="black"/>
<path d="M65.3643 68.227C66.8235 68.3073 66.8785 67.5417 66.7939 67.381C66.7093 67.2203 65.9945 66.9115 65.3643 68.227Z" fill="black"/>
<path d="M55.2148 73.3024C56.6784 73.3828 56.7291 72.6172 56.6445 72.4564C56.5599 72.2957 55.8451 71.9869 55.2148 73.3024Z" fill="black"/>
<path d="M75.5146 73.3024C76.9739 73.3828 77.0289 72.6172 76.9443 72.4564C76.8597 72.2957 76.1449 71.9869 75.5146 73.3024Z" fill="black"/>
<path d="M56.626 62.318C56.5414 62.1741 55.9239 61.895 55.3105 62.9313C55.3105 63.0074 55.3105 63.0793 55.3105 63.1512C56.6556 63.2104 56.7106 62.4618 56.626 62.318Z" fill="black"/>
<path d="M63.0395 77.5448C62.9549 77.6928 63.0099 78.4584 64.4692 78.3908C63.822 77.0626 63.1283 77.3925 63.0395 77.5448Z" fill="black"/>
<path d="M63.0384 87.6969C63.0088 87.8043 63.0141 87.9184 63.0537 88.0226C63.0932 88.1268 63.1649 88.2157 63.2584 88.2764C63.6183 88.503 64.0475 88.5931 64.4681 88.5301C64.4282 88.4429 64.383 88.3581 64.3328 88.2764C63.7279 87.2612 63.123 87.5531 63.0384 87.6969Z" fill="black"/>
<path d="M52.8862 82.6215C52.8016 82.7695 52.8566 83.5351 54.3158 83.4674C53.6687 82.1393 52.975 82.4692 52.8862 82.6215Z" fill="black"/>
<path d="M83.3418 77.5448C83.2529 77.6928 83.3121 78.4584 84.7714 78.3908C84.1243 77.0626 83.4306 77.3925 83.3418 77.5448Z" fill="black"/>
<path d="M84.6365 88.2764C84.0316 87.2612 83.4268 87.5531 83.3422 87.6969C83.3125 87.8043 83.3178 87.9184 83.3574 88.0226C83.3969 88.1268 83.4686 88.2157 83.5621 88.2764C83.9217 88.5037 84.3512 88.5938 84.7718 88.5301C84.7319 88.4429 84.6867 88.3581 84.6365 88.2764Z" fill="black"/>
<path d="M73.1884 82.6215C73.0996 82.7695 73.1588 83.5351 74.6181 83.4674C73.971 82.1393 73.2773 82.4692 73.1884 82.6215Z" fill="black"/>
<path d="M63.0395 67.3934C62.9549 67.5415 63.0099 68.3071 64.4692 68.2394C63.822 66.9112 63.1283 67.2412 63.0395 67.3934Z" fill="black"/>
<path d="M52.8862 72.4691C52.8016 72.6172 52.8566 73.3828 54.3158 73.3151C53.6687 71.9869 52.975 72.3168 52.8862 72.4691Z" fill="black"/>
<path d="M73.1884 72.4691C73.0996 72.6172 73.1588 73.3828 74.6181 73.3151C73.971 71.9869 73.2773 72.3168 73.1884 72.4691Z" fill="black"/>
<path d="M73.8252 63.0875C73.7871 62.9691 73.7491 62.8549 73.7152 62.7322C73.6814 62.6095 73.6222 62.3642 73.5799 62.1654C73.5075 62.1573 73.4343 62.1669 73.3665 62.1934C73.2987 62.22 73.2384 62.2626 73.1907 62.3177C73.1231 62.4319 73.1442 62.9141 73.8252 63.0875Z" fill="black"/>
<path d="M64.334 57.8213C64.2669 57.7066 64.1905 57.5977 64.1055 57.4956C64.0353 57.4109 63.9559 57.3343 63.8687 57.2672C63.7263 57.1489 63.5461 57.0858 63.3611 57.0895C63.2997 57.09 63.2391 57.1039 63.1836 57.1302C63.1281 57.1565 63.0789 57.1946 63.0396 57.2418C63.019 57.299 63.011 57.36 63.0161 57.4206C63.0213 57.4811 63.0394 57.5399 63.0692 57.5929C63.0972 57.6483 63.1328 57.6996 63.175 57.7451L63.2596 57.8213C63.6194 58.0479 64.0487 58.138 64.4693 58.0751C64.4312 57.9905 64.3889 57.9143 64.3509 57.8467L64.334 57.8213Z" fill="black"/>
<path d="M44.9943 107.395C44.9868 107.33 44.9682 107.267 44.9393 107.209C44.9271 107.183 44.9129 107.157 44.897 107.133C44.8701 107.092 44.8374 107.054 44.7997 107.023C44.7693 106.997 44.7351 106.975 44.6982 106.959C44.6721 106.946 44.6431 106.938 44.6136 106.938C44.5842 106.938 44.5551 106.946 44.529 106.959C44.3345 107.044 44.0172 107.382 44.3725 108.169C44.443 108.316 44.5235 108.457 44.6136 108.592C44.7037 108.457 44.7843 108.316 44.8547 108.169C44.9545 107.971 45.0094 107.752 45.0155 107.53C45.0177 107.491 45.0177 107.451 45.0155 107.412L44.9943 107.395Z" fill="black"/>
<path d="M64.9086 106.925C64.7352 106.925 64.1007 107.348 64.9086 108.579C65.7165 107.357 65.082 106.925 64.9086 106.925Z" fill="black"/>
<path d="M64.9086 117.076C64.7352 117.076 64.1007 117.499 64.9086 118.73C65.7165 117.508 65.082 117.076 64.9086 117.076Z" fill="black"/>
<path d="M44.9943 117.546C44.9868 117.482 44.9682 117.419 44.9393 117.36C44.9271 117.334 44.9129 117.309 44.897 117.284C44.8701 117.243 44.8374 117.206 44.7997 117.174C44.7693 117.148 44.7351 117.127 44.6982 117.111C44.6722 117.097 44.6432 117.089 44.6136 117.089C44.5841 117.089 44.555 117.097 44.529 117.111C44.3345 117.195 44.0172 117.534 44.3725 118.321C44.443 118.467 44.5235 118.608 44.6136 118.743C44.7037 118.608 44.7843 118.467 44.8547 118.321C44.9545 118.122 45.0094 117.904 45.0155 117.682C45.0177 117.642 45.0177 117.603 45.0155 117.563L44.9943 117.546Z" fill="black"/>
<path d="M54.7572 112.002C54.5838 112.002 53.9493 112.425 54.7572 113.656C55.5651 112.433 54.9307 112.002 54.7572 112.002Z" fill="black"/>
<path d="M75.06 112.002C74.8866 112.002 74.2521 112.425 75.06 113.656C75.8679 112.433 75.2334 112.002 75.06 112.002Z" fill="black"/>
<path d="M44.9943 97.2434C44.9868 97.1787 44.9682 97.1157 44.9393 97.0573C44.9271 97.0309 44.9129 97.0055 44.897 96.9812C44.8701 96.9399 44.8374 96.9029 44.7997 96.8712C44.7693 96.845 44.7351 96.8236 44.6982 96.8077C44.6721 96.794 44.6431 96.7869 44.6136 96.7869C44.5842 96.7869 44.5551 96.794 44.529 96.8077C44.3345 96.8923 44.0172 97.2307 44.3725 98.0175C44.443 98.1639 44.5235 98.3052 44.6136 98.4405C44.7037 98.3052 44.7843 98.1639 44.8547 98.0175C44.9545 97.8189 45.0094 97.6009 45.0155 97.3788C45.0177 97.3393 45.0177 97.2998 45.0155 97.2603L44.9943 97.2434Z" fill="black"/>
<path d="M64.9086 96.7737C64.7352 96.7737 64.1007 97.1967 64.9086 98.4275C65.7165 97.2051 65.082 96.7737 64.9086 96.7737Z" fill="black"/>
<path d="M54.7572 101.85C54.5838 101.85 53.9493 102.273 54.7572 103.503C55.5651 102.281 54.9307 101.85 54.7572 101.85Z" fill="black"/>
<path d="M75.06 101.85C74.8866 101.85 74.2521 102.273 75.06 103.503C75.8679 102.281 75.2334 101.85 75.06 101.85Z" fill="black"/>
<path d="M54.7572 91.698C54.5838 91.698 53.9493 92.121 54.7572 93.3519C55.5651 92.1294 54.9307 91.698 54.7572 91.698Z" fill="black"/>
<path d="M75.06 91.698C74.8866 91.698 74.2521 92.121 75.06 93.3519C75.8679 92.1294 75.2334 91.698 75.06 91.698Z" fill="black"/>
<path d="M45.0605 108.833C46.5241 108.913 46.5748 108.147 46.4902 107.987C46.4056 107.826 45.6908 107.517 45.0605 108.833Z" fill="black"/>
<path d="M65.3643 108.833C66.8235 108.913 66.8785 108.148 66.7939 107.987C66.7093 107.826 65.9945 107.517 65.3643 108.833Z" fill="black"/>
<path d="M66.4555 117.999C66.2705 117.996 66.0903 118.059 65.948 118.177C65.8618 118.245 65.7825 118.322 65.7111 118.406C65.6261 118.508 65.5497 118.617 65.4827 118.731V118.757C65.4446 118.824 65.4023 118.9 65.3643 118.985C65.7849 119.049 66.2144 118.959 66.574 118.731C66.604 118.708 66.6323 118.683 66.6586 118.655C66.7008 118.61 66.7364 118.558 66.7643 118.503C66.7942 118.45 66.8123 118.391 66.8174 118.331C66.8225 118.27 66.8145 118.209 66.7939 118.152C66.7528 118.102 66.701 118.063 66.6423 118.037C66.5837 118.01 66.5198 117.997 66.4555 117.999Z" fill="black"/>
<path d="M46.1518 117.999C45.9668 117.995 45.7866 118.058 45.6443 118.177C45.5581 118.245 45.4787 118.321 45.4074 118.405C45.3224 118.507 45.246 118.616 45.179 118.731V118.756C45.1409 118.824 45.0986 118.9 45.0605 118.985C45.4812 119.048 45.9107 118.958 46.2703 118.731C46.3003 118.708 46.3286 118.682 46.3549 118.655C46.3971 118.609 46.4327 118.558 46.4606 118.502C46.5019 118.454 46.527 118.394 46.5327 118.33C46.5384 118.267 46.5243 118.203 46.4923 118.148C46.4603 118.093 46.412 118.049 46.3541 118.022C46.2962 117.995 46.2314 117.987 46.1688 117.999H46.1518Z" fill="black"/>
<path d="M55.2148 113.909C56.6784 113.989 56.7291 113.224 56.6445 113.063C56.5599 112.902 55.8451 112.594 55.2148 113.909Z" fill="black"/>
<path d="M75.5146 113.909C76.9739 113.989 77.0289 113.224 76.9443 113.063C76.8597 112.902 76.1449 112.594 75.5146 113.909Z" fill="black"/>
<path d="M45.0605 98.6818C46.5241 98.7622 46.5748 97.9966 46.4902 97.8358C46.4056 97.6751 45.6908 97.3663 45.0605 98.6818Z" fill="black"/>
<path d="M65.3643 98.6818C66.8235 98.7622 66.8785 97.9966 66.7939 97.8358C66.7093 97.6751 65.9945 97.3663 65.3643 98.6818Z" fill="black"/>
<path d="M55.2148 103.757C56.6784 103.837 56.7291 103.072 56.6445 102.911C56.5599 102.75 55.8451 102.442 55.2148 103.757Z" fill="black"/>
<path d="M75.5146 103.757C76.9739 103.837 77.0289 103.072 76.9443 102.911C76.8597 102.75 76.1449 102.442 75.5146 103.757Z" fill="black"/>
<path d="M55.2148 93.6056C56.6784 93.686 56.7291 92.9204 56.6445 92.7597C56.5599 92.5989 55.8451 92.2902 55.2148 93.6056Z" fill="black"/>
<path d="M75.5146 93.6056C76.9739 93.686 77.0289 92.9204 76.9443 92.7597C76.8597 92.5989 76.1449 92.2902 75.5146 93.6056Z" fill="black"/>
<path d="M63.0395 108C62.9549 108.148 63.0099 108.914 64.4692 108.846C63.822 107.518 63.1283 107.848 63.0395 108Z" fill="black"/>
<path d="M52.8862 113.075C52.8016 113.223 52.8566 113.989 54.3158 113.921C53.6687 112.593 52.975 112.923 52.8862 113.075Z" fill="black"/>
<path d="M83.3418 108C83.2529 108.148 83.3121 108.914 84.7714 108.846C84.1243 107.518 83.4306 107.848 83.3418 108Z" fill="black"/>
<path d="M73.1884 113.075C73.0996 113.223 73.1588 113.989 74.6181 113.921C73.971 112.593 73.2773 112.923 73.1884 113.075Z" fill="black"/>
<path d="M47.002 119.999C47.002 119.999 57.9995 122.821 71.814 112.106C85.6286 101.392 90.992 105.618 90.4252 113.232C89.8584 120.845 78.0191 127.896 72.9434 128.742C64.598 130.134 57.1535 132.409 47.002 119.999Z" fill="black"/>
<path d="M63.0395 97.8483C62.9549 97.9963 63.0099 98.7619 64.4692 98.6942C63.822 97.3661 63.1283 97.696 63.0395 97.8483Z" fill="black"/>
<path d="M52.8862 102.923C52.8016 103.072 52.8566 103.837 54.3158 103.769C53.6687 102.441 52.975 102.771 52.8862 102.923Z" fill="black"/>
<path d="M83.3418 97.8483C83.2529 97.9963 83.3121 98.7619 84.7714 98.6942C84.1243 97.3661 83.4306 97.696 83.3418 97.8483Z" fill="black"/>
<path d="M73.1884 102.923C73.0996 103.072 73.1588 103.837 74.6181 103.769C73.971 102.441 73.2773 102.771 73.1884 102.923Z" fill="black"/>
<path d="M52.8862 92.7723C52.8016 92.9204 52.8566 93.686 54.3158 93.6183C53.6687 92.2901 52.975 92.6201 52.8862 92.7723Z" fill="black"/>
<path d="M73.1884 92.7723C73.0996 92.9204 73.1588 93.686 74.6181 93.6183C73.971 92.2901 73.2773 92.6201 73.1884 92.7723Z" fill="black"/>
<path d="M66.5593 88.276C66.6528 88.2153 66.7245 88.1264 66.7641 88.0222C66.8036 87.918 66.8089 87.804 66.7793 87.6965C66.6947 87.5527 66.0898 87.2735 65.485 88.276C65.4347 88.3578 65.3895 88.4425 65.3496 88.5298C65.7703 88.5935 66.1998 88.5034 66.5593 88.276Z" fill="black"/>
<path d="M46.2556 88.2758C46.3491 88.2151 46.4208 88.1262 46.4604 88.022C46.4999 87.9178 46.5052 87.8037 46.4756 87.6963C46.391 87.5525 45.7861 87.2733 45.1812 88.2758C45.131 88.3575 45.0858 88.4423 45.0459 88.5295C45.4665 88.5932 45.896 88.5032 46.2556 88.2758Z" fill="black"/>
<path d="M44.9943 137.85C44.9868 137.785 44.9682 137.722 44.9393 137.664C44.9271 137.637 44.9129 137.612 44.897 137.587C44.8701 137.546 44.8374 137.509 44.7997 137.477C44.7693 137.451 44.7351 137.43 44.6982 137.414C44.6722 137.4 44.6432 137.393 44.6136 137.393C44.5841 137.393 44.555 137.4 44.529 137.414C44.3345 137.499 44.0172 137.837 44.3725 138.624C44.443 138.77 44.5235 138.912 44.6136 139.047C44.7037 138.912 44.7843 138.77 44.8547 138.624C44.9545 138.425 45.0094 138.207 45.0155 137.985C45.0177 137.946 45.0177 137.906 45.0155 137.867L44.9943 137.85Z" fill="black"/>
<path d="M64.9086 137.38C64.7352 137.38 64.1007 137.803 64.9086 139.033C65.7165 137.811 65.082 137.38 64.9086 137.38Z" fill="black"/>
<path d="M64.9086 147.532C64.7352 147.532 64.1007 147.955 64.9086 149.186C65.7165 147.963 65.082 147.532 64.9086 147.532Z" fill="black"/>
<path d="M44.9943 148.001C44.9868 147.936 44.9682 147.873 44.9393 147.815C44.9271 147.788 44.9129 147.763 44.897 147.739C44.8701 147.697 44.8374 147.66 44.7997 147.629C44.7693 147.602 44.7351 147.581 44.6982 147.565C44.6722 147.551 44.6432 147.544 44.6136 147.544C44.5841 147.544 44.555 147.551 44.529 147.565C44.3345 147.65 44.0172 147.988 44.3725 148.775C44.443 148.921 44.5235 149.063 44.6136 149.198C44.7037 149.063 44.7843 148.921 44.8547 148.775C44.9545 148.576 45.0094 148.358 45.0155 148.136C45.0177 148.097 45.0177 148.057 45.0155 148.018L44.9943 148.001Z" fill="black"/>
<path d="M54.7572 142.455C54.5838 142.455 53.9493 142.878 54.7572 144.109C55.5651 142.887 54.9307 142.455 54.7572 142.455Z" fill="black"/>
<path d="M75.06 142.455C74.8866 142.455 74.2521 142.878 75.06 144.109C75.8679 142.887 75.2334 142.455 75.06 142.455Z" fill="black"/>
<path d="M44.9943 127.697C44.9868 127.633 44.9682 127.57 44.9393 127.511C44.9271 127.485 44.9129 127.459 44.897 127.435C44.8701 127.394 44.8374 127.357 44.7997 127.325C44.7693 127.299 44.7351 127.278 44.6982 127.262C44.6722 127.248 44.6432 127.24 44.6136 127.24C44.5841 127.24 44.555 127.248 44.529 127.262C44.3345 127.346 44.0172 127.685 44.3725 128.471C44.443 128.618 44.5235 128.759 44.6136 128.894C44.7037 128.759 44.7843 128.618 44.8547 128.471C44.9545 128.273 45.0094 128.055 45.0155 127.833C45.0177 127.793 45.0177 127.754 45.0155 127.714L44.9943 127.697Z" fill="black"/>
<path d="M64.9086 127.228C64.7352 127.228 64.1007 127.651 64.9086 128.882C65.7165 127.659 65.082 127.228 64.9086 127.228Z" fill="black"/>
<path d="M54.7572 132.304C54.5838 132.304 53.9493 132.727 54.7572 133.958C55.5651 132.735 54.9307 132.304 54.7572 132.304Z" fill="black"/>
<path d="M75.06 132.304C74.8866 132.304 74.2521 132.727 75.06 133.958C75.8679 132.735 75.2334 132.304 75.06 132.304Z" fill="black"/>
<path d="M54.7572 122.152C54.5838 122.152 53.9493 122.575 54.7572 123.806C55.5651 122.584 54.9307 122.152 54.7572 122.152Z" fill="black"/>
<path d="M75.06 122.152C74.8866 122.152 74.2521 122.575 75.06 123.806C75.8679 122.584 75.2334 122.152 75.06 122.152Z" fill="black"/>
<path d="M45.0605 139.288C46.5241 139.368 46.5748 138.603 46.4902 138.442C46.4056 138.281 45.6908 137.972 45.0605 139.288Z" fill="black"/>
<path d="M65.3643 139.288C66.8235 139.368 66.8785 138.603 66.7939 138.442C66.7093 138.281 65.9945 137.972 65.3643 139.288Z" fill="black"/>
<path d="M66.4578 148.454H66.369C66.2599 148.462 66.1542 148.495 66.0602 148.551L65.9502 148.627C65.762 148.781 65.6042 148.969 65.485 149.181C65.4347 149.263 65.3895 149.348 65.3496 149.435C65.7703 149.499 66.1998 149.409 66.5593 149.181C66.6528 149.121 66.7245 149.032 66.7641 148.928C66.8036 148.823 66.8089 148.709 66.7793 148.602C66.7396 148.555 66.6903 148.518 66.6348 148.493C66.5793 148.467 66.5189 148.454 66.4578 148.454Z" fill="black"/>
<path d="M46.1541 148.454H46.0653C45.9562 148.462 45.8504 148.495 45.7565 148.551L45.6465 148.627C45.4583 148.781 45.3005 148.969 45.1812 149.181C45.131 149.263 45.0858 149.348 45.0459 149.435C45.4665 149.499 45.896 149.409 46.2556 149.181C46.3491 149.121 46.4208 149.032 46.4604 148.928C46.4999 148.823 46.5052 148.709 46.4756 148.602C46.4359 148.555 46.3866 148.518 46.3311 148.493C46.2756 148.467 46.2152 148.454 46.1541 148.454Z" fill="black"/>
<path d="M55.2148 144.363C56.6784 144.444 56.7291 143.678 56.6445 143.517C56.5599 143.357 55.8451 143.048 55.2148 144.363Z" fill="black"/>
<path d="M75.5146 144.363C76.9739 144.444 77.0289 143.678 76.9443 143.517C76.8597 143.357 76.1449 143.048 75.5146 144.363Z" fill="black"/>
<path d="M45.0605 129.136C46.5241 129.217 46.5748 128.451 46.4902 128.29C46.4056 128.129 45.6908 127.821 45.0605 129.136Z" fill="black"/>
<path d="M65.3643 129.137C66.8235 129.217 66.8785 128.451 66.7939 128.291C66.7093 128.13 65.9945 127.821 65.3643 129.137Z" fill="black"/>
<path d="M55.2148 134.212C56.6784 134.292 56.7291 133.527 56.6445 133.366C56.5599 133.205 55.8451 132.896 55.2148 134.212Z" fill="black"/>
<path d="M75.5146 134.212C76.9739 134.292 77.0289 133.527 76.9443 133.366C76.8597 133.205 76.1449 132.896 75.5146 134.212Z" fill="black"/>
<path d="M55.2148 124.061C56.6784 124.141 56.7291 123.375 56.6445 123.215C56.5599 123.054 55.8451 122.745 55.2148 124.061Z" fill="black"/>
<path d="M75.5146 124.061C76.9739 124.141 77.0289 123.375 76.9443 123.215C76.8597 123.054 76.1449 122.745 75.5146 124.061Z" fill="black"/>
<path d="M63.0395 138.454C62.9549 138.602 63.0099 139.367 64.4692 139.3C63.822 137.972 63.1283 138.301 63.0395 138.454Z" fill="black"/>
<path d="M63.8675 148.653L63.7575 148.577C63.6638 148.52 63.558 148.487 63.4487 148.479H63.3599C63.2985 148.48 63.2379 148.494 63.1824 148.52C63.1269 148.546 63.0778 148.584 63.0384 148.632C63.0088 148.739 63.0141 148.853 63.0537 148.957C63.0932 149.061 63.1649 149.15 63.2584 149.211C63.6183 149.438 64.0475 149.528 64.4681 149.465C64.4282 149.378 64.383 149.293 64.3328 149.211C64.2153 148.996 64.0573 148.807 63.8675 148.653Z" fill="black"/>
<path d="M52.8862 143.53C52.8016 143.678 52.8566 144.444 54.3158 144.376C53.6687 143.048 52.975 143.378 52.8862 143.53Z" fill="black"/>
<path d="M83.3418 138.454C83.2529 138.602 83.3121 139.367 84.7714 139.3C84.1243 137.972 83.4306 138.301 83.3418 138.454Z" fill="black"/>
<path d="M84.6365 149.186C84.5172 148.974 84.3594 148.786 84.1712 148.632L84.0612 148.556C83.9673 148.499 83.8615 148.466 83.7524 148.458H83.6636C83.6022 148.459 83.5416 148.473 83.4861 148.499C83.4306 148.525 83.3815 148.563 83.3422 148.611C83.3125 148.718 83.3178 148.832 83.3574 148.936C83.3969 149.04 83.4686 149.129 83.5621 149.19C83.9217 149.417 84.3512 149.507 84.7718 149.444C84.7319 149.357 84.6867 149.272 84.6365 149.19V149.186Z" fill="black"/>
<path d="M73.1884 143.53C73.0996 143.678 73.1588 144.444 74.6181 144.376C73.971 143.048 73.2773 143.378 73.1884 143.53Z" fill="black"/>
<path d="M63.0395 128.303C62.9549 128.451 63.0099 129.217 64.4692 129.149C63.822 127.821 63.1283 128.151 63.0395 128.303Z" fill="black"/>
<path d="M52.8862 133.379C52.8016 133.527 52.8566 134.293 54.3158 134.225C53.6687 132.897 52.975 133.227 52.8862 133.379Z" fill="black"/>
<path d="M83.3418 128.303C83.2529 128.451 83.3121 129.217 84.7714 129.149C84.1243 127.821 83.4306 128.151 83.3418 128.303Z" fill="black"/>
<path d="M73.1884 133.379C73.0996 133.527 73.1588 134.293 74.6181 134.225C73.971 132.897 73.2773 133.227 73.1884 133.379Z" fill="black"/>
<path d="M52.8862 123.227C52.8016 123.375 52.8566 124.141 54.3158 124.073C53.6687 122.745 52.975 123.075 52.8862 123.227Z" fill="black"/>
<path d="M73.1884 123.227C73.0996 123.375 73.1588 124.141 74.6181 124.073C73.971 122.745 73.2773 123.075 73.1884 123.227Z" fill="black"/>
<path d="M64.334 118.731C64.2669 118.617 64.1905 118.508 64.1055 118.405C64.0353 118.321 63.9559 118.244 63.8687 118.177C63.7263 118.059 63.5461 117.996 63.3611 117.999C63.2997 118 63.2391 118.014 63.1836 118.04C63.1281 118.066 63.0789 118.105 63.0396 118.152C63.019 118.209 63.011 118.27 63.0161 118.33C63.0213 118.391 63.0394 118.45 63.0692 118.503C63.0972 118.558 63.1328 118.61 63.175 118.655L63.2596 118.731C63.6194 118.958 64.0487 119.048 64.4693 118.985C64.4312 118.9 64.3889 118.824 64.3509 118.757L64.334 118.731Z" fill="black"/>
<path d="M84.6357 118.731C84.5687 118.617 84.4923 118.508 84.4073 118.405C84.336 118.322 84.2566 118.245 84.1704 118.177C84.0281 118.059 83.8479 117.996 83.6629 117.999C83.6014 118 83.5409 118.014 83.4853 118.04C83.4298 118.066 83.3807 118.105 83.3414 118.152C83.3208 118.209 83.3128 118.27 83.3179 118.33C83.323 118.391 83.3411 118.45 83.371 118.503C83.3989 118.558 83.4345 118.61 83.4768 118.655C83.503 118.682 83.5313 118.708 83.5613 118.731C83.9209 118.959 84.3504 119.049 84.7711 118.985C84.733 118.9 84.6907 118.824 84.6526 118.757C84.6456 118.749 84.6398 118.741 84.6357 118.731Z" fill="black"/>
<path d="M54.7572 152.607C54.5838 152.607 53.9493 153.03 54.7572 154.261C55.5651 153.039 54.9307 152.607 54.7572 152.607Z" fill="black"/>
<path d="M75.06 152.607C74.8866 152.607 74.2521 153.03 75.06 154.261C75.8679 153.039 75.2334 152.607 75.06 152.607Z" fill="black"/>
<path d="M55.2148 154.515C56.6784 154.595 56.7291 153.83 56.6445 153.669C56.5599 153.508 55.8451 153.2 55.2148 154.515Z" fill="black"/>
<path d="M75.5146 154.515C76.9739 154.595 77.0289 153.83 76.9443 153.669C76.8597 153.508 76.1449 153.2 75.5146 154.515Z" fill="black"/>
<path d="M52.8862 153.681C52.8016 153.829 52.8566 154.595 54.3158 154.527C53.6687 153.199 52.975 153.529 52.8862 153.681Z" fill="black"/>
<path d="M73.1884 153.681C73.0996 153.829 73.1588 154.595 74.6181 154.527C73.971 153.199 73.2773 153.529 73.1884 153.681Z" fill="black"/>
<path d="M24.3022 86.6221C24.1287 86.6221 23.4943 87.0451 24.3022 88.2759C25.1101 87.0535 24.4756 86.6221 24.3022 86.6221Z" fill="black"/>
<path d="M34.4535 81.5459C34.2801 81.5459 33.6456 81.9689 34.4535 83.1998C35.2614 81.9773 34.627 81.5459 34.4535 81.5459Z" fill="black"/>
<path d="M34.8239 71.7842L34.0498 71.983C34.0757 72.3701 34.2155 72.741 34.4516 73.0489C34.845 72.4567 34.9085 72.0464 34.8239 71.7842Z" fill="black"/>
<path d="M24.7568 78.3783C26.2161 78.4587 26.2711 77.6931 26.1865 77.5324C26.1019 77.3716 25.3871 77.0629 24.7568 78.3783Z" fill="black"/>
<path d="M34.9111 83.454C36.3704 83.5344 36.4254 82.7688 36.3408 82.6081C36.2562 82.4473 35.5414 82.1386 34.9111 83.454Z" fill="black"/>
<path d="M34.9111 73.3024C36.3704 73.3828 36.4254 72.6172 36.3408 72.4564C36.2562 72.2957 35.5414 71.9869 34.9111 73.3024Z" fill="black"/>
<path d="M22.432 87.6966C22.4023 87.8041 22.4077 87.9181 22.4472 88.0223C22.4868 88.1265 22.5585 88.2154 22.6519 88.2761C23.0118 88.5028 23.4411 88.5928 23.8617 88.5299C23.8218 88.4426 23.7766 88.3579 23.7263 88.2761C23.1215 87.261 22.5166 87.5528 22.432 87.6966Z" fill="black"/>
<path d="M42.7353 77.5448C42.6465 77.6928 42.7057 78.4584 44.165 78.3908C43.5178 77.0626 42.8241 77.3925 42.7353 77.5448Z" fill="black"/>
<path d="M44.03 88.2761C43.4252 87.261 42.8203 87.5528 42.7357 87.6966C42.7061 87.8041 42.7114 87.9181 42.7509 88.0223C42.7905 88.1265 42.8622 88.2154 42.9557 88.2761C43.3152 88.5035 43.7447 88.5936 44.1654 88.5299C44.1255 88.4426 44.0803 88.3579 44.03 88.2761Z" fill="black"/>
<path d="M32.5839 82.6212C32.4951 82.7693 32.5543 83.5349 34.0136 83.4672C33.3665 82.139 32.6728 82.4689 32.5839 82.6212Z" fill="black"/>
<path d="M32.8927 72.321L32.6728 72.3886C32.6377 72.4087 32.6074 72.4361 32.5839 72.469C32.4951 72.6171 32.5543 73.3827 34.0136 73.315C33.6033 72.4648 33.1761 72.2956 32.8927 72.321Z" fill="black"/>
<path d="M3.99943 106.925C3.82601 106.925 3.19154 107.348 3.99943 108.579C4.80732 107.357 4.17285 106.925 3.99943 106.925Z" fill="black"/>
<path d="M14.1508 112.001C13.9774 112.001 13.3429 112.424 14.1508 113.655C14.9587 112.433 14.3242 112.001 14.1508 112.001Z" fill="black"/>
<path d="M24.3022 96.7737C24.1287 96.7737 23.4943 97.1967 24.3022 98.4275C25.1101 97.2051 24.4756 96.7737 24.3022 96.7737Z" fill="black"/>
<path d="M14.1508 101.85C13.9774 101.85 13.3429 102.273 14.1508 103.503C14.9587 102.281 14.3242 101.85 14.1508 101.85Z" fill="black"/>
<path d="M34.4535 101.85C34.2801 101.85 33.6456 102.273 34.4535 103.503C35.2614 102.281 34.627 101.85 34.4535 101.85Z" fill="black"/>
<path d="M14.1508 91.698C13.9774 91.698 13.3429 92.121 14.1508 93.3519C14.9587 92.1294 14.3242 91.698 14.1508 91.698Z" fill="black"/>
<path d="M34.4535 91.698C34.2801 91.698 33.6456 92.121 34.4535 93.3519C35.2614 92.1294 34.627 91.698 34.4535 91.698Z" fill="black"/>
<path d="M4.4541 108.833C5.91762 108.913 5.9726 108.147 5.88378 107.987C5.79495 107.826 5.08434 107.517 4.4541 108.833Z" fill="black"/>
<path d="M14.8408 113.478C15.2173 113.338 15.5853 113.181 15.949 113.004C15.7714 112.885 15.3146 112.805 14.8408 113.478Z" fill="black"/>
<path d="M5.86969 97.8481C5.8198 97.7844 5.74967 97.7396 5.67089 97.7212C5.40864 98.0553 5.15908 98.3726 4.94336 98.6729C5.91199 98.5714 5.94582 97.9792 5.86969 97.8481Z" fill="black"/>
<path d="M24.7568 98.6818C26.2161 98.7622 26.2711 97.9966 26.1865 97.8358C26.1019 97.6751 25.3871 97.3663 24.7568 98.6818Z" fill="black"/>
<path d="M14.6064 103.757C16.07 103.837 16.1207 103.072 16.0361 102.911C15.9515 102.75 15.2367 102.441 14.6064 103.757Z" fill="black"/>
<path d="M34.9111 103.757C36.3704 103.837 36.4254 103.072 36.3408 102.911C36.2562 102.75 35.5414 102.441 34.9111 103.757Z" fill="black"/>
<path d="M14.6064 93.6051C16.07 93.6855 16.1207 92.9199 16.0361 92.7592C15.9515 92.5984 15.2367 92.2897 14.6064 93.6051Z" fill="black"/>
<path d="M34.9111 93.6051C36.3704 93.6855 36.4254 92.9199 36.3408 92.7592C36.2562 92.5984 35.5414 92.2897 34.9111 93.6051Z" fill="black"/>
<path d="M12.2809 113.075C12.2005 113.211 12.2428 113.854 13.3553 113.921L13.6725 113.85C13.038 112.61 12.3697 112.927 12.2809 113.075Z" fill="black"/>
<path d="M42.7353 108C42.6465 108.148 42.7057 108.914 44.165 108.846C43.5178 107.518 42.8241 107.848 42.7353 108Z" fill="black"/>
<path d="M22.434 97.8483C22.3494 97.9963 22.4044 98.7619 23.8637 98.6942C23.2165 97.3661 22.5228 97.696 22.434 97.8483Z" fill="black"/>
<path d="M12.2807 102.923C12.1961 103.072 12.2511 103.837 13.7104 103.769C13.0632 102.441 12.3695 102.771 12.2807 102.923Z" fill="black"/>
<path d="M42.7353 97.8483C42.6465 97.9963 42.7057 98.7619 44.165 98.6942C43.5178 97.3661 42.8241 97.696 42.7353 97.8483Z" fill="black"/>
<path d="M12.2807 92.7723C12.1961 92.9204 12.2511 93.686 13.7104 93.6183C13.0632 92.2901 12.3695 92.6201 12.2807 92.7723Z" fill="black"/>
<path d="M32.5839 92.7723C32.4951 92.9204 32.5543 93.686 34.0136 93.6183C33.3665 92.2901 32.6728 92.6201 32.5839 92.7723Z" fill="black"/>
<path d="M25.9529 88.2758C26.0464 88.2151 26.1181 88.1262 26.1576 88.022C26.1972 87.9178 26.2025 87.8037 26.1728 87.6963C26.0882 87.5525 25.4834 87.2733 24.8785 88.2758C24.8283 88.3575 24.7831 88.4423 24.7432 88.5295C25.1638 88.5932 25.5933 88.5032 25.9529 88.2758Z" fill="black"/>
<path d="M34.4535 142.455C34.2801 142.455 33.6456 142.878 34.4535 144.109C35.2614 142.887 34.627 142.455 34.4535 142.455Z" fill="black"/>
<path d="M34.7801 133.315L34.4248 133.911L34.4544 133.958C34.5912 133.759 34.7008 133.543 34.7801 133.315Z" fill="black"/>
<path d="M34.9111 144.363C36.3704 144.444 36.4254 143.678 36.3408 143.517C36.2562 143.357 35.5414 143.048 34.9111 144.363Z" fill="black"/>
<path d="M34.9111 134.212C36.3704 134.292 36.4254 133.527 36.3408 133.366C36.2562 133.205 35.5414 132.896 34.9111 134.212Z" fill="black"/>
<path d="M42.7353 138.454C42.6465 138.602 42.7057 139.367 44.165 139.3C43.5178 137.972 42.8241 138.301 42.7353 138.454Z" fill="black"/>
<path d="M44.03 149.186C43.9108 148.973 43.753 148.786 43.5648 148.631L43.4548 148.555C43.3608 148.499 43.2551 148.466 43.146 148.458H43.0572C42.9957 148.459 42.9352 148.472 42.8797 148.499C42.8241 148.525 42.775 148.563 42.7357 148.61C42.7061 148.718 42.7114 148.832 42.7509 148.936C42.7905 149.04 42.8622 149.129 42.9557 149.19C43.3152 149.417 43.7447 149.507 44.1654 149.444C44.1255 149.356 44.0803 149.272 44.03 149.19V149.186Z" fill="black"/>
<path d="M32.5839 143.53C32.4951 143.678 32.5543 144.444 34.0136 144.376C33.3665 143.048 32.6728 143.378 32.5839 143.53Z" fill="black"/>
<path d="M42.7353 128.303C42.6465 128.451 42.7057 129.216 44.165 129.149C43.5178 127.821 42.8241 128.151 42.7353 128.303Z" fill="black"/>
<path d="M44.0312 118.731C43.9642 118.617 43.8878 118.508 43.8028 118.405C43.7315 118.322 43.6521 118.245 43.5659 118.177C43.4236 118.059 43.2434 117.996 43.0584 117.999C42.9969 118 42.9364 118.014 42.8808 118.04C42.8253 118.066 42.7762 118.105 42.7369 118.152C42.7163 118.209 42.7083 118.27 42.7134 118.33C42.7185 118.391 42.7366 118.45 42.7665 118.503C42.7944 118.558 42.83 118.61 42.8723 118.655C42.8985 118.682 42.9268 118.708 42.9568 118.731C43.3164 118.959 43.7459 119.049 44.1666 118.985C44.1285 118.9 44.0862 118.824 44.0481 118.757L44.0312 118.731Z" fill="black"/>
<path d="M34.4535 152.607C34.2801 152.607 33.6456 153.03 34.4535 154.261C35.2614 153.039 34.627 152.607 34.4535 152.607Z" fill="black"/>
<path d="M34.9111 154.515C36.3704 154.595 36.4254 153.829 36.3408 153.669C36.2562 153.508 35.5414 153.199 34.9111 154.515Z" fill="black"/>
<path d="M32.5839 153.681C32.4951 153.829 32.5543 154.595 34.0136 154.527C33.3665 153.199 32.6728 153.529 32.5839 153.681Z" fill="black"/>
<path d="M3.00488 108.067C3.0889 108.329 3.18632 108.586 3.29674 108.837H3.55899C3.43052 108.544 3.2417 108.282 3.00488 108.067Z" fill="black"/>
</g>
<path d="M61.8062 87.8113C74.4449 90.2477 79.3219 78.1335 81.018 68.4515C76.8094 67.9862 74.5929 66.0278 73.7131 62.7327C72.7022 58.9259 72.7022 51.3123 72.7022 51.3123C72.7022 51.3123 66.1122 55.3644 54.9666 50.8047C54.9666 50.8047 55.9818 64.7377 54.7128 66.7638C53.833 68.1765 52.6995 69.5893 49.5271 70.3126C49.4129 74.6608 50.2885 85.5864 61.8062 87.8113Z" fill="#E8AF94"/>
<path opacity="0.2" d="M73.4393 61.4804C72.7034 57.479 72.7034 51.3289 72.7034 51.3289C72.7034 51.3289 66.1133 55.381 54.9678 50.8213C54.9678 50.8213 55.3908 56.6457 55.3485 61.3112C64.9417 64.6443 70.4912 63.2315 73.4393 61.4804Z" fill="black"/>
<path d="M80.9149 46.4731C82.6482 46.4731 84.0534 45.0679 84.0534 43.3346C84.0534 41.6012 82.6482 40.196 80.9149 40.196C79.1815 40.196 77.7764 41.6012 77.7764 43.3346C77.7764 45.0679 79.1815 46.4731 80.9149 46.4731Z" fill="#F46C8F" stroke="#263238" stroke-linecap="round" stroke-linejoin="round"/>
<path d="M47.3914 46.4731C49.1248 46.4731 50.53 45.0679 50.53 43.3346C50.53 41.6012 49.1248 40.196 47.3914 40.196C45.6581 40.196 44.2529 41.6012 44.2529 43.3346C44.2529 45.0679 45.6581 46.4731 47.3914 46.4731Z" fill="#F46C8F" stroke="#263238" stroke-linecap="round" stroke-linejoin="round"/>
<path d="M80.6301 32.6369C80.6301 32.6369 82.1994 27.7853 84.0563 29.4984C85.9132 31.2115 83.4853 37.7719 82.1994 39.3411C80.9135 40.9104 79.6319 40.9104 79.7757 38.7701C79.9195 36.6298 80.6301 32.6369 80.6301 32.6369Z" fill="#E8AF94" stroke="#263238" stroke-linecap="round" stroke-linejoin="round"/>
<path d="M48.1846 37.5183C48.1846 37.5183 48.6076 48.85 56.9487 54.408C65.2899 59.9659 71.4866 56.7597 74.9085 52.0562C78.3304 47.3526 80.4707 42.6491 80.4707 35.8095C80.4707 28.9699 81.3167 25.971 78.9733 21.6946C76.63 17.4183 68.4961 15.2822 68.4961 15.2822C65.117 19.4993 61.4749 23.4988 57.5917 27.2568C51.175 33.4535 48.1846 37.5183 48.1846 37.5183Z" fill="#E8AF94"/>
<path opacity="0.2" d="M68.4981 15.2822C65.119 19.4993 61.4769 23.4988 57.5936 27.2568C51.177 33.4535 48.1865 37.5183 48.1865 37.5183C48.3414 39.7262 48.7778 41.9053 49.4851 44.0026C60.7533 35.3823 66.9077 19.8927 68.5446 15.2949L68.4981 15.2822Z" fill="black"/>
<path d="M56.0752 36.1865L60.876 36.6349" stroke="#263238" stroke-width="0.5" stroke-linecap="round" stroke-linejoin="round"/>
<path d="M70.626 36.0335C70.626 36.0335 73.7772 35.4329 75.2788 36.0335" stroke="#263238" stroke-width="0.5" stroke-linecap="round" stroke-linejoin="round"/>
<path d="M60.2281 33.9905C60.2281 35.1325 59.7163 36.0589 59.0861 36.0589C58.4558 36.0589 57.9482 35.1325 57.9482 33.9905C57.9482 32.8484 58.4558 31.9221 59.0861 31.9221C59.7163 31.9221 60.2281 32.8484 60.2281 33.9905Z" fill="#263238"/>
<path d="M62.7959 41.215C63.5619 41.6955 64.4633 41.9141 65.3643 41.8378C66.2653 41.7615 67.1171 41.3945 67.7913 40.792" stroke="#263238" stroke-width="0.5" stroke-linecap="round" stroke-linejoin="round"/>
<path d="M64.0938 46.0462C64.0938 46.0462 68.5139 47.9031 71.0814 41.9094" stroke="#263238" stroke-width="0.5" stroke-linecap="round" stroke-linejoin="round"/>
<path d="M69.7861 34.0627C69.7861 34.0627 72.4974 32.2058 75.2087 33.3479" stroke="#263238" stroke-linecap="round" stroke-linejoin="round"/>
<path d="M68.9355 29.372C68.9355 29.372 71.9303 26.3773 76.067 28.801" stroke="#263238" stroke-width="2" stroke-linecap="round" stroke-linejoin="round"/>
<path d="M62.5134 27.4986C62.5134 27.4986 59.9459 24.9311 56.376 27.359" stroke="#263238" stroke-width="2" stroke-linecap="round" stroke-linejoin="round"/>
<path d="M4.55973 99.2104C4.55973 99.2104 0 104.286 0 109.595C0 114.903 3.037 119.746 11.4205 127.326C19.804 134.906 27.6291 140.498 30.9241 142.274C34.2191 144.051 37.5099 141.767 37.5099 141.767C37.5099 141.767 42.9579 147.21 43.5882 145.946C44.2184 144.681 41.689 142.777 41.1814 142.02C40.7359 141.419 40.2268 140.867 39.6629 140.375C39.6629 140.375 42.3235 140.751 43.3386 141.644C44.3538 142.536 45.9949 144.051 46.7563 143.924C47.5177 143.797 47.5177 143.162 46.3756 141.644C45.4549 140.455 44.3428 139.427 43.0848 138.603C42.3235 138.099 39.7898 136.703 39.7898 136.703C39.7898 136.703 43.4613 136.45 44.7302 137.211C45.9992 137.972 49.4168 140.252 49.6706 139.237C49.9244 138.222 49.9244 137.592 48.6555 136.45C47.3865 135.308 44.8487 133.912 43.3386 133.662C42.2977 133.471 41.2788 133.175 40.2974 132.778C40.2974 132.778 43.2117 131.763 44.2226 131.763C45.2336 131.763 49.2984 133.789 50.4278 133.54C51.5571 133.29 50.9354 132.271 50.0513 131.636C49.1673 131.002 45.2378 129.483 43.5882 129.356C41.9385 129.229 32.6964 132.398 31.5586 132.398C30.4208 132.398 27.5064 128.345 24.4652 122.897C21.424 117.449 20.2862 108.964 13.8272 106.054" fill="#5CDEB1"/>
<g opacity="0.2">
<path d="M3.99902 108.58C4.80692 107.357 4.17245 106.926 3.99902 106.926C4.17245 106.926 4.80692 107.357 3.99902 108.58Z" fill="black"/>
<path d="M3.99902 117.078C4.17245 117.078 4.80692 117.501 3.99902 118.732C4.80692 117.51 4.17245 117.078 3.99902 117.078Z" fill="black"/>
<path d="M14.1508 112.001C13.9774 112.001 13.3429 112.424 14.1508 113.655C14.9587 112.433 14.3242 112.001 14.1508 112.001Z" fill="black"/>
<path d="M5.86913 108.001C5.7803 107.848 5.08661 107.518 4.43945 108.847C5.90297 108.914 5.95795 108.149 5.86913 108.001Z" fill="black"/>
<path d="M5.72635 118.655C5.76859 118.61 5.80419 118.559 5.83209 118.503C5.87334 118.455 5.89853 118.394 5.9042 118.331C5.90987 118.267 5.89575 118.204 5.86377 118.149C5.83179 118.093 5.78352 118.049 5.72559 118.023C5.66767 117.996 5.60292 117.988 5.54024 118C5.35519 117.996 5.175 118.059 5.03266 118.177C4.94647 118.246 4.86714 118.322 4.79579 118.406C4.71081 118.508 4.63442 118.617 4.56738 118.732H5.64175C5.67181 118.708 5.70009 118.683 5.72635 118.655Z" fill="black"/>
<path d="M16.0215 113.076C15.9326 112.923 15.239 112.593 14.5918 113.922C16.0553 113.989 16.1061 113.224 16.0215 113.076Z" fill="black"/>
<path d="M13.7109 113.909C13.0637 112.594 12.37 112.924 12.2812 113.064C12.1924 113.203 12.2516 113.99 13.7109 113.909Z" fill="black"/>
<path d="M3.99902 106.926V108.58C4.80692 107.357 4.17245 106.926 3.99902 106.926Z" fill="black"/>
<path d="M3.99902 117.078V118.732C4.80692 117.51 4.17245 117.078 3.99902 117.078Z" fill="black"/>
<path d="M24.3029 137.381C24.2279 137.396 24.158 137.43 24.0996 137.48C24.0412 137.529 23.9962 137.593 23.9688 137.664L24.6836 138.189C24.7893 137.605 24.4298 137.381 24.3029 137.381Z" fill="black"/>
<path d="M34.4565 142.457C34.3499 142.483 34.2545 142.543 34.1844 142.627C34.1143 142.712 34.0733 142.817 34.0674 142.926C34.3214 142.906 34.5742 142.872 34.8245 142.825C34.8043 142.735 34.759 142.653 34.6939 142.587C34.6287 142.522 34.5464 142.477 34.4565 142.457Z" fill="black"/>
<path d="M24.3031 127.228C24.1297 127.228 23.4952 127.651 24.3031 128.882C25.111 127.66 24.4766 127.228 24.3031 127.228Z" fill="black"/>
<path d="M34.4534 133.958C35.2613 132.736 34.6269 132.304 34.4534 132.304C34.28 132.304 33.6413 132.736 34.4534 133.958Z" fill="black"/>
<path d="M14.1517 123.806C14.9596 122.584 14.3251 122.153 14.1517 122.153C13.9783 122.153 13.3396 122.584 14.1517 123.806Z" fill="black"/>
<path d="M26.1737 138.455C26.106 138.34 25.7 138.125 25.2305 138.577C25.4589 138.746 25.6873 138.907 25.9115 139.064C26.0176 139.007 26.1012 138.916 26.1489 138.805C26.1965 138.694 26.2052 138.571 26.1737 138.455Z" fill="black"/>
<path d="M24.7578 129.136C26.2171 129.217 26.2721 128.451 26.1875 128.29C26.1029 128.129 25.3881 127.821 24.7578 129.136Z" fill="black"/>
<path d="M34.9102 134.212C36.3694 134.293 36.4244 133.527 36.3398 133.366C36.2552 133.206 35.5404 132.897 34.9102 134.212Z" fill="black"/>
<path d="M14.6084 124.061C16.0719 124.142 16.1227 123.376 16.0381 123.215C15.9535 123.055 15.2386 122.746 14.6084 124.061Z" fill="black"/>
<path d="M44.0172 139.293C43.6534 139.005 43.3193 138.773 43.0655 138.599L42.7694 138.413L42.7356 138.455C42.651 138.599 42.706 139.314 44.0172 139.293Z" fill="black"/>
<path d="M23.8622 129.137C23.2151 127.821 22.5214 128.151 22.4326 128.291C22.3437 128.43 22.403 129.217 23.8622 129.137Z" fill="black"/>
<path d="M32.5839 133.379C32.4951 133.527 32.5543 134.293 34.0136 134.225C33.3665 132.897 32.6728 133.227 32.5839 133.379Z" fill="black"/>
<path d="M12.2797 123.228C12.1951 123.376 12.2501 124.142 13.7094 124.074C13.0622 122.746 12.3685 123.076 12.2797 123.228Z" fill="black"/>
<path d="M5.64788 118.731H4.57351C4.57473 118.74 4.57473 118.748 4.57351 118.757C4.53544 118.824 4.49315 118.9 4.45508 118.985C4.8702 119.045 5.29296 118.955 5.64788 118.731Z" fill="black"/>
<path d="M3.99748 106.926C3.82405 106.926 3.18958 107.349 3.99748 108.58V106.926Z" fill="black"/>
<path d="M3.99934 118.732V117.078C3.82592 117.078 3.18722 117.51 3.99934 118.732Z" fill="black"/>
<path d="M3.55952 108.834C2.91235 107.518 2.21867 107.848 2.12984 107.988C2.04102 108.127 2.10023 108.914 3.55952 108.834Z" fill="black"/>
<path d="M3.18738 118.405C3.11603 118.321 3.0367 118.245 2.95051 118.176L2.9209 118.155C3.05202 118.346 3.18315 118.54 3.34388 118.731H3.43693C3.36315 118.615 3.27967 118.506 3.18738 118.405Z" fill="black"/>
<path d="M3.44267 118.757C3.44145 118.748 3.44145 118.74 3.44267 118.731H3.34961L3.53572 118.985H3.57802C3.52303 118.9 3.48073 118.824 3.44267 118.757Z" fill="black"/>
</g>
<path d="M50.0304 131.632C49.1422 131.002 45.2169 129.479 43.5673 129.352C41.9177 129.225 32.6755 132.393 31.5377 132.393C30.3999 132.393 27.4855 128.341 24.4443 122.893C22.7524 119.869 21.6526 115.905 19.8973 112.484C10.5917 111.215 6.60299 116.654 4.75879 120.567C6.81212 122.975 9.03112 125.236 11.3996 127.334C19.7577 134.948 27.6082 140.506 30.9032 142.283C34.1982 144.059 37.489 141.775 37.489 141.775C37.489 141.775 42.937 147.219 43.5673 145.954C44.1975 144.689 41.6681 142.786 41.1605 142.029C40.715 141.427 40.2059 140.876 39.642 140.383C39.642 140.383 42.3026 140.76 43.3177 141.652C44.3329 142.545 45.974 144.059 46.7354 143.932C47.4968 143.805 47.4968 143.171 46.3547 141.652C45.434 140.463 44.3219 139.435 43.0639 138.611C42.3026 138.108 39.7689 136.712 39.7689 136.712C39.7689 136.712 43.4404 136.458 44.7093 137.22C45.9783 137.981 49.396 140.261 49.6497 139.246C49.9035 138.23 49.9035 137.6 48.6346 136.458C47.3656 135.316 44.8278 133.92 43.3177 133.671C42.2768 133.479 41.2579 133.183 40.2765 132.787C40.2765 132.787 43.1908 131.772 44.2017 131.772C45.2127 131.772 49.2775 133.798 50.4069 133.548C51.5362 133.298 50.9145 132.266 50.0304 131.632Z" fill="#E8AF94"/>
<path d="M105.022 103.964C103.964 101.549 104.869 96.2616 105.927 88.7114C106.984 81.1612 108.042 73.4587 108.042 69.3811C108.042 65.3036 108.714 59.6526 107.386 57.8295C106.058 56.0065 101.223 51.0618 100.864 48.7693C100.504 46.4767 103.761 42.9702 103.761 42.9702C103.761 42.9702 104.73 41.1556 105.576 42.1243C106.422 43.0929 106.058 44.2984 105.576 45.9903C105.093 47.6822 104.607 49.0104 104.607 49.0104C104.607 49.0104 108.837 50.3385 109.924 49.6153C111.011 48.892 110.914 44.7552 110.838 42.7291C110.681 38.7785 109.099 40.4662 108.004 42.3357C107.475 43.2325 104.379 42.6995 106.189 40.4027C107.999 38.1059 109.683 36.0799 111.375 37.8944C113.067 39.709 114.272 43.2113 114.272 43.2113C114.272 43.2113 115.482 37.4545 116.582 34.0707C117.681 30.6869 119.652 29.346 120.363 29.5829C121.074 29.8197 120.993 30.9999 120.283 32.6537C119.572 34.3076 117.999 38.8715 117.605 40.3689C117.212 41.8662 117.136 43.5962 117.922 43.4397C118.709 43.2832 121.463 38.4782 122.254 36.4309C123.045 34.3837 124.221 32.4972 125.557 31.6301C126.894 30.763 127.998 31.867 127.448 33.284C126.356 35.8464 125.116 38.3434 123.734 40.7623C122.866 42.3255 122.129 43.9582 121.531 45.6435C122.827 44.2618 124.194 42.9474 125.625 41.7055C127.516 40.132 129.563 39.819 130.189 40.3689C130.815 40.9188 130.269 40.9991 128.696 42.2596C127.122 43.5201 124.771 45.0217 122.888 48.0841C121.431 50.3296 120.292 52.7667 119.504 55.3255C118.919 57.0052 118.153 58.6163 117.22 60.1306C117.22 60.1306 118.697 72.1178 121.256 78.7121C123.815 85.3064 128.34 94.9503 126.962 101.841C125.583 108.731 122.926 112.271 119.187 113.354C118.103 113.671 116.96 113.729 115.849 113.524C114.739 113.319 113.691 112.857 112.792 112.174" fill="#5CDEB1"/>
<g opacity="0.2">
<path d="M125.816 35.8655C125.893 35.8822 125.963 35.9176 126.023 35.9686C126.082 36.0195 126.127 36.0844 126.155 36.1573C126.128 36.0838 126.083 36.0183 126.024 35.9672C125.964 35.9161 125.893 35.8811 125.816 35.8655Z" fill="black"/>
<path d="M125.816 35.8655V36.8553L126.155 36.1573C126.127 36.0844 126.082 36.0195 126.023 35.9686C125.963 35.9176 125.893 35.8822 125.816 35.8655Z" fill="black"/>
<path d="M125.816 98.4288C126.624 97.2063 125.99 96.7749 125.816 96.7749C125.99 96.7749 126.624 97.2063 125.816 98.4288Z" fill="black"/>
<path d="M127.201 98.5725C127.201 98.2905 127.188 98.0085 127.163 97.7266C126.901 97.7942 126.571 98.0438 126.258 98.6867C126.577 98.7147 126.898 98.6758 127.201 98.5725Z" fill="black"/>
<path d="M125.816 96.7749V98.4288C126.624 97.2063 125.99 96.7749 125.816 96.7749Z" fill="black"/>
<path d="M105.512 46.0171C105.364 46.0171 104.899 46.3259 105.229 47.1422C105.335 46.7996 105.449 46.4231 105.563 46.0255L105.512 46.0171Z" fill="black"/>
<path d="M115.665 52.7471C116.473 51.5247 115.839 51.0933 115.665 51.0933C115.492 51.0933 114.853 51.5247 115.665 52.7471Z" fill="black"/>
<path d="M125.641 37.2148L125.818 36.8553V35.8655C125.658 35.8655 125.12 36.2292 125.641 37.2148Z" fill="black"/>
<path d="M115.663 40.9412C115.49 40.9412 114.856 41.3641 115.663 42.595C116.471 41.3726 115.837 40.9412 115.663 40.9412Z" fill="black"/>
<path d="M107.353 57.5942C107.382 57.5412 107.401 57.4825 107.406 57.4219C107.411 57.3613 107.403 57.3003 107.382 57.2431C107.343 57.1959 107.294 57.1578 107.238 57.1315C107.183 57.1052 107.122 57.0913 107.061 57.0908C106.982 57.0887 106.903 57.1002 106.828 57.1247C107.002 57.3362 107.158 57.5265 107.285 57.6957C107.312 57.6649 107.335 57.6308 107.353 57.5942Z" fill="black"/>
<path d="M117.532 52.1671C117.443 52.0148 116.75 51.6849 116.103 53.0131C117.562 53.0808 117.617 52.3152 117.532 52.1671Z" fill="black"/>
<path d="M117.329 42.5861C117.312 42.3537 117.312 42.1205 117.329 41.8882C117.058 41.8036 116.563 41.8882 116.094 42.8483C116.524 42.918 116.964 42.8244 117.329 42.5861Z" fill="black"/>
<path d="M117.547 31.9106C117.433 32.101 117.327 32.3082 117.217 32.524C117.331 32.4713 117.425 32.383 117.484 32.2724C117.544 32.1618 117.566 32.0348 117.547 31.9106Z" fill="black"/>
<path d="M103.642 47.0917C103.558 47.2355 103.613 47.9715 104.979 47.9377L105.017 47.8277C104.387 46.6349 103.731 46.9437 103.642 47.0917Z" fill="black"/>
<path d="M113.792 52.1671C113.703 52.3152 113.762 53.0808 115.222 53.0131C114.574 51.6849 113.881 52.0148 113.792 52.1671Z" fill="black"/>
<path d="M123.949 36.9401C123.864 37.0881 123.919 37.8495 125.361 37.786C124.727 36.4621 124.038 36.7878 123.949 36.9401Z" fill="black"/>
<path d="M115.225 42.8489C115.079 42.5088 114.842 42.2158 114.539 42.0029C114.472 42.3202 114.412 42.5866 114.37 42.7897C114.649 42.8591 114.938 42.8791 115.225 42.8489Z" fill="black"/>
<path d="M114.054 42.6249C113.987 42.4472 113.902 42.24 113.805 42.0073C113.771 42.1233 113.777 42.2474 113.822 42.3595C113.868 42.4715 113.949 42.565 114.054 42.6249Z" fill="black"/>
<path d="M115.665 83.2012C116.473 81.9788 115.839 81.5474 115.665 81.5474C115.492 81.5474 114.853 81.9788 115.665 83.2012Z" fill="black"/>
<path d="M115.663 71.3955C115.49 71.3955 114.856 71.8185 115.663 73.0494C116.471 71.8269 115.837 71.3955 115.663 71.3955Z" fill="black"/>
<path d="M115.663 61.2446C115.49 61.2446 114.856 61.6676 115.663 62.8985C116.471 61.6761 115.837 61.2446 115.663 61.2446Z" fill="black"/>
<path d="M107.4 77.5923C107.4 77.6811 107.379 77.7742 107.366 77.863C107.404 77.7782 107.416 77.6839 107.4 77.5923Z" fill="black"/>
<path d="M107.38 87.698C107.296 87.5542 106.691 87.275 106.086 88.2775H107.16C107.254 88.2168 107.325 88.1279 107.365 88.0237C107.405 87.9195 107.41 87.8054 107.38 87.698Z" fill="black"/>
<path d="M116.122 83.455C117.581 83.5354 117.636 82.7698 117.552 82.609C117.467 82.4483 116.752 82.1395 116.122 83.455Z" fill="black"/>
<path d="M117.532 72.4701C117.443 72.3178 116.75 71.9879 116.103 73.3161C117.562 73.3837 117.617 72.6181 117.532 72.4701Z" fill="black"/>
<path d="M116.122 63.1518C117.196 63.211 117.509 62.8134 117.564 62.5385L117.526 62.2889C117.366 62.1324 116.714 61.9125 116.122 63.1518Z" fill="black"/>
<path d="M124.752 87.7059C124.329 87.414 124.003 87.5917 123.944 87.7059C123.914 87.8133 123.919 87.9274 123.959 88.0316C123.998 88.1358 124.07 88.2246 124.164 88.2853H124.95L124.752 87.7059Z" fill="black"/>
<path d="M113.792 82.6217C113.703 82.7697 113.762 83.5353 115.222 83.4677C114.574 82.1395 113.881 82.4694 113.792 82.6217Z" fill="black"/>
<path d="M113.792 72.4701C113.703 72.6181 113.762 73.3837 115.222 73.3161C114.574 71.9879 113.881 72.3178 113.792 72.4701Z" fill="black"/>
<path d="M113.792 62.3187C113.703 62.4668 113.762 63.2324 115.222 63.1647C114.574 61.8365 113.881 62.1665 113.792 62.3187Z" fill="black"/>
<path d="M115.663 112.002C115.498 112.002 114.923 112.391 115.545 113.465L115.756 113.508C116.416 112.399 115.828 112.002 115.663 112.002Z" fill="black"/>
<path d="M105.512 98.4288C106.32 97.2063 105.685 96.7749 105.512 96.7749C105.339 96.7749 104.7 97.2063 105.512 98.4288Z" fill="black"/>
<path d="M125.817 96.7749C125.643 96.7749 125.009 97.1979 125.817 98.4288V96.7749Z" fill="black"/>
<path d="M115.665 103.504C116.473 102.282 115.839 101.851 115.665 101.851C115.492 101.851 114.853 102.282 115.665 103.504Z" fill="black"/>
<path d="M115.663 91.699C115.49 91.699 114.856 92.122 115.663 93.3528C116.471 92.1304 115.837 91.699 115.663 91.699Z" fill="black"/>
<path d="M117.536 113.076C117.455 112.937 116.876 112.653 116.267 113.588C116.614 113.633 116.965 113.651 117.316 113.643C117.407 113.584 117.478 113.497 117.517 113.395C117.556 113.293 117.563 113.182 117.536 113.076Z" fill="black"/>
<path d="M105.969 98.6823C107.428 98.7627 107.483 97.9971 107.398 97.8363C107.314 97.6756 106.599 97.3668 105.969 98.6823Z" fill="black"/>
<path d="M116.122 103.758C117.581 103.838 117.636 103.073 117.552 102.912C117.467 102.751 116.752 102.443 116.122 103.758Z" fill="black"/>
<path d="M117.532 92.7731C117.443 92.6208 116.75 92.2909 116.103 93.619C117.562 93.6867 117.617 92.9211 117.532 92.7731Z" fill="black"/>
<path d="M123.944 108.001C123.876 108.115 123.897 108.593 124.574 108.77C124.688 108.567 124.802 108.347 124.908 108.149C124.43 107.666 124.011 107.882 123.944 108.001Z" fill="black"/>
<path d="M114.035 112.936C114.277 113.05 114.524 113.152 114.775 113.241C114.689 113.13 114.576 113.043 114.446 112.99C114.316 112.936 114.174 112.918 114.035 112.936Z" fill="black"/>
<path d="M105.07 98.6825C104.973 98.4686 104.846 98.2693 104.694 98.0903C104.694 98.2891 104.66 98.4837 104.647 98.6783C104.788 98.6883 104.929 98.6897 105.07 98.6825Z" fill="black"/>
<path d="M125.374 98.6822C124.727 97.3667 124.033 97.6966 123.944 97.8362C123.855 97.9758 123.915 98.7625 125.374 98.6822Z" fill="black"/>
<path d="M113.792 102.925C113.703 103.073 113.762 103.838 115.222 103.771C114.574 102.442 113.881 102.772 113.792 102.925Z" fill="black"/>
<path d="M113.792 92.7731C113.703 92.9211 113.762 93.6867 115.222 93.619C114.574 92.2909 113.881 92.6208 113.792 92.7731Z" fill="black"/>
<path d="M106.087 88.2767C106.04 88.3528 105.998 88.4374 105.951 88.5263C106.372 88.59 106.801 88.4998 107.161 88.2725H106.087V88.2767Z" fill="black"/>
<path d="M124.953 88.2769H124.158C124.417 88.4501 124.723 88.5388 125.034 88.5306L124.953 88.2769Z" fill="black"/>
</g>
<path d="M122.886 48.0841C124.777 45.0133 127.141 43.5159 128.715 42.2597C130.288 41.0034 130.83 40.9188 130.208 40.369C129.586 39.8191 127.534 40.1321 125.644 41.7056C124.213 42.9475 122.846 44.2619 121.549 45.6435C122.141 43.959 122.871 42.3263 123.732 40.7623C125.109 38.3432 126.345 35.8462 127.433 33.284C127.983 31.867 126.883 30.7461 125.542 31.6302C124.201 32.5142 123.026 34.3838 122.239 36.431C121.452 38.4782 118.694 43.2833 117.907 43.4398C117.121 43.5963 117.197 41.8621 117.59 40.369C117.984 38.8758 119.561 34.3076 120.268 32.6538C120.974 30.9999 121.054 29.8198 120.348 29.5829C119.642 29.3461 117.671 30.6827 116.567 34.0708C115.463 37.4588 114.257 43.2114 114.257 43.2114C114.257 43.2114 113.052 39.7049 111.36 37.8945C109.668 36.0842 107.976 38.106 106.174 40.4028C104.372 42.6996 107.443 43.2325 107.989 42.3358C109.084 40.4662 110.666 38.7785 110.823 42.7292C110.899 44.7553 110.996 48.8878 109.909 49.6153C108.822 50.3428 104.592 49.0104 104.592 49.0104C104.592 49.0104 105.074 47.6823 105.561 45.9904C106.047 44.2984 106.407 43.0887 105.561 42.1243C104.715 41.1599 103.746 42.9703 103.746 42.9703C103.746 42.9703 100.485 46.4726 100.849 48.7694C101.212 51.0661 106.043 56.015 107.371 57.8296C108.699 59.6442 108.027 65.3037 108.027 69.3812C108.027 73.4587 106.969 81.1612 105.912 88.7114C105.912 88.813 105.882 88.906 105.869 89.0033C107.54 90.7587 110.945 93.2754 116.702 93.0808C120.56 92.9497 123.292 91.0082 125.14 88.8722C123.914 85.2219 122.374 81.6815 121.232 78.7206C118.673 72.1264 117.197 60.1391 117.197 60.1391C118.13 58.6248 118.896 57.0137 119.481 55.334C120.274 52.7711 121.42 50.3311 122.886 48.0841Z" fill="#E8AF94"/>
</svg>
