<svg width="168" height="168" viewBox="0 0 168 168" fill="none" xmlns="http://www.w3.org/2000/svg">
<path d="M83.9633 156C119.308 156 147.959 127.349 147.959 92.0044C147.959 56.6601 119.308 28.0088 83.9633 28.0088C48.619 28.0088 19.9678 56.6601 19.9678 92.0044C19.9678 127.349 48.619 156 83.9633 156Z" fill="#F3F5FF"/>
<path d="M72.0814 52.105C73.3862 52.1216 72.7986 34.3765 72.4931 33.1049C71.4307 28.6927 73.2833 23.726 76.58 20.9738C79.3123 19.4034 82.7883 19.2009 85.6833 20.4426C88.5817 21.6842 90.8293 24.3435 91.5763 27.4045C92.4793 31.1129 94.5509 48.1941 94.5509 48.1941C94.5509 48.1941 87.5624 55.4615 72.0781 52.1084H72.0814V52.105Z" fill="black"/>
<path d="M118.607 138.829L97.7972 87.6949L93.5078 89.0693L94.4108 84.4546L54.3555 92.9968L55.0859 138.829" fill="white"/>
<path d="M118.607 138.829L97.7972 87.6949L93.5078 89.0693L94.4108 84.4546L54.3555 92.9968L55.0859 138.829" stroke="black" stroke-width="0.5" stroke-linecap="round" stroke-linejoin="round"/>
<path d="M82.6449 138.829L82.2432 127.624L86.994 138.829" fill="white"/>
<path d="M82.6449 138.829L82.2432 127.624L86.994 138.829" stroke="black" stroke-width="0.5" stroke-linecap="round" stroke-linejoin="round"/>
<path d="M85.8586 43.2572C85.8586 43.2572 111.183 43.2572 119.779 55.9295C124.586 63.0143 131.07 71.6296 128.334 81.8451C126.797 87.5854 120.383 91.1344 114.105 87.6949C107.823 84.2554 103.491 76.2975 103.491 76.2975L106.383 102.339L54.3588 105.513C54.3588 105.513 45.0031 113.02 34.6216 108.621C20.5118 102.645 27.736 83.2362 32.1881 76.1182C39.7045 64.1099 48.1106 54.5019 53.2864 50.0997C58.4622 45.7007 77.1603 43.4332 77.1603 43.4332L85.8619 43.2539H85.8586V43.2572Z" fill="#002EFF"/>
<path d="M91.7357 28.9882C91.3937 28.8421 91.0318 28.8156 90.6766 28.8687C90.2882 23.2945 86.7026 20.8145 82.3302 20.8145C77.6989 20.8145 73.944 24.8781 73.944 29.8912V29.9244C73.6286 29.8945 73.3066 29.9244 73.0011 30.0605C71.9188 30.5253 71.4606 31.9098 71.9819 33.1514C72.5031 34.3931 73.8012 35.0239 74.8835 34.5558C74.9167 34.5425 74.9433 34.5193 74.9765 34.5027C75.7998 36.1792 77.0747 37.5039 78.6816 38.2509L78.8442 42.9022H78.7911C78.7911 42.9022 75.6604 43.6126 73.4062 43.9712C74.4984 46.2321 76.7029 49.9438 84.2624 49.1868C87.7617 48.8349 89.5478 45.5581 90.2815 43.5595C88.3294 43.3636 86.7391 43.1113 86.0021 42.9818L85.9324 37.8259C87.6554 36.8698 89.0863 35.3492 89.9196 33.5067C90.9887 33.9117 92.2403 33.2909 92.7482 32.0791C93.2695 30.8374 92.8113 29.453 91.729 28.9882H91.7357Z" fill="white" stroke="black" stroke-width="0.5" stroke-linecap="round" stroke-linejoin="round"/>
<path d="M58.1406 96.3833L50.9031 96.2571C49.698 96.2372 48.7418 97.2398 48.7784 98.4848C48.8149 99.7663 49.8839 100.789 51.1189 100.719L58.3299 100.314C59.389 100.254 60.1691 99.3049 60.0596 98.2093C59.96 97.1934 59.1267 96.3999 58.1406 96.38V96.3833Z" fill="white" stroke="black" stroke-width="0.5" stroke-linecap="round" stroke-linejoin="round"/>
<path d="M59.0573 104.444L50.4221 104.806C49.4859 104.846 48.626 104.189 48.3604 103.236L48.3073 103.04C47.9454 101.738 48.8285 100.467 50.1067 100.44L58.7951 100.274C59.8375 100.254 60.7472 101.084 60.8767 102.177C61.0194 103.362 60.1861 104.398 59.054 104.444H59.0573Z" fill="white" stroke="black" stroke-width="0.5" stroke-linecap="round" stroke-linejoin="round"/>
<path d="M59.0573 106.041C58.9212 105.145 58.151 104.484 57.248 104.491L51.4912 104.514C50.5582 104.517 49.7781 105.224 49.6851 106.151L49.6386 106.612C49.5224 107.748 50.4653 108.71 51.604 108.617L57.4073 108.133C58.4598 108.046 59.2167 107.087 59.0573 106.045V106.041Z" fill="white" stroke="black" stroke-width="0.5" stroke-linecap="round" stroke-linejoin="round"/>
<path d="M57.9676 109.354C57.7485 108.67 57.1343 108.202 56.4802 108.216L51.7327 108.328C50.9558 108.348 50.3881 109.032 50.4545 109.872L50.4977 110.4C50.5707 111.32 51.3708 112.027 52.2074 111.911L56.9151 111.27C57.7617 111.154 58.2597 110.251 57.9742 109.354H57.9676Z" fill="white" stroke="black" stroke-width="0.5" stroke-linecap="round" stroke-linejoin="round"/>
<path d="M123.992 49.263C124.042 48.3965 123.335 47.6694 122.455 47.7093C121.698 47.7425 121.104 48.3832 121.044 49.1369L120.685 53.8545L120.599 45.8235C120.619 44.9039 119.855 44.147 118.913 44.2067C118.096 44.2565 117.468 44.9637 117.432 45.7837L117.153 52.075L117.033 44.7678C117.077 43.805 116.296 42.9817 115.294 43.0115C114.417 43.0381 113.727 43.7718 113.67 44.6483L113.411 48.609L113.192 46.949C113.083 46.1223 112.392 45.4583 111.562 45.4716C110.599 45.4849 109.869 46.3215 109.975 47.2644L110.739 54.1932L111.409 59.4254L108.919 56.0955C108.458 55.478 107.728 55.0962 106.957 55.1327C105.367 55.2057 104.61 56.7993 105.281 57.9945C106.27 59.7541 107.777 62.4267 108.657 63.9472C109.62 65.6105 111.486 68.5586 112.548 70.2186C113.375 71.5134 114.547 72.5691 115.964 73.1601C116.625 73.4357 117.365 73.6315 118.139 73.6315C120.755 73.6315 122.873 72.6322 122.873 71.4005C122.873 71.2445 123.995 49.263 123.995 49.263H123.992Z" fill="white" stroke="black" stroke-width="0.5" stroke-linecap="round" stroke-linejoin="round"/>
<path d="M82.3333 20.4858C77.6255 20.4858 73.7976 24.9412 73.5586 29.9743C75.4842 28.9019 79.5378 26.2526 79.7038 22.8397C79.7038 22.8397 84.1028 26.7871 90.766 27.1922C89.6637 22.8829 86.3039 20.4858 82.3333 20.4858Z" fill="black"/>
<path d="M38.6162 139.032H129.314" stroke="black" stroke-width="0.5" stroke-linecap="round" stroke-linejoin="round"/>
<path d="M82.2441 127.624L81.693 113.388C81.5104 109.534 84.329 106.194 88.1602 105.726L90.6469 105.424" stroke="black" stroke-width="0.5" stroke-linecap="round" stroke-linejoin="round"/>
<path d="M34.2568 87.778C34.2568 87.778 47.447 84.3352 51.9622 96.2738" stroke="black" stroke-width="0.5" stroke-linecap="round" stroke-linejoin="round"/>
<path d="M37.0527 84.1392C37.0527 84.1392 43.198 84.5973 46.2357 89.2253" stroke="black" stroke-width="0.5" stroke-linecap="round" stroke-linejoin="round"/>
<path d="M51.1885 94.4346L59.6145 75.0327" stroke="black" stroke-width="0.5" stroke-linecap="round" stroke-linejoin="round"/>
<path d="M71.3311 44.5254C71.3311 44.5254 73.2467 51.7596 81.3208 51.7496" stroke="black" stroke-width="0.5" stroke-linecap="round" stroke-linejoin="round"/>
<path d="M113.382 48.3335L114.238 56.6201" stroke="black" stroke-width="0.5" stroke-linecap="round" stroke-linejoin="round"/>
<path d="M117.213 50.6909L117.014 56.5971" stroke="black" stroke-width="0.5" stroke-linecap="round" stroke-linejoin="round"/>
<path d="M120.775 52.3042L120.522 56.9189" stroke="black" stroke-width="0.5" stroke-linecap="round" stroke-linejoin="round"/>
<path d="M114.879 67.8718C114.879 67.8718 117.671 65.654 118.289 62.3208" stroke="black" stroke-width="0.5" stroke-linecap="round" stroke-linejoin="round"/>
<path d="M106.409 72.2903C106.409 72.2903 106.592 69.3024 109.713 65.7168" stroke="black" stroke-width="0.5" stroke-linecap="round" stroke-linejoin="round"/>
<path d="M113.382 71.3146C113.382 71.3146 112.233 75.6737 118.202 75.7002C120.025 75.7069 121.32 75.3384 122.236 74.8205C124.268 73.6751 124.802 70.8863 123.308 69.0935C123.209 68.974 123.099 68.8644 122.986 68.7715" stroke="black" stroke-width="0.5" stroke-linecap="round" stroke-linejoin="round"/>
<path d="M74.4119 32.8593C74.4119 32.8593 74.2327 31.9828 72.7021 31.7803" stroke="black" stroke-width="0.5" stroke-linecap="round" stroke-linejoin="round"/>
<path d="M73.9437 32.5273L73.293 33.1017" stroke="black" stroke-width="0.5" stroke-linecap="round" stroke-linejoin="round"/>
<path d="M90.2549 31.5346C90.2549 31.5346 90.4342 30.6581 91.9647 30.4556" stroke="black" stroke-width="0.5" stroke-linecap="round" stroke-linejoin="round"/>
<path d="M90.7197 31.2026L91.3704 31.777" stroke="black" stroke-width="0.5" stroke-linecap="round" stroke-linejoin="round"/>
<path d="M122.966 12H109.985C106.843 12 104.295 14.5477 104.295 17.6904V30.6715C104.295 33.8142 106.843 36.3619 109.985 36.3619H122.966C126.109 36.3619 128.657 33.8142 128.657 30.6715V17.6904C128.657 14.5477 126.109 12 122.966 12Z" fill="#F5B207"/>
<path d="M112.98 20.5454C114.152 18.5169 114.736 17.501 115.51 17.1757C116.127 16.9167 116.824 16.9167 117.442 17.1757C118.215 17.501 118.8 18.5136 119.972 20.5454L122.81 25.4623C123.982 27.4908 124.566 28.5067 124.463 29.3367C124.38 30.0007 124.032 30.6049 123.497 31.0099C122.83 31.5179 121.658 31.5179 119.314 31.5179H113.637C111.293 31.5179 110.121 31.5179 109.454 31.0099C108.919 30.6049 108.571 30.004 108.488 29.3367C108.382 28.5034 108.969 27.4908 110.141 25.4623L112.98 20.5454Z" fill="white"/>
<path d="M116.778 20.8843H116.174C115.899 20.8843 115.676 21.1072 115.676 21.3823V26.2792C115.676 26.5542 115.899 26.7772 116.174 26.7772H116.778C117.053 26.7772 117.276 26.5542 117.276 26.2792V21.3823C117.276 21.1072 117.053 20.8843 116.778 20.8843Z" fill="#F5B207"/>
<path d="M116.778 27.9224H116.174C115.899 27.9224 115.676 28.1453 115.676 28.4204V29.0246C115.676 29.2996 115.899 29.5226 116.174 29.5226H116.778C117.053 29.5226 117.276 29.2996 117.276 29.0246V28.4204C117.276 28.1453 117.053 27.9224 116.778 27.9224Z" fill="#F5B207"/>
</svg>
