<svg width="96" height="96" viewBox="0 0 96 96" fill="none" xmlns="http://www.w3.org/2000/svg">
<g clip-path="url(#clip0_12274_45385)">
<path d="M48 83.33C67.5357 83.33 83.372 67.4937 83.372 47.958C83.372 28.4223 67.5357 12.5859 48 12.5859C28.4642 12.5859 12.6279 28.4223 12.6279 47.958C12.6279 67.4937 28.4642 83.33 48 83.33Z" fill="#F3F5FF"/>
<path d="M85.3994 32.8085C85.2599 32.5369 84.992 32.3754 84.7057 32.3497C84.8947 32.2029 85.0562 32.0763 85.1883 31.9717C85.4654 31.7515 85.5517 31.3716 85.3938 31.0652C85.1755 30.6413 84.6488 30.478 84.2139 30.6982C83.2377 31.1936 81.5091 32.1901 79.8612 33.7297C79.8686 33.7223 79.8741 33.715 79.8814 33.7095C81.4742 32.146 83.1478 30.8303 83.6616 30.2908C83.9056 30.0357 83.9368 29.6485 83.735 29.3678C83.4542 28.9788 82.9129 28.876 82.4945 29.1347C81.2907 29.8798 78.9033 31.5111 77.2316 33.6122L77.2059 31.4744C77.1986 30.8285 76.6518 30.3293 76.0003 30.3734C75.4994 30.4064 75.0865 30.7918 75.0241 31.2854C74.914 32.1552 74.6938 34.2802 73.9634 35.7867C72.7853 38.2145 72.7119 39.5706 73.1138 41.0129L74.6185 56.051L62.489 38.954L58.2207 48.0723L76.7068 72.7424C77.9968 74.4637 80.4301 74.9463 82.2046 73.7297C83.368 72.9314 83.9717 71.6304 83.9313 70.3238C83.9717 69.9935 83.9754 69.6522 83.9295 69.3072L78.1565 43.4535C78.129 43.3305 78.1455 43.2002 78.2024 43.0883C78.5528 42.3947 79.8796 39.855 81.0044 39.0237C82.6707 37.7906 83.7717 36.9391 84.3901 36.4528C84.7461 36.1721 84.8562 35.6858 84.6543 35.2931C84.4782 34.9536 84.0579 34.8215 83.7075 34.994C83.5588 35.0674 83.3882 35.1555 83.1991 35.2564C84.1442 34.5426 84.7993 34.0324 85.1975 33.7168C85.4764 33.4966 85.5627 33.1149 85.403 32.8085H85.3994Z" fill="white" stroke="black" stroke-width="0.5" stroke-miterlimit="10"/>
<path d="M30.4239 42.8477L16.6722 70.5768L11.3047 76.058L18.0227 78.4876L22.0139 75.8966C22.7314 75.5387 23.348 74.9644 23.7499 74.2028L38.2136 46.8499L30.422 42.8477H30.4239Z" fill="white" stroke="black" stroke-width="0.5" stroke-miterlimit="10"/>
<path d="M40.421 27.4052C41.1624 30.3137 39.9696 37.2428 36.8152 40.1715C32.6533 44.0324 52.145 43.8783 54.4296 38.6796C55.5729 36.0794 53.0735 25.3555 53.0735 25.3555C53.0735 25.3555 44.3792 26.9813 40.4228 27.4052H40.421Z" fill="black"/>
<path d="M48.5894 37.6939L58.0637 36.7562C60.1611 36.58 62.2054 37.4792 63.4917 39.1454L74.2101 53.1944L74.3698 54.945L74.6927 58.0334L65.9635 64.2743L60.6272 56.8278L61.1777 78.4756H33.166L33.3036 60.2299L29.8446 66.0359L21.2842 58.4719L29.1675 43.1384C30.252 41.0281 32.309 39.5913 34.6634 39.2977L48.5913 37.6957H48.5894V37.6939Z" fill="#FF3D00"/>
<path d="M53.1749 27.7656C53.1749 24.1946 50.3655 21.3008 46.9009 21.3008C43.4364 21.3008 40.627 24.1946 40.627 27.7656C40.627 30.5842 42.3794 32.9808 44.8218 33.8652V38.095L41.7665 38.4106C41.7665 38.4106 42.4968 41.1778 46.7486 40.9833C50.9985 40.7888 51.1068 37.4435 51.1068 37.4435L49.2388 37.6362V33.7625C51.5454 32.8064 53.1749 30.4814 53.1749 27.7638V27.7656Z" fill="white" stroke="black" stroke-width="0.5" stroke-miterlimit="10"/>
<path d="M54.911 27.9335L54.799 29.864C54.7421 30.8457 53.9237 31.5907 52.9713 31.5302L52.8025 31.5192C52.6484 31.51 52.5107 31.4384 52.4135 31.3283C52.3089 31.2127 52.2483 31.0549 52.2575 30.8861L52.5199 26.3554C52.5273 26.2471 52.5786 26.1517 52.6575 26.0911C52.7108 26.0471 52.7787 26.0214 52.8502 26.0177H52.8888C52.274 23.111 49.6976 20.9953 46.7212 21.1365C44.1228 21.2595 41.9905 23.0633 41.2657 25.4819C40.7886 26.4453 40.8161 27.26 40.8711 28.4198C40.928 29.6382 41.3115 30.7613 41.9263 31.7045C41.9263 31.7045 41.2565 32.0238 41.0198 32.0917C40.1023 32.3559 39.1921 31.5779 39.0434 30.6053L38.7498 28.6932C38.6012 27.7206 39.2453 26.8123 40.1885 26.66L40.2803 26.6453C40.6895 23.3404 43.3503 20.72 46.6919 20.5622C50.0683 20.4025 52.9878 22.8101 53.6705 26.1132C54.4283 26.3425 54.9605 27.0857 54.9128 27.9298V27.9335H54.911Z" fill="#001780"/>
<path d="M50.4298 33.7843C49.7711 33.7843 49.026 33.6467 48.1984 33.3696C48.0737 33.3274 48.0076 33.1935 48.048 33.0705C48.0902 32.9457 48.2241 32.8797 48.3471 32.9219C49.9307 33.4504 51.162 33.443 52.0061 32.898C52.9567 32.2851 53.0815 31.1878 53.0815 31.1768C53.0943 31.0465 53.2081 30.9547 53.342 30.9657C53.4723 30.9786 53.5659 31.096 53.5531 31.2263C53.5476 31.2795 53.4026 32.5622 52.263 33.2962C51.7566 33.6229 51.1437 33.7862 50.428 33.7862H50.4298V33.7843Z" fill="#001780"/>
<path d="M48.0973 33.7475L47.523 33.5475C47.2092 33.4393 47.0385 33.0888 47.145 32.764C47.2496 32.441 47.589 32.2667 47.9047 32.3768L48.479 32.5768C48.7928 32.6851 48.9635 33.0356 48.857 33.3604C48.7524 33.6833 48.413 33.8576 48.0973 33.7475Z" fill="#001780"/>
<path d="M43.2105 31.4658C41.7242 31.4658 40.4929 30.5263 40.4213 29.2986C40.3846 28.6674 40.6525 28.06 41.1792 27.5866C41.6911 27.1241 42.3903 26.847 43.1463 26.803C43.9042 26.759 44.629 26.9535 45.1905 27.3517C45.7667 27.7609 46.1062 28.3316 46.1429 28.9628C46.1796 29.5941 45.9117 30.2015 45.3851 30.6749C44.8731 31.1373 44.1739 31.4144 43.4179 31.4585C43.3482 31.4621 43.2784 31.464 43.2105 31.464V31.4658ZM43.3555 27.2085C43.2931 27.2085 43.2307 27.2085 43.1683 27.214C42.5059 27.2526 41.8948 27.4948 41.4526 27.893C41.0214 28.2802 40.8011 28.772 40.8305 29.2766C40.8929 30.3354 42.0398 31.1318 43.394 31.0529C44.0565 31.0144 44.6676 30.7722 45.1098 30.3721C45.541 29.9849 45.7612 29.4932 45.7319 28.9885C45.7025 28.4839 45.4254 28.0215 44.952 27.6875C44.5116 27.3755 43.9501 27.2067 43.3555 27.2067V27.2085Z" fill="black"/>
<path d="M50.7066 30.4503C49.2203 30.4503 47.9908 29.5108 47.9174 28.2831C47.8807 27.6519 48.1486 27.0445 48.6753 26.571C49.1872 26.1086 49.8864 25.8315 50.6424 25.7875C52.2132 25.6939 53.5638 26.6646 53.639 27.9473C53.6757 28.5786 53.4078 29.186 52.8811 29.6594C52.3692 30.1218 51.67 30.3989 50.914 30.443C50.8443 30.4466 50.7745 30.4485 50.7066 30.4485V30.4503ZM50.8498 26.193C50.7892 26.193 50.7268 26.193 50.6644 26.1985C50.002 26.2371 49.3909 26.4793 48.9487 26.8793C48.5174 27.2665 48.2972 27.7583 48.3266 28.2629C48.389 29.3218 49.5396 30.1182 50.8901 30.0393C51.5526 30.0007 52.1637 29.7585 52.6059 29.3585C53.0371 28.9713 53.2573 28.4795 53.228 27.9748C53.1692 26.9656 52.1196 26.193 50.8479 26.193H50.8498Z" fill="black"/>
<path d="M45.9374 29.1809C45.875 29.1809 45.8108 29.1515 45.7722 29.0965C45.7062 29.0047 45.7263 28.8763 45.8181 28.8102C47.1522 27.8468 48.2752 28.5295 48.3229 28.5588C48.4183 28.6194 48.4477 28.7442 48.3871 28.8414C48.3266 28.9368 48.2018 28.9662 48.1064 28.9056C48.0642 28.88 47.1613 28.346 46.0585 29.1424C46.0218 29.1681 45.9796 29.1809 45.9392 29.1809H45.9374Z" fill="black"/>
<path d="M15.2542 74.5625H16.9589C18.5811 74.5625 19.8986 75.8801 19.8986 77.5022V78.4748H12.3145V77.5022C12.3145 75.8801 13.632 74.5625 15.2542 74.5625Z" fill="#FF3D00"/>
<path d="M16.1067 78.5925C16.0406 78.5925 15.9893 78.5393 15.9893 78.475V74.5628C15.9893 74.4967 16.0425 74.4453 16.1067 74.4453C16.1709 74.4453 16.2241 74.4985 16.2241 74.5628V78.475C16.2241 78.5411 16.1709 78.5925 16.1067 78.5925Z" fill="black"/>
<path d="M13.2975 78.0014C13.7195 77.939 14.0131 77.5793 13.9893 77.1536L13.8315 74.4506C13.8058 74.012 13.4498 73.645 13.0075 73.5991L12.7855 73.5753C12.2423 73.5184 11.8093 73.9606 11.8845 74.4946L12.2643 77.2196C12.3322 77.7133 12.8075 78.0711 13.2993 77.9995L13.2975 78.0014Z" fill="white" stroke="black" stroke-width="0.5" stroke-miterlimit="10"/>
<path d="M11.696 78.0445C12.0152 77.9436 12.2226 77.6555 12.1987 77.3472L12.0244 75.1176C11.9951 74.7543 11.6556 74.4845 11.2592 74.5139L11.0097 74.5323C10.5747 74.5653 10.2591 74.9378 10.3344 75.3323L10.7601 77.5435C10.8372 77.9417 11.2794 78.1766 11.6978 78.0445H11.696Z" fill="white" stroke="black" stroke-width="0.5" stroke-miterlimit="10"/>
<path d="M40.498 39.0273C40.498 39.0273 41.2449 41.2551 43.9534 41.5872" stroke="black" stroke-width="0.5" stroke-linecap="round" stroke-linejoin="round"/>
<path d="M46.6641 41.9664C46.6641 41.9664 51.136 41.8857 52.2169 38.3789" stroke="black" stroke-width="0.5" stroke-linecap="round" stroke-linejoin="round"/>
<path d="M74.3184 53.0664L75.5772 66.8879" stroke="black" stroke-width="0.5" stroke-linecap="round" stroke-linejoin="round"/>
<path d="M74.4409 54.3086L64.9189 60.7973" stroke="black" stroke-width="0.5" stroke-linecap="round" stroke-linejoin="round"/>
<path d="M33.2203 61.2495C33.1561 61.2495 33.1029 61.1981 33.1029 61.1321L33.0479 54.6544C33.0479 54.5884 33.0992 54.5352 33.1653 54.5352C33.2314 54.5352 33.2827 54.5865 33.2827 54.6526L33.3378 61.1303C33.3378 61.1963 33.2864 61.2495 33.2203 61.2495Z" fill="black"/>
<path d="M60.6671 57.3297C60.6028 57.3297 60.5496 57.2784 60.5496 57.2141L60.4102 51.4063C60.4102 51.3402 60.4597 51.287 60.5258 51.2852C60.5955 51.2852 60.645 51.3347 60.6469 51.4008L60.7863 57.2086C60.7863 57.2747 60.7368 57.3279 60.6707 57.3297H60.6671Z" fill="black"/>
<path d="M46.9012 21.3008C43.5964 21.3008 40.8897 23.9341 40.6475 27.2756C43.5156 26.8444 44.5267 23.4918 44.7579 23.7817C45.0075 24.0937 44.3671 25.7801 44.3671 25.7801C47.1471 25.7801 49.1198 23.0074 49.1198 23.0074C49.5547 24.9323 52.6449 26.2462 53.0358 26.4058C52.4302 23.4881 49.9144 21.3008 46.9012 21.3008Z" fill="black"/>
<path d="M16.3896 74.0508H15.8226C15.7418 74.0508 15.6758 74.1168 15.6758 74.1976V74.9243C15.6758 75.005 15.7418 75.0711 15.8226 75.0711H16.3896C16.4703 75.0711 16.5364 75.005 16.5364 74.9243V74.1976C16.5364 74.1168 16.4703 74.0508 16.3896 74.0508Z" fill="black"/>
<path d="M76.054 39.7305C76.054 39.7305 74.2484 41.6279 74.9769 44.452" stroke="black" stroke-width="0.5" stroke-linecap="round" stroke-linejoin="round"/>
<path d="M83.1958 35.2539C83.1958 35.2539 78.8706 38.3533 78.4229 39.0414" stroke="black" stroke-width="0.5" stroke-linecap="round" stroke-linejoin="round"/>
<path d="M84.7042 32.349C84.7042 32.349 84.6363 32.1288 83.7371 32.716C83.7371 32.716 78.9294 36.1953 77.9531 37.6009" stroke="black" stroke-width="0.5" stroke-linecap="round" stroke-linejoin="round"/>
<path d="M80.0566 33.5469L76.9756 36.3104" stroke="black" stroke-width="0.5" stroke-linecap="round" stroke-linejoin="round"/>
<path d="M77.228 33.6133C77.228 33.6133 75.96 35.1382 75.7637 35.3731" stroke="black" stroke-width="0.5" stroke-linecap="round" stroke-linejoin="round"/>
<path d="M64.1137 40.9883L61.6768 46.6347" stroke="black" stroke-width="0.5" stroke-linecap="round" stroke-linejoin="round"/>
<path d="M32.2422 40.8125L34.8076 48.6206" stroke="black" stroke-width="0.5" stroke-linecap="round" stroke-linejoin="round"/>
<path d="M22.8506 55.2227L31.7395 62.8601" stroke="black" stroke-width="0.5" stroke-linecap="round" stroke-linejoin="round"/>
<path d="M70.8703 43.8594H25.6753C25.2936 43.8594 24.9854 44.1677 24.9854 44.5493V71.1188C24.9854 71.5004 25.2936 71.8087 25.6753 71.8087H70.8703C71.252 71.8087 71.5603 71.5004 71.5603 71.1188V44.5493C71.5603 44.1677 71.252 43.8594 70.8703 43.8594Z" fill="#001780"/>
<path d="M52.0682 77.4697H44.4821C44.1261 77.4697 43.8435 77.1725 43.8601 76.8165L44.5757 61.7802C44.5922 61.4481 44.8657 61.1875 45.1978 61.1875H51.3892C51.7232 61.1875 51.9966 61.4499 52.0113 61.782L52.6902 76.8183C52.7067 77.1725 52.4223 77.4697 52.0682 77.4697Z" fill="black"/>
<path d="M55.1387 66.1597H41.4108C40.6144 66.1597 39.9648 65.5119 39.9648 64.7137V58.7663C39.9648 57.9699 40.6126 57.3203 41.4108 57.3203H55.1387C55.9351 57.3203 56.5847 57.9681 56.5847 58.7663V64.7137C56.5847 65.5101 55.937 66.1597 55.1387 66.1597ZM41.4108 57.7956C40.875 57.7956 40.4383 58.2323 40.4383 58.7682V64.7155C40.4383 65.2513 40.875 65.6881 41.4108 65.6881H55.1387C55.6745 65.6881 56.1113 65.2513 56.1113 64.7155V58.7682C56.1113 58.2323 55.6745 57.7956 55.1387 57.7956H41.4108Z" fill="black"/>
<path d="M56.6575 76.8906H39.889C39.7991 76.8906 39.7275 76.9622 39.7275 77.0521V78.4798C39.7275 78.5697 39.7991 78.6412 39.889 78.6412H56.6575C56.7475 78.6412 56.819 78.5697 56.819 78.4798V77.0521C56.819 76.9622 56.7475 76.8906 56.6575 76.8906Z" fill="#001780"/>
<path d="M8.1377 78.4883H87.8624" stroke="black" stroke-width="0.5" stroke-linecap="round" stroke-linejoin="round"/>
<path d="M14.0941 77.3452L13.7014 73.2897C13.6592 72.8493 13.9472 72.4475 14.395 72.3245L14.4867 72.2988C15.096 72.1318 15.7236 72.5484 15.7676 73.1484L16.0685 77.2277C16.1052 77.7177 15.7327 78.1434 15.2189 78.2021C14.6592 78.2663 14.1473 77.8736 14.0959 77.3415V77.3452H14.0941Z" fill="white" stroke="black" stroke-width="0.5" stroke-miterlimit="10"/>
<path d="M18.7883 76.1455L18.0855 72.7911C17.9681 72.2332 17.3974 71.8516 16.8175 71.9433C16.2211 72.0369 15.8541 72.5929 16.0174 73.1599L16.9661 76.4703C17.1056 76.9566 17.6322 77.2594 18.135 77.1438C18.6011 77.0355 18.8856 76.6024 18.7901 76.1455H18.7883Z" fill="white" stroke="black" stroke-width="0.5" stroke-miterlimit="10"/>
</g>
<defs>
<clipPath id="clip0_12274_45385">
<rect width="80" height="80" fill="white" transform="translate(8 8)"/>
</clipPath>
</defs>
</svg>
