<svg width="96" height="96" viewBox="0 0 96 96" fill="none" xmlns="http://www.w3.org/2000/svg">
<g clip-path="url(#clip0_12274_45097)">
<path d="M47.9212 84.7681C67.73 84.7681 83.7877 68.7105 83.7877 48.9016C83.7877 29.0928 67.73 13.0352 47.9212 13.0352C28.1124 13.0352 12.0547 29.0928 12.0547 48.9016C12.0547 68.7105 28.1124 84.7681 47.9212 84.7681Z" fill="#F3F5FF"/>
<path d="M59.3291 19.8867L59.5133 25.0389L55.243 25.4409L54.7295 20.3649L59.3291 19.8867Z" fill="white"/>
<path d="M59.3997 21.8646L59.329 19.8867L54.7275 20.3631L55.0066 23.1317C56.9976 23.3383 58.4917 22.5587 59.3979 21.8646H59.3997Z" fill="black"/>
<path d="M57.6434 11.5282C57.6434 11.5282 59.0706 11.3384 60.2465 12.6465C61.789 14.3657 62.083 18.0685 60.0623 20.0892C58.0435 22.108 52.6029 20.6027 52.6029 20.6027C52.6029 20.6027 50.6622 17.7671 50.824 15.4356C50.9915 13.0242 53.4699 11.4035 54.7594 11.2081C56.0488 11.0128 57.6416 11.53 57.6416 11.53L57.6434 11.5282Z" fill="white"/>
<path d="M51.5696 17.6571C51.2589 14.9014 53.2145 12.4714 55.7878 12.2444C58.3611 12.0174 60.3483 13.9841 60.5921 16.7472C60.8358 19.5103 59.6934 21.8176 56.6697 22.2493C54.1318 22.6121 51.9864 21.3506 51.5696 17.6571Z" fill="white"/>
<path d="M60.9062 16.5324C60.9062 16.5324 58.2659 13.8511 57.743 12.664C57.743 12.664 55.2051 14.2661 53.6644 13.7637C53.6644 13.7637 51.5432 14.6847 51.2995 17.2097L51.1357 15.7434L52.0698 13.3246L53.9026 12.1523L55.6442 11.6016L58.0631 11.7858L59.6763 12.8854L60.6475 14.5526L60.9043 16.5324H60.9062Z" fill="white"/>
<path d="M60.5119 16.3794C60.9697 15.7133 61.7809 15.5458 62.3205 16.0054C62.8601 16.465 62.9271 17.3768 62.4694 18.0429C62.0117 18.709 61.2004 18.8765 60.6608 18.4169C60.1212 17.9573 60.0542 17.0456 60.5119 16.3794Z" fill="white"/>
<path d="M60.9906 17.5623C60.9366 17.5623 60.8827 17.5344 60.8529 17.4823C60.8082 17.406 60.8343 17.3093 60.9106 17.2665L62.0512 16.6078C62.1275 16.5631 62.2242 16.5892 62.267 16.6655C62.3117 16.7418 62.2856 16.8385 62.2093 16.8813L61.0687 17.54C61.0446 17.5549 61.0166 17.5605 60.9887 17.5605H60.9906V17.5623Z" fill="black"/>
<path d="M61.7102 18.0143C61.6563 18.0143 61.6023 17.9864 61.5725 17.9343L61.2432 17.3575C61.2004 17.2812 61.2265 17.1844 61.3027 17.1416C61.3772 17.0988 61.4758 17.1249 61.5186 17.2012L61.8479 17.778C61.8907 17.8543 61.8647 17.951 61.7884 17.9938C61.7642 18.0087 61.7363 18.0143 61.7102 18.0143Z" fill="black"/>
<path d="M51.9311 17.4671C51.4157 16.8438 50.5933 16.7489 50.0964 17.255C49.5996 17.7611 49.6145 18.6747 50.1299 19.298C50.6453 19.9213 51.4678 20.0162 51.9646 19.5101C52.4614 19.004 52.4465 18.0904 51.9311 17.4671Z" fill="white" stroke="black" stroke-width="0.5" stroke-miterlimit="10"/>
<path d="M57.6434 11.5282C57.6434 11.5282 59.0706 11.3384 60.2465 12.6465C61.789 14.3657 62.083 18.0685 60.0623 20.0892C58.0435 22.108 52.6029 20.6027 52.6029 20.6027C52.6029 20.6027 50.6622 17.7671 50.824 15.4356C50.9915 13.0242 53.4699 11.4035 54.7594 11.2081C56.0488 11.0128 57.6416 11.53 57.6416 11.53L57.6434 11.5282Z" fill="black"/>
<path d="M62.321 16.0045C61.7907 15.5542 61.0036 15.7105 60.5403 16.345C60.1477 13.7978 58.2331 12.0301 55.7881 12.2441C53.2148 12.4711 51.2574 14.9011 51.57 17.6568C51.8863 20.4571 53.1962 21.8564 54.9173 22.2136L55.2429 25.44L59.5132 25.0363L59.3681 20.9781C60.0472 20.2841 60.4287 19.3612 60.5645 18.3136C60.5961 18.349 60.624 18.3862 60.6612 18.416C61.2008 18.8756 62.0121 18.7081 62.4698 18.042C62.9276 17.3758 62.8624 16.4641 62.321 16.0045Z" fill="white" stroke="black" stroke-width="0.5" stroke-miterlimit="10"/>
<path d="M60.5117 16.3779C60.5117 16.3779 58.2659 13.8511 57.743 12.664C57.743 12.664 55.2051 14.2661 53.6644 13.7637C53.6644 13.7637 51.5432 14.6847 51.2995 17.2097L51.1357 15.7434L52.0698 13.3246L53.9026 12.1523L55.6442 11.6016L58.0631 11.7858L59.6763 12.8854L60.6475 14.5526L60.5117 16.3798V16.3779Z" fill="black"/>
<path d="M72.934 79.834L71.6557 56.7188L45.1894 57.837L45.0703 79.7298L57.5964 79.8712L58.4747 72.4155L59.5204 71.9968L61.3345 79.7707L72.934 79.834Z" fill="white" stroke="black" stroke-width="0.5" stroke-miterlimit="10"/>
<path d="M63.5712 25.2727C63.5712 25.2727 72.8094 25.455 76.0936 27.7995C78.9888 29.8667 88.3796 47.5934 87.9889 54.4965C87.5982 61.3997 80.7806 65.6606 71.9945 64.5256C63.2083 63.3906 53.8993 59.1724 53.8993 59.1724L44.0731 60.9345C44.0731 60.9345 40.6308 66.4719 31.9433 65.882C23.2558 65.2922 20.2861 53.2778 20.2861 53.2778L34.178 47.8558C34.178 47.8558 39.721 33.7295 41.6319 30.7784C43.5428 27.8274 56.5415 24.7461 56.5415 24.7461L63.5693 25.2727H63.5712Z" fill="white"/>
<path d="M72.4018 33.3105C72.4018 33.3105 72.3832 33.3105 72.3739 33.3105C72.2883 33.2957 72.2306 33.2119 72.2455 33.1263C72.7423 30.367 73.801 29.2301 73.8457 29.1817C73.9071 29.1184 74.0076 29.1166 74.069 29.1761C74.1322 29.2357 74.1341 29.3361 74.0746 29.3994C74.0634 29.4106 73.0363 30.5251 72.5562 33.1822C72.5432 33.2585 72.4762 33.3124 72.3999 33.3124H72.4018V33.3105Z" fill="black"/>
<path d="M73.9597 50.6597C73.8871 50.6597 73.822 50.6094 73.8052 50.535L71.5017 40.0314C71.4831 39.9458 71.5371 39.8621 71.6227 39.8435C71.7101 39.8249 71.7938 39.8789 71.8125 39.9645L74.116 50.468C74.1346 50.5536 74.0806 50.6373 73.995 50.6559C73.9839 50.6578 73.9727 50.6597 73.9615 50.6597H73.9597Z" fill="black"/>
<path d="M45.7007 49.5044C45.617 49.5044 45.5463 49.4374 45.5426 49.3537L45.0011 37.4937C44.9974 37.4063 45.0644 37.3318 45.1518 37.3281H45.1593C45.243 37.3281 45.3137 37.3951 45.3174 37.4788L45.8589 49.3388C45.8626 49.4263 45.7956 49.5007 45.7082 49.5044H45.7007Z" fill="black"/>
<path d="M63.5707 25.2758L59.9647 22.4141L56.8369 24.7288L60.1768 29.6409L63.5707 25.2758Z" fill="white"/>
<path d="M54.789 23.0508L56.9083 24.7459L54.1526 29.872L51.8193 26.0893L54.789 23.0508Z" fill="white"/>
<path d="M57.7562 49.9247C57.6706 49.9247 57.598 49.8558 57.598 49.7684L57.2314 25.492C57.2314 25.4046 57.3003 25.332 57.3877 25.332H57.3896C57.4752 25.332 57.5478 25.4009 57.5478 25.4883L57.9143 49.7646C57.9143 49.8521 57.8455 49.9247 57.758 49.9265H57.7562V49.9247Z" fill="black"/>
<path d="M48.6113 36.3516H8.1582V62.5965H48.6113V36.3516Z" fill="white"/>
<path d="M48.6112 62.7565H8.15816C8.07071 62.7565 8 62.6858 8 62.5984V36.3535C8 36.266 8.07071 36.1953 8.15816 36.1953H48.6112C48.6987 36.1953 48.7694 36.266 48.7694 36.3535V62.5984C48.7694 62.6858 48.6987 62.7565 48.6112 62.7565ZM8.31818 62.4402H48.4531V36.5116H8.31632V62.4384H8.31818V62.4402Z" fill="white"/>
<path d="M46.5026 49.6445L44.2791 51.0047C43.5013 51.481 43.1311 52.3667 43.3581 53.204L44.0502 55.755C44.1135 55.9895 44.2847 56.1848 44.5191 56.289L46.0374 56.9663C46.4282 57.1412 46.8934 57.0947 47.2413 56.8472L48.5884 55.9113L46.5026 49.6445Z" fill="white"/>
<path d="M54.3537 57.0689L54.7035 51.4571C54.7035 51.4571 51.8586 50.884 48.861 49.7509C47.2124 49.1294 44.1349 48.975 41.7271 49.1052C40.8489 49.1517 40.1195 49.1499 39.7604 49.4736C39.2897 49.8979 39.5446 50.8524 40.4935 50.858C42.9571 50.871 46.2319 50.8505 46.2319 50.8505C46.2319 50.8505 46.2747 50.8766 46.297 50.8896C45.8448 51.9204 45.5583 53.2899 47.1138 54.9217C49.8341 57.7741 54.3537 57.0689 54.3537 57.0689Z" fill="white"/>
<path d="M43.4291 53.8118C43.4291 53.8118 43.4142 53.8118 43.4068 53.8118C43.3417 53.8006 43.2989 53.7355 43.3119 53.6704C43.3249 53.5922 43.5315 52.8777 46.4825 51.7613C46.5458 51.739 46.6128 51.7687 46.6351 51.8301C46.6574 51.8915 46.6276 51.9604 46.5662 51.9827C43.7641 53.0433 43.5464 53.7113 43.5445 53.7169C43.5352 53.7746 43.485 53.8118 43.4291 53.8118Z" fill="black"/>
<path d="M43.8925 55.5281C43.8776 55.5281 43.8627 55.5281 43.8497 55.5206C43.7902 55.4964 43.7604 55.4313 43.7809 55.3718C43.8069 55.301 44.1102 54.6498 46.7803 53.5595C46.8417 53.5353 46.9105 53.5632 46.9347 53.6246C46.9589 53.686 46.931 53.7548 46.8696 53.779C44.3056 54.8266 44.006 55.4499 44.0023 55.4573C43.9818 55.502 43.9371 55.5299 43.8925 55.5299V55.5281Z" fill="black"/>
<path d="M48.5292 56.1805C48.5068 56.1805 48.4845 56.1749 48.4641 56.16L47.329 55.4102C47.2751 55.3748 47.2602 55.3004 47.2955 55.2446C47.3309 55.1887 47.4053 55.1757 47.4611 55.2111L48.5962 55.9609C48.6501 55.9963 48.665 56.0707 48.6297 56.1265C48.6073 56.1619 48.5682 56.1805 48.531 56.1805H48.5292Z" fill="black"/>
<path d="M45.8412 56.1335C45.7965 56.1335 45.7537 56.1093 45.7332 56.0665C45.7053 56.007 45.7295 55.9363 45.7891 55.9084L47.4953 55.0897C47.553 55.0618 47.6256 55.086 47.6535 55.1455C47.6814 55.205 47.6572 55.2758 47.5976 55.3037L45.8914 56.1224C45.8747 56.1298 45.8579 56.1335 45.8393 56.1335H45.8412Z" fill="black"/>
<path d="M46.9811 56.529C46.9588 56.529 46.9365 56.5235 46.916 56.5104C46.8602 56.4751 46.8453 56.4006 46.8806 56.3467C46.929 56.2723 46.9309 56.1364 46.8844 56.0025C46.836 55.861 46.7467 55.7531 46.6518 55.7196C46.5904 55.6973 46.5569 55.6303 46.5792 55.5671C46.6015 55.5057 46.6685 55.474 46.7318 55.4945C46.8955 55.554 47.0369 55.7141 47.1095 55.9243C47.1802 56.1308 47.169 56.3355 47.0797 56.4732C47.0574 56.5086 47.0183 56.5272 46.9793 56.5272H46.9811V56.529Z" fill="black"/>
<path d="M44.2831 51.0034C44.2422 51.0034 44.2012 50.9811 44.1789 50.942C44.1473 50.8843 44.1677 50.8118 44.2254 50.7801C44.3185 50.728 46.5141 49.513 47.543 50.0303C47.6026 50.06 47.6249 50.1307 47.5951 50.1903C47.5654 50.2498 47.4946 50.2722 47.4351 50.2424C46.5159 49.7828 44.3613 50.9755 44.3389 50.9867C44.3203 50.9978 44.3017 51.0015 44.2813 51.0015H44.2831V51.0034Z" fill="black"/>
<path d="M54.2395 59.0645H54.2302C54.1428 59.0589 54.0758 58.9845 54.0814 58.897L54.6228 50.2225C54.6284 50.15 54.6805 50.0885 54.7531 50.0755C63.4611 48.5051 77.5055 50.9314 77.6469 50.9556C77.7325 50.9705 77.7902 51.0524 77.7753 51.1398C77.7604 51.2254 77.6748 51.2831 77.5911 51.2682C77.4515 51.244 63.5913 48.8493 54.9299 50.3658L54.3958 58.9156C54.3903 58.9994 54.3214 59.0645 54.2377 59.0645H54.2395Z" fill="black"/>
<path d="M63.5712 25.2727C63.5712 25.2727 72.8094 25.455 76.0936 27.7995C78.9888 29.8667 88.3796 47.5934 87.9889 54.4965C87.5982 61.3997 80.7806 65.6606 71.9945 64.5256C63.2083 63.3906 53.8993 59.1724 53.8993 59.1724L44.0731 60.9345C44.0731 60.9345 40.6308 66.4719 31.9433 65.882C23.2558 65.2922 20.2861 53.2778 20.2861 53.2778L34.178 47.8558C34.178 47.8558 39.721 33.7295 41.6319 30.7784C43.5428 27.8274 56.5415 24.7461 56.5415 24.7461L63.5693 25.2727H63.5712Z" fill="#42E8B4"/>
<path d="M45.7007 49.5044C45.617 49.5044 45.5463 49.4374 45.5426 49.3537L45.0011 37.4937C44.9974 37.4063 45.0644 37.3318 45.1518 37.3281H45.1593C45.243 37.3281 45.3137 37.3951 45.3174 37.4788L45.8589 49.3388C45.8626 49.4263 45.7956 49.5007 45.7082 49.5044H45.7007Z" fill="black"/>
<path d="M63.5707 25.2758L59.9647 22.4141L56.8369 24.7288L60.1768 29.6409L63.5707 25.2758Z" fill="#42E8B4"/>
<path d="M54.789 23.0508L56.9083 24.7459L54.1526 29.872L51.8193 26.0893L54.789 23.0508Z" fill="#42E8B4"/>
<path d="M48.6113 36.3516H8.1582V62.5965H48.6113V36.3516Z" fill="white" stroke="black" stroke-width="0.5" stroke-miterlimit="10"/>
<path d="M21.0152 58.7991L20.4458 63.3876C20.3509 64.1504 20.924 64.8259 21.7185 64.8891C22.5354 64.9524 23.2555 64.3421 23.2964 63.5532L23.5271 58.9442C23.5606 58.267 23.0117 57.7088 22.3065 57.7032C21.6534 57.6976 21.0933 58.1739 21.0152 58.7991Z" fill="white" stroke="black" stroke-width="0.5" stroke-miterlimit="10"/>
<path d="M26.1997 58.7632L25.8443 64.2726C25.8052 64.8699 25.3308 65.3723 24.7074 65.4765L24.579 65.497C23.7268 65.6384 22.9789 64.9927 23.0496 64.1777L23.5333 58.6478C23.591 57.9835 24.1809 57.4625 24.8823 57.4532C25.6452 57.4439 26.2462 58.0412 26.1997 58.765V58.7632Z" fill="white" stroke="black" stroke-width="0.5" stroke-miterlimit="10"/>
<path d="M27.2137 58.8723C26.6369 58.8983 26.1643 59.343 26.1048 59.918L25.7289 63.5761C25.6675 64.1678 26.0638 64.7111 26.6462 64.8357L26.9365 64.8971C27.651 65.0479 28.3264 64.5138 28.3432 63.7826L28.4269 60.0631C28.4418 59.3895 27.8836 58.8425 27.2119 58.8723H27.2137Z" fill="white" stroke="black" stroke-width="0.5" stroke-miterlimit="10"/>
<path d="M29.2435 59.7862C28.7951 59.8792 28.4546 60.2384 28.4192 60.6551L28.1699 63.6788C28.129 64.1718 28.5271 64.5812 29.063 64.5942L29.4017 64.6035C29.9896 64.6203 30.4939 64.1588 30.4771 63.6192L30.3878 60.5863C30.3711 60.0411 29.8315 59.6634 29.2416 59.7843L29.2435 59.7862Z" fill="white" stroke="black" stroke-width="0.5" stroke-miterlimit="10"/>
<path d="M46.5026 49.6445L44.2791 51.0047C43.5013 51.481 43.1311 52.3667 43.3581 53.204L44.0502 55.755C44.1135 55.9895 44.2847 56.1848 44.5191 56.289L46.0374 56.9663C46.4282 57.1412 46.8934 57.0947 47.2413 56.8472L48.5884 55.9113L46.5026 49.6445Z" fill="white" stroke="black" stroke-width="0.5" stroke-miterlimit="10"/>
<path d="M47.459 55.212C50.2742 57.7425 54.2542 57.2364 54.2542 57.2364L54.4142 55.0743L54.5519 53.1038L54.6431 51.4441C54.6431 51.4441 51.8614 50.884 48.862 49.7509C47.2134 49.1294 44.1358 48.975 41.7281 49.1052C40.8499 49.1517 40.1205 49.1499 39.7614 49.4736C39.2906 49.8979 39.5455 50.8524 40.4945 50.858C42.958 50.871 44.5154 50.858 44.5154 50.858" fill="white"/>
<path d="M47.459 55.212C50.2742 57.7425 54.2542 57.2364 54.2542 57.2364L54.4142 55.0743L54.5519 53.1038L54.6431 51.4441C54.6431 51.4441 51.8614 50.884 48.862 49.7509C47.2134 49.1294 44.1358 48.975 41.7281 49.1052C40.8499 49.1517 40.1205 49.1499 39.7614 49.4736C39.2906 49.8979 39.5455 50.8524 40.4945 50.858C42.958 50.871 44.5154 50.858 44.5154 50.858" stroke="black" stroke-width="0.5" stroke-linecap="round" stroke-linejoin="round"/>
<path d="M10.2461 79.8516H85.5962" stroke="black" stroke-width="0.5" stroke-linecap="round" stroke-linejoin="round"/>
<path d="M51.8193 26.0871L54.6662 29.4252L56.9343 24.6953L60.304 29.3638L63.5714 25.274" stroke="black" stroke-width="0.5" stroke-linecap="round" stroke-linejoin="round"/>
<path d="M56.9336 24.6953L58.4649 49.6433" stroke="black" stroke-width="0.5" stroke-linecap="round" stroke-linejoin="round"/>
<path d="M54.0869 59.1748C54.2674 57.5895 54.753 50.0724 54.753 50.0724C54.753 50.0724 65.5878 48.7401 77.7752 51.1367" stroke="black" stroke-width="0.5" stroke-linecap="round" stroke-linejoin="round"/>
<path d="M71.6221 39.8438L74.1154 50.4682" stroke="black" stroke-width="0.5" stroke-linecap="round" stroke-linejoin="round"/>
<path d="M44.5156 50.858C44.5156 50.858 46.1028 49.8291 47.5951 50.1901" stroke="black" stroke-width="0.5" stroke-linecap="round" stroke-linejoin="round"/>
<path d="M43.6152 53.8116C43.6152 53.8116 44.4935 52.2635 46.823 51.8281" stroke="black" stroke-width="0.5" stroke-linecap="round" stroke-linejoin="round"/>
<path d="M44.0039 55.4539C44.0039 55.4539 45.0719 54.2109 46.9363 53.6211" stroke="black" stroke-width="0.5" stroke-linecap="round" stroke-linejoin="round"/>
<path d="M45.8408 56.1359L47.4596 55.2148" stroke="black" stroke-width="0.5" stroke-linecap="round" stroke-linejoin="round"/>
<path d="M46.8662 55.7188C46.8662 55.7188 47.2253 56.1132 46.9183 56.5095" stroke="black" stroke-width="0.5" stroke-linecap="round" stroke-linejoin="round"/>
<path d="M74.0691 29.1758C74.0691 29.1758 72.9006 30.0354 72.374 33.3102" stroke="black" stroke-width="0.5" stroke-linecap="round" stroke-linejoin="round"/>
<path d="M60.8525 17.4823L62.0825 16.8516" stroke="black" stroke-width="0.5" stroke-linecap="round" stroke-linejoin="round"/>
<path d="M61.5186 17.2031L61.8479 17.7799" stroke="black" stroke-width="0.5" stroke-linecap="round" stroke-linejoin="round"/>
<path d="M50.3936 18.0938L51.6886 18.5943" stroke="black" stroke-width="0.5" stroke-linecap="round" stroke-linejoin="round"/>
<path d="M50.8682 19.0184L51.2124 18.4844" stroke="black" stroke-width="0.5" stroke-linecap="round" stroke-linejoin="round"/>
<path d="M16.3734 47.2995C17.4005 47.2995 18.2341 46.4659 18.2341 45.4388C18.2341 44.4117 17.4005 43.5781 16.3734 43.5781C15.3463 43.5781 14.5127 44.4117 14.5127 45.4388C14.5127 46.4659 15.3463 47.2995 16.3734 47.2995Z" fill="#FF3D00"/>
<path d="M19.3574 44.6367H35.9901" stroke="black" stroke-width="0.5" stroke-linecap="round" stroke-linejoin="round"/>
<path d="M19.3574 45.9375H21.8247" stroke="black" stroke-width="0.5" stroke-linecap="round" stroke-linejoin="round"/>
<path d="M15.627 45.6345L16.1535 45.9936L17.1192 44.8828" stroke="white" stroke-width="0.5" stroke-linecap="round" stroke-linejoin="round"/>
<path d="M16.3734 53.655C17.4005 53.655 18.2341 52.8214 18.2341 51.7943C18.2341 50.7672 17.4005 49.9336 16.3734 49.9336C15.3463 49.9336 14.5127 50.7672 14.5127 51.7943C14.5127 52.8214 15.3463 53.655 16.3734 53.655Z" fill="#FF3D00"/>
<path d="M19.3574 50.9883H35.9901" stroke="black" stroke-width="0.5" stroke-linecap="round" stroke-linejoin="round"/>
<path d="M19.3574 52.2891H21.8247" stroke="black" stroke-width="0.5" stroke-linecap="round" stroke-linejoin="round"/>
<path d="M15.627 51.99L16.1535 52.351L17.1192 51.2383" stroke="white" stroke-width="0.5" stroke-linecap="round" stroke-linejoin="round"/>
</g>
<defs>
<clipPath id="clip0_12274_45097">
<rect width="80" height="80" fill="white" transform="translate(8 8)"/>
</clipPath>
</defs>
</svg>
