<svg width="32" height="32" viewBox="0 0 32 32" fill="none" xmlns="http://www.w3.org/2000/svg">
<path fill-rule="evenodd" clip-rule="evenodd" d="M15.1715 5.67161V19.7461L10.5141 14.6521C10.2083 14.3176 9.68147 14.2875 9.33744 14.5848C8.99342 14.8821 8.96243 15.3942 9.26823 15.7287L14.7591 21.7344C15.4222 22.4596 16.5877 22.4596 17.2508 21.7344L22.7417 15.7287C23.0475 15.3942 23.0165 14.8821 22.6724 14.5848C22.3284 14.2875 21.8016 14.3176 21.4958 14.6521L16.8384 19.7461V5.67161C16.8384 5.22411 16.4652 4.86133 16.0049 4.86133C15.5447 4.86133 15.1715 5.22411 15.1715 5.67161ZM2.66998 19.4465V21.8773C2.66998 24.1149 4.5357 25.9288 6.83717 25.9288H25.1728C27.4743 25.9288 29.34 24.1149 29.34 21.8773V19.4465C29.34 18.999 28.9668 18.6362 28.5065 18.6362C28.0463 18.6362 27.6731 18.999 27.6731 19.4465V21.8773C27.6731 23.2199 26.5537 24.3082 25.1728 24.3082H6.83717C5.45629 24.3082 4.33686 23.2199 4.33686 21.8773V19.4465C4.33686 18.999 3.96372 18.6362 3.50342 18.6362C3.04313 18.6362 2.66998 18.999 2.66998 19.4465Z" fill="#002EFF"/>
</svg>
