<svg width="168" height="168" viewBox="0 0 168 168" fill="none" xmlns="http://www.w3.org/2000/svg">
<path d="M83.7496 156C122.375 156 153.685 124.689 153.685 86.0644C153.685 47.4394 122.375 16.1288 83.7496 16.1288C45.1246 16.1288 13.814 47.4394 13.814 86.0644C13.814 124.689 45.1246 156 83.7496 156Z" fill="#F3F5FF"/>
<path d="M107.782 137.025L108.395 88.4662L66.2439 83.9963L59.082 137.025" fill="white"/>
<path d="M107.782 137.025L108.395 88.4662L66.2439 83.9963L59.082 137.025" stroke="black" stroke-width="0.5" stroke-linecap="round" stroke-linejoin="round"/>
<path d="M34.1931 137.453H133.31" stroke="black" stroke-width="0.5" stroke-linecap="round" stroke-linejoin="round"/>
<path d="M68.1196 137.025L74.4217 87.6935" stroke="black" stroke-width="0.5" stroke-linecap="round" stroke-linejoin="round"/>
<path d="M84.1777 137.025L88.7637 108.769L95.7877 108.929" stroke="black" stroke-width="0.5" stroke-linecap="round" stroke-linejoin="round"/>
<path d="M136.274 41.025L131.474 47.8604L121.667 45.9991L120.829 34.1932L136.604 35.7497L136.274 41.025Z" fill="white" stroke="black" stroke-width="0.5" stroke-linecap="round" stroke-linejoin="round"/>
<path d="M74.9551 21.5927C74.9551 16.4916 79.1818 12 84.3991 12C89.6163 12 93.8431 14.2857 93.8431 21.5927C93.8431 26.6939 91.0422 30.1878 85.8285 30.1878C80.6149 30.1878 74.9551 26.6939 74.9551 21.5927Z" fill="black"/>
<path d="M88.5424 35.5901C87.8966 35.942 102.162 32.7565 107.122 34.2404C114.763 36.5261 120.347 45.1538 120.347 45.1538L134.311 44.7438C134.311 44.7438 140.432 73.6527 135.991 85.9411C133.081 93.9919 129.09 96.1978 124.004 96.4118C115.67 96.7638 109.535 84.7837 109.535 84.7837L109.009 90.7338L86.3402 89.9066C86.3402 89.9066 77.6762 99.093 69.6218 99.093C57.874 99.093 53.8177 78.5978 52.6531 67.7461C51.7098 58.9842 49.9066 43.3506 55.2944 38.7538C62.1696 32.8908 78.9606 35.3797 78.9606 35.3797C78.9606 35.3797 89.1919 35.2382 88.5461 35.5901H88.5424Z" fill="#FF3D00"/>
<path d="M88.3575 35.3106L87.8858 31.1347C92.2069 30.6231 94.0572 26.4798 94.0572 21.814C94.0572 14.6739 90.0192 12.439 85.0341 12.439C80.0491 12.439 76.011 16.829 76.011 21.814C76.011 24.4625 77.6981 26.9478 80.0273 28.6893L80.7674 35.2562C79.7262 35.3215 78.957 35.3759 78.957 35.3759C78.957 35.3759 78.2205 35.2743 76.987 35.18C78.1588 37.404 81.0214 40.5315 87.777 39.9474C92.2432 39.5628 92.5516 37.0231 92.138 35.1474C90.9951 35.307 89.5221 35.336 88.3502 35.307H88.3575V35.3106Z" fill="white" stroke="black" stroke-width="0.5" stroke-linecap="round" stroke-linejoin="round"/>
<path d="M91.4776 14.3837C89.8231 12.8744 87.5229 12.2903 84.976 12.2903C79.9474 12.2903 75.8694 16.7202 75.8694 21.7488C75.8694 24.3937 77.542 26.8681 79.8531 28.6241C79.7152 26.1497 79.3814 21.4005 79.3814 21.4005C79.3814 21.4005 84.1887 18.2549 82.5088 15.7443C80.829 13.2336 84.9651 12.9687 86.6921 13.3932C87.9728 13.7089 90.4617 14.5941 91.4776 14.3801V14.3837Z" fill="black"/>
<path d="M81.9792 21.6C81.0613 20.4935 79.6028 20.3229 78.7176 21.2227C77.8323 22.1225 77.8613 23.7479 78.7792 24.8545C79.6971 25.961 81.1557 26.1316 82.0409 25.2318C82.9262 24.332 82.8972 22.7066 81.9792 21.6Z" fill="white"/>
<path d="M132.664 18.712L122.861 18.8426C122.226 18.8499 121.718 19.3723 121.725 20.0072L122.015 41.6889C122.023 42.3238 122.545 42.8317 123.18 42.8245L132.983 42.6938C133.618 42.6866 134.126 42.1641 134.119 41.5292L133.829 19.8476C133.821 19.2127 133.299 18.7047 132.664 18.712Z" fill="white"/>
<path d="M123.877 43.1148C123.307 43.1148 122.77 42.8971 122.364 42.498C121.947 42.0953 121.714 41.5511 121.707 40.9706L121.439 20.7402C121.431 20.1597 121.649 19.6118 122.055 19.1982C122.458 18.781 123.002 18.5488 123.583 18.5415L131.935 18.4291H131.964C133.147 18.4291 134.119 19.3833 134.133 20.5697L134.402 40.8001C134.416 41.9973 133.459 42.9842 132.261 42.9987L123.909 43.1112H123.877V43.1148ZM131.96 19.0277H131.938L123.586 19.1402C123.166 19.1474 122.77 19.3143 122.476 19.6191C122.182 19.9202 122.023 20.3193 122.03 20.7402L122.299 40.9706C122.306 41.3914 122.473 41.7869 122.777 42.0808C123.079 42.3747 123.47 42.5307 123.899 42.527L132.25 42.4146C133.121 42.4037 133.818 41.6853 133.807 40.8146L133.538 20.5842C133.528 19.7207 132.82 19.0277 131.96 19.0277Z" fill="black"/>
<path d="M138.763 34.0626C138.723 34.0626 138.683 34.0553 138.643 34.0372L132.758 31.4503C132.308 31.229 131.797 31.2145 131.347 31.4068C131.198 31.4685 131.024 31.3995 130.959 31.2471C130.897 31.0948 130.966 30.9242 131.118 30.8589C131.724 30.605 132.414 30.6231 133.009 30.9134L138.883 33.4966C139.031 33.5619 139.1 33.736 139.035 33.8848C138.988 33.9973 138.879 34.0626 138.763 34.0626Z" fill="black"/>
<path d="M138.36 37.7887C138.324 37.7887 138.287 37.7814 138.255 37.7705L132.664 35.6227C132.511 35.5646 132.435 35.3941 132.493 35.2417C132.551 35.0894 132.722 35.0132 132.874 35.0712L138.465 37.2191C138.618 37.2771 138.694 37.4476 138.636 37.6C138.592 37.7161 138.48 37.7887 138.36 37.7887Z" fill="black"/>
<path d="M123.18 43.1909L123.234 28.6422C123.321 27.5827 122.639 26.6104 121.616 26.3274C120.357 25.9791 119.069 26.7918 118.844 28.0834C118.844 28.0834 117.716 32.7238 117.756 34.2984C117.89 39.5483 121.438 43.8113 121.438 43.8113" fill="white"/>
<path d="M123.18 43.1909L123.234 28.6422C123.321 27.5827 122.639 26.6104 121.616 26.3274C120.357 25.9791 119.069 26.7918 118.844 28.0834C118.844 28.0834 117.716 32.7238 117.756 34.2984C117.89 39.5483 121.438 43.8113 121.438 43.8113" stroke="black" stroke-width="0.5" stroke-linecap="round" stroke-linejoin="round"/>
<path d="M95.3379 63.9909C95.3379 63.9909 101.328 62.9061 104.405 58.0045L107.314 58.4798C108.134 58.6249 108.969 58.2984 109.473 57.6344L111.432 55.0585C111.733 54.663 111.842 54.1551 111.737 53.6689L110.562 48.4045C110.177 46.6775 108.726 45.3895 106.966 45.2081L106.36 45.1465C108.276 44.1342 110.844 42.7773 113.069 41.6054C114.679 40.7564 114.23 38.79 113.04 38.4344C112.129 38.1623 111.091 38.8045 109.557 39.4938C105.341 41.3841 99.7751 44.0036 98.0191 46.975C94.0717 53.6471 89.7905 57.5256 89.7905 57.5256" fill="white"/>
<path d="M95.3379 63.9909C95.3379 63.9909 101.328 62.9061 104.405 58.0045L107.314 58.4798C108.134 58.6249 108.969 58.2984 109.473 57.6344L111.432 55.0585C111.733 54.663 111.842 54.1551 111.737 53.6689L110.562 48.4045C110.177 46.6775 108.726 45.3895 106.966 45.2081L106.36 45.1465C108.276 44.1342 110.844 42.7773 113.069 41.6054C114.679 40.7564 114.23 38.79 113.04 38.4344C112.129 38.1623 111.091 38.8045 109.557 39.4938C105.341 41.3841 99.7751 44.0036 98.0191 46.975C94.0717 53.6471 89.7905 57.5256 89.7905 57.5256" stroke="black" stroke-width="0.5" stroke-linecap="round" stroke-linejoin="round"/>
<path d="M106.36 45.1465C106.36 45.1465 101.821 44.693 100.584 46.6485L106.36 45.1465Z" fill="white"/>
<path d="M106.36 45.1465C106.36 45.1465 101.821 44.693 100.584 46.6485" stroke="black" stroke-width="0.5" stroke-linecap="round" stroke-linejoin="round"/>
<path d="M110.725 49.4785C110.725 49.4785 108.751 48.0853 103.969 48.996L110.725 49.4785Z" fill="white"/>
<path d="M110.725 49.4785C110.725 49.4785 108.751 48.0853 103.969 48.996" stroke="black" stroke-width="0.5" stroke-linecap="round" stroke-linejoin="round"/>
<path d="M111.305 52.6676C111.305 52.6676 108.871 51.5501 104.604 52.1996" stroke="black" stroke-width="0.5" stroke-linecap="round" stroke-linejoin="round"/>
<path d="M104.405 58.0046C104.405 58.0046 105.333 56.8943 105.446 55.7152H108.994" stroke="black" stroke-width="0.5" stroke-linecap="round" stroke-linejoin="round"/>
<path d="M107.249 55.8059C107.249 55.8059 106.697 56.4118 107.343 57.5692" stroke="black" stroke-width="0.5" stroke-linecap="round" stroke-linejoin="round"/>
<path d="M57.6599 37.5782C57.6599 37.5782 64.3465 43.9057 66.5379 52.4535" stroke="black" stroke-width="0.5" stroke-linecap="round" stroke-linejoin="round"/>
<path d="M63.8059 75.5356C63.8059 75.5356 72.0853 62.7392 88.2159 55.9836L97.2209 66.2403C97.2209 66.2403 97.6889 77.7705 85.883 90.7954" stroke="black" stroke-width="0.5" stroke-linecap="round" stroke-linejoin="round"/>
<path d="M108.396 58.3964C108.396 58.3964 109.76 72.0961 109.455 84.9252" stroke="black" stroke-width="0.5" stroke-linecap="round" stroke-linejoin="round"/>
<path d="M137.294 79.7914C137.294 79.7914 139.097 64.5098 134.311 44.7438L121.119 45.1538C121.119 45.1538 117.284 63.4903 117.89 77.5492" stroke="black" stroke-width="0.5" stroke-linecap="round" stroke-linejoin="round"/>
<path d="M114.113 76.185C114.113 76.185 115.506 73.6091 117.897 72.1034" stroke="black" stroke-width="0.5" stroke-linecap="round" stroke-linejoin="round"/>
<path d="M133.872 27.6553C134.924 27.6553 135.777 26.7301 135.777 25.5909C135.777 24.4517 134.924 23.5265 133.872 23.5265C132.82 23.5265 131.967 24.4517 131.967 25.5909C131.967 26.7301 132.82 27.6553 133.872 27.6553Z" fill="white"/>
<path d="M137.747 39.2761L130.607 35.0204C129.794 34.5233 129.446 33.5183 129.78 32.6258C130.193 31.5265 131.46 31.0258 132.512 31.541L138.759 34.6467" fill="white"/>
<path d="M137.747 39.2761L130.607 35.0204C129.794 34.5233 129.446 33.5183 129.78 32.6258C130.193 31.5265 131.46 31.0258 132.512 31.541L138.759 34.6467" stroke="black" stroke-width="0.5" stroke-linecap="round" stroke-linejoin="round"/>
<path d="M135.548 42.1134L131.594 40.1179C130.781 39.6208 130.433 38.6159 130.767 37.7233C131.18 36.624 132.446 36.1233 133.498 36.6385L137.889 38.9388" fill="white"/>
<path d="M135.548 42.1134L131.594 40.1179C130.781 39.6208 130.433 38.6159 130.767 37.7233C131.18 36.624 132.446 36.1233 133.498 36.6385L137.889 38.9388" stroke="black" stroke-width="0.5" stroke-linecap="round" stroke-linejoin="round"/>
<path d="M138.763 34.8681L130.93 30.9279C130.044 30.3402 129.703 29.2046 130.117 28.2214C130.625 27.0168 132.062 26.5125 133.212 27.1329L138.97 30.2096" fill="white"/>
<path d="M138.763 34.8681L130.93 30.9279C130.044 30.3402 129.703 29.2046 130.117 28.2214C130.625 27.0168 132.062 26.5125 133.212 27.1329L138.97 30.2096" stroke="black" stroke-width="0.5" stroke-linecap="round" stroke-linejoin="round"/>
<path d="M131.967 26.8753C131.271 25.9538 131.046 25.5438 131.481 24.5751C132.014 23.3851 133.458 23.0585 134.594 23.8676C134.594 23.8676 138.077 25.8486 138.763 27.3796C139.365 28.722 139.336 37.9882 137.003 40.4191C136.18 41.2789 134.137 44.069 134.137 44.069" stroke="black" stroke-width="0.5" stroke-linecap="round" stroke-linejoin="round"/>
<path d="M80.6549 23.5519C80.6549 23.5519 80.4589 22.5941 78.7864 22.3728" stroke="black" stroke-width="0.5" stroke-linecap="round" stroke-linejoin="round"/>
<path d="M80.1433 23.1891L79.4358 23.8168" stroke="black" stroke-width="0.5" stroke-linecap="round" stroke-linejoin="round"/>
</svg>
