<svg width="168" height="168" viewBox="0 0 168 168" fill="none" xmlns="http://www.w3.org/2000/svg">
<g clip-path="url(#clip0_11430_530)">
<path d="M83.9984 145.89C118.22 145.89 145.961 118.149 145.961 83.9277C145.961 49.7061 118.22 21.965 83.9984 21.965C49.7768 21.965 22.0356 49.7061 22.0356 83.9277C22.0356 118.149 49.7768 145.89 83.9984 145.89Z" fill="#F3F5FF"/>
<path d="M12.2411 130.191H155.759" stroke="black" stroke-width="0.5" stroke-linecap="round" stroke-linejoin="round"/>
<path d="M98.245 61.9373C100.019 61.9373 101.46 60.4972 101.46 58.7228C101.46 56.9484 100.019 55.5083 98.245 55.5083C96.4706 55.5083 95.0305 56.9484 95.0305 58.7228C95.0305 60.4972 96.4706 61.9373 98.245 61.9373Z" fill="#002EFF"/>
<path d="M103.404 57.3309H132.136" stroke="black" stroke-width="0.5" stroke-linecap="round" stroke-linejoin="round"/>
<path d="M103.404 59.5779H107.667" stroke="black" stroke-width="0.5" stroke-linecap="round" stroke-linejoin="round"/>
<path d="M96.9561 59.0603L97.869 59.6807L99.5341 57.7616" stroke="white" stroke-width="0.5" stroke-linecap="round" stroke-linejoin="round"/>
<path d="M98.245 72.9115C100.019 72.9115 101.46 71.4714 101.46 69.697C101.46 67.9226 100.019 66.4825 98.245 66.4825C96.4706 66.4825 95.0305 67.9226 95.0305 69.697C95.0305 71.4714 96.4706 72.9115 98.245 72.9115Z" fill="#002EFF"/>
<path d="M103.404 68.3052H132.136" stroke="black" stroke-width="0.5" stroke-linecap="round" stroke-linejoin="round"/>
<path d="M103.404 70.5521H107.667" stroke="black" stroke-width="0.5" stroke-linecap="round" stroke-linejoin="round"/>
<path d="M96.9561 70.0346L97.869 70.655L99.5341 68.736" stroke="white" stroke-width="0.5" stroke-linecap="round" stroke-linejoin="round"/>
<path d="M98.245 83.8859C100.019 83.8859 101.46 82.4458 101.46 80.6714C101.46 78.897 100.019 77.4569 98.245 77.4569C96.4706 77.4569 95.0305 78.897 95.0305 80.6714C95.0305 82.4458 96.4706 83.8859 98.245 83.8859Z" fill="#002EFF"/>
<path d="M103.404 79.2795H132.136" stroke="black" stroke-width="0.5" stroke-linecap="round" stroke-linejoin="round"/>
<path d="M103.404 81.5297H107.667" stroke="black" stroke-width="0.5" stroke-linecap="round" stroke-linejoin="round"/>
<path d="M96.9561 81.0089L97.869 81.6293L99.5341 79.7102" stroke="white" stroke-width="0.5" stroke-linecap="round" stroke-linejoin="round"/>
<path d="M62.0723 83.5516L74.1845 81.3786C77.7301 80.7422 81.295 82.4105 83.0758 85.5446L106.918 127.475H68.7231L62.0755 83.5548L62.0723 83.5516Z" fill="#42E8B4"/>
<path d="M68.2569 127.474H106.452L90.1541 98.8108H63.9174L68.2569 127.474Z" fill="white"/>
<path d="M106.452 127.937H68.257C68.0287 127.937 67.8326 127.77 67.8005 127.542L63.4609 98.8783C63.4416 98.7433 63.4802 98.6083 63.567 98.5055C63.6538 98.4026 63.7824 98.3447 63.9174 98.3447H90.1541C90.3213 98.3447 90.4756 98.4347 90.556 98.5794L106.853 127.243C106.934 127.388 106.934 127.561 106.853 127.706C106.77 127.847 106.619 127.937 106.452 127.937Z" fill="white" stroke="black" stroke-width="0.5" stroke-linecap="round" stroke-linejoin="round"/>
<path d="M34.9645 96.342L47.3306 79.8291C50.3491 75.7982 56.0387 75.0685 59.9476 78.2155L65.724 82.8669L68.241 80.1506H68.3535C73.1334 80.1506 77.2512 83.5773 78.1866 88.3411L80.3339 129.998H30.1813L34.9645 96.342Z" fill="#42E8B4"/>
<path d="M83.9887 112.443L76.7207 108.236H87.2386C87.7079 108.236 88.1322 108.458 88.399 108.84C88.669 109.226 88.7301 109.698 88.5694 110.139C88.0679 111.518 86.7467 112.443 85.2809 112.443H83.9855H83.9887Z" fill="white"/>
<path d="M87.2418 108.477C87.6308 108.477 87.9844 108.66 88.2062 108.978C88.428 109.297 88.4826 109.689 88.3476 110.055C87.8815 111.338 86.6504 112.199 85.2842 112.199H84.0563L77.6208 108.474H87.2418M87.2418 107.991H75.8271L83.9277 112.681H85.2874C86.8593 112.681 88.2673 111.698 88.8041 110.219C89.1963 109.136 88.3958 107.991 87.2451 107.991H87.2418Z" fill="black"/>
<path d="M31.4734 130.31C27.3717 130.31 23.659 127.963 21.7849 124.186C19.9109 120.409 20.3223 116.137 22.8875 112.759L35.1605 96.5864C47.9767 96.625 53.0106 102.681 53.7756 103.716L46.0673 112.164L74.6956 108.271C75.0717 108.22 75.4124 108.194 75.7403 108.194C77.3443 108.194 78.4501 108.798 80.4592 109.894C80.9607 110.168 81.5168 110.473 82.1468 110.801L93.1822 117.146C93.2401 117.179 93.2786 117.233 93.2915 117.297C93.3043 117.362 93.2883 117.426 93.2465 117.477C92.7 118.169 91.8835 118.564 91.0092 118.564C90.932 118.564 90.8549 118.564 90.7777 118.554C87.2675 118.265 81.3046 115.883 79.9674 115.147L78.2766 114.215L88.8137 124.08C88.9808 124.234 89.0612 124.456 89.0387 124.681C89.0162 124.906 88.8908 125.105 88.698 125.224C87.9779 125.668 87.155 125.899 86.3096 125.899C85.4063 125.899 84.532 125.636 83.783 125.134L83.6705 125.06L82.2722 125.71C81.6164 126.015 80.9189 126.169 80.1956 126.169C79.1798 126.169 78.1994 125.861 77.3669 125.279L73.2587 122.402C72.9533 122.187 72.5933 122.074 72.2204 122.074C72.0951 122.074 71.9729 122.087 71.8508 122.113L33.8393 130.065C33.0517 130.229 32.2578 130.313 31.4799 130.313H31.4734V130.31Z" fill="white"/>
<path d="M35.2794 96.8243C42.4059 96.8661 47.0123 98.7916 49.6321 100.412C51.8084 101.759 53.0074 103.115 53.4606 103.697L46.3373 111.505L45.4404 112.485L46.7584 112.305L74.7278 108.503C75.091 108.454 75.4221 108.429 75.7371 108.429C77.2801 108.429 78.3666 109.023 80.3403 110.1C80.8353 110.37 81.3946 110.676 82.0215 111.007L93.0376 117.339C92.5361 117.96 91.7968 118.316 91.0028 118.316C90.9321 118.316 90.8613 118.316 90.7906 118.307C87.3125 118.021 81.4011 115.658 80.0767 114.928L76.6918 113.061L79.5141 115.703L88.6401 124.247C88.7494 124.35 88.8073 124.498 88.7912 124.649C88.7751 124.8 88.6915 124.932 88.563 125.012C87.8815 125.43 87.1004 125.652 86.3 125.652C85.4449 125.652 84.6156 125.401 83.9052 124.925L83.6801 124.774L83.4358 124.887L82.1597 125.478C81.5361 125.768 80.8739 125.916 80.186 125.916C79.2184 125.916 78.2894 125.623 77.4954 125.067L73.3873 122.19C73.0401 121.949 72.6351 121.82 72.2108 121.82C72.0694 121.82 71.9279 121.836 71.7897 121.865L33.7782 129.818C33.0067 129.979 32.2288 130.062 31.467 130.062C27.4585 130.062 23.8293 127.767 21.9939 124.07C20.1616 120.38 20.5634 116.201 23.0739 112.894L35.273 96.8179M35.0351 96.3357L22.6882 112.604C16.9503 120.165 22.6593 130.544 31.4638 130.544C32.2449 130.544 33.0485 130.464 33.8714 130.29L71.8829 122.338C71.989 122.315 72.0983 122.306 72.2044 122.306C72.5226 122.306 72.8376 122.402 73.1044 122.589L77.2126 125.466C78.0965 126.083 79.1348 126.401 80.1795 126.401C80.9189 126.401 81.6614 126.243 82.3558 125.919L83.6319 125.327C84.4355 125.864 85.3645 126.134 86.2935 126.134C87.1647 126.134 88.0358 125.896 88.8073 125.424C89.3505 125.089 89.4244 124.331 88.9616 123.897L79.8356 115.353C81.0828 116.041 87.0714 118.49 90.7424 118.789C90.826 118.795 90.9095 118.799 90.9963 118.799C91.9382 118.799 92.8318 118.368 93.4233 117.622C93.6001 117.4 93.5358 117.072 93.2915 116.931L82.2497 110.582C79.1091 108.937 77.8169 107.946 75.7339 107.946C75.3996 107.946 75.046 107.972 74.657 108.024L46.6877 111.826L54.0778 103.726C54.0778 103.726 49.3878 96.3357 35.0351 96.3357Z" fill="black"/>
<path d="M113.999 129.998H59.2404V127.979C59.2404 126.709 60.2722 125.681 61.5387 125.681H113.999V129.998Z" fill="black"/>
<path d="M92.7515 129.998H142.541L153.483 96.9272C154.541 93.732 152.162 90.4403 148.796 90.4403H109.406C107.278 90.4403 105.388 91.8065 104.719 93.8252L92.7515 129.998Z" fill="black"/>
<path d="M61.2494 78.5756L69.816 79.0352L77.4826 81.5554L77.1933 82.7641C75.8818 88.2448 69.6585 89.9517 66.2158 85.7728L61.2494 78.5756Z" fill="white"/>
<path d="M33.9486 114.003L48.3881 111.833" stroke="black" stroke-width="0.5" stroke-linecap="round" stroke-linejoin="round"/>
<path d="M53.4414 104.066L61.6512 95.4741" stroke="black" stroke-width="0.5" stroke-linecap="round" stroke-linejoin="round"/>
<path d="M73.9177 80.2792L77.4826 81.5553" stroke="black" stroke-width="0.5" stroke-linecap="round" stroke-linejoin="round"/>
<path d="M76.38 113.096L79.4113 114.98" stroke="black" stroke-width="0.5" stroke-linecap="round" stroke-linejoin="round"/>
<path d="M76.2064 118.464L83.8023 125.166" stroke="black" stroke-width="0.5" stroke-linecap="round" stroke-linejoin="round"/>
<path d="M85.4449 54.4893C85.4449 54.4893 88.248 55.6401 87.5794 57.7777C87.0747 59.3914 84.6477 59.0667 84.6477 59.0667L82.8026 55.0968L85.4482 54.4893H85.4449Z" fill="black"/>
<path d="M62.8599 61.1111C63.0206 60.1468 63.236 59.5585 63.236 59.5585L68.7135 50.1111L77.8523 48.4781L83.4198 53.9042C83.4198 53.9042 84.9371 56.0547 85.6989 59.3946C87.0747 58.8192 88.8138 58.7324 89.5788 61.3329C90.286 63.7374 87.7658 65.6275 85.8693 65.8943C85.6989 66.8458 85.4321 67.8262 85.0464 68.8292C83.047 74.0206 78.4759 76.0618 73.9146 75.4575L73.9242 80.2792L77.4859 81.5554L76.4958 84.5223C76.0008 86.001 74.8082 87.1422 73.307 87.5697C70.7965 88.2865 68.1027 87.9233 65.8687 86.5732C63.5896 85.1942 61.8345 83.0983 60.8765 80.6135L59.954 78.2155L63.5703 78.6977L64.3032 69.1152C63.956 68.5302 63.6796 67.9452 63.461 67.3666C61.6448 67.8294 57.9578 65.9072 58.6392 63.0559C59.34 60.1307 61.4101 60.4522 62.8631 61.1047V61.1111H62.8599Z" fill="white" stroke="black" stroke-width="0.5" stroke-miterlimit="10"/>
<path d="M63.2681 62.9241C63.2681 62.9241 67.5401 59.761 67.3023 55.2447C67.3023 55.2447 72.7669 53.9589 74.1427 51.8919C74.1427 51.8919 78.1416 55.4343 80.1474 54.1067C81.2661 53.3674 79.9867 51.7119 79.9867 51.7119C79.9867 51.7119 83.1272 55.7236 86.0782 55.2865C88.833 54.8782 88.5983 52.5381 86.1457 51.188C84.4548 50.259 81.1728 49.8379 81.1728 49.8379C81.1728 49.8379 83.9919 47.3081 82.044 46.0608C80.7453 45.2315 77.2929 47.9735 75.1746 48.0538C73.0562 48.1342 70.0378 48.4428 68.617 49.2593C68.617 49.2593 70.2789 46.4273 67.9869 45.8005C66.5211 45.3986 65.4346 49.4039 64.4542 51.339C63.4738 53.271 60.0986 59.8832 62.0273 63.1331L63.2616 62.9273H63.2681V62.9241Z" fill="black"/>
<path d="M86.0654 64.9268L85.76 59.6903L83.4809 59.5618L82.4619 64.136L86.0654 64.9268Z" fill="white"/>
<path d="M62.3488 65.0553L60.4554 62.4291" stroke="black" stroke-width="0.5" stroke-miterlimit="10" stroke-linecap="round"/>
<path d="M61.6673 64.1102L60.6965 64.8078" stroke="black" stroke-width="0.5" stroke-miterlimit="10" stroke-linecap="round"/>
<path d="M86.0942 63.8532L87.3511 60.8701" stroke="black" stroke-width="0.5" stroke-miterlimit="10" stroke-linecap="round"/>
<path d="M86.5475 62.7762L87.6468 63.2423" stroke="black" stroke-width="0.5" stroke-miterlimit="10" stroke-linecap="round"/>
</g>
<defs>
<clipPath id="clip0_11430_530">
<rect width="144" height="144" fill="white" transform="translate(12 12)"/>
</clipPath>
</defs>
</svg>
