<svg width="168" height="168" viewBox="0 0 168 168" fill="none" xmlns="http://www.w3.org/2000/svg">
<g clip-path="url(#clip0_11681_39514)">
<path d="M42.5812 74.6167H15.4915V95.1231H42.5812V74.6167Z" fill="#002EFF"/>
<path d="M30.9301 75.1552H27.6777V84.0514H30.9301V75.1552Z" fill="white" stroke="#0C0C0C" stroke-width="0.5" stroke-miterlimit="10"/>
<path d="M43.3996 74.6167H14.8818V78.3652H43.3996V74.6167Z" fill="white" stroke="#0C0C0C" stroke-width="0.5" stroke-miterlimit="10"/>
<path fill-rule="evenodd" clip-rule="evenodd" d="M51.3926 94.9309H13.3993C13.0286 94.9309 12.6732 95.0792 12.4099 95.3424C12.1482 95.6056 12 95.958 12 96.3287C12 96.7008 12.1467 97.0578 12.4099 97.3225C12.6716 97.5857 13.0286 97.7279 13.3993 97.7279H51.3942V94.9309H51.3926Z" fill="#0C0C0C"/>
<path fill-rule="evenodd" clip-rule="evenodd" d="M35.2823 122.895L20.2292 96.7447L22.7903 95.2622L37.8433 121.413L35.2823 122.895Z" fill="#0C0C0C"/>
<path fill-rule="evenodd" clip-rule="evenodd" d="M45.9528 97.3604C45.9528 97.3604 44.5853 88.7622 52.3955 87.0135C57.4858 85.8744 66.314 87.5459 73.0789 88.1616C76.5747 88.4793 77.4551 95.2366 76.8017 99.9184C76.8017 99.9184 48.0858 101.442 45.9528 97.3604Z" fill="white"/>
<mask id="mask0_11681_39514" style="mask-type:luminance" maskUnits="userSpaceOnUse" x="45" y="86" width="33" height="15">
<path d="M45.9528 97.3604C45.9528 97.3604 44.5853 88.7622 52.3955 87.0135C57.4858 85.8744 66.314 87.5459 73.0789 88.1616C76.5747 88.4793 77.4551 95.2366 76.8017 99.9184C76.8017 99.9184 48.0858 101.442 45.9528 97.3604Z" fill="white"/>
</mask>
<g mask="url(#mask0_11681_39514)">
<path fill-rule="evenodd" clip-rule="evenodd" d="M45.9528 97.3604C45.9528 97.3604 44.5853 88.7622 52.3955 87.0135C57.4858 85.8744 66.314 87.5459 73.0789 88.1616C76.5747 88.4793 77.4551 95.2366 76.8017 99.9184C76.8017 99.9184 48.0858 101.442 45.9528 97.3604Z" fill="white" stroke="#0C0C0C" stroke-width="0.5" stroke-miterlimit="10"/>
<path d="M85.4316 100.107H37.6494V100.286H85.4316V100.107Z" fill="white" stroke="#0C0C0C" stroke-width="0.5" stroke-miterlimit="10"/>
</g>
<path fill-rule="evenodd" clip-rule="evenodd" d="M45.9528 97.3604C45.9528 97.3604 44.5853 88.7622 52.3955 87.0135C57.4858 85.8744 66.314 87.5459 73.0789 88.1616C76.5747 88.4793 77.4551 95.2366 76.8017 99.9184C76.8017 99.9184 48.0858 101.442 45.9528 97.3604Z" stroke="#0C0C0C" stroke-width="0.5" stroke-miterlimit="10"/>
<path d="M49.7378 146.569C47.741 146.569 45.8033 146.176 43.9759 145.401C42.2136 144.654 40.6328 143.584 39.2759 142.223C37.919 140.863 36.854 139.278 36.1098 137.512C35.3383 135.684 34.948 133.743 34.948 131.744C34.948 129.746 35.3398 127.805 36.1098 125.976C36.854 124.211 37.919 122.626 39.2759 121.266C40.6328 119.904 42.2151 118.835 43.9759 118.088C45.8033 117.313 47.741 116.92 49.7378 116.92C51.7346 116.92 53.6724 117.313 55.4998 118.088C57.2621 118.835 58.8429 119.904 60.1998 121.266C61.5567 122.626 62.6216 124.211 63.3659 125.976C64.1374 127.805 64.5277 129.746 64.5277 131.744C64.5277 133.743 64.1359 135.684 63.3659 137.512C62.6216 139.278 61.5567 140.863 60.1998 142.223C58.8429 143.584 57.2606 144.654 55.4998 145.401C53.6724 146.176 51.7346 146.569 49.7378 146.569ZM49.7378 123.943C45.4538 123.943 41.97 127.444 41.97 131.746C41.97 136.048 45.4553 139.549 49.7378 139.549C54.0203 139.549 57.5056 136.048 57.5056 131.746C57.5056 127.444 54.0203 123.943 49.7378 123.943Z" fill="#0C0C0C"/>
<path d="M49.7243 134.906C51.0828 134.906 52.184 133.802 52.184 132.44C52.184 131.078 51.0828 129.974 49.7243 129.974C48.3659 129.974 47.2646 131.078 47.2646 132.44C47.2646 133.802 48.3659 134.906 49.7243 134.906Z" fill="#0C0C0C"/>
<path d="M130.411 146.636C128.882 146.636 127.369 146.398 125.899 145.926C124.068 145.338 122.395 144.416 120.925 143.185C119.401 141.91 118.167 140.361 117.255 138.58C116.344 136.803 115.807 134.897 115.66 132.917C115.518 131.006 115.744 129.109 116.329 127.279C116.916 125.449 117.834 123.774 119.06 122.302C120.33 120.777 121.875 119.54 123.649 118.625C125.422 117.711 127.323 117.172 129.299 117.024C131.205 116.88 133.099 117.106 134.925 117.693C136.755 118.281 138.428 119.203 139.899 120.434C141.422 121.709 142.656 123.258 143.569 125.039C144.479 126.816 145.016 128.722 145.163 130.702C145.305 132.613 145.08 134.51 144.494 136.34C143.907 138.17 142.989 139.845 141.764 141.317C140.493 142.842 138.949 144.079 137.174 144.994C135.401 145.908 133.5 146.447 131.524 146.596C131.152 146.624 130.78 146.639 130.411 146.639V146.636ZM126.867 124.868C123.052 126.834 121.543 131.549 123.505 135.378C124.455 137.233 126.068 138.605 128.047 139.24C130.018 139.874 132.117 139.7 133.958 138.75C137.773 136.783 139.282 132.068 137.32 128.239C136.37 126.385 134.757 125.013 132.778 124.378C130.807 123.744 128.708 123.918 126.867 124.868Z" fill="#0C0C0C"/>
<path d="M130.412 134.274C131.771 134.274 132.872 133.17 132.872 131.808C132.872 130.446 131.771 129.342 130.412 129.342C129.054 129.342 127.953 130.446 127.953 131.808C127.953 133.17 129.054 134.274 130.412 134.274Z" fill="#0C0C0C"/>
<path fill-rule="evenodd" clip-rule="evenodd" d="M143.14 121.677C143.812 121.68 144.428 121.301 144.729 120.702C145.03 120.101 144.966 119.382 144.564 118.845C139.16 111.66 129.747 110.569 121.679 114.551C118.041 116.346 123.378 117.572 123.961 120.909C124.48 123.884 125.213 126.796 127.113 125.883C132.45 123.319 138.292 121.652 143.14 121.676V121.677Z" fill="white" stroke="#0C0C0C" stroke-width="0.5" stroke-miterlimit="10"/>
<path fill-rule="evenodd" clip-rule="evenodd" d="M118.144 114.749C118.144 114.749 122.982 123.803 125.157 127.875C125.431 128.388 125.9 128.769 126.457 128.935C127.013 129.1 127.614 129.035 128.124 128.755C129.202 128.161 129.618 126.821 129.065 125.721C126.96 121.538 122.239 112.155 122.239 112.155L118.144 114.751V114.749Z" fill="white"/>
<path fill-rule="evenodd" clip-rule="evenodd" d="M118.144 114.749C118.144 114.749 122.982 123.803 125.157 127.875C125.431 128.388 125.9 128.769 126.457 128.935C127.013 129.1 127.614 129.035 128.124 128.755C129.202 128.161 129.618 126.821 129.065 125.721C126.96 121.538 122.239 112.155 122.239 112.155L118.144 114.751V114.749Z" stroke="#0C0C0C" stroke-width="0.5" stroke-miterlimit="10"/>
<path d="M130.31 132.575C130.766 132.575 131.136 132.204 131.136 131.746C131.136 131.288 130.766 130.917 130.31 130.917C129.853 130.917 129.484 131.288 129.484 131.746C129.484 132.204 129.853 132.575 130.31 132.575Z" fill="white" stroke="#0C0C0C" stroke-width="0.5" stroke-miterlimit="10"/>
<path fill-rule="evenodd" clip-rule="evenodd" d="M127.851 100.762C127.145 98.8292 125.868 96.4633 124.542 93.8887C124.283 93.3865 123.999 92.8706 123.694 92.3472C118.415 83.2709 106.811 71.4506 106.811 71.4506L98.6333 75.0765C100.138 80.5269 106.867 108.624 107.044 113.964C107.362 123.556 99.4275 121.821 92.9258 122.117L82.001 121.511C78.6927 119.458 80.4217 110.424 78.2343 99.3375C76.0485 88.2508 50.4125 88.9209 39.2108 93.2549C26.3754 98.2211 18.1568 123.912 17.9904 128.914C17.824 133.917 27.4918 132.874 27.4918 132.874L105.675 131.862C108.356 131.828 110.855 130.507 112.393 128.311C117.411 121.146 128.355 105.314 128.419 103.448C128.444 102.697 128.23 101.791 127.853 100.762H127.851Z" fill="white" stroke="#0C0C0C" stroke-width="0.5" stroke-miterlimit="10"/>
<path d="M92.9243 122.119C99.426 121.822 107.36 123.557 107.042 113.965C106.866 108.625 100.135 80.5282 98.6318 75.0779L106.81 71.4519C106.81 71.4519 119.792 84.6776 124.54 93.89C126.573 97.8352 128.49 101.289 128.417 103.449C128.336 105.872 113.813 129.797 109.979 129.93C107.322 130.023 101.12 130.238 93.2011 130.51C67.6347 131.389 27.4918 132.876 27.4918 132.876C27.4918 132.876 17.824 133.918 17.9904 128.917C18.1568 123.914 26.3754 98.224 39.2108 93.2577C50.4125 88.9238 76.0485 88.2536 78.2343 99.3403C80.4217 110.427 78.6927 119.459 82.001 121.514L92.9258 122.12L92.9243 122.119Z" fill="white"/>
<mask id="mask1_11681_39514" style="mask-type:luminance" maskUnits="userSpaceOnUse" x="17" y="71" width="112" height="62">
<path d="M92.9243 122.119C99.426 121.822 107.36 123.557 107.042 113.965C106.866 108.625 100.135 80.5282 98.6318 75.0779L106.81 71.4519C106.81 71.4519 119.792 84.6776 124.54 93.89C126.573 97.8352 128.49 101.289 128.417 103.449C128.336 105.872 113.813 129.797 109.979 129.93C107.322 130.023 101.12 130.238 93.2011 130.51C67.6347 131.389 27.4918 132.876 27.4918 132.876C27.4918 132.876 17.824 133.918 17.9904 128.917C18.1568 123.914 26.3754 98.224 39.2108 93.2577C50.4125 88.9238 76.0485 88.2536 78.2343 99.3403C80.4217 110.427 78.6927 119.459 82.001 121.514L92.9258 122.12L92.9243 122.119Z" fill="white"/>
</mask>
<g mask="url(#mask1_11681_39514)">
<path fill-rule="evenodd" clip-rule="evenodd" d="M99.1869 77.754L108.764 74.4759L105.853 72.1509L98.9887 73.8451L97.8647 74.78L99.1853 77.754H99.1869Z" fill="white" stroke="#0C0C0C" stroke-width="0.5" stroke-miterlimit="10"/>
</g>
<path d="M92.9243 122.119C99.426 121.822 107.36 123.557 107.042 113.965C106.866 108.625 100.135 80.5282 98.6318 75.0779L106.81 71.4519C106.81 71.4519 119.792 84.6776 124.54 93.89C126.573 97.8352 128.49 101.289 128.417 103.449C128.336 105.872 113.813 129.797 109.979 129.93C107.322 130.023 101.12 130.238 93.2011 130.51C67.6347 131.389 27.4918 132.876 27.4918 132.876C27.4918 132.876 17.824 133.918 17.9904 128.917C18.1568 123.914 26.3754 98.224 39.2108 93.2577C50.4125 88.9238 76.0485 88.2536 78.2343 99.3403C80.4217 110.427 78.6927 119.459 82.001 121.514L92.9258 122.12L92.9243 122.119Z" stroke="#0C0C0C" stroke-width="0.5" stroke-miterlimit="10"/>
<path d="M106.254 67.8215C106.23 67.8215 106.208 67.8033 106.204 67.7776C105.967 66.0108 105.996 64.4028 106.021 62.9838C106.05 61.3879 106.073 60.1263 105.675 59.4032C104.737 57.6939 102.713 58.0388 102.693 58.0418C102.666 58.0463 102.641 58.0282 102.634 58.0009C102.63 57.9737 102.648 57.948 102.675 57.9419C102.696 57.9389 104.789 57.5804 105.763 59.3533C106.173 60.1006 106.15 61.3728 106.121 62.9838C106.096 64.3982 106.067 66.0032 106.304 67.7625C106.307 67.7897 106.289 67.8154 106.262 67.8185C106.26 67.8185 106.257 67.8185 106.256 67.8185L106.254 67.8215Z" fill="#0C0C0C"/>
<path d="M106.254 67.9652C106.158 67.9652 106.076 67.8926 106.062 67.7973C105.823 66.0199 105.852 64.4073 105.878 62.9823C105.906 61.4061 105.929 60.1626 105.549 59.4713C104.668 57.8648 102.737 58.1794 102.718 58.1825C102.668 58.1915 102.616 58.181 102.574 58.1507C102.532 58.122 102.503 58.0766 102.494 58.0267C102.474 57.9223 102.545 57.8209 102.65 57.8013C102.672 57.7967 104.87 57.4291 105.888 59.2852C106.316 60.0658 106.294 61.3562 106.265 62.9884C106.239 64.3982 106.21 65.9957 106.446 67.7459C106.46 67.8518 106.386 67.9486 106.28 67.9637C106.271 67.9637 106.262 67.9652 106.254 67.9652ZM102.671 57.9011C102.671 57.9011 102.671 57.9011 102.668 57.9011C102.668 57.9011 102.668 57.9011 102.671 57.9011Z" fill="#0C0C0C"/>
<path fill-rule="evenodd" clip-rule="evenodd" d="M101.68 55.3885C101.68 55.3885 102.33 55.6654 102.659 56.8438C102.767 57.231 102.84 57.7181 102.843 58.3232C102.846 58.7528 102.751 59.1764 102.565 59.5621C102.524 59.6484 102.479 59.7331 102.427 59.8148C102.141 60.2686 101.724 60.5983 101.698 60.5862C101.486 60.4834 101.68 55.3885 101.68 55.3885Z" fill="#0C0C0C"/>
<path d="M101.671 60.612C101.954 60.612 102.184 59.441 102.184 57.9965C102.184 56.552 101.954 55.381 101.671 55.381C101.388 55.381 101.158 56.552 101.158 57.9965C101.158 59.441 101.388 60.612 101.671 60.612Z" fill="#0C0C0C"/>
<path fill-rule="evenodd" clip-rule="evenodd" d="M26.8882 130.804C26.8594 131.269 27.0273 131.728 27.3511 132.065C27.6748 132.404 28.1256 132.59 28.5915 132.583C36.0552 132.451 65.0328 131.938 72.4557 131.806C72.9201 131.799 73.3603 131.598 73.672 131.253C73.9821 130.908 74.1379 130.451 74.0985 129.988C73.5918 124.184 70.4695 106.27 51.2202 106.795C30.9876 107.349 27.348 123.178 26.8882 130.804Z" fill="white" stroke="#0C0C0C" stroke-width="0.5" stroke-miterlimit="10"/>
<path fill-rule="evenodd" clip-rule="evenodd" d="M61.8956 116.941C61.8956 116.215 61.3071 115.625 60.5795 115.625H40.4755C39.7494 115.625 39.1594 116.215 39.1594 116.941C39.1594 117.669 39.7494 118.257 40.4755 118.257H60.5795C61.3056 118.257 61.8956 117.669 61.8956 116.941Z" fill="white" stroke="#0C0C0C" stroke-width="0.5" stroke-miterlimit="10"/>
<path fill-rule="evenodd" clip-rule="evenodd" d="M61.8956 121.903C61.8956 121.177 61.3071 120.587 60.5795 120.587H40.4755C39.7494 120.587 39.1594 121.177 39.1594 121.903C39.1594 122.63 39.7494 123.219 40.4755 123.219H60.5795C61.3056 123.219 61.8956 122.63 61.8956 121.903Z" fill="white" stroke="#0C0C0C" stroke-width="0.5" stroke-miterlimit="10"/>
<path fill-rule="evenodd" clip-rule="evenodd" d="M98.7769 75.1552C98.7769 75.1552 94.1676 66.7823 99.447 64.1895C102.683 62.6012 106.17 63.9369 108.384 65.2076C109.802 66.0229 110.779 67.4283 111.051 69.0408C111.101 69.3252 111.151 69.6247 111.202 69.9273C111.596 72.2674 110.045 74.4911 107.714 74.9313L98.7784 75.1537L98.7769 75.1552Z" fill="white" stroke="#0C0C0C" stroke-width="0.5" stroke-miterlimit="10"/>
<path fill-rule="evenodd" clip-rule="evenodd" d="M103.24 68.0984C103.081 67.6809 102.751 67.3512 102.333 67.1908C101.916 67.0305 101.452 67.0547 101.052 67.2574C99.3005 68.1514 96.4808 69.59 94.7714 70.4628C93.9545 70.8803 93.6081 71.8666 93.9878 72.7031C94.1648 73.0965 94.4946 73.4005 94.9 73.5472C95.3054 73.694 95.7531 73.6713 96.1404 73.4822C97.8225 72.6668 100.565 71.3372 102.288 70.5006C103.181 70.068 103.594 69.0242 103.24 68.0984Z" fill="#0C0C0C"/>
<path d="M85.6405 114.129L84.9128 109.547L91.7624 107.946L92.6837 113.106L85.6405 114.129Z" fill="white" stroke="#0C0C0C" stroke-width="0.5" stroke-miterlimit="10"/>
<path d="M103.483 120.482C103.483 120.482 103.474 120.461 103.456 120.423C103.33 120.154 103.069 119.336 102.66 119.042C102.527 118.947 99.7709 117.569 99.7709 117.569L94.2812 114.08L92.6853 112.029L85.4833 113.782L85.7268 119.776L85.3562 120.063L85.4485 121.668L103.525 121.485L103.485 120.481L103.483 120.482Z" fill="white" stroke="#0C0C0C" stroke-width="0.5" stroke-miterlimit="10"/>
<path d="M103.483 120.482L103.539 121.845L85.4666 121.904L85.3562 120.066L85.7268 119.779L103.457 120.426C103.474 120.464 103.485 120.485 103.485 120.485L103.483 120.482Z" fill="white" stroke="#0C0C0C" stroke-width="0.5" stroke-miterlimit="10"/>
<path d="M76.3948 84.2754L83.5182 110.208L93.1239 108.718L87.9958 81.5162L76.3948 84.2754Z" fill="#FF3D00"/>
<path d="M48.0495 78.0415C47.1872 82.0517 49.9298 85.9439 53.9959 86.4824C63.4716 87.738 75.8623 89.7635 83.3245 88.4807C86.6691 87.9059 88.7914 84.5764 87.902 81.3014C87.2439 78.8841 85.0974 77.1686 82.5938 77.0628L55.9594 72.5685C52.2926 72.0194 48.83 74.4155 48.051 78.0415H48.0495Z" fill="#FF3D00"/>
<path d="M77.9682 29.7797C77.8184 26.3262 76.3117 26.057 72.4951 25.6576C72.4331 25.6515 72.3696 25.6455 72.3061 25.6394C67.2264 25.2083 67.3822 30.6269 67.5985 32.3907C67.6257 32.61 67.6923 32.8611 67.7936 33.1349C66.8588 34.5811 63.6155 39.9089 63.499 40.0496C63.499 40.0496 68.3034 43.8344 68.6876 43.9312C69.0356 44.0189 71.5724 39.0103 72.0444 38.074C72.2168 38.136 72.3847 38.1768 72.5451 38.1889C74.7824 38.3538 76.7353 37.3388 77.4811 35.6521C78.3448 33.7007 78.1013 32.8611 77.9682 29.7797Z" fill="white" stroke="#0C0C0C" stroke-width="0.5" stroke-miterlimit="10"/>
<path d="M79.8772 27.966C79.5428 28.9084 78.67 29.9023 76.9016 29.6285C73.5132 29.1036 73.2666 28.7662 73.2666 28.7662C73.2666 28.7662 73.4345 31.9641 70.6995 32.6221C70.6995 32.6221 67.373 36.3222 65.8149 35.5447C65.8149 35.5447 66.0146 31.418 66.1961 29.0915C66.2188 28.8071 66.24 28.5499 66.2627 28.3306C66.4684 26.2082 66.9979 27.0871 67.5833 27.1779C67.5833 27.1779 67.4018 24.4565 70.4802 24.6879C70.4802 24.6879 71.9187 23.1132 73.5706 24.4444C73.5706 24.4444 76.1755 24.5851 77.5309 24.4671C77.838 25.0465 78.0377 25.7136 78.1058 26.4639L78.1542 26.9964C78.1285 27.0175 78.1027 27.0387 78.0755 27.0584C78.0543 27.0735 78.0332 27.0871 78.012 27.1022C78.012 27.1022 78.0679 27.0977 78.1632 27.0841C78.2585 27.072 78.3917 27.0493 78.546 27.0145H78.549L80.039 26.8768C80.0678 27.1582 80.0254 27.5576 79.8787 27.9675L79.8772 27.966Z" fill="#0C0C0C"/>
<path d="M73.1879 31.6313C73.1879 31.6313 72.2137 30.0112 70.8523 30.8704C68.9387 32.076 70.347 34.5297 71.6813 34.566C73.0155 34.6023 73.1879 31.6313 73.1879 31.6313Z" fill="white"/>
<path d="M71.8521 22.0105L71.1396 22.0907C70.9611 22.1104 70.7992 21.9818 70.7796 21.8033C70.7599 21.6248 70.8885 21.4629 71.067 21.4432L71.7795 21.3631C71.958 21.3434 72.1198 21.472 72.1395 21.6505C72.1592 21.829 72.0306 21.9908 71.8521 22.0105Z" fill="#0C0C0C"/>
<path d="M78.2569 28.1143L72.2333 28.6679L66.2096 29.2201L66.1975 29.0915L66.0568 27.5682C65.7513 24.2417 68.2715 22.0664 71.5979 21.7609C71.8551 21.7367 72.1107 21.7261 72.3618 21.7261C74.4191 21.7261 76.2284 22.5142 77.2494 24.0042C77.3508 24.151 77.4446 24.3053 77.5293 24.4656C77.8167 25.0087 78.0103 25.6274 78.0905 26.3202C78.095 26.3671 78.1011 26.4155 78.1041 26.4624L78.1525 26.9949L78.1571 27.0493L78.1601 27.0826L78.2554 28.1158L78.2569 28.1143Z" fill="#002EFF"/>
<path d="M83.8011 27.1174C83.8011 27.3912 83.5923 27.6241 83.3155 27.6498L79.8771 27.966L78.257 28.1142L72.2333 28.6679L72.135 27.6014L78.0754 27.0553L78.1586 27.0478L78.5444 27.013H78.5474L80.0374 26.8753L83.2172 26.5834C83.5122 26.5561 83.7723 26.7725 83.7996 27.0674C83.7996 27.0841 83.8011 27.1007 83.8011 27.1174Z" fill="#002EFF"/>
<path fill-rule="evenodd" clip-rule="evenodd" d="M48.5276 75.4335C48.5276 75.4335 52.5484 47.4528 63.3446 38.2056L71.1548 41.4398L71.955 75.609L48.5291 75.432L48.5276 75.4335Z" fill="#002EFF"/>
<path d="M102.398 65.6493C101.625 64.8611 100.21 63.0655 98.9147 63.5829C97.9012 63.9868 93.6958 65.3861 93.6958 65.3861L78.0921 59.9297L75.6128 67.0122C75.6128 67.0122 89.0049 69.7366 92.5431 70.44C93.2571 70.7275 94.1027 70.9135 94.8455 70.6624C96.2825 70.1753 97.523 68.8396 97.6274 68.8093C98.4094 68.5809 99.8435 68.9757 100.285 68.9924C100.55 68.9954 100.922 69.0983 100.96 68.5068C100.96 68.4523 100.93 68.3918 100.878 68.3283C100.972 68.3555 101.043 68.3646 101.087 68.351C101.411 68.3222 101.819 67.9879 101.206 67.4358C101.208 67.4358 101.211 67.4388 101.212 67.4388C101.588 67.6597 101.943 67.7867 102.172 67.5598C102.321 67.4101 102.386 67.0788 102.057 66.6522C102.09 66.6567 102.117 66.6552 102.14 66.6477C102.398 66.5645 102.588 66.4782 102.616 66.3028C102.654 66.0638 102.572 65.8202 102.403 65.6478L102.398 65.6493Z" fill="white" stroke="#0C0C0C" stroke-width="0.5" stroke-linecap="round" stroke-linejoin="round"/>
<path d="M74.2694 58.5289L92.5083 64.3544L91.0999 71.2373L72.9609 67.1862L74.2694 58.5289Z" fill="#002EFF"/>
<path d="M63.6214 48.1896L69.6708 64.4482C70.5376 66.6734 73.0139 67.808 75.2648 67.0093C77.6156 66.1742 78.8091 63.5603 77.9 61.2367L71.8264 44.9887C70.999 42.8739 68.6996 41.7348 66.5168 42.358C64.0223 43.0705 62.6805 45.7722 63.6214 48.1911V48.1896Z" fill="#002EFF"/>
<path fill-rule="evenodd" clip-rule="evenodd" d="M71.1532 41.4413C71.1532 41.4413 65.4321 38.2706 65.2808 36.8668C65.2808 36.8668 63.2689 36.8668 62.325 39.154L70.0065 44.7708L71.1532 41.4413Z" fill="#002EFF" stroke="#0C0C0C" stroke-width="0.5" stroke-miterlimit="10"/>
<path d="M128.124 128.754L129.709 131.177" stroke="#0C0C0C" stroke-width="0.5" stroke-linecap="round" stroke-linejoin="round"/>
<path d="M74.2227 27.4094L81.3445 26.7559" stroke="#0C0C0C" stroke-width="0.5" stroke-linecap="round" stroke-linejoin="round"/>
<path d="M71.9535 31.3878C71.9535 31.3878 70.6737 30.9551 70.3137 32.4875" stroke="#0C0C0C" stroke-width="0.5" stroke-linecap="round" stroke-linejoin="round"/>
<path d="M70.8022 31.5935L71.2621 32.4346" stroke="#0C0C0C" stroke-width="0.5" stroke-linecap="round" stroke-linejoin="round"/>
<path d="M64.7122 51.1212L69.3728 64.0791C69.9583 65.7053 71.3348 66.9185 73.0215 67.2922L75.8821 67.9275" stroke="#0C0C0C" stroke-width="0.5" stroke-linecap="round" stroke-linejoin="round"/>
<path d="M61.6519 70.4386C61.6519 70.4386 65.1024 69.186 67.1082 66.2695L67.8661 67.2952C67.8661 67.2952 65.0524 70.4567 62.1238 71.5731L61.6519 70.4386Z" stroke="#0C0C0C" stroke-width="0.5" stroke-linecap="round" stroke-linejoin="round"/>
<path d="M48.8315 73.6561H71.9065" stroke="#0C0C0C" stroke-width="0.5" stroke-linecap="round" stroke-linejoin="round"/>
<path d="M75.3269 58.7544L92.5946 64.3817" stroke="#0C0C0C" stroke-width="0.5" stroke-linecap="round" stroke-linejoin="round"/>
<path d="M90.9608 63.9611L89.1123 70.7547" stroke="#0C0C0C" stroke-width="0.5" stroke-linecap="round" stroke-linejoin="round"/>
<path d="M97.1628 65.1001L98.9282 64.6736C99.4743 64.5419 100.049 64.6993 100.451 65.0911L102.119 66.7172" stroke="#0C0C0C" stroke-width="0.5" stroke-linecap="round" stroke-linejoin="round"/>
<path d="M96.8831 66.3164L98.2021 65.9503C98.6091 65.8384 99.0432 65.914 99.3881 66.1561L101.209 67.4389" stroke="#0C0C0C" stroke-width="0.5" stroke-linecap="round" stroke-linejoin="round"/>
<path d="M96.2705 67.5962L97.5351 67.1696C97.933 67.035 98.3671 67.0698 98.7393 67.2619L100.875 68.3284" stroke="#0C0C0C" stroke-width="0.5" stroke-linecap="round" stroke-linejoin="round"/>
<path d="M15.4915 146.557H155.887" stroke="#0C0C0C" stroke-width="0.5" stroke-linecap="round" stroke-linejoin="round"/>
<path d="M81.163 87.0724L77.717 88.9814L83.4321 110.232L93.2133 108.701L88.6116 84.7821" stroke="#0C0C0C" stroke-width="0.5" stroke-linecap="round" stroke-linejoin="round"/>
<path d="M85.4651 120.839L103.524 121.184" stroke="#0C0C0C" stroke-width="0.5" stroke-miterlimit="10"/>
<path d="M85.583 116.271C85.583 116.271 90.7883 115.672 90.9879 119.968" stroke="#0C0C0C" stroke-width="0.5" stroke-linecap="round" stroke-linejoin="round"/>
</g>
<defs>
<clipPath id="clip0_11681_39514">
<rect width="144" height="144" fill="white" transform="translate(12 12)"/>
</clipPath>
</defs>
</svg>
