<svg width="168" height="168" viewBox="0 0 168 168" fill="none" xmlns="http://www.w3.org/2000/svg">
<path d="M89.7974 150.244C126.361 150.244 156 120.604 156 84.0413C156 47.478 126.357 17.8386 89.7974 17.8386C53.2375 17.8386 23.5947 47.478 23.5947 84.0413C23.5947 120.604 53.2341 150.244 89.7974 150.244Z" fill="#F3F5FF"/>
<path d="M42.0035 101.808C42.0344 101.77 42.0653 101.729 42.0962 101.687C44.5553 98.4693 43.8787 93.85 40.6606 91.3909L35.5776 87.5031C35.8352 86.8025 36.031 86.0812 36.1615 85.3428C36.6011 82.8254 36.2439 81.637 36.2302 79.0818C36.2164 76.7292 36.5599 74.2701 37.075 71.4367C37.2948 70.2381 37.2227 69.6989 36.711 69.1871C35.6532 68.1259 33.3624 69.1322 32.2359 71.8763C31.415 73.8717 30.9548 74.7063 30.3984 77.1104C28.9491 75.1322 27.1975 73.1093 25.0441 71.4985C24.2748 70.9215 23.3441 70.3686 22.403 70.585C21.3212 70.8322 20.3492 71.9004 20.4351 73.0062C20.466 73.4459 20.6789 73.9095 20.9365 74.356C20.7579 74.1362 20.5106 73.9198 20.15 73.7206C19.1025 73.1471 17.9966 73.1814 16.8152 74.3423C16.221 74.9261 16.2897 76.0835 16.6503 76.8322C16.8323 77.21 17.0933 77.605 17.3853 77.9828C16.8529 77.6428 16.1901 77.4401 15.6783 77.4916C14.7613 77.5809 13.8856 78.2987 13.7963 79.2157C13.7482 79.7 14.1157 80.356 14.5999 80.9089C14.0676 80.7132 13.4837 80.7475 12.9273 81.297C12.4328 81.7813 11.921 82.8185 12.553 83.969C12.8861 84.5769 12.7385 84.4876 13.2055 84.9994C15.699 87.7332 18.1958 90.4636 20.6892 93.1974C21.6921 94.2965 22.7774 95.447 24.2164 95.8145C24.5221 95.8935 24.8312 95.9313 25.1437 95.9416L30.7178 102.144C33.7745 105.548 39.1838 105.407 42.0035 101.804V101.808Z" fill="white" stroke="black" stroke-width="0.5" stroke-miterlimit="10" stroke-linecap="round"/>
<path d="M29.9897 78.0996C26.4556 84.577 28.0183 86.8472 30.237 89.0452" stroke="black" stroke-width="0.5" stroke-linecap="round" stroke-linejoin="round"/>
<path d="M20.7133 74.1122C20.7133 74.1122 24.0893 78.2885 25.2364 78.7624C26.5656 79.312 27.6234 77.8867 26.9399 76.2896" stroke="black" stroke-width="0.5" stroke-linecap="round" stroke-linejoin="round"/>
<path d="M17.0006 77.4504C17.0006 77.4504 21.8054 82.8975 22.9525 83.3714C24.2817 83.921 27.8981 82.3892 24.3847 78.1511" stroke="black" stroke-width="0.5" stroke-linecap="round" stroke-linejoin="round"/>
<path d="M14.6377 80.9502C14.6377 80.9502 19.9886 86.6995 21.1597 87.1116C22.5163 87.589 24.8896 85.5009 22.9525 83.3681" stroke="black" stroke-width="0.5" stroke-linecap="round" stroke-linejoin="round"/>
<path d="M18.2164 90.4946C20.1397 92.5999 23.1758 89.9245 20.8404 86.9434" stroke="black" stroke-width="0.5" stroke-linecap="round" stroke-linejoin="round"/>
<path d="M72.7075 131.457H118.307C120.67 131.457 122.72 129.826 123.249 127.525L143.08 41.3577C143.564 39.2489 141.963 37.2329 139.796 37.2329H94.1969C91.834 37.2329 89.7837 38.8643 89.2548 41.1654L69.4242 127.333C68.9399 129.441 70.5404 131.457 72.7075 131.457Z" fill="black"/>
<path d="M114.714 39.9256C114.714 39.2559 114.172 38.7098 113.499 38.7098C112.825 38.7098 112.283 39.2525 112.283 39.9256C112.283 40.5988 112.825 41.1414 113.499 41.1414C114.172 41.1414 114.714 40.5988 114.714 39.9256Z" fill="white"/>
<path d="M119.852 39.1288C118.534 41.6772 115.882 43.3532 112.904 43.3532C110.511 43.3532 108.666 41.4024 108.663 39.1288H92.0504L72.4019 124.503H118.64L138.289 39.1288H119.852Z" fill="white"/>
<path d="M79.6657 124.503C78.4774 121.319 77.3268 117.634 76.1385 114.45C74.174 117.915 72.0412 121.346 69.1665 124.104C66.2919 126.862 62.5793 128.923 58.6022 129.129C54.6251 129.335 50.6514 127.58 48.0172 124.592C42.0893 117.877 35.9072 111.476 29.9794 104.761C34.5953 99.4619 39.6439 94.0458 44.2599 88.7464C48.0618 91.8237 52.2999 94.8632 56.0984 97.9404C59.6703 89.9038 63.273 81.5924 70.1969 76.1728C73.4974 73.5901 76.7945 71.0074 80.095 68.4247C81.115 69.6027 82.8494 70.0835 84.3915 69.8672C85.9336 69.6508 87.3383 68.7819 88.403 67.6451C89.4676 66.5083 90.2198 65.1104 90.8105 63.668C97.7584 64.5953 104.579 65.1036 111.531 66.0309C118.393 66.9444 124.801 69.2764 130.41 73.3291L118.633 124.506H79.6623L79.6657 124.503Z" fill="#FF3D00"/>
<path d="M56.1019 97.7722C58.7121 99.7917 61.3257 101.808 63.9359 103.827" stroke="black" stroke-width="0.5" stroke-linecap="round" stroke-linejoin="round"/>
<path d="M77.1345 70.6778C77.7046 73.5077 80.4179 75.6337 83.2891 75.9393C86.1603 76.245 89.0555 74.933 91.0887 72.8827C93.1219 70.8289 94.3652 68.1053 95.0864 65.3097" stroke="black" stroke-width="0.5" stroke-linecap="round" stroke-linejoin="round"/>
<path d="M115.81 67.0543C113.948 67.6141 112.688 69.4413 112.259 71.3405C111.829 73.2363 112.084 75.2146 112.369 77.1379C113.914 87.6576 117.62 97.6038 122.074 107.262" stroke="black" stroke-width="0.5" stroke-linecap="round" stroke-linejoin="round"/>
<path d="M76.1282 114.989C72.9754 105.565 69.8226 96.1408 66.6697 86.7166C66.1271 85.0955 65.3406 83.7183 64.6984 82.1316" stroke="black" stroke-width="0.5" stroke-linecap="round" stroke-linejoin="round"/>
<path d="M35.447 109.525C40.5918 104.459 45.7401 99.3932 50.8849 94.3274" stroke="black" stroke-width="0.5" stroke-linecap="round" stroke-linejoin="round"/>
<path d="M32.4557 103.782C33.7677 105.318 35.0796 106.856 36.395 108.392" stroke="black" stroke-width="0.5" stroke-linecap="round" stroke-linejoin="round"/>
<path d="M34.3893 101.08C35.9073 102.704 37.4253 104.325 38.9434 105.95" stroke="black" stroke-width="0.5" stroke-linecap="round" stroke-linejoin="round"/>
<path d="M36.1545 99.3074C37.834 100.77 39.5134 102.234 41.1963 103.697" stroke="black" stroke-width="0.5" stroke-linecap="round" stroke-linejoin="round"/>
<path d="M40.9078 94.2278C42.4568 95.9691 44.0092 97.7069 45.5581 99.4482" stroke="black" stroke-width="0.5" stroke-linecap="round" stroke-linejoin="round"/>
<path d="M42.3503 92.5587C43.8924 94.3103 45.4345 96.0619 46.9731 97.8134" stroke="black" stroke-width="0.5" stroke-linecap="round" stroke-linejoin="round"/>
<path d="M44.4076 90.7178C46.0905 92.2908 47.7734 93.8603 49.4562 95.4333" stroke="black" stroke-width="0.5" stroke-linecap="round" stroke-linejoin="round"/>
<path d="M94.5506 51.1219C95.0967 50.5175 95.2375 49.5798 94.894 48.8414C94.5506 48.103 93.7744 47.5501 92.9604 47.5776C93.4894 46.5472 93.4001 45.2284 92.7406 44.2736C92.0812 43.3223 91.0681 42.8552 89.9141 42.9857C89.9519 41.9244 89.3646 40.8632 88.4476 40.3274C87.5306 39.7916 86.2804 39.9153 85.3737 40.4682C85.1402 39.1906 84.0995 38.1019 82.8322 37.8134C81.5683 37.5249 80.1637 38.15 79.4046 39.2009C78.4086 37.7962 76.3686 37.2467 74.8025 37.9611C73.2329 38.6754 72.1511 40.6674 72.5563 42.34C71.8042 42.2747 71.028 42.656 70.6193 43.2948C70.2106 43.9336 70.19 44.7956 70.5643 45.4516C70.9387 46.1076 71.6874 46.5438 72.443 46.5163C71.9759 47.028 71.8591 47.8283 72.1614 48.4533C72.4636 49.075 73.1642 49.4837 73.8546 49.4356L93.3623 57.067C93.51 56.4488 93.5718 55.9233 93.7195 55.3051C94.6777 55.178 95.5088 54.3881 95.684 53.4367C95.8591 52.4854 95.4058 51.5787 94.554 51.1219H94.5506Z" fill="black"/>
<path d="M92.6068 64.5267C91.8787 63.2181 91.3257 61.968 90.8999 60.5324C92.727 60.4706 94.4408 59.138 94.9491 57.383C95.4574 55.628 94.719 53.5845 93.2044 52.5576C91.6932 51.5307 89.4574 51.8089 88.0149 52.9285C87.5581 51.4105 87.0361 49.9302 86.5793 48.4122C85.7962 48.6492 84.9239 48.5942 84.1786 48.2542C83.4333 47.9176 82.8392 47.2239 82.4992 46.4786C82.0286 46.9525 81.3246 47.1826 80.6652 47.0796C80.0057 46.9731 79.4975 46.6297 79.1987 46.0321C78.8758 46.5576 78.3126 46.9285 77.7012 47.0212C77.0899 47.114 76.4442 46.9251 75.9806 46.5198C74.4866 47.1174 73.1368 48.395 72.7384 49.9508C72.055 52.6297 71.6394 55.494 71.8249 58.2519C71.9313 59.818 72.4809 61.2571 73.5318 62.4248C74.5827 63.5925 76.0493 64.379 77.6051 64.5988C78.2954 66.4946 78.9823 68.3458 79.6726 70.2416C80.2496 71.8318 81.9428 72.8758 83.6257 73.0373C85.3086 73.1987 87.0017 72.4603 88.2278 71.296C90.2817 69.3418 91.3257 67.0544 92.6068 64.5267Z" fill="white" stroke="black" stroke-width="0.5" stroke-miterlimit="10"/>
<path d="M90.2335 57.486L92.2564 54.6801" stroke="black" stroke-width="0.5" stroke-miterlimit="10" stroke-linecap="round"/>
<path d="M90.9617 56.4762L91.9954 57.2215" stroke="black" stroke-width="0.5" stroke-miterlimit="10" stroke-linecap="round"/>
</svg>
