<svg width="48" height="48" viewBox="0 0 48 48" fill="none" xmlns="http://www.w3.org/2000/svg">
<path d="M0.249199 29.7779C0.179977 29.7779 0.117677 29.7571 0.0622998 29.7156C0.0207666 29.6602 0 29.5979 0 29.5287V27.7635C0 27.6389 0.034611 27.542 0.103833 27.4728L5.21241 21.4712C5.28163 21.3882 5.26087 21.3466 5.15011 21.3466H0.353032C0.28381 21.3466 0.22151 21.3259 0.166133 21.2843C0.124599 21.2289 0.103833 21.1666 0.103833 21.0974V19.4153C0.103833 19.3461 0.124599 19.2907 0.166133 19.2492C0.22151 19.1938 0.28381 19.1661 0.353032 19.1661H7.91207C7.98129 19.1661 8.03667 19.1938 8.0782 19.2492C8.13358 19.2907 8.16127 19.3461 8.16127 19.4153V21.1805C8.16127 21.2912 8.11973 21.3882 8.03667 21.4712L2.82426 27.4728C2.76888 27.5558 2.78964 27.5974 2.88655 27.5974H7.97437C8.04359 27.5974 8.09897 27.6251 8.1405 27.6804C8.19588 27.722 8.22357 27.7773 8.22357 27.8466V29.5287C8.22357 29.5979 8.19588 29.6602 8.1405 29.7156C8.09897 29.7571 8.04359 29.7779 7.97437 29.7779H0.249199Z" fill="#002EFF"/>
<path d="M14.6628 29.944C13.5691 29.944 12.6277 29.6671 11.8386 29.1133C11.0633 28.5595 10.5164 27.7912 10.198 26.8082C9.96266 26.0606 9.84498 25.2715 9.84498 24.4408C9.84498 23.5548 9.95574 22.7657 10.1772 22.0735C10.4957 21.1043 11.0494 20.3498 11.8386 19.8099C12.6277 19.27 13.576 19 14.6836 19C15.7358 19 16.6426 19.27 17.404 19.8099C18.1793 20.3498 18.7262 21.0974 19.0446 22.0527C19.2938 22.7172 19.4184 23.5063 19.4184 24.4201C19.4184 25.2923 19.3007 26.0814 19.0653 26.7875C18.7469 27.7704 18.2001 28.5457 17.4248 29.1133C16.6495 29.6671 15.7288 29.944 14.6628 29.944ZM14.6628 27.8673C15.1751 27.8673 15.6112 27.722 15.9711 27.4312C16.3449 27.1405 16.6149 26.7321 16.781 26.206C16.9195 25.7491 16.9887 25.1677 16.9887 24.4616C16.9887 23.714 16.9195 23.1326 16.781 22.7172C16.6287 22.1911 16.3657 21.7896 15.9919 21.5128C15.6181 21.222 15.1612 21.0767 14.6213 21.0767C14.1091 21.0767 13.666 21.222 13.2922 21.5128C12.9184 21.7896 12.6485 22.1911 12.4823 22.7172C12.3439 23.2018 12.2747 23.7832 12.2747 24.4616C12.2747 25.14 12.3439 25.7214 12.4823 26.206C12.6346 26.7321 12.8977 27.1405 13.2715 27.4312C13.6591 27.722 14.1229 27.8673 14.6628 27.8673Z" fill="#002EFF"/>
<path d="M44.5943 19C45.6603 19 46.491 19.3253 47.0863 19.976C47.6954 20.6129 48 21.5058 48 22.6549V29.5287C48 29.5979 47.9723 29.6602 47.9169 29.7156C47.8754 29.7571 47.82 29.7779 47.7508 29.7779H45.861C45.7918 29.7779 45.7295 29.7571 45.6741 29.7156C45.6326 29.6602 45.6118 29.5979 45.6118 29.5287V23.1533C45.6118 22.5165 45.4388 22.0112 45.0927 21.6374C44.7604 21.2636 44.3105 21.0767 43.7429 21.0767C43.1752 21.0767 42.7114 21.2636 42.3515 21.6374C41.9915 22.0112 41.8116 22.5096 41.8116 23.1326V29.5287C41.8116 29.5979 41.7839 29.6602 41.7285 29.7156C41.687 29.7571 41.6316 29.7779 41.5624 29.7779H39.6726C39.6034 29.7779 39.5411 29.7571 39.4857 29.7156C39.4442 29.6602 39.4234 29.5979 39.4234 29.5287V23.1533C39.4234 22.5165 39.2503 22.0112 38.9042 21.6374C38.5581 21.2636 38.1013 21.0767 37.5336 21.0767C37.0076 21.0767 36.5715 21.2289 36.2253 21.5335C35.8931 21.8381 35.6993 22.2534 35.6439 22.7795V29.5287C35.6439 29.5979 35.6162 29.6602 35.5608 29.7156C35.5193 29.7571 35.4639 29.7779 35.3947 29.7779H33.4842C33.4149 29.7779 33.3526 29.7571 33.2973 29.7156C33.2557 29.6602 33.235 29.5979 33.235 29.5287V19.4153C33.235 19.3461 33.2557 19.2907 33.2973 19.2492C33.3526 19.1938 33.4149 19.1661 33.4842 19.1661H35.3947C35.4639 19.1661 35.5193 19.1938 35.5608 19.2492C35.6162 19.2907 35.6439 19.3461 35.6439 19.4153V20.1006C35.6439 20.1422 35.6577 20.1699 35.6854 20.1837C35.7131 20.1975 35.7408 20.1837 35.7685 20.1422C36.0731 19.7545 36.4469 19.4707 36.8899 19.2907C37.3467 19.0969 37.8521 19 38.4058 19C39.0842 19 39.6795 19.1384 40.1918 19.4153C40.704 19.6922 41.0986 20.0937 41.3755 20.6198C41.417 20.6752 41.4654 20.6752 41.5208 20.6198C41.8254 20.066 42.2477 19.6576 42.7876 19.3946C43.3275 19.1315 43.9297 19 44.5943 19Z" fill="#002EFF"/>
<path d="M26.2026 29.944C25.1089 29.944 24.1675 29.6671 23.3784 29.1133C22.6031 28.5595 22.0562 27.7912 21.7378 26.8082C21.5024 26.0606 21.3848 25.2715 21.3848 24.4408C21.3848 23.5548 21.4955 22.7657 21.717 22.0735C22.0355 21.1043 22.5892 20.3498 23.3784 19.8099C24.1675 19.27 25.1158 19 26.2234 19C27.2756 19 28.1824 19.27 28.9438 19.8099C29.7191 20.3498 30.2659 21.0974 30.5844 22.0527C30.8336 22.7172 30.9582 23.5063 30.9582 24.4201C30.9582 25.2923 30.8405 26.0814 30.6051 26.7875C30.2867 27.7704 29.7399 28.5457 28.9646 29.1133C28.1893 29.6671 27.2686 29.944 26.2026 29.944ZM26.2026 27.8673C26.7149 27.8673 27.151 27.722 27.5109 27.4312C27.8847 27.1405 28.1547 26.7321 28.3208 26.206C28.4592 25.7491 28.5285 25.1677 28.5285 24.4616C28.5285 23.714 28.4592 23.1326 28.3208 22.7172C28.1685 22.1911 27.9055 21.7896 27.5317 21.5128C27.1579 21.222 26.701 21.0767 26.1611 21.0767C25.6488 21.0767 25.2058 21.222 24.832 21.5128C24.4582 21.7896 24.1883 22.1911 24.0221 22.7172C23.8837 23.2018 23.8145 23.7832 23.8145 24.4616C23.8145 25.14 23.8837 25.7214 24.0221 26.206C24.1744 26.7321 24.4375 27.1405 24.8113 27.4312C25.1989 27.722 25.6627 27.8673 26.2026 27.8673Z" fill="#FF3D00"/>
</svg>
