<svg width="24" height="24" viewBox="0 0 24 24" fill="none" xmlns="http://www.w3.org/2000/svg">
<path fill-rule="evenodd" clip-rule="evenodd" d="M12.43 7.98535C10.22 7.98535 8.43001 9.77535 8.43001 11.9854C8.43001 14.1954 10.22 15.9854 12.43 15.9854C14.64 15.9854 16.43 14.1954 16.43 11.9854C16.43 9.77535 14.64 7.98535 12.43 7.98535ZM12.43 15.1854C11.78 15.1854 11.17 14.9854 10.66 14.6554C11 14.0254 11.66 13.5854 12.43 13.5854C13.2 13.5854 13.86 14.0154 14.2 14.6554C13.69 14.9954 13.08 15.1854 12.43 15.1854ZM11.23 11.5854C11.23 10.9254 11.77 10.3854 12.43 10.3854C13.09 10.3854 13.63 10.9254 13.63 11.5854C13.63 12.2454 13.09 12.7854 12.43 12.7854C11.77 12.7854 11.23 12.2454 11.23 11.5854ZM14.82 14.1154C14.56 13.6854 14.18 13.3354 13.73 13.1054C14.16 12.7354 14.43 12.1954 14.43 11.5854C14.43 10.4854 13.53 9.58535 12.43 9.58535C11.33 9.58535 10.43 10.4854 10.43 11.5854C10.43 12.1954 10.7 12.7354 11.13 13.1054C10.68 13.3354 10.31 13.6954 10.04 14.1154C9.53001 13.5454 9.23001 12.8054 9.23001 11.9854C9.23001 10.2154 10.66 8.78535 12.43 8.78535C14.2 8.78535 15.63 10.2154 15.63 11.9854C15.63 12.8054 15.32 13.5554 14.82 14.1154Z" fill="#002EFF"/>
<path fill-rule="evenodd" clip-rule="evenodd" d="M16.43 2.98535H8.43001C6.77001 2.98535 5.43001 4.32535 5.43001 5.98535V8.29535H5.04001C4.78001 8.29535 4.57001 8.50535 4.57001 8.76535C4.57001 9.02535 4.78001 9.23535 5.04001 9.23535H5.43001V11.5554H5.04001C4.78001 11.5554 4.57001 11.7654 4.57001 12.0254C4.57001 12.2854 4.78001 12.4954 5.04001 12.4954H5.43001V14.8154H5.04001C4.78001 14.8154 4.57001 15.0254 4.57001 15.2854C4.57001 15.5454 4.78001 15.7554 5.04001 15.7554H5.43001V18.0154C5.43001 19.6754 6.77001 21.0154 8.43001 21.0154H16.43C18.09 21.0154 19.43 19.6754 19.43 18.0154V5.98535C19.43 4.32535 18.09 2.98535 16.43 2.98535ZM18.43 17.9854C18.43 19.0854 17.53 19.9854 16.43 19.9854H8.43001C7.33001 19.9854 6.43001 19.0854 6.43001 17.9854V15.7254H6.90001C7.16001 15.7254 7.37001 15.5154 7.37001 15.2554C7.37001 14.9954 7.16001 14.7854 6.90001 14.7854H6.43001V12.4654H6.90001C7.16001 12.4654 7.37001 12.2554 7.37001 11.9954C7.37001 11.7354 7.16001 11.5254 6.90001 11.5254H6.43001V9.20535H6.90001C7.16001 9.20535 7.37001 8.99535 7.37001 8.73535C7.37001 8.47535 7.16001 8.26535 6.90001 8.26535H6.43001V5.95535C6.43001 4.85535 7.33001 3.95535 8.43001 3.95535H16.43C17.53 3.95535 18.43 4.85535 18.43 5.95535V17.9554V17.9854Z" fill="#002EFF"/>
</svg>
