<svg width="24" height="24" viewBox="0 0 24 24" fill="none" xmlns="http://www.w3.org/2000/svg">
<path fill-rule="evenodd" clip-rule="evenodd" d="M11.7637 20.75C16.5009 20.75 20.3411 16.8325 20.3411 12C20.3411 7.16751 16.5009 3.25 11.7637 3.25C7.02652 3.25 3.18628 7.16751 3.18628 12C3.18628 16.8325 7.02652 20.75 11.7637 20.75ZM11.7637 22C17.1776 22 21.5665 17.5228 21.5665 12C21.5665 6.47715 17.1776 2 11.7637 2C6.34978 2 1.96094 6.47715 1.96094 12C1.96094 17.5228 6.34978 22 11.7637 22ZM11.7637 15.125C11.4253 15.125 11.151 14.8452 11.151 14.5L11.151 6.375C11.151 6.02982 11.4253 5.75 11.7637 5.75C12.1021 5.75 12.3764 6.02982 12.3764 6.375V14.5C12.3764 14.8452 12.1021 15.125 11.7637 15.125ZM12.6827 16.6875C12.6827 17.2053 12.2713 17.625 11.7637 17.625C11.2561 17.625 10.8447 17.2053 10.8447 16.6875C10.8447 16.1697 11.2561 15.75 11.7637 15.75C12.2713 15.75 12.6827 16.1697 12.6827 16.6875Z" fill="#002EFF"/>
</svg>
