<svg width="48" height="48" viewBox="0 0 48 48" fill="none" xmlns="http://www.w3.org/2000/svg">
<path d="M13.3653 17.9926C13.8915 17.9926 14.2423 18.2537 14.4372 18.4745C14.7685 18.8359 14.9634 19.3378 14.9439 19.8398C14.827 23.3533 15.5481 26.1038 17.0877 28.0313C18.6664 30.0189 21.0051 31.0228 24.0259 31.0228C27.0468 31.0228 29.3855 30.0189 30.9641 28.0313C32.5038 26.1038 33.2249 23.3533 33.1079 19.8398C33.1079 19.3378 33.2834 18.8359 33.6147 18.4745C33.8096 18.2537 34.1604 17.9926 34.6866 17.9926C35.3297 17.9926 36.0119 18.4544 36.0508 19.2374C36.2068 22.1486 35.778 25.0598 34.862 27.4289C34.0434 29.5371 32.8936 31.0228 31.7242 31.5448C31.2954 31.7255 30.9251 32.0065 30.6523 32.3278C30.4184 32.5888 30.2625 32.8899 30.1845 33.2112L30.1066 33.4722V39.656C30.1066 39.8567 29.9507 40.0174 29.7558 40.0174H18.2766C18.0817 40.0174 17.9258 39.8567 17.9258 39.656V33.4722L17.8478 33.2112C17.7698 32.8899 17.6139 32.6089 17.3801 32.3479C17.1072 32.0266 16.7369 31.7455 16.3081 31.5649C15.1388 31.0629 13.9889 29.5571 13.1704 27.449C12.2544 25.0799 11.8256 22.1687 11.9815 19.2575C12.0205 18.4745 12.7026 18.0127 13.3458 18.0127M13.3458 16.005C11.6697 16.005 10.13 17.2899 10.0326 19.1371C9.85718 22.5502 10.4029 25.7023 11.3579 28.1919C12.3128 30.6212 13.755 32.6289 15.5481 33.412C15.704 33.4722 15.8404 33.5726 15.8989 33.6529C15.9379 33.693 15.9573 33.7332 15.9573 33.7332V39.6359C15.9573 40.9409 16.9903 42.005 18.2571 42.005H29.7363C31.0031 42.005 32.036 40.9409 32.036 39.6359V33.7332C32.036 33.7332 32.036 33.693 32.0945 33.6529C32.1725 33.5726 32.2894 33.4722 32.4453 33.412C34.2383 32.6289 35.6805 30.6413 36.6355 28.212C37.61 25.7224 38.1557 22.5703 37.9608 19.1571C37.8633 17.31 36.3237 16.0251 34.6476 16.0251C32.5233 16.0251 31.0421 17.9324 31.12 19.9401C31.2175 23.0722 30.5743 25.3409 29.4245 26.7865C28.2941 28.212 26.54 29.0351 24.0064 29.0351C21.4728 29.0351 19.6993 28.212 18.5884 26.7865C17.4385 25.3409 16.7954 23.0722 16.8928 19.9401C16.9513 17.9324 15.4701 16.0251 13.3653 16.0251L13.3458 16.005Z" fill="#002EFF"/>
<path d="M24 19.085C25.64 19.085 26.98 20.425 26.98 22.065C26.98 23.705 25.64 25.045 24 25.045C22.36 25.045 21.02 23.705 21.02 22.065C21.02 20.425 22.36 19.085 24 19.085ZM24 17.085C21.26 17.085 19.02 19.305 19.02 22.065C19.02 24.825 21.24 27.045 24 27.045C26.76 27.045 28.98 24.825 28.98 22.065C28.98 19.305 26.76 17.085 24 17.085Z" fill="#002EFF"/>
<path d="M26.8003 16.105C26.6803 16.105 26.5603 16.085 26.4603 16.025L24.0003 14.725L21.5403 16.025C21.2803 16.145 20.9803 16.125 20.7403 15.965C20.5003 15.805 20.4003 15.505 20.4403 15.225L20.9003 12.485L18.9203 10.545C18.7203 10.345 18.6403 10.045 18.7403 9.78499C18.8203 9.50499 19.0603 9.32499 19.3403 9.28499L22.0803 8.88499L23.3003 6.385C23.5603 5.865 24.4003 5.865 24.6403 6.385L25.8603 8.88499L28.6003 9.28499C28.8803 9.32499 29.1203 9.52499 29.2003 9.78499C29.2803 10.065 29.2003 10.365 29.0203 10.545L27.0403 12.485L27.5003 15.225C27.5403 15.505 27.4403 15.785 27.2003 15.965C27.0803 16.065 26.9203 16.105 26.7603 16.105H26.8003ZM24.0003 13.125C24.1203 13.125 24.2403 13.145 24.3403 13.205L25.8003 13.965L25.5203 12.345C25.4803 12.105 25.5603 11.845 25.7403 11.685L26.9203 10.525L25.2803 10.285C25.0403 10.245 24.8203 10.105 24.7203 9.86499L23.9803 8.38499L23.2403 9.86499C23.1403 10.085 22.9203 10.245 22.6803 10.285L21.0403 10.525L22.2203 11.685C22.4003 11.865 22.4803 12.105 22.4403 12.345L22.1603 13.965L23.6203 13.205C23.7203 13.145 23.8403 13.125 23.9603 13.125H24.0003Z" fill="#FF3D00"/>
<path d="M30.48 15.565C30.22 15.565 29.96 15.465 29.78 15.265C29.38 14.865 29.38 14.245 29.78 13.845L33.6 10.025C34 9.62499 34.62 9.62499 35.02 10.025C35.42 10.425 35.42 11.045 35.02 11.445L31.2 15.265C31 15.465 30.74 15.565 30.5 15.565H30.48Z" fill="#FF3D00"/>
<path d="M17.5202 15.565C17.2602 15.565 17.0002 15.465 16.8202 15.265L13.0002 11.445C12.6002 11.045 12.6002 10.425 13.0002 10.025C13.4002 9.62499 14.0202 9.62499 14.4202 10.025L18.2402 13.845C18.6402 14.245 18.6402 14.865 18.2402 15.265C18.0402 15.465 17.7802 15.565 17.5402 15.565H17.5202Z" fill="#FF3D00"/>
</svg>
