<svg width="32" height="32" viewBox="0 0 32 32" fill="none" xmlns="http://www.w3.org/2000/svg">
<path fill-rule="evenodd" clip-rule="evenodd" d="M16 17.0204L25.8027 26.8231C26.0845 27.1049 26.5413 27.1049 26.8231 26.8231C27.1049 26.5413 27.1049 26.0844 26.8231 25.8027L17.0204 16L26.8231 6.19725C27.1049 5.91547 27.1049 5.45861 26.8231 5.17683C26.5413 4.89505 26.0845 4.89505 25.8027 5.17683L16 14.9795L6.19728 5.17683C5.9155 4.89505 5.45864 4.89505 5.17686 5.17683C4.89508 5.45861 4.89508 5.91547 5.17686 6.19725L14.9796 16L5.17686 25.8027C4.89508 26.0844 4.89508 26.5413 5.17686 26.8231C5.45864 27.1049 5.9155 27.1049 6.19728 26.8231L16 17.0204Z" fill="#002EFF"/>
</svg>
