<svg width="24" height="24" viewBox="0 0 24 24" fill="none" xmlns="http://www.w3.org/2000/svg">
<path d="M17.8671 20.9877C17.7824 20.9877 17.6977 20.9677 17.6236 20.9277L12.022 18.1477L6.42049 20.9277C6.24047 21.0177 6.02869 21.0077 5.85927 20.8877C5.70044 20.7777 5.61573 20.5877 5.64749 20.3977L6.71698 14.5077L2.18491 10.3377C2.03666 10.2077 1.98372 10.0077 2.04725 9.8277C2.11078 9.6477 2.26962 9.5177 2.47081 9.4877L8.72888 8.6277L11.5244 3.2677C11.7044 2.9277 12.2974 2.9277 12.4774 3.2677L15.2728 8.6277L21.5309 9.4877C21.7321 9.5177 21.8909 9.6477 21.9545 9.8277C22.018 10.0077 21.9545 10.2077 21.8168 10.3377L17.2847 14.5077L18.3542 20.3977C18.386 20.5877 18.3119 20.7777 18.1425 20.8877C18.0471 20.9477 17.9413 20.9877 17.8354 20.9877H17.8671ZM12.022 17.0877C12.1067 17.0877 12.1915 17.1077 12.2656 17.1477L17.1577 19.5777L16.2259 14.4277C16.1941 14.2677 16.2576 14.0977 16.3741 13.9877L20.3344 10.3377L14.8599 9.5877C14.6905 9.5677 14.5422 9.4577 14.4575 9.3177L12.0114 4.6277L9.5654 9.3177C9.49128 9.4677 9.34303 9.5677 9.16302 9.5877L3.68854 10.3377L7.6488 13.9877C7.77587 14.1077 7.82882 14.2677 7.79705 14.4277L6.86522 19.5777L11.7573 17.1477C11.8314 17.1077 11.9161 17.0877 12.0009 17.0877H12.022Z" fill="#002EFF"/>
</svg>
