<svg width="24" height="24" viewBox="0 0 24 24" fill="none" xmlns="http://www.w3.org/2000/svg">
<path d="M20.99 7.35488C20.99 5.64488 19.6 4.24488 17.88 4.24488C17.42 4.24488 16.98 4.35488 16.59 4.53488C15.3 3.57488 13.71 3.00488 11.99 3.00488C10.27 3.00488 8.68001 3.57488 7.39001 4.53488C6.99001 4.35488 6.56001 4.24488 6.10001 4.24488C4.39001 4.24488 2.99001 5.63488 2.99001 7.35488C2.99001 8.40488 3.51001 9.32488 4.31001 9.88488C4.28001 10.1649 4.26001 10.4449 4.26001 10.7349C4.26001 13.8949 6.17001 16.6149 8.89001 17.8149C8.89001 17.8349 8.89001 17.8649 8.89001 17.8849C8.89001 19.5949 10.28 20.9949 12 20.9949C13.72 20.9949 15.11 19.6049 15.11 17.8849C15.11 17.8649 15.11 17.8349 15.11 17.8149C17.83 16.6149 19.74 13.8949 19.74 10.7349C19.74 10.4449 19.72 10.1649 19.69 9.88488C20.49 9.32488 21.01 8.39488 21.01 7.35488H20.99ZM3.99001 7.35488C3.99001 6.19488 4.93001 5.24488 6.10001 5.24488C6.24001 5.24488 6.38001 5.25488 6.52001 5.28488C6.88001 5.35488 7.21001 5.53488 7.48001 5.76488C7.93001 6.15488 8.22001 6.71488 8.22001 7.35488C8.22001 8.51488 7.28001 9.46488 6.11001 9.46488C5.87001 9.46488 5.64001 9.41488 5.42001 9.34488C5.08001 9.22488 4.78001 9.02488 4.54001 8.75488C4.21001 8.38488 4.00001 7.89488 4.00001 7.36488L3.99001 7.35488ZM11.99 19.9949C10.93 19.9949 10.06 19.2049 9.91001 18.1749C9.90001 18.0749 9.88001 17.9849 9.88001 17.8849C9.88001 17.6349 9.93001 17.3949 10.01 17.1749C10.3 16.3649 11.07 15.7849 11.98 15.7849C12.89 15.7849 13.66 16.3649 13.95 17.1749C14.03 17.3949 14.08 17.6349 14.08 17.8849C14.08 17.9849 14.06 18.0749 14.05 18.1749C13.91 19.1949 13.03 19.9949 11.97 19.9949H11.99ZM18.72 10.7449C18.72 13.4149 17.15 15.7249 14.89 16.8049C14.45 15.6249 13.32 14.7849 11.99 14.7849C10.66 14.7849 9.53001 15.6249 9.09001 16.8049C6.83001 15.7149 5.26001 13.4149 5.26001 10.7449C5.26001 10.6049 5.27001 10.4749 5.28001 10.3449C5.54001 10.4149 5.81001 10.4649 6.10001 10.4649C7.81001 10.4649 9.21001 9.07488 9.21001 7.35488C9.21001 6.48488 8.85001 5.70488 8.27001 5.13488C9.34001 4.42488 10.62 4.00488 12 4.00488C13.38 4.00488 14.66 4.42488 15.73 5.13488C15.15 5.69488 14.79 6.48488 14.79 7.35488C14.79 9.06488 16.18 10.4649 17.9 10.4649C18.18 10.4649 18.45 10.4149 18.72 10.3449C18.72 10.4749 18.74 10.6149 18.74 10.7449H18.72ZM19.45 8.75488C19.21 9.02488 18.91 9.22488 18.57 9.34488C18.35 9.42488 18.12 9.46488 17.88 9.46488C16.72 9.46488 15.77 8.52488 15.77 7.35488C15.77 6.71488 16.06 6.15488 16.51 5.76488C16.78 5.53488 17.1 5.35488 17.47 5.28488C17.6 5.25488 17.74 5.24488 17.89 5.24488C19.05 5.24488 20 6.18488 20 7.35488C20 7.89488 19.79 8.37488 19.46 8.74488L19.45 8.75488Z" fill="#002EFF"/>
</svg>
