<svg width="32" height="32" viewBox="0 0 32 32" fill="none" xmlns="http://www.w3.org/2000/svg">
<path d="M21.3606 29.3133H10.6406C8.42729 29.3133 6.64062 27.5267 6.64062 25.3133V6.67334C6.64062 4.46001 8.42729 2.67334 10.6406 2.67334H17.734C18.054 2.67334 18.3606 2.78001 18.6006 2.99334L24.894 10.5933C25.1873 10.8467 25.3606 11.22 25.3606 11.6067V25.3267C25.3606 27.54 23.574 29.3267 21.3606 29.3267V29.3133ZM10.6406 27.98H21.3606C22.8273 27.98 24.0273 26.78 24.0273 25.3133V11.5933L17.734 3.99334H10.6406C9.17396 3.99334 7.97396 5.19334 7.97396 6.66001V25.3133C7.97396 26.78 9.17396 27.98 10.6406 27.98Z" fill="white"/>
<path d="M24.6953 11.9533H18.6419C17.9086 11.9533 17.3086 11.3533 17.3086 10.62V3.34H18.6419V10.6333H24.6953V11.9667V11.9533Z" fill="white"/>
<path d="M22.0286 18.6336H9.89526C9.57526 18.6336 9.30859 18.3403 9.30859 17.967C9.30859 17.5936 9.57526 17.3003 9.89526 17.3003H22.0286C22.3486 17.3003 22.6153 17.5936 22.6153 17.967C22.6153 18.3403 22.3486 18.6336 22.0286 18.6336Z" fill="#42E8B4"/>
<path d="M22.0286 21.3136H9.89526C9.57526 21.3136 9.30859 21.0203 9.30859 20.647C9.30859 20.2736 9.57526 19.9803 9.89526 19.9803H22.0286C22.3486 19.9803 22.6153 20.2736 22.6153 20.647C22.6153 21.0203 22.3486 21.3136 22.0286 21.3136Z" fill="#42E8B4"/>
<path d="M16.7486 23.967H9.89526C9.57526 23.967 9.30859 23.6736 9.30859 23.3003C9.30859 22.927 9.57526 22.6336 9.89526 22.6336H16.7486C17.0686 22.6336 17.3353 22.927 17.3353 23.3003C17.3353 23.6736 17.0686 23.967 16.7486 23.967Z" fill="#42E8B4"/>
</svg>
