<svg width="48" height="48" viewBox="0 0 48 48" fill="none" xmlns="http://www.w3.org/2000/svg">
<path d="M32.04 43.97H15.96C12.64 43.97 9.96002 41.29 9.96002 37.97V10.01C9.96002 6.69 12.64 4.01 15.96 4.01H26.6C27.08 4.01 27.54 4.17 27.9 4.49L37.34 15.89C37.78 16.27 38.04 16.83 38.04 17.41V37.99C38.04 41.31 35.36 43.99 32.04 43.99V43.97ZM15.96 41.97H32.04C34.24 41.97 36.04 40.17 36.04 37.97V17.39L26.6 5.99H15.96C13.76 5.99 11.96 7.79 11.96 9.99V37.97C11.96 40.17 13.76 41.97 15.96 41.97Z" fill="#002EFF"/>
<path d="M37.04 17.93H27.96C26.86 17.93 25.96 17.03 25.96 15.93V5.01H27.96V15.95H37.04V17.95V17.93Z" fill="#002EFF"/>
<path d="M33.04 27.9504H14.84C14.36 27.9504 13.96 27.5104 13.96 26.9504C13.96 26.3904 14.36 25.9504 14.84 25.9504H33.04C33.52 25.9504 33.92 26.3904 33.92 26.9504C33.92 27.5104 33.52 27.9504 33.04 27.9504Z" fill="#FF3D00"/>
<path d="M33.04 31.9705H14.84C14.36 31.9705 13.96 31.5305 13.96 30.9705C13.96 30.4105 14.36 29.9705 14.84 29.9705H33.04C33.52 29.9705 33.92 30.4105 33.92 30.9705C33.92 31.5305 33.52 31.9705 33.04 31.9705Z" fill="#FF3D00"/>
<path d="M25.12 35.9504H14.84C14.36 35.9504 13.96 35.5104 13.96 34.9504C13.96 34.3904 14.36 33.9504 14.84 33.9504H25.12C25.6 33.9504 26 34.3904 26 34.9504C26 35.5104 25.6 35.9504 25.12 35.9504Z" fill="#FF3D00"/>
</svg>
