<svg width="32" height="32" viewBox="0 0 32 32" fill="none" xmlns="http://www.w3.org/2000/svg">
<path fill-rule="evenodd" clip-rule="evenodd" d="M15.1715 5.6714V19.7459L10.5141 14.6518C10.2083 14.3174 9.68147 14.2872 9.33744 14.5846C8.99342 14.8819 8.96243 15.394 9.26823 15.7285L14.7591 21.7341C15.4222 22.4594 16.5877 22.4594 17.2508 21.7341L22.7417 15.7285C23.0475 15.394 23.0165 14.8819 22.6724 14.5846C22.3284 14.2872 21.8016 14.3174 21.4958 14.6518L16.8384 19.7459V5.6714C16.8384 5.22389 16.4652 4.86111 16.0049 4.86111C15.5447 4.86111 15.1715 5.22389 15.1715 5.6714ZM2.66998 19.4463V21.8771C2.66998 24.1147 4.5357 25.9286 6.83717 25.9286H25.1728C27.4743 25.9286 29.34 24.1147 29.34 21.8771V19.4463C29.34 18.9988 28.9668 18.636 28.5065 18.636C28.0463 18.636 27.6731 18.9988 27.6731 19.4463V21.8771C27.6731 23.2197 26.5537 24.308 25.1728 24.308H6.83717C5.45629 24.308 4.33686 23.2197 4.33686 21.8771V19.4463C4.33686 18.9988 3.96372 18.636 3.50342 18.636C3.04313 18.636 2.66998 18.9988 2.66998 19.4463Z" fill="#002EFF"/>
</svg>
