<svg width="24" height="24" viewBox="0 0 24 24" fill="none" xmlns="http://www.w3.org/2000/svg">
<path d="M17 14.9756C17 17.2856 15.43 19.2056 13.32 19.7956C13.07 19.3256 12.57 18.9956 12 18.9956C11.17 18.9956 10.5 19.6656 10.5 20.4956C10.5 21.3256 11.17 21.9956 12 21.9956C12.72 21.9956 13.32 21.4856 13.47 20.8056C16.07 20.1456 18 17.7956 18 14.9756H17ZM12 20.9956C11.72 20.9956 11.5 20.7756 11.5 20.4956C11.5 20.2156 11.72 19.9956 12 19.9956C12.28 19.9956 12.5 20.2156 12.5 20.4956C12.5 20.7756 12.28 20.9856 12.01 20.9956C12.01 20.9956 12.01 20.9956 12 20.9956Z" fill="#002EFF"/>
<path d="M12 2.00488C8.69 2.00488 6 4.69488 6 8.02488V9.00488H4C3.45 9.00488 3 9.45488 3 10.0049V15.0049C3 15.5549 3.45 16.0049 4 16.0049H6C6.55 16.0049 7 15.5549 7 15.0049V8.02488C7 5.25488 9.24 3.00488 12 3.00488C14.76 3.00488 17 5.25488 17 8.02488V15.0049C17 15.5549 17.45 16.0049 18 16.0049H20C20.55 16.0049 21 15.5549 21 15.0049V10.0049C21 9.45488 20.55 9.00488 20 9.00488H18V8.02488C18 4.70488 15.31 2.00488 12 2.00488ZM18 15.0049V10.0049H20V15.0049H18ZM4 15.0049V10.0049H6V15.0049H4Z" fill="#002EFF"/>
</svg>
