<svg width="24" height="24" viewBox="0 0 24 24" fill="none" xmlns="http://www.w3.org/2000/svg">
<path fill-rule="evenodd" clip-rule="evenodd" d="M9.38 3H7.38C6.76 3 6.38 3.5 6.38 4V9C6.38 9.6 6.87 10 7.38 10H9.38C9.86 10 10.38 9.62 10.38 9V7H13.62L13.62 9C13.62 9.6 14.11 10 14.62 10H16.62C17.1 10 17.62 9.62 17.62 9V4C17.62 3.5 17.23 3 16.62 3H14.62C14 3 13.62 3.5 13.62 4L13.62 6H10.38V4C10.38 3.5 9.99001 3 9.38 3ZM9.38 4V9H7.38V4H9.38ZM16.62 9V4H14.62V9H16.62Z" fill="#002EFF"/>
<path fill-rule="evenodd" clip-rule="evenodd" d="M17.62 6H20C20.55 6 21 6.45 21 7V20C21 20.56 20.55 21 20 21H4C3.45 21 3 20.56 3 20V7C3 6.45 3.45 6 4 6H6.38V7H4V10.9702H20V7H17.62V6ZM20 11.9702H4V20H20V11.9702Z" fill="#002EFF"/>
</svg>
