<svg width="24" height="24" viewBox="0 0 24 24" fill="none" xmlns="http://www.w3.org/2000/svg">
<g clip-path="url(#clip0_8515_34239)">
<path fill-rule="evenodd" clip-rule="evenodd" d="M24 12C24 5.37257 18.6274 0 12 0C5.37257 0 0 5.37257 0 12C0 17.9895 4.38817 22.9539 10.125 23.8542V15.4687H7.07819V12H10.125V9.35637C10.125 6.34871 11.9165 4.68746 14.6575 4.68746C15.9705 4.68746 17.3437 4.92182 17.3437 4.92182V7.87503H15.8305C14.3399 7.87503 13.875 8.80013 13.875 9.74904V12H17.2032L16.6711 15.4687H13.875V23.8542C19.6118 22.9539 24 17.9895 24 12Z" fill="#1877F2"/>
<path fill-rule="evenodd" clip-rule="evenodd" d="M16.6711 15.4687L17.2031 12H13.875V9.74908C13.875 8.80017 14.3398 7.87506 15.8307 7.87506H17.3437V4.92185C17.3437 4.92185 15.9704 4.6875 14.6577 4.6875C11.9164 4.6875 10.1249 6.34874 10.1249 9.35621V12H7.07812V15.4687H10.1249V23.8542C10.736 23.95 11.3622 24 11.9999 24C12.6379 24 13.2641 23.95 13.875 23.8542V15.4687H16.6711Z" fill="white"/>
</g>
<defs>
<clipPath id="clip0_8515_34239">
<rect width="24" height="24" fill="white"/>
</clipPath>
</defs>
</svg>
