<svg width="48" height="48" viewBox="0 0 48 48" fill="none" xmlns="http://www.w3.org/2000/svg">
<path d="M41.5985 38.8382L37.3499 32.8549C36.9709 32.3346 36.3725 32.0145 35.7342 32.0145H29.8101C30.5082 31.114 31.2263 30.2135 31.8845 29.2729C34.8366 25.0306 36.2129 21.5286 36.2129 18.2668C36.2129 13.9844 34.6172 10.6826 31.4856 8.46137C28.9125 6.64036 25.8407 6 23.9857 6C22.1307 6 19.039 6.64036 16.4858 8.46137C13.3542 10.6826 11.7585 13.9844 11.7585 18.2668C11.7585 22.0289 13.1348 25.6909 16.0869 29.7332C16.6653 30.5136 17.2637 31.274 17.8821 32.0145H12.2372C11.5989 32.0145 10.9806 32.3346 10.6215 32.8549L6.37294 38.8382C5.43545 40.159 6.37294 42 7.9886 42H40.0028C41.6184 42 42.5758 40.159 41.6184 38.8382H41.5985ZM17.6627 28.5525C14.9499 24.8104 13.7332 21.6287 13.7332 18.2668C13.7332 14.6648 15.0497 11.9233 17.6228 10.0823C19.7969 8.54141 22.4099 7.9811 23.9658 7.9811C25.5216 7.9811 28.1346 8.5214 30.3087 10.0823C32.8818 11.9033 34.1983 14.6648 34.1983 18.2668C34.1983 21.1084 32.9417 24.2501 30.229 28.1323C29.3114 29.453 28.2941 30.7538 27.2569 32.0345C26.7184 32.7148 26.1599 33.3752 25.6014 34.0356C25.382 34.2957 25.1625 34.5759 24.9431 34.836C24.604 35.2362 24.265 35.6365 23.9259 36.0367C23.3873 35.4163 22.8288 34.776 22.2903 34.1556L22.1706 34.0356L21.5722 33.3552C21.2131 32.955 20.8142 32.4747 20.4352 32.0345C19.4977 30.9339 18.5204 29.7732 17.6427 28.5725L17.6627 28.5525ZM7.94871 39.9989L12.1973 34.0156H19.5376C19.7171 34.2157 19.9166 34.4558 20.0961 34.6559L20.8142 35.4564C21.6121 36.3769 22.4299 37.2774 23.2078 38.1979C23.3873 38.418 23.6666 38.5581 23.9658 38.5581C24.265 38.5581 24.5442 38.418 24.7437 38.1979C25.3221 37.4975 25.9006 36.7971 26.5189 36.0767C27.0774 35.3963 27.6559 34.6959 28.2144 34.0156H35.7342L39.9828 39.9989H7.94871Z" fill="#002EFF"/>
<path d="M24 23C21.22 23 18.98 20.74 18.98 17.98C18.98 15.22 21.24 12.96 24 12.96C26.76 12.96 29.02 15.22 29.02 17.98C29.02 20.74 26.76 23 24 23ZM24 14.94C22.34 14.94 20.98 16.3 20.98 17.96C20.98 19.62 22.34 20.98 24 20.98C25.66 20.98 27.02 19.62 27.02 17.96C27.02 16.3 25.66 14.94 24 14.94Z" fill="#FF3D00"/>
</svg>
