<svg width="24" height="24" viewBox="0 0 24 24" fill="none" xmlns="http://www.w3.org/2000/svg">
<path fill-rule="evenodd" clip-rule="evenodd" d="M12 24C18.6274 24 24 18.6274 24 12C24 5.37258 18.6274 0 12 0C5.37258 0 0 5.37258 0 12C0 18.6274 5.37258 24 12 24Z" fill="white"/>
<path d="M18.5922 9.0826C18.9827 8.69207 18.9827 8.05891 18.5922 7.66838C18.2016 7.27786 17.5685 7.27786 17.1779 7.66838L9.63003 15.2163L6.77254 12.3588C6.38201 11.9683 5.74885 11.9683 5.35832 12.3588C4.9678 12.7493 4.9678 13.3825 5.35832 13.773L8.89386 17.3086C8.94377 17.3585 8.99764 17.402 9.05446 17.4391C9.4451 17.7187 9.99175 17.683 10.3426 17.3322L18.5922 9.0826Z" fill="#00A364"/>
</svg>
