<svg width="24" height="24" viewBox="0 0 24 24" fill="none" xmlns="http://www.w3.org/2000/svg">
<path d="M20.69 10.48L12.78 3.3C12.58 3.1 12.32 3 12.05 3C11.78 3 11.51 3.1 11.31 3.31L4.17 9.63L3.31 10.46C3.11 10.65 3 10.92 3 11.2V17.99C3 19.65 4.34 20.99 6 20.99H10V16.86C10 15.81 10.96 14.97 12.01 14.97C13.06 14.97 14 15.81 14 16.86V20.99L18 21C19.66 21 21 19.66 21 18V11.21C21 10.94 20.89 10.68 20.7 10.49L20.69 10.48ZM19.99 12.78V18C19.99 19.1 19.09 20 17.99 20L14.99 19.99V16.86C14.99 15.26 13.6 13.97 12 13.97C10.4 13.97 8.99 15.26 8.99 16.86V19.99H5.99C4.88 19.99 3.99 19.09 3.99 17.99V11.18L12.02 4.01C12.02 4.01 12.02 4.01 12.04 4.01H12.06L19.98 11.2V12.79L19.99 12.78Z" fill="#002EFF"/>
</svg>
