<svg width="24" height="24" viewBox="0 0 24 24" fill="none" xmlns="http://www.w3.org/2000/svg">
<path d="M20.9898 11.4656C20.8598 9.33562 19.9998 7.40563 18.6398 5.92563C18.3998 5.66563 18.1498 5.41562 17.8798 5.18562C16.5198 4.01562 14.7998 3.23562 12.9098 3.04562C12.7598 3.03562 12.5998 3.02562 12.4498 3.02562C12.4098 3.02562 12.3698 3.02562 12.3198 3.02562C12.2398 3.02562 12.1498 3.01562 12.0698 3.01562H11.9598C11.8798 3.01562 11.7998 3.01562 11.7098 3.02562C11.6598 3.02562 11.6198 3.02562 11.5698 3.02562C11.3998 3.02562 11.2298 3.03562 11.0698 3.05562C9.19977 3.24562 7.49977 4.02562 6.14977 5.18562C5.87977 5.41562 5.62977 5.66563 5.38977 5.92563C4.02977 7.40563 3.16977 9.33562 3.03977 11.4656C3.02977 11.6456 3.00977 11.8156 3.00977 12.0056C3.00977 12.1656 3.02977 12.3156 3.02977 12.4656C3.13977 14.6256 4.00977 16.5756 5.37977 18.0756C5.61977 18.3356 5.86977 18.5856 6.13977 18.8156C7.52977 20.0056 9.27977 20.7856 11.2098 20.9556C11.3398 20.9656 11.4698 20.9656 11.5998 20.9756C11.6198 20.9756 11.6398 20.9756 11.6598 20.9756C11.7498 20.9756 11.8498 20.9856 11.9398 20.9856H12.0598C12.1498 20.9856 12.2398 20.9756 12.3398 20.9756C12.3598 20.9756 12.3898 20.9756 12.4098 20.9756C12.5498 20.9756 12.6898 20.9756 12.8298 20.9556C14.7398 20.7756 16.4798 20.0056 17.8598 18.8156C18.1298 18.5856 18.3798 18.3356 18.6198 18.0756C19.9898 16.5756 20.8598 14.6256 20.9698 12.4656C20.9698 12.3156 20.9898 12.1556 20.9898 12.0056C20.9898 11.8256 20.9698 11.6456 20.9598 11.4656H20.9898ZM18.0298 6.74562C19.1498 8.02562 19.8698 9.66562 19.9898 11.4656H18.5098C18.4398 9.74562 18.0598 8.34562 17.5098 7.22563C17.6998 7.07562 17.8798 6.91562 18.0298 6.74562ZM17.3198 6.03563C17.2198 6.13563 17.1198 6.24563 16.9998 6.34563C16.6798 5.85563 16.3398 5.43563 15.9798 5.07563C16.4598 5.35563 16.9098 5.67562 17.3198 6.04562V6.03563ZM17.4998 11.4656H15.1698C15.1398 10.3856 15.0098 9.40562 14.8298 8.53562C15.4998 8.34562 16.1198 8.09563 16.6598 7.78563C17.1198 8.76563 17.4298 9.98562 17.4998 11.4656ZM16.1698 6.90563C15.7098 7.16563 15.1898 7.38562 14.5998 7.55562C14.2198 6.15562 13.7198 5.06563 13.2898 4.30563C14.1698 4.75563 15.2998 5.55562 16.1698 6.91562V6.90563ZM14.1698 12.4656C14.1398 13.4856 14.0298 14.4156 13.8598 15.2456C13.2698 15.1456 12.6498 15.0756 12.0098 15.0756C11.3698 15.0756 10.7598 15.1356 10.1798 15.2356C10.0098 14.4056 9.88977 13.4756 9.84977 12.4556H14.1698V12.4656ZM9.83977 11.4656C9.86977 10.4656 9.97977 9.56562 10.1398 8.75562C10.7298 8.86562 11.3598 8.92562 11.9998 8.92562C12.6398 8.92562 13.2498 8.86562 13.8398 8.76562C14.0098 9.57562 14.1198 10.4856 14.1598 11.4756H9.83977V11.4656ZM11.9998 4.12562C12.4198 4.76562 13.1198 6.00563 13.6098 7.77563C13.0998 7.86563 12.5598 7.91562 11.9998 7.91562C11.4398 7.91562 10.8898 7.86563 10.3698 7.77563C10.8598 5.99563 11.5598 4.76562 11.9898 4.12562H11.9998ZM10.7298 4.25563C10.2898 5.02562 9.76977 6.12563 9.38977 7.55562C8.78977 7.37563 8.23977 7.15563 7.77977 6.88563C8.65977 5.48563 9.82977 4.69563 10.7298 4.26563V4.25563ZM7.89977 5.14562C7.57977 5.48562 7.25977 5.86563 6.96977 6.30563C6.86977 6.21563 6.76977 6.12563 6.68977 6.03563C7.05977 5.70563 7.46977 5.40562 7.89977 5.14562ZM7.29977 7.76562C7.84977 8.07562 8.46977 8.33562 9.15977 8.53562C8.97977 9.41562 8.85977 10.3956 8.83977 11.4756H6.50977C6.55977 9.97563 6.85977 8.74563 7.30977 7.76562H7.29977ZM9.17977 15.4756C8.50977 15.6656 7.89977 15.9156 7.35977 16.2156C6.88977 15.2256 6.56977 13.9856 6.50977 12.4656H8.83977C8.86977 13.5656 8.99977 14.5756 9.18977 15.4656L9.17977 15.4756ZM5.97977 6.75563C6.12977 6.91563 6.28977 7.06562 6.46977 7.20562C5.91977 8.32562 5.55977 9.73563 5.49977 11.4756H4.01977C4.13977 9.67562 4.85977 8.03562 5.97977 6.75563ZM5.97977 17.2656C4.84977 15.9656 4.12977 14.3056 4.01977 12.4756H5.49977C5.56977 14.2256 5.94977 15.6456 6.50977 16.7756C6.30977 16.9256 6.12977 17.0956 5.96977 17.2656H5.97977ZM6.68977 17.9756C6.78977 17.8656 6.89977 17.7556 7.01977 17.6556C7.35977 18.1656 7.71977 18.6156 8.10977 18.9956C7.59977 18.7056 7.12977 18.3656 6.68977 17.9756ZM7.84977 17.0956C8.29977 16.8356 8.82977 16.6256 9.40977 16.4556C9.78977 17.8356 10.2898 18.9156 10.7098 19.6756C9.83977 19.2256 8.71977 18.4356 7.83977 17.0956H7.84977ZM11.9998 19.8556C11.5798 19.2156 10.8898 17.9956 10.3898 16.2356C10.8998 16.1456 11.4298 16.0956 11.9898 16.0956C12.5498 16.0956 13.0998 16.1456 13.6098 16.2356C13.1198 18.0056 12.4198 19.2256 11.9898 19.8556H11.9998ZM13.2698 19.7256C13.7098 18.9656 14.2198 17.8756 14.5998 16.4656C15.1998 16.6356 15.7398 16.8656 16.1998 17.1356C15.3198 18.5256 14.1598 19.3056 13.2698 19.7356V19.7256ZM16.0298 18.9156C16.3698 18.5656 16.7098 18.1656 17.0098 17.6956C17.1198 17.7856 17.2198 17.8856 17.3098 17.9856C16.9198 18.3356 16.4898 18.6456 16.0298 18.9156ZM16.6798 16.2556C16.1298 15.9456 15.5098 15.6856 14.8298 15.4956C15.0098 14.5956 15.1298 13.5956 15.1598 12.4856H17.4998C17.4498 14.0156 17.1398 15.2656 16.6898 16.2556H16.6798ZM18.0098 17.2756C17.8598 17.1156 17.6898 16.9656 17.5098 16.8156C18.0698 15.6856 18.4398 14.2556 18.4898 12.4856H19.9698C19.8598 14.3156 19.1498 15.9756 18.0098 17.2756Z" fill="#002EFF"/>
</svg>
