<svg width="24" height="24" viewBox="0 0 24 24" fill="none" xmlns="http://www.w3.org/2000/svg">
<path d="M21.96 19.74L19.9 13.44L19.95 4C19.95 3.45 19.5 3 18.95 3H5.04999C4.49999 3 4.04999 3.45 4.04999 4L3.99999 13.44L2.02999 19.74C1.85999 20.37 2.33999 20.99 2.99999 20.99H20.99C21.65 20.99 22.12 20.37 21.96 19.74ZM2.99999 19.99L4.88999 14H19.02L21 19.99H2.99999ZM5.04999 3.99H18.95L18.9 13H4.99999L5.04999 4V3.99Z" fill="#002EFF"/>
<path d="M15.5 19H8.5C8.22 19 8 18.78 8 18.5C8 18.22 8.22 18 8.5 18H15.5C15.78 18 16 18.22 16 18.5C16 18.78 15.78 19 15.5 19Z" fill="#002EFF"/>
</svg>
