<svg width="55" height="40" viewBox="0 0 55 40" fill="none" xmlns="http://www.w3.org/2000/svg">
<path d="M46.3664 2.89823C45.7294 2.46906 44.7503 2.54211 44.1882 3.04433L40.5578 6.28141C39.9909 6.79276 40.0378 7.5735 40.6561 8.0118C40.6561 8.0118 46.254 12.0113 46.254 20.6131C46.254 29.2149 40.361 33.461 40.361 33.461C39.7614 33.9404 39.7427 34.7439 40.3095 35.2507L43.9071 38.4376C44.4693 38.9398 45.4577 39.0128 46.0948 38.5882C46.0948 38.5882 54.5455 32.9907 54.5455 20.6451C54.5455 8.29944 46.3711 2.90736 46.3711 2.90736" fill="#FF3D00"/>
<path d="M11.3925 23.0385C11.3925 23.0385 10.3432 22.9426 10.3432 23.7598C10.3432 28.4214 13.9127 31.7361 19.5059 31.7361C23.6657 31.7361 25.4411 30.7727 27.9567 28.9373C28.5422 28.5082 29.1606 28.1109 29.6431 28.6132C29.971 28.9602 34.3837 32.9277 34.3837 32.9277C34.9365 33.43 34.7866 34.0326 34.1916 34.5212C33.6061 35.0051 27.0104 40 19.431 40C9.50939 40 0 35.795 0 19.9612C0 7.20466 7.42013 0 18.2974 0C29.9897 0 36.5994 7.95343 36.5994 18.6828V21.3994C36.5994 22.5043 35.6766 23.043 34.9177 23.043H11.3925V23.0385ZM25.3146 12.1584C24.1951 9.83449 21.8528 8.1041 18.3067 8.1041C14.7606 8.1041 12.4278 9.83449 11.2942 12.1584C10.643 13.5829 10.4041 14.6376 10.3245 16.3589H26.289C26.2094 14.6376 25.9611 13.5875 25.3193 12.1584" fill="white"/>
</svg>
