<svg width="33" height="24" viewBox="0 0 33 24" fill="none" xmlns="http://www.w3.org/2000/svg">
<path d="M27.8199 1.73674C27.4376 1.47924 26.8502 1.52307 26.5129 1.8244L24.3347 3.76665C23.9946 4.07346 24.0227 4.5419 24.3937 4.80488C24.3937 4.80488 27.7524 7.20461 27.7524 12.3657C27.7524 17.5267 24.2166 20.0744 24.2166 20.0744C23.8569 20.362 23.8456 20.8442 24.1857 21.1482L26.3443 23.0603C26.6816 23.3617 27.2746 23.4055 27.6569 23.1507C27.6569 23.1507 32.7273 19.7922 32.7273 12.3848C32.7273 4.97747 27.8227 1.74222 27.8227 1.74222" fill="#FF3D00"/>
<path d="M6.83552 13.8231C6.83552 13.8231 6.20593 13.7656 6.20593 14.2559C6.20593 17.0528 8.34765 19.0417 11.7036 19.0417C14.1994 19.0417 15.2647 18.4636 16.774 17.3624C17.1253 17.1049 17.4963 16.8666 17.7858 17.1679C17.9826 17.3761 20.6302 19.7566 20.6302 19.7566C20.9619 20.058 20.8719 20.4196 20.515 20.7127C20.1636 21.0031 16.2062 24 11.6586 24C5.70563 24 0 21.477 0 11.9767C0 4.32279 4.45208 0 10.9784 0C17.9938 0 21.9597 4.77206 21.9597 11.2097V12.8396C21.9597 13.5026 21.406 13.8258 20.9506 13.8258H6.83552V13.8231ZM15.1888 7.29506C14.517 5.9007 13.1117 4.86246 10.984 4.86246C8.85638 4.86246 7.45667 5.9007 6.77649 7.29506C6.38581 8.14976 6.24247 8.78256 6.19469 9.81532H15.7734C15.7256 8.78256 15.5767 8.15249 15.1916 7.29506" fill="white"/>
</svg>
