<svg width="33" height="24" viewBox="0 0 33 24" fill="none" xmlns="http://www.w3.org/2000/svg">
<path d="M27.6602 1.73699C27.2876 1.47948 26.7151 1.52331 26.3863 1.82465L24.2633 3.76689C23.9318 4.07371 23.9592 4.54215 24.3208 4.80513C24.3208 4.80513 27.5944 7.20485 27.5944 12.3659C27.5944 17.527 24.1482 20.0746 24.1482 20.0746C23.7976 20.3623 23.7866 20.8444 24.1181 21.1485L26.222 23.0606C26.5507 23.3619 27.1287 23.4057 27.5013 23.151C27.5013 23.151 32.4432 19.7925 32.4432 12.3851C32.4432 4.97771 27.6629 1.74246 27.6629 1.74246" fill="#FF3D00"/>
<path d="M7.20769 13.8231C7.20769 13.8231 6.59406 13.7656 6.59406 14.2559C6.59406 17.0528 8.6815 19.0417 11.9524 19.0417C14.385 19.0417 15.4232 18.4636 16.8943 17.3624C17.2367 17.1049 17.5983 16.8666 17.8804 17.1679C18.0722 17.3761 20.6527 19.7566 20.6527 19.7566C20.976 20.058 20.8883 20.4196 20.5404 20.7127C20.198 21.0031 16.3409 24 11.9085 24C6.10645 24 0.545441 21.477 0.545441 11.9767C0.545441 4.32279 4.88467 0 11.2456 0C18.0832 0 21.9485 4.77206 21.9485 11.2097V12.8396C21.9485 13.5026 21.4088 13.8258 20.965 13.8258H7.20769V13.8231ZM15.3492 7.29506C14.6945 5.9007 13.3248 4.86246 11.2511 4.86246C9.17733 4.86246 7.8131 5.9007 7.15017 7.29506C6.76939 8.14976 6.62968 8.78256 6.58311 9.81532H15.919C15.8725 8.78256 15.7273 8.15249 15.352 7.29506" fill="#002EFF"/>
</svg>
