<svg width="24" height="24" viewBox="0 0 24 24" fill="none" xmlns="http://www.w3.org/2000/svg">
<path fill-rule="evenodd" clip-rule="evenodd" d="M9.0131 0C4.0353 0 0 4.0353 0 9.0131C0 13.9909 4.0353 18.0262 9.0131 18.0262C11.1752 18.0262 13.1596 17.2649 14.7126 15.9957L22.2886 23.6106C22.6787 24.0027 23.3128 24.0043 23.7049 23.6142C24.097 23.2241 24.0986 22.59 23.7085 22.1979L16.1141 14.5646C17.3121 13.0344 18.0262 11.1071 18.0262 9.0131C18.0262 4.0353 13.9909 0 9.0131 0ZM2.00291 9.0131C2.00291 5.14148 5.14148 2.00291 9.0131 2.00291C12.8847 2.00291 16.0233 5.14148 16.0233 9.0131C16.0233 12.8847 12.8847 16.0233 9.0131 16.0233C5.14148 16.0233 2.00291 12.8847 2.00291 9.0131Z" fill="#383C47"/>
</svg>
