<svg width="32" height="32" viewBox="0 0 32 32" fill="none" xmlns="http://www.w3.org/2000/svg">
<path fill-rule="evenodd" clip-rule="evenodd" d="M28 4.8C28 5.24183 27.6418 5.6 27.2 5.6H4.8C4.35817 5.6 4 5.24183 4 4.8C4 4.35817 4.35817 4 4.8 4H27.2C27.6418 4 28 4.35817 28 4.8ZM28 27.2C28 27.6418 27.6418 28 27.2 28H4.8C4.35817 28 4 27.6418 4 27.2C4 26.7582 4.35817 26.4 4.8 26.4H27.2C27.6418 26.4 28 26.7582 28 27.2ZM12 16C12 16.4418 12.3582 16.8 12.8 16.8L27.2 16.8C27.6418 16.8 28 16.4418 28 16C28 15.5582 27.6418 15.2 27.2 15.2L12.8 15.2C12.3582 15.2 12 15.5582 12 16Z" fill="#002EFF"/>
</svg>
