<svg width="48" height="48" viewBox="0 0 48 48" fill="none" xmlns="http://www.w3.org/2000/svg">
<path d="M33.88 37.76C33.02 32.98 28.86 29.5 24 29.5C19.14 29.5 14.98 32.98 14.12 37.76L12.16 37.4C13.18 31.66 18.18 27.5 24 27.5C29.82 27.5 34.82 31.66 35.84 37.4L33.88 37.76Z" fill="#FF3D00"/>
<path d="M24 29.1599C19.24 29.1599 15.38 25.2999 15.38 20.5399C15.38 15.7799 19.24 11.9199 24 11.9199C28.76 11.9199 32.62 15.7799 32.62 20.5399C32.62 25.2999 28.76 29.1599 24 29.1599ZM24 13.9199C20.34 13.9199 17.38 16.8999 17.38 20.5399C17.38 24.1799 20.36 27.1599 24 27.1599C27.64 27.1599 30.62 24.1799 30.62 20.5399C30.62 16.8999 27.64 13.9199 24 13.9199Z" fill="#FF3D00"/>
<path d="M24 42C14.08 42 6 33.92 6 24C6 14.08 14.08 6 24 6C33.92 6 42 14.08 42 24C42 33.92 33.92 42 24 42ZM24 8C15.18 8 8 15.18 8 24C8 32.82 15.18 40 24 40C32.82 40 40 32.82 40 24C40 15.18 32.82 8 24 8Z" fill="#002EFF"/>
</svg>
