<svg width="24" height="24" viewBox="0 0 24 24" fill="none" xmlns="http://www.w3.org/2000/svg">
<path d="M16.94 18.88C16.51 16.49 14.43 14.75 12 14.75C9.57002 14.75 7.49002 16.49 7.06002 18.88L6.08002 18.7C6.59002 15.83 9.09002 13.75 12 13.75C14.91 13.75 17.41 15.83 17.92 18.7L16.94 18.88Z" fill="#002EFF"/>
<path d="M12 14.58C9.62 14.58 7.69 12.65 7.69 10.27C7.69 7.88996 9.62 5.95996 12 5.95996C14.38 5.95996 16.31 7.88996 16.31 10.27C16.31 12.65 14.38 14.58 12 14.58ZM12 6.95996C10.17 6.95996 8.69 8.44996 8.69 10.27C8.69 12.09 10.18 13.58 12 13.58C13.82 13.58 15.31 12.09 15.31 10.27C15.31 8.44996 13.82 6.95996 12 6.95996Z" fill="#002EFF"/>
<path d="M12 21C7.04 21 3 16.96 3 12C3 7.04 7.04 3 12 3C16.96 3 21 7.04 21 12C21 16.96 16.96 21 12 21ZM12 4C7.59 4 4 7.59 4 12C4 16.41 7.59 20 12 20C16.41 20 20 16.41 20 12C20 7.59 16.41 4 12 4Z" fill="#002EFF"/>
</svg>
