<svg width="24" height="24" viewBox="0 0 24 24" fill="none" xmlns="http://www.w3.org/2000/svg">
<path d="M6.68263 8.99632C6.94574 8.99632 7.12114 9.12683 7.21859 9.23725C7.38425 9.41795 7.48169 9.66891 7.47195 9.91988C7.41348 11.6766 7.77403 13.0519 8.54386 14.0156C9.33318 15.0095 10.5025 15.5114 12.013 15.5114C13.5234 15.5114 14.6927 15.0095 15.4821 14.0156C16.2519 13.0519 16.6124 11.6766 16.554 9.91988C16.554 9.66891 16.6417 9.41795 16.8073 9.23725C16.9048 9.12683 17.0802 8.99632 17.3433 8.99632C17.6649 8.99632 18.0059 9.22721 18.0254 9.61872C18.1034 11.0743 17.889 12.5299 17.431 13.7145C17.0217 14.7685 16.4468 15.5114 15.8621 15.7724C15.6477 15.8627 15.4626 16.0033 15.3261 16.1639C15.2092 16.2944 15.1313 16.445 15.0923 16.6056L15.0533 16.7361V19.828C15.0533 19.9284 14.9753 20.0087 14.8779 20.0087H9.13829C9.04084 20.0087 8.96288 19.9284 8.96288 19.828V16.7361L8.9239 16.6056C8.88492 16.445 8.80697 16.3044 8.69003 16.1739C8.55361 16.0133 8.36846 15.8728 8.15407 15.7824C7.56939 15.5315 6.99446 14.7786 6.58518 13.7245C6.12718 12.54 5.9128 11.0844 5.99076 9.62876C6.01025 9.23725 6.35131 9.00636 6.67288 9.00636M6.67288 8.0025C5.83484 8.0025 5.06502 8.64497 5.01629 9.56853C4.92859 11.2751 5.20144 12.8512 5.67893 14.0959C6.15642 15.3106 6.87752 16.3145 7.77403 16.706C7.85199 16.7361 7.9202 16.7863 7.94944 16.8264C7.96893 16.8465 7.97867 16.8666 7.97867 16.8666V19.8179C7.97867 20.4705 8.49514 21.0025 9.12854 21.0025H14.8681C15.5016 21.0025 16.018 20.4705 16.018 19.8179V16.8666C16.018 16.8666 16.018 16.8465 16.0473 16.8264C16.0862 16.7863 16.1447 16.7361 16.2227 16.706C17.1192 16.3145 17.8403 15.3206 18.3178 14.106C18.805 12.8612 19.0778 11.2851 18.9804 9.57856C18.9317 8.65501 18.1618 8.01254 17.3238 8.01254C16.2616 8.01254 15.521 8.96621 15.56 9.97007C15.6087 11.5361 15.2872 12.6705 14.7122 13.3932C14.147 14.106 13.27 14.5176 12.0032 14.5176C10.7364 14.5176 9.84965 14.106 9.2942 13.3932C8.71926 12.6705 8.39769 11.5361 8.44641 9.97007C8.47565 8.96621 7.73505 8.01254 6.68263 8.01254L6.67288 8.0025Z" fill="#002EFF"/>
<path d="M12 9.5425C12.82 9.5425 13.49 10.2125 13.49 11.0325C13.49 11.8525 12.82 12.5225 12 12.5225C11.18 12.5225 10.51 11.8525 10.51 11.0325C10.51 10.2125 11.18 9.5425 12 9.5425ZM12 8.5425C10.63 8.5425 9.51001 9.6525 9.51001 11.0325C9.51001 12.4125 10.62 13.5225 12 13.5225C13.38 13.5225 14.49 12.4125 14.49 11.0325C14.49 9.6525 13.38 8.5425 12 8.5425Z" fill="#002EFF"/>
<path d="M13.4 8.0525C13.34 8.0525 13.28 8.0425 13.23 8.0125L12 7.3625L10.77 8.0125C10.64 8.0725 10.49 8.0625 10.37 7.9825C10.25 7.9025 10.2 7.7525 10.22 7.6125L10.45 6.2425L9.46004 5.2725C9.36004 5.1725 9.32004 5.0225 9.37004 4.8925C9.41004 4.7525 9.53004 4.6625 9.67004 4.6425L11.04 4.4425L11.65 3.1925C11.78 2.9325 12.2 2.9325 12.32 3.1925L12.93 4.4425L14.3 4.6425C14.44 4.6625 14.56 4.7625 14.6 4.8925C14.64 5.0325 14.6 5.1825 14.51 5.2725L13.52 6.2425L13.75 7.6125C13.77 7.7525 13.72 7.8925 13.6 7.9825C13.54 8.0325 13.46 8.0525 13.38 8.0525H13.4ZM12 6.5625C12.06 6.5625 12.12 6.5725 12.17 6.6025L12.9 6.9825L12.76 6.1725C12.74 6.0525 12.78 5.9225 12.87 5.8425L13.46 5.2625L12.64 5.1425C12.52 5.1225 12.41 5.0525 12.36 4.9325L11.99 4.1925L11.62 4.9325C11.57 5.0425 11.46 5.1225 11.34 5.1425L10.52 5.2625L11.11 5.8425C11.2 5.9325 11.24 6.0525 11.22 6.1725L11.08 6.9825L11.81 6.6025C11.86 6.5725 11.92 6.5625 11.98 6.5625H12Z" fill="#002EFF"/>
<path d="M15.24 7.7825C15.11 7.7825 14.98 7.7325 14.89 7.6325C14.69 7.4325 14.69 7.1225 14.89 6.9225L16.8 5.0125C17 4.8125 17.31 4.8125 17.51 5.0125C17.71 5.2125 17.71 5.5225 17.51 5.7225L15.6 7.6325C15.5 7.7325 15.37 7.7825 15.25 7.7825H15.24Z" fill="#002EFF"/>
<path d="M8.75998 7.7825C8.62998 7.7825 8.49998 7.7325 8.40998 7.6325L6.49998 5.7225C6.29998 5.5225 6.29998 5.2125 6.49998 5.0125C6.69998 4.8125 7.00998 4.8125 7.20998 5.0125L9.11998 6.9225C9.31998 7.1225 9.31998 7.4325 9.11998 7.6325C9.01998 7.7325 8.88998 7.7825 8.76998 7.7825H8.75998Z" fill="#002EFF"/>
</svg>
