<svg width="24" height="24" viewBox="0 0 24 24" fill="none" xmlns="http://www.w3.org/2000/svg">
<path d="M12 2C7.04378 2 3 5.88685 3 10.663C3 13.1709 4.10945 15.4191 5.88249 17.0078L3.97465 20.5849C3.59101 21.4043 4.45161 22.2636 5.31221 21.9238L11.212 19.306C11.4712 19.3259 11.7304 19.3459 12 19.3459C16.9562 19.3459 21 15.4591 21 10.673C21 5.88685 16.9562 2 12 2ZM13.2028 18.2368C12.8088 18.2968 12.4147 18.3367 12 18.3367C11.6786 18.3367 11.3675 18.3168 11.0565 18.2768L9.34562 18.9462L4.90783 20.9846L6.70161 17.6573L7.1371 16.728C6.84677 16.5182 6.57719 16.2884 6.31797 16.0386C4.89747 14.6497 4.0265 12.7513 4.0265 10.663C4.0265 6.4364 7.59332 2.9892 11.9896 2.9892C16.3859 2.9892 19.9528 6.42641 19.9528 10.663C19.9528 14.4999 17.0184 17.6773 13.1924 18.2368H13.2028Z" fill="#002EFF"/>
<path d="M10.96 12.5797V12.2597C10.96 11.8597 11.06 11.5397 11.27 11.2897C11.47 11.0497 11.77 10.7897 12.15 10.5197C12.46 10.2997 12.69 10.1097 12.85 9.93969C13.01 9.76969 13.08 9.56969 13.08 9.32969C13.08 9.06969 12.98 8.86969 12.79 8.70969C12.6 8.54969 12.35 8.47969 12.03 8.47969C11.69 8.47969 11.42 8.55969 11.22 8.72969C11.02 8.89969 10.91 9.10969 10.91 9.37969V9.50969C10.91 9.63969 10.84 9.69969 10.71 9.69969L9.43001 9.64969C9.37001 9.64969 9.33001 9.63969 9.29001 9.60969C9.25001 9.57969 9.23001 9.54969 9.23001 9.50969V9.37969C9.23001 8.89969 9.35001 8.46969 9.59001 8.09969C9.83001 7.72969 10.16 7.43969 10.59 7.23969C11.02 7.03969 11.51 6.92969 12.07 6.92969C12.63 6.92969 13.09 7.02969 13.5 7.21969C13.91 7.41969 14.23 7.68969 14.45 8.03969C14.67 8.38969 14.79 8.79969 14.79 9.25969C14.79 9.60969 14.73 9.90969 14.6 10.1697C14.47 10.4297 14.33 10.6297 14.15 10.7897C13.97 10.9497 13.75 11.1297 13.48 11.3197C13.19 11.5197 12.98 11.6897 12.84 11.8397C12.7 11.9797 12.64 12.1597 12.64 12.3697V12.5897C12.64 12.7297 12.57 12.7897 12.44 12.7897H11.17C11.03 12.7897 10.97 12.7197 10.97 12.5897L10.96 12.5797ZM11.15 15.1897C10.95 14.9997 10.85 14.7797 10.85 14.5097C10.85 14.2397 10.95 14.0197 11.16 13.8297C11.37 13.6397 11.61 13.5497 11.89 13.5497C12.17 13.5497 12.4 13.6397 12.6 13.8297C12.8 14.0197 12.91 14.2397 12.91 14.5097C12.91 14.7797 12.81 14.9997 12.6 15.1897C12.39 15.3797 12.15 15.4697 11.87 15.4697C11.59 15.4697 11.35 15.3797 11.15 15.1897Z" fill="#002EFF"/>
</svg>
