<svg width="48" height="48" viewBox="0 0 48 48" fill="none" xmlns="http://www.w3.org/2000/svg">
<path fill-rule="evenodd" clip-rule="evenodd" d="M22.99 10.01C22.99 10.57 23.43 11.01 23.99 11.01C24.55 11.01 24.99 10.57 24.99 10.01V5.01001C24.99 4.45001 24.55 4.01001 23.99 4.01001C23.43 4.01001 22.99 4.45001 22.99 5.01001V10.01ZM13.27 14.2702C13.01 14.2702 12.75 14.1702 12.57 13.9702L9.02998 10.4302C8.62998 10.0302 8.62998 9.4102 9.02998 9.0102C9.42998 8.6102 10.05 8.6102 10.45 9.0102L13.99 12.5502C14.39 12.9502 14.39 13.5702 13.99 13.9702C13.79 14.1702 13.53 14.2702 13.29 14.2702H13.27ZM34.01 13.9702C34.19 14.1702 34.45 14.2702 34.71 14.2702H34.73C34.97 14.2702 35.23 14.1702 35.43 13.9702L38.97 10.4302C39.37 10.0302 39.37 9.4102 38.97 9.0102C38.57 8.6102 37.95 8.6102 37.55 9.0102L34.01 12.5502C33.61 12.9502 33.61 13.5702 34.01 13.9702ZM8.98999 28.99C8.98999 37.27 15.71 43.99 23.99 43.99C32.27 43.99 38.99 37.27 38.99 28.99C38.99 20.71 32.27 13.99 23.99 13.99C15.71 13.99 8.98999 20.71 8.98999 28.99ZM10.99 28.99C10.99 21.83 16.83 15.99 23.99 15.99C31.15 15.99 36.99 21.83 36.99 28.99C36.99 36.15 31.15 41.99 23.99 41.99C16.83 41.99 10.99 36.15 10.99 28.99Z" fill="#002EFF"/>
<path d="M29.1301 38.01C28.9501 38.01 28.7701 37.97 28.5901 37.87L23.9901 35.45L19.3901 37.87C19.0101 38.07 18.5301 38.05 18.1901 37.79C17.8301 37.53 17.6701 37.09 17.7301 36.67L18.6101 31.55L14.8901 27.93C14.5701 27.63 14.4701 27.17 14.6101 26.75C14.7501 26.33 15.1101 26.03 15.5301 25.97L20.6701 25.23L22.9701 20.57C23.3501 19.79 24.6301 19.79 25.0301 20.57L27.3301 25.23L32.4701 25.97C32.9101 26.03 33.2501 26.33 33.3901 26.75C33.5301 27.17 33.4101 27.63 33.1101 27.93L29.3901 31.55L30.2701 36.67C30.3501 37.09 30.1701 37.53 29.8101 37.79C29.6101 37.93 29.3701 38.01 29.1301 38.01ZM23.9901 33.03C24.1701 33.03 24.3501 33.07 24.5301 33.17L27.6101 34.79L27.0301 31.37C26.9701 30.99 27.0901 30.61 27.3501 30.35L29.8301 27.93L26.3901 27.43C26.0101 27.37 25.6901 27.15 25.5301 26.81L23.9901 23.69L22.4501 26.81C22.2901 27.15 21.9701 27.39 21.5901 27.43L18.1501 27.93L20.6301 30.35C20.8901 30.61 21.0301 30.99 20.9501 31.37L20.3701 34.79L23.4501 33.17C23.6101 33.09 23.7901 33.03 23.9901 33.03Z" fill="#FF3D00"/>
</svg>
