<svg width="48" height="48" viewBox="0 0 48 48" fill="none" xmlns="http://www.w3.org/2000/svg">
<path fill-rule="evenodd" clip-rule="evenodd" d="M15.96 43.97H32.04V43.99C35.36 43.99 38.04 41.31 38.04 37.99V17.41C38.04 16.83 37.78 16.27 37.34 15.89L27.9 4.49001C27.54 4.17001 27.08 4.01001 26.6 4.01001H15.96C12.64 4.01001 9.96002 6.69001 9.96002 10.01V37.97C9.96002 41.29 12.64 43.97 15.96 43.97ZM32.04 41.97H15.96C13.76 41.97 11.96 40.17 11.96 37.97V9.99001C11.96 7.79001 13.76 5.99001 15.96 5.99001H25.96V15.93C25.96 17.03 26.86 17.93 27.96 17.93H36.04V37.97C36.04 40.17 34.24 41.97 32.04 41.97ZM34.8476 15.95L27.96 7.63238V15.95H34.8476Z" fill="#002EFF"/>
<path d="M20.16 35.4302C19.92 35.4302 19.66 35.3302 19.46 35.1502L14.88 30.7302C14.48 30.3502 14.48 29.7102 14.86 29.3102C15.24 28.9102 15.88 28.9102 16.28 29.2902L20.16 33.0302L31.66 21.6502C32.06 21.2502 32.68 21.2702 33.08 21.6502C33.46 22.0502 33.46 22.6702 33.08 23.0702L20.9 35.1302C20.7 35.3302 20.46 35.4102 20.2 35.4102L20.16 35.4302Z" fill="#FF3D00"/>
</svg>
