<svg width="94" height="20" viewBox="0 0 94 20" fill="none" xmlns="http://www.w3.org/2000/svg">
<path d="M19.4092 14.8548C17.8463 14.8548 16.6084 14.5021 15.6955 13.7967C14.7965 13.0913 14.347 12.1508 14.347 10.9751V10.332C14.347 10.1936 14.4161 10.1245 14.5545 10.1245H15.5711C15.7094 10.1245 15.7785 10.1936 15.7785 10.332V10.8921C15.7785 11.6943 16.1105 12.3444 16.7744 12.8423C17.4383 13.3264 18.358 13.5685 19.5337 13.5685C20.5987 13.5685 21.4078 13.3472 21.9611 12.9046C22.5143 12.4481 22.791 11.8465 22.791 11.0996C22.791 10.6155 22.6596 10.2006 22.3968 9.85477C22.1478 9.50899 21.7536 9.18396 21.2142 8.87967C20.6886 8.57538 19.9417 8.22268 18.9735 7.82158C17.9362 7.40664 17.1271 7.04703 16.5462 6.74274C15.9791 6.42462 15.5157 6.02351 15.1561 5.53942C14.8103 5.04149 14.6374 4.41909 14.6374 3.6722C14.6374 2.51037 15.0385 1.61134 15.8408 0.975104C16.6568 0.325035 17.7702 0 19.181 0C20.7163 0 21.9265 0.359613 22.8117 1.07884C23.6969 1.79806 24.1395 2.75242 24.1395 3.94191V4.39834C24.1395 4.53665 24.0704 4.60581 23.932 4.60581H22.8947C22.7564 4.60581 22.6872 4.53665 22.6872 4.39834V4.0249C22.6872 3.22268 22.3691 2.5657 21.7329 2.05394C21.1105 1.54218 20.2391 1.28631 19.1188 1.28631C18.1367 1.28631 17.3829 1.48686 16.8574 1.88797C16.3318 2.28907 16.069 2.86999 16.069 3.6307C16.069 4.12863 16.1935 4.54357 16.4424 4.87552C16.7052 5.19364 17.0717 5.47718 17.542 5.72614C18.0261 5.96127 18.7661 6.27248 19.7619 6.65975C20.7716 7.07469 21.5807 7.46196 22.1893 7.82158C22.8117 8.18119 23.3096 8.62379 23.6831 9.14938C24.0704 9.66113 24.264 10.2905 24.264 11.0373C24.264 12.1992 23.8352 13.1259 22.9777 13.8174C22.1202 14.509 20.9307 14.8548 19.4092 14.8548Z" fill="#002EFF"/>
<path d="M57.926 8.25726C58.009 8.78285 58.0366 9.37068 58.009 10.0207C57.9951 10.1867 57.9052 10.2697 57.7393 10.2697H51.3285C51.2455 10.2697 51.2178 10.3043 51.2455 10.3734C51.287 10.6501 51.3631 10.9267 51.4737 11.2033C51.8333 11.9779 52.5664 12.3651 53.6729 12.3651C54.5581 12.3513 55.2566 11.9917 55.7683 11.2863C55.8236 11.2033 55.8859 11.1618 55.955 11.1618C55.9965 11.1618 56.0449 11.1895 56.1003 11.2448L57.594 12.7178C57.6632 12.787 57.6978 12.8492 57.6978 12.9046C57.6978 12.9322 57.6701 12.9876 57.6148 13.0705C57.1584 13.6376 56.5705 14.0802 55.8513 14.3983C55.1321 14.7026 54.3437 14.8548 53.4862 14.8548C52.2967 14.8548 51.287 14.5851 50.4571 14.0456C49.6411 13.5062 49.0532 12.7524 48.6936 11.7842C48.4032 11.0927 48.2579 10.1867 48.2579 9.06639C48.2579 8.30567 48.3617 7.63485 48.5691 7.05394C48.8873 6.07192 49.4405 5.29046 50.2289 4.70954C51.0311 4.12863 51.9785 3.83817 53.0712 3.83817C54.4543 3.83817 55.5608 4.23928 56.3907 5.04149C57.2344 5.84371 57.7462 6.91563 57.926 8.25726ZM53.092 6.36929C52.2206 6.36929 51.6466 6.77732 51.37 7.59336C51.3146 7.77317 51.2662 7.99447 51.2247 8.25726C51.2247 8.32642 51.2593 8.361 51.3285 8.361H54.9177C55.0007 8.361 55.0283 8.32642 55.0007 8.25726C54.9315 7.85615 54.8969 7.66252 54.8969 7.67635C54.7725 7.26141 54.5512 6.94329 54.233 6.72199C53.9288 6.48686 53.5484 6.36929 53.092 6.36929Z" fill="#002EFF"/>
<path d="M65.372 3.85892C66.4785 3.85892 67.3706 4.19779 68.0484 4.87552C68.7261 5.55325 69.065 6.47303 69.065 7.63485V14.4398C69.065 14.509 69.0373 14.5712 68.982 14.6266C68.9405 14.668 68.8852 14.6888 68.816 14.6888H66.3886C66.3195 14.6888 66.2572 14.668 66.2019 14.6266C66.1604 14.5712 66.1396 14.509 66.1396 14.4398V8.23652C66.1396 7.68326 65.9806 7.23375 65.6625 6.88797C65.3582 6.54219 64.9502 6.36929 64.4384 6.36929C63.9266 6.36929 63.5117 6.54219 63.1936 6.88797C62.8893 7.23375 62.7372 7.68326 62.7372 8.23652V14.4398C62.7372 14.509 62.7095 14.5712 62.6542 14.6266C62.6127 14.668 62.5574 14.6888 62.4882 14.6888H60.0608C59.9917 14.6888 59.9294 14.668 59.8741 14.6266C59.8326 14.5712 59.8118 14.509 59.8118 14.4398V4.27386C59.8118 4.2047 59.8326 4.14938 59.8741 4.10788C59.9294 4.05256 59.9917 4.0249 60.0608 4.0249H62.4882C62.5574 4.0249 62.6127 4.05256 62.6542 4.10788C62.7095 4.14938 62.7372 4.2047 62.7372 4.27386V5C62.7372 5.04149 62.751 5.06916 62.7787 5.08299C62.8063 5.09682 62.8271 5.0899 62.8409 5.06224C63.408 4.26003 64.2517 3.85892 65.372 3.85892Z" fill="#002EFF"/>
<path d="M77.2781 6.12033C77.2781 6.18949 77.2505 6.25173 77.1951 6.30705C77.1537 6.34855 77.0983 6.36929 77.0292 6.36929H75.0375C74.9683 6.36929 74.9337 6.40387 74.9337 6.47303V10.8714C74.9337 11.3278 75.0236 11.6667 75.2034 11.888C75.3971 12.1093 75.7014 12.2199 76.1163 12.2199H76.801C76.8701 12.2199 76.9254 12.2476 76.9669 12.3029C77.0223 12.3444 77.0499 12.3997 77.0499 12.4689V14.4398C77.0499 14.592 76.9669 14.6819 76.801 14.7095C76.22 14.7372 75.8051 14.751 75.5561 14.751C74.4081 14.751 73.5506 14.5643 72.9835 14.1909C72.4164 13.8036 72.126 13.0844 72.1122 12.0332V6.47303C72.1122 6.40387 72.0776 6.36929 72.0084 6.36929H70.8259C70.7567 6.36929 70.6945 6.34855 70.6391 6.30705C70.5976 6.25173 70.5769 6.18949 70.5769 6.12033V4.27386C70.5769 4.2047 70.5976 4.14938 70.6391 4.10788C70.6945 4.05256 70.7567 4.0249 70.8259 4.0249H72.0084C72.0776 4.0249 72.1122 3.99032 72.1122 3.92116V1.45228C72.1122 1.38313 72.1329 1.3278 72.1744 1.28631C72.2297 1.23098 72.292 1.20332 72.3611 1.20332H74.6848C74.7539 1.20332 74.8093 1.23098 74.8507 1.28631C74.9061 1.3278 74.9337 1.38313 74.9337 1.45228V3.92116C74.9337 3.99032 74.9683 4.0249 75.0375 4.0249H77.0292C77.0983 4.0249 77.1537 4.05256 77.1951 4.10788C77.2505 4.14938 77.2781 4.2047 77.2781 4.27386V6.12033Z" fill="#002EFF"/>
<path d="M88.3372 8.25726C88.4202 8.78285 88.4478 9.37068 88.4202 10.0207C88.4064 10.1867 88.3165 10.2697 88.1505 10.2697H81.7397C81.6567 10.2697 81.629 10.3043 81.6567 10.3734C81.6982 10.6501 81.7743 10.9267 81.8849 11.2033C82.2445 11.9779 82.9776 12.3651 84.0841 12.3651C84.9693 12.3513 85.6678 11.9917 86.1795 11.2863C86.2348 11.2033 86.2971 11.1618 86.3662 11.1618C86.4077 11.1618 86.4561 11.1895 86.5115 11.2448L88.0052 12.7178C88.0744 12.787 88.109 12.8492 88.109 12.9046C88.109 12.9322 88.0813 12.9876 88.026 13.0705C87.5696 13.6376 86.9817 14.0802 86.2625 14.3983C85.5433 14.7026 84.7549 14.8548 83.8974 14.8548C82.7079 14.8548 81.6982 14.5851 80.8683 14.0456C80.0523 13.5062 79.4644 12.7524 79.1048 11.7842C78.8144 11.0927 78.6691 10.1867 78.6691 9.06639C78.6691 8.30567 78.7729 7.63485 78.9803 7.05394C79.2985 6.07192 79.8517 5.29046 80.6401 4.70954C81.4423 4.12863 82.3898 3.83817 83.4824 3.83817C84.8656 3.83817 85.9721 4.23928 86.8019 5.04149C87.6456 5.84371 88.1574 6.91563 88.3372 8.25726ZM83.5032 6.36929C82.6318 6.36929 82.0578 6.77732 81.7812 7.59336C81.7259 7.77317 81.6774 7.99447 81.636 8.25726C81.636 8.32642 81.6705 8.361 81.7397 8.361H85.3289C85.4119 8.361 85.4395 8.32642 85.4119 8.25726C85.3427 7.85615 85.3082 7.66252 85.3082 7.67635C85.1837 7.26141 84.9624 6.94329 84.6442 6.72199C84.34 6.48686 83.9596 6.36929 83.5032 6.36929Z" fill="#002EFF"/>
<path d="M90.472 14.6888C90.4029 14.6888 90.3406 14.668 90.2853 14.6266C90.2438 14.5712 90.2231 14.509 90.2231 14.4398V0.414937C90.2231 0.345781 90.2438 0.290456 90.2853 0.248962C90.3406 0.193637 90.4029 0.165974 90.472 0.165974H92.8994C92.9686 0.165974 93.0239 0.193637 93.0654 0.248962C93.1207 0.290456 93.1484 0.345781 93.1484 0.414937V14.4398C93.1484 14.509 93.1207 14.5712 93.0654 14.6266C93.0239 14.668 92.9686 14.6888 92.8994 14.6888H90.472Z" fill="#002EFF"/>
<path fill-rule="evenodd" clip-rule="evenodd" d="M33.7685 13.2326C35.8488 12.0815 36.8913 9.65637 36.3017 7.33951C35.7123 5.02256 33.6405 3.40234 31.2673 3.40234C28.8942 3.40234 26.8225 5.02256 26.2329 7.33951C25.6434 9.65637 26.6859 12.0815 28.7662 13.2326C26.1445 13.9725 24.3331 16.3824 24.3361 19.1264C24.3361 19.6088 24.7241 19.9999 25.2026 19.9999H37.3302C37.5599 19.9999 37.7802 19.9077 37.9424 19.744C38.1046 19.5801 38.1955 19.358 38.195 19.1264C38.199 16.3832 36.3892 13.9734 33.7685 13.2326ZM26.9374 8.64239C26.9374 6.23171 28.8764 4.27738 31.2682 4.27738C33.6601 4.27738 35.599 6.23171 35.599 8.64239C35.599 11.0532 33.6601 13.0075 31.2682 13.0075C28.8772 13.0055 26.9394 11.0524 26.9374 8.64239ZM30.3999 13.8792C27.5314 13.8831 25.2073 16.2264 25.2044 19.1176H37.332C37.3281 16.2261 35.0035 13.8831 32.1347 13.8792H30.3999Z" fill="#002EFF"/>
<path d="M33.105 10.8667C33.1472 10.8018 33.14 10.7019 33.0906 10.6446L32.7719 10.2744C32.7216 10.2166 32.6447 10.2213 32.6016 10.2844C32.6016 10.2844 32.2078 10.8553 31.361 10.8553C30.5142 10.8553 30.0962 10.2543 30.0962 10.2543C30.049 10.1932 29.9699 10.1912 29.92 10.2491L29.6063 10.6159C29.5569 10.6733 29.5497 10.7741 29.5915 10.839C29.5915 10.839 30.1425 11.7008 31.3579 11.7008C32.5732 11.7008 33.1041 10.8672 33.1041 10.8672" fill="#FF3D00"/>
<path d="M79.2397 19.9725C79.0828 19.9725 78.9513 19.922 78.8452 19.821C78.7437 19.7153 78.693 19.5844 78.693 19.4283C78.693 19.2675 78.7437 19.1366 78.8452 19.0356C78.9467 18.9345 79.0782 18.884 79.2397 18.884C79.4012 18.884 79.5326 18.9345 79.6341 19.0356C79.7356 19.1366 79.7864 19.2675 79.7864 19.4283C79.7864 19.5844 79.7333 19.7153 79.6272 19.821C79.5257 19.922 79.3966 19.9725 79.2397 19.9725Z" fill="#002EFF"/>
<path d="M82.075 20.0001C81.706 20.0001 81.3853 19.9082 81.1131 19.7245C80.8455 19.5408 80.6541 19.2882 80.5388 18.9667C80.4603 18.737 80.4211 18.466 80.4211 18.1537C80.4211 17.846 80.4603 17.5796 80.5388 17.3545C80.6495 17.0422 80.8409 16.7965 81.1131 16.6173C81.3853 16.4382 81.706 16.3486 82.075 16.3486C82.4441 16.3486 82.7671 16.4405 83.0439 16.6242C83.3253 16.8079 83.5121 17.0399 83.6044 17.3201C83.6413 17.4303 83.6598 17.513 83.6598 17.5681V17.5819C83.6598 17.6232 83.6367 17.6485 83.5906 17.6576L82.7947 17.7748H82.7809C82.7394 17.7748 82.7117 17.7518 82.6979 17.7059L82.6771 17.5956C82.6448 17.4762 82.5733 17.3775 82.4626 17.2994C82.3519 17.2213 82.2204 17.1823 82.0681 17.1823C81.9205 17.1823 81.7959 17.219 81.6944 17.2925C81.5929 17.366 81.5214 17.467 81.4799 17.5956C81.4292 17.7334 81.4038 17.9217 81.4038 18.1606C81.4038 18.3994 81.4268 18.5877 81.473 18.7255C81.5145 18.8633 81.586 18.9712 81.6875 19.0493C81.7936 19.1274 81.9205 19.1665 82.0681 19.1665C82.2111 19.1665 82.3357 19.1297 82.4418 19.0562C82.5525 18.9781 82.6287 18.8725 82.6702 18.7393C82.6748 18.7301 82.6771 18.7163 82.6771 18.698C82.6817 18.6934 82.684 18.6865 82.684 18.6773C82.6886 18.6222 82.7209 18.5992 82.7809 18.6084L83.5767 18.7324C83.6229 18.7416 83.6459 18.7669 83.6459 18.8082C83.6459 18.8449 83.6321 18.9138 83.6044 19.0149C83.5075 19.3226 83.3184 19.5637 83.037 19.7383C82.7601 19.9128 82.4395 20.0001 82.075 20.0001Z" fill="#002EFF"/>
<path d="M85.7583 20.0001C85.3708 20.0001 85.0386 19.899 84.7618 19.6969C84.485 19.4949 84.2959 19.2193 84.1944 18.8702C84.1298 18.6543 84.0975 18.4201 84.0975 18.1675C84.0975 17.8965 84.1298 17.6531 84.1944 17.4372C84.3005 17.0973 84.4919 16.8309 84.7687 16.638C85.0456 16.4451 85.3777 16.3486 85.7653 16.3486C86.1436 16.3486 86.4665 16.4451 86.7341 16.638C87.0017 16.8263 87.1908 17.0904 87.3016 17.4303C87.3754 17.6599 87.4123 17.9011 87.4123 18.1537C87.4123 18.4017 87.38 18.6337 87.3154 18.8495C87.2139 19.2078 87.0247 19.4903 86.7479 19.6969C86.4757 19.899 86.1459 20.0001 85.7583 20.0001ZM85.7583 19.1665C85.9106 19.1665 86.0398 19.1205 86.1459 19.0287C86.252 18.9368 86.3281 18.8105 86.3742 18.6497C86.4111 18.5028 86.4296 18.342 86.4296 18.1675C86.4296 17.9746 86.4111 17.8115 86.3742 17.6783C86.3235 17.5221 86.2451 17.4004 86.139 17.3132C86.0328 17.2259 85.9037 17.1823 85.7514 17.1823C85.5946 17.1823 85.4631 17.2259 85.357 17.3132C85.2555 17.4004 85.1817 17.5221 85.1355 17.6783C85.0986 17.7885 85.0802 17.9516 85.0802 18.1675C85.0802 18.3742 85.0963 18.5349 85.1286 18.6497C85.1747 18.8105 85.2509 18.9368 85.357 19.0287C85.4677 19.1205 85.6015 19.1665 85.7583 19.1665Z" fill="#002EFF"/>
<path d="M91.9841 16.3486C92.3439 16.3486 92.6253 16.4566 92.8283 16.6724C93.0313 16.8883 93.1328 17.1915 93.1328 17.5819V19.8623C93.1328 19.8853 93.1236 19.9059 93.1051 19.9243C93.0913 19.9381 93.0729 19.945 93.0498 19.945H92.2401C92.217 19.945 92.1963 19.9381 92.1778 19.9243C92.164 19.9059 92.1571 19.8853 92.1571 19.8623V17.7954C92.1571 17.6071 92.1086 17.4578 92.0117 17.3476C91.9149 17.2374 91.7857 17.1823 91.6242 17.1823C91.4627 17.1823 91.3313 17.2374 91.2298 17.3476C91.1283 17.4578 91.0775 17.6048 91.0775 17.7885V19.8623C91.0775 19.8853 91.0683 19.9059 91.0498 19.9243C91.036 19.9381 91.0175 19.945 90.9945 19.945H90.1917C90.1687 19.945 90.1479 19.9381 90.1294 19.9243C90.1156 19.9059 90.1087 19.8853 90.1087 19.8623V17.7954C90.1087 17.6117 90.0579 17.4647 89.9564 17.3545C89.8549 17.2397 89.7235 17.1823 89.562 17.1823C89.4144 17.1823 89.2898 17.2259 89.1883 17.3132C89.0914 17.4004 89.0337 17.5221 89.0153 17.6783V19.8623C89.0153 19.8853 89.0061 19.9059 88.9876 19.9243C88.9738 19.9381 88.9553 19.945 88.9322 19.945H88.1226C88.0995 19.945 88.0787 19.9381 88.0603 19.9243C88.0465 19.9059 88.0395 19.8853 88.0395 19.8623V16.4864C88.0395 16.4635 88.0465 16.4451 88.0603 16.4313C88.0787 16.4129 88.0995 16.4037 88.1226 16.4037H88.9322C88.9553 16.4037 88.9738 16.4129 88.9876 16.4313C89.0061 16.4451 89.0153 16.4635 89.0153 16.4864V16.7551C89.0153 16.7689 89.0199 16.7781 89.0291 16.7827C89.0384 16.7873 89.0476 16.7827 89.0568 16.7689C89.246 16.4887 89.5389 16.3486 89.9357 16.3486C90.1664 16.3486 90.367 16.3969 90.5377 16.4933C90.7131 16.5898 90.8468 16.7276 90.9391 16.9067C90.953 16.9342 90.9691 16.9342 90.9876 16.9067C91.0891 16.7184 91.2251 16.5783 91.3958 16.4864C91.5712 16.3946 91.7672 16.3486 91.9841 16.3486Z" fill="#002EFF"/>
<path d="M12.2822 6.05851C12.2822 6.12767 12.2545 6.18991 12.1992 6.24524C12.1577 6.28673 12.1024 6.30748 12.0332 6.30748H10.4772C10.3942 6.30748 10.3527 6.34205 10.3527 6.41121L10.0415 8.46515C10.0415 8.53431 10.0692 8.56889 10.1245 8.56889H11.2863C11.3555 8.56889 11.4108 8.59655 11.4523 8.65187C11.5076 8.69337 11.5353 8.74869 11.5353 8.81785V10.8096C11.5353 10.8787 11.5076 10.9409 11.4523 10.9963C11.4108 11.0378 11.3555 11.0585 11.2863 11.0585H9.75104C9.66805 11.0585 9.62656 11.0931 9.62656 11.1622L9.21162 13.9008C9.19779 14.053 9.10788 14.1291 8.94191 14.1291H6.51452C6.34855 14.1291 6.27248 14.0392 6.28631 13.8593L6.70124 11.1622C6.70124 11.0931 6.67358 11.0585 6.61826 11.0585H4.54357C4.46058 11.0585 4.41909 11.0931 4.41909 11.1622L4.00415 13.9008C3.99032 14.053 3.90042 14.1291 3.73444 14.1291H1.30705C1.14108 14.1291 1.06501 14.0392 1.07884 13.8593L1.49378 11.1622C1.49378 11.0931 1.46611 11.0585 1.41079 11.0585H0.248963C0.179806 11.0585 0.117566 11.0378 0.0622406 10.9963C0.0207469 10.9409 0 10.8787 0 10.8096V8.81785C0 8.74869 0.0207469 8.69337 0.0622406 8.65187C0.117566 8.59655 0.179806 8.56889 0.248963 8.56889H1.78423C1.86722 8.56889 1.90871 8.53431 1.90871 8.46515L2.21992 6.41121C2.21992 6.34205 2.19225 6.30748 2.13693 6.30748H1.0166C0.947441 6.30748 0.885201 6.28673 0.829876 6.24524C0.788382 6.18991 0.767635 6.12767 0.767635 6.05851V4.04607C0.767635 3.97691 0.788382 3.92158 0.829876 3.88009C0.885201 3.82476 0.947441 3.7971 1.0166 3.7971H2.53112C2.61411 3.7971 2.6556 3.76252 2.6556 3.69337L3.07054 0.954778C3.08437 0.802634 3.17427 0.726562 3.34025 0.726562H5.76764C5.93361 0.726562 6.00968 0.816466 5.99585 0.996272L5.58091 3.69337C5.58091 3.76252 5.60858 3.7971 5.6639 3.7971H7.71784C7.80083 3.7971 7.84232 3.76252 7.84232 3.69337L8.25726 0.954778C8.27109 0.802634 8.361 0.726562 8.52697 0.726562H10.9544C11.1203 0.726562 11.1964 0.816466 11.1826 0.996272L10.7676 3.69337C10.7676 3.76252 10.7953 3.7971 10.8506 3.7971H12.0539C12.1231 3.7971 12.1784 3.82476 12.2199 3.88009C12.2752 3.92158 12.3029 3.97691 12.3029 4.04607L12.2822 6.05851ZM6.9917 8.56889C7.07469 8.56889 7.11618 8.53431 7.11618 8.46515L7.42739 6.41121C7.42739 6.34205 7.39972 6.30748 7.3444 6.30748H5.26971C5.18672 6.30748 5.14523 6.34205 5.14523 6.41121L4.83402 8.46515C4.83402 8.53431 4.86169 8.56889 4.91701 8.56889H6.9917Z" fill="#FF3D00"/>
<path d="M39.2761 20.0001C39.1789 20.0001 39.1304 19.9256 39.1304 19.7767V18.8834C39.1304 18.7345 39.1998 18.66 39.3385 18.66H39.4218C39.963 18.6451 40.3793 18.5558 40.6707 18.392C40.976 18.2431 41.2327 17.9528 41.4409 17.521C41.6629 17.1041 41.8988 16.4639 42.1486 15.6003C42.1764 15.5407 42.1764 15.4961 42.1486 15.4663L38.6308 4.47809L38.61 4.38876C38.61 4.28453 38.6724 4.23242 38.7973 4.23242H39.9005C40.0254 4.23242 40.1087 4.29198 40.1503 4.41109L42.8563 13.4339C42.8702 13.4637 42.891 13.4786 42.9188 13.4786C42.9465 13.4786 42.9674 13.4637 42.9812 13.4339L45.6456 4.41109C45.6872 4.29198 45.7705 4.23242 45.8954 4.23242H46.9778C47.1304 4.23242 47.186 4.31431 47.1443 4.47809L43.2935 16.516C42.9604 17.5136 42.6482 18.2506 42.3568 18.727C42.0654 19.2035 41.6976 19.531 41.2535 19.7097C40.8234 19.9033 40.2128 20.0001 39.4218 20.0001H39.2761Z" fill="#002EFF"/>
</svg>
