<svg width="24" height="24" viewBox="0 0 24 24" fill="none" xmlns="http://www.w3.org/2000/svg">
<g clip-path="url(#clip0_8515_34243)">
<mask id="mask0_8515_34243" style="mask-type:alpha" maskUnits="userSpaceOnUse" x="0" y="3" width="24" height="18">
<path d="M0 3.53027H23.8986V20.2593H0V3.53027Z" fill="white"/>
</mask>
<g mask="url(#mask0_8515_34243)">
<path fill-rule="evenodd" clip-rule="evenodd" d="M23.3992 6.14254C23.1244 5.11427 22.3145 4.30457 21.2862 4.02975C19.4225 3.53027 11.9492 3.53027 11.9492 3.53027C11.9492 3.53027 4.476 3.53027 2.61226 4.02975C1.584 4.30457 0.774098 5.11427 0.499279 6.14254C0 8.00627 0 11.8949 0 11.8949C0 11.8949 0 15.7835 0.499279 17.647C0.774098 18.6753 1.584 19.4852 2.61226 19.76C4.476 20.2595 11.9492 20.2595 11.9492 20.2595C11.9492 20.2595 19.4225 20.2595 21.2862 19.76C22.3145 19.4852 23.1244 18.6753 23.3992 17.647C23.8987 15.7835 23.8987 11.8949 23.8987 11.8949C23.8987 11.8949 23.8987 8.00627 23.3992 6.14254Z" fill="#FF0000"/>
</g>
<path fill-rule="evenodd" clip-rule="evenodd" d="M9.55933 15.4798L15.7682 11.8949L9.55933 8.31006V15.4798Z" fill="white"/>
</g>
<defs>
<clipPath id="clip0_8515_34243">
<rect width="24" height="24" fill="white"/>
</clipPath>
</defs>
</svg>
