<svg width="362" height="362" viewBox="0 0 362 362" fill="none" xmlns="http://www.w3.org/2000/svg">
<g clip-path="url(#clip0_1_4517)">
<path d="M63.6803 258.898L75.4722 270.614L45.5139 291.095L42.5532 286.861C40.5294 283.965 40.7643 280.085 43.1136 277.574L52.9299 267.092L61.2177 264.392L63.6774 258.901L63.6803 258.898Z" fill="white" stroke="#0C0C0C" stroke-miterlimit="10"/>
<path d="M43.8184 288.667L73.0407 268.196" stroke="#0C0C0C" stroke-linecap="round" stroke-linejoin="round"/>
<path d="M295.201 86.1198H56.5729C50.9983 86.1198 46.4792 90.6389 46.4792 96.2135V233.593C46.4792 239.168 50.9983 243.687 56.5729 243.687H295.201C300.775 243.687 305.294 239.168 305.294 233.593V96.2135C305.294 90.6389 300.775 86.1198 295.201 86.1198Z" fill="#0C0C0C"/>
<path d="M58.3871 89.4146H293.383C298.461 89.4146 302.585 93.5386 302.585 98.6166V232.085C302.585 237.162 298.461 241.287 293.383 241.287H58.3871C53.3091 241.287 49.1851 237.162 49.1851 232.085V98.6194C49.1851 93.5415 53.3091 89.4174 58.3871 89.4174V89.4146Z" fill="white"/>
<path d="M53.4903 117.174C54.048 119.217 53.6489 121.108 52.6016 121.391C51.5543 121.677 50.2522 120.25 49.6946 118.207C49.137 116.163 49.5361 114.272 50.5834 113.989C51.6307 113.703 52.9327 115.13 53.4903 117.174Z" fill="white"/>
<path d="M69.2054 117.281C68.6477 119.325 69.0468 121.216 70.0941 121.499C71.1414 121.784 72.4435 120.358 73.0011 118.314C73.5587 116.271 73.1596 114.38 72.1123 114.097C71.065 113.811 69.763 115.237 69.2054 117.281Z" fill="white"/>
<path d="M160.408 286.864H191.365L188.071 177.843H163.703L160.408 286.864Z" fill="#0C0C0C"/>
<path d="M116.201 291.407H235.57C237.729 291.407 239.481 289.655 239.481 287.495C239.481 285.335 237.729 283.583 235.57 283.583H116.201C114.041 283.583 112.289 285.335 112.289 287.495C112.289 289.655 114.041 291.407 116.201 291.407Z" fill="#0C0C0C"/>
<path d="M286.726 101.153H290.428C292.211 101.153 293.658 102.599 293.658 104.382V108.085C293.658 109.865 292.211 111.311 290.431 111.311H286.729C284.948 111.311 283.502 109.865 283.502 108.085V104.382C283.502 102.602 284.948 101.156 286.729 101.156L286.726 101.153Z" fill="#F3F5FF"/>
<path d="M277.663 101.153H218.536C216.79 101.153 215.374 102.568 215.374 104.314V107.943C215.374 109.689 216.79 111.105 218.536 111.105H277.663C279.409 111.105 280.824 109.689 280.824 107.943V104.314C280.824 102.568 279.409 101.153 277.663 101.153Z" fill="#F3F5FF"/>
<path d="M286.726 114.074H290.428C292.212 114.074 293.658 115.52 293.658 117.304V121.006C293.658 122.789 292.212 124.236 290.428 124.236H286.726C284.946 124.236 283.499 122.789 283.499 121.009V117.307C283.499 115.526 284.946 114.08 286.726 114.08V114.074Z" fill="#F3F5FF"/>
<path d="M277.663 114.074H218.536C216.79 114.074 215.374 115.49 215.374 117.236V120.865C215.374 122.611 216.79 124.026 218.536 124.026H277.663C279.409 124.026 280.824 122.611 280.824 120.865V117.236C280.824 115.49 279.409 114.074 277.663 114.074Z" fill="#F3F5FF"/>
<path d="M286.726 139.92H290.428C292.212 139.92 293.658 141.366 293.658 143.149V146.852C293.658 148.635 292.212 150.081 290.428 150.081H286.726C284.943 150.081 283.496 148.635 283.496 146.852V143.149C283.496 141.369 284.943 139.922 286.723 139.922L286.726 139.92Z" fill="#F3F5FF"/>
<path d="M277.663 139.92H218.536C216.79 139.92 215.374 141.335 215.374 143.081V146.71C215.374 148.456 216.79 149.872 218.536 149.872H277.663C279.409 149.872 280.824 148.456 280.824 146.71V143.081C280.824 141.335 279.409 139.92 277.663 139.92Z" fill="#F3F5FF"/>
<path d="M286.726 126.995H290.428C292.212 126.995 293.658 128.442 293.658 130.225V133.927C293.658 135.711 292.212 137.157 290.428 137.157H286.726C284.946 137.157 283.499 135.711 283.499 133.93V130.228C283.499 128.447 284.946 127.001 286.726 127.001V126.995Z" fill="#F3F5FF"/>
<path d="M277.663 126.995H218.536C216.79 126.995 215.374 128.411 215.374 130.157V133.786C215.374 135.532 216.79 136.948 218.536 136.948H277.663C279.409 136.948 280.824 135.532 280.824 133.786V130.157C280.824 128.411 279.409 126.995 277.663 126.995Z" fill="#F3F5FF"/>
<path d="M276.536 139.753H334.049C340.645 139.753 346 145.108 346 151.703V279.456C346 286.051 340.645 291.407 334.049 291.407H276.536C269.941 291.407 264.585 286.051 264.585 279.456V151.703C264.585 145.108 269.941 139.753 276.536 139.753Z" fill="#0C0C0C"/>
<path d="M267.337 150.766V280.996C267.337 284.081 269.516 286.583 272.205 286.583H338.378C341.067 286.583 343.246 284.081 343.246 280.996V150.766C343.246 147.681 341.067 145.179 338.378 145.179H272.205C269.516 145.179 267.337 147.681 267.337 150.766Z" fill="white"/>
<path d="M102.657 130.12C117.608 129.404 145.098 124.669 171.082 102.087C172.724 100.66 175.274 100.66 176.916 102.087C202.897 124.666 230.387 129.401 245.341 130.12C251.851 130.432 256.991 135.337 257.119 141.375C258.823 221.311 226.841 273.15 174 289.035C121.16 273.15 89.1778 221.311 90.8817 141.375C91.0091 135.337 96.1494 130.435 102.66 130.12H102.657Z" fill="white"/>
<path d="M173.895 289.372C160.68 285.397 148.687 279.142 138.259 270.778C127.792 262.382 118.847 251.825 111.68 239.401C104.409 226.8 98.9233 212.2 95.3738 196.012C91.7394 179.431 90.109 161.047 90.5279 141.369C90.593 138.357 91.8724 135.507 94.134 133.35C96.3871 131.199 99.4101 129.928 102.643 129.772C116.894 129.09 144.704 124.55 170.853 101.826C172.616 100.292 175.381 100.292 177.148 101.826C203.296 124.55 231.109 129.09 245.358 129.772C248.593 129.928 251.613 131.199 253.866 133.35C256.125 135.51 257.407 138.357 257.47 141.369C257.889 161.047 256.258 179.434 252.624 196.012C249.074 212.2 243.589 226.8 236.317 239.401C229.147 251.827 220.206 262.382 209.738 270.778C199.308 279.142 187.318 285.4 174 289.386C173.966 289.386 173.932 289.38 173.898 289.372H173.895Z" fill="white" stroke="#0C0C0C" stroke-miterlimit="10"/>
<path d="M108.782 141.85C118.097 141.055 145.426 136.866 171.102 114.83C172.738 113.426 175.26 113.426 176.893 114.83C202.572 136.868 229.9 141.055 239.213 141.85C241.132 142.014 242.629 143.469 242.711 145.252C245.983 215.11 219.19 260.07 173.995 273.656C128.799 260.07 102.006 215.11 105.278 145.252C105.363 143.469 106.857 142.014 108.776 141.85H108.782Z" fill="#F3F5FF"/>
<path d="M165.39 146.102H182.704C188.792 146.102 193.729 151.038 193.729 157.126V179.994C193.729 184.339 191.215 188.095 187.564 189.893C188.065 189.032 188.351 188.033 188.351 186.966V157.455C188.351 154.234 185.741 151.624 182.52 151.624H165.571C162.35 151.624 159.74 154.234 159.74 157.455V186.966C159.74 188.033 160.026 189.032 160.527 189.893C156.875 188.095 154.362 184.339 154.362 179.994V157.126C154.362 151.038 159.298 146.102 165.387 146.102H165.39Z" fill="white"/>
<path d="M187.307 190.133C187.202 190.02 187.182 189.85 187.258 189.717C187.742 188.885 187.997 187.934 187.997 186.966V157.455C187.997 154.435 185.54 151.975 182.517 151.975H165.568C162.548 151.975 160.088 154.432 160.088 157.455V186.966C160.088 187.934 160.343 188.885 160.827 189.717C160.906 189.85 160.886 190.02 160.779 190.133C160.674 190.246 160.504 190.278 160.366 190.21C156.442 188.279 154.005 184.365 154.005 179.997V157.129C154.005 150.857 159.109 145.753 165.381 145.753H182.696C188.968 145.753 194.071 150.857 194.071 157.129V179.997C194.071 184.367 191.634 188.279 187.711 190.21C187.663 190.235 187.609 190.246 187.556 190.246C187.459 190.246 187.366 190.207 187.298 190.136L187.307 190.133Z" fill="white" stroke="#0C0C0C" stroke-miterlimit="10"/>
<path d="M194.609 172.615H153.388C149.255 172.615 145.904 175.966 145.904 180.099V225.291C145.904 229.424 149.255 232.775 153.388 232.775H194.609C198.742 232.775 202.093 229.424 202.093 225.291V180.099C202.093 175.966 198.742 172.615 194.609 172.615Z" fill="white" stroke="#0C0C0C" stroke-miterlimit="10"/>
<path d="M72.9389 194.305C73.1088 194.305 73.2588 194.184 73.2871 194.011C73.3182 193.819 73.188 193.637 72.9984 193.606C72.9503 193.598 69.1687 192.916 67.2524 188.698C67.1703 188.523 66.9637 188.443 66.7854 188.523C66.6099 188.602 66.5306 188.811 66.6099 188.99C68.6931 193.567 72.7125 194.272 72.8823 194.3C72.9021 194.303 72.922 194.305 72.9389 194.305Z" fill="white"/>
<path d="M50.5354 289.918C50.7477 289.907 50.8977 289.742 50.8864 289.547C50.8864 289.539 50.875 289.343 50.8326 289.018C50.8071 288.825 50.6288 288.689 50.4363 288.715C50.2438 288.74 50.108 288.919 50.1334 289.111C50.1731 289.408 50.1816 289.584 50.1816 289.587C50.1929 289.773 50.3457 289.921 50.5325 289.921L50.5354 289.918Z" fill="#0C0C0C"/>
<path d="M55.0613 243.622L67.2043 262.991L62.1886 270.285L55.2142 269.988L40.4417 248.286L55.0613 243.622Z" fill="white" stroke="#0C0C0C" stroke-miterlimit="10"/>
<path d="M47.8237 259.13L60.9234 252.974L67.2044 262.991L62.1887 270.285L55.2142 269.988L47.8237 259.13Z" fill="white" stroke="#0C0C0C" stroke-miterlimit="10"/>
<path d="M56.3379 266.116L54.3113 261.746C53.6942 260.412 51.9166 260.172 51.0335 261.298L48.5795 264.432C47.7897 265.442 48.2002 266.959 49.4031 267.469L54.9198 269.801L56.3351 266.116H56.3379Z" fill="white" stroke="#0C0C0C" stroke-miterlimit="10"/>
<path d="M68.212 256.404L65.5825 279.479L57.1616 282.72L51.9421 278.508L53.9886 251.992L68.212 256.404Z" fill="white" stroke="#0C0C0C" stroke-miterlimit="10"/>
<path d="M52.9979 264.854L67.0515 266.583L65.5825 279.479L57.1616 282.72L51.9421 278.508L52.9979 264.854Z" fill="white" stroke="#0C0C0C" stroke-miterlimit="10"/>
<path d="M52.293 272.47L47.9736 291.407H77.1705L77.4904 287.314C77.8952 282.125 74.3343 278.228 69.48 277.415L64.6483 277.427L62.047 278.032C59.8081 278.553 57.4587 277.857 55.8651 276.195L52.293 272.47Z" fill="white" stroke="#0C0C0C" stroke-miterlimit="10"/>
<path d="M65.1917 277.347L67.7364 273.444C68.5119 272.253 67.8298 270.614 66.4768 270.418L62.7178 269.878C61.5064 269.702 60.4761 270.809 60.6601 272.091L61.4979 277.967L65.1889 277.347H65.1917Z" fill="white" stroke="#0C0C0C" stroke-miterlimit="10"/>
<path d="M35.5618 143.993C35.5618 143.993 13.8149 195.084 16.1784 212.797C17.8993 225.679 42.907 257.389 42.907 257.389L62.6188 248.363L42.1117 210.009L52.1487 169.185L55.9388 169.046L48.4747 259.416L71.3256 261.649L80.8276 148.038L55.752 136.277L35.559 143.99L35.5618 143.993Z" fill="#002EFF"/>
<path d="M69.9017 83.595C69.9017 83.595 71.9595 80.8918 70.9292 75.1119C70.5244 72.839 68.1581 73.0399 68.1581 73.0399C68.1581 73.0399 66.29 70.7274 63.8359 70.4811C61.3818 70.2349 61.1186 71.6898 61.1186 71.6898C61.1186 71.6898 57.7078 70.9227 55.517 72.4512C53.3261 73.9768 54.8207 77.5744 54.8207 77.5744C54.8207 77.5744 54.1045 81.9108 55.2396 83.5808C56.0633 84.7923 69.9045 83.5978 69.9045 83.5978L69.9017 83.595Z" fill="#0C0C0C"/>
<path d="M65.3908 90.8239L58.3528 90.1165L57.6453 97.1545L64.6834 97.8619L65.3908 90.8239Z" fill="white" stroke="#0C0C0C" stroke-miterlimit="10"/>
<path d="M68.4781 95.2454C68.4781 95.2454 77.8754 96.1427 84.9687 98.9874C92.0592 101.832 92.3932 127.768 91.5724 136.282C90.5166 147.251 91.0317 154.109 73.6325 149.761C59.4515 146.218 55.7718 142.215 55.7718 142.215C55.7718 142.215 42.9863 152.34 25.6692 145.94C8.97754 139.772 23.8322 110.884 28.0355 106.406C35.092 98.8883 37.8008 95.5228 43.8383 94.2236C48.2624 93.2726 57.773 93.683 57.773 93.683L68.4809 95.2398L68.4781 95.2454Z" fill="white" stroke="#0C0C0C" stroke-miterlimit="10"/>
<path d="M61.5404 94.7954L57.3824 91.076L53.0007 93.5358L56.5644 100.193L61.5404 94.7954Z" fill="white" stroke="#0C0C0C" stroke-miterlimit="10"/>
<path d="M61.5403 94.7954L66.3578 91.979L70.1621 95.2624L65.3445 101.076L61.5403 94.7954Z" fill="white" stroke="#0C0C0C" stroke-miterlimit="10"/>
<path d="M71.385 80.238C70.983 80.0766 70.5556 80.0625 70.1508 80.1644C70.1423 74.3476 66.8703 74.0136 63.2557 73.6485C59.5024 73.272 56.0322 74.6732 55.5651 80.3342C55.1264 80.1587 54.6452 80.1276 54.1838 80.2833C53.0148 80.6767 52.4147 82.0976 52.8365 83.4563C53.2611 84.8149 54.5518 85.5962 55.7208 85.2027C55.7972 85.1772 55.8708 85.1461 55.9416 85.1121C56.7398 88.1267 58.6419 90.3628 61.546 90.6543C65.7607 91.11 68.3336 88.4635 69.4574 85.0074C69.4942 85.0244 69.531 85.0442 69.5678 85.0612C70.7113 85.5226 72.0445 84.8149 72.5455 83.4818C73.0465 82.1486 72.5257 80.6965 71.385 80.238Z" fill="white" stroke="#0C0C0C" stroke-miterlimit="10"/>
<path d="M64.9511 84.8687C63.8048 84.4979 62.6103 83.9742 60.9629 84.9338C59.3155 85.8933 56.853 84.0988 55.6189 83.2723C55.1009 82.9269 55.5425 87.9709 57.1927 89.9919C59.4146 92.7121 63.0745 93.2018 65.7663 91.4242C68.4582 89.6495 69.7998 86.935 70.0659 84.2828C70.332 81.6306 69.1545 84.413 67.5297 84.8574C66.6183 85.1065 65.8484 85.1602 64.9483 84.8687H64.9511Z" fill="#0C0C0C"/>
<path d="M64.7247 99.9639L62.4942 102.659L59.4939 102.209L57.4446 99.2591L61.4271 94.6255L64.7247 99.9639Z" fill="#0C0C0C"/>
<path d="M59.6864 100.816L54.2263 131.086L57.889 134.777L61.7499 131.688L62.5679 101.266L59.6864 100.816Z" fill="#0C0C0C"/>
<path d="M63.2586 73.4391C60.3941 73.1503 57.6853 73.9259 56.2361 76.8385C58.0957 77.8377 59.8195 75.2619 59.8195 75.2619C60.0007 78.9048 68.1583 75.8139 68.1583 75.8139C69.4037 77.0367 70.0491 78.7265 70.3802 80.0115C70.1991 74.1467 66.893 73.807 63.2586 73.4419V73.4391Z" fill="#0C0C0C"/>
<path d="M53.1393 135.003C53.1393 135.003 47.2632 131.448 43.9882 129.987C40.7133 128.524 40.886 127.539 41.4011 126.526C42.2192 124.918 45.3894 126.228 47.3509 127.103C49.3125 127.978 49.921 127.202 49.921 127.202L56.2416 133.225L53.1393 135.006V135.003Z" fill="white"/>
<path d="M57.7532 131.094C57.7532 131.094 57.6796 130.805 57.4701 130.341L57.9315 129.747C57.9315 129.747 57.5465 129.537 56.8644 129.226C55.4378 126.981 51.9081 123.429 43.643 122.758C37.5941 122.268 34.6702 124.887 33.6739 126.197C33.5861 126.313 33.5295 126.444 33.504 126.579C33.1502 126.919 32.8785 127.236 32.6832 127.494C32.4256 127.833 32.4256 128.303 32.6832 128.64C33.1021 129.186 33.8437 129.359 34.4607 129.059C34.6391 128.971 34.8457 128.881 35.0721 128.787C35.0155 128.866 34.9617 128.943 34.9136 129.016C34.6079 129.486 34.7212 130.112 35.1655 130.452C35.525 130.726 36.0147 130.74 36.3883 130.488C36.4081 130.474 36.4336 130.46 36.4563 130.446C36.4478 130.695 36.5553 130.944 36.7676 131.105C37.2375 131.465 37.88 131.488 38.381 131.173C38.9669 130.803 39.8501 130.05 41.237 129.925C46.4877 129.458 47.2519 133.22 50.7816 134.796C56.4058 137.307 55.6614 132.676 55.6614 132.676L56.4483 131.66L57.7532 131.094Z" fill="white" stroke="#0C0C0C" stroke-miterlimit="10"/>
<path d="M56.0322 142.416C56.0322 142.416 52.4233 139.24 50.875 137.191C50.875 137.191 51.6987 128.75 58.1523 125.968C58.1523 125.968 71.1897 124.921 90.1741 136.28L56.0351 142.416H56.0322Z" fill="white"/>
<path d="M81.1898 129.011C81.0653 128.728 80.8841 128.368 80.6322 127.969C80.6379 127.836 80.6181 127.7 80.5614 127.573C79.9302 126.124 77.8017 123.01 72.0444 122.084C60.3713 120.208 56.969 126.636 56.969 126.636H58.7041L69.9696 128.111C70.7763 128.569 71.6962 128.997 72.6501 129.322C73.9154 129.755 74.5692 130.661 75.0306 131.139C75.424 131.55 76.0298 131.674 76.5506 131.445C76.7827 131.343 76.9412 131.137 76.9893 130.902C77.0063 130.919 77.0261 130.941 77.0431 130.958C77.3346 131.278 77.796 131.377 78.1951 131.204C78.6876 130.989 78.9367 130.429 78.7584 129.922C78.7301 129.843 78.699 129.758 78.6622 129.67C78.8518 129.809 79.0245 129.942 79.1717 130.064C79.6812 130.483 80.4114 130.494 80.9266 130.078C81.2464 129.82 81.354 129.384 81.1898 129.008V129.011Z" fill="white" stroke="#0C0C0C" stroke-miterlimit="10"/>
<path d="M70.1112 79.1086L69.1375 84.1186L70.0687 84.2856L71.1669 79.4256L70.1112 79.1086Z" fill="#0C0C0C"/>
<path d="M55.7236 85.2055L56.4284 84.9706L55.7292 79.1086H54.6479L55.6641 86.1198" fill="#0C0C0C"/>
<path d="M40.7332 95.186L41.1521 109.562" stroke="#0C0C0C" stroke-linecap="round" stroke-linejoin="round"/>
<path d="M48.4973 289.117L77.3291 289.386" stroke="#0C0C0C" stroke-linecap="round" stroke-linejoin="round"/>
<path d="M62.1829 278.916L73.3125 274.831L65.537 279.632L73.3323 277.121" stroke="#0C0C0C" stroke-linecap="round" stroke-linejoin="round"/>
<path d="M50.6599 273.642L47.1529 272.38L52.5932 269.323L46.9802 270.891" stroke="#0C0C0C" stroke-linecap="round" stroke-linejoin="round"/>
<path d="M51.577 221.895L48.6814 256.954" stroke="#0C0C0C" stroke-miterlimit="10"/>
<path d="M48.1831 169.564L59.4033 168.797" stroke="#0C0C0C" stroke-linecap="round" stroke-linejoin="round"/>
<path d="M53.7424 143.557L51.9421 158.513" stroke="#0C0C0C" stroke-linecap="round" stroke-linejoin="round"/>
<path d="M57.0258 143.557L55.2256 158.513" stroke="#0C0C0C" stroke-linecap="round" stroke-linejoin="round"/>
<path d="M56.6125 142.934C56.6125 142.934 52.5846 139.489 50.875 137.191C50.875 137.191 51.9336 129.789 56.9691 126.639" stroke="#0C0C0C" stroke-linecap="round" stroke-linejoin="round"/>
<path d="M78.1953 131.207C78.1953 131.207 80.8871 131.782 85.0027 134.428" stroke="#0C0C0C" stroke-linecap="round" stroke-linejoin="round"/>
<path d="M36.4563 130.449C36.4563 130.449 37.5942 126.31 44.7667 127.423" stroke="#0C0C0C" stroke-linecap="round" stroke-linejoin="round"/>
<path d="M35.072 128.79C35.072 128.79 38.1799 123.548 45.8846 126.26" stroke="#0C0C0C" stroke-linecap="round" stroke-linejoin="round"/>
<path d="M33.5012 126.579C33.5012 126.579 36.8894 121.884 46.2527 124.898" stroke="#0C0C0C" stroke-linecap="round" stroke-linejoin="round"/>
<path d="M24.0471 130.845C24.0471 130.845 25.9124 128.23 32.5217 127.822" stroke="#0C0C0C" stroke-linecap="round" stroke-linejoin="round"/>
<path d="M25.6379 127.672C25.6379 127.672 28.6298 126.361 32.6803 127.494" stroke="#0C0C0C" stroke-linecap="round" stroke-linejoin="round"/>
<path d="M39.9746 116.67L39.7793 122.645" stroke="#0C0C0C" stroke-linecap="round" stroke-linejoin="round"/>
<path d="M86.1715 99.7432L81.269 113.327" stroke="#0C0C0C" stroke-linecap="round" stroke-linejoin="round"/>
<path d="M80.6322 127.969C80.6322 127.969 78.1951 123.183 69.4006 123.316" stroke="#0C0C0C" stroke-linecap="round" stroke-linejoin="round"/>
<path d="M78.7585 129.925C78.7585 129.925 77.3036 124.117 69.1404 124.839" stroke="#0C0C0C" stroke-linecap="round" stroke-linejoin="round"/>
<path d="M77.0431 130.961C77.0431 130.961 76.2392 126.121 69.4006 126.214" stroke="#0C0C0C" stroke-linecap="round" stroke-linejoin="round"/>
<path d="M80.3265 119.062L79.2905 125.643" stroke="#0C0C0C" stroke-linecap="round" stroke-linejoin="round"/>
<path d="M181.753 187.908H166.242C164.588 187.908 163.247 189.249 163.247 190.903V209.967C163.247 211.621 164.588 212.961 166.242 212.961H181.753C183.407 212.961 184.748 211.621 184.748 209.967V190.903C184.748 189.249 183.407 187.908 181.753 187.908Z" fill="white" stroke="#0C0C0C" stroke-miterlimit="10"/>
<path d="M169.154 197.368C169.154 194.693 171.322 192.525 173.997 192.525C176.672 192.525 178.84 194.693 178.84 197.368C178.84 199.199 177.821 200.796 176.321 201.617V208.345H171.671V201.617C170.17 200.793 169.151 199.199 169.151 197.368H169.154Z" fill="#0C0C0C"/>
</g>
<defs>
<clipPath id="clip0_1_4517">
<rect width="330" height="330" fill="white" transform="translate(16 16)"/>
</clipPath>
</defs>
</svg>
