<svg width="18" height="18" viewBox="0 0 18 18" fill="none" xmlns="http://www.w3.org/2000/svg">
<path fill-rule="evenodd" clip-rule="evenodd" d="M9 18C13.9706 18 18 13.9706 18 9C18 4.02944 13.9706 0 9 0C4.02944 0 0 4.02944 0 9C0 13.9706 4.02944 18 9 18Z" fill="#00A364"/>
<path d="M13.9442 6.81158C14.2371 6.51869 14.2371 6.04381 13.9442 5.75092C13.6514 5.45803 13.1765 5.45803 12.8836 5.75092L7.22264 11.4119L5.07952 9.26874C4.78663 8.97585 4.31176 8.97585 4.01886 9.26874C3.72597 9.56164 3.72597 10.0365 4.01886 10.3294L6.67051 12.9811C6.70795 13.0185 6.74835 13.0511 6.79097 13.079C7.08395 13.2886 7.49394 13.2619 7.75706 12.9988L13.9442 6.81158Z" fill="white"/>
</svg>
