<svg width="328" height="140" viewBox="0 0 328 140" fill="none" xmlns="http://www.w3.org/2000/svg">
<g clip-path="url(#clip0_1113_31)">
<rect width="328" height="140" rx="20" fill="#002EFF"/>
<mask id="path-2-outside-1_1113_31" maskUnits="userSpaceOnUse" x="15" y="30" width="178" height="34" fill="black">
<rect fill="white" x="15" y="30" width="178" height="34"/>
<path d="M21.1277 33.76C21.8077 33.76 22.3677 33.99 22.8077 34.45C23.2477 34.89 23.4677 35.45 23.4677 36.13C23.4677 36.81 23.2477 37.37 22.8077 37.81C22.3877 38.25 21.8277 38.47 21.1277 38.47C20.4277 38.47 19.8577 38.25 19.4177 37.81C18.9777 37.37 18.7577 36.81 18.7577 36.13C18.7577 35.43 18.9777 34.86 19.4177 34.42C19.8777 33.98 20.4477 33.76 21.1277 33.76ZM19.5977 41.29C19.5977 41.19 19.6277 41.11 19.6877 41.05C19.7677 40.97 19.8577 40.93 19.9577 40.93H22.6277C22.7277 40.93 22.8077 40.97 22.8677 41.05C22.9477 41.11 22.9877 41.19 22.9877 41.29L23.4377 54.37C23.4377 54.47 23.3977 54.56 23.3177 54.64C23.2577 54.7 23.1777 54.73 23.0777 54.73H19.5677C19.4677 54.73 19.3777 54.7 19.2977 54.64C19.2377 54.56 19.2077 54.47 19.2077 54.37L19.5977 41.29ZM44.9831 37.27C44.9831 37.37 44.9431 37.46 44.8631 37.54C44.8031 37.6 44.7231 37.63 44.6231 37.63H34.7831C34.6831 37.63 34.6331 37.68 34.6331 37.78V42.43C34.6331 42.53 34.6831 42.58 34.7831 42.58H41.2331C41.3331 42.58 41.4131 42.62 41.4731 42.7C41.5531 42.76 41.5931 42.84 41.5931 42.94V45.85C41.5931 45.95 41.5531 46.04 41.4731 46.12C41.4131 46.18 41.3331 46.21 41.2331 46.21H34.7831C34.6831 46.21 34.6331 46.26 34.6331 46.36V51.22C34.6331 51.32 34.6831 51.37 34.7831 51.37H44.6231C44.7231 51.37 44.8031 51.41 44.8631 51.49C44.9431 51.55 44.9831 51.63 44.9831 51.73V54.64C44.9831 54.74 44.9431 54.83 44.8631 54.91C44.8031 54.97 44.7231 55 44.6231 55H30.7631C30.6631 55 30.5731 54.97 30.4931 54.91C30.4331 54.83 30.4031 54.74 30.4031 54.64V34.36C30.4031 34.26 30.4331 34.18 30.4931 34.12C30.5731 34.04 30.6631 34 30.7631 34H44.6231C44.7231 34 44.8031 34.04 44.8631 34.12C44.9431 34.18 44.9831 34.26 44.9831 34.36V37.27ZM66.8955 39.34C68.4555 39.34 69.6755 39.81 70.5555 40.75C71.4355 41.69 71.8755 43.01 71.8755 44.71V54.64C71.8755 54.74 71.8355 54.83 71.7555 54.91C71.6955 54.97 71.6155 55 71.5155 55H68.0055C67.9055 55 67.8155 54.97 67.7355 54.91C67.6755 54.83 67.6455 54.74 67.6455 54.64V45.64C67.6455 44.82 67.4355 44.17 67.0155 43.69C66.5955 43.21 66.0355 42.97 65.3355 42.97C64.6355 42.97 64.0655 43.21 63.6255 43.69C63.1855 44.17 62.9655 44.81 62.9655 45.61V54.64C62.9655 54.74 62.9255 54.83 62.8455 54.91C62.7855 54.97 62.7055 55 62.6055 55H59.1255C59.0255 55 58.9355 54.97 58.8555 54.91C58.7955 54.83 58.7655 54.74 58.7655 54.64V45.64C58.7655 44.84 58.5455 44.2 58.1055 43.72C57.6655 43.22 57.0955 42.97 56.3955 42.97C55.7555 42.97 55.2155 43.16 54.7755 43.54C54.3555 43.92 54.1055 44.45 54.0255 45.13V54.64C54.0255 54.74 53.9855 54.83 53.9055 54.91C53.8455 54.97 53.7655 55 53.6655 55H50.1555C50.0555 55 49.9655 54.97 49.8855 54.91C49.8255 54.83 49.7955 54.74 49.7955 54.64V39.94C49.7955 39.84 49.8255 39.76 49.8855 39.7C49.9655 39.62 50.0555 39.58 50.1555 39.58H53.6655C53.7655 39.58 53.8455 39.62 53.9055 39.7C53.9855 39.76 54.0255 39.84 54.0255 39.94V41.11C54.0255 41.17 54.0455 41.21 54.0855 41.23C54.1255 41.25 54.1655 41.23 54.2055 41.17C55.0255 39.95 56.2955 39.34 58.0155 39.34C59.0155 39.34 59.8855 39.55 60.6255 39.97C61.3855 40.39 61.9655 40.99 62.3655 41.77C62.4255 41.89 62.4955 41.89 62.5755 41.77C63.0155 40.95 63.6055 40.34 64.3455 39.94C65.1055 39.54 65.9555 39.34 66.8955 39.34ZM90.6079 43.51C90.9879 44.55 91.1779 45.79 91.1779 47.23C91.1779 48.61 91.0079 49.82 90.6679 50.86C90.2079 52.22 89.4679 53.29 88.4479 54.07C87.4479 54.85 86.2579 55.24 84.8779 55.24C83.4179 55.24 82.2679 54.69 81.4279 53.59C81.3879 53.55 81.3479 53.54 81.3079 53.56C81.2679 53.56 81.2479 53.59 81.2479 53.65V54.64C81.2479 54.74 81.2079 54.83 81.1279 54.91C81.0679 54.97 80.9879 55 80.8879 55H77.3779C77.2779 55 77.1879 54.97 77.1079 54.91C77.0479 54.83 77.0179 54.74 77.0179 54.64V34.36C77.0179 34.26 77.0479 34.18 77.1079 34.12C77.1879 34.04 77.2779 34 77.3779 34H80.8879C80.9879 34 81.0679 34.04 81.1279 34.12C81.2079 34.18 81.2479 34.26 81.2479 34.36V40.78C81.2479 40.84 81.2679 40.88 81.3079 40.9C81.3479 40.92 81.3879 40.9 81.4279 40.84C82.2079 39.84 83.3179 39.34 84.7579 39.34C86.2179 39.34 87.4379 39.72 88.4179 40.48C89.4179 41.22 90.1479 42.23 90.6079 43.51ZM86.1679 50.32C86.5879 49.56 86.7979 48.56 86.7979 47.32C86.7979 45.94 86.5579 44.88 86.0779 44.14C85.5979 43.36 84.8879 42.97 83.9479 42.97C83.0679 42.97 82.3979 43.36 81.9379 44.14C81.4979 44.9 81.2779 45.95 81.2779 47.29C81.2779 48.63 81.4779 49.64 81.8779 50.32C82.3579 51.18 83.0579 51.61 83.9779 51.61C84.9579 51.61 85.6879 51.18 86.1679 50.32ZM102.243 39.34C103.543 39.34 104.703 39.57 105.723 40.03C106.743 40.47 107.533 41.08 108.093 41.86C108.673 42.64 108.963 43.51 108.963 44.47V54.64C108.963 54.74 108.923 54.83 108.843 54.91C108.783 54.97 108.703 55 108.603 55H105.093C104.993 55 104.903 54.97 104.823 54.91C104.763 54.83 104.733 54.74 104.733 54.64V53.65C104.733 53.59 104.713 53.55 104.673 53.53C104.633 53.51 104.593 53.53 104.553 53.59C103.713 54.69 102.363 55.24 100.503 55.24C98.9429 55.24 97.6829 54.86 96.7229 54.1C95.7629 53.34 95.2829 52.22 95.2829 50.74C95.2829 49.2 95.8229 48.01 96.9029 47.17C97.9829 46.31 99.5229 45.88 101.523 45.88H104.583C104.683 45.88 104.733 45.83 104.733 45.73V45.07C104.733 44.41 104.533 43.9 104.133 43.54C103.733 43.16 103.133 42.97 102.333 42.97C101.713 42.97 101.193 43.08 100.773 43.3C100.373 43.52 100.113 43.83 99.9929 44.23C99.9329 44.45 99.8029 44.55 99.6029 44.53L95.9729 44.05C95.7329 44.01 95.6229 43.92 95.6429 43.78C95.7229 42.94 96.0529 42.18 96.6329 41.5C97.2329 40.82 98.0129 40.29 98.9729 39.91C99.9529 39.53 101.043 39.34 102.243 39.34ZM101.643 52.09C102.503 52.09 103.233 51.86 103.833 51.4C104.433 50.94 104.733 50.35 104.733 49.63V48.55C104.733 48.45 104.683 48.4 104.583 48.4H102.423C101.523 48.4 100.813 48.57 100.293 48.91C99.7929 49.25 99.5429 49.73 99.5429 50.35C99.5429 50.89 99.7329 51.32 100.113 51.64C100.493 51.94 101.003 52.09 101.643 52.09ZM116.335 37.84C115.655 37.84 115.095 37.62 114.655 37.18C114.215 36.72 113.995 36.15 113.995 35.47C113.995 34.77 114.215 34.2 114.655 33.76C115.095 33.32 115.655 33.1 116.335 33.1C117.035 33.1 117.605 33.32 118.045 33.76C118.485 34.2 118.705 34.77 118.705 35.47C118.705 36.15 118.475 36.72 118.015 37.18C117.575 37.62 117.015 37.84 116.335 37.84ZM111.085 61.12C110.845 61.12 110.725 61 110.725 60.76V57.91C110.725 57.65 110.855 57.54 111.115 57.58C112.295 57.62 113.115 57.45 113.575 57.07C114.055 56.69 114.295 56.02 114.295 55.06L114.235 39.94C114.235 39.84 114.265 39.76 114.325 39.7C114.405 39.62 114.495 39.58 114.595 39.58H118.105C118.205 39.58 118.285 39.62 118.345 39.7C118.425 39.76 118.465 39.84 118.465 39.94V55C118.465 56.62 118.245 57.87 117.805 58.75C117.365 59.65 116.615 60.28 115.555 60.64C114.515 61 113.025 61.16 111.085 61.12ZM129.995 39.34C131.295 39.34 132.455 39.57 133.475 40.03C134.495 40.47 135.285 41.08 135.845 41.86C136.425 42.64 136.715 43.51 136.715 44.47V54.64C136.715 54.74 136.675 54.83 136.595 54.91C136.535 54.97 136.455 55 136.355 55H132.845C132.745 55 132.655 54.97 132.575 54.91C132.515 54.83 132.485 54.74 132.485 54.64V53.65C132.485 53.59 132.465 53.55 132.425 53.53C132.385 53.51 132.345 53.53 132.305 53.59C131.465 54.69 130.115 55.24 128.255 55.24C126.695 55.24 125.435 54.86 124.475 54.1C123.515 53.34 123.035 52.22 123.035 50.74C123.035 49.2 123.575 48.01 124.655 47.17C125.735 46.31 127.275 45.88 129.275 45.88H132.335C132.435 45.88 132.485 45.83 132.485 45.73V45.07C132.485 44.41 132.285 43.9 131.885 43.54C131.485 43.16 130.885 42.97 130.085 42.97C129.465 42.97 128.945 43.08 128.525 43.3C128.125 43.52 127.865 43.83 127.745 44.23C127.685 44.45 127.555 44.55 127.355 44.53L123.725 44.05C123.485 44.01 123.375 43.92 123.395 43.78C123.475 42.94 123.805 42.18 124.385 41.5C124.985 40.82 125.765 40.29 126.725 39.91C127.705 39.53 128.795 39.34 129.995 39.34ZM129.395 52.09C130.255 52.09 130.985 51.86 131.585 51.4C132.185 50.94 132.485 50.35 132.485 49.63V48.55C132.485 48.45 132.435 48.4 132.335 48.4H130.175C129.275 48.4 128.565 48.57 128.045 48.91C127.545 49.25 127.295 49.73 127.295 50.35C127.295 50.89 127.485 51.32 127.865 51.64C128.245 51.94 128.755 52.09 129.395 52.09ZM151.408 34.36C151.408 34.26 151.438 34.18 151.498 34.12C151.578 34.04 151.668 34 151.768 34H155.278C155.378 34 155.458 34.04 155.518 34.12C155.598 34.18 155.638 34.26 155.638 34.36V54.64C155.638 54.74 155.598 54.83 155.518 54.91C155.458 54.97 155.378 55 155.278 55H151.768C151.668 55 151.578 54.97 151.498 54.91C151.438 54.83 151.408 54.74 151.408 54.64V53.65C151.408 53.59 151.388 53.56 151.348 53.56C151.308 53.54 151.268 53.55 151.228 53.59C150.388 54.69 149.238 55.24 147.778 55.24C146.378 55.24 145.168 54.85 144.148 54.07C143.148 53.29 142.428 52.22 141.988 50.86C141.648 49.82 141.478 48.61 141.478 47.23C141.478 45.81 141.658 44.57 142.018 43.51C142.478 42.23 143.198 41.22 144.178 40.48C145.178 39.72 146.408 39.34 147.868 39.34C149.308 39.34 150.428 39.84 151.228 40.84C151.268 40.9 151.308 40.92 151.348 40.9C151.388 40.88 151.408 40.84 151.408 40.78V34.36ZM150.778 50.32C151.178 49.58 151.378 48.57 151.378 47.29C151.378 45.95 151.158 44.9 150.718 44.14C150.258 43.36 149.588 42.97 148.708 42.97C147.768 42.97 147.058 43.36 146.578 44.14C146.078 44.92 145.828 45.98 145.828 47.32C145.828 48.52 146.038 49.52 146.458 50.32C146.958 51.18 147.698 51.61 148.678 51.61C149.578 51.61 150.278 51.18 150.778 50.32ZM167.783 55.24C166.103 55.24 164.663 54.8 163.463 53.92C162.263 53.04 161.443 51.84 161.003 50.32C160.723 49.38 160.583 48.36 160.583 47.26C160.583 46.08 160.723 45.02 161.003 44.08C161.463 42.6 162.293 41.44 163.493 40.6C164.693 39.76 166.133 39.34 167.813 39.34C169.453 39.34 170.853 39.76 172.013 40.6C173.173 41.42 173.993 42.57 174.473 44.05C174.793 45.05 174.953 46.1 174.953 47.2C174.953 48.28 174.813 49.29 174.533 50.23C174.093 51.79 173.273 53.02 172.073 53.92C170.893 54.8 169.463 55.24 167.783 55.24ZM167.783 51.61C168.443 51.61 169.003 51.41 169.463 51.01C169.923 50.61 170.253 50.06 170.453 49.36C170.613 48.72 170.693 48.02 170.693 47.26C170.693 46.42 170.613 45.71 170.453 45.13C170.233 44.45 169.893 43.92 169.433 43.54C168.973 43.16 168.413 42.97 167.753 42.97C167.073 42.97 166.503 43.16 166.043 43.54C165.603 43.92 165.283 44.45 165.083 45.13C164.923 45.61 164.843 46.32 164.843 47.26C164.843 48.16 164.913 48.86 165.053 49.36C165.253 50.06 165.583 50.61 166.043 51.01C166.523 51.41 167.103 51.61 167.783 51.61ZM187.495 39.37C188.215 39.37 188.785 39.51 189.205 39.79C189.365 39.87 189.425 40.02 189.385 40.24L188.755 43.66C188.735 43.9 188.595 43.97 188.335 43.87C188.035 43.77 187.685 43.72 187.285 43.72C187.125 43.72 186.905 43.74 186.625 43.78C185.905 43.84 185.295 44.11 184.795 44.59C184.295 45.05 184.045 45.67 184.045 46.45V54.64C184.045 54.74 184.005 54.83 183.925 54.91C183.865 54.97 183.785 55 183.685 55H180.175C180.075 55 179.985 54.97 179.905 54.91C179.845 54.83 179.815 54.74 179.815 54.64V39.94C179.815 39.84 179.845 39.76 179.905 39.7C179.985 39.62 180.075 39.58 180.175 39.58H183.685C183.785 39.58 183.865 39.62 183.925 39.7C184.005 39.76 184.045 39.84 184.045 39.94V41.08C184.045 41.14 184.065 41.18 184.105 41.2C184.145 41.22 184.175 41.21 184.195 41.17C185.015 39.97 186.115 39.37 187.495 39.37Z"/>
</mask>
<path d="M22.8077 34.45L20.7379 36.4298L20.7599 36.4528L20.7824 36.4753L22.8077 34.45ZM22.8077 37.81L20.7824 35.7847L20.7589 35.8082L20.7359 35.8323L22.8077 37.81ZM19.4177 37.81L21.4431 35.7847V35.7847L19.4177 37.81ZM19.4177 34.42L17.4379 32.3502L17.4149 32.3722L17.3924 32.3947L19.4177 34.42ZM19.5977 41.29L22.4607 41.3754L22.462 41.3327V41.29H19.5977ZM19.6877 41.05L17.6624 39.0247L17.6624 39.0247L19.6877 41.05ZM22.8677 41.05L20.5764 42.7685L20.8219 43.0959L21.1492 43.3414L22.8677 41.05ZM22.9877 41.29H20.1235V41.3393L20.1252 41.3885L22.9877 41.29ZM23.4377 54.37H26.302V54.3207L26.3003 54.2715L23.4377 54.37ZM23.3177 54.64L21.2924 52.6147L21.2924 52.6147L23.3177 54.64ZM19.2977 54.64L17.0064 56.3585L17.2519 56.6859L17.5792 56.9314L19.2977 54.64ZM19.2077 54.37L16.3448 54.2846L16.3435 54.3273V54.37H19.2077ZM21.1277 36.6242C21.1404 36.6242 21.0749 36.6252 20.9696 36.582C20.8602 36.537 20.7802 36.474 20.7379 36.4298L24.8776 32.4702C23.8574 31.4036 22.5299 30.8958 21.1277 30.8958V36.6242ZM20.7824 36.4753C20.7337 36.4266 20.6758 36.3465 20.6368 36.2473C20.5998 36.1531 20.6035 36.1021 20.6035 36.13H26.332C26.332 34.768 25.8627 33.4543 24.8331 32.4247L20.7824 36.4753ZM20.6035 36.13C20.6035 36.1579 20.5998 36.1069 20.6368 36.0127C20.6758 35.9135 20.7337 35.8334 20.7824 35.7847L24.8331 39.8353C25.8627 38.8057 26.332 37.492 26.332 36.13H20.6035ZM20.7359 35.8323C20.8101 35.7546 20.9136 35.683 21.0254 35.6391C21.1288 35.5985 21.177 35.6058 21.1277 35.6058V41.3342C22.4816 41.3342 23.8361 40.8808 24.8796 39.7877L20.7359 35.8323ZM21.1277 35.6058C21.0796 35.6058 21.1183 35.5988 21.2066 35.6329C21.3014 35.6695 21.3859 35.7275 21.4431 35.7847L17.3924 39.8353C18.4386 40.8815 19.7717 41.3342 21.1277 41.3342V35.6058ZM21.4431 35.7847C21.4918 35.8334 21.5497 35.9135 21.5886 36.0127C21.6257 36.1069 21.622 36.1579 21.622 36.13H15.8935C15.8935 37.492 16.3628 38.8057 17.3924 39.8353L21.4431 35.7847ZM21.622 36.13C21.622 36.0819 21.6289 36.1205 21.5949 36.2088C21.5583 36.3037 21.5003 36.3881 21.4431 36.4453L17.3924 32.3947C16.3462 33.4409 15.8935 34.774 15.8935 36.13H21.622ZM21.3976 36.4898C21.3659 36.5201 21.3042 36.5652 21.2216 36.5971C21.1424 36.6277 21.1007 36.6242 21.1277 36.6242V30.8958C19.7655 30.8958 18.4697 31.3633 17.4379 32.3502L21.3976 36.4898ZM22.462 41.29C22.462 41.8037 22.2853 42.5031 21.7131 43.0753L17.6624 39.0247C16.9702 39.7169 16.7335 40.5763 16.7335 41.29H22.462ZM21.7131 43.0753C21.541 43.2474 21.2988 43.435 20.9785 43.5774C20.6516 43.7227 20.3022 43.7942 19.9577 43.7942V38.0658C18.9959 38.0658 18.2027 38.4844 17.6624 39.0247L21.7131 43.0753ZM19.9577 43.7942H22.6277V38.0658H19.9577V43.7942ZM22.6277 43.7942C22.2861 43.7942 21.8844 43.7232 21.4818 43.5219C21.0792 43.3206 20.7813 43.0418 20.5764 42.7685L25.1591 39.3315C24.5582 38.5302 23.6293 38.0658 22.6277 38.0658V43.7942ZM21.1492 43.3414C20.8759 43.1364 20.5972 42.8385 20.3959 42.4359C20.1946 42.0333 20.1235 41.6316 20.1235 41.29H25.852C25.852 40.2885 25.3875 39.3595 24.5863 38.7586L21.1492 43.3414ZM20.1252 41.3885L20.5752 54.4685L26.3003 54.2715L25.8503 41.1915L20.1252 41.3885ZM20.5735 54.37C20.5735 54.0256 20.6451 53.6762 20.7904 53.3492C20.9327 53.0289 21.1204 52.7867 21.2924 52.6147L25.3431 56.6653C25.8833 56.1251 26.302 55.3319 26.302 54.37H20.5735ZM21.2924 52.6147C21.8647 52.0424 22.5641 51.8658 23.0777 51.8658V57.5942C23.7914 57.5942 24.6508 57.3576 25.3431 56.6653L21.2924 52.6147ZM23.0777 51.8658H19.5677V57.5942H23.0777V51.8658ZM19.5677 51.8658C20.0875 51.8658 20.6005 52.0368 21.0163 52.3486L17.5792 56.9314C18.155 57.3632 18.848 57.5942 19.5677 57.5942V51.8658ZM21.5891 52.9215C21.901 53.3372 22.072 53.8503 22.072 54.37H16.3435C16.3435 55.0897 16.5745 55.7828 17.0064 56.3585L21.5891 52.9215ZM22.0707 54.4554L22.4607 41.3754L16.7348 41.2046L16.3448 54.2846L22.0707 54.4554ZM44.8631 37.54L46.8884 39.5653L46.8884 39.5653L44.8631 37.54ZM41.4731 42.7L39.1817 44.4185L39.4272 44.7459L39.7546 44.9914L41.4731 42.7ZM44.8631 51.49L42.5717 53.2086L42.8172 53.5359L43.1446 53.7814L44.8631 51.49ZM44.8631 54.91L46.8884 56.9353L46.8884 56.9353L44.8631 54.91ZM30.4931 54.91L28.2017 56.6285L28.4472 56.9559L28.7746 57.2014L30.4931 54.91ZM30.4931 34.12L28.4678 32.0947L28.4678 32.0947L30.4931 34.12ZM44.8631 34.12L42.5717 35.8385L42.8172 36.1659L43.1446 36.4114L44.8631 34.12ZM42.1189 37.27C42.1189 36.9256 42.1904 36.5762 42.3357 36.2492C42.4781 35.9289 42.6657 35.6867 42.8378 35.5147L46.8884 39.5653C47.4287 39.0251 47.8473 38.2319 47.8473 37.27H42.1189ZM42.8378 35.5147C43.41 34.9424 44.1094 34.7658 44.6231 34.7658V40.4942C45.3368 40.4942 46.1962 40.2576 46.8884 39.5653L42.8378 35.5147ZM44.6231 34.7658H34.7831V40.4942H44.6231V34.7658ZM34.7831 34.7658C34.2916 34.7658 33.3969 34.8906 32.6453 35.6422C31.8937 36.3938 31.7689 37.2885 31.7689 37.78H37.4973C37.4973 38.1715 37.3975 38.9912 36.6959 39.6928C35.9943 40.3944 35.1746 40.4942 34.7831 40.4942V34.7658ZM31.7689 37.78V42.43H37.4973V37.78H31.7689ZM31.7689 42.43C31.7689 42.9215 31.8937 43.8162 32.6453 44.5678C33.3969 45.3194 34.2916 45.4442 34.7831 45.4442V39.7158C35.1746 39.7158 35.9943 39.8156 36.6959 40.5172C37.3975 41.2188 37.4973 42.0385 37.4973 42.43H31.7689ZM34.7831 45.4442H41.2331V39.7158H34.7831V45.4442ZM41.2331 45.4442C40.8915 45.4442 40.4898 45.3732 40.0872 45.1719C39.6846 44.9706 39.3867 44.6918 39.1817 44.4185L43.7645 40.9815C43.1636 40.1802 42.2346 39.7158 41.2331 39.7158V45.4442ZM39.7546 44.9914C39.4813 44.7864 39.2025 44.4885 39.0012 44.0859C38.7999 43.6833 38.7289 43.2816 38.7289 42.94H44.4573C44.4573 41.9385 43.9929 41.0095 43.1917 40.4086L39.7546 44.9914ZM38.7289 42.94V45.85H44.4573V42.94H38.7289ZM38.7289 45.85C38.7289 45.5056 38.8004 45.1562 38.9457 44.8292C39.0881 44.5089 39.2757 44.2667 39.4478 44.0947L43.4984 48.1453C44.0387 47.6051 44.4573 46.8119 44.4573 45.85H38.7289ZM39.4478 44.0947C40.02 43.5224 40.7194 43.3458 41.2331 43.3458V49.0742C41.9468 49.0742 42.8062 48.8376 43.4984 48.1453L39.4478 44.0947ZM41.2331 43.3458H34.7831V49.0742H41.2331V43.3458ZM34.7831 43.3458C34.2916 43.3458 33.3969 43.4706 32.6453 44.2222C31.8937 44.9738 31.7689 45.8685 31.7689 46.36H37.4973C37.4973 46.7515 37.3975 47.5712 36.6959 48.2728C35.9943 48.9744 35.1746 49.0742 34.7831 49.0742V43.3458ZM31.7689 46.36V51.22H37.4973V46.36H31.7689ZM31.7689 51.22C31.7689 51.7115 31.8937 52.6062 32.6453 53.3578C33.3969 54.1094 34.2916 54.2342 34.7831 54.2342V48.5058C35.1746 48.5058 35.9943 48.6056 36.6959 49.3072C37.3975 50.0088 37.4973 50.8285 37.4973 51.22H31.7689ZM34.7831 54.2342H44.6231V48.5058H34.7831V54.2342ZM44.6231 54.2342C44.2815 54.2342 43.8798 54.1632 43.4772 53.9619C43.0746 53.7606 42.7767 53.4818 42.5717 53.2086L47.1545 49.7714C46.5536 48.9702 45.6246 48.5058 44.6231 48.5058V54.2342ZM43.1446 53.7814C42.8713 53.5764 42.5925 53.2785 42.3912 52.8759C42.1899 52.4733 42.1189 52.0716 42.1189 51.73H47.8473C47.8473 50.7285 47.3829 49.7995 46.5816 49.1986L43.1446 53.7814ZM42.1189 51.73V54.64H47.8473V51.73H42.1189ZM42.1189 54.64C42.1189 54.2956 42.1904 53.9462 42.3357 53.6192C42.4781 53.2989 42.6657 53.0567 42.8378 52.8847L46.8884 56.9353C47.4287 56.3951 47.8473 55.6019 47.8473 54.64H42.1189ZM42.8378 52.8847C43.41 52.3124 44.1094 52.1358 44.6231 52.1358V57.8642C45.3368 57.8642 46.1962 57.6276 46.8884 56.9353L42.8378 52.8847ZM44.6231 52.1358H30.7631V57.8642H44.6231V52.1358ZM30.7631 52.1358C31.2828 52.1358 31.7959 52.3068 32.2116 52.6186L28.7746 57.2014C29.3503 57.6332 30.0434 57.8642 30.7631 57.8642V52.1358ZM32.7845 53.1915C33.0963 53.6072 33.2673 54.1203 33.2673 54.64H27.5389C27.5389 55.3597 27.7699 56.0528 28.2017 56.6285L32.7845 53.1915ZM33.2673 54.64V34.36H27.5389V54.64H33.2673ZM33.2673 34.36C33.2673 34.8737 33.0907 35.5731 32.5184 36.1453L28.4678 32.0947C27.7755 32.7869 27.5389 33.6463 27.5389 34.36H33.2673ZM32.5184 36.1453C32.3464 36.3174 32.1042 36.505 31.7839 36.6474C31.4569 36.7927 31.1075 36.8642 30.7631 36.8642V31.1358C29.8012 31.1358 29.008 31.5544 28.4678 32.0947L32.5184 36.1453ZM30.7631 36.8642H44.6231V31.1358H30.7631V36.8642ZM44.6231 36.8642C44.2815 36.8642 43.8798 36.7932 43.4772 36.5919C43.0746 36.3906 42.7767 36.1118 42.5717 35.8385L47.1545 32.4014C46.5536 31.6002 45.6246 31.1358 44.6231 31.1358V36.8642ZM43.1446 36.4114C42.8713 36.2064 42.5925 35.9085 42.3912 35.5059C42.1899 35.1033 42.1189 34.7016 42.1189 34.36H47.8473C47.8473 33.3585 47.3829 32.4295 46.5817 31.8286L43.1446 36.4114ZM42.1189 34.36V37.27H47.8473V34.36H42.1189ZM70.5555 40.75L68.4645 42.7075V42.7075L70.5555 40.75ZM71.7555 54.91L73.7808 56.9353L73.7808 56.9353L71.7555 54.91ZM67.7355 54.91L65.4441 56.6286L65.6896 56.9559L66.0169 57.2014L67.7355 54.91ZM67.0155 43.69L69.1711 41.8039V41.8039L67.0155 43.69ZM63.6255 43.69L61.5141 41.7546L63.6255 43.69ZM62.8455 54.91L60.8202 52.8847L60.8202 52.8847L62.8455 54.91ZM58.8555 54.91L56.5641 56.6285L56.8096 56.9559L57.1369 57.2014L58.8555 54.91ZM58.1055 43.72L55.9553 45.6122L55.9745 45.634L55.9941 45.6554L58.1055 43.72ZM54.7755 43.54L52.9034 41.3723L52.8783 41.3939L52.8538 41.4161L54.7755 43.54ZM54.0255 45.13L51.1809 44.7953L51.1612 44.9621V45.13H54.0255ZM53.9055 54.91L55.9308 56.9353L55.9308 56.9353L53.9055 54.91ZM49.8855 54.91L47.5941 56.6285L47.8396 56.9559L48.1669 57.2014L49.8855 54.91ZM49.8855 39.7L47.8602 37.6747L47.8602 37.6747L49.8855 39.7ZM53.9055 39.7L51.6141 41.4186L51.8596 41.7459L52.1869 41.9914L53.9055 39.7ZM54.2055 41.17L51.8283 39.5722L51.8223 39.5812L54.2055 41.17ZM60.6255 39.97L59.2117 42.461L59.2258 42.469L59.2401 42.4769L60.6255 39.97ZM62.3655 41.77L64.9273 40.4891L64.9208 40.476L64.9141 40.463L62.3655 41.77ZM62.5755 41.77L64.9587 43.3588L65.0346 43.2449L65.0993 43.1243L62.5755 41.77ZM64.3455 39.94L63.0115 37.4054L62.9974 37.4128L62.9835 37.4203L64.3455 39.94ZM66.8955 42.2042C67.8438 42.2042 68.2383 42.4659 68.4645 42.7075L72.6464 38.7925C71.1126 37.1541 69.0671 36.4758 66.8955 36.4758V42.2042ZM68.4645 42.7075C68.7054 42.9648 69.0112 43.498 69.0112 44.71H74.7397C74.7397 42.522 74.1655 40.4152 72.6464 38.7925L68.4645 42.7075ZM69.0112 44.71V54.64H74.7397V44.71H69.0112ZM69.0112 54.64C69.0112 54.2956 69.0828 53.9462 69.2281 53.6192C69.3705 53.2989 69.5581 53.0567 69.7302 52.8847L73.7808 56.9353C74.3211 56.3951 74.7397 55.6019 74.7397 54.64H69.0112ZM69.7302 52.8847C70.3024 52.3124 71.0018 52.1358 71.5155 52.1358V57.8642C72.2292 57.8642 73.0886 57.6276 73.7808 56.9353L69.7302 52.8847ZM71.5155 52.1358H68.0055V57.8642H71.5155V52.1358ZM68.0055 52.1358C68.5252 52.1358 69.0382 52.3068 69.454 52.6186L66.0169 57.2014C66.5927 57.6332 67.2858 57.8642 68.0055 57.8642V52.1358ZM70.0269 53.1914C70.3387 53.6072 70.5097 54.1203 70.5097 54.64H64.7812C64.7812 55.3597 65.0123 56.0528 65.4441 56.6286L70.0269 53.1914ZM70.5097 54.64V45.64H64.7812V54.64H70.5097ZM70.5097 45.64C70.5097 44.3295 70.1661 42.941 69.1711 41.8039L64.8599 45.5761C64.8308 45.5428 64.8071 45.5083 64.7894 45.4766C64.772 45.4454 64.7644 45.424 64.7625 45.4181C64.7593 45.4082 64.7812 45.471 64.7812 45.64H70.5097ZM69.1711 41.8039C68.1503 40.6373 66.7709 40.1058 65.3355 40.1058V45.8342C65.355 45.8342 65.2779 45.8365 65.1522 45.7827C65.0197 45.7259 64.9186 45.6432 64.8599 45.5761L69.1711 41.8039ZM65.3355 40.1058C63.9002 40.1058 62.5406 40.6347 61.5141 41.7546L65.7369 45.6254C65.6932 45.6731 65.6096 45.7413 65.4945 45.7898C65.3842 45.8362 65.3171 45.8342 65.3355 45.8342V40.1058ZM61.5141 41.7546C60.4851 42.8771 60.1012 44.2651 60.1012 45.61H65.8297C65.8297 45.4706 65.849 45.4326 65.8392 45.4611C65.8342 45.4756 65.8235 45.5017 65.8044 45.5342C65.7851 45.5669 65.7619 45.5982 65.7369 45.6254L61.5141 41.7546ZM60.1012 45.61V54.64H65.8297V45.61H60.1012ZM60.1012 54.64C60.1012 54.2956 60.1728 53.9462 60.3181 53.6192C60.4605 53.2989 60.6481 53.0567 60.8202 52.8847L64.8708 56.9353C65.4111 56.3951 65.8297 55.6019 65.8297 54.64H60.1012ZM60.8202 52.8847C61.3924 52.3124 62.0918 52.1358 62.6055 52.1358V57.8642C63.3192 57.8642 64.1786 57.6276 64.8708 56.9353L60.8202 52.8847ZM62.6055 52.1358H59.1255V57.8642H62.6055V52.1358ZM59.1255 52.1358C59.6452 52.1358 60.1582 52.3068 60.574 52.6186L57.1369 57.2014C57.7127 57.6332 58.4058 57.8642 59.1255 57.8642V52.1358ZM61.1469 53.1915C61.4587 53.6072 61.6297 54.1203 61.6297 54.64H55.9012C55.9012 55.3597 56.1323 56.0528 56.5641 56.6285L61.1469 53.1915ZM61.6297 54.64V45.64H55.9012V54.64H61.6297ZM61.6297 45.64C61.6297 44.2951 61.2458 42.9071 60.2169 41.7846L55.9941 45.6554C55.9691 45.6282 55.9459 45.5969 55.9266 45.5642C55.9074 45.5317 55.8968 45.5056 55.8918 45.4911C55.882 45.4626 55.9012 45.5006 55.9012 45.64H61.6297ZM60.2557 41.8278C59.2412 40.675 57.8709 40.1058 56.3955 40.1058V45.8342C56.3989 45.8342 56.3179 45.8333 56.1975 45.7805C56.0736 45.7262 55.9915 45.6534 55.9553 45.6122L60.2557 41.8278ZM56.3955 40.1058C55.1426 40.1058 53.9173 40.4966 52.9034 41.3723L56.6476 45.7077C56.6009 45.7481 56.5343 45.7886 56.4611 45.8144C56.3919 45.8387 56.3614 45.8342 56.3955 45.8342V40.1058ZM52.8538 41.4161C51.8176 42.3536 51.3242 43.5774 51.1809 44.7953L56.8701 45.4647C56.8799 45.3816 56.8907 45.3867 56.8635 45.4444C56.8499 45.4733 56.829 45.5105 56.7989 45.5513C56.7686 45.5924 56.734 45.6306 56.6971 45.6639L52.8538 41.4161ZM51.1612 45.13V54.64H56.8897V45.13H51.1612ZM51.1612 54.64C51.1612 54.2956 51.2328 53.9462 51.3781 53.6192C51.5205 53.2989 51.7081 53.0567 51.8802 52.8847L55.9308 56.9353C56.4711 56.3951 56.8897 55.6019 56.8897 54.64H51.1612ZM51.8802 52.8847C52.4524 52.3124 53.1518 52.1358 53.6655 52.1358V57.8642C54.3792 57.8642 55.2386 57.6276 55.9308 56.9353L51.8802 52.8847ZM53.6655 52.1358H50.1555V57.8642H53.6655V52.1358ZM50.1555 52.1358C50.6752 52.1358 51.1882 52.3068 51.604 52.6186L48.1669 57.2014C48.7427 57.6332 49.4358 57.8642 50.1555 57.8642V52.1358ZM52.1769 53.1915C52.4887 53.6072 52.6597 54.1203 52.6597 54.64H46.9312C46.9312 55.3597 47.1623 56.0528 47.5941 56.6285L52.1769 53.1915ZM52.6597 54.64V39.94H46.9312V54.64H52.6597ZM52.6597 39.94C52.6597 40.4537 52.4831 41.1531 51.9108 41.7253L47.8602 37.6747C47.1679 38.3669 46.9312 39.2263 46.9312 39.94H52.6597ZM51.9108 41.7253C51.7387 41.8974 51.4965 42.085 51.1763 42.2274C50.8493 42.3727 50.4999 42.4442 50.1555 42.4442V36.7158C49.1936 36.7158 48.4004 37.1344 47.8602 37.6747L51.9108 41.7253ZM50.1555 42.4442H53.6655V36.7158H50.1555V42.4442ZM53.6655 42.4442C53.3239 42.4442 52.9222 42.3732 52.5196 42.1719C52.117 41.9706 51.8191 41.6918 51.6141 41.4186L56.1969 37.9814C55.5959 37.1802 54.667 36.7158 53.6655 36.7158V42.4442ZM52.1869 41.9914C51.9137 41.7864 51.6349 41.4885 51.4336 41.0859C51.2323 40.6833 51.1612 40.2816 51.1612 39.94H56.8897C56.8897 38.9385 56.4253 38.0095 55.624 37.4086L52.1869 41.9914ZM51.1612 39.94V41.11H56.8897V39.94H51.1612ZM51.1612 41.11C51.1612 41.8224 51.4598 43.1195 52.8046 43.7919L55.3664 38.6681C55.9007 38.9353 56.3352 39.3698 56.6023 39.9041C56.8472 40.3938 56.8897 40.8403 56.8897 41.11H51.1612ZM52.8046 43.7919C53.6309 44.205 54.6001 44.205 55.4264 43.7919C56.0861 43.462 56.4443 42.9753 56.5887 42.7588L51.8223 39.5812C51.9267 39.4247 52.2448 38.978 52.8646 38.6681C53.2048 38.498 53.6306 38.3733 54.1155 38.3733C54.6003 38.3733 55.0261 38.498 55.3664 38.6681L52.8046 43.7919ZM56.5827 42.7678C56.7738 42.4834 57.0617 42.2042 58.0155 42.2042V36.4758C55.5293 36.4758 53.2772 37.4166 51.8283 39.5722L56.5827 42.7678ZM58.0155 42.2042C58.6072 42.2042 58.9728 42.3254 59.2117 42.461L62.0393 37.479C60.7981 36.7746 59.4237 36.4758 58.0155 36.4758V42.2042ZM59.2401 42.4769C59.4967 42.6187 59.6741 42.7986 59.8168 43.077L64.9141 40.463C64.2569 39.1814 63.2743 38.1613 62.0109 37.4631L59.2401 42.4769ZM59.8036 43.0509C59.8764 43.1965 60.6204 44.7242 62.463 44.7242C63.3358 44.7242 63.9673 44.3456 64.3066 44.0741C64.64 43.8074 64.8486 43.5239 64.9587 43.3588L60.1923 40.1812C60.2624 40.0761 60.4322 39.8376 60.7281 39.6009C61.03 39.3594 61.6252 38.9958 62.463 38.9958C63.3412 38.9958 63.9874 39.3934 64.3551 39.7328C64.6894 40.0414 64.8593 40.353 64.9273 40.4891L59.8036 43.0509ZM65.0993 43.1243C65.3036 42.7435 65.5122 42.5653 65.7075 42.4597L62.9835 37.4203C61.6988 38.1147 60.7273 39.1565 60.0516 40.4157L65.0993 43.1243ZM65.6795 42.4746C65.9902 42.3111 66.3755 42.2042 66.8955 42.2042V36.4758C65.5355 36.4758 64.2207 36.7689 63.0115 37.4054L65.6795 42.4746ZM90.6079 43.51L87.9124 44.4787L87.915 44.4858L87.9176 44.493L90.6079 43.51ZM90.6679 50.86L93.3811 51.7777L93.3858 51.7639L93.3903 51.75L90.6679 50.86ZM88.4479 54.07L86.708 51.7948L86.6971 51.8031L86.6863 51.8115L88.4479 54.07ZM81.4279 53.59L83.7043 51.8517L83.5883 51.6998L83.4532 51.5647L81.4279 53.59ZM81.3079 53.56V56.4242H81.984L82.5888 56.1219L81.3079 53.56ZM81.1279 54.91L83.1532 56.9353L83.1532 56.9353L81.1279 54.91ZM77.1079 54.91L74.8165 56.6285L75.062 56.9559L75.3893 57.2014L77.1079 54.91ZM77.1079 34.12L75.0826 32.0947L75.0825 32.0947L77.1079 34.12ZM81.1279 34.12L78.8365 35.8385L79.082 36.1659L79.4093 36.4114L81.1279 34.12ZM81.3079 40.9L82.5888 38.3382L82.5888 38.3381L81.3079 40.9ZM81.4279 40.84L79.1694 39.0784L79.1038 39.1625L79.0447 39.2512L81.4279 40.84ZM88.4179 40.48L86.6626 42.7434L86.6881 42.7632L86.7141 42.7824L88.4179 40.48ZM86.1679 50.32L88.6689 51.7159L88.6748 51.7054L86.1679 50.32ZM86.0779 44.14L83.6385 45.6411L83.6564 45.6701L83.6749 45.6987L86.0779 44.14ZM81.9379 44.14L79.4707 42.685L79.4649 42.6949L79.4591 42.7049L81.9379 44.14ZM81.8779 50.32L84.3789 48.9241L84.3631 48.8957L84.3467 48.8678L81.8779 50.32ZM87.9176 44.493C88.1538 45.1393 88.3136 46.0298 88.3136 47.23H94.0421C94.0421 45.5502 93.822 43.9607 93.2982 42.527L87.9176 44.493ZM88.3136 47.23C88.3136 48.383 88.1707 49.281 87.9454 49.97L93.3903 51.75C93.8451 50.359 94.0421 48.837 94.0421 47.23H88.3136ZM87.9546 49.9423C87.6547 50.8292 87.2235 51.4006 86.708 51.7948L90.1878 56.3452C91.7123 55.1794 92.7611 53.6108 93.3811 51.7777L87.9546 49.9423ZM86.6863 51.8115C86.2348 52.1637 85.6794 52.3758 84.8779 52.3758V58.1042C86.8363 58.1042 88.6609 57.5363 90.2095 56.3285L86.6863 51.8115ZM84.8779 52.3758C84.2537 52.3758 83.9687 52.198 83.7043 51.8517L79.1515 55.3283C80.567 57.182 82.5821 58.1042 84.8779 58.1042V52.3758ZM83.4532 51.5647C83.1973 51.3087 82.74 50.9431 82.0626 50.7738C81.3211 50.5884 80.6027 50.7103 80.0269 50.9981L82.5888 56.1219C82.0531 56.3897 81.3746 56.5066 80.6732 56.3312C80.0358 56.1719 79.6185 55.8313 79.4025 55.6153L83.4532 51.5647ZM81.3079 50.6958C80.4535 50.6958 79.4858 51.0845 78.8797 51.9937C78.4102 52.698 78.3836 53.3922 78.3836 53.65H84.1121C84.1121 53.8478 84.0956 54.497 83.6461 55.1713C83.396 55.5464 83.0342 55.8917 82.5626 56.1275C82.1028 56.3574 81.6576 56.4242 81.3079 56.4242V50.6958ZM78.3836 53.65V54.64H84.1121V53.65H78.3836ZM78.3836 54.64C78.3836 54.2956 78.4552 53.9462 78.6005 53.6192C78.7428 53.2989 78.9305 53.0567 79.1026 52.8847L83.1532 56.9353C83.6935 56.3951 84.1121 55.6019 84.1121 54.64H78.3836ZM79.1026 52.8847C79.6748 52.3124 80.3742 52.1358 80.8879 52.1358V57.8642C81.6016 57.8642 82.461 57.6276 83.1532 56.9353L79.1026 52.8847ZM80.8879 52.1358H77.3779V57.8642H80.8879V52.1358ZM77.3779 52.1358C77.8976 52.1358 78.4106 52.3068 78.8264 52.6186L75.3893 57.2014C75.9651 57.6332 76.6581 57.8642 77.3779 57.8642V52.1358ZM79.3993 53.1915C79.7111 53.6072 79.8821 54.1203 79.8821 54.64H74.1536C74.1536 55.3597 74.3846 56.0528 74.8165 56.6285L79.3993 53.1915ZM79.8821 54.64V34.36H74.1536V54.64H79.8821ZM79.8821 34.36C79.8821 34.8737 79.7054 35.5731 79.1332 36.1453L75.0825 32.0947C74.3903 32.7869 74.1536 33.6463 74.1536 34.36H79.8821ZM79.1332 36.1453C78.9611 36.3174 78.7189 36.505 78.3987 36.6474C78.0717 36.7927 77.7223 36.8642 77.3779 36.8642V31.1358C76.416 31.1358 75.6228 31.5544 75.0826 32.0947L79.1332 36.1453ZM77.3779 36.8642H80.8879V31.1358H77.3779V36.8642ZM80.8879 36.8642C80.5463 36.8642 80.1445 36.7932 79.7419 36.5919C79.3394 36.3906 79.0414 36.1118 78.8365 35.8385L83.4193 32.4015C82.8183 31.6002 81.8894 31.1358 80.8879 31.1358V36.8642ZM79.4093 36.4114C79.136 36.2064 78.8573 35.9085 78.656 35.5059C78.4547 35.1033 78.3836 34.7016 78.3836 34.36H84.1121C84.1121 33.3585 83.6477 32.4295 82.8464 31.8286L79.4093 36.4114ZM78.3836 34.36V40.78H84.1121V34.36H78.3836ZM78.3836 40.78C78.3836 41.4924 78.6822 42.7895 80.027 43.4619L82.5888 38.3381C83.1231 38.6053 83.5576 39.0398 83.8247 39.5741C84.0696 40.0638 84.1121 40.5103 84.1121 40.78H78.3836ZM80.0269 43.4618C80.8533 43.875 81.8224 43.875 82.6488 43.4619C83.3085 43.132 83.6667 42.6453 83.8111 42.4288L79.0447 39.2512C79.149 39.0947 79.4672 38.648 80.0869 38.3381C80.4272 38.168 80.853 38.0433 81.3379 38.0433C81.8227 38.0433 82.2486 38.168 82.5888 38.3382L80.0269 43.4618ZM83.6863 42.6016C83.8452 42.3979 84.0647 42.2042 84.7579 42.2042V36.4758C82.5711 36.4758 80.5705 37.2821 79.1694 39.0784L83.6863 42.6016ZM84.7579 42.2042C85.6994 42.2042 86.2701 42.439 86.6626 42.7434L90.1731 38.2166C88.6057 37.001 86.7364 36.4758 84.7579 36.4758V42.2042ZM86.7141 42.7824C87.2166 43.1542 87.6252 43.6796 87.9124 44.4787L93.3033 42.5413C92.6705 40.7804 91.6192 39.2858 90.1217 38.1776L86.7141 42.7824ZM88.6748 51.7054C89.4082 50.3783 89.6621 48.8497 89.6621 47.32H83.9336C83.9336 48.2703 83.7676 48.7417 83.661 48.9346L88.6748 51.7054ZM89.6621 47.32C89.6621 45.6742 89.3873 43.9787 88.4809 42.5813L83.6749 45.6987C83.7284 45.7813 83.9336 46.2058 83.9336 47.32H89.6621ZM88.5172 42.6389C87.4994 40.9849 85.8505 40.1058 83.9479 40.1058V45.8342C83.9848 45.8342 83.9825 45.838 83.9509 45.8306C83.9174 45.8226 83.8657 45.8055 83.8064 45.7729C83.7469 45.7402 83.6995 45.7028 83.6667 45.6705C83.6351 45.6395 83.6282 45.6243 83.6385 45.6411L88.5172 42.6389ZM83.9479 40.1058C82.0184 40.1058 80.4274 41.0629 79.4707 42.685L84.405 45.595C84.4281 45.5559 84.3814 45.6476 84.2263 45.7379C84.1547 45.7796 84.0846 45.8061 84.0261 45.8208C83.9697 45.835 83.94 45.8342 83.9479 45.8342V40.1058ZM79.4591 42.7049C78.6675 44.0722 78.4136 45.6898 78.4136 47.29H84.1421C84.1421 46.2102 84.3283 45.7278 84.4167 45.5751L79.4591 42.7049ZM78.4136 47.29C78.4136 48.8264 78.6273 50.4432 79.4091 51.7722L84.3467 48.8678C84.351 48.8751 84.2931 48.7765 84.2376 48.4961C84.1828 48.2195 84.1421 47.8257 84.1421 47.29H78.4136ZM79.3768 51.7159C80.3189 53.4038 81.9327 54.4742 83.9779 54.4742V48.7458C83.972 48.7458 84.0046 48.7452 84.0639 48.761C84.1254 48.7773 84.1948 48.8056 84.2621 48.8469C84.4058 48.9352 84.4274 49.0109 84.3789 48.9241L79.3768 51.7159ZM83.9779 54.4742C84.8979 54.4742 85.8435 54.2682 86.7141 53.7554C87.584 53.243 88.2219 52.5169 88.6689 51.7159L83.6668 48.9241C83.6479 48.9579 83.6465 48.952 83.6719 48.9249C83.699 48.896 83.7442 48.8564 83.8067 48.8196C83.8692 48.7827 83.9268 48.7618 83.9675 48.7516C84.0059 48.742 84.0132 48.7458 83.9779 48.7458V54.4742ZM105.723 40.03L104.545 42.641L104.567 42.6507L104.588 42.66L105.723 40.03ZM108.093 41.86L105.766 43.5304L105.78 43.5499L105.794 43.5691L108.093 41.86ZM108.843 54.91L106.818 52.8847V52.8847L108.843 54.91ZM104.823 54.91L102.532 56.6286L102.777 56.9559L103.104 57.2014L104.823 54.91ZM104.673 53.53L105.954 50.9682L105.954 50.9681L104.673 53.53ZM104.553 53.59L106.829 55.3283L106.885 55.2553L106.936 55.1788L104.553 53.59ZM96.7229 54.1L98.5008 51.8543L96.7229 54.1ZM96.9029 47.17L98.6614 49.4309L98.6743 49.4208L98.6871 49.4106L96.9029 47.17ZM104.133 43.54L102.16 45.6166L102.188 45.6432L102.217 45.669L104.133 43.54ZM100.773 43.3L99.4439 40.7628L99.4181 40.7763L99.3926 40.7903L100.773 43.3ZM99.9929 44.23L97.2495 43.407L97.2391 43.4415L97.2296 43.4764L99.9929 44.23ZM99.6029 44.53L99.2274 47.3695L99.2726 47.3755L99.3179 47.38L99.6029 44.53ZM95.9729 44.05L95.502 46.8753L95.5496 46.8832L95.5975 46.8895L95.9729 44.05ZM95.6429 43.78L98.4784 44.1851L98.4879 44.1185L98.4943 44.0516L95.6429 43.78ZM96.6329 41.5L94.4852 39.605L94.4693 39.623L94.4537 39.6413L96.6329 41.5ZM98.9729 39.91L97.9374 37.2395L97.9281 37.2431L97.9187 37.2468L98.9729 39.91ZM100.293 48.91L98.7255 46.5127L98.7038 46.5269L98.6823 46.5415L100.293 48.91ZM100.113 51.64L98.268 53.8309L98.3026 53.86L98.3381 53.8881L100.113 51.64ZM102.243 42.2042C103.202 42.2042 103.951 42.3728 104.545 42.641L106.9 37.419C105.455 36.7672 103.884 36.4758 102.243 36.4758V42.2042ZM104.588 42.66C105.207 42.927 105.554 43.235 105.766 43.5304L110.42 40.1896C109.512 38.925 108.278 38.013 106.857 37.4L104.588 42.66ZM105.794 43.5691C106.012 43.8617 106.099 44.134 106.099 44.47H111.827C111.827 42.886 111.334 41.4183 110.391 40.1509L105.794 43.5691ZM106.099 44.47V54.64H111.827V44.47H106.099ZM106.099 54.64C106.099 54.2956 106.17 53.9462 106.316 53.6192C106.458 53.2989 106.646 53.0567 106.818 52.8847L110.868 56.9353C111.408 56.3951 111.827 55.6019 111.827 54.64H106.099ZM106.818 52.8847C107.39 52.3124 108.089 52.1358 108.603 52.1358V57.8642C109.317 57.8642 110.176 57.6276 110.868 56.9353L106.818 52.8847ZM108.603 52.1358H105.093V57.8642H108.603V52.1358ZM105.093 52.1358C105.613 52.1358 106.126 52.3068 106.541 52.6186L103.104 57.2014C103.68 57.6332 104.373 57.8642 105.093 57.8642V52.1358ZM107.114 53.1914C107.426 53.6072 107.597 54.1203 107.597 54.64H101.869C101.869 55.3597 102.1 56.0528 102.532 56.6286L107.114 53.1914ZM107.597 54.64V53.65H101.869V54.64H107.597ZM107.597 53.65C107.597 52.9377 107.299 51.6405 105.954 50.9682L103.392 56.0918C102.858 55.8247 102.423 55.3902 102.156 54.8559C101.911 54.3662 101.869 53.9197 101.869 53.65H107.597ZM105.954 50.9681C105.127 50.555 104.158 50.555 103.332 50.9681C102.672 51.298 102.314 51.7847 102.17 52.0012L106.936 55.1788C106.832 55.3353 106.514 55.782 105.894 56.0919C105.554 56.262 105.128 56.3867 104.643 56.3867C104.158 56.3867 103.732 56.262 103.392 56.0919L105.954 50.9681ZM102.277 51.8517C102.152 52.015 101.801 52.3758 100.503 52.3758V58.1042C102.925 58.1042 105.274 57.365 106.829 55.3283L102.277 51.8517ZM100.503 52.3758C99.4087 52.3758 98.8299 52.1149 98.5008 51.8543L94.9451 56.3457C96.5359 57.6051 98.4771 58.1042 100.503 58.1042V52.3758ZM98.5008 51.8543C98.3717 51.7521 98.1472 51.5477 98.1472 50.74H92.4187C92.4187 52.8923 93.1541 54.9279 94.9451 56.3457L98.5008 51.8543ZM98.1472 50.74C98.1472 49.9575 98.3731 49.6551 98.6614 49.4309L95.1444 44.9091C93.2727 46.3649 92.4187 48.4425 92.4187 50.74H98.1472ZM98.6871 49.4106C99.0763 49.1007 99.8889 48.7442 101.523 48.7442V43.0158C99.157 43.0158 96.8895 43.5193 95.1187 44.9294L98.6871 49.4106ZM101.523 48.7442H104.583V43.0158H101.523V48.7442ZM104.583 48.7442C105.074 48.7442 105.969 48.6194 106.721 47.8678C107.472 47.1162 107.597 46.2215 107.597 45.73H101.869C101.869 45.3385 101.968 44.5188 102.67 43.8172C103.372 43.1156 104.191 43.0158 104.583 43.0158V48.7442ZM107.597 45.73V45.07H101.869V45.73H107.597ZM107.597 45.07C107.597 43.7968 107.186 42.4343 106.049 41.411L102.217 45.669C102.08 45.5456 101.976 45.39 101.916 45.2382C101.862 45.0995 101.869 45.0264 101.869 45.07H107.597ZM106.106 41.4634C104.975 40.3896 103.539 40.1058 102.333 40.1058V45.8342C102.515 45.8342 102.562 45.8569 102.518 45.8431C102.493 45.8352 102.443 45.8166 102.377 45.779C102.31 45.7408 102.235 45.6874 102.16 45.6166L106.106 41.4634ZM102.333 40.1058C101.388 40.1058 100.381 40.2721 99.4439 40.7628L102.102 45.8372C102.005 45.8879 102.038 45.8342 102.333 45.8342V40.1058ZM99.3926 40.7903C98.402 41.3351 97.6063 42.2175 97.2495 43.407L102.736 45.053C102.688 45.2137 102.601 45.3851 102.472 45.5381C102.347 45.6871 102.224 45.7707 102.153 45.8097L99.3926 40.7903ZM97.2296 43.4764C97.3012 43.214 97.5128 42.6545 98.1041 42.1997C98.7418 41.7092 99.4342 41.6346 99.8879 41.68L99.3179 47.38C99.9717 47.4454 100.829 47.3308 101.597 46.7403C102.318 46.1855 102.625 45.466 102.756 44.9836L97.2296 43.4764ZM99.9784 41.6905L96.3484 41.2105L95.5975 46.8895L99.2274 47.3695L99.9784 41.6905ZM96.4438 41.2247C96.5093 41.2356 97.0069 41.3125 97.5242 41.7357C97.8191 41.977 98.1262 42.3377 98.3196 42.8319C98.5133 43.3268 98.533 43.8027 98.4784 44.1851L92.8075 43.3749C92.6548 44.4436 93.0705 45.4933 93.8967 46.1693C94.5239 46.6825 95.1965 46.8244 95.502 46.8753L96.4438 41.2247ZM98.4943 44.0516C98.5151 43.8327 98.5899 43.6193 98.8121 43.3587L94.4537 39.6413C93.5159 40.7407 92.9307 42.0473 92.7916 43.5084L98.4943 44.0516ZM98.7806 43.395C99.0427 43.098 99.4285 42.8101 100.027 42.5732L97.9187 37.2468C96.5973 37.7699 95.4231 38.542 94.4852 39.605L98.7806 43.395ZM100.008 42.5805C100.615 42.3454 101.347 42.2042 102.243 42.2042V36.4758C100.738 36.4758 99.291 36.7146 97.9374 37.2395L100.008 42.5805ZM101.643 54.9542C103.042 54.9542 104.408 54.5683 105.576 53.6731L102.09 49.1269C102.058 49.1517 101.964 49.2258 101.643 49.2258V54.9542ZM105.576 53.6731C106.841 52.7026 107.597 51.2916 107.597 49.63H101.869C101.869 49.5792 101.883 49.456 101.955 49.3143C102.025 49.177 102.099 49.1202 102.09 49.1269L105.576 53.6731ZM107.597 49.63V48.55H101.869V49.63H107.597ZM107.597 48.55C107.597 48.0585 107.472 47.1638 106.721 46.4122C105.969 45.6606 105.074 45.5358 104.583 45.5358V51.2642C104.191 51.2642 103.372 51.1644 102.67 50.4628C101.968 49.7612 101.869 48.9415 101.869 48.55H107.597ZM104.583 45.5358H102.423V51.2642H104.583V45.5358ZM102.423 45.5358C101.203 45.5358 99.8766 45.7601 98.7255 46.5127L101.86 51.3073C101.801 51.346 101.793 51.3345 101.882 51.313C101.975 51.2908 102.148 51.2642 102.423 51.2642V45.5358ZM98.6823 46.5415C97.3745 47.4308 96.6787 48.8105 96.6787 50.35H102.407C102.407 50.4331 102.388 50.6236 102.271 50.8481C102.152 51.0754 101.998 51.214 101.904 51.2785L98.6823 46.5415ZM96.6787 50.35C96.6787 51.6515 97.1805 52.9152 98.268 53.8309L101.958 49.4491C102.082 49.5537 102.214 49.7134 102.305 49.9199C102.394 50.1199 102.407 50.2803 102.407 50.35H96.6787ZM98.3381 53.8881C99.3656 54.6993 100.567 54.9542 101.643 54.9542V49.2258C101.543 49.2258 101.534 49.2136 101.589 49.2296C101.65 49.2478 101.763 49.2938 101.888 49.3919L98.3381 53.8881ZM114.655 37.18L112.586 39.1598L112.608 39.1828L112.63 39.2053L114.655 37.18ZM114.655 33.76L116.681 35.7853L116.681 35.7853L114.655 33.76ZM118.045 33.76L116.02 35.7853V35.7853L118.045 33.76ZM118.015 37.18L115.99 35.1547V35.1547L118.015 37.18ZM111.085 61.12L111.144 58.2564L111.115 58.2558H111.085V61.12ZM111.115 57.58L110.68 60.4109L110.848 60.4368L111.018 60.4426L111.115 57.58ZM113.575 57.07L111.798 54.8243L111.774 54.8428L111.751 54.8618L113.575 57.07ZM114.295 55.06H117.16L117.16 55.0486L114.295 55.06ZM114.235 39.94H111.371L111.371 39.9514L114.235 39.94ZM114.325 39.7L112.3 37.6747L112.3 37.6747L114.325 39.7ZM118.345 39.7L116.054 41.4186L116.3 41.7459L116.627 41.9914L118.345 39.7ZM117.805 58.75L115.244 57.4691L115.238 57.4805L115.232 57.492L117.805 58.75ZM115.555 60.64L114.634 57.9279L114.626 57.9306L114.618 57.9333L115.555 60.64ZM116.335 34.9758C116.307 34.9758 116.358 34.9721 116.453 35.0091C116.552 35.0481 116.632 35.1059 116.681 35.1547L112.63 39.2053C113.66 40.235 114.973 40.7042 116.335 40.7042V34.9758ZM116.725 35.2002C116.755 35.2318 116.801 35.2936 116.833 35.3762C116.863 35.4553 116.86 35.497 116.86 35.47H111.131C111.131 36.8322 111.599 38.1281 112.586 39.1598L116.725 35.2002ZM116.86 35.47C116.86 35.4219 116.867 35.4605 116.833 35.5488C116.796 35.6437 116.738 35.7281 116.681 35.7853L112.63 31.7347C111.584 32.7809 111.131 34.114 111.131 35.47H116.86ZM116.681 35.7853C116.632 35.8341 116.552 35.8919 116.453 35.9309C116.358 35.9679 116.307 35.9642 116.335 35.9642V30.2358C114.973 30.2358 113.66 30.705 112.63 31.7347L116.681 35.7853ZM116.335 35.9642C116.384 35.9642 116.345 35.9712 116.257 35.9371C116.162 35.9005 116.077 35.8425 116.02 35.7853L120.071 31.7347C119.024 30.6885 117.691 30.2358 116.335 30.2358V35.9642ZM116.02 35.7853C115.963 35.7281 115.905 35.6437 115.868 35.5488C115.834 35.4605 115.841 35.4219 115.841 35.47H121.57C121.57 34.114 121.117 32.7809 120.071 31.7347L116.02 35.7853ZM115.841 35.47C115.841 35.4818 115.84 35.4258 115.877 35.3357C115.914 35.2431 115.964 35.1808 115.99 35.1547L120.041 39.2053C121.064 38.1817 121.57 36.8713 121.57 35.47H115.841ZM115.99 35.1547C116.039 35.1059 116.119 35.0481 116.218 35.0091C116.312 34.9721 116.363 34.9758 116.335 34.9758V40.7042C117.697 40.7042 119.011 40.235 120.041 39.2053L115.99 35.1547ZM111.085 58.2558C111.407 58.2558 112.174 58.3381 112.841 59.0047C113.507 59.6713 113.59 60.4385 113.59 60.76H107.861C107.861 61.3215 108.003 62.2687 108.79 63.0553C109.577 63.8419 110.524 63.9842 111.085 63.9842V58.2558ZM113.59 60.76V57.91H107.861V60.76H113.59ZM113.59 57.91C113.59 58.1752 113.528 59.0953 112.673 59.819C111.828 60.5344 110.924 60.4484 110.68 60.4109L111.551 54.7491C111.047 54.6716 109.948 54.6206 108.973 55.446C107.987 56.2797 107.861 57.3848 107.861 57.91H113.59ZM111.018 60.4426C112.31 60.4864 114.075 60.3723 115.4 59.2782L111.751 54.8618C111.996 54.6593 112.161 54.6516 112.034 54.6779C111.917 54.7021 111.66 54.7326 111.212 54.7174L111.018 60.4426ZM115.353 59.3157C116.834 58.1431 117.16 56.394 117.16 55.06H111.431C111.431 55.3182 111.397 55.3787 111.419 55.3166C111.432 55.2795 111.464 55.2045 111.528 55.1108C111.594 55.0148 111.684 54.9145 111.798 54.8243L115.353 59.3157ZM117.16 55.0486L117.1 39.9286L111.371 39.9514L111.431 55.0714L117.16 55.0486ZM117.1 39.94C117.1 40.4537 116.923 41.1531 116.351 41.7253L112.3 37.6747C111.608 38.3669 111.371 39.2263 111.371 39.94H117.1ZM116.351 41.7253C116.179 41.8974 115.936 42.085 115.616 42.2274C115.289 42.3727 114.94 42.4442 114.595 42.4442V36.7158C113.634 36.7158 112.84 37.1344 112.3 37.6747L116.351 41.7253ZM114.595 42.4442H118.105V36.7158H114.595V42.4442ZM118.105 42.4442C117.764 42.4442 117.362 42.3732 116.959 42.1719C116.557 41.9706 116.259 41.6918 116.054 41.4186L120.637 37.9814C120.036 37.1802 119.107 36.7158 118.105 36.7158V42.4442ZM116.627 41.9914C116.354 41.7864 116.075 41.4885 115.874 41.0859C115.672 40.6833 115.601 40.2816 115.601 39.94H121.33C121.33 38.9385 120.865 38.0095 120.064 37.4086L116.627 41.9914ZM115.601 39.94V55H121.33V39.94H115.601ZM115.601 55C115.601 56.4288 115.396 57.1642 115.244 57.4691L120.367 60.0309C121.095 58.5758 121.33 56.8112 121.33 55H115.601ZM115.232 57.492C115.168 57.6232 115.065 57.7817 114.634 57.9279L116.476 63.3521C118.166 62.7783 119.563 61.6768 120.379 60.008L115.232 57.492ZM114.618 57.9333C114.054 58.1286 112.963 58.2939 111.144 58.2564L111.026 63.9836C113.087 64.0261 114.976 63.8714 116.492 63.3467L114.618 57.9333ZM133.475 40.03L132.298 42.641L132.319 42.6507L132.341 42.66L133.475 40.03ZM135.845 41.86L133.519 43.5304L133.533 43.5499L133.547 43.5691L135.845 41.86ZM136.595 54.91L134.57 52.8847V52.8847L136.595 54.91ZM132.575 54.91L130.284 56.6286L130.53 56.9559L130.857 57.2014L132.575 54.91ZM132.425 53.53L133.706 50.9682L133.706 50.9681L132.425 53.53ZM132.305 53.59L134.582 55.3283L134.638 55.2553L134.689 55.1788L132.305 53.59ZM124.475 54.1L126.253 51.8543L124.475 54.1ZM124.655 47.17L126.414 49.4309L126.427 49.4208L126.44 49.4106L124.655 47.17ZM131.885 43.54L129.913 45.6166L129.941 45.6432L129.969 45.669L131.885 43.54ZM128.525 43.3L127.196 40.7628L127.171 40.7763L127.145 40.7903L128.525 43.3ZM127.745 44.23L125.002 43.407L124.992 43.4415L124.982 43.4764L127.745 44.23ZM127.355 44.53L126.98 47.3695L127.025 47.3755L127.07 47.38L127.355 44.53ZM123.725 44.05L123.255 46.8753L123.302 46.8832L123.35 46.8895L123.725 44.05ZM123.395 43.78L126.231 44.1851L126.24 44.1185L126.247 44.0516L123.395 43.78ZM124.385 41.5L122.238 39.605L122.222 39.623L122.206 39.6413L124.385 41.5ZM126.725 39.91L125.69 37.2395L125.681 37.2431L125.671 37.2468L126.725 39.91ZM128.045 48.91L126.478 46.5127L126.456 46.5269L126.435 46.5415L128.045 48.91ZM127.865 51.64L126.02 53.8309L126.055 53.86L126.091 53.8881L127.865 51.64ZM129.995 42.2042C130.955 42.2042 131.703 42.3728 132.298 42.641L134.653 37.419C133.208 36.7672 131.636 36.4758 129.995 36.4758V42.2042ZM132.341 42.66C132.96 42.927 133.307 43.235 133.519 43.5304L138.172 40.1896C137.264 38.925 136.031 38.013 134.61 37.4L132.341 42.66ZM133.547 43.5691C133.765 43.8617 133.851 44.134 133.851 44.47H139.58C139.58 42.886 139.086 41.4183 138.144 40.1509L133.547 43.5691ZM133.851 44.47V54.64H139.58V44.47H133.851ZM133.851 54.64C133.851 54.2956 133.923 53.9462 134.068 53.6192C134.21 53.2989 134.398 53.0567 134.57 52.8847L138.621 56.9353C139.161 56.3951 139.58 55.6019 139.58 54.64H133.851ZM134.57 52.8847C135.142 52.3124 135.842 52.1358 136.355 52.1358V57.8642C137.069 57.8642 137.929 57.6276 138.621 56.9353L134.57 52.8847ZM136.355 52.1358H132.845V57.8642H136.355V52.1358ZM132.845 52.1358C133.365 52.1358 133.878 52.3068 134.294 52.6186L130.857 57.2014C131.433 57.6332 132.126 57.8642 132.845 57.8642V52.1358ZM134.867 53.1914C135.179 53.6072 135.35 54.1203 135.35 54.64H129.621C129.621 55.3597 129.852 56.0528 130.284 56.6286L134.867 53.1914ZM135.35 54.64V53.65H129.621V54.64H135.35ZM135.35 53.65C135.35 52.9377 135.051 51.6405 133.706 50.9682L131.144 56.0918C130.61 55.8247 130.176 55.3902 129.909 54.8559C129.664 54.3662 129.621 53.9197 129.621 53.65H135.35ZM133.706 50.9681C132.88 50.555 131.911 50.555 131.085 50.9681C130.425 51.298 130.067 51.7847 129.922 52.0012L134.689 55.1788C134.584 55.3353 134.266 55.782 133.646 56.0919C133.306 56.262 132.88 56.3867 132.395 56.3867C131.911 56.3867 131.485 56.262 131.145 56.0919L133.706 50.9681ZM130.029 51.8517C129.904 52.015 129.554 52.3758 128.255 52.3758V58.1042C130.677 58.1042 133.027 57.365 134.582 55.3283L130.029 51.8517ZM128.255 52.3758C127.161 52.3758 126.582 52.1149 126.253 51.8543L122.698 56.3457C124.288 57.6051 126.23 58.1042 128.255 58.1042V52.3758ZM126.253 51.8543C126.124 51.7521 125.9 51.5477 125.9 50.74H120.171C120.171 52.8923 120.907 54.9279 122.698 56.3457L126.253 51.8543ZM125.9 50.74C125.9 49.9575 126.126 49.6551 126.414 49.4309L122.897 44.9091C121.025 46.3649 120.171 48.4425 120.171 50.74H125.9ZM126.44 49.4106C126.829 49.1007 127.641 48.7442 129.275 48.7442V43.0158C126.909 43.0158 124.642 43.5193 122.871 44.9294L126.44 49.4106ZM129.275 48.7442H132.335V43.0158H129.275V48.7442ZM132.335 48.7442C132.827 48.7442 133.722 48.6194 134.473 47.8678C135.225 47.1162 135.35 46.2215 135.35 45.73H129.621C129.621 45.3385 129.721 44.5188 130.423 43.8172C131.124 43.1156 131.944 43.0158 132.335 43.0158V48.7442ZM135.35 45.73V45.07H129.621V45.73H135.35ZM135.35 45.07C135.35 43.7968 134.938 42.4343 133.802 41.411L129.969 45.669C129.832 45.5456 129.728 45.39 129.669 45.2382C129.614 45.0995 129.621 45.0264 129.621 45.07H135.35ZM133.858 41.4634C132.728 40.3896 131.291 40.1058 130.085 40.1058V45.8342C130.268 45.8342 130.314 45.8569 130.271 45.8431C130.246 45.8352 130.196 45.8166 130.13 45.779C130.062 45.7408 129.987 45.6874 129.913 45.6166L133.858 41.4634ZM130.085 40.1058C129.14 40.1058 128.133 40.2721 127.196 40.7628L129.854 45.8372C129.758 45.8879 129.791 45.8342 130.085 45.8342V40.1058ZM127.145 40.7903C126.154 41.3351 125.359 42.2175 125.002 43.407L130.489 45.053C130.441 45.2137 130.353 45.3851 130.225 45.5381C130.1 45.6871 129.977 45.7707 129.906 45.8097L127.145 40.7903ZM124.982 43.4764C125.054 43.214 125.265 42.6545 125.857 42.1997C126.494 41.7092 127.187 41.6346 127.64 41.68L127.07 47.38C127.724 47.4454 128.582 47.3308 129.349 46.7403C130.071 46.1855 130.377 45.466 130.509 44.9836L124.982 43.4764ZM127.731 41.6905L124.101 41.2105L123.35 46.8895L126.98 47.3695L127.731 41.6905ZM124.196 41.2247C124.262 41.2356 124.759 41.3125 125.277 41.7357C125.572 41.977 125.879 42.3377 126.072 42.8319C126.266 43.3268 126.286 43.8027 126.231 44.1851L120.56 43.3749C120.407 44.4436 120.823 45.4933 121.649 46.1693C122.276 46.6825 122.949 46.8244 123.255 46.8753L124.196 41.2247ZM126.247 44.0516C126.268 43.8327 126.342 43.6193 126.565 43.3587L122.206 39.6413C121.268 40.7407 120.683 42.0473 120.544 43.5084L126.247 44.0516ZM126.533 43.395C126.795 43.098 127.181 42.8101 127.78 42.5732L125.671 37.2468C124.35 37.7699 123.176 38.542 122.238 39.605L126.533 43.395ZM127.761 42.5805C128.367 42.3454 129.1 42.2042 129.995 42.2042V36.4758C128.491 36.4758 127.043 36.7146 125.69 37.2395L127.761 42.5805ZM129.395 54.9542C130.795 54.9542 132.16 54.5683 133.328 53.6731L129.843 49.1269C129.81 49.1517 129.716 49.2258 129.395 49.2258V54.9542ZM133.328 53.6731C134.594 52.7026 135.35 51.2916 135.35 49.63H129.621C129.621 49.5792 129.635 49.456 129.707 49.3143C129.777 49.177 129.852 49.1202 129.843 49.1269L133.328 53.6731ZM135.35 49.63V48.55H129.621V49.63H135.35ZM135.35 48.55C135.35 48.0585 135.225 47.1638 134.473 46.4122C133.722 45.6606 132.827 45.5358 132.335 45.5358V51.2642C131.944 51.2642 131.124 51.1644 130.423 50.4628C129.721 49.7612 129.621 48.9415 129.621 48.55H135.35ZM132.335 45.5358H130.175V51.2642H132.335V45.5358ZM130.175 45.5358C128.956 45.5358 127.629 45.7601 126.478 46.5127L129.613 51.3073C129.554 51.346 129.545 51.3345 129.635 51.313C129.728 51.2908 129.9 51.2642 130.175 51.2642V45.5358ZM126.435 46.5415C125.127 47.4308 124.431 48.8105 124.431 50.35H130.16C130.16 50.4331 130.14 50.6236 130.023 50.8481C129.905 51.0754 129.751 51.214 129.656 51.2785L126.435 46.5415ZM124.431 50.35C124.431 51.6515 124.933 52.9152 126.02 53.8309L129.71 49.4491C129.835 49.5537 129.967 49.7134 130.058 49.9199C130.146 50.1199 130.16 50.2803 130.16 50.35H124.431ZM126.091 53.8881C127.118 54.6993 128.319 54.9542 129.395 54.9542V49.2258C129.295 49.2258 129.287 49.2136 129.341 49.2296C129.403 49.2478 129.516 49.2938 129.64 49.3919L126.091 53.8881ZM151.498 34.12L149.473 32.0947L149.473 32.0947L151.498 34.12ZM155.518 34.12L153.227 35.8385L153.472 36.1659L153.799 36.4114L155.518 34.12ZM155.518 54.91L157.543 56.9353L157.543 56.9353L155.518 54.91ZM151.498 54.91L149.207 56.6285L149.452 56.9559L149.779 57.2014L151.498 54.91ZM151.348 53.56L150.067 56.1219L150.672 56.4242H151.348V53.56ZM151.228 53.59L149.203 51.5647L149.067 51.6998L148.951 51.8517L151.228 53.59ZM144.148 54.07L142.386 56.3285L142.397 56.3369L142.408 56.3452L144.148 54.07ZM141.988 50.86L144.713 49.9783L144.71 49.97L141.988 50.86ZM142.018 43.51L139.322 42.5413L139.314 42.565L139.306 42.5889L142.018 43.51ZM144.178 40.48L145.904 42.7658L145.911 42.7604L144.178 40.48ZM151.228 40.84L153.611 39.2512L153.542 39.1478L153.464 39.0507L151.228 40.84ZM151.348 40.9L150.067 38.3381L150.067 38.3382L151.348 40.9ZM150.778 50.32L153.254 51.7596L153.276 51.7211L153.298 51.682L150.778 50.32ZM150.718 44.14L153.197 42.7049L153.191 42.6949L153.185 42.685L150.718 44.14ZM146.578 44.14L148.989 45.6857L149.003 45.6636L149.017 45.6411L146.578 44.14ZM146.458 50.32L143.922 51.6514L143.951 51.7062L143.982 51.7596L146.458 50.32ZM154.272 34.36C154.272 34.8737 154.095 35.5731 153.523 36.1453L149.473 32.0947C148.78 32.7869 148.544 33.6463 148.544 34.36H154.272ZM153.523 36.1453C153.351 36.3174 153.109 36.505 152.789 36.6474C152.462 36.7927 152.112 36.8642 151.768 36.8642V31.1358C150.806 31.1358 150.013 31.5544 149.473 32.0947L153.523 36.1453ZM151.768 36.8642H155.278V31.1358H151.768V36.8642ZM155.278 36.8642C154.936 36.8642 154.535 36.7932 154.132 36.5919C153.729 36.3906 153.431 36.1118 153.227 35.8385L157.809 32.4014C157.208 31.6002 156.279 31.1358 155.278 31.1358V36.8642ZM153.799 36.4114C153.526 36.2064 153.247 35.9085 153.046 35.5059C152.845 35.1033 152.774 34.7016 152.774 34.36H158.502C158.502 33.3585 158.038 32.4295 157.236 31.8286L153.799 36.4114ZM152.774 34.36V54.64H158.502V34.36H152.774ZM152.774 54.64C152.774 54.2956 152.845 53.9462 152.991 53.6192C153.133 53.2989 153.321 53.0567 153.493 52.8847L157.543 56.9353C158.083 56.3951 158.502 55.6019 158.502 54.64H152.774ZM153.493 52.8847C154.065 52.3124 154.764 52.1358 155.278 52.1358V57.8642C155.992 57.8642 156.851 57.6276 157.543 56.9353L153.493 52.8847ZM155.278 52.1358H151.768V57.8642H155.278V52.1358ZM151.768 52.1358C152.288 52.1358 152.801 52.3068 153.216 52.6186L149.779 57.2014C150.355 57.6332 151.048 57.8642 151.768 57.8642V52.1358ZM153.789 53.1915C154.101 53.6072 154.272 54.1203 154.272 54.64H148.544C148.544 55.3597 148.775 56.0528 149.207 56.6285L153.789 53.1915ZM154.272 54.64V53.65H148.544V54.64H154.272ZM154.272 53.65C154.272 53.3922 154.246 52.698 153.776 51.9937C153.17 51.0845 152.202 50.6958 151.348 50.6958V56.4242C150.998 56.4242 150.553 56.3574 150.093 56.1275C149.622 55.8917 149.26 55.5464 149.01 55.1713C148.56 54.497 148.544 53.8478 148.544 53.65H154.272ZM152.629 50.9981C152.053 50.7103 151.335 50.5884 150.593 50.7738C149.916 50.9431 149.459 51.3087 149.203 51.5647L153.253 55.6153C153.037 55.8313 152.62 56.1719 151.983 56.3312C151.281 56.5066 150.603 56.3897 150.067 56.1219L152.629 50.9981ZM148.951 51.8517C148.687 52.198 148.402 52.3758 147.778 52.3758V58.1042C150.074 58.1042 152.089 57.182 153.504 55.3283L148.951 51.8517ZM147.778 52.3758C146.947 52.3758 146.362 52.1577 145.888 51.7948L142.408 56.3452C143.973 57.5423 145.809 58.1042 147.778 58.1042V52.3758ZM145.91 51.8115C145.417 51.4275 145 50.8651 144.713 49.9783L139.263 51.7417C139.856 53.5749 140.879 55.1525 142.386 56.3285L145.91 51.8115ZM144.71 49.97C144.485 49.281 144.342 48.383 144.342 47.23H138.614C138.614 48.837 138.811 50.359 139.265 51.75L144.71 49.97ZM144.342 47.23C144.342 46.0432 144.494 45.1271 144.73 44.4311L139.306 42.5889C138.822 44.0129 138.614 45.5768 138.614 47.23H144.342ZM144.713 44.4787C145.006 43.6641 145.415 43.1347 145.904 42.7658L142.452 38.1942C140.98 39.3053 139.95 40.7959 139.322 42.5413L144.713 44.4787ZM145.911 42.7604C146.335 42.4385 146.928 42.2042 147.868 42.2042V36.4758C145.888 36.4758 144.021 37.0015 142.445 38.1996L145.911 42.7604ZM147.868 42.2042C148.561 42.2042 148.807 42.3991 148.991 42.6293L153.464 39.0507C152.049 37.2809 150.055 36.4758 147.868 36.4758V42.2042ZM148.845 42.4288C148.989 42.6453 149.347 43.132 150.007 43.4619C150.833 43.875 151.802 43.875 152.629 43.4618L150.067 38.3382C150.407 38.168 150.833 38.0433 151.318 38.0433C151.803 38.0433 152.229 38.168 152.569 38.3381C153.189 38.648 153.507 39.0947 153.611 39.2512L148.845 42.4288ZM152.629 43.4619C153.974 42.7895 154.272 41.4924 154.272 40.78H148.544C148.544 40.5103 148.586 40.0638 148.831 39.5741C149.098 39.0398 149.533 38.6053 150.067 38.3381L152.629 43.4619ZM154.272 40.78V34.36H148.544V40.78H154.272ZM153.298 51.682C154.012 50.3613 154.242 48.8184 154.242 47.29H148.514C148.514 48.3216 148.344 48.7987 148.258 48.958L153.298 51.682ZM154.242 47.29C154.242 45.6898 153.988 44.0722 153.197 42.7049L148.239 45.5751C148.327 45.7278 148.514 46.2102 148.514 47.29H154.242ZM153.185 42.685C152.228 41.0629 150.637 40.1058 148.708 40.1058V45.8342C148.716 45.8342 148.686 45.835 148.63 45.8208C148.571 45.8061 148.501 45.7796 148.429 45.7379C148.274 45.6476 148.228 45.5559 148.251 45.595L153.185 42.685ZM148.708 40.1058C146.805 40.1058 145.156 40.9849 144.139 42.6389L149.017 45.6411C149.028 45.6243 149.021 45.6395 148.989 45.6705C148.956 45.7028 148.909 45.7402 148.849 45.7729C148.79 45.8055 148.738 45.8226 148.705 45.8306C148.673 45.838 148.671 45.8342 148.708 45.8342V40.1058ZM144.167 42.5943C143.267 43.9981 142.964 45.6638 142.964 47.32H148.692C148.692 46.2962 148.889 45.8419 148.989 45.6857L144.167 42.5943ZM142.964 47.32C142.964 48.8376 143.227 50.3283 143.922 51.6514L148.994 48.9886C148.849 48.7117 148.692 48.2024 148.692 47.32H142.964ZM143.982 51.7596C144.985 53.4851 146.659 54.4742 148.678 54.4742V48.7458C148.643 48.7458 148.648 48.742 148.683 48.7507C148.719 48.7598 148.771 48.7785 148.827 48.811C148.883 48.8434 148.922 48.8773 148.943 48.8995C148.963 48.9201 148.957 48.9196 148.934 48.8804L143.982 51.7596ZM148.678 54.4742C150.722 54.4742 152.307 53.3893 153.254 51.7596L148.302 48.8804C148.24 48.9868 148.249 48.9269 148.379 48.8469C148.441 48.8089 148.508 48.7805 148.572 48.7633C148.634 48.7465 148.673 48.7458 148.678 48.7458V54.4742ZM163.463 53.92L161.769 56.2297L163.463 53.92ZM161.003 50.32L163.754 49.5236L163.751 49.5129L163.748 49.5023L161.003 50.32ZM161.003 44.08L158.268 43.2299L158.263 43.2461L158.258 43.2623L161.003 44.08ZM172.013 40.6L170.333 42.9199L170.346 42.9294L170.36 42.9389L172.013 40.6ZM174.473 44.05L177.201 43.177L177.197 43.1664L174.473 44.05ZM174.533 50.23L171.788 49.4123L171.782 49.4324L171.776 49.4525L174.533 50.23ZM172.073 53.92L173.785 56.2161L173.791 56.2114L172.073 53.92ZM169.463 51.01L171.342 53.1714V53.1714L169.463 51.01ZM170.453 49.36L173.207 50.1469L173.22 50.101L173.232 50.0547L170.453 49.36ZM170.453 45.13L173.214 44.3683L173.197 44.3079L173.178 44.2483L170.453 45.13ZM169.433 43.54L171.257 41.3318V41.3318L169.433 43.54ZM166.043 43.54L164.219 41.3318L164.195 41.3518L164.171 41.3723L166.043 43.54ZM165.083 45.13L167.8 46.0358L167.816 45.9872L167.831 45.9382L165.083 45.13ZM165.053 49.36L162.295 50.1323L162.297 50.1396L162.299 50.1469L165.053 49.36ZM166.043 51.01L164.163 53.1714L164.186 53.1911L164.209 53.2104L166.043 51.01ZM167.783 52.3758C166.63 52.3758 165.803 52.0843 165.157 51.6103L161.769 56.2297C163.523 57.5157 165.576 58.1042 167.783 58.1042V52.3758ZM165.157 51.6103C164.5 51.1287 164.03 50.4774 163.754 49.5236L158.252 51.1164C158.856 53.2026 160.026 54.9513 161.769 56.2297L165.157 51.6103ZM163.748 49.5023C163.556 48.8577 163.447 48.1163 163.447 47.26H157.719C157.719 48.6037 157.89 49.9023 158.258 51.1377L163.748 49.5023ZM163.447 47.26C163.447 46.3026 163.561 45.5249 163.748 44.8977L158.258 43.2623C157.885 44.5151 157.719 45.8574 157.719 47.26H163.447ZM163.738 44.9301C164.021 44.0185 164.487 43.4005 165.135 42.9465L161.85 38.2535C160.099 39.4795 158.904 41.1815 158.268 43.2299L163.738 44.9301ZM165.135 42.9465C165.786 42.4913 166.631 42.2042 167.813 42.2042V36.4758C165.635 36.4758 163.6 37.0287 161.85 38.2535L165.135 42.9465ZM167.813 42.2042C168.941 42.2042 169.731 42.4836 170.333 42.9199L173.693 38.2801C171.975 37.0364 169.965 36.4758 167.813 36.4758V42.2042ZM170.36 42.9389C170.966 43.3678 171.44 43.9824 171.748 44.9336L177.197 43.1664C176.546 41.1576 175.38 39.4722 173.666 38.2611L170.36 42.9389ZM171.745 44.9229C171.97 45.6275 172.089 46.3821 172.089 47.2H177.817C177.817 45.8179 177.615 44.4725 177.201 43.177L171.745 44.9229ZM172.089 47.2C172.089 48.0308 171.981 48.763 171.788 49.4123L177.278 51.0477C177.645 49.817 177.817 48.5292 177.817 47.2H172.089ZM171.776 49.4525C171.492 50.4594 171.01 51.1367 170.354 51.6286L173.791 56.2114C175.536 54.9033 176.694 53.1206 177.29 51.0075L171.776 49.4525ZM170.361 51.6239C169.744 52.0841 168.937 52.3758 167.783 52.3758V58.1042C169.989 58.1042 172.042 57.5159 173.785 56.2161L170.361 51.6239ZM167.783 54.4742C169.072 54.4742 170.316 54.0636 171.342 53.1714L167.583 48.8486C167.597 48.8367 167.618 48.8205 167.647 48.8037C167.676 48.7868 167.706 48.773 167.735 48.7626C167.796 48.7407 167.821 48.7458 167.783 48.7458V54.4742ZM171.342 53.1714C172.296 52.3419 172.885 51.275 173.207 50.1469L167.699 48.5731C167.659 48.714 167.619 48.7904 167.599 48.8239C167.581 48.8543 167.575 48.8563 167.583 48.8486L171.342 53.1714ZM173.232 50.0547C173.456 49.1562 173.557 48.2195 173.557 47.26H167.829C167.829 47.8205 167.77 48.2838 167.674 48.6653L173.232 50.0547ZM173.557 47.26C173.557 46.256 173.464 45.2727 173.214 44.3683L167.692 45.8917C167.762 46.1473 167.829 46.584 167.829 47.26H173.557ZM173.178 44.2483C172.824 43.1532 172.214 42.1226 171.257 41.3318L167.609 45.7482C167.598 45.7391 167.603 45.7398 167.622 45.7691C167.643 45.8012 167.684 45.8749 167.728 46.0117L173.178 44.2483ZM171.257 41.3318C170.229 40.4821 169.003 40.1058 167.753 40.1058V45.8342C167.806 45.8342 167.796 45.8414 167.748 45.8249C167.725 45.817 167.699 45.8058 167.672 45.7909C167.645 45.7761 167.624 45.7609 167.609 45.7482L171.257 41.3318ZM167.753 40.1058C166.505 40.1058 165.263 40.469 164.219 41.3318L167.867 45.7482C167.848 45.7642 167.823 45.7812 167.795 45.7967C167.767 45.8122 167.742 45.8229 167.721 45.8298C167.678 45.844 167.681 45.8342 167.753 45.8342V40.1058ZM164.171 41.3723C163.231 42.1838 162.656 43.2303 162.335 44.3218L167.831 45.9382C167.871 45.8007 167.909 45.7297 167.925 45.7029C167.939 45.6793 167.938 45.6882 167.915 45.7077L164.171 41.3723ZM162.366 44.2242C162.058 45.1481 161.979 46.2286 161.979 47.26H167.707C167.707 46.8659 167.724 46.5646 167.749 46.3432C167.775 46.1128 167.803 46.0259 167.8 46.0358L162.366 44.2242ZM161.979 47.26C161.979 48.2601 162.051 49.2625 162.295 50.1323L167.811 48.5877C167.775 48.4575 167.707 48.0599 167.707 47.26H161.979ZM162.299 50.1469C162.621 51.275 163.21 52.3419 164.163 53.1714L167.922 48.8486C167.931 48.8563 167.925 48.8543 167.906 48.8239C167.886 48.7904 167.847 48.714 167.807 48.5731L162.299 50.1469ZM164.209 53.2104C165.251 54.0783 166.496 54.4742 167.783 54.4742V48.7458C167.726 48.7458 167.731 48.738 167.772 48.7522C167.791 48.7588 167.812 48.7681 167.833 48.7799C167.853 48.7916 167.868 48.8026 167.877 48.8096L164.209 53.2104ZM189.205 39.79L187.616 42.1732L187.765 42.2721L187.924 42.3519L189.205 39.79ZM189.385 40.24L192.202 40.7589L192.203 40.7524L189.385 40.24ZM188.755 43.66L185.938 43.1411L185.912 43.2807L185.901 43.4221L188.755 43.66ZM188.335 43.87L189.363 41.1967L189.303 41.1733L189.241 41.1527L188.335 43.87ZM186.625 43.78L186.863 46.6343L186.947 46.6274L187.03 46.6155L186.625 43.78ZM184.795 44.59L186.734 46.6979L186.757 46.6773L186.779 46.6562L184.795 44.59ZM183.925 54.91L185.95 56.9353V56.9353L183.925 54.91ZM179.905 54.91L177.614 56.6285L177.859 56.9559L178.186 57.2014L179.905 54.91ZM179.905 39.7L177.88 37.6747L177.88 37.6747L179.905 39.7ZM183.925 39.7L181.634 41.4186L181.879 41.7459L182.206 41.9914L183.925 39.7ZM184.105 41.2L182.824 43.7618L182.824 43.7619L184.105 41.2ZM184.195 41.17L181.83 39.554L181.72 39.7148L181.633 39.8891L184.195 41.17ZM187.495 42.2342C187.675 42.2342 187.762 42.2522 187.779 42.2566C187.793 42.26 187.724 42.2448 187.616 42.1732L190.794 37.4068C189.742 36.7059 188.55 36.5058 187.495 36.5058V42.2342ZM187.924 42.3519C187.449 42.1144 186.97 41.6741 186.711 41.0263C186.478 40.4441 186.526 39.9518 186.567 39.7276L192.203 40.7524C192.284 40.3082 192.322 39.6309 192.029 38.8987C191.71 38.1009 191.121 37.5456 190.486 37.2281L187.924 42.3519ZM186.568 39.7211L185.938 43.1411L191.572 44.1789L192.202 40.7589L186.568 39.7211ZM185.901 43.4221C185.926 43.1175 186.115 41.9501 187.354 41.3306C188.398 40.8085 189.287 41.1674 189.363 41.1967L187.307 46.5433C187.643 46.6726 188.732 47.0465 189.916 46.4544C191.295 45.7649 191.564 44.4425 191.609 43.8979L185.901 43.4221ZM189.241 41.1527C188.583 40.9335 187.915 40.8558 187.285 40.8558V46.5842C187.367 46.5842 187.418 46.5894 187.442 46.593C187.467 46.5965 187.46 46.5975 187.429 46.5873L189.241 41.1527ZM187.285 40.8558C186.924 40.8558 186.549 40.8975 186.22 40.9445L187.03 46.6155C187.134 46.6006 187.209 46.592 187.259 46.5875C187.313 46.5826 187.317 46.5842 187.285 46.5842V40.8558ZM186.387 40.9257C185.042 41.0377 183.807 41.5681 182.811 42.5238L186.779 46.6562C186.79 46.6453 186.795 46.6419 186.794 46.6427C186.793 46.6435 186.79 46.6452 186.787 46.6466C186.784 46.648 186.786 46.6467 186.795 46.6443C186.805 46.6418 186.827 46.6373 186.863 46.6343L186.387 40.9257ZM182.856 42.4821C181.677 43.5669 181.181 44.9994 181.181 46.45H186.909C186.909 46.3667 186.922 46.3889 186.889 46.4711C186.873 46.5111 186.85 46.5552 186.82 46.5988C186.789 46.6422 186.759 46.6753 186.734 46.6979L182.856 42.4821ZM181.181 46.45V54.64H186.909V46.45H181.181ZM181.181 54.64C181.181 54.2956 181.252 53.9462 181.398 53.6192C181.54 53.2989 181.728 53.0567 181.9 52.8847L185.95 56.9353C186.491 56.3951 186.909 55.6019 186.909 54.64H181.181ZM181.9 52.8847C182.472 52.3124 183.171 52.1358 183.685 52.1358V57.8642C184.399 57.8642 185.258 57.6276 185.95 56.9353L181.9 52.8847ZM183.685 52.1358H180.175V57.8642H183.685V52.1358ZM180.175 52.1358C180.695 52.1358 181.208 52.3068 181.624 52.6186L178.186 57.2014C178.762 57.6332 179.455 57.8642 180.175 57.8642V52.1358ZM182.196 53.1915C182.508 53.6072 182.679 54.1203 182.679 54.64H176.951C176.951 55.3597 177.182 56.0528 177.614 56.6285L182.196 53.1915ZM182.679 54.64V39.94H176.951V54.64H182.679ZM182.679 39.94C182.679 40.4537 182.503 41.1531 181.93 41.7253L177.88 37.6747C177.187 38.3669 176.951 39.2263 176.951 39.94H182.679ZM181.93 41.7253C181.758 41.8974 181.516 42.085 181.196 42.2274C180.869 42.3727 180.519 42.4442 180.175 42.4442V36.7158C179.213 36.7158 178.42 37.1344 177.88 37.6747L181.93 41.7253ZM180.175 42.4442H183.685V36.7158H180.175V42.4442ZM183.685 42.4442C183.343 42.4442 182.942 42.3732 182.539 42.1719C182.137 41.9706 181.839 41.6918 181.634 41.4186L186.216 37.9814C185.615 37.1802 184.687 36.7158 183.685 36.7158V42.4442ZM182.206 41.9914C181.933 41.7864 181.654 41.4885 181.453 41.0859C181.252 40.6833 181.181 40.2816 181.181 39.94H186.909C186.909 38.9385 186.445 38.0095 185.644 37.4086L182.206 41.9914ZM181.181 39.94V41.08H186.909V39.94H181.181ZM181.181 41.08C181.181 41.7924 181.479 43.0895 182.824 43.7618L185.386 38.6382C185.92 38.9053 186.355 39.3398 186.622 39.8741C186.867 40.3638 186.909 40.8103 186.909 41.08H181.181ZM182.824 43.7619C183.239 43.9693 184.073 44.2547 185.063 43.9248C186.053 43.5948 186.549 42.8658 186.757 42.4509L181.633 39.8891C181.821 39.5142 182.292 38.8102 183.252 38.4902C184.212 38.1703 185.011 38.4507 185.386 38.6381L182.824 43.7619ZM186.56 42.786C186.88 42.3177 187.119 42.2342 187.495 42.2342V36.5058C185.111 36.5058 183.15 37.6223 181.83 39.554L186.56 42.786Z" fill="white" mask="url(#path-2-outside-1_1113_31)"/>
<path d="M51.262 69.176C51.262 69.3893 51.1767 69.5813 51.006 69.752C50.878 69.88 50.7073 69.944 50.494 69.944H29.502C29.2887 69.944 29.182 70.0507 29.182 70.264V80.184C29.182 80.3973 29.2887 80.504 29.502 80.504H43.262C43.4753 80.504 43.646 80.5893 43.774 80.76C43.9447 80.888 44.03 81.0587 44.03 81.272V87.48C44.03 87.6933 43.9447 87.8853 43.774 88.056C43.646 88.184 43.4753 88.248 43.262 88.248H29.502C29.2887 88.248 29.182 88.3547 29.182 88.568V98.936C29.182 99.1493 29.2887 99.256 29.502 99.256H50.494C50.7073 99.256 50.878 99.3413 51.006 99.512C51.1767 99.64 51.262 99.8107 51.262 100.024V106.232C51.262 106.445 51.1767 106.637 51.006 106.808C50.878 106.936 50.7073 107 50.494 107H20.926C20.7127 107 20.5207 106.936 20.35 106.808C20.222 106.637 20.158 106.445 20.158 106.232V62.968C20.158 62.7547 20.222 62.584 20.35 62.456C20.5207 62.2853 20.7127 62.2 20.926 62.2H50.494C50.7073 62.2 50.878 62.2853 51.006 62.456C51.1767 62.584 51.262 62.7547 51.262 62.968V69.176ZM74.2449 73.592C77.6582 73.592 80.4102 74.6373 82.5009 76.728C84.5916 78.8187 85.6369 81.656 85.6369 85.24V106.232C85.6369 106.445 85.5516 106.637 85.3809 106.808C85.2529 106.936 85.0822 107 84.8689 107H77.3809C77.1676 107 76.9756 106.936 76.8049 106.808C76.6769 106.637 76.6129 106.445 76.6129 106.232V87.096C76.6129 85.3893 76.1222 84.0027 75.1409 82.936C74.2022 81.8693 72.9436 81.336 71.3649 81.336C69.7862 81.336 68.5062 81.8693 67.5249 82.936C66.5862 84.0027 66.1169 85.3893 66.1169 87.096V106.232C66.1169 106.445 66.0316 106.637 65.8609 106.808C65.7329 106.936 65.5622 107 65.3489 107H57.8609C57.6476 107 57.4556 106.936 57.2849 106.808C57.1569 106.637 57.0929 106.445 57.0929 106.232V74.872C57.0929 74.6587 57.1569 74.488 57.2849 74.36C57.4556 74.1893 57.6476 74.104 57.8609 74.104H65.3489C65.5622 74.104 65.7329 74.1893 65.8609 74.36C66.0316 74.488 66.1169 74.6587 66.1169 74.872V77.112C66.1169 77.24 66.1596 77.3253 66.2449 77.368C66.3302 77.4107 66.3942 77.3893 66.4369 77.304C68.1862 74.8293 70.7889 73.592 74.2449 73.592ZM111.109 80.568C111.109 80.7813 111.023 80.9733 110.853 81.144C110.725 81.272 110.554 81.336 110.341 81.336H104.197C103.983 81.336 103.877 81.4427 103.877 81.656V95.224C103.877 96.632 104.154 97.6773 104.709 98.36C105.306 99.0427 106.245 99.384 107.525 99.384H109.637C109.85 99.384 110.021 99.4693 110.149 99.64C110.319 99.768 110.405 99.9387 110.405 100.152V106.232C110.405 106.701 110.149 106.979 109.637 107.064C107.845 107.149 106.565 107.192 105.797 107.192C102.255 107.192 99.6101 106.616 97.8608 105.464C96.1115 104.269 95.2155 102.051 95.1728 98.808V81.656C95.1728 81.4427 95.0661 81.336 94.8528 81.336H91.2048C90.9915 81.336 90.7995 81.272 90.6288 81.144C90.5008 80.9733 90.4368 80.7813 90.4368 80.568V74.872C90.4368 74.6587 90.5008 74.488 90.6288 74.36C90.7995 74.1893 90.9915 74.104 91.2048 74.104H94.8528C95.0661 74.104 95.1728 73.9973 95.1728 73.784V66.168C95.1728 65.9547 95.2368 65.784 95.3648 65.656C95.5355 65.4853 95.7275 65.4 95.9408 65.4H103.109C103.322 65.4 103.493 65.4853 103.621 65.656C103.791 65.784 103.877 65.9547 103.877 66.168V73.784C103.877 73.9973 103.983 74.104 104.197 74.104H110.341C110.554 74.104 110.725 74.1893 110.853 74.36C111.023 74.488 111.109 74.6587 111.109 74.872V80.568ZM145.36 87.16C145.616 88.7813 145.701 90.5947 145.616 92.6C145.573 93.112 145.296 93.368 144.784 93.368H125.008C124.752 93.368 124.666 93.4747 124.752 93.688C124.88 94.5413 125.114 95.3947 125.456 96.248C126.565 98.6373 128.826 99.832 132.24 99.832C134.97 99.7893 137.125 98.68 138.704 96.504C138.874 96.248 139.066 96.12 139.28 96.12C139.408 96.12 139.557 96.2053 139.728 96.376L144.336 100.92C144.549 101.133 144.656 101.325 144.656 101.496C144.656 101.581 144.57 101.752 144.4 102.008C142.992 103.757 141.178 105.123 138.96 106.104C136.741 107.043 134.309 107.512 131.664 107.512C127.994 107.512 124.88 106.68 122.32 105.016C119.802 103.352 117.989 101.027 116.88 98.04C115.984 95.9067 115.536 93.112 115.536 89.656C115.536 87.3093 115.856 85.24 116.496 83.448C117.477 80.4187 119.184 78.008 121.616 76.216C124.09 74.424 127.013 73.528 130.384 73.528C134.65 73.528 138.064 74.7653 140.624 77.24C143.226 79.7147 144.805 83.0213 145.36 87.16ZM130.448 81.336C127.76 81.336 125.989 82.5947 125.136 85.112C124.965 85.6667 124.816 86.3493 124.688 87.16C124.688 87.3733 124.794 87.48 125.008 87.48H136.08C136.336 87.48 136.421 87.3733 136.336 87.16C136.122 85.9227 136.016 85.3253 136.016 85.368C135.632 84.088 134.949 83.1067 133.968 82.424C133.029 81.6987 131.856 81.336 130.448 81.336ZM152.081 107C151.868 107 151.676 106.936 151.505 106.808C151.377 106.637 151.313 106.445 151.313 106.232V62.968C151.313 62.7547 151.377 62.584 151.505 62.456C151.676 62.2853 151.868 62.2 152.081 62.2H159.569C159.782 62.2 159.953 62.2853 160.081 62.456C160.252 62.584 160.337 62.7547 160.337 62.968V106.232C160.337 106.445 160.252 106.637 160.081 106.808C159.953 106.936 159.782 107 159.569 107H152.081ZM171.938 91.64C171.725 91.64 171.533 91.576 171.362 91.448C171.234 91.2773 171.17 91.0853 171.17 90.872L170.338 62.968C170.338 62.7547 170.402 62.584 170.53 62.456C170.701 62.2853 170.893 62.2 171.106 62.2H178.594C178.807 62.2 178.978 62.2853 179.106 62.456C179.277 62.584 179.362 62.7547 179.362 62.968L178.402 90.872C178.402 91.0853 178.317 91.2773 178.146 91.448C178.018 91.576 177.847 91.64 177.634 91.64H171.938ZM174.434 106.936C172.983 106.936 171.767 106.467 170.786 105.528C169.847 104.547 169.378 103.331 169.378 101.88C169.378 100.387 169.847 99.1707 170.786 98.232C171.725 97.2933 172.941 96.824 174.434 96.824C175.927 96.824 177.122 97.2933 178.018 98.232C178.957 99.1707 179.426 100.387 179.426 101.88C179.426 103.331 178.957 104.547 178.018 105.528C177.079 106.467 175.885 106.936 174.434 106.936Z" fill="white"/>
<path d="M30.8477 33C30.8477 33 30.1559 36.3326 31.1512 38.0565C31.9253 39.3973 35.3785 40.8476 35.3785 40.8476C35.3785 40.8476 31.6628 40.377 30.322 41.1511C28.5981 42.1464 27.5308 45.3784 27.5308 45.3784C27.5308 45.3784 28.2226 42.0458 27.2273 40.3219C26.4532 38.9811 23 37.5308 23 37.5308C23 37.5308 26.477 38.1392 28.0565 37.2273C29.6361 36.3154 30.8477 33 30.8477 33Z" stroke="#42E8B4" stroke-width="2" stroke-linecap="round" stroke-linejoin="round"/>
<path d="M298.118 20C298.118 20 296.961 25.5707 298.625 28.4523C299.919 30.6935 305.691 33.1178 305.691 33.1178C305.691 33.1178 299.48 32.3312 297.239 33.6251C294.357 35.2888 292.573 40.6914 292.573 40.6914C292.573 40.6914 293.73 35.1207 292.066 32.2391C290.772 29.9978 285 27.5735 285 27.5735C285 27.5735 290.812 28.5906 293.452 27.0662C296.092 25.5419 298.118 20 298.118 20Z" stroke="#42E8B4" stroke-width="2" stroke-linecap="round" stroke-linejoin="round"/>
<path d="M187.43 108C187.43 108 186.07 114.553 188.027 117.942C189.549 120.579 196.339 123.43 196.339 123.43C196.339 123.43 189.033 122.505 186.397 124.027C183.007 125.984 180.909 132.339 180.909 132.339C180.909 132.339 182.269 125.786 180.312 122.396C178.79 119.76 172 116.909 172 116.909C172 116.909 178.837 118.105 181.942 116.312C185.048 114.519 187.43 108 187.43 108Z" stroke="#42E8B4" stroke-width="2" stroke-linecap="round" stroke-linejoin="round"/>
<path fill-rule="evenodd" clip-rule="evenodd" d="M255.822 25.8181C254.101 24.8267 251.987 24.7881 250.229 25.715L218.819 42.2721C216.747 43.3646 215.542 45.5998 215.803 47.8928C217.494 62.7553 220.452 73.4566 225.742 82.2768C231.027 91.0882 238.721 98.1585 250.128 105.615C251.929 106.792 254.272 106.802 256.079 105.638C267.899 98.028 275.52 90.8263 280.304 81.9424C285.095 73.0475 287.135 62.2971 287.463 47.4102C287.508 45.3646 286.406 43.4432 284.607 42.4063L255.822 25.8181ZM248.809 23.0203C251.49 21.6067 254.715 21.6642 257.343 23.1788L286.128 39.767C288.865 41.3444 290.579 44.2885 290.509 47.4774C290.176 62.5763 288.106 73.8817 282.986 83.3869C277.861 92.9032 269.771 100.446 257.728 108.199C254.908 110.015 251.267 109.999 248.461 108.165C236.846 100.572 228.74 93.1981 223.13 83.8436C217.524 74.4978 214.491 63.3113 212.776 48.2372C212.37 44.6622 214.247 41.2387 217.399 39.5773L248.809 23.0203Z" fill="#42E8B4"/>
<path fill-rule="evenodd" clip-rule="evenodd" d="M256.177 32.2518C254.367 31.2098 252.148 31.1682 250.3 32.1414L224.774 45.5795C222.589 46.7298 221.317 49.0795 221.603 51.4939C223.054 63.7456 225.561 72.6397 229.98 79.9978C234.396 87.3495 240.785 93.2734 250.185 99.4756C252.076 100.723 254.535 100.733 256.432 99.499C266.181 93.1596 272.51 87.1183 276.511 79.6906C280.516 72.2544 282.259 63.2973 282.581 50.9898C282.638 48.8339 281.474 46.8111 279.578 45.7199L256.177 32.2518ZM249.164 29.985C251.752 28.6227 254.858 28.6808 257.393 30.1397L280.794 43.6077C283.438 45.1297 285.098 47.9727 285.018 51.0536C284.69 63.5357 282.921 72.9296 278.657 80.8462C274.388 88.7712 267.691 95.0846 257.761 101.542C255.049 103.305 251.541 103.29 248.843 101.51C239.273 95.1956 232.563 89.0303 227.891 81.2526C223.224 73.4814 220.655 64.206 219.183 51.7807C218.773 48.327 220.595 45.0256 223.639 43.4231L249.164 29.985Z" fill="white"/>
<path d="M246.282 64.2389C246.282 64.2389 245.468 64.169 245.468 64.7975C245.468 68.4287 248.191 71.0356 252.474 71.0356C255.663 71.0356 257.013 70.2908 258.945 68.8476C259.387 68.5218 259.876 68.1959 260.225 68.5916C260.481 68.8709 263.856 71.9667 263.856 71.9667C264.275 72.3624 264.159 72.8279 263.717 73.2004C263.274 73.5728 258.223 77.4833 252.404 77.4833C244.839 77.4833 237.554 74.2013 237.554 61.8414C237.554 51.879 243.233 46.246 251.566 46.246C260.528 46.246 265.579 52.4609 265.579 60.8405V62.9587C265.579 63.8199 264.88 64.2389 264.299 64.2389H246.282ZM256.943 55.7429C256.082 53.9273 254.29 52.5773 251.566 52.5773C248.843 52.5773 247.074 53.9273 246.189 55.7429C245.701 56.8602 245.514 57.6749 245.444 59.0249H257.665C257.618 57.6749 257.432 56.8602 256.943 55.7429Z" fill="white"/>
<path d="M297.296 77.7092C293.025 77.3081 290.655 77.4933 286.459 78.3377L286.533 92.8145C290.575 91.1842 293.094 90.7647 298.007 90.8381C298.007 90.8381 295.024 86.8529 294.42 84.5561C293.817 82.2593 297.296 77.7092 297.296 77.7092Z" fill="#42E8B4"/>
<path d="M297.296 77.7092C293.025 77.3081 290.655 77.4933 286.459 78.3377L286.533 92.8145C290.575 91.1842 293.094 90.7647 298.007 90.8381C298.007 90.8381 295.024 86.8529 294.42 84.5561C293.817 82.2593 297.296 77.7092 297.296 77.7092Z" fill="black" fill-opacity="0.2"/>
<path d="M206.315 77.7092C210.585 77.3081 212.955 77.4933 217.152 78.3377L217.078 92.8145C213.035 91.1842 210.516 90.7647 205.603 90.8381C205.603 90.8381 208.587 86.8529 209.19 84.5561C209.794 82.2593 206.315 77.7092 206.315 77.7092Z" fill="#42E8B4"/>
<path d="M206.315 77.7092C210.585 77.3081 212.955 77.4933 217.152 78.3377L217.078 92.8145C213.035 91.1842 210.516 90.7647 205.603 90.8381C205.603 90.8381 208.587 86.8529 209.19 84.5561C209.794 82.2593 206.315 77.7092 206.315 77.7092Z" fill="black" fill-opacity="0.2"/>
<rect x="213.312" y="77.4031" width="76.155" height="15.231" fill="#42E8B4"/>
<path d="M279.223 83.8322C279.457 83.8322 279.662 83.8797 279.837 83.9747C279.896 84.004 279.918 84.0588 279.903 84.1392L279.717 85.1262C279.709 85.2139 279.658 85.2395 279.563 85.203C279.454 85.1664 279.326 85.1481 279.179 85.1481C279.084 85.1481 279.011 85.1518 278.96 85.1591C278.653 85.1737 278.397 85.2834 278.192 85.4881C277.988 85.6855 277.885 85.945 277.885 86.2667V89.3702C277.885 89.4067 277.871 89.4396 277.842 89.4689C277.82 89.4908 277.79 89.5018 277.754 89.5018H276.745C276.708 89.5018 276.675 89.4908 276.646 89.4689C276.624 89.4396 276.613 89.4067 276.613 89.3702V84.0296C276.613 83.993 276.624 83.9638 276.646 83.9418C276.675 83.9126 276.708 83.898 276.745 83.898H277.754C277.79 83.898 277.82 83.9126 277.842 83.9418C277.871 83.9638 277.885 83.993 277.885 84.0296V84.523C277.885 84.5523 277.889 84.5706 277.896 84.5779C277.911 84.5779 277.926 84.5669 277.94 84.545C278.247 84.0698 278.675 83.8322 279.223 83.8322Z" fill="black"/>
<path d="M272.9 89.5893C272.323 89.5893 271.825 89.4431 271.409 89.1507C270.999 88.8583 270.711 88.4525 270.542 87.9334C270.418 87.5386 270.356 87.1219 270.356 86.6833C270.356 86.2154 270.414 85.7986 270.531 85.4331C270.7 84.9213 270.992 84.5229 271.409 84.2378C271.825 83.9527 272.326 83.8101 272.911 83.8101C273.467 83.8101 273.946 83.9527 274.348 84.2378C274.757 84.5229 275.046 84.9177 275.214 85.4221C275.346 85.7731 275.411 86.1898 275.411 86.6723C275.411 87.1329 275.349 87.5496 275.225 87.9225C275.057 88.4415 274.768 88.8509 274.359 89.1507C273.949 89.4431 273.463 89.5893 272.9 89.5893ZM272.9 88.4927C273.171 88.4927 273.401 88.4159 273.591 88.2624C273.788 88.1089 273.931 87.8932 274.019 87.6154C274.092 87.3741 274.128 87.0671 274.128 86.6942C274.128 86.2994 274.092 85.9924 274.019 85.7731C273.938 85.4952 273.799 85.2832 273.602 85.137C273.405 84.9835 273.163 84.9067 272.878 84.9067C272.608 84.9067 272.374 84.9835 272.176 85.137C271.979 85.2832 271.836 85.4952 271.749 85.7731C271.676 86.0289 271.639 86.336 271.639 86.6942C271.639 87.0525 271.676 87.3595 271.749 87.6154C271.829 87.8932 271.968 88.1089 272.165 88.2624C272.37 88.4159 272.615 88.4927 272.9 88.4927Z" fill="black"/>
<path d="M267.87 81.9572C267.87 81.9206 267.881 81.8914 267.903 81.8694C267.932 81.8402 267.965 81.8256 268.001 81.8256H269.01C269.047 81.8256 269.076 81.8402 269.098 81.8694C269.127 81.8914 269.142 81.9206 269.142 81.9572V89.3704C269.142 89.407 269.127 89.4399 269.098 89.4691C269.076 89.491 269.047 89.502 269.01 89.502H268.001C267.965 89.502 267.932 89.491 267.903 89.4691C267.881 89.4399 267.87 89.407 267.87 89.3704V89.0414C267.87 89.0195 267.863 89.0049 267.848 88.9976C267.833 88.9902 267.819 88.9976 267.804 89.0195C267.482 89.3997 267.062 89.5897 266.543 89.5897C266.024 89.5897 265.585 89.4545 265.227 89.184C264.869 88.9135 264.609 88.537 264.448 88.0545C264.317 87.645 264.251 87.1881 264.251 86.6837C264.251 86.1646 264.313 85.7186 264.437 85.3458C264.598 84.8633 264.858 84.4867 265.216 84.2162C265.574 83.9457 266.024 83.8105 266.565 83.8105C267.069 83.8105 267.482 83.9933 267.804 84.3588C267.819 84.3734 267.833 84.3807 267.848 84.3807C267.863 84.3734 267.87 84.3588 267.87 84.3369V81.9572ZM267.607 87.9667C267.775 87.667 267.859 87.2429 267.859 86.6946C267.859 86.1244 267.768 85.6894 267.585 85.3896C267.387 85.068 267.11 84.9071 266.751 84.9071C266.378 84.9071 266.086 85.0606 265.874 85.3677C265.655 85.6894 265.545 86.1353 265.545 86.7056C265.545 87.2174 265.633 87.6377 265.808 87.9667C266.013 88.3176 266.324 88.4931 266.74 88.4931C267.113 88.4931 267.402 88.3176 267.607 87.9667Z" fill="black"/>
<path d="M260.803 83.8101C261.263 83.8101 261.669 83.8905 262.02 84.0513C262.371 84.2122 262.642 84.4352 262.832 84.7203C263.022 84.9981 263.117 85.3161 263.117 85.6744V89.37C263.117 89.4066 263.102 89.4395 263.073 89.4687C263.051 89.4906 263.022 89.5016 262.985 89.5016H261.976C261.94 89.5016 261.907 89.4906 261.878 89.4687C261.856 89.4395 261.845 89.4066 261.845 89.37V89.0191C261.845 88.9972 261.837 88.9862 261.823 88.9862C261.808 88.9789 261.793 88.9825 261.779 88.9972C261.421 89.3919 260.902 89.5893 260.222 89.5893C259.673 89.5893 259.22 89.4504 258.862 89.1726C258.511 88.8948 258.335 88.4817 258.335 87.9334C258.335 87.3632 258.533 86.9209 258.928 86.6065C259.33 86.2848 259.893 86.124 260.616 86.124H261.79C261.826 86.124 261.845 86.1057 261.845 86.0692V85.806C261.845 85.5208 261.761 85.3015 261.592 85.148C261.424 84.9871 261.172 84.9067 260.836 84.9067C260.558 84.9067 260.331 84.9579 260.156 85.0602C259.988 85.1553 259.882 85.2905 259.838 85.466C259.816 85.5537 259.765 85.5903 259.684 85.5757L258.621 85.4441C258.584 85.4368 258.551 85.4258 258.522 85.4112C258.5 85.3892 258.493 85.3637 258.5 85.3344C258.558 84.8884 258.796 84.5229 259.213 84.2378C259.637 83.9527 260.167 83.8101 260.803 83.8101ZM260.54 88.5804C260.898 88.5804 261.205 88.4854 261.461 88.2953C261.717 88.1052 261.845 87.864 261.845 87.5715V87.0561C261.845 87.0196 261.826 87.0013 261.79 87.0013H260.869C260.481 87.0013 260.174 87.0744 259.947 87.2206C259.728 87.3668 259.619 87.5752 259.619 87.8457C259.619 88.0796 259.703 88.2624 259.871 88.394C260.046 88.5183 260.269 88.5804 260.54 88.5804Z" fill="black"/>
<path d="M256.592 83.1304C256.366 83.1304 256.179 83.0572 256.033 82.911C255.887 82.7648 255.814 82.5784 255.814 82.3517C255.814 82.1251 255.887 81.9387 256.033 81.7925C256.179 81.6462 256.366 81.5731 256.592 81.5731C256.819 81.5731 257.006 81.6462 257.152 81.7925C257.298 81.9387 257.371 82.1251 257.371 82.3517C257.371 82.5784 257.298 82.7648 257.152 82.911C257.006 83.0572 256.819 83.1304 256.592 83.1304ZM254.805 91.7499C254.717 91.7499 254.673 91.706 254.673 91.6183V90.8068C254.673 90.719 254.721 90.6788 254.816 90.6861C255.233 90.6935 255.529 90.6167 255.704 90.4559C255.88 90.3023 255.967 90.0464 255.967 89.6882L255.956 84.0296C255.956 83.993 255.967 83.9638 255.989 83.9419C256.019 83.9126 256.051 83.898 256.088 83.898H257.097C257.133 83.898 257.163 83.9126 257.185 83.9419C257.214 83.9638 257.228 83.993 257.228 84.0296V89.6772C257.228 90.2109 257.152 90.6277 256.998 90.9274C256.852 91.2271 256.603 91.4428 256.252 91.5744C255.909 91.706 255.426 91.7645 254.805 91.7499Z" fill="black"/>
<path d="M252.321 83.8101C252.782 83.8101 253.187 83.8905 253.538 84.0513C253.889 84.2122 254.16 84.4352 254.35 84.7203C254.54 84.9981 254.635 85.3161 254.635 85.6744V89.37C254.635 89.4066 254.62 89.4395 254.591 89.4687C254.569 89.4906 254.54 89.5016 254.503 89.5016H253.494C253.458 89.5016 253.425 89.4906 253.396 89.4687C253.374 89.4395 253.363 89.4066 253.363 89.37V89.0191C253.363 88.9972 253.355 88.9862 253.341 88.9862C253.326 88.9789 253.312 88.9825 253.297 88.9972C252.939 89.3919 252.42 89.5893 251.74 89.5893C251.191 89.5893 250.738 89.4504 250.38 89.1726C250.029 88.8948 249.854 88.4817 249.854 87.9334C249.854 87.3632 250.051 86.9209 250.446 86.6065C250.848 86.2848 251.411 86.124 252.135 86.124H253.308C253.344 86.124 253.363 86.1057 253.363 86.0692V85.806C253.363 85.5208 253.279 85.3015 253.111 85.148C252.942 84.9871 252.69 84.9067 252.354 84.9067C252.076 84.9067 251.849 84.9579 251.674 85.0602C251.506 85.1553 251.4 85.2905 251.356 85.466C251.334 85.5537 251.283 85.5903 251.202 85.5757L250.139 85.4441C250.102 85.4368 250.069 85.4258 250.04 85.4112C250.018 85.3892 250.011 85.3637 250.018 85.3344C250.076 84.8884 250.314 84.5229 250.731 84.2378C251.155 83.9527 251.685 83.8101 252.321 83.8101ZM252.058 88.5804C252.416 88.5804 252.723 88.4854 252.979 88.2953C253.235 88.1052 253.363 87.864 253.363 87.5715V87.0561C253.363 87.0196 253.344 87.0013 253.308 87.0013H252.387C251.999 87.0013 251.692 87.0744 251.466 87.2206C251.246 87.3668 251.137 87.5752 251.137 87.8457C251.137 88.0796 251.221 88.2624 251.389 88.394C251.564 88.5183 251.787 88.5804 252.058 88.5804Z" fill="black"/>
<path d="M248.784 85.3458C248.909 85.7552 248.971 86.2011 248.971 86.6837C248.971 87.2027 248.901 87.6597 248.762 88.0545C248.602 88.537 248.342 88.9135 247.984 89.184C247.626 89.4545 247.187 89.5897 246.668 89.5897C246.156 89.5897 245.736 89.396 245.407 89.0085C245.392 88.9866 245.377 88.9793 245.363 88.9866C245.348 88.9939 245.341 89.0085 245.341 89.0305V89.3704C245.341 89.407 245.326 89.4399 245.297 89.4691C245.275 89.491 245.246 89.502 245.209 89.502H244.2C244.164 89.502 244.131 89.491 244.102 89.4691C244.08 89.4399 244.069 89.407 244.069 89.3704V81.9572C244.069 81.9206 244.08 81.8914 244.102 81.8694C244.131 81.8402 244.164 81.8256 244.2 81.8256H245.209C245.246 81.8256 245.275 81.8402 245.297 81.8694C245.326 81.8914 245.341 81.9206 245.341 81.9572V84.3369C245.341 84.3588 245.348 84.3734 245.363 84.3807C245.377 84.388 245.392 84.3844 245.407 84.3698C245.721 83.9969 246.138 83.8105 246.657 83.8105C247.198 83.8105 247.644 83.9457 247.995 84.2162C248.353 84.4867 248.616 84.8633 248.784 85.3458ZM247.403 87.9667C247.578 87.6597 247.666 87.2393 247.666 86.7056C247.666 86.1353 247.556 85.6894 247.337 85.3677C247.139 85.0606 246.847 84.9071 246.46 84.9071C246.101 84.9071 245.827 85.068 245.637 85.3896C245.454 85.6894 245.363 86.1244 245.363 86.6946C245.363 87.2576 245.447 87.6816 245.615 87.9667C245.805 88.3176 246.09 88.4931 246.47 88.4931C246.675 88.4931 246.858 88.4492 247.019 88.3615C247.18 88.2665 247.308 88.1349 247.403 87.9667Z" fill="black"/>
<path d="M240.975 83.8101C241.538 83.8101 241.976 83.9819 242.291 84.3255C242.612 84.6618 242.773 85.1334 242.773 85.7402V89.37C242.773 89.4066 242.759 89.4395 242.729 89.4687C242.707 89.4906 242.678 89.5016 242.642 89.5016H241.644C241.607 89.5016 241.574 89.4906 241.545 89.4687C241.523 89.4395 241.512 89.4066 241.512 89.37V86.0034C241.512 85.6671 241.421 85.4002 241.238 85.2028C241.062 85.0054 240.825 84.9067 240.525 84.9067C240.225 84.9067 239.98 85.0054 239.79 85.2028C239.6 85.4002 239.505 85.6634 239.505 85.9924V89.37C239.505 89.4066 239.491 89.4395 239.461 89.4687C239.439 89.4906 239.41 89.5016 239.374 89.5016H238.376C238.339 89.5016 238.306 89.4906 238.277 89.4687C238.255 89.4395 238.244 89.4066 238.244 89.37V86.0034C238.244 85.6671 238.153 85.4002 237.97 85.2028C237.787 85.0054 237.546 84.9067 237.246 84.9067C236.968 84.9067 236.738 84.9871 236.555 85.148C236.38 85.3088 236.277 85.5281 236.248 85.806V89.37C236.248 89.4066 236.234 89.4395 236.204 89.4687C236.182 89.4906 236.153 89.5016 236.117 89.5016H235.108C235.071 89.5016 235.038 89.4906 235.009 89.4687C234.987 89.4395 234.976 89.4066 234.976 89.37V84.0294C234.976 83.9929 234.987 83.9636 235.009 83.9417C235.038 83.9124 235.071 83.8978 235.108 83.8978H236.117C236.153 83.8978 236.182 83.9124 236.204 83.9417C236.234 83.9636 236.248 83.9929 236.248 84.0294V84.3913C236.248 84.4132 236.255 84.4279 236.27 84.4352C236.285 84.4425 236.299 84.4352 236.314 84.4132C236.475 84.2085 236.672 84.0587 236.906 83.9636C237.147 83.8613 237.414 83.8101 237.707 83.8101C238.065 83.8101 238.379 83.8832 238.65 84.0294C238.92 84.1756 239.129 84.3876 239.275 84.6655C239.297 84.6947 239.322 84.6947 239.352 84.6655C239.512 84.373 239.735 84.1574 240.021 84.0184C240.306 83.8795 240.624 83.8101 240.975 83.8101Z" fill="black"/>
<path d="M233.805 82.7906C233.805 82.8272 233.79 82.8601 233.761 82.8893C233.739 82.9113 233.71 82.9222 233.673 82.9222H229.934C229.897 82.9222 229.879 82.9405 229.879 82.977V85.0277C229.879 85.0643 229.897 85.0826 229.934 85.0826H232.445C232.482 85.0826 232.511 85.0972 232.533 85.1264C232.562 85.1484 232.577 85.1776 232.577 85.2142V86.0476C232.577 86.0842 232.562 86.1171 232.533 86.1463C232.511 86.1682 232.482 86.1792 232.445 86.1792H229.934C229.897 86.1792 229.879 86.1975 229.879 86.234V88.3505C229.879 88.3871 229.897 88.4054 229.934 88.4054H233.673C233.71 88.4054 233.739 88.42 233.761 88.4492C233.79 88.4712 233.805 88.5004 233.805 88.537V89.3704C233.805 89.407 233.79 89.4399 233.761 89.4691C233.739 89.491 233.71 89.502 233.673 89.502H228.739C228.702 89.502 228.669 89.491 228.64 89.4691C228.618 89.4399 228.607 89.407 228.607 89.3704V81.9572C228.607 81.9206 228.618 81.8914 228.64 81.8694C228.669 81.8402 228.702 81.8256 228.739 81.8256H233.673C233.71 81.8256 233.739 81.8402 233.761 81.8694C233.79 81.8914 233.805 81.9206 233.805 81.9572V82.7906Z" fill="black"/>
<g filter="url(#filter0_f_1113_31)">
<ellipse cx="253.546" cy="115.118" rx="28.6112" ry="2.40655" fill="#101010" fill-opacity="0.2"/>
</g>
</g>
<defs>
<filter id="filter0_f_1113_31" x="222.213" y="109.99" width="62.6663" height="10.2567" filterUnits="userSpaceOnUse" color-interpolation-filters="sRGB">
<feFlood flood-opacity="0" result="BackgroundImageFix"/>
<feBlend mode="normal" in="SourceGraphic" in2="BackgroundImageFix" result="shape"/>
<feGaussianBlur stdDeviation="1.3609" result="effect1_foregroundBlur_1113_31"/>
</filter>
<clipPath id="clip0_1113_31">
<rect width="328" height="140" rx="20" fill="white"/>
</clipPath>
</defs>
</svg>
