<svg width="1035" height="300" viewBox="0 0 1035 300" fill="none" xmlns="http://www.w3.org/2000/svg">
<g clip-path="url(#clip0_1100_4)">
<rect width="1035" height="300" rx="20" fill="#002EFF"/>
<path d="M969.741 687.37C961.527 693.626 948.86 692.554 941.636 685.207L895.014 638.098C887.749 630.677 888.35 619.308 896.373 612.932C896.373 612.932 968.879 554.746 969.483 429.607C970.056 310.888 894.352 242.589 894.352 242.589C886.665 235.631 886.442 223.935 893.82 216.571L940.462 170.218C947.714 162.917 960.519 161.854 968.655 168.03C968.655 168.03 1077.3 249.587 1076.44 429.284C1075.58 607.644 969.743 687.373 969.743 687.373" fill="#42E8B4"/>
<mask id="path-3-outside-1_1100_4" maskUnits="userSpaceOnUse" x="62.5" y="52" width="419" height="81" fill="black">
<rect fill="white" x="62.5" y="52" width="419" height="81"/>
<path d="M75.797 60.6057C77.4104 60.6057 78.7391 61.1514 79.783 62.2428C80.827 63.2867 81.349 64.6154 81.349 66.2288C81.349 67.8422 80.827 69.1708 79.783 70.2148C78.7865 71.2587 77.4579 71.7807 75.797 71.7807C74.1362 71.7807 72.7838 71.2587 71.7399 70.2148C70.6959 69.1708 70.1739 67.8422 70.1739 66.2288C70.1739 64.568 70.6959 63.2156 71.7399 62.1716C72.8313 61.1277 74.1837 60.6057 75.797 60.6057ZM72.1669 78.4715C72.1669 78.2342 72.2381 78.0444 72.3805 77.902C72.5703 77.7122 72.7838 77.6173 73.0211 77.6173H79.356C79.5932 77.6173 79.783 77.7122 79.9254 77.902C80.1152 78.0444 80.2101 78.2342 80.2101 78.4715L81.2778 109.505C81.2778 109.743 81.1829 109.956 80.9931 110.146C80.8507 110.288 80.6609 110.359 80.4236 110.359H72.0958C71.8585 110.359 71.645 110.288 71.4552 110.146C71.3128 109.956 71.2416 109.743 71.2416 109.505L72.1669 78.4715ZM132.312 68.9336C132.312 69.1708 132.218 69.3844 132.028 69.5742C131.885 69.7165 131.696 69.7877 131.458 69.7877H108.112C107.874 69.7877 107.756 69.9063 107.756 70.1436V81.1762C107.756 81.4135 107.874 81.5321 108.112 81.5321H123.415C123.652 81.5321 123.842 81.627 123.985 81.8169C124.174 81.9592 124.269 82.149 124.269 82.3863V89.2906C124.269 89.5278 124.174 89.7414 123.985 89.9312C123.842 90.0736 123.652 90.1447 123.415 90.1447H108.112C107.874 90.1447 107.756 90.2634 107.756 90.5006V102.032C107.756 102.269 107.874 102.387 108.112 102.387H131.458C131.696 102.387 131.885 102.482 132.028 102.672C132.218 102.814 132.312 103.004 132.312 103.242V110.146C132.312 110.383 132.218 110.597 132.028 110.786C131.885 110.929 131.696 111 131.458 111H98.5738C98.3366 111 98.123 110.929 97.9332 110.786C97.7909 110.597 97.7197 110.383 97.7197 110.146V62.0293C97.7197 61.792 97.7909 61.6022 97.9332 61.4598C98.123 61.27 98.3366 61.1751 98.5738 61.1751H131.458C131.696 61.1751 131.885 61.27 132.028 61.4598C132.218 61.6022 132.312 61.792 132.312 62.0293V68.9336ZM184.218 73.8449C187.919 73.8449 190.814 74.96 192.902 77.1903C194.99 79.4205 196.033 82.5524 196.033 86.5858V110.146C196.033 110.383 195.939 110.597 195.749 110.786C195.606 110.929 195.417 111 195.179 111H186.851C186.614 111 186.401 110.929 186.211 110.786C186.069 110.597 185.997 110.383 185.997 110.146V88.7923C185.997 86.8468 185.499 85.3046 184.503 84.1657C183.506 83.0269 182.177 82.4575 180.517 82.4575C178.856 82.4575 177.503 83.0269 176.459 84.1657C175.415 85.3046 174.893 86.8231 174.893 88.7212V110.146C174.893 110.383 174.799 110.597 174.609 110.786C174.466 110.929 174.277 111 174.039 111H165.783C165.545 111 165.332 110.929 165.142 110.786C165 110.597 164.929 110.383 164.929 110.146V88.7923C164.929 86.8942 164.407 85.3758 163.363 84.2369C162.319 83.0506 160.966 82.4575 159.305 82.4575C157.787 82.4575 156.506 82.9083 155.462 83.8098C154.465 84.7114 153.872 85.9689 153.682 87.5823V110.146C153.682 110.383 153.587 110.597 153.398 110.786C153.255 110.929 153.065 111 152.828 111H144.5C144.263 111 144.05 110.929 143.86 110.786C143.717 110.597 143.646 110.383 143.646 110.146V75.2684C143.646 75.0312 143.717 74.8414 143.86 74.699C144.05 74.5092 144.263 74.4143 144.5 74.4143H152.828C153.065 74.4143 153.255 74.5092 153.398 74.699C153.587 74.8414 153.682 75.0312 153.682 75.2684V78.0444C153.682 78.1868 153.73 78.2817 153.825 78.3291C153.92 78.3766 154.014 78.3291 154.109 78.1868C156.055 75.2922 159.068 73.8449 163.149 73.8449C165.522 73.8449 167.586 74.3431 169.342 75.3396C171.145 76.3361 172.521 77.7597 173.47 79.6103C173.612 79.895 173.778 79.895 173.968 79.6103C175.012 77.6648 176.412 76.2175 178.168 75.2684C179.971 74.3194 181.988 73.8449 184.218 73.8449ZM240.394 83.7387C241.296 86.2062 241.746 89.1482 241.746 92.5648C241.746 95.839 241.343 98.7099 240.536 101.177C239.445 104.404 237.689 106.943 235.269 108.793C232.897 110.644 230.073 111.569 226.799 111.569C223.335 111.569 220.606 110.264 218.613 107.655C218.519 107.56 218.424 107.536 218.329 107.583C218.234 107.583 218.186 107.655 218.186 107.797V110.146C218.186 110.383 218.091 110.597 217.902 110.786C217.759 110.929 217.569 111 217.332 111H209.004C208.767 111 208.554 110.929 208.364 110.786C208.221 110.597 208.15 110.383 208.15 110.146V62.0293C208.15 61.792 208.221 61.6022 208.364 61.4598C208.554 61.27 208.767 61.1751 209.004 61.1751H217.332C217.569 61.1751 217.759 61.27 217.902 61.4598C218.091 61.6022 218.186 61.792 218.186 62.0293V77.2614C218.186 77.4038 218.234 77.4987 218.329 77.5462C218.424 77.5936 218.519 77.5462 218.613 77.4038C220.464 75.0312 223.098 73.8449 226.514 73.8449C229.978 73.8449 232.873 74.7465 235.198 76.5497C237.571 78.3054 239.303 80.7017 240.394 83.7387ZM229.86 99.8962C230.856 98.093 231.354 95.7204 231.354 92.7783C231.354 89.5041 230.785 86.9892 229.646 85.2334C228.507 83.3828 226.823 82.4575 224.592 82.4575C222.505 82.4575 220.915 83.3828 219.823 85.2334C218.78 87.0366 218.258 89.5278 218.258 92.7072C218.258 95.8865 218.732 98.2828 219.681 99.8962C220.82 101.937 222.481 102.957 224.664 102.957C226.989 102.957 228.721 101.937 229.86 99.8962ZM267.915 73.8449C271 73.8449 273.752 74.3906 276.172 75.482C278.592 76.5259 280.466 77.9732 281.795 79.8239C283.171 81.6745 283.859 83.7387 283.859 86.0164V110.146C283.859 110.383 283.764 110.597 283.575 110.786C283.432 110.929 283.242 111 283.005 111H274.677C274.44 111 274.226 110.929 274.037 110.786C273.894 110.597 273.823 110.383 273.823 110.146V107.797C273.823 107.655 273.776 107.56 273.681 107.512C273.586 107.465 273.491 107.512 273.396 107.655C271.403 110.264 268.2 111.569 263.787 111.569C260.086 111.569 257.096 110.668 254.818 108.865C252.541 107.061 251.402 104.404 251.402 100.893C251.402 97.2388 252.683 94.4154 255.246 92.4224C257.808 90.382 261.462 89.3618 266.207 89.3618H273.467C273.704 89.3618 273.823 89.2431 273.823 89.0059V87.4399C273.823 85.874 273.349 84.664 272.4 83.8098C271.451 82.9083 270.027 82.4575 268.129 82.4575C266.658 82.4575 265.424 82.7184 264.428 83.2404C263.479 83.7624 262.862 84.4979 262.577 85.447C262.435 85.9689 262.126 86.2062 261.652 86.1587L253.039 85.0199C252.47 84.925 252.209 84.7114 252.256 84.3793C252.446 82.3863 253.229 80.5831 254.605 78.9697C256.029 77.3563 257.879 76.0989 260.157 75.1973C262.482 74.2957 265.068 73.8449 267.915 73.8449ZM266.492 104.096C268.532 104.096 270.264 103.55 271.688 102.459C273.111 101.367 273.823 99.9673 273.823 98.2591V95.6966C273.823 95.4594 273.704 95.3408 273.467 95.3408H268.342C266.207 95.3408 264.522 95.7441 263.289 96.5508C262.102 97.3575 261.509 98.4963 261.509 99.9673C261.509 101.249 261.96 102.269 262.862 103.028C263.763 103.74 264.973 104.096 266.492 104.096ZM301.267 70.286C299.654 70.286 298.325 69.764 297.281 68.72C296.237 67.6286 295.715 66.2762 295.715 64.6629C295.715 63.002 296.237 61.6496 297.281 60.6057C298.325 59.5617 299.654 59.0398 301.267 59.0398C302.928 59.0398 304.28 59.5617 305.324 60.6057C306.368 61.6496 306.89 63.002 306.89 64.6629C306.89 66.2762 306.344 67.6286 305.253 68.72C304.209 69.764 302.88 70.286 301.267 70.286ZM288.811 125.52C288.241 125.52 287.957 125.236 287.957 124.666V117.904C287.957 117.287 288.265 117.026 288.882 117.121C291.682 117.216 293.627 116.813 294.719 115.911C295.858 115.01 296.427 113.42 296.427 111.142L296.285 75.2684C296.285 75.0312 296.356 74.8414 296.498 74.699C296.688 74.5092 296.901 74.4143 297.139 74.4143H305.467C305.704 74.4143 305.894 74.5092 306.036 74.699C306.226 74.8414 306.321 75.0312 306.321 75.2684V111C306.321 114.844 305.799 117.809 304.755 119.897C303.711 122.033 301.931 123.527 299.416 124.382C296.949 125.236 293.414 125.615 288.811 125.52ZM333.593 73.8449C336.677 73.8449 339.43 74.3906 341.85 75.482C344.27 76.5259 346.144 77.9732 347.473 79.8239C348.849 81.6745 349.537 83.7387 349.537 86.0164V110.146C349.537 110.383 349.442 110.597 349.252 110.786C349.11 110.929 348.92 111 348.683 111H340.355C340.118 111 339.904 110.929 339.714 110.786C339.572 110.597 339.501 110.383 339.501 110.146V107.797C339.501 107.655 339.453 107.56 339.358 107.512C339.263 107.465 339.169 107.512 339.074 107.655C337.081 110.264 333.878 111.569 329.465 111.569C325.763 111.569 322.774 110.668 320.496 108.865C318.218 107.061 317.08 104.404 317.08 100.893C317.08 97.2388 318.361 94.4154 320.923 92.4224C323.486 90.382 327.139 89.3618 331.885 89.3618H339.145C339.382 89.3618 339.501 89.2431 339.501 89.0059V87.4399C339.501 85.874 339.026 84.664 338.077 83.8098C337.128 82.9083 335.705 82.4575 333.806 82.4575C332.335 82.4575 331.102 82.7184 330.105 83.2404C329.156 83.7624 328.539 84.4979 328.255 85.447C328.112 85.9689 327.804 86.2062 327.329 86.1587L318.717 85.0199C318.147 84.925 317.886 84.7114 317.934 84.3793C318.124 82.3863 318.906 80.5831 320.283 78.9697C321.706 77.3563 323.557 76.0989 325.834 75.1973C328.16 74.2957 330.746 73.8449 333.593 73.8449ZM332.169 104.096C334.21 104.096 335.942 103.55 337.365 102.459C338.789 101.367 339.501 99.9673 339.501 98.2591V95.6966C339.501 95.4594 339.382 95.3408 339.145 95.3408H334.02C331.885 95.3408 330.2 95.7441 328.966 96.5508C327.78 97.3575 327.187 98.4963 327.187 99.9673C327.187 101.249 327.638 102.269 328.539 103.028C329.441 103.74 330.651 104.096 332.169 104.096ZM384.312 62.0293C384.312 61.792 384.383 61.6022 384.526 61.4598C384.716 61.27 384.929 61.1751 385.166 61.1751H393.494C393.732 61.1751 393.921 61.27 394.064 61.4598C394.254 61.6022 394.348 61.792 394.348 62.0293V110.146C394.348 110.383 394.254 110.597 394.064 110.786C393.921 110.929 393.732 111 393.494 111H385.166C384.929 111 384.716 110.929 384.526 110.786C384.383 110.597 384.312 110.383 384.312 110.146V107.797C384.312 107.655 384.265 107.583 384.17 107.583C384.075 107.536 383.98 107.56 383.885 107.655C381.892 110.264 379.164 111.569 375.7 111.569C372.378 111.569 369.507 110.644 367.087 108.793C364.714 106.943 363.006 104.404 361.962 101.177C361.156 98.7099 360.752 95.839 360.752 92.5648C360.752 89.1957 361.179 86.2536 362.033 83.7387C363.125 80.7017 364.833 78.3054 367.158 76.5497C369.531 74.7465 372.449 73.8449 375.913 73.8449C379.33 73.8449 381.987 75.0312 383.885 77.4038C383.98 77.5462 384.075 77.5936 384.17 77.5462C384.265 77.4987 384.312 77.4038 384.312 77.2614V62.0293ZM382.818 99.8962C383.767 98.1404 384.241 95.7441 384.241 92.7072C384.241 89.5278 383.719 87.0366 382.675 85.2334C381.584 83.3828 379.994 82.4575 377.906 82.4575C375.676 82.4575 373.991 83.3828 372.853 85.2334C371.666 87.0841 371.073 89.599 371.073 92.7783C371.073 95.6255 371.571 97.9981 372.568 99.8962C373.754 101.937 375.51 102.957 377.835 102.957C379.97 102.957 381.631 101.937 382.818 99.8962ZM423.08 111.569C419.094 111.569 415.677 110.525 412.83 108.438C409.983 106.35 408.037 103.503 406.993 99.8962C406.329 97.6659 405.997 95.2458 405.997 92.636C405.997 89.8363 406.329 87.3213 406.993 85.0911C408.085 81.5796 410.054 78.8274 412.901 76.8344C415.748 74.8414 419.165 73.8449 423.151 73.8449C427.042 73.8449 430.364 74.8414 433.116 76.8344C435.868 78.7799 437.814 81.5084 438.953 85.0199C439.712 87.3925 440.091 89.8837 440.091 92.4936C440.091 95.056 439.759 97.4524 439.095 99.6826C438.051 103.384 436.105 106.302 433.258 108.438C430.459 110.525 427.066 111.569 423.08 111.569ZM423.08 102.957C424.646 102.957 425.974 102.482 427.066 101.533C428.157 100.584 428.94 99.2793 429.415 97.6185C429.794 96.1 429.984 94.4392 429.984 92.636C429.984 90.643 429.794 88.9584 429.415 87.5823C428.893 85.9689 428.086 84.7114 426.995 83.8098C425.903 82.9083 424.574 82.4575 423.009 82.4575C421.395 82.4575 420.043 82.9083 418.951 83.8098C417.907 84.7114 417.148 85.9689 416.674 87.5823C416.294 88.7212 416.104 90.4057 416.104 92.636C416.104 94.7713 416.27 96.4322 416.603 97.6185C417.077 99.2793 417.86 100.584 418.951 101.533C420.09 102.482 421.466 102.957 423.08 102.957ZM469.765 73.9161C471.473 73.9161 472.825 74.2482 473.822 74.9126C474.202 75.1024 474.344 75.4583 474.249 75.9802L472.754 84.0946C472.707 84.664 472.375 84.8301 471.758 84.5928C471.046 84.3556 470.216 84.2369 469.266 84.2369C468.887 84.2369 468.365 84.2844 467.701 84.3793C465.992 84.5216 464.545 85.1622 463.359 86.3011C462.172 87.3925 461.579 88.8635 461.579 90.7142V110.146C461.579 110.383 461.484 110.597 461.294 110.786C461.152 110.929 460.962 111 460.725 111H452.397C452.16 111 451.946 110.929 451.757 110.786C451.614 110.597 451.543 110.383 451.543 110.146V75.2684C451.543 75.0312 451.614 74.8414 451.757 74.699C451.946 74.5092 452.16 74.4143 452.397 74.4143H460.725C460.962 74.4143 461.152 74.5092 461.294 74.699C461.484 74.8414 461.579 75.0312 461.579 75.2684V77.9732C461.579 78.1156 461.627 78.2105 461.722 78.2579C461.816 78.3054 461.888 78.2817 461.935 78.1868C463.881 75.3396 466.491 73.9161 469.765 73.9161Z"/>
</mask>
<path d="M79.783 62.2428L74.9535 66.8624L75.0048 66.916L75.0573 66.9685L79.783 62.2428ZM79.783 70.2148L75.0573 65.489L75.0023 65.544L74.9487 65.6002L79.783 70.2148ZM71.7399 70.2148L76.4656 65.489L76.4656 65.489L71.7399 70.2148ZM71.7399 62.1716L67.1203 57.342L67.0666 57.3934L67.0141 57.4459L71.7399 62.1716ZM72.1669 78.4715L78.8472 78.6707L78.8502 78.5711V78.4715H72.1669ZM72.3805 77.902L67.6547 73.1763L67.6547 73.1763L72.3805 77.902ZM79.9254 77.902L74.5788 81.912L75.1517 82.6758L75.9154 83.2486L79.9254 77.902ZM80.2101 78.4715H73.5269V78.5864L73.5308 78.7013L80.2101 78.4715ZM81.2778 109.505H87.961V109.39L87.9571 109.275L81.2778 109.505ZM80.9931 110.146L76.2673 105.42L76.2673 105.42L80.9931 110.146ZM71.4552 110.146L66.1086 114.156L66.6814 114.92L67.4452 115.492L71.4552 110.146ZM71.2416 109.505L64.5614 109.306L64.5584 109.406V109.505H71.2416ZM75.797 67.2889C75.8399 67.2889 75.6992 67.2935 75.4645 67.1971C75.2202 67.0968 75.0434 66.9565 74.9535 66.8624L84.6126 57.6232C82.215 55.1166 79.0955 53.9225 75.797 53.9225V67.2889ZM75.0573 66.9685C74.9522 66.8635 74.8237 66.6865 74.737 66.466C74.655 66.2572 74.6657 66.1503 74.6657 66.2288H88.0322C88.0322 63.024 86.9286 59.9368 84.5088 57.517L75.0573 66.9685ZM74.6657 66.2288C74.6657 66.3073 74.655 66.2004 74.737 65.9916C74.8237 65.7711 74.9522 65.5941 75.0573 65.489L84.5088 74.9405C86.9286 72.5208 88.0322 69.4336 88.0322 66.2288H74.6657ZM74.9487 65.6002C75.1135 65.4275 75.3454 65.267 75.5954 65.1688C75.8257 65.0783 75.9257 65.0975 75.797 65.0975V78.4639C78.9835 78.4639 82.1661 77.3974 84.6174 74.8294L74.9487 65.6002ZM75.797 65.0975C75.671 65.0975 75.7488 65.0791 75.9436 65.1543C76.1537 65.2354 76.3408 65.3642 76.4656 65.489L67.0141 74.9405C69.4726 77.399 72.6054 78.4639 75.797 78.4639V65.0975ZM76.4656 65.489C76.5707 65.5941 76.6992 65.7711 76.7859 65.9916C76.8679 66.2004 76.8572 66.3073 76.8572 66.2288H63.4907C63.4907 69.4336 64.5943 72.5208 67.0141 74.9405L76.4656 65.489ZM76.8572 66.2288C76.8572 66.1027 76.8756 66.1805 76.8004 66.3753C76.7193 66.5854 76.5905 66.7725 76.4656 66.8974L67.0141 57.4459C64.5556 59.9043 63.4907 63.0372 63.4907 66.2288H76.8572ZM76.3595 67.0012C76.2947 67.0632 76.1606 67.1621 75.9792 67.2321C75.8057 67.2991 75.7206 67.2889 75.797 67.2889V53.9225C72.5918 53.9225 69.5458 55.022 67.1203 57.342L76.3595 67.0012ZM78.8502 78.4715C78.8502 79.6661 78.4391 81.2949 77.1063 82.6278L67.6547 73.1763C66.0371 74.7939 65.4837 76.8023 65.4837 78.4715H78.8502ZM77.1062 82.6278C76.7063 83.0277 76.1428 83.4644 75.3973 83.7957C74.6361 84.134 73.8228 84.3006 73.0211 84.3006V70.9341C70.7727 70.9341 68.9185 71.9125 67.6547 73.1763L77.1062 82.6278ZM73.0211 84.3006H79.356V70.9341H73.0211V84.3006ZM79.356 84.3006C78.5609 84.3006 77.6253 84.1351 76.6874 83.6662C75.7496 83.1973 75.0559 82.5481 74.5788 81.912L85.272 73.8921C83.8674 72.0194 81.6968 70.9341 79.356 70.9341V84.3006ZM75.9154 83.2486C75.2794 82.7716 74.6302 82.0778 74.1613 81.14C73.6924 80.2022 73.5269 79.2666 73.5269 78.4715H86.8933C86.8933 76.1306 85.808 73.96 83.9353 72.5555L75.9154 83.2486ZM73.5308 78.7013L74.5985 109.735L87.9571 109.275L86.8894 78.2417L73.5308 78.7013ZM74.5945 109.505C74.5945 108.704 74.7611 107.89 75.0994 107.129C75.4308 106.383 75.8674 105.82 76.2673 105.42L85.7188 114.872C86.9825 113.608 87.961 111.754 87.961 109.505H74.5945ZM76.2673 105.42C77.6002 104.087 79.229 103.676 80.4236 103.676V117.043C82.0928 117.043 84.1012 116.489 85.7188 114.872L76.2673 105.42ZM80.4236 103.676H72.0958V117.043H80.4236V103.676ZM72.0958 103.676C73.3046 103.676 74.4981 104.074 75.4651 104.799L67.4452 115.492C68.7919 116.502 70.4124 117.043 72.0958 117.043V103.676ZM76.8017 106.136C77.527 107.103 77.9249 108.296 77.9249 109.505H64.5584C64.5584 111.189 65.0986 112.809 66.1086 114.156L76.8017 106.136ZM77.9219 109.704L78.8472 78.6707L65.4867 78.2723L64.5614 109.306L77.9219 109.704ZM132.028 69.5742L136.753 74.3L136.753 74.2999L132.028 69.5742ZM123.985 81.8169L118.638 85.8268L119.211 86.5906L119.975 87.1634L123.985 81.8169ZM132.028 102.672L126.681 106.682L127.254 107.446L128.018 108.019L132.028 102.672ZM132.028 110.786L136.753 115.512L136.753 115.512L132.028 110.786ZM97.9332 110.786L92.5867 114.796L93.1595 115.56L93.9233 116.133L97.9332 110.786ZM97.9332 61.4598L93.2075 56.7341L93.2075 56.7341L97.9332 61.4598ZM132.028 61.4598L126.681 65.4698L127.254 66.2336L128.018 66.8064L132.028 61.4598ZM125.629 68.9336C125.629 68.1319 125.796 67.3185 126.134 66.5573C126.465 65.8118 126.902 65.2483 127.302 64.8484L136.753 74.2999C138.017 73.0362 138.996 71.1819 138.996 68.9336H125.629ZM127.302 64.8484C128.635 63.5155 130.264 63.1045 131.458 63.1045V76.4709C133.127 76.4709 135.136 75.9175 136.753 74.3L127.302 64.8484ZM131.458 63.1045H108.112V76.4709H131.458V63.1045ZM108.112 63.1045C106.963 63.1045 104.874 63.3962 103.119 65.1509C101.364 66.9057 101.073 68.9948 101.073 70.1436H114.439C114.439 71.0551 114.207 72.9663 112.571 74.6024C110.935 76.2385 109.023 76.4709 108.112 76.4709V63.1045ZM101.073 70.1436V81.1762H114.439V70.1436H101.073ZM101.073 81.1762C101.073 82.3251 101.364 84.4142 103.119 86.1689C104.874 87.9236 106.963 88.2154 108.112 88.2154V74.8489C109.023 74.8489 110.934 75.0813 112.571 76.7174C114.207 78.3535 114.439 80.2647 114.439 81.1762H101.073ZM108.112 88.2154H123.415V74.8489H108.112V88.2154ZM123.415 88.2154C122.62 88.2154 121.684 88.0499 120.747 87.581C119.809 87.1121 119.115 86.4629 118.638 85.8268L129.331 77.8069C127.927 75.9342 125.756 74.8489 123.415 74.8489V88.2154ZM119.975 87.1634C119.339 86.6864 118.689 85.9926 118.22 85.0548C117.751 84.117 117.586 83.1814 117.586 82.3863H130.952C130.952 80.0454 129.867 77.8748 127.994 76.4703L119.975 87.1634ZM117.586 82.3863V89.2906H130.952V82.3863H117.586ZM117.586 89.2906C117.586 88.4889 117.753 87.6755 118.091 86.9144C118.422 86.1688 118.859 85.6053 119.259 85.2054L128.71 94.657C129.974 93.3932 130.952 91.5389 130.952 89.2906H117.586ZM119.259 85.2054C120.592 83.8726 122.22 83.4615 123.415 83.4615V96.828C125.084 96.828 127.093 96.2745 128.71 94.657L119.259 85.2054ZM123.415 83.4615H108.112V96.828H123.415V83.4615ZM108.112 83.4615C106.963 83.4615 104.874 83.7532 103.119 85.5079C101.364 87.2627 101.073 89.3518 101.073 90.5006H114.439C114.439 91.4122 114.207 93.3234 112.571 94.9595C110.934 96.5955 109.023 96.828 108.112 96.828V83.4615ZM101.073 90.5006V102.032H114.439V90.5006H101.073ZM101.073 102.032C101.073 103.18 101.364 105.269 103.119 107.024C104.874 108.779 106.963 109.071 108.112 109.071V95.7042C109.023 95.7042 110.934 95.9366 112.571 97.5727C114.207 99.2088 114.439 101.12 114.439 102.032H101.073ZM108.112 109.071H131.458V95.7042H108.112V109.071ZM131.458 109.071C130.663 109.071 129.728 108.905 128.79 108.436C127.852 107.967 127.158 107.318 126.681 106.682L137.374 98.6622C135.97 96.7895 133.799 95.7042 131.458 95.7042V109.071ZM128.018 108.019C127.382 107.542 126.732 106.848 126.264 105.91C125.795 104.972 125.629 104.037 125.629 103.242H138.996C138.996 100.901 137.91 98.73 136.038 97.3255L128.018 108.019ZM125.629 103.242V110.146H138.996V103.242H125.629ZM125.629 110.146C125.629 109.344 125.796 108.531 126.134 107.77C126.465 107.024 126.902 106.461 127.302 106.061L136.753 115.512C138.017 114.249 138.996 112.394 138.996 110.146H125.629ZM127.302 106.061C128.635 104.728 130.264 104.317 131.458 104.317V117.683C133.127 117.683 135.136 117.13 136.753 115.512L127.302 106.061ZM131.458 104.317H98.5738V117.683H131.458V104.317ZM98.5738 104.317C99.7826 104.317 100.976 104.715 101.943 105.44L93.9233 116.133C95.27 117.143 96.8905 117.683 98.5738 117.683V104.317ZM103.28 106.777C104.005 107.744 104.403 108.937 104.403 110.146H91.0365C91.0365 111.829 91.5767 113.45 92.5867 114.796L103.28 106.777ZM104.403 110.146V62.0293H91.0365V110.146H104.403ZM104.403 62.0293C104.403 63.2239 103.992 64.8527 102.659 66.1856L93.2075 56.7341C91.5899 58.3517 91.0365 60.3601 91.0365 62.0293H104.403ZM102.659 66.1856C102.259 66.5855 101.696 67.0221 100.95 67.3535C100.189 67.6918 99.3755 67.8583 98.5738 67.8583V54.4919C96.3255 54.4919 94.4712 55.4704 93.2075 56.7341L102.659 66.1856ZM98.5738 67.8583H131.458V54.4919H98.5738V67.8583ZM131.458 67.8583C130.663 67.8583 129.728 67.6929 128.79 67.224C127.852 66.755 127.158 66.1059 126.681 65.4698L137.374 57.4499C135.97 55.5772 133.799 54.4919 131.458 54.4919V67.8583ZM128.018 66.8064C127.382 66.3293 126.732 65.6356 126.264 64.6978C125.795 63.76 125.629 62.8244 125.629 62.0293H138.996C138.996 59.6884 137.91 57.5178 136.038 56.1133L128.018 66.8064ZM125.629 62.0293V68.9336H138.996V62.0293H125.629ZM192.902 77.1903L188.023 81.7577V81.7577L192.902 77.1903ZM195.749 110.786L200.475 115.512L200.475 115.512L195.749 110.786ZM186.211 110.786L180.864 114.796L181.437 115.56L182.201 116.133L186.211 110.786ZM184.503 84.1657L189.532 79.7648V79.7648L184.503 84.1657ZM176.459 84.1657L171.533 79.6497L176.459 84.1657ZM174.609 110.786L169.883 106.061L169.883 106.061L174.609 110.786ZM165.142 110.786L159.795 114.796L160.368 115.56L161.132 116.133L165.142 110.786ZM163.363 84.2369L158.345 88.6521L158.39 88.703L158.436 88.7529L163.363 84.2369ZM155.462 83.8098L151.093 78.7518L151.035 78.8022L150.978 78.854L155.462 83.8098ZM153.682 87.5823L147.045 86.8014L146.999 87.1905V87.5823H153.682ZM153.398 110.786L158.123 115.512L158.123 115.512L153.398 110.786ZM143.86 110.786L138.513 114.796L139.086 115.56L139.85 116.133L143.86 110.786ZM143.86 74.699L139.134 69.9732L139.134 69.9733L143.86 74.699ZM153.398 74.699L148.051 78.709L148.624 79.4728L149.388 80.0456L153.398 74.699ZM154.109 78.1868L148.563 74.4586L148.556 74.4691L148.549 74.4796L154.109 78.1868ZM169.342 75.3396L166.043 81.1519L166.076 81.1707L166.109 81.1891L169.342 75.3396ZM173.47 79.6103L179.448 76.6215L179.432 76.591L179.417 76.5607L173.47 79.6103ZM173.968 79.6103L179.529 83.3175L179.706 83.0517L179.857 82.7703L173.968 79.6103ZM178.168 75.2684L175.055 69.3543L175.022 69.3716L174.99 69.3892L178.168 75.2684ZM184.218 80.5281C186.492 80.5281 187.46 81.1571 188.023 81.7577L197.781 72.6228C194.167 68.763 189.346 67.1616 184.218 67.1616V80.5281ZM188.023 81.7577C188.619 82.3951 189.35 83.6911 189.35 86.5858H202.717C202.717 81.4137 201.36 76.4459 197.781 72.6228L188.023 81.7577ZM189.35 86.5858V110.146H202.717V86.5858H189.35ZM189.35 110.146C189.35 109.344 189.517 108.531 189.855 107.77C190.186 107.024 190.623 106.461 191.023 106.061L200.475 115.512C201.738 114.249 202.717 112.394 202.717 110.146H189.35ZM191.023 106.061C192.356 104.728 193.985 104.317 195.179 104.317V117.683C196.849 117.683 198.857 117.13 200.475 115.512L191.023 106.061ZM195.179 104.317H186.851V117.683H195.179V104.317ZM186.851 104.317C188.06 104.317 189.254 104.715 190.221 105.44L182.201 116.133C183.548 117.143 185.168 117.683 186.851 117.683V104.317ZM191.557 106.777C192.283 107.744 192.681 108.937 192.681 110.146H179.314C179.314 111.829 179.854 113.45 180.864 114.796L191.557 106.777ZM192.681 110.146V88.7923H179.314V110.146H192.681ZM192.681 88.7923C192.681 85.7024 191.87 82.437 189.532 79.7648L179.473 88.5667C179.409 88.4936 179.357 88.4184 179.319 88.3499C179.282 88.2825 179.266 88.2385 179.264 88.2312C179.261 88.2209 179.314 88.3818 179.314 88.7923H192.681ZM189.532 79.7648C187.134 77.0239 183.893 75.7742 180.517 75.7742V89.1407C180.576 89.1407 180.408 89.1484 180.126 89.0274C179.828 88.8996 179.602 88.7137 179.473 88.5667L189.532 79.7648ZM180.517 75.7742C177.14 75.7742 173.945 77.0179 171.533 79.6497L181.386 88.6818C181.293 88.7834 181.108 88.9356 180.85 89.044C180.604 89.1477 180.46 89.1407 180.517 89.1407V75.7742ZM171.533 79.6497C169.115 82.2877 168.21 85.5517 168.21 88.7212H181.577C181.577 88.3802 181.624 88.2773 181.605 88.3313C181.596 88.3589 181.574 88.4138 181.532 88.4841C181.49 88.555 181.44 88.6228 181.386 88.6818L171.533 79.6497ZM168.21 88.7212V110.146H181.577V88.7212H168.21ZM168.21 110.146C168.21 109.344 168.377 108.531 168.715 107.77C169.046 107.024 169.483 106.461 169.883 106.061L179.335 115.512C180.598 114.249 181.577 112.394 181.577 110.146H168.21ZM169.883 106.061C171.216 104.728 172.845 104.317 174.039 104.317V117.683C175.709 117.683 177.717 117.13 179.335 115.512L169.883 106.061ZM174.039 104.317H165.783V117.683H174.039V104.317ZM165.783 104.317C166.991 104.317 168.185 104.715 169.152 105.44L161.132 116.133C162.479 117.143 164.099 117.683 165.783 117.683V104.317ZM170.489 106.777C171.214 107.744 171.612 108.937 171.612 110.146H158.245C158.245 111.829 158.785 113.45 159.795 114.796L170.489 106.777ZM171.612 110.146V88.7923H158.245V110.146H171.612ZM171.612 88.7923C171.612 85.6229 170.707 82.3589 168.289 79.7209L158.436 88.7529C158.382 88.694 158.332 88.6262 158.29 88.5553C158.248 88.485 158.226 88.4301 158.217 88.4025C158.198 88.3485 158.245 88.4514 158.245 88.7923H171.612ZM168.38 79.8218C165.995 77.1122 162.776 75.7742 159.305 75.7742V89.1407C159.327 89.1407 159.151 89.141 158.881 89.0227C158.603 88.9008 158.421 88.7384 158.345 88.6521L168.38 79.8218ZM159.305 75.7742C156.357 75.7742 153.477 76.6936 151.093 78.7518L159.83 88.8679C159.73 88.9546 159.584 89.0436 159.424 89.0999C159.273 89.153 159.213 89.1407 159.305 89.1407V75.7742ZM150.978 78.854C148.543 81.0566 147.382 83.9328 147.045 86.8014L160.32 88.3632C160.344 88.156 160.373 88.1561 160.314 88.2803C160.285 88.3425 160.239 88.4243 160.172 88.5152C160.105 88.6066 160.028 88.6916 159.946 88.7657L150.978 78.854ZM146.999 87.5823V110.146H160.366V87.5823H146.999ZM146.999 110.146C146.999 109.344 147.166 108.531 147.504 107.77C147.835 107.024 148.272 106.461 148.672 106.061L158.123 115.512C159.387 114.248 160.366 112.394 160.366 110.146H146.999ZM148.672 106.061C150.005 104.728 151.634 104.317 152.828 104.317V117.683C154.497 117.683 156.506 117.13 158.123 115.512L148.672 106.061ZM152.828 104.317H144.5V117.683H152.828V104.317ZM144.5 104.317C145.709 104.317 146.903 104.715 147.87 105.44L139.85 116.133C141.196 117.143 142.817 117.683 144.5 117.683V104.317ZM149.206 106.777C149.932 107.744 150.329 108.937 150.329 110.146H136.963C136.963 111.829 137.503 113.45 138.513 114.796L149.206 106.777ZM150.329 110.146V75.2684H136.963V110.146H150.329ZM150.329 75.2684C150.329 76.4631 149.918 78.0919 148.585 79.4248L139.134 69.9733C137.516 71.5908 136.963 73.5993 136.963 75.2684H150.329ZM148.585 79.4248C148.186 79.8247 147.622 80.2614 146.877 80.5927C146.115 80.931 145.302 81.0975 144.5 81.0975V67.7311C142.252 67.7311 140.398 68.7095 139.134 69.9732L148.585 79.4248ZM144.5 81.0975H152.828V67.7311H144.5V81.0975ZM152.828 81.0975C152.033 81.0975 151.098 80.9321 150.16 80.4632C149.222 79.9943 148.528 79.3451 148.051 78.709L158.744 70.689C157.34 68.8164 155.169 67.7311 152.828 67.7311V81.0975ZM149.388 80.0456C148.752 79.5685 148.102 78.8748 147.633 77.937C147.165 76.9991 146.999 76.0636 146.999 75.2684H160.366C160.366 72.9276 159.28 70.757 157.408 69.3524L149.388 80.0456ZM146.999 75.2684V78.0444H160.366V75.2684H146.999ZM146.999 78.0444C146.999 79.7089 147.697 82.7372 150.836 84.3068L156.813 72.3514C158.059 72.9744 159.073 73.9876 159.696 75.2335C160.267 76.3754 160.366 77.4162 160.366 78.0444H146.999ZM150.836 84.3068C152.765 85.2713 155.027 85.2712 156.956 84.3068C158.496 83.5367 159.333 82.4004 159.67 81.894L148.549 74.4796C148.791 74.1155 149.533 73.0741 150.978 72.3514C151.772 71.9547 152.765 71.6637 153.896 71.6637C155.027 71.6637 156.02 71.9547 156.813 72.3514L150.836 84.3068ZM159.656 81.9149C160.134 81.2034 160.856 80.5281 163.149 80.5281V67.1616C157.28 67.1616 151.976 69.3809 148.563 74.4586L159.656 81.9149ZM163.149 80.5281C164.569 80.5281 165.456 80.8191 166.043 81.1519L172.64 69.5273C169.715 67.8671 166.474 67.1616 163.149 67.1616V80.5281ZM166.109 81.1891C166.737 81.5364 167.174 81.9797 167.523 82.66L179.417 76.5607C177.868 73.5397 175.552 71.1359 172.574 69.4902L166.109 81.1891ZM167.492 82.5992C167.663 82.9411 169.4 86.5071 173.701 86.5071C175.739 86.5071 177.213 85.6233 178.005 84.9892C178.784 84.3663 179.271 83.704 179.529 83.3175L168.407 75.9031C168.57 75.659 168.966 75.1034 169.655 74.5518C170.359 73.9888 171.747 73.1406 173.701 73.1406C175.75 73.1406 177.257 74.0681 178.114 74.8596C178.894 75.5789 179.289 76.3051 179.448 76.6215L167.492 82.5992ZM179.857 82.7703C180.351 81.8497 180.861 81.4098 181.346 81.1477L174.99 69.3892C171.963 71.0252 169.673 73.4799 168.079 76.4504L179.857 82.7703ZM181.28 81.1826C182.035 80.7852 182.968 80.5281 184.218 80.5281V67.1616C181.008 67.1616 177.906 67.8536 175.055 69.3543L181.28 81.1826ZM240.394 83.7387L234.105 85.9989L234.111 86.0156L234.117 86.0323L240.394 83.7387ZM240.536 101.177L246.867 103.319L246.878 103.286L246.889 103.254L240.536 101.177ZM235.269 108.793L231.209 103.485L231.184 103.504L231.159 103.524L235.269 108.793ZM218.613 107.655L223.925 103.598L223.654 103.244L223.339 102.929L218.613 107.655ZM218.329 107.583V114.267H219.906L221.318 113.561L218.329 107.583ZM217.902 110.786L222.627 115.512V115.512L217.902 110.786ZM208.364 110.786L203.017 114.796L203.59 115.56L204.354 116.133L208.364 110.786ZM208.364 61.4598L203.638 56.7341L203.638 56.7341L208.364 61.4598ZM217.902 61.4598L212.555 65.4698L213.128 66.2336L213.892 66.8064L217.902 61.4598ZM218.329 77.5462L221.318 71.5685L221.318 71.5685L218.329 77.5462ZM218.613 77.4038L213.344 73.2934L213.191 73.4896L213.053 73.6966L218.613 77.4038ZM235.198 76.5497L231.102 81.8309L231.162 81.8771L231.223 81.9219L235.198 76.5497ZM229.86 99.8962L235.695 103.153L235.702 103.141L235.709 103.129L229.86 99.8962ZM229.646 85.2334L223.954 88.7361L223.996 88.8037L224.039 88.8704L229.646 85.2334ZM219.823 85.2334L214.067 81.8384L214.053 81.8616L214.04 81.8849L219.823 85.2334ZM219.681 99.8962L225.517 96.639L225.48 96.5729L225.442 96.5076L219.681 99.8962ZM234.117 86.0323C234.683 87.5813 235.063 89.7078 235.063 92.5648H248.43C248.43 88.5886 247.909 84.8311 246.671 81.445L234.117 86.0323ZM235.063 92.5648C235.063 95.3093 234.723 97.4523 234.184 99.1006L246.889 103.254C247.963 99.9674 248.43 96.3687 248.43 92.5648H235.063ZM234.205 99.036C233.487 101.159 232.452 102.534 231.209 103.485L239.329 114.102C242.926 111.351 245.402 107.649 246.867 103.319L234.205 99.036ZM231.159 103.524C230.066 104.376 228.723 104.886 226.799 104.886V118.253C231.423 118.253 235.727 116.912 239.38 114.063L231.159 103.524ZM226.799 104.886C225.285 104.886 224.575 104.45 223.925 103.598L213.302 111.711C216.638 116.079 221.385 118.253 226.799 118.253V104.886ZM223.339 102.929C222.741 102.331 221.673 101.477 220.092 101.082C218.361 100.649 216.684 100.934 215.34 101.606L221.318 113.561C220.068 114.186 218.486 114.458 216.85 114.049C215.364 113.678 214.391 112.883 213.888 112.38L223.339 102.929ZM218.329 100.9C216.334 100.9 214.076 101.807 212.661 103.93C211.565 105.574 211.503 107.194 211.503 107.797H224.87C224.87 108.257 224.831 109.771 223.783 111.344C223.199 112.219 222.355 113.024 221.255 113.574C220.183 114.111 219.144 114.267 218.329 114.267V100.9ZM211.503 107.797V110.146H224.87V107.797H211.503ZM211.503 110.146C211.503 109.344 211.67 108.531 212.008 107.77C212.339 107.024 212.776 106.461 213.176 106.061L222.627 115.512C223.891 114.248 224.87 112.394 224.87 110.146H211.503ZM213.176 106.061C214.509 104.728 216.138 104.317 217.332 104.317V117.683C219.001 117.683 221.01 117.13 222.627 115.512L213.176 106.061ZM217.332 104.317H209.004V117.683H217.332V104.317ZM209.004 104.317C210.213 104.317 211.407 104.715 212.374 105.44L204.354 116.133C205.7 117.143 207.321 117.683 209.004 117.683V104.317ZM213.71 106.777C214.436 107.744 214.833 108.937 214.833 110.146H201.467C201.467 111.829 202.007 113.45 203.017 114.796L213.71 106.777ZM214.833 110.146V62.0293H201.467V110.146H214.833ZM214.833 62.0293C214.833 63.2239 214.422 64.8527 213.09 66.1856L203.638 56.7341C202.02 58.3517 201.467 60.3601 201.467 62.0293H214.833ZM213.089 66.1856C212.69 66.5855 212.126 67.0221 211.381 67.3535C210.619 67.6918 209.806 67.8583 209.004 67.8583V54.4919C206.756 54.4919 204.902 55.4704 203.638 56.7341L213.089 66.1856ZM209.004 67.8583H217.332V54.4919H209.004V67.8583ZM217.332 67.8583C216.537 67.8583 215.602 67.6929 214.664 67.224C213.726 66.755 213.032 66.1059 212.555 65.4698L223.248 57.4499C221.844 55.5772 219.673 54.4919 217.332 54.4919V67.8583ZM213.892 66.8064C213.256 66.3293 212.606 65.6356 212.138 64.6978C211.669 63.76 211.503 62.8244 211.503 62.0293H224.87C224.87 59.6884 223.784 57.5178 221.912 56.1133L213.892 66.8064ZM211.503 62.0293V77.2614H224.87V62.0293H211.503ZM211.503 77.2614C211.503 78.9259 212.201 81.9542 215.34 83.5238L221.318 71.5685C222.563 72.1914 223.577 73.2046 224.2 74.4506C224.771 75.5924 224.87 76.6332 224.87 77.2614H211.503ZM215.34 83.5238C217.269 84.4883 219.531 84.4883 221.46 83.5238C223 82.7537 223.837 81.6174 224.174 81.111L213.053 73.6966C213.295 73.3326 214.037 72.2911 215.482 71.5685C216.276 71.1717 217.269 70.8807 218.4 70.8807C219.531 70.8807 220.524 71.1717 221.318 71.5685L215.34 83.5238ZM223.883 81.5142C224.285 80.9996 224.84 80.5281 226.514 80.5281V67.1616C221.355 67.1616 216.644 69.0628 213.344 73.2934L223.883 81.5142ZM226.514 80.5281C228.768 80.5281 230.148 81.0907 231.102 81.8309L239.294 71.2684C235.598 68.4022 231.188 67.1616 226.514 67.1616V80.5281ZM231.223 81.9219C232.434 82.8186 233.416 84.0841 234.105 85.9989L246.683 81.4784C245.189 77.3193 242.707 73.7922 239.173 71.1774L231.223 81.9219ZM235.709 103.129C237.437 100.002 238.038 96.3962 238.038 92.7783H224.671C224.671 95.0445 224.275 96.1837 224.01 96.6636L235.709 103.129ZM238.038 92.7783C238.038 88.8838 237.387 84.8862 235.253 81.5965L224.039 88.8704C224.183 89.0921 224.671 90.1244 224.671 92.7783H238.038ZM235.338 81.7308C232.944 77.8408 229.069 75.7742 224.592 75.7742V89.1407C224.688 89.1407 224.691 89.1505 224.625 89.135C224.555 89.1184 224.442 89.0813 224.311 89.0091C224.179 88.9367 224.075 88.8542 224.004 88.7846C223.936 88.718 223.925 88.6892 223.954 88.7361L235.338 81.7308ZM224.592 75.7742C220.056 75.7742 216.317 78.0229 214.067 81.8384L225.58 88.6284C225.643 88.5219 225.545 88.7243 225.196 88.9274C225.036 89.0208 224.879 89.0798 224.751 89.1122C224.626 89.1434 224.565 89.1407 224.592 89.1407V75.7742ZM214.04 81.8849C212.175 85.1051 211.574 88.9207 211.574 92.7072H224.941C224.941 90.135 225.384 88.9681 225.607 88.582L214.04 81.8849ZM211.574 92.7072C211.574 96.3447 212.081 100.157 213.921 103.285L225.442 96.5076C225.444 96.5115 225.303 96.2646 225.169 95.5907C225.038 94.9255 224.941 93.9835 224.941 92.7072H211.574ZM213.845 103.153C216.062 107.126 219.855 109.64 224.664 109.64V96.2736C224.641 96.2736 224.708 96.2713 224.839 96.306C224.974 96.3419 225.129 96.4049 225.279 96.4971C225.601 96.6946 225.639 96.8585 225.517 96.639L213.845 103.153ZM224.664 109.64C226.83 109.64 229.053 109.155 231.098 107.95C233.143 106.746 234.643 105.039 235.695 103.153L224.024 96.639C223.975 96.7264 223.966 96.72 224.02 96.663C224.077 96.602 224.176 96.5149 224.314 96.4332C224.453 96.3514 224.58 96.3058 224.666 96.2841C224.748 96.2637 224.756 96.2736 224.664 96.2736V109.64ZM276.172 75.482L273.424 81.5743L273.474 81.5969L273.525 81.6186L276.172 75.482ZM281.795 79.8239L276.366 83.7216L276.399 83.7669L276.432 83.8118L281.795 79.8239ZM283.575 110.786L278.849 106.061L278.849 106.061L283.575 110.786ZM274.037 110.786L268.69 114.796L269.263 115.56L270.027 116.133L274.037 110.786ZM273.681 107.512L276.67 101.535L276.67 101.535L273.681 107.512ZM273.396 107.655L278.708 111.711L278.838 111.54L278.957 111.362L273.396 107.655ZM254.818 108.865L258.967 103.625L254.818 108.865ZM255.246 92.4224L259.349 97.6979L259.379 97.6744L259.409 97.6506L255.246 92.4224ZM272.4 83.8098L267.796 88.6552L267.862 88.7172L267.929 88.7775L272.4 83.8098ZM264.428 83.2404L261.327 77.3202L261.266 77.3517L261.207 77.3845L264.428 83.2404ZM262.577 85.447L256.176 83.5265L256.151 83.6072L256.129 83.6885L262.577 85.447ZM261.652 86.1587L260.776 92.7843L260.881 92.7982L260.987 92.8088L261.652 86.1587ZM253.039 85.0199L251.94 91.6122L252.051 91.6307L252.163 91.6454L253.039 85.0199ZM252.256 84.3793L258.872 85.3244L258.894 85.1691L258.909 85.0129L252.256 84.3793ZM254.605 78.9697L249.594 74.548L249.557 74.59L249.52 74.6327L254.605 78.9697ZM260.157 75.1973L257.741 68.9661L257.719 68.9745L257.697 68.9832L260.157 75.1973ZM271.688 102.459L267.621 97.1547L271.688 102.459ZM263.289 96.5508L259.631 90.9571L259.581 90.9902L259.531 91.0242L263.289 96.5508ZM262.862 103.028L258.557 108.14L258.638 108.208L258.72 108.274L262.862 103.028ZM267.915 80.5281C270.205 80.5281 271.997 80.9305 273.424 81.5743L278.92 69.3896C275.507 67.8507 271.795 67.1616 267.915 67.1616V80.5281ZM273.525 81.6186C275.009 82.2589 275.849 83.0017 276.366 83.7216L287.224 75.9262C285.084 72.9448 282.175 70.793 278.819 69.3454L273.525 81.6186ZM276.432 83.8118C276.962 84.5251 277.176 85.1946 277.176 86.0164H290.543C290.543 82.2828 289.38 78.8239 287.158 75.836L276.432 83.8118ZM277.176 86.0164V110.146H290.543V86.0164H277.176ZM277.176 110.146C277.176 109.344 277.343 108.531 277.681 107.77C278.012 107.024 278.449 106.461 278.849 106.061L288.3 115.512C289.564 114.249 290.543 112.394 290.543 110.146H277.176ZM278.849 106.061C280.182 104.728 281.81 104.317 283.005 104.317V117.683C284.674 117.683 286.683 117.13 288.3 115.512L278.849 106.061ZM283.005 104.317H274.677V117.683H283.005V104.317ZM274.677 104.317C275.886 104.317 277.08 104.715 278.047 105.44L270.027 116.133C271.373 117.143 272.994 117.683 274.677 117.683V104.317ZM279.383 106.777C280.109 107.744 280.506 108.937 280.506 110.146H267.14C267.14 111.829 267.68 113.45 268.69 114.796L279.383 106.777ZM280.506 110.146V107.797H267.14V110.146H280.506ZM280.506 107.797C280.506 106.132 279.809 103.104 276.67 101.535L270.692 113.49C269.446 112.867 268.433 111.854 267.81 110.608C267.239 109.466 267.14 108.425 267.14 107.797H280.506ZM276.67 101.535C274.741 100.57 272.479 100.57 270.55 101.535C269.009 102.305 268.173 103.441 267.835 103.947L278.957 111.362C278.714 111.726 277.972 112.767 276.527 113.49C275.734 113.887 274.74 114.178 273.61 114.178C272.479 114.178 271.485 113.887 270.692 113.49L276.67 101.535ZM268.084 103.598C267.76 104.023 266.889 104.886 263.787 104.886V118.253C269.511 118.253 275.046 116.506 278.708 111.711L268.084 103.598ZM263.787 104.886C261.172 104.886 259.773 104.263 258.967 103.625L250.67 114.105C254.42 117.073 258.999 118.253 263.787 118.253V104.886ZM258.967 103.625C258.628 103.356 258.085 102.835 258.085 100.893H244.719C244.719 105.973 246.454 110.766 250.67 114.105L258.967 103.625ZM258.085 100.893C258.085 99.0063 258.634 98.254 259.349 97.6979L251.142 87.147C246.733 90.5769 244.719 95.4714 244.719 100.893H258.085ZM259.409 97.6506C260.359 96.8937 262.316 96.045 266.207 96.045V82.6785C260.608 82.6785 255.257 83.8703 251.082 87.1943L259.409 97.6506ZM266.207 96.045H273.467V82.6785H266.207V96.045ZM273.467 96.045C274.616 96.045 276.705 95.7533 278.46 93.9986C280.215 92.2438 280.506 90.1547 280.506 89.0059H267.14C267.14 88.0943 267.372 86.1831 269.008 84.547C270.644 82.9109 272.556 82.6785 273.467 82.6785V96.045ZM280.506 89.0059V87.4399H267.14V89.0059H280.506ZM280.506 87.4399C280.506 84.4432 279.539 81.2441 276.87 78.8422L267.929 88.7775C267.617 88.4967 267.38 88.1421 267.245 87.7979C267.122 87.4842 267.14 87.3254 267.14 87.4399H280.506ZM277.003 78.9645C274.349 76.4439 270.974 75.7742 268.129 75.7742V89.1407C268.57 89.1407 268.692 89.1954 268.602 89.167C268.55 89.1505 268.438 89.1094 268.289 89.0244C268.138 88.938 267.967 88.8168 267.796 88.6552L277.003 78.9645ZM268.129 75.7742C265.899 75.7742 263.529 76.1667 261.327 77.3202L267.529 89.1606C267.32 89.2702 267.417 89.1407 268.129 89.1407V75.7742ZM261.207 77.3845C258.88 78.6644 257.013 80.7354 256.176 83.5265L268.978 87.3674C268.868 87.7345 268.668 88.1273 268.374 88.4783C268.087 88.82 267.806 89.0097 267.648 89.0964L261.207 77.3845ZM256.129 83.6885C256.295 83.0805 256.787 81.7783 258.164 80.7191C259.649 79.5765 261.262 79.4032 262.317 79.5087L260.987 92.8088C262.516 92.9617 264.52 92.6936 266.314 91.3137C267.999 90.0172 268.717 88.3353 269.025 87.2054L256.129 83.6885ZM262.528 79.5332L253.915 78.3943L252.163 91.6454L260.776 92.7843L262.528 79.5332ZM254.138 78.4276C254.286 78.4523 255.444 78.6303 256.648 79.616C257.335 80.1781 258.051 81.0188 258.502 82.1708C258.953 83.3244 258.999 84.4337 258.872 85.3244L245.64 83.4341C245.283 85.9303 246.254 88.382 248.184 89.9611C249.65 91.1603 251.223 91.4926 251.94 91.6122L254.138 78.4276ZM258.909 85.0129C258.961 84.4693 259.148 83.9414 259.69 83.3068L249.52 74.6327C247.309 77.2248 245.931 80.3033 245.603 83.7456L258.909 85.0129ZM259.616 83.3915C260.251 82.6717 261.182 81.9792 262.617 81.4114L257.697 68.9832C254.576 70.2185 251.806 72.041 249.594 74.548L259.616 83.3915ZM262.573 81.4284C264.027 80.8648 265.779 80.5281 267.915 80.5281V67.1616C264.358 67.1616 260.938 67.7265 257.741 68.9661L262.573 81.4284ZM266.492 110.779C269.791 110.779 273.006 109.869 275.754 107.762L267.621 97.1547C267.522 97.2307 267.274 97.4125 266.492 97.4125V110.779ZM275.754 107.762C278.731 105.48 280.506 102.164 280.506 98.2591H267.14C267.14 98.1547 267.17 97.8801 267.332 97.561C267.489 97.2523 267.654 97.13 267.621 97.1547L275.754 107.762ZM280.506 98.2591V95.6966H267.14V98.2591H280.506ZM280.506 95.6966C280.506 94.5478 280.215 92.4587 278.46 90.704C276.705 88.9493 274.616 88.6575 273.467 88.6575V102.024C272.556 102.024 270.644 101.792 269.008 100.155C267.372 98.5194 267.14 96.6082 267.14 95.6966H280.506ZM273.467 88.6575H268.342V102.024H273.467V88.6575ZM268.342 88.6575C265.461 88.6575 262.338 89.1876 259.631 90.9571L266.946 102.144C266.818 102.228 266.811 102.196 267.034 102.143C267.264 102.088 267.683 102.024 268.342 102.024V88.6575ZM259.531 91.0242C256.46 93.1126 254.826 96.3508 254.826 99.9674H268.192C268.192 100.149 268.15 100.583 267.882 101.097C267.61 101.618 267.258 101.933 267.047 102.077L259.531 91.0242ZM254.826 99.9674C254.826 103.025 256.005 105.991 258.557 108.14L267.167 97.9159C267.449 98.1537 267.751 98.5189 267.96 98.9923C268.163 99.4505 268.192 99.8153 268.192 99.9674H254.826ZM258.72 108.274C261.133 110.178 263.955 110.779 266.492 110.779V97.4125C266.245 97.4125 266.214 97.3827 266.331 97.4171C266.465 97.4565 266.72 97.5595 267.003 97.7825L258.72 108.274ZM297.281 68.72L292.452 73.3396L292.503 73.3933L292.555 73.4458L297.281 68.72ZM297.281 60.6057L302.007 65.3315V65.3314L297.281 60.6057ZM305.324 60.6057L300.599 65.3315L300.599 65.3315L305.324 60.6057ZM305.253 68.72L300.527 63.9943V63.9943L305.253 68.72ZM288.811 125.52L288.949 118.839L288.88 118.837H288.811V125.52ZM288.882 117.121L287.866 123.727L288.259 123.787L288.656 123.801L288.882 117.121ZM294.719 115.911L290.57 110.671L290.516 110.715L290.462 110.759L294.719 115.911ZM296.427 111.142H303.11V111.129L303.11 111.116L296.427 111.142ZM296.285 75.2684H289.601V75.2817L289.601 75.295L296.285 75.2684ZM296.498 74.699L291.772 69.9732L291.772 69.9733L296.498 74.699ZM306.036 74.699L300.689 78.709L301.262 79.4728L302.026 80.0456L306.036 74.699ZM304.755 119.897L298.777 116.908L298.764 116.935L298.751 116.962L304.755 119.897ZM299.416 124.382L297.267 118.053L297.249 118.06L297.23 118.066L299.416 124.382ZM301.267 63.6027C301.189 63.6027 301.295 63.592 301.504 63.674C301.725 63.7607 301.902 63.8892 302.007 63.9943L292.555 73.4458C294.975 75.8656 298.062 76.9692 301.267 76.9692V63.6027ZM302.111 64.1004C302.173 64.1652 302.272 64.2993 302.342 64.4807C302.409 64.6542 302.398 64.7393 302.398 64.6629H289.032C289.032 67.8681 290.131 70.9141 292.452 73.3396L302.111 64.1004ZM302.398 64.6629C302.398 64.5368 302.417 64.6146 302.342 64.8094C302.261 65.0195 302.132 65.2066 302.007 65.3315L292.555 55.8799C290.097 58.3384 289.032 61.4713 289.032 64.6629H302.398ZM302.007 65.3314C301.902 65.4365 301.725 65.5651 301.504 65.6517C301.295 65.7337 301.189 65.723 301.267 65.723V52.3565C298.062 52.3565 294.975 53.4602 292.555 55.8799L302.007 65.3314ZM301.267 65.723C301.393 65.723 301.315 65.7414 301.121 65.6662C300.91 65.5851 300.723 65.4563 300.599 65.3315L310.05 55.8799C307.592 53.4215 304.459 52.3565 301.267 52.3565V65.723ZM300.599 65.3315C300.474 65.2066 300.345 65.0195 300.264 64.8094C300.189 64.6146 300.207 64.5368 300.207 64.6629H313.573C313.573 61.4713 312.508 58.3384 310.05 55.8799L300.599 65.3315ZM300.207 64.6629C300.207 64.7037 300.203 64.5853 300.283 64.3864C300.366 64.1815 300.476 64.0461 300.527 63.9943L309.979 73.4458C312.385 71.0392 313.573 67.9593 313.573 64.6629H300.207ZM300.527 63.9943C300.632 63.8892 300.809 63.7607 301.03 63.674C301.239 63.592 301.346 63.6027 301.267 63.6027V76.9692C304.472 76.9692 307.559 75.8656 309.979 73.4458L300.527 63.9943ZM288.811 118.837C289.556 118.837 291.343 119.028 292.896 120.581C294.449 122.134 294.64 123.921 294.64 124.666H281.274C281.274 125.981 281.607 128.195 283.445 130.033C285.282 131.87 287.496 132.204 288.811 132.204V118.837ZM294.64 124.666V117.904H281.274V124.666H294.64ZM294.64 117.904C294.64 118.518 294.498 120.661 292.505 122.348C290.535 124.015 288.429 123.814 287.866 123.727L289.898 110.516C288.718 110.334 286.15 110.216 283.871 112.144C281.57 114.091 281.274 116.674 281.274 117.904H294.64ZM288.656 123.801C291.717 123.905 295.867 123.632 298.975 121.064L290.462 110.759C291.025 110.294 291.397 110.281 291.084 110.346C290.796 110.406 290.175 110.478 289.108 110.442L288.656 123.801ZM298.867 121.151C302.342 118.4 303.11 114.293 303.11 111.142H289.744C289.744 111.764 289.661 111.921 289.708 111.789C289.737 111.709 289.808 111.54 289.954 111.327C290.104 111.108 290.309 110.878 290.57 110.671L298.867 121.151ZM303.11 111.116L302.968 75.2419L289.601 75.295L289.744 111.169L303.11 111.116ZM302.968 75.2684C302.968 76.4631 302.557 78.0919 301.224 79.4248L291.772 69.9733C290.155 71.5908 289.601 73.5993 289.601 75.2684H302.968ZM301.224 79.4248C300.824 79.8247 300.26 80.2614 299.515 80.5927C298.754 80.931 297.94 81.0975 297.139 81.0975V67.7311C294.89 67.7311 293.036 68.7095 291.772 69.9732L301.224 79.4248ZM297.139 81.0975H305.467V67.7311H297.139V81.0975ZM305.467 81.0975C304.672 81.0975 303.736 80.9321 302.798 80.4632C301.86 79.9943 301.167 79.3451 300.689 78.709L311.383 70.6891C309.978 68.8164 307.807 67.7311 305.467 67.7311V81.0975ZM302.026 80.0456C301.39 79.5685 300.741 78.8748 300.272 77.937C299.803 76.9992 299.638 76.0636 299.638 75.2684H313.004C313.004 72.9276 311.919 70.7569 310.046 69.3524L302.026 80.0456ZM299.638 75.2684V111H313.004V75.2684H299.638ZM299.638 111C299.638 114.398 299.15 116.163 298.777 116.908L310.733 122.886C312.447 119.456 313.004 115.29 313.004 111H299.638ZM298.751 116.962C298.584 117.304 298.313 117.698 297.267 118.053L301.566 130.71C305.549 129.357 308.838 126.762 310.759 122.833L298.751 116.962ZM297.23 118.066C295.873 118.536 293.269 118.928 288.949 118.839L288.673 132.202C293.558 132.303 298.025 131.936 301.603 130.697L297.23 118.066ZM341.85 75.482L339.102 81.5743L339.152 81.5969L339.202 81.6186L341.85 75.482ZM347.473 79.8239L342.044 83.7216L342.076 83.7669L342.11 83.8118L347.473 79.8239ZM349.252 110.786L344.526 106.061V106.061L349.252 110.786ZM339.714 110.786L334.368 114.796L334.941 115.56L335.704 116.133L339.714 110.786ZM339.358 107.512L342.347 101.535L342.347 101.535L339.358 107.512ZM339.074 107.655L344.385 111.711L344.515 111.54L344.634 111.362L339.074 107.655ZM320.496 108.865L324.644 103.625L320.496 108.865ZM320.923 92.4224L325.026 97.6979L325.056 97.6744L325.086 97.6506L320.923 92.4224ZM338.077 83.8098L333.474 88.6552L333.539 88.7172L333.606 88.7775L338.077 83.8098ZM330.105 83.2404L327.004 77.3202L326.944 77.3517L326.884 77.3845L330.105 83.2404ZM328.255 85.447L321.853 83.5265L321.829 83.6072L321.807 83.6885L328.255 85.447ZM327.329 86.1587L326.453 92.7843L326.559 92.7982L326.664 92.8088L327.329 86.1587ZM318.717 85.0199L317.618 91.6122L317.729 91.6307L317.841 91.6454L318.717 85.0199ZM317.934 84.3793L324.55 85.3244L324.572 85.1691L324.587 85.0129L317.934 84.3793ZM320.283 78.9697L315.271 74.548L315.234 74.59L315.198 74.6327L320.283 78.9697ZM325.835 75.1973L323.418 68.9661L323.397 68.9745L323.375 68.9832L325.835 75.1973ZM337.365 102.459L333.299 97.1547L337.365 102.459ZM328.966 96.5508L325.309 90.9571L325.258 90.9902L325.208 91.0242L328.966 96.5508ZM328.539 103.028L324.234 108.14L324.315 108.208L324.398 108.274L328.539 103.028ZM333.593 80.5281C335.882 80.5281 337.674 80.9305 339.102 81.5743L344.597 69.3896C341.185 67.8507 337.473 67.1616 333.593 67.1616V80.5281ZM339.202 81.6186C340.687 82.2589 341.527 83.0017 342.044 83.7216L352.902 75.9262C350.761 72.9448 347.853 70.793 344.497 69.3454L339.202 81.6186ZM342.11 83.8118C342.64 84.5251 342.854 85.1946 342.854 86.0164H356.22C356.22 82.2828 355.058 78.8239 352.836 75.836L342.11 83.8118ZM342.854 86.0164V110.146H356.22V86.0164H342.854ZM342.854 110.146C342.854 109.344 343.02 108.531 343.359 107.77C343.69 107.024 344.127 106.461 344.526 106.061L353.978 115.512C355.242 114.249 356.22 112.394 356.22 110.146H342.854ZM344.526 106.061C345.859 104.728 347.488 104.317 348.683 104.317V117.683C350.352 117.683 352.36 117.13 353.978 115.512L344.526 106.061ZM348.683 104.317H340.355V117.683H348.683V104.317ZM340.355 104.317C341.564 104.317 342.757 104.715 343.724 105.44L335.704 116.133C337.051 117.143 338.672 117.683 340.355 117.683V104.317ZM345.061 106.777C345.786 107.744 346.184 108.937 346.184 110.146H332.818C332.818 111.829 333.358 113.45 334.368 114.796L345.061 106.777ZM346.184 110.146V107.797H332.818V110.146H346.184ZM346.184 107.797C346.184 106.132 345.487 103.104 342.347 101.535L336.37 113.49C335.124 112.867 334.11 111.854 333.487 110.608C332.917 109.466 332.818 108.425 332.818 107.797H346.184ZM342.347 101.535C340.418 100.57 338.156 100.57 336.227 101.535C334.687 102.305 333.85 103.441 333.513 103.947L344.634 111.362C344.392 111.726 343.65 112.767 342.205 113.49C341.411 113.887 340.418 114.178 339.287 114.178C338.156 114.178 337.163 113.887 336.37 113.49L342.347 101.535ZM333.762 103.598C333.438 104.023 332.567 104.886 329.465 104.886V118.253C335.189 118.253 340.723 116.506 344.385 111.711L333.762 103.598ZM329.465 104.886C326.85 104.886 325.45 104.263 324.644 103.625L316.348 114.105C320.097 117.073 324.677 118.253 329.465 118.253V104.886ZM324.644 103.625C324.306 103.356 323.763 102.835 323.763 100.893H310.396C310.396 105.973 312.131 110.766 316.348 114.105L324.644 103.625ZM323.763 100.893C323.763 99.0063 324.311 98.254 325.026 97.6979L316.82 87.147C312.41 90.5769 310.396 95.4714 310.396 100.893H323.763ZM325.086 97.6506C326.037 96.8937 327.993 96.045 331.885 96.045V82.6785C326.286 82.6785 320.934 83.8703 316.76 87.1943L325.086 97.6506ZM331.885 96.045H339.145V82.6785H331.885V96.045ZM339.145 96.045C340.294 96.045 342.383 95.7533 344.138 93.9986C345.892 92.2438 346.184 90.1547 346.184 89.0059H332.818C332.818 88.0943 333.05 86.1831 334.686 84.547C336.322 82.9109 338.233 82.6785 339.145 82.6785V96.045ZM346.184 89.0059V87.4399H332.818V89.0059H346.184ZM346.184 87.4399C346.184 84.4432 345.217 81.2441 342.548 78.8422L333.606 88.7775C333.294 88.4967 333.058 88.1421 332.923 87.7979C332.8 87.4842 332.818 87.3254 332.818 87.4399H346.184ZM342.68 78.9645C340.027 76.4439 336.652 75.7742 333.806 75.7742V89.1407C334.247 89.1407 334.37 89.1954 334.28 89.167C334.228 89.1505 334.116 89.1094 333.967 89.0244C333.815 88.938 333.644 88.8168 333.474 88.6552L342.68 78.9645ZM333.806 75.7742C331.576 75.7742 329.206 76.1667 327.004 77.3202L333.206 89.1606C332.997 89.2702 333.095 89.1407 333.806 89.1407V75.7742ZM326.884 77.3845C324.557 78.6644 322.691 80.7354 321.853 83.5265L334.656 87.3674C334.546 87.7345 334.346 88.1273 334.051 88.4783C333.765 88.82 333.484 89.0097 333.326 89.0964L326.884 77.3845ZM321.807 83.6885C321.973 83.0805 322.465 81.7783 323.842 80.7191C325.327 79.5765 326.939 79.4032 327.994 79.5087L326.664 92.8088C328.194 92.9617 330.197 92.6936 331.991 91.3137C333.677 90.0172 334.394 88.3353 334.702 87.2054L321.807 83.6885ZM328.205 79.5332L319.593 78.3943L317.841 91.6454L326.453 92.7843L328.205 79.5332ZM319.815 78.4276C319.964 78.4523 321.121 78.6303 322.326 79.616C323.013 80.1781 323.729 81.0188 324.18 82.1708C324.631 83.3244 324.677 84.4337 324.55 85.3244L311.318 83.4341C310.961 85.9303 311.932 88.382 313.862 89.9611C315.327 91.1603 316.9 91.4926 317.618 91.6122L319.815 78.4276ZM324.587 85.0129C324.639 84.4693 324.826 83.9414 325.367 83.3068L315.198 74.6327C312.987 77.2248 311.608 80.3033 311.281 83.7456L324.587 85.0129ZM325.294 83.3915C325.929 82.6717 326.86 81.9792 328.294 81.4114L323.375 68.9832C320.254 70.2185 317.483 72.041 315.271 74.548L325.294 83.3915ZM328.251 81.4284C329.704 80.8648 331.456 80.5281 333.593 80.5281V67.1616C330.035 67.1616 326.615 67.7265 323.418 68.9661L328.251 81.4284ZM332.169 110.779C335.468 110.779 338.684 109.869 341.432 107.762L333.299 97.1547C333.2 97.2307 332.951 97.4125 332.169 97.4125V110.779ZM341.432 107.762C344.409 105.48 346.184 102.164 346.184 98.2591H332.818C332.818 98.1547 332.847 97.8801 333.01 97.561C333.167 97.2523 333.331 97.13 333.299 97.1547L341.432 107.762ZM346.184 98.2591V95.6966H332.818V98.2591H346.184ZM346.184 95.6966C346.184 94.5478 345.892 92.4587 344.138 90.704C342.383 88.9493 340.294 88.6575 339.145 88.6575V102.024C338.233 102.024 336.322 101.792 334.686 100.155C333.05 98.5194 332.818 96.6082 332.818 95.6966H346.184ZM339.145 88.6575H334.02V102.024H339.145V88.6575ZM334.02 88.6575C331.139 88.6575 328.015 89.1876 325.309 90.9571L332.624 102.144C332.496 102.228 332.488 102.196 332.711 102.143C332.942 102.088 333.36 102.024 334.02 102.024V88.6575ZM325.208 91.0242C322.137 93.1126 320.504 96.3508 320.504 99.9674H333.87C333.87 100.149 333.827 100.583 333.559 101.097C333.288 101.618 332.936 101.933 332.724 102.077L325.208 91.0242ZM320.504 99.9674C320.504 103.025 321.682 105.991 324.234 108.14L332.844 97.9159C333.126 98.1537 333.429 98.5189 333.638 98.9923C333.841 99.4505 333.87 99.8153 333.87 99.9674H320.504ZM324.398 108.274C326.81 110.178 329.633 110.779 332.169 110.779V97.4125C331.923 97.4125 331.892 97.3827 332.009 97.4171C332.143 97.4565 332.398 97.5595 332.681 97.7825L324.398 108.274ZM384.526 61.4598L379.8 56.7341L379.8 56.7341L384.526 61.4598ZM394.064 61.4598L388.717 65.4698L389.29 66.2336L390.054 66.8064L394.064 61.4598ZM394.064 110.786L398.789 115.512V115.512L394.064 110.786ZM384.526 110.786L379.179 114.796L379.752 115.56L380.516 116.133L384.526 110.786ZM384.17 107.583L381.181 113.561L382.592 114.267H384.17V107.583ZM383.885 107.655L379.159 102.929L378.844 103.244L378.574 103.598L383.885 107.655ZM367.087 108.793L362.977 114.063L363.002 114.083L363.027 114.102L367.087 108.793ZM361.962 101.177L368.321 99.1201L368.318 99.1104L368.315 99.1006L361.962 101.177ZM362.033 83.7387L355.744 81.4784L355.724 81.5338L355.705 81.5895L362.033 83.7387ZM367.158 76.5497L371.186 81.8831L371.194 81.8769L371.202 81.8706L367.158 76.5497ZM383.885 77.4038L389.446 73.6966L389.285 73.4553L389.104 73.2288L383.885 77.4038ZM384.17 77.5462L381.181 71.5685L381.181 71.5685L384.17 77.5462ZM382.818 99.8962L388.595 103.255L388.647 103.166L388.697 103.074L382.818 99.8962ZM382.675 85.2334L388.459 81.8849L388.446 81.8616L388.432 81.8384L382.675 85.2334ZM372.853 85.2334L378.479 88.8401L378.512 88.7884L378.544 88.7361L372.853 85.2334ZM372.568 99.8962L366.651 103.003L366.718 103.131L366.79 103.255L372.568 99.8962ZM390.996 62.0293C390.996 63.2239 390.584 64.8527 389.252 66.1856L379.8 56.7341C378.182 58.3517 377.629 60.3601 377.629 62.0293H390.996ZM389.252 66.1856C388.852 66.5855 388.288 67.0221 387.543 67.3535C386.781 67.6918 385.968 67.8583 385.166 67.8583V54.4919C382.918 54.4919 381.064 55.4704 379.8 56.7341L389.252 66.1856ZM385.166 67.8583H393.494V54.4919H385.166V67.8583ZM393.494 67.8583C392.699 67.8583 391.764 67.6929 390.826 67.224C389.888 66.755 389.194 66.1059 388.717 65.4698L399.41 57.4499C398.006 55.5772 395.835 54.4919 393.494 54.4919V67.8583ZM390.054 66.8064C389.418 66.3293 388.768 65.6356 388.3 64.6978C387.831 63.76 387.665 62.8244 387.665 62.0293H401.032C401.032 59.6884 399.946 57.5178 398.074 56.1133L390.054 66.8064ZM387.665 62.0293V110.146H401.032V62.0293H387.665ZM387.665 110.146C387.665 109.344 387.832 108.531 388.17 107.77C388.501 107.024 388.938 106.461 389.338 106.061L398.789 115.512C400.053 114.249 401.032 112.394 401.032 110.146H387.665ZM389.338 106.061C390.671 104.728 392.3 104.317 393.494 104.317V117.683C395.163 117.683 397.172 117.13 398.789 115.512L389.338 106.061ZM393.494 104.317H385.166V117.683H393.494V104.317ZM385.166 104.317C386.375 104.317 387.569 104.715 388.536 105.44L380.516 116.133C381.863 117.143 383.483 117.683 385.166 117.683V104.317ZM389.872 106.777C390.598 107.744 390.996 108.937 390.996 110.146H377.629C377.629 111.829 378.169 113.45 379.179 114.796L389.872 106.777ZM390.996 110.146V107.797H377.629V110.146H390.996ZM390.996 107.797C390.996 107.194 390.933 105.574 389.837 103.93C388.423 101.807 386.164 100.9 384.17 100.9V114.267C383.354 114.267 382.316 114.111 381.243 113.574C380.143 113.024 379.299 112.219 378.716 111.344C377.667 109.771 377.629 108.257 377.629 107.797H390.996ZM387.159 101.606C385.815 100.934 384.137 100.649 382.407 101.082C380.825 101.477 379.757 102.331 379.159 102.929L388.611 112.38C388.108 112.883 387.135 113.678 385.648 114.049C384.013 114.458 382.43 114.186 381.181 113.561L387.159 101.606ZM378.574 103.598C377.924 104.45 377.214 104.886 375.7 104.886V118.253C381.114 118.253 385.861 116.079 389.197 111.711L378.574 103.598ZM375.7 104.886C373.705 104.886 372.294 104.362 371.147 103.485L363.027 114.102C366.72 116.926 371.051 118.253 375.7 118.253V104.886ZM371.198 103.524C370.009 102.597 369.008 101.243 368.321 99.1201L355.604 103.235C357.005 107.565 359.42 111.289 362.977 114.063L371.198 103.524ZM368.315 99.1006C367.776 97.4523 367.435 95.3093 367.435 92.5648H354.069C354.069 96.3687 354.535 99.9674 355.61 103.254L368.315 99.1006ZM367.435 92.5648C367.435 89.7397 367.796 87.5534 368.362 85.8879L355.705 81.5895C354.563 84.9539 354.069 88.6516 354.069 92.5648H367.435ZM368.323 85.9989C369.024 84.048 370.007 82.7731 371.186 81.8831L363.131 71.2162C359.659 73.8377 357.226 77.3554 355.744 81.4784L368.323 85.9989ZM371.202 81.8706C372.23 81.0897 373.663 80.5281 375.913 80.5281V67.1616C371.235 67.1616 366.832 68.4032 363.114 71.2287L371.202 81.8706ZM375.913 80.5281C377.586 80.5281 378.205 81.0024 378.666 81.5788L389.104 73.2288C385.769 69.0599 381.074 67.1616 375.913 67.1616V80.5281ZM378.324 81.111C378.662 81.6174 379.499 82.7537 381.039 83.5238C382.968 84.4883 385.23 84.4883 387.159 83.5238L381.181 71.5685C381.975 71.1717 382.968 70.8807 384.099 70.8807C385.23 70.8807 386.223 71.1717 387.016 71.5685C388.462 72.2911 389.203 73.3326 389.446 73.6966L378.324 81.111ZM387.159 83.5238C390.298 81.9542 390.996 78.9259 390.996 77.2614H377.629C377.629 76.6332 377.728 75.5924 378.299 74.4506C378.922 73.2046 379.935 72.1914 381.181 71.5685L387.159 83.5238ZM390.996 77.2614V62.0293H377.629V77.2614H390.996ZM388.697 103.074C390.378 99.9634 390.924 96.3237 390.924 92.7072H377.558C377.558 95.1645 377.155 96.3175 376.938 96.7182L388.697 103.074ZM390.924 92.7072C390.924 88.9207 390.323 85.1051 388.459 81.8849L376.891 88.582C377.115 88.9681 377.558 90.135 377.558 92.7072H390.924ZM388.432 81.8384C386.182 78.0229 382.443 75.7742 377.906 75.7742V89.1407C377.933 89.1407 377.872 89.1434 377.748 89.1122C377.619 89.0798 377.463 89.0208 377.302 88.9274C376.953 88.7243 376.856 88.5219 376.918 88.6284L388.432 81.8384ZM377.906 75.7742C373.43 75.7742 369.555 77.8408 367.161 81.7308L378.544 88.7361C378.573 88.6892 378.562 88.718 378.495 88.7846C378.424 88.8542 378.32 88.9367 378.188 89.0091C378.056 89.0813 377.943 89.1184 377.873 89.135C377.808 89.1505 377.811 89.1407 377.906 89.1407V75.7742ZM367.226 81.6267C365.107 84.933 364.39 88.8613 364.39 92.7783H377.756C377.756 90.3368 378.226 89.2351 378.479 88.8401L367.226 81.6267ZM364.39 92.7783C364.39 96.3666 365.013 99.8841 366.651 103.003L378.485 96.7896C378.129 96.112 377.756 94.8843 377.756 92.7783H364.39ZM366.79 103.255C369.151 107.315 373.085 109.64 377.835 109.64V96.2736C377.743 96.2736 377.746 96.2638 377.819 96.2819C377.896 96.3012 378.009 96.3416 378.132 96.4132C378.255 96.4845 378.339 96.5583 378.383 96.6038C378.423 96.6456 378.404 96.637 378.346 96.537L366.79 103.255ZM377.835 109.64C382.639 109.64 386.365 107.092 388.595 103.255L377.04 96.537C376.886 96.8022 376.894 96.6751 377.184 96.4971C377.322 96.4125 377.471 96.3494 377.613 96.3113C377.68 96.2934 377.735 96.2837 377.775 96.2786C377.815 96.2736 377.836 96.2736 377.835 96.2736V109.64ZM412.83 108.438L408.878 113.827L412.83 108.438ZM406.993 99.8962L413.413 98.0378L413.406 98.013L413.399 97.9883L406.993 99.8962ZM406.993 85.0911L400.611 83.1074L400.6 83.1452L400.588 83.1832L406.993 85.0911ZM433.116 76.8344L429.196 82.2474L429.227 82.2697L429.258 82.2917L433.116 76.8344ZM438.953 85.0199L445.318 82.983L445.314 82.9705L445.31 82.9581L438.953 85.0199ZM439.095 99.6826L432.69 97.7747L432.676 97.8215L432.663 97.8684L439.095 99.6826ZM433.258 108.438L437.254 113.795L437.261 113.79L437.268 113.784L433.258 108.438ZM427.066 101.533L431.451 106.576V106.576L427.066 101.533ZM429.415 97.6185L435.841 99.4545L435.871 99.3474L435.898 99.2394L429.415 97.6185ZM429.415 87.5823L435.857 85.805L435.818 85.6641L435.773 85.5251L429.415 87.5823ZM426.995 83.8098L431.251 78.6573L431.251 78.6573L426.995 83.8098ZM418.951 83.8098L414.695 78.6573L414.639 78.704L414.583 78.7518L418.951 83.8098ZM416.674 87.5823L423.014 89.6957L423.052 89.5825L423.085 89.4681L416.674 87.5823ZM416.603 97.6185L410.167 99.4205L410.172 99.4375L410.176 99.4545L416.603 97.6185ZM418.951 101.533L414.566 106.576L414.619 106.623L414.673 106.667L418.951 101.533ZM423.08 104.886C420.324 104.886 418.338 104.189 416.782 103.048L408.878 113.827C413.017 116.862 417.864 118.253 423.08 118.253V104.886ZM416.782 103.048C415.203 101.89 414.075 100.323 413.413 98.0378L400.574 101.754C402 106.682 404.763 110.809 408.878 113.827L416.782 103.048ZM413.399 97.9883C412.94 96.4472 412.68 94.6771 412.68 92.636H399.314C399.314 95.8146 399.719 98.8846 400.588 101.804L413.399 97.9883ZM412.68 92.636C412.68 90.3558 412.952 88.4994 413.399 86.999L400.588 83.1832C399.707 86.1432 399.314 89.3168 399.314 92.636H412.68ZM413.376 87.0747C414.055 84.8894 415.173 83.4019 416.734 82.3095L409.069 71.3593C404.935 74.2528 402.115 78.2698 400.611 83.1074L413.376 87.0747ZM416.734 82.3095C418.298 81.2144 420.328 80.5281 423.151 80.5281V67.1616C418.002 67.1616 413.199 68.4683 409.069 71.3593L416.734 82.3095ZM423.151 80.5281C425.846 80.5281 427.745 81.1964 429.196 82.2474L437.036 71.4213C432.983 68.4864 428.238 67.1616 423.151 67.1616V80.5281ZM429.258 82.2917C430.719 83.3247 431.857 84.8041 432.595 87.0817L445.31 82.9581C443.771 78.2128 441.017 74.2351 436.974 71.377L429.258 82.2917ZM432.587 87.0568C433.126 88.7401 433.408 90.5419 433.408 92.4936H446.775C446.775 89.2256 446.298 86.0449 445.318 82.983L432.587 87.0568ZM433.408 92.4936C433.408 94.4747 433.152 96.2227 432.69 97.7747L445.5 101.591C446.366 98.682 446.775 95.6374 446.775 92.4936H433.408ZM432.663 97.8684C431.983 100.279 430.826 101.908 429.248 103.091L437.268 113.784C441.385 110.696 444.119 106.489 445.527 101.497L432.663 97.8684ZM429.263 103.08C427.777 104.188 425.838 104.886 423.08 104.886V118.253C428.293 118.253 433.14 116.863 437.254 113.795L429.263 103.08ZM423.08 109.64C426.113 109.64 429.039 108.674 431.451 106.576L422.68 96.4901C422.708 96.4663 422.753 96.4318 422.814 96.3956C422.876 96.3592 422.941 96.3292 423.003 96.3071C423.135 96.26 423.18 96.2736 423.08 96.2736V109.64ZM431.451 106.576C433.695 104.625 435.081 102.114 435.841 99.4545L422.989 95.7824C422.891 96.1249 422.794 96.3155 422.741 96.4043C422.692 96.4861 422.669 96.5 422.68 96.4901L431.451 106.576ZM435.898 99.2394C436.429 97.1177 436.667 94.9047 436.667 92.636H423.301C423.301 93.9736 423.16 95.0823 422.931 95.9975L435.898 99.2394ZM436.667 92.636C436.667 90.2603 436.446 87.938 435.857 85.805L422.972 89.3596C423.143 89.9788 423.301 91.0257 423.301 92.636H436.667ZM435.773 85.5251C434.938 82.943 433.503 80.5176 431.251 78.6573L422.738 88.9624C422.722 88.9487 422.742 88.9591 422.793 89.0378C422.848 89.1231 422.948 89.3072 423.056 89.6395L435.773 85.5251ZM431.251 78.6573C428.833 76.6597 425.952 75.7742 423.009 75.7742V89.1407C423.145 89.1407 423.135 89.1592 423.032 89.1244C422.984 89.108 422.928 89.0841 422.871 89.0523C422.814 89.0205 422.77 88.9883 422.738 88.9624L431.251 78.6573ZM423.009 75.7742C420.071 75.7742 417.15 76.6294 414.695 78.6573L423.208 88.9624C423.167 88.996 423.115 89.0324 423.055 89.0657C422.995 89.099 422.94 89.1217 422.898 89.1358C422.809 89.1653 422.827 89.1407 423.009 89.1407V75.7742ZM414.583 78.7518C412.373 80.6603 411.019 83.1231 410.262 85.6965L423.085 89.4681C423.184 89.1339 423.276 88.9563 423.32 88.8835C423.36 88.818 423.364 88.8297 423.32 88.8679L414.583 78.7518ZM410.333 85.4689C409.609 87.6434 409.421 90.1925 409.421 92.636H422.788C422.788 91.6979 422.828 90.9787 422.888 90.4482C422.95 89.8966 423.018 89.6822 423.014 89.6957L410.333 85.4689ZM409.421 92.636C409.421 95.0048 409.593 97.3714 410.167 99.4205L423.038 95.8165C422.948 95.4929 422.788 94.5379 422.788 92.636H409.421ZM410.176 99.4545C410.936 102.114 412.322 104.625 414.566 106.576L423.337 96.4901C423.348 96.5 423.326 96.4861 423.276 96.4043C423.223 96.3155 423.126 96.1249 423.029 95.7824L410.176 99.4545ZM414.673 106.667C417.122 108.708 420.051 109.64 423.08 109.64V96.2736C423.004 96.2736 422.967 96.2681 422.962 96.2673C422.958 96.2666 422.978 96.2696 423.016 96.2828C423.055 96.2962 423.099 96.3154 423.142 96.34C423.185 96.3644 423.215 96.3866 423.23 96.3991L414.673 106.667ZM473.822 74.9125L470.115 80.4733L470.461 80.7041L470.833 80.8902L473.822 74.9125ZM474.249 75.9802L480.822 77.191L480.823 77.1834L480.824 77.1758L474.249 75.9802ZM472.754 84.0946L466.182 82.8838L466.122 83.2095L466.094 83.5395L472.754 84.0946ZM471.758 84.5928L474.157 78.355L474.015 78.3006L473.871 78.2525L471.758 84.5928ZM467.701 84.3793L468.256 91.0394L468.451 91.0231L468.646 90.9953L467.701 84.3793ZM463.359 86.3011L467.884 91.2195L467.936 91.1714L467.987 91.1223L463.359 86.3011ZM461.294 110.786L466.02 115.512V115.512L461.294 110.786ZM451.757 110.786L446.41 114.796L446.983 115.56L447.747 116.133L451.757 110.786ZM451.757 74.699L447.031 69.9732L447.031 69.9733L451.757 74.699ZM461.294 74.699L455.948 78.709L456.521 79.4728L457.285 80.0456L461.294 74.699ZM461.722 78.2579L458.733 84.2356L458.733 84.2356L461.722 78.2579ZM461.935 78.1868L456.417 74.4161L456.161 74.7914L455.957 75.1979L461.935 78.1868ZM469.765 80.5993C470.198 80.5993 470.414 80.6426 470.466 80.6555C470.51 80.6662 470.357 80.635 470.115 80.4733L477.529 69.3518C475.059 67.7052 472.254 67.2328 469.765 67.2328V80.5993ZM470.833 80.8902C469.728 80.3377 468.612 79.3126 468.008 77.8039C467.466 76.4486 467.579 75.3035 467.674 74.7847L480.824 77.1758C481.014 76.135 481.103 74.551 480.419 72.8397C479.673 70.9751 478.295 69.6772 476.811 68.9349L470.833 80.8902ZM467.676 74.7695L466.182 82.8838L479.327 85.3053L480.822 77.191L467.676 74.7695ZM466.094 83.5395C466.153 82.8335 466.593 80.1126 469.481 78.6685C471.914 77.4517 473.985 78.2888 474.157 78.355L469.359 90.8306C470.148 91.1341 472.692 92.0068 475.458 90.6239C478.679 89.0137 479.308 85.9251 479.414 84.6496L466.094 83.5395ZM473.871 78.2525C472.325 77.7371 470.753 77.5537 469.266 77.5537V90.9202C469.465 90.9202 469.591 90.9327 469.656 90.942C469.72 90.9511 469.71 90.9551 469.644 90.9331L473.871 78.2525ZM469.266 77.5537C468.419 77.5537 467.534 77.6519 466.755 77.7632L468.646 90.9953C468.894 90.9598 469.074 90.9393 469.195 90.9283C469.325 90.9165 469.338 90.9202 469.266 90.9202V77.5537ZM467.146 77.7191C463.979 77.983 461.073 79.2311 458.73 81.4799L467.987 91.1223C468.018 91.0921 468.036 91.0801 468.039 91.078C468.041 91.0766 468.041 91.0765 468.04 91.077C468.04 91.0775 468.039 91.0779 468.039 91.0778C468.039 91.0778 468.041 91.0767 468.047 91.0749C468.052 91.073 468.062 91.0698 468.078 91.066C468.108 91.0586 468.165 91.047 468.256 91.0394L467.146 77.7191ZM458.834 81.3827C456.063 83.9319 454.896 87.2987 454.896 90.7142H468.262C468.262 90.5046 468.295 90.5425 468.222 90.7222C468.187 90.8093 468.136 90.9066 468.07 91.0029C468.003 91.0989 467.936 91.1712 467.884 91.2195L458.834 81.3827ZM454.896 90.7142V110.146H468.262V90.7142H454.896ZM454.896 110.146C454.896 109.344 455.063 108.531 455.401 107.77C455.732 107.024 456.169 106.461 456.569 106.061L466.02 115.512C467.284 114.248 468.262 112.394 468.262 110.146H454.896ZM456.569 106.061C457.902 104.728 459.53 104.317 460.725 104.317V117.683C462.394 117.683 464.403 117.13 466.02 115.512L456.569 106.061ZM460.725 104.317H452.397V117.683H460.725V104.317ZM452.397 104.317C453.606 104.317 454.799 104.715 455.767 105.44L447.747 116.133C449.093 117.143 450.714 117.683 452.397 117.683V104.317ZM457.103 106.777C457.828 107.744 458.226 108.937 458.226 110.146H444.86C444.86 111.829 445.4 113.45 446.41 114.796L457.103 106.777ZM458.226 110.146V75.2684H444.86V110.146H458.226ZM458.226 75.2684C458.226 76.4631 457.815 78.0919 456.482 79.4248L447.031 69.9733C445.413 71.5908 444.86 73.5993 444.86 75.2684H458.226ZM456.482 79.4248C456.082 79.8247 455.519 80.2614 454.773 80.5927C454.012 80.931 453.199 81.0975 452.397 81.0975V67.7311C450.149 67.7311 448.295 68.7095 447.031 69.9732L456.482 79.4248ZM452.397 81.0975H460.725V67.7311H452.397V81.0975ZM460.725 81.0975C459.93 81.0975 458.994 80.9321 458.057 80.4632C457.119 79.9943 456.425 79.3451 455.948 78.709L466.641 70.689C465.237 68.8164 463.066 67.7311 460.725 67.7311V81.0975ZM457.285 80.0456C456.648 79.5685 455.999 78.8748 455.53 77.937C455.061 76.9991 454.896 76.0636 454.896 75.2684H468.262C468.262 72.9276 467.177 70.757 465.304 69.3524L457.285 80.0456ZM454.896 75.2684V77.9732H468.262V75.2684H454.896ZM454.896 77.9732C454.896 79.6378 455.593 82.666 458.733 84.2356L464.71 72.2803C465.956 72.9033 466.969 73.9164 467.592 75.1623C468.163 76.3042 468.262 77.345 468.262 77.9732H454.896ZM458.733 84.2356C459.702 84.7201 461.649 85.3861 463.96 84.616C466.27 83.8459 467.428 82.1445 467.913 81.1756L455.957 75.1979C456.394 74.324 457.494 72.6818 459.733 71.9355C461.972 71.1891 463.836 71.8433 464.71 72.2803L458.733 84.2356ZM467.453 81.9574C468.232 80.8176 468.834 80.5993 469.765 80.5993V67.2328C464.147 67.2328 459.529 69.8617 456.417 74.4161L467.453 81.9574Z" fill="white" mask="url(#path-3-outside-1_1100_4)"/>
<path d="M147.23 142.048C147.23 142.555 147.027 143.012 146.621 143.418C146.317 143.722 145.911 143.875 145.403 143.875H95.4809C94.9735 143.875 94.7199 144.128 94.7199 144.636V168.227C94.7199 168.734 94.9735 168.988 95.4809 168.988H128.204C128.712 168.988 129.118 169.191 129.422 169.597C129.828 169.901 130.031 170.307 130.031 170.814V185.578C130.031 186.085 129.828 186.542 129.422 186.948C129.118 187.252 128.712 187.405 128.204 187.405H95.4809C94.9735 187.405 94.7199 187.658 94.7199 188.166V212.822C94.7199 213.33 94.9735 213.583 95.4809 213.583H145.403C145.911 213.583 146.317 213.786 146.621 214.192C147.027 214.497 147.23 214.903 147.23 215.41V230.174C147.23 230.681 147.027 231.138 146.621 231.543C146.317 231.848 145.911 232 145.403 232H75.0857C74.5784 232 74.1217 231.848 73.7159 231.543C73.4115 231.138 73.2593 230.681 73.2593 230.174V127.284C73.2593 126.777 73.4115 126.371 73.7159 126.067C74.1217 125.661 74.5784 125.458 75.0857 125.458H145.403C145.911 125.458 146.317 125.661 146.621 126.067C147.027 126.371 147.23 126.777 147.23 127.284V142.048ZM201.881 152.55C209.998 152.55 216.543 155.036 221.515 160.008C226.487 164.98 228.973 171.728 228.973 180.251V230.174C228.973 230.681 228.77 231.138 228.364 231.543C228.06 231.848 227.654 232 227.147 232H209.339C208.832 232 208.375 231.848 207.969 231.543C207.665 231.138 207.512 230.681 207.512 230.174V184.665C207.512 180.606 206.346 177.308 204.012 174.772C201.78 172.235 198.786 170.967 195.032 170.967C191.278 170.967 188.233 172.235 185.9 174.772C183.667 177.308 182.551 180.606 182.551 184.665V230.174C182.551 230.681 182.348 231.138 181.942 231.543C181.638 231.848 181.232 232 180.725 232H162.917C162.41 232 161.953 231.848 161.547 231.543C161.243 231.138 161.091 230.681 161.091 230.174V155.594C161.091 155.087 161.243 154.681 161.547 154.377C161.953 153.971 162.41 153.768 162.917 153.768H180.725C181.232 153.768 181.638 153.971 181.942 154.377C182.348 154.681 182.551 155.087 182.551 155.594V160.921C182.551 161.226 182.653 161.429 182.856 161.53C183.059 161.632 183.211 161.581 183.312 161.378C187.472 155.493 193.662 152.55 201.881 152.55ZM289.543 169.14C289.543 169.648 289.341 170.104 288.935 170.51C288.63 170.814 288.224 170.967 287.717 170.967H273.106C272.598 170.967 272.345 171.22 272.345 171.728V203.995C272.345 207.343 273.004 209.829 274.323 211.453C275.744 213.076 277.976 213.888 281.02 213.888H286.043C286.55 213.888 286.956 214.091 287.26 214.497C287.666 214.801 287.869 215.207 287.869 215.714V230.174C287.869 231.29 287.26 231.949 286.043 232.152C281.781 232.355 278.737 232.457 276.911 232.457C268.489 232.457 262.198 231.087 258.037 228.347C253.877 225.506 251.746 220.23 251.645 212.518V171.728C251.645 171.22 251.391 170.967 250.884 170.967H242.208C241.701 170.967 241.244 170.814 240.839 170.51C240.534 170.104 240.382 169.648 240.382 169.14V155.594C240.382 155.087 240.534 154.681 240.839 154.377C241.244 153.971 241.701 153.768 242.208 153.768H250.884C251.391 153.768 251.645 153.514 251.645 153.007V134.895C251.645 134.387 251.797 133.981 252.102 133.677C252.507 133.271 252.964 133.068 253.471 133.068H270.518C271.025 133.068 271.431 133.271 271.736 133.677C272.142 133.981 272.345 134.387 272.345 134.895V153.007C272.345 153.514 272.598 153.768 273.106 153.768H287.717C288.224 153.768 288.63 153.971 288.935 154.377C289.341 154.681 289.543 155.087 289.543 155.594V169.14ZM370.992 184.817C371.601 188.673 371.804 192.985 371.601 197.754C371.499 198.972 370.84 199.581 369.622 199.581H322.591C321.983 199.581 321.78 199.834 321.983 200.342C322.287 202.371 322.845 204.401 323.657 206.43C326.295 212.112 331.673 214.953 339.79 214.953C346.284 214.852 351.408 212.214 355.163 207.039C355.569 206.43 356.025 206.126 356.533 206.126C356.837 206.126 357.192 206.328 357.598 206.734L368.557 217.541C369.064 218.048 369.318 218.505 369.318 218.911C369.318 219.113 369.115 219.519 368.709 220.128C365.36 224.288 361.048 227.535 355.772 229.869C350.495 232.101 344.711 233.218 338.42 233.218C329.694 233.218 322.287 231.239 316.199 227.282C310.212 223.324 305.9 217.794 303.262 210.692C301.131 205.618 300.065 198.972 300.065 190.753C300.065 185.172 300.826 180.251 302.348 175.989C304.682 168.785 308.741 163.052 314.525 158.79C320.41 154.529 327.36 152.398 335.376 152.398C345.523 152.398 353.641 155.34 359.729 161.226C365.918 167.111 369.673 174.975 370.992 184.817ZM335.529 170.967C329.136 170.967 324.925 173.96 322.896 179.947C322.49 181.266 322.135 182.889 321.83 184.817C321.83 185.324 322.084 185.578 322.591 185.578H348.922C349.531 185.578 349.734 185.324 349.531 184.817C349.024 181.875 348.77 180.454 348.77 180.555C347.857 177.511 346.234 175.178 343.9 173.554C341.667 171.829 338.877 170.967 335.529 170.967ZM386.97 232C386.463 232 386.006 231.848 385.601 231.543C385.296 231.138 385.144 230.681 385.144 230.174V127.284C385.144 126.777 385.296 126.371 385.601 126.067C386.006 125.661 386.463 125.458 386.97 125.458H404.778C405.285 125.458 405.691 125.661 405.996 126.067C406.402 126.371 406.605 126.777 406.605 127.284V230.174C406.605 230.681 406.402 231.138 405.996 231.543C405.691 231.848 405.285 232 404.778 232H386.97ZM434.187 195.471C433.68 195.471 433.223 195.319 432.818 195.015C432.513 194.609 432.361 194.152 432.361 193.645L430.382 127.284C430.382 126.777 430.534 126.371 430.839 126.067C431.245 125.661 431.701 125.458 432.209 125.458H450.016C450.524 125.458 450.93 125.661 451.234 126.067C451.64 126.371 451.843 126.777 451.843 127.284L449.56 193.645C449.56 194.152 449.357 194.609 448.951 195.015C448.647 195.319 448.241 195.471 447.733 195.471H434.187ZM440.123 231.848C436.673 231.848 433.781 230.732 431.448 228.499C429.215 226.166 428.099 223.274 428.099 219.824C428.099 216.272 429.215 213.381 431.448 211.148C433.68 208.916 436.572 207.8 440.123 207.8C443.675 207.8 446.516 208.916 448.647 211.148C450.879 213.381 451.995 216.272 451.995 219.824C451.995 223.274 450.879 226.166 448.647 228.499C446.414 230.732 443.573 231.848 440.123 231.848Z" fill="white"/>
<path d="M502.983 33.2607C502.983 33.2607 501.196 41.8735 503.768 46.3287C505.768 49.7938 514.693 53.542 514.693 53.542C514.693 53.542 505.09 52.3257 501.625 54.3263C497.17 56.8985 494.411 65.2513 494.411 65.2513C494.411 65.2513 496.199 56.6385 493.627 52.1833C491.626 48.7182 482.702 44.97 482.702 44.97C482.702 44.97 491.688 46.5424 495.77 44.1857C499.852 41.8289 502.983 33.2607 502.983 33.2607Z" stroke="#42E8B4" stroke-width="2" stroke-linecap="round" stroke-linejoin="round"/>
<path d="M902.735 33C902.735 33 900.51 43.7164 903.711 49.2597C906.2 53.5712 917.304 58.2349 917.304 58.2349C917.304 58.2349 905.356 56.7215 901.044 59.2108C895.501 62.4112 892.069 72.8041 892.069 72.8041C892.069 72.8041 894.294 62.0877 891.093 56.5444C888.604 52.2329 877.5 47.5692 877.5 47.5692C877.5 47.5692 888.681 49.5257 893.76 46.5933C898.839 43.661 902.735 33 902.735 33Z" stroke="#42E8B4" stroke-width="2" stroke-linecap="round" stroke-linejoin="round"/>
<path d="M58.2388 232C58.2388 232 56.1462 242.081 59.1568 247.296C61.4985 251.351 71.9442 255.739 71.9442 255.739C71.9442 255.739 60.7044 254.315 56.6486 256.657C51.4339 259.667 48.2056 269.444 48.2056 269.444C48.2056 269.444 50.2982 259.363 47.2875 254.148C44.9459 250.092 34.5001 245.705 34.5001 245.705C34.5001 245.705 45.0179 247.546 49.7958 244.787C54.5737 242.029 58.2388 232 58.2388 232Z" stroke="#42E8B4" stroke-width="2" stroke-linecap="round" stroke-linejoin="round"/>
<path fill-rule="evenodd" clip-rule="evenodd" d="M802.894 52.4547C799.084 50.2593 794.404 50.1738 790.51 52.2263L720.958 88.8893C716.369 91.3085 713.701 96.2582 714.279 101.336C718.023 134.246 724.573 157.943 736.287 177.473C747.99 196.985 765.028 212.641 790.286 229.152C794.274 231.759 799.461 231.78 803.464 229.203C829.638 212.352 846.512 196.405 857.107 176.733C867.716 157.037 872.233 133.232 872.959 100.267C873.059 95.7373 870.619 91.4825 866.635 89.1866L802.894 52.4547ZM787.364 46.2593C793.302 43.1292 800.442 43.2565 806.262 46.6103L870.003 83.3423C876.064 86.835 879.859 93.3544 879.703 100.416C878.966 133.85 874.382 158.884 863.046 179.932C851.696 201.004 833.782 217.706 807.115 234.875C800.871 238.895 792.808 238.859 786.595 234.798C760.875 217.985 742.927 201.657 730.503 180.943C718.09 160.248 711.374 135.477 707.576 102.098C706.676 94.182 710.833 86.6011 717.813 82.9222L787.364 46.2593Z" fill="#42E8B4"/>
<path fill-rule="evenodd" clip-rule="evenodd" d="M803.682 66.7011C799.673 64.3938 794.761 64.3016 790.667 66.4565L734.145 96.2131C729.307 98.7603 726.488 103.963 727.122 109.31C730.336 136.439 735.887 156.134 745.673 172.427C755.451 188.706 769.598 201.824 790.413 215.558C794.6 218.32 800.045 218.341 804.246 215.609C825.833 201.572 839.849 188.194 848.708 171.747C857.577 155.28 861.435 135.446 862.15 108.193C862.275 103.42 859.698 98.9402 855.499 96.5239L803.682 66.7011ZM788.153 61.6816C793.884 58.6648 800.761 58.7936 806.374 62.0241L858.191 91.847C864.047 95.2171 867.723 101.512 867.544 108.335C866.82 135.974 862.901 156.776 853.459 174.306C844.007 191.854 829.177 205.834 807.188 220.133C801.183 224.038 793.417 224.004 787.442 220.062C766.25 206.08 751.392 192.428 741.047 175.206C730.712 157.998 725.023 137.459 721.763 109.945C720.857 102.297 724.892 94.9865 731.632 91.4381L788.153 61.6816Z" fill="white"/>
<path d="M781.771 137.531C781.771 137.531 779.967 137.377 779.967 138.768C779.967 146.809 785.997 152.582 795.481 152.582C802.542 152.582 805.532 150.932 809.81 147.737C810.789 147.015 811.872 146.294 812.645 147.17C813.212 147.788 820.685 154.643 820.685 154.643C821.613 155.52 821.355 156.55 820.376 157.375C819.397 158.2 808.212 166.859 795.326 166.859C778.575 166.859 762.442 159.591 762.442 132.222C762.442 110.162 775.019 97.6891 793.471 97.6891C813.315 97.6891 824.499 111.451 824.499 130.006V134.697C824.499 136.604 822.953 137.531 821.665 137.531H781.771ZM805.377 118.718C803.47 114.698 799.501 111.709 793.471 111.709C787.44 111.709 783.523 114.698 781.565 118.718C780.482 121.192 780.07 122.996 779.915 125.986H806.975C806.872 122.996 806.46 121.192 805.377 118.718Z" fill="white"/>
<path d="M894.732 167.359C885.275 166.471 880.027 166.881 870.735 168.751L870.899 200.808C879.85 197.198 885.428 196.269 896.307 196.431C896.307 196.431 889.701 187.607 888.365 182.521C887.028 177.435 894.732 167.359 894.732 167.359Z" fill="#42E8B4"/>
<path d="M894.732 167.359C885.275 166.471 880.027 166.881 870.735 168.751L870.899 200.808C879.85 197.198 885.428 196.269 896.307 196.431C896.307 196.431 889.701 187.607 888.365 182.521C887.028 177.435 894.732 167.359 894.732 167.359Z" fill="black" fill-opacity="0.2"/>
<path d="M693.268 167.359C702.725 166.471 707.973 166.881 717.265 168.751L717.101 200.808C708.15 197.198 702.572 196.269 691.693 196.431C691.693 196.431 698.299 187.607 699.635 182.521C700.972 177.435 693.268 167.359 693.268 167.359Z" fill="#42E8B4"/>
<path d="M693.268 167.359C702.725 166.471 707.973 166.881 717.265 168.751L717.101 200.808C708.15 197.198 702.572 196.269 691.693 196.431C691.693 196.431 698.299 187.607 699.635 182.521C700.972 177.435 693.268 167.359 693.268 167.359Z" fill="black" fill-opacity="0.2"/>
<rect x="708.762" y="166.681" width="168.633" height="33.7267" fill="#42E8B4"/>
<path d="M854.713 180.918C855.231 180.918 855.684 181.023 856.072 181.233C856.202 181.298 856.25 181.419 856.218 181.598L855.805 183.783C855.789 183.977 855.676 184.034 855.465 183.953C855.222 183.872 854.939 183.832 854.615 183.832C854.405 183.832 854.243 183.84 854.13 183.856C853.45 183.888 852.883 184.131 852.43 184.584C851.977 185.021 851.75 185.596 851.75 186.309V193.181C851.75 193.262 851.718 193.334 851.653 193.399C851.604 193.448 851.54 193.472 851.459 193.472H849.225C849.144 193.472 849.071 193.448 849.006 193.399C848.957 193.334 848.933 193.262 848.933 193.181V181.355C848.933 181.274 848.957 181.209 849.006 181.16C849.071 181.096 849.144 181.063 849.225 181.063H851.459C851.54 181.063 851.604 181.096 851.653 181.16C851.718 181.209 851.75 181.274 851.75 181.355V182.447C851.75 182.512 851.758 182.553 851.774 182.569C851.807 182.569 851.839 182.545 851.871 182.496C852.551 181.444 853.498 180.918 854.713 180.918Z" fill="black"/>
<path d="M840.711 193.666C839.432 193.666 838.331 193.342 837.408 192.695C836.502 192.047 835.862 191.149 835.49 189.999C835.215 189.125 835.077 188.202 835.077 187.231C835.077 186.195 835.207 185.272 835.466 184.463C835.838 183.329 836.486 182.447 837.408 181.816C838.331 181.184 839.44 180.869 840.735 180.869C841.965 180.869 843.026 181.184 843.916 181.816C844.823 182.447 845.462 183.321 845.835 184.438C846.126 185.215 846.272 186.138 846.272 187.207C846.272 188.227 846.134 189.149 845.859 189.975C845.487 191.124 844.847 192.031 843.941 192.695C843.034 193.342 841.957 193.666 840.711 193.666ZM840.711 191.238C841.31 191.238 841.82 191.068 842.241 190.728C842.678 190.388 842.993 189.91 843.188 189.295C843.35 188.761 843.431 188.081 843.431 187.255C843.431 186.381 843.35 185.701 843.188 185.215C843.01 184.6 842.702 184.131 842.265 183.807C841.828 183.467 841.294 183.297 840.662 183.297C840.063 183.297 839.545 183.467 839.108 183.807C838.671 184.131 838.355 184.6 838.161 185.215C837.999 185.782 837.918 186.462 837.918 187.255C837.918 188.048 837.999 188.728 838.161 189.295C838.339 189.91 838.647 190.388 839.084 190.728C839.537 191.068 840.079 191.238 840.711 191.238Z" fill="black"/>
<path d="M829.573 176.766C829.573 176.685 829.597 176.62 829.645 176.571C829.71 176.507 829.783 176.474 829.864 176.474H832.098C832.179 176.474 832.244 176.507 832.292 176.571C832.357 176.62 832.389 176.685 832.389 176.766V193.181C832.389 193.262 832.357 193.335 832.292 193.4C832.244 193.448 832.179 193.473 832.098 193.473H829.864C829.783 193.473 829.71 193.448 829.645 193.4C829.597 193.335 829.573 193.262 829.573 193.181V192.453C829.573 192.404 829.556 192.372 829.524 192.356C829.492 192.339 829.459 192.356 829.427 192.404C828.715 193.246 827.784 193.667 826.634 193.667C825.485 193.667 824.514 193.367 823.72 192.768C822.927 192.169 822.352 191.336 821.996 190.267C821.705 189.361 821.559 188.349 821.559 187.232C821.559 186.082 821.697 185.095 821.972 184.269C822.328 183.201 822.903 182.367 823.696 181.768C824.489 181.169 825.485 180.87 826.683 180.87C827.8 180.87 828.715 181.274 829.427 182.084C829.459 182.116 829.492 182.132 829.524 182.132C829.556 182.116 829.573 182.084 829.573 182.035V176.766ZM828.99 190.073C829.362 189.409 829.548 188.47 829.548 187.256C829.548 185.993 829.346 185.03 828.941 184.366C828.504 183.654 827.889 183.298 827.096 183.298C826.27 183.298 825.622 183.638 825.153 184.318C824.667 185.03 824.425 186.018 824.425 187.28C824.425 188.414 824.619 189.344 825.007 190.073C825.461 190.85 826.149 191.239 827.071 191.239C827.897 191.239 828.536 190.85 828.99 190.073Z" fill="black"/>
<path d="M813.925 180.869C814.945 180.869 815.843 181.047 816.62 181.403C817.397 181.759 817.996 182.253 818.417 182.884C818.838 183.499 819.048 184.204 819.048 184.997V193.18C819.048 193.261 819.016 193.334 818.951 193.399C818.903 193.447 818.838 193.472 818.757 193.472H816.523C816.442 193.472 816.369 193.447 816.304 193.399C816.256 193.334 816.232 193.261 816.232 193.18V192.403C816.232 192.355 816.215 192.33 816.183 192.33C816.151 192.314 816.118 192.322 816.086 192.355C815.293 193.229 814.143 193.666 812.638 193.666C811.423 193.666 810.42 193.358 809.627 192.743C808.849 192.128 808.461 191.213 808.461 189.999C808.461 188.736 808.898 187.757 809.772 187.061C810.663 186.349 811.909 185.992 813.512 185.992H816.11C816.191 185.992 816.232 185.952 816.232 185.871V185.288C816.232 184.657 816.045 184.171 815.673 183.831C815.301 183.475 814.742 183.297 813.998 183.297C813.382 183.297 812.88 183.41 812.492 183.637C812.12 183.847 811.885 184.147 811.788 184.536C811.739 184.73 811.626 184.811 811.448 184.778L809.092 184.487C809.011 184.471 808.939 184.446 808.874 184.414C808.825 184.366 808.809 184.309 808.825 184.244C808.955 183.257 809.481 182.447 810.404 181.816C811.343 181.184 812.516 180.869 813.925 180.869ZM813.342 191.432C814.135 191.432 814.815 191.221 815.382 190.801C815.948 190.38 816.232 189.845 816.232 189.198V188.057C816.232 187.976 816.191 187.935 816.11 187.935H814.07C813.212 187.935 812.532 188.097 812.031 188.421C811.545 188.745 811.302 189.206 811.302 189.805C811.302 190.323 811.488 190.728 811.861 191.019C812.249 191.294 812.743 191.432 813.342 191.432Z" fill="black"/>
<path d="M804.601 179.364C804.099 179.364 803.686 179.202 803.363 178.878C803.039 178.554 802.877 178.141 802.877 177.639C802.877 177.138 803.039 176.725 803.363 176.401C803.686 176.077 804.099 175.915 804.601 175.915C805.103 175.915 805.516 176.077 805.84 176.401C806.163 176.725 806.325 177.138 806.325 177.639C806.325 178.141 806.163 178.554 805.84 178.878C805.516 179.202 805.103 179.364 804.601 179.364ZM800.643 198.45C800.449 198.45 800.352 198.353 800.352 198.159V196.362C800.352 196.168 800.457 196.078 800.667 196.095C801.59 196.111 802.246 195.941 802.634 195.585C803.023 195.245 803.217 194.678 803.217 193.885L803.193 181.355C803.193 181.274 803.217 181.209 803.266 181.161C803.33 181.096 803.403 181.063 803.484 181.063H805.718C805.799 181.063 805.864 181.096 805.912 181.161C805.977 181.209 806.01 181.274 806.01 181.355V193.861C806.01 195.042 805.84 195.965 805.5 196.629C805.176 197.293 804.625 197.77 803.848 198.062C803.087 198.353 802.019 198.483 800.643 198.45Z" fill="black"/>
<path d="M795.142 180.869C796.162 180.869 797.061 181.047 797.838 181.403C798.615 181.759 799.214 182.253 799.635 182.884C800.056 183.499 800.266 184.204 800.266 184.997V193.18C800.266 193.261 800.234 193.334 800.169 193.399C800.12 193.447 800.056 193.472 799.975 193.472H797.741C797.66 193.472 797.587 193.447 797.522 193.399C797.474 193.334 797.449 193.261 797.449 193.18V192.403C797.449 192.355 797.433 192.33 797.401 192.33C797.368 192.314 797.336 192.322 797.304 192.355C796.51 193.229 795.361 193.666 793.855 193.666C792.641 193.666 791.638 193.358 790.844 192.743C790.067 192.128 789.679 191.213 789.679 189.999C789.679 188.736 790.116 187.757 790.99 187.061C791.88 186.349 793.127 185.992 794.73 185.992H797.328C797.409 185.992 797.449 185.952 797.449 185.871V185.288C797.449 184.657 797.263 184.171 796.891 183.831C796.518 183.475 795.96 183.297 795.215 183.297C794.6 183.297 794.098 183.41 793.71 183.637C793.337 183.847 793.103 184.147 793.006 184.536C792.957 184.73 792.844 184.811 792.666 184.778L790.31 184.487C790.229 184.471 790.156 184.446 790.092 184.414C790.043 184.366 790.027 184.309 790.043 184.244C790.172 183.257 790.699 182.447 791.621 181.816C792.56 181.184 793.734 180.869 795.142 180.869ZM794.56 191.432C795.353 191.432 796.033 191.221 796.599 190.801C797.166 190.38 797.449 189.845 797.449 189.198V188.057C797.449 187.976 797.409 187.935 797.328 187.935H795.288C794.43 187.935 793.75 188.097 793.248 188.421C792.763 188.745 792.52 189.206 792.52 189.805C792.52 190.323 792.706 190.728 793.078 191.019C793.467 191.294 793.961 191.432 794.56 191.432Z" fill="black"/>
<path d="M787.31 184.269C787.586 185.176 787.723 186.163 787.723 187.232C787.723 188.381 787.569 189.393 787.262 190.267C786.906 191.336 786.331 192.169 785.538 192.768C784.745 193.367 783.773 193.667 782.624 193.667C781.491 193.667 780.56 193.238 779.831 192.38C779.799 192.331 779.766 192.315 779.734 192.331C779.702 192.347 779.686 192.38 779.686 192.428V193.181C779.686 193.262 779.653 193.335 779.588 193.4C779.54 193.448 779.475 193.473 779.394 193.473H777.16C777.079 193.473 777.006 193.448 776.942 193.4C776.893 193.335 776.869 193.262 776.869 193.181V176.766C776.869 176.685 776.893 176.62 776.942 176.571C777.006 176.507 777.079 176.474 777.16 176.474H779.394C779.475 176.474 779.54 176.507 779.588 176.571C779.653 176.62 779.686 176.685 779.686 176.766V182.035C779.686 182.084 779.702 182.116 779.734 182.132C779.766 182.149 779.799 182.14 779.831 182.108C780.527 181.282 781.45 180.87 782.599 180.87C783.797 180.87 784.785 181.169 785.562 181.768C786.355 182.367 786.938 183.201 787.31 184.269ZM784.251 190.073C784.639 189.393 784.834 188.462 784.834 187.28C784.834 186.018 784.591 185.03 784.105 184.318C783.668 183.638 783.02 183.298 782.162 183.298C781.369 183.298 780.762 183.654 780.341 184.366C779.936 185.03 779.734 185.993 779.734 187.256C779.734 188.503 779.92 189.442 780.293 190.073C780.713 190.85 781.345 191.239 782.187 191.239C782.64 191.239 783.045 191.141 783.401 190.947C783.757 190.737 784.04 190.445 784.251 190.073Z" fill="black"/>
<path d="M770.017 180.869C771.264 180.869 772.235 181.249 772.931 182.01C773.644 182.755 774 183.799 774 185.143V193.18C774 193.261 773.967 193.334 773.903 193.399C773.854 193.447 773.789 193.472 773.708 193.472H771.499C771.418 193.472 771.345 193.447 771.28 193.399C771.231 193.334 771.207 193.261 771.207 193.18V185.725C771.207 184.981 771.005 184.39 770.6 183.953C770.212 183.516 769.685 183.297 769.022 183.297C768.358 183.297 767.816 183.516 767.395 183.953C766.974 184.39 766.763 184.973 766.763 185.701V193.18C766.763 193.261 766.731 193.334 766.666 193.399C766.618 193.447 766.553 193.472 766.472 193.472H764.262C764.181 193.472 764.108 193.447 764.044 193.399C763.995 193.334 763.971 193.261 763.971 193.18V185.725C763.971 184.981 763.768 184.39 763.364 183.953C762.959 183.516 762.425 183.297 761.761 183.297C761.146 183.297 760.636 183.475 760.231 183.831C759.843 184.187 759.616 184.673 759.551 185.288V193.18C759.551 193.261 759.519 193.334 759.454 193.399C759.406 193.447 759.341 193.472 759.26 193.472H757.026C756.945 193.472 756.872 193.447 756.807 193.399C756.759 193.334 756.734 193.261 756.734 193.18V181.354C756.734 181.273 756.759 181.209 756.807 181.16C756.872 181.095 756.945 181.063 757.026 181.063H759.26C759.341 181.063 759.406 181.095 759.454 181.16C759.519 181.209 759.551 181.273 759.551 181.354V182.156C759.551 182.204 759.567 182.237 759.6 182.253C759.632 182.269 759.665 182.253 759.697 182.204C760.053 181.751 760.49 181.419 761.008 181.209C761.542 180.982 762.133 180.869 762.781 180.869C763.574 180.869 764.27 181.031 764.869 181.354C765.468 181.678 765.93 182.148 766.253 182.763C766.302 182.828 766.359 182.828 766.423 182.763C766.78 182.115 767.273 181.638 767.905 181.33C768.536 181.023 769.24 180.869 770.017 180.869Z" fill="black"/>
<path d="M754.141 178.611C754.141 178.692 754.109 178.765 754.044 178.83C753.995 178.878 753.931 178.903 753.85 178.903H745.569C745.488 178.903 745.448 178.943 745.448 179.024V183.565C745.448 183.646 745.488 183.686 745.569 183.686H751.13C751.211 183.686 751.276 183.719 751.324 183.784C751.389 183.832 751.421 183.897 751.421 183.978V185.823C751.421 185.904 751.389 185.977 751.324 186.042C751.276 186.091 751.211 186.115 751.13 186.115H745.569C745.488 186.115 745.448 186.155 745.448 186.236V190.923C745.448 191.004 745.488 191.044 745.569 191.044H753.85C753.931 191.044 753.995 191.077 754.044 191.141C754.109 191.19 754.141 191.255 754.141 191.336V193.181C754.141 193.262 754.109 193.335 754.044 193.4C753.995 193.448 753.931 193.473 753.85 193.473H742.922C742.841 193.473 742.768 193.448 742.704 193.4C742.655 193.335 742.631 193.262 742.631 193.181V176.766C742.631 176.685 742.655 176.62 742.704 176.571C742.768 176.507 742.841 176.474 742.922 176.474H753.85C753.931 176.474 753.995 176.507 754.044 176.571C754.109 176.62 754.141 176.685 754.141 176.766V178.611Z" fill="black"/>
<g filter="url(#filter0_f_1100_4)">
<ellipse cx="797.855" cy="250.196" rx="63.3551" ry="5.32893" fill="#101010" fill-opacity="0.2"/>
</g>
</g>
<defs>
<filter id="filter0_f_1100_4" x="728.473" y="238.84" width="138.764" height="22.7119" filterUnits="userSpaceOnUse" color-interpolation-filters="sRGB">
<feFlood flood-opacity="0" result="BackgroundImageFix"/>
<feBlend mode="normal" in="SourceGraphic" in2="BackgroundImageFix" result="shape"/>
<feGaussianBlur stdDeviation="3.01351" result="effect1_foregroundBlur_1100_4"/>
</filter>
<clipPath id="clip0_1100_4">
<rect width="1035" height="300" rx="20" fill="white"/>
</clipPath>
</defs>
</svg>
