<svg width="32" height="32" viewBox="0 0 32 32" fill="none" xmlns="http://www.w3.org/2000/svg">
<path fill-rule="evenodd" clip-rule="evenodd" d="M10.1867 11.9866C9.45334 11.9866 8.85334 11.3866 8.85334 10.6533H8.84001V9.33329H5.33333V28H22.6667V20.56L24 19.2266V28C24 28.7333 23.4 29.3333 22.6667 29.3333H5.33333C4.6 29.3333 4 28.7333 4 28V9.33329C4 8.59996 4.6 7.99996 5.33333 7.99996H8.84001V7.11996C8.84001 6.38663 9.44001 5.78663 10.1733 5.78663H11.3333V3.99996C11.3333 3.26663 11.9333 2.66663 12.6667 2.66663H15.0533C15.7867 2.66663 16.3867 3.26663 16.3867 3.99996V5.78663H17.5467C18.28 5.78663 18.88 6.38663 18.88 7.11996V10.6533C18.88 11.3866 18.28 11.9866 17.5467 11.9866H10.1867ZM10.1867 7.11996V9.33329H10.2V10.6533H17.56V7.11996H15.0667V3.99996H12.68V7.11996H10.1867ZM22.6667 9.33329V14.1466L24 12.8133V9.33329C24 8.59996 23.4 7.99996 22.6667 7.99996H18.88V9.33329H22.6667Z" fill="#002EFF"/>
<path d="M28.9305 12.3745L27.6122 11.0561C27.0928 10.5368 26.2538 10.5368 25.7345 11.0561L23.9767 12.8139L22.645 14.1456L17.3317 19.459L17.0653 19.7253L16.9721 20.0849L16.5327 21.8427L16 24L18.1573 23.4673L19.9151 23.0278L20.2747 22.9346L20.541 22.6683L22.6583 20.5509L23.99 19.2193L28.9438 14.2655C29.4632 13.7461 29.4632 12.9072 28.9438 12.3878L28.9305 12.3745ZM23.9767 17.3283L22.645 18.66L19.5955 21.7095L17.8377 22.1489L18.2772 20.3911L22.645 16.0099L23.9767 14.6783L26.6667 11.9883L27.985 13.3067L23.9767 17.315V17.3283Z" fill="#FF3D00"/>
</svg>
