<svg width="198" height="372" viewBox="0 0 198 372" fill="none" xmlns="http://www.w3.org/2000/svg">
<rect x="5.83301" y="4" width="188" height="364" rx="20" fill="url(#paint0_linear_1100_168)"/>
<rect x="5.83301" y="4" width="188" height="364" rx="20" stroke="black" stroke-width="8"/>
<g filter="url(#filter0_d_1100_168)">
<rect x="22.5" y="108" width="153" height="78" rx="12" fill="#527291" shape-rendering="crispEdges"/>
<path d="M33.108 123.672C33.4387 123.672 33.7107 123.779 33.924 123.992C34.1373 124.205 34.244 124.477 34.244 124.808C34.244 125.139 34.1373 125.411 33.924 125.624C33.7107 125.827 33.4387 125.928 33.108 125.928C32.7773 125.928 32.5053 125.827 32.292 125.624C32.0893 125.411 31.988 125.139 31.988 124.808C31.988 124.477 32.0893 124.205 32.292 123.992C32.5053 123.779 32.7773 123.672 33.108 123.672ZM32.452 127.608C32.452 127.555 32.468 127.512 32.5 127.48C32.5427 127.437 32.5907 127.416 32.644 127.416H33.764C33.8173 127.416 33.86 127.437 33.892 127.48C33.9347 127.512 33.956 127.555 33.956 127.608L34.132 134.648C34.132 134.701 34.1107 134.749 34.068 134.792C34.036 134.824 33.9933 134.84 33.94 134.84H32.468C32.4147 134.84 32.3667 134.824 32.324 134.792C32.292 134.749 32.276 134.701 32.276 134.648L32.452 127.608ZM43.1554 135C43.0487 135 42.974 134.952 42.9314 134.856L40.8194 130.248C40.798 130.205 40.766 130.184 40.7234 130.184H38.8034C38.75 130.184 38.7234 130.211 38.7234 130.264V134.808C38.7234 134.861 38.702 134.909 38.6594 134.952C38.6274 134.984 38.5847 135 38.5314 135H37.0594C37.006 135 36.958 134.984 36.9154 134.952C36.8834 134.909 36.8674 134.861 36.8674 134.808V123.992C36.8674 123.939 36.8834 123.896 36.9154 123.864C36.958 123.821 37.006 123.8 37.0594 123.8H41.4594C42.11 123.8 42.686 123.939 43.1874 124.216C43.6887 124.483 44.078 124.867 44.3554 125.368C44.6327 125.859 44.7714 126.424 44.7714 127.064C44.7714 127.8 44.5794 128.429 44.1954 128.952C43.822 129.464 43.2994 129.821 42.6274 130.024C42.606 130.024 42.59 130.035 42.5794 130.056C42.5687 130.077 42.5687 130.099 42.5794 130.12L44.8354 134.776C44.8567 134.819 44.8674 134.851 44.8674 134.872C44.8674 134.957 44.8087 135 44.6914 135H43.1554ZM38.8034 125.4C38.75 125.4 38.7234 125.427 38.7234 125.48V128.664C38.7234 128.717 38.75 128.744 38.8034 128.744H41.2034C41.7154 128.744 42.126 128.595 42.4354 128.296C42.7554 127.987 42.9154 127.581 42.9154 127.08C42.9154 126.579 42.7554 126.173 42.4354 125.864C42.126 125.555 41.7154 125.4 41.2034 125.4H38.8034ZM53.1461 129.992C53.1888 130.259 53.2101 130.557 53.2101 130.888L53.1941 131.384C53.1941 131.512 53.1301 131.576 53.0021 131.576H47.9941C47.9408 131.576 47.9141 131.603 47.9141 131.656C47.9461 132.008 47.9941 132.248 48.0581 132.376C48.3141 133.144 48.9381 133.533 49.9301 133.544C50.6555 133.544 51.2315 133.245 51.6581 132.648C51.7008 132.584 51.7541 132.552 51.8181 132.552C51.8608 132.552 51.8981 132.568 51.9301 132.6L52.9221 133.416C53.0181 133.491 53.0341 133.576 52.9701 133.672C52.6395 134.141 52.1968 134.504 51.6421 134.76C51.0981 135.016 50.4901 135.144 49.8181 135.144C48.9861 135.144 48.2768 134.957 47.6901 134.584C47.1141 134.211 46.6928 133.688 46.4261 133.016C46.1808 132.44 46.0581 131.64 46.0581 130.616C46.0581 129.997 46.1221 129.496 46.2501 129.112C46.4635 128.365 46.8635 127.779 47.4501 127.352C48.0475 126.915 48.7621 126.696 49.5941 126.696C51.6955 126.696 52.8795 127.795 53.1461 129.992ZM49.5941 128.296C49.1995 128.296 48.8688 128.397 48.6021 128.6C48.3461 128.792 48.1648 129.064 48.0581 129.416C47.9941 129.597 47.9515 129.832 47.9301 130.12C47.9088 130.173 47.9301 130.2 47.9941 130.2H51.2421C51.2955 130.2 51.3221 130.173 51.3221 130.12C51.3008 129.853 51.2688 129.651 51.2261 129.512C51.1301 129.128 50.9381 128.829 50.6501 128.616C50.3728 128.403 50.0208 128.296 49.5941 128.296ZM61.6744 128.936C61.8664 129.48 61.9624 130.147 61.9624 130.936C61.9624 131.693 61.8717 132.344 61.6904 132.888C61.4557 133.592 61.077 134.141 60.5544 134.536C60.0424 134.931 59.3917 135.128 58.6024 135.128C57.845 135.128 57.237 134.856 56.7784 134.312C56.757 134.291 56.7357 134.285 56.7144 134.296C56.693 134.307 56.6824 134.328 56.6824 134.36V137.832C56.6824 137.885 56.661 137.928 56.6184 137.96C56.5864 138.003 56.5437 138.024 56.4904 138.024H55.0184C54.965 138.024 54.917 138.003 54.8744 137.96C54.8424 137.928 54.8264 137.885 54.8264 137.832V127.016C54.8264 126.963 54.8424 126.92 54.8744 126.888C54.917 126.845 54.965 126.824 55.0184 126.824H56.4904C56.5437 126.824 56.5864 126.845 56.6184 126.888C56.661 126.92 56.6824 126.963 56.6824 127.016V127.496C56.6824 127.528 56.693 127.549 56.7144 127.56C56.7357 127.571 56.757 127.56 56.7784 127.528C57.2477 126.973 57.861 126.696 58.6184 126.696C59.3757 126.696 60.0157 126.893 60.5384 127.288C61.061 127.683 61.4397 128.232 61.6744 128.936ZM59.5944 132.856C59.9144 132.365 60.0744 131.715 60.0744 130.904C60.0744 130.125 59.9464 129.512 59.6904 129.064C59.3917 128.541 58.9384 128.28 58.3304 128.28C57.7757 128.28 57.3597 128.536 57.0824 129.048C56.837 129.464 56.7144 130.083 56.7144 130.904C56.7144 131.747 56.8477 132.387 57.1144 132.824C57.3917 133.293 57.7917 133.528 58.3144 133.528C58.8797 133.528 59.3064 133.304 59.5944 132.856ZM67.0115 135.128C66.1688 135.128 65.4435 134.915 64.8355 134.488C64.2382 134.061 63.8168 133.469 63.5715 132.712C63.3902 132.136 63.2995 131.528 63.2995 130.888C63.2995 130.205 63.3848 129.597 63.5555 129.064C63.8008 128.317 64.2275 127.736 64.8355 127.32C65.4435 126.904 66.1742 126.696 67.0275 126.696C67.8382 126.696 68.5368 126.904 69.1235 127.32C69.7208 127.736 70.1422 128.312 70.3875 129.048C70.5795 129.56 70.6755 130.168 70.6755 130.872C70.6755 131.544 70.5848 132.152 70.4035 132.696C70.1582 133.453 69.7368 134.051 69.1395 134.488C68.5422 134.915 67.8328 135.128 67.0115 135.128ZM67.0115 133.528C67.4062 133.528 67.7422 133.416 68.0195 133.192C68.3075 132.968 68.5155 132.653 68.6435 132.248C68.7502 131.896 68.8035 131.448 68.8035 130.904C68.8035 130.328 68.7502 129.88 68.6435 129.56C68.5262 129.155 68.3235 128.845 68.0355 128.632C67.7475 128.408 67.3955 128.296 66.9795 128.296C66.5848 128.296 66.2435 128.408 65.9555 128.632C65.6675 128.845 65.4595 129.155 65.3315 129.56C65.2248 129.933 65.1715 130.381 65.1715 130.904C65.1715 131.427 65.2248 131.875 65.3315 132.248C65.4488 132.653 65.6515 132.968 65.9395 133.192C66.2382 133.416 66.5955 133.528 67.0115 133.528ZM76.0781 126.728C76.4195 126.728 76.7181 126.797 76.9741 126.936C77.0595 126.979 77.0915 127.059 77.0701 127.176L76.7981 128.616C76.7875 128.744 76.7128 128.781 76.5741 128.728C76.4141 128.675 76.2275 128.648 76.0141 128.648C75.8755 128.648 75.7688 128.653 75.6941 128.664C75.2461 128.685 74.8728 128.845 74.5741 129.144C74.2755 129.432 74.1261 129.811 74.1261 130.28V134.808C74.1261 134.861 74.1048 134.909 74.0621 134.952C74.0301 134.984 73.9875 135 73.9341 135H72.4621C72.4088 135 72.3608 134.984 72.3181 134.952C72.2861 134.909 72.2701 134.861 72.2701 134.808V127.016C72.2701 126.963 72.2861 126.92 72.3181 126.888C72.3608 126.845 72.4088 126.824 72.4621 126.824H73.9341C73.9875 126.824 74.0301 126.845 74.0621 126.888C74.1048 126.92 74.1261 126.963 74.1261 127.016V127.736C74.1261 127.779 74.1315 127.805 74.1421 127.816C74.1635 127.816 74.1848 127.8 74.2061 127.768C74.6541 127.075 75.2781 126.728 76.0781 126.728ZM82.6024 128.136C82.6024 128.189 82.581 128.237 82.5384 128.28C82.5064 128.312 82.4637 128.328 82.4104 128.328H80.7784C80.725 128.328 80.6984 128.355 80.6984 128.408V132.264C80.6984 132.669 80.7837 132.963 80.9544 133.144C81.1357 133.325 81.4184 133.416 81.8024 133.416H82.2824C82.3357 133.416 82.3784 133.437 82.4104 133.48C82.453 133.512 82.4744 133.555 82.4744 133.608V134.808C82.4744 134.925 82.4104 134.995 82.2824 135.016L81.4504 135.032C80.6077 135.032 79.9784 134.888 79.5624 134.6C79.1464 134.312 78.933 133.768 78.9224 132.968V128.408C78.9224 128.355 78.8957 128.328 78.8424 128.328H77.9304C77.877 128.328 77.829 128.312 77.7864 128.28C77.7544 128.237 77.7384 128.189 77.7384 128.136V127.016C77.7384 126.963 77.7544 126.92 77.7864 126.888C77.829 126.845 77.877 126.824 77.9304 126.824H78.8424C78.8957 126.824 78.9224 126.797 78.9224 126.744V124.872C78.9224 124.819 78.9384 124.776 78.9704 124.744C79.013 124.701 79.061 124.68 79.1144 124.68H80.5064C80.5597 124.68 80.6024 124.701 80.6344 124.744C80.677 124.776 80.6984 124.819 80.6984 124.872V126.744C80.6984 126.797 80.725 126.824 80.7784 126.824H82.4104C82.4637 126.824 82.5064 126.845 82.5384 126.888C82.581 126.92 82.6024 126.963 82.6024 127.016V128.136ZM87.2108 126.696C87.8828 126.696 88.4748 126.813 88.9868 127.048C89.4988 127.283 89.8934 127.608 90.1708 128.024C90.4481 128.429 90.5868 128.893 90.5868 129.416V134.808C90.5868 134.861 90.5654 134.909 90.5228 134.952C90.4908 134.984 90.4481 135 90.3948 135H88.9228C88.8694 135 88.8214 134.984 88.7788 134.952C88.7468 134.909 88.7308 134.861 88.7308 134.808V134.296C88.7308 134.264 88.7201 134.248 88.6988 134.248C88.6774 134.237 88.6561 134.243 88.6348 134.264C88.1121 134.84 87.3548 135.128 86.3628 135.128C85.5628 135.128 84.9014 134.925 84.3788 134.52C83.8668 134.115 83.6108 133.512 83.6108 132.712C83.6108 131.88 83.8988 131.235 84.4748 130.776C85.0614 130.307 85.8828 130.072 86.9388 130.072H88.6508C88.7041 130.072 88.7308 130.045 88.7308 129.992V129.608C88.7308 129.192 88.6081 128.872 88.3628 128.648C88.1174 128.413 87.7494 128.296 87.2588 128.296C86.8534 128.296 86.5228 128.371 86.2668 128.52C86.0214 128.659 85.8668 128.856 85.8028 129.112C85.7708 129.24 85.6961 129.293 85.5788 129.272L84.0268 129.08C83.9734 129.069 83.9254 129.053 83.8828 129.032C83.8508 129 83.8401 128.963 83.8508 128.92C83.9361 128.269 84.2828 127.736 84.8908 127.32C85.5094 126.904 86.2828 126.696 87.2108 126.696ZM86.8268 133.656C87.3494 133.656 87.7974 133.517 88.1708 133.24C88.5441 132.963 88.7308 132.611 88.7308 132.184V131.432C88.7308 131.379 88.7041 131.352 88.6508 131.352H87.3068C86.7414 131.352 86.2934 131.459 85.9628 131.672C85.6428 131.885 85.4828 132.189 85.4828 132.584C85.4828 132.925 85.6054 133.192 85.8508 133.384C86.1068 133.565 86.4321 133.656 86.8268 133.656ZM99.2533 135.128C98.4533 135.128 97.7493 134.973 97.1413 134.664C96.5333 134.344 96.0639 133.901 95.7333 133.336C95.4026 132.771 95.2373 132.115 95.2373 131.368V127.416C95.2373 126.669 95.4026 126.013 95.7333 125.448C96.0639 124.883 96.5333 124.445 97.1413 124.136C97.7493 123.827 98.4533 123.672 99.2533 123.672C100.043 123.672 100.741 123.821 101.349 124.12C101.957 124.419 102.427 124.84 102.757 125.384C103.088 125.928 103.253 126.557 103.253 127.272C103.253 127.325 103.232 127.373 103.189 127.416C103.157 127.448 103.115 127.464 103.061 127.464L101.589 127.544C101.461 127.544 101.397 127.485 101.397 127.368C101.397 126.739 101.2 126.232 100.805 125.848C100.421 125.464 99.9039 125.272 99.2533 125.272C98.6026 125.272 98.0799 125.464 97.6853 125.848C97.2906 126.232 97.0933 126.739 97.0933 127.368V131.448C97.0933 132.067 97.2906 132.568 97.6853 132.952C98.0799 133.336 98.6026 133.528 99.2533 133.528C99.9039 133.528 100.421 133.341 100.805 132.968C101.2 132.584 101.397 132.077 101.397 131.448C101.397 131.331 101.461 131.272 101.589 131.272L103.061 131.336C103.115 131.336 103.157 131.352 103.189 131.384C103.232 131.416 103.253 131.453 103.253 131.496C103.253 132.221 103.088 132.861 102.757 133.416C102.427 133.96 101.957 134.381 101.349 134.68C100.741 134.979 100.043 135.128 99.2533 135.128ZM107.965 126.696C108.637 126.696 109.229 126.813 109.741 127.048C110.253 127.283 110.648 127.608 110.925 128.024C111.202 128.429 111.341 128.893 111.341 129.416V134.808C111.341 134.861 111.32 134.909 111.277 134.952C111.245 134.984 111.202 135 111.149 135H109.677C109.624 135 109.576 134.984 109.533 134.952C109.501 134.909 109.485 134.861 109.485 134.808V134.296C109.485 134.264 109.474 134.248 109.453 134.248C109.432 134.237 109.41 134.243 109.389 134.264C108.866 134.84 108.109 135.128 107.117 135.128C106.317 135.128 105.656 134.925 105.133 134.52C104.621 134.115 104.365 133.512 104.365 132.712C104.365 131.88 104.653 131.235 105.229 130.776C105.816 130.307 106.637 130.072 107.693 130.072H109.405C109.458 130.072 109.485 130.045 109.485 129.992V129.608C109.485 129.192 109.362 128.872 109.117 128.648C108.872 128.413 108.504 128.296 108.013 128.296C107.608 128.296 107.277 128.371 107.021 128.52C106.776 128.659 106.621 128.856 106.557 129.112C106.525 129.24 106.45 129.293 106.333 129.272L104.781 129.08C104.728 129.069 104.68 129.053 104.637 129.032C104.605 129 104.594 128.963 104.605 128.92C104.69 128.269 105.037 127.736 105.645 127.32C106.264 126.904 107.037 126.696 107.965 126.696ZM107.581 133.656C108.104 133.656 108.552 133.517 108.925 133.24C109.298 132.963 109.485 132.611 109.485 132.184V131.432C109.485 131.379 109.458 131.352 109.405 131.352H108.061C107.496 131.352 107.048 131.459 106.717 131.672C106.397 131.885 106.237 132.189 106.237 132.584C106.237 132.925 106.36 133.192 106.605 133.384C106.861 133.565 107.186 133.656 107.581 133.656ZM116.084 135.096C115.412 135.096 114.82 135 114.308 134.808C113.807 134.605 113.418 134.333 113.14 133.992C112.863 133.64 112.724 133.251 112.724 132.824V132.68C112.724 132.627 112.74 132.584 112.772 132.552C112.815 132.509 112.863 132.488 112.916 132.488H114.324C114.378 132.488 114.42 132.509 114.452 132.552C114.495 132.584 114.516 132.627 114.516 132.68V132.712C114.516 132.979 114.66 133.213 114.948 133.416C115.247 133.608 115.62 133.704 116.068 133.704C116.495 133.704 116.842 133.619 117.108 133.448C117.375 133.267 117.508 133.043 117.508 132.776C117.508 132.531 117.396 132.349 117.172 132.232C116.959 132.104 116.607 131.971 116.116 131.832L115.508 131.64C114.964 131.48 114.506 131.309 114.132 131.128C113.759 130.947 113.444 130.701 113.188 130.392C112.932 130.072 112.804 129.667 112.804 129.176C112.804 128.429 113.098 127.837 113.684 127.4C114.271 126.952 115.044 126.728 116.004 126.728C116.655 126.728 117.226 126.835 117.716 127.048C118.207 127.251 118.586 127.539 118.852 127.912C119.119 128.275 119.252 128.691 119.252 129.16C119.252 129.213 119.231 129.261 119.188 129.304C119.156 129.336 119.114 129.352 119.06 129.352H117.7C117.647 129.352 117.599 129.336 117.556 129.304C117.524 129.261 117.508 129.213 117.508 129.16C117.508 128.883 117.37 128.653 117.092 128.472C116.826 128.28 116.458 128.184 115.988 128.184C115.572 128.184 115.231 128.264 114.964 128.424C114.708 128.573 114.58 128.787 114.58 129.064C114.58 129.32 114.703 129.517 114.948 129.656C115.204 129.784 115.626 129.928 116.212 130.088L116.564 130.184C117.13 130.355 117.604 130.531 117.988 130.712C118.372 130.883 118.698 131.128 118.964 131.448C119.231 131.757 119.364 132.163 119.364 132.664C119.364 133.421 119.066 134.019 118.468 134.456C117.871 134.883 117.076 135.096 116.084 135.096ZM124.247 135.128C123.404 135.128 122.679 134.915 122.071 134.488C121.474 134.061 121.052 133.469 120.807 132.712C120.626 132.136 120.535 131.528 120.535 130.888C120.535 130.205 120.62 129.597 120.791 129.064C121.036 128.317 121.463 127.736 122.071 127.32C122.679 126.904 123.41 126.696 124.263 126.696C125.074 126.696 125.772 126.904 126.359 127.32C126.956 127.736 127.378 128.312 127.623 129.048C127.815 129.56 127.911 130.168 127.911 130.872C127.911 131.544 127.82 132.152 127.639 132.696C127.394 133.453 126.972 134.051 126.375 134.488C125.778 134.915 125.068 135.128 124.247 135.128ZM124.247 133.528C124.642 133.528 124.978 133.416 125.255 133.192C125.543 132.968 125.751 132.653 125.879 132.248C125.986 131.896 126.039 131.448 126.039 130.904C126.039 130.328 125.986 129.88 125.879 129.56C125.762 129.155 125.559 128.845 125.271 128.632C124.983 128.408 124.631 128.296 124.215 128.296C123.82 128.296 123.479 128.408 123.191 128.632C122.903 128.845 122.695 129.155 122.567 129.56C122.46 129.933 122.407 130.381 122.407 130.904C122.407 131.427 122.46 131.875 122.567 132.248C122.684 132.653 122.887 132.968 123.175 133.192C123.474 133.416 123.831 133.528 124.247 133.528ZM132.546 135.096C131.874 135.096 131.282 135 130.77 134.808C130.268 134.605 129.879 134.333 129.602 133.992C129.324 133.64 129.186 133.251 129.186 132.824V132.68C129.186 132.627 129.202 132.584 129.234 132.552C129.276 132.509 129.324 132.488 129.378 132.488H130.786C130.839 132.488 130.882 132.509 130.914 132.552C130.956 132.584 130.978 132.627 130.978 132.68V132.712C130.978 132.979 131.122 133.213 131.41 133.416C131.708 133.608 132.082 133.704 132.53 133.704C132.956 133.704 133.303 133.619 133.57 133.448C133.836 133.267 133.97 133.043 133.97 132.776C133.97 132.531 133.858 132.349 133.634 132.232C133.42 132.104 133.068 131.971 132.578 131.832L131.97 131.64C131.426 131.48 130.967 131.309 130.594 131.128C130.22 130.947 129.906 130.701 129.65 130.392C129.394 130.072 129.266 129.667 129.266 129.176C129.266 128.429 129.559 127.837 130.146 127.4C130.732 126.952 131.506 126.728 132.466 126.728C133.116 126.728 133.687 126.835 134.178 127.048C134.668 127.251 135.047 127.539 135.314 127.912C135.58 128.275 135.714 128.691 135.714 129.16C135.714 129.213 135.692 129.261 135.65 129.304C135.618 129.336 135.575 129.352 135.522 129.352H134.162C134.108 129.352 134.06 129.336 134.018 129.304C133.986 129.261 133.97 129.213 133.97 129.16C133.97 128.883 133.831 128.653 133.554 128.472C133.287 128.28 132.919 128.184 132.45 128.184C132.034 128.184 131.692 128.264 131.426 128.424C131.17 128.573 131.042 128.787 131.042 129.064C131.042 129.32 131.164 129.517 131.41 129.656C131.666 129.784 132.087 129.928 132.674 130.088L133.026 130.184C133.591 130.355 134.066 130.531 134.45 130.712C134.834 130.883 135.159 131.128 135.426 131.448C135.692 131.757 135.826 132.163 135.826 132.664C135.826 133.421 135.527 134.019 134.93 134.456C134.332 134.883 133.538 135.096 132.546 135.096ZM145.351 123.992C145.351 123.939 145.367 123.896 145.399 123.864C145.442 123.821 145.49 123.8 145.543 123.8H147.015C147.069 123.8 147.111 123.821 147.143 123.864C147.186 123.896 147.207 123.939 147.207 123.992V134.808C147.207 134.861 147.186 134.909 147.143 134.952C147.111 134.984 147.069 135 147.015 135H145.543C145.49 135 145.442 134.984 145.399 134.952C145.367 134.909 145.351 134.861 145.351 134.808V134.328C145.351 134.296 145.341 134.275 145.319 134.264C145.298 134.253 145.277 134.264 145.255 134.296C144.786 134.851 144.173 135.128 143.415 135.128C142.658 135.128 142.018 134.931 141.495 134.536C140.973 134.141 140.594 133.592 140.359 132.888C140.167 132.291 140.071 131.624 140.071 130.888C140.071 130.131 140.162 129.48 140.343 128.936C140.578 128.232 140.957 127.683 141.479 127.288C142.002 126.893 142.658 126.696 143.447 126.696C144.183 126.696 144.786 126.963 145.255 127.496C145.277 127.517 145.298 127.528 145.319 127.528C145.341 127.517 145.351 127.496 145.351 127.464V123.992ZM144.967 132.76C145.213 132.323 145.335 131.704 145.335 130.904C145.335 130.072 145.202 129.437 144.935 129C144.647 128.531 144.242 128.296 143.719 128.296C143.175 128.296 142.749 128.52 142.439 128.968C142.119 129.437 141.959 130.088 141.959 130.92C141.959 131.667 142.087 132.28 142.343 132.76C142.642 133.272 143.095 133.528 143.703 133.528C144.247 133.528 144.669 133.272 144.967 132.76ZM155.953 129.992C155.996 130.259 156.017 130.557 156.017 130.888L156.001 131.384C156.001 131.512 155.937 131.576 155.809 131.576H150.801C150.748 131.576 150.721 131.603 150.721 131.656C150.753 132.008 150.801 132.248 150.865 132.376C151.121 133.144 151.745 133.533 152.737 133.544C153.462 133.544 154.038 133.245 154.465 132.648C154.508 132.584 154.561 132.552 154.625 132.552C154.668 132.552 154.705 132.568 154.737 132.6L155.729 133.416C155.825 133.491 155.841 133.576 155.777 133.672C155.446 134.141 155.004 134.504 154.449 134.76C153.905 135.016 153.297 135.144 152.625 135.144C151.793 135.144 151.084 134.957 150.497 134.584C149.921 134.211 149.5 133.688 149.233 133.016C148.988 132.44 148.865 131.64 148.865 130.616C148.865 129.997 148.929 129.496 149.057 129.112C149.27 128.365 149.67 127.779 150.257 127.352C150.854 126.915 151.569 126.696 152.401 126.696C154.502 126.696 155.686 127.795 155.953 129.992ZM152.401 128.296C152.006 128.296 151.676 128.397 151.409 128.6C151.153 128.792 150.972 129.064 150.865 129.416C150.801 129.597 150.758 129.832 150.737 130.12C150.716 130.173 150.737 130.2 150.801 130.2H154.049C154.102 130.2 154.129 130.173 154.129 130.12C154.108 129.853 154.076 129.651 154.033 129.512C153.937 129.128 153.745 128.829 153.457 128.616C153.18 128.403 152.828 128.296 152.401 128.296ZM35.412 153.128C34.612 153.128 33.908 152.973 33.3 152.664C32.692 152.344 32.2227 151.901 31.892 151.336C31.5613 150.771 31.396 150.115 31.396 149.368V145.416C31.396 144.669 31.5613 144.013 31.892 143.448C32.2227 142.883 32.692 142.445 33.3 142.136C33.908 141.827 34.612 141.672 35.412 141.672C36.2013 141.672 36.9 141.821 37.508 142.12C38.116 142.419 38.5853 142.84 38.916 143.384C39.2467 143.928 39.412 144.557 39.412 145.272C39.412 145.325 39.3907 145.373 39.348 145.416C39.316 145.448 39.2733 145.464 39.22 145.464L37.748 145.544C37.62 145.544 37.556 145.485 37.556 145.368C37.556 144.739 37.3587 144.232 36.964 143.848C36.58 143.464 36.0627 143.272 35.412 143.272C34.7613 143.272 34.2387 143.464 33.844 143.848C33.4493 144.232 33.252 144.739 33.252 145.368V149.448C33.252 150.067 33.4493 150.568 33.844 150.952C34.2387 151.336 34.7613 151.528 35.412 151.528C36.0627 151.528 36.58 151.341 36.964 150.968C37.3587 150.584 37.556 150.077 37.556 149.448C37.556 149.331 37.62 149.272 37.748 149.272L39.22 149.336C39.2733 149.336 39.316 149.352 39.348 149.384C39.3907 149.416 39.412 149.453 39.412 149.496C39.412 150.221 39.2467 150.861 38.916 151.416C38.5853 151.96 38.116 152.381 37.508 152.68C36.9 152.979 36.2013 153.128 35.412 153.128ZM44.5228 153.128C43.6801 153.128 42.9548 152.915 42.3468 152.488C41.7494 152.061 41.3281 151.469 41.0828 150.712C40.9014 150.136 40.8108 149.528 40.8108 148.888C40.8108 148.205 40.8961 147.597 41.0668 147.064C41.3121 146.317 41.7388 145.736 42.3468 145.32C42.9548 144.904 43.6854 144.696 44.5388 144.696C45.3494 144.696 46.0481 144.904 46.6348 145.32C47.2321 145.736 47.6534 146.312 47.8988 147.048C48.0908 147.56 48.1868 148.168 48.1868 148.872C48.1868 149.544 48.0961 150.152 47.9148 150.696C47.6694 151.453 47.2481 152.051 46.6508 152.488C46.0534 152.915 45.3441 153.128 44.5228 153.128ZM44.5228 151.528C44.9174 151.528 45.2534 151.416 45.5308 151.192C45.8188 150.968 46.0268 150.653 46.1548 150.248C46.2614 149.896 46.3148 149.448 46.3148 148.904C46.3148 148.328 46.2614 147.88 46.1548 147.56C46.0374 147.155 45.8348 146.845 45.5468 146.632C45.2588 146.408 44.9068 146.296 44.4908 146.296C44.0961 146.296 43.7548 146.408 43.4668 146.632C43.1788 146.845 42.9708 147.155 42.8428 147.56C42.7361 147.933 42.6828 148.381 42.6828 148.904C42.6828 149.427 42.7361 149.875 42.8428 150.248C42.9601 150.653 43.1628 150.968 43.4508 151.192C43.7494 151.416 44.1068 151.528 44.5228 151.528ZM56.6774 146.936C56.8587 147.533 56.9494 148.184 56.9494 148.888C56.9494 149.645 56.848 150.312 56.6454 150.888C56.4107 151.592 56.032 152.141 55.5094 152.536C54.9867 152.931 54.3467 153.128 53.5894 153.128C52.8427 153.128 52.2294 152.845 51.7494 152.28C51.728 152.248 51.7067 152.237 51.6854 152.248C51.664 152.259 51.6534 152.28 51.6534 152.312V152.808C51.6534 152.861 51.632 152.909 51.5894 152.952C51.5574 152.984 51.5147 153 51.4614 153H49.9894C49.936 153 49.888 152.984 49.8454 152.952C49.8134 152.909 49.7974 152.861 49.7974 152.808V141.992C49.7974 141.939 49.8134 141.896 49.8454 141.864C49.888 141.821 49.936 141.8 49.9894 141.8H51.4614C51.5147 141.8 51.5574 141.821 51.5894 141.864C51.632 141.896 51.6534 141.939 51.6534 141.992V145.464C51.6534 145.496 51.664 145.517 51.6854 145.528C51.7067 145.539 51.728 145.533 51.7494 145.512C52.208 144.968 52.816 144.696 53.5734 144.696C54.3627 144.696 55.0134 144.893 55.5254 145.288C56.048 145.683 56.432 146.232 56.6774 146.936ZM54.6614 150.76C54.9174 150.312 55.0454 149.699 55.0454 148.92C55.0454 148.088 54.8854 147.437 54.5654 146.968C54.2774 146.52 53.8507 146.296 53.2854 146.296C52.7627 146.296 52.3627 146.531 52.0854 147C51.8187 147.437 51.6854 148.072 51.6854 148.904C51.6854 149.725 51.808 150.344 52.0534 150.76C52.3307 151.272 52.7467 151.528 53.3014 151.528C53.6 151.528 53.8667 151.464 54.1014 151.336C54.336 151.197 54.5227 151.005 54.6614 150.76ZM65.3924 147.992C65.435 148.259 65.4564 148.557 65.4564 148.888L65.4404 149.384C65.4404 149.512 65.3764 149.576 65.2484 149.576H60.2404C60.187 149.576 60.1604 149.603 60.1604 149.656C60.1924 150.008 60.2404 150.248 60.3044 150.376C60.5604 151.144 61.1844 151.533 62.1764 151.544C62.9017 151.544 63.4777 151.245 63.9044 150.648C63.947 150.584 64.0004 150.552 64.0644 150.552C64.107 150.552 64.1444 150.568 64.1764 150.6L65.1684 151.416C65.2644 151.491 65.2804 151.576 65.2164 151.672C64.8857 152.141 64.443 152.504 63.8884 152.76C63.3444 153.016 62.7364 153.144 62.0644 153.144C61.2324 153.144 60.523 152.957 59.9364 152.584C59.3604 152.211 58.939 151.688 58.6724 151.016C58.427 150.44 58.3044 149.64 58.3044 148.616C58.3044 147.997 58.3684 147.496 58.4964 147.112C58.7097 146.365 59.1097 145.779 59.6964 145.352C60.2937 144.915 61.0084 144.696 61.8404 144.696C63.9417 144.696 65.1257 145.795 65.3924 147.992ZM61.8404 146.296C61.4457 146.296 61.115 146.397 60.8484 146.6C60.5924 146.792 60.411 147.064 60.3044 147.416C60.2404 147.597 60.1977 147.832 60.1764 148.12C60.155 148.173 60.1764 148.2 60.2404 148.2H63.4884C63.5417 148.2 63.5684 148.173 63.5684 148.12C63.547 147.853 63.515 147.651 63.4724 147.512C63.3764 147.128 63.1844 146.829 62.8964 146.616C62.619 146.403 62.267 146.296 61.8404 146.296ZM70.8006 144.728C71.142 144.728 71.4406 144.797 71.6966 144.936C71.782 144.979 71.814 145.059 71.7926 145.176L71.5206 146.616C71.51 146.744 71.4353 146.781 71.2966 146.728C71.1366 146.675 70.95 146.648 70.7366 146.648C70.598 146.648 70.4913 146.653 70.4166 146.664C69.9686 146.685 69.5953 146.845 69.2966 147.144C68.998 147.432 68.8486 147.811 68.8486 148.28V152.808C68.8486 152.861 68.8273 152.909 68.7846 152.952C68.7526 152.984 68.71 153 68.6566 153H67.1846C67.1313 153 67.0833 152.984 67.0406 152.952C67.0086 152.909 66.9926 152.861 66.9926 152.808V145.016C66.9926 144.963 67.0086 144.92 67.0406 144.888C67.0833 144.845 67.1313 144.824 67.1846 144.824H68.6566C68.71 144.824 68.7526 144.845 68.7846 144.888C68.8273 144.92 68.8486 144.963 68.8486 145.016V145.736C68.8486 145.779 68.854 145.805 68.8646 145.816C68.886 145.816 68.9073 145.8 68.9286 145.768C69.3766 145.075 70.0006 144.728 70.8006 144.728ZM77.3249 146.136C77.3249 146.189 77.3035 146.237 77.2609 146.28C77.2289 146.312 77.1862 146.328 77.1329 146.328H75.5009C75.4475 146.328 75.4209 146.355 75.4209 146.408V150.264C75.4209 150.669 75.5062 150.963 75.6769 151.144C75.8582 151.325 76.1409 151.416 76.5249 151.416H77.0049C77.0582 151.416 77.1009 151.437 77.1329 151.48C77.1755 151.512 77.1969 151.555 77.1969 151.608V152.808C77.1969 152.925 77.1329 152.995 77.0049 153.016L76.1729 153.032C75.3302 153.032 74.7009 152.888 74.2849 152.6C73.8689 152.312 73.6555 151.768 73.6449 150.968V146.408C73.6449 146.355 73.6182 146.328 73.5649 146.328H72.6529C72.5995 146.328 72.5515 146.312 72.5089 146.28C72.4769 146.237 72.4609 146.189 72.4609 146.136V145.016C72.4609 144.963 72.4769 144.92 72.5089 144.888C72.5515 144.845 72.5995 144.824 72.6529 144.824H73.5649C73.6182 144.824 73.6449 144.797 73.6449 144.744V142.872C73.6449 142.819 73.6609 142.776 73.6929 142.744C73.7355 142.701 73.7835 142.68 73.8369 142.68H75.2289C75.2822 142.68 75.3249 142.701 75.3569 142.744C75.3995 142.776 75.4209 142.819 75.4209 142.872V144.744C75.4209 144.797 75.4475 144.824 75.5009 144.824H77.1329C77.1862 144.824 77.2289 144.845 77.2609 144.888C77.3035 144.92 77.3249 144.963 77.3249 145.016V146.136ZM83.6453 145.016C83.6453 144.963 83.6613 144.92 83.6933 144.888C83.7359 144.845 83.7839 144.824 83.8373 144.824H85.2933C85.3466 144.824 85.3893 144.845 85.4213 144.888C85.4639 144.92 85.4853 144.963 85.4853 145.016V152.808C85.4853 152.861 85.4639 152.909 85.4213 152.952C85.3893 152.984 85.3466 153 85.2933 153H83.8373C83.7839 153 83.7359 152.984 83.6933 152.952C83.6613 152.909 83.6453 152.861 83.6453 152.808V152.296C83.6453 152.264 83.6346 152.243 83.6133 152.232C83.5919 152.221 83.5706 152.232 83.5493 152.264C83.1119 152.829 82.4559 153.112 81.5813 153.112C80.7706 153.112 80.0879 152.877 79.5333 152.408C78.9893 151.939 78.7173 151.272 78.7173 150.408V145.016C78.7173 144.963 78.7333 144.92 78.7653 144.888C78.8079 144.845 78.8559 144.824 78.9093 144.824H80.3813C80.4346 144.824 80.4773 144.845 80.5093 144.888C80.5519 144.92 80.5733 144.963 80.5733 145.016V149.88C80.5733 150.381 80.7013 150.781 80.9573 151.08C81.2239 151.379 81.5919 151.528 82.0613 151.528C82.5413 151.528 82.9253 151.379 83.2133 151.08C83.5013 150.781 83.6453 150.381 83.6453 149.88V145.016ZM91.1175 144.728C91.4588 144.728 91.7575 144.797 92.0135 144.936C92.0988 144.979 92.1308 145.059 92.1095 145.176L91.8375 146.616C91.8268 146.744 91.7522 146.781 91.6135 146.728C91.4535 146.675 91.2668 146.648 91.0535 146.648C90.9148 146.648 90.8082 146.653 90.7335 146.664C90.2855 146.685 89.9122 146.845 89.6135 147.144C89.3148 147.432 89.1655 147.811 89.1655 148.28V152.808C89.1655 152.861 89.1442 152.909 89.1015 152.952C89.0695 152.984 89.0268 153 88.9735 153H87.5015C87.4482 153 87.4002 152.984 87.3575 152.952C87.3255 152.909 87.3095 152.861 87.3095 152.808V145.016C87.3095 144.963 87.3255 144.92 87.3575 144.888C87.4002 144.845 87.4482 144.824 87.5015 144.824H88.9735C89.0268 144.824 89.0695 144.845 89.1015 144.888C89.1442 144.92 89.1655 144.963 89.1655 145.016V145.736C89.1655 145.779 89.1708 145.805 89.1815 145.816C89.2028 145.816 89.2242 145.8 89.2455 145.768C89.6935 145.075 90.3175 144.728 91.1175 144.728ZM96.207 144.696C96.879 144.696 97.471 144.813 97.983 145.048C98.495 145.283 98.8897 145.608 99.167 146.024C99.4443 146.429 99.583 146.893 99.583 147.416V152.808C99.583 152.861 99.5617 152.909 99.519 152.952C99.487 152.984 99.4443 153 99.391 153H97.919C97.8657 153 97.8177 152.984 97.775 152.952C97.743 152.909 97.727 152.861 97.727 152.808V152.296C97.727 152.264 97.7163 152.248 97.695 152.248C97.6737 152.237 97.6523 152.243 97.631 152.264C97.1083 152.84 96.351 153.128 95.359 153.128C94.559 153.128 93.8977 152.925 93.375 152.52C92.863 152.115 92.607 151.512 92.607 150.712C92.607 149.88 92.895 149.235 93.471 148.776C94.0577 148.307 94.879 148.072 95.935 148.072H97.647C97.7003 148.072 97.727 148.045 97.727 147.992V147.608C97.727 147.192 97.6043 146.872 97.359 146.648C97.1137 146.413 96.7457 146.296 96.255 146.296C95.8497 146.296 95.519 146.371 95.263 146.52C95.0177 146.659 94.863 146.856 94.799 147.112C94.767 147.24 94.6923 147.293 94.575 147.272L93.023 147.08C92.9697 147.069 92.9217 147.053 92.879 147.032C92.847 147 92.8363 146.963 92.847 146.92C92.9323 146.269 93.279 145.736 93.887 145.32C94.5057 144.904 95.279 144.696 96.207 144.696ZM95.823 151.656C96.3457 151.656 96.7937 151.517 97.167 151.24C97.5403 150.963 97.727 150.611 97.727 150.184V149.432C97.727 149.379 97.7003 149.352 97.647 149.352H96.303C95.7377 149.352 95.2897 149.459 94.959 149.672C94.639 149.885 94.479 150.189 94.479 150.584C94.479 150.925 94.6017 151.192 94.847 151.384C95.103 151.565 95.4283 151.656 95.823 151.656ZM109.402 141.992C109.402 141.939 109.418 141.896 109.45 141.864C109.492 141.821 109.54 141.8 109.594 141.8H111.066C111.119 141.8 111.162 141.821 111.194 141.864C111.236 141.896 111.258 141.939 111.258 141.992V152.808C111.258 152.861 111.236 152.909 111.194 152.952C111.162 152.984 111.119 153 111.066 153H109.594C109.54 153 109.492 152.984 109.45 152.952C109.418 152.909 109.402 152.861 109.402 152.808V152.328C109.402 152.296 109.391 152.275 109.37 152.264C109.348 152.253 109.327 152.264 109.306 152.296C108.836 152.851 108.223 153.128 107.466 153.128C106.708 153.128 106.068 152.931 105.546 152.536C105.023 152.141 104.644 151.592 104.41 150.888C104.218 150.291 104.122 149.624 104.122 148.888C104.122 148.131 104.212 147.48 104.394 146.936C104.628 146.232 105.007 145.683 105.53 145.288C106.052 144.893 106.708 144.696 107.498 144.696C108.234 144.696 108.836 144.963 109.306 145.496C109.327 145.517 109.348 145.528 109.37 145.528C109.391 145.517 109.402 145.496 109.402 145.464V141.992ZM109.018 150.76C109.263 150.323 109.386 149.704 109.386 148.904C109.386 148.072 109.252 147.437 108.986 147C108.698 146.531 108.292 146.296 107.77 146.296C107.226 146.296 106.799 146.52 106.49 146.968C106.17 147.437 106.01 148.088 106.01 148.92C106.01 149.667 106.138 150.28 106.394 150.76C106.692 151.272 107.146 151.528 107.754 151.528C108.298 151.528 108.719 151.272 109.018 150.76ZM120.003 147.992C120.046 148.259 120.067 148.557 120.067 148.888L120.051 149.384C120.051 149.512 119.987 149.576 119.859 149.576H114.851C114.798 149.576 114.771 149.603 114.771 149.656C114.803 150.008 114.851 150.248 114.915 150.376C115.171 151.144 115.795 151.533 116.787 151.544C117.512 151.544 118.088 151.245 118.515 150.648C118.558 150.584 118.611 150.552 118.675 150.552C118.718 150.552 118.755 150.568 118.787 150.6L119.779 151.416C119.875 151.491 119.891 151.576 119.827 151.672C119.496 152.141 119.054 152.504 118.499 152.76C117.955 153.016 117.347 153.144 116.675 153.144C115.843 153.144 115.134 152.957 114.547 152.584C113.971 152.211 113.55 151.688 113.283 151.016C113.038 150.44 112.915 149.64 112.915 148.616C112.915 147.997 112.979 147.496 113.107 147.112C113.32 146.365 113.72 145.779 114.307 145.352C114.904 144.915 115.619 144.696 116.451 144.696C118.552 144.696 119.736 145.795 120.003 147.992ZM116.451 146.296C116.056 146.296 115.726 146.397 115.459 146.6C115.203 146.792 115.022 147.064 114.915 147.416C114.851 147.597 114.808 147.832 114.787 148.12C114.766 148.173 114.787 148.2 114.851 148.2H118.099C118.152 148.2 118.179 148.173 118.179 148.12C118.158 147.853 118.126 147.651 118.083 147.512C117.987 147.128 117.795 146.829 117.507 146.616C117.23 146.403 116.878 146.296 116.451 146.296ZM131.11 153C131.004 153 130.929 152.952 130.886 152.856L128.774 148.248C128.753 148.205 128.721 148.184 128.678 148.184H126.758C126.705 148.184 126.678 148.211 126.678 148.264V152.808C126.678 152.861 126.657 152.909 126.614 152.952C126.582 152.984 126.54 153 126.486 153H125.014C124.961 153 124.913 152.984 124.87 152.952C124.838 152.909 124.822 152.861 124.822 152.808V141.992C124.822 141.939 124.838 141.896 124.87 141.864C124.913 141.821 124.961 141.8 125.014 141.8H129.414C130.065 141.8 130.641 141.939 131.142 142.216C131.644 142.483 132.033 142.867 132.31 143.368C132.588 143.859 132.726 144.424 132.726 145.064C132.726 145.8 132.534 146.429 132.15 146.952C131.777 147.464 131.254 147.821 130.582 148.024C130.561 148.024 130.545 148.035 130.534 148.056C130.524 148.077 130.524 148.099 130.534 148.12L132.79 152.776C132.812 152.819 132.822 152.851 132.822 152.872C132.822 152.957 132.764 153 132.646 153H131.11ZM126.758 143.4C126.705 143.4 126.678 143.427 126.678 143.48V146.664C126.678 146.717 126.705 146.744 126.758 146.744H129.158C129.67 146.744 130.081 146.595 130.39 146.296C130.71 145.987 130.87 145.581 130.87 145.08C130.87 144.579 130.71 144.173 130.39 143.864C130.081 143.555 129.67 143.4 129.158 143.4H126.758ZM141.101 147.992C141.144 148.259 141.165 148.557 141.165 148.888L141.149 149.384C141.149 149.512 141.085 149.576 140.957 149.576H135.949C135.896 149.576 135.869 149.603 135.869 149.656C135.901 150.008 135.949 150.248 136.013 150.376C136.269 151.144 136.893 151.533 137.885 151.544C138.61 151.544 139.186 151.245 139.613 150.648C139.656 150.584 139.709 150.552 139.773 150.552C139.816 150.552 139.853 150.568 139.885 150.6L140.877 151.416C140.973 151.491 140.989 151.576 140.925 151.672C140.594 152.141 140.152 152.504 139.597 152.76C139.053 153.016 138.445 153.144 137.773 153.144C136.941 153.144 136.232 152.957 135.645 152.584C135.069 152.211 134.648 151.688 134.381 151.016C134.136 150.44 134.013 149.64 134.013 148.616C134.013 147.997 134.077 147.496 134.205 147.112C134.418 146.365 134.818 145.779 135.405 145.352C136.002 144.915 136.717 144.696 137.549 144.696C139.65 144.696 140.834 145.795 141.101 147.992ZM137.549 146.296C137.154 146.296 136.824 146.397 136.557 146.6C136.301 146.792 136.12 147.064 136.013 147.416C135.949 147.597 135.906 147.832 135.885 148.12C135.864 148.173 135.885 148.2 135.949 148.2H139.197C139.25 148.2 139.277 148.173 139.277 148.12C139.256 147.853 139.224 147.651 139.181 147.512C139.085 147.128 138.893 146.829 138.605 146.616C138.328 146.403 137.976 146.296 137.549 146.296ZM147.773 141.992C147.773 141.939 147.789 141.896 147.821 141.864C147.864 141.821 147.912 141.8 147.965 141.8H149.437C149.491 141.8 149.533 141.821 149.565 141.864C149.608 141.896 149.629 141.939 149.629 141.992V152.808C149.629 152.861 149.608 152.909 149.565 152.952C149.533 152.984 149.491 153 149.437 153H147.965C147.912 153 147.864 152.984 147.821 152.952C147.789 152.909 147.773 152.861 147.773 152.808V152.328C147.773 152.296 147.763 152.275 147.741 152.264C147.72 152.253 147.699 152.264 147.677 152.296C147.208 152.851 146.595 153.128 145.837 153.128C145.08 153.128 144.44 152.931 143.917 152.536C143.395 152.141 143.016 151.592 142.781 150.888C142.589 150.291 142.493 149.624 142.493 148.888C142.493 148.131 142.584 147.48 142.765 146.936C143 146.232 143.379 145.683 143.901 145.288C144.424 144.893 145.08 144.696 145.869 144.696C146.605 144.696 147.208 144.963 147.677 145.496C147.699 145.517 147.72 145.528 147.741 145.528C147.763 145.517 147.773 145.496 147.773 145.464V141.992ZM147.389 150.76C147.635 150.323 147.757 149.704 147.757 148.904C147.757 148.072 147.624 147.437 147.357 147C147.069 146.531 146.664 146.296 146.141 146.296C145.597 146.296 145.171 146.52 144.861 146.968C144.541 147.437 144.381 148.088 144.381 148.92C144.381 149.667 144.509 150.28 144.765 150.76C145.064 151.272 145.517 151.528 146.125 151.528C146.669 151.528 147.091 151.272 147.389 150.76ZM154.362 156.184C154.33 156.184 154.303 156.163 154.282 156.12C154.261 156.088 154.25 156.045 154.25 155.992V154.84C154.25 154.787 154.266 154.739 154.298 154.696C154.341 154.664 154.389 154.648 154.442 154.648H154.458C154.895 154.637 155.237 154.589 155.482 154.504C155.727 154.429 155.93 154.28 156.09 154.056C156.25 153.832 156.394 153.496 156.522 153.048C156.533 153.027 156.533 152.995 156.522 152.952L153.882 145.032C153.871 145.011 153.866 144.984 153.866 144.952C153.866 144.856 153.919 144.808 154.026 144.808H155.594C155.711 144.808 155.786 144.861 155.818 144.968L157.418 150.6C157.429 150.632 157.445 150.648 157.466 150.648C157.487 150.648 157.503 150.632 157.514 150.6L159.114 144.968C159.146 144.861 159.221 144.808 159.338 144.808H160.858C160.922 144.808 160.965 144.829 160.986 144.872C161.018 144.904 161.023 144.957 161.002 145.032L158.186 153.448C157.919 154.205 157.658 154.771 157.402 155.144C157.146 155.517 156.794 155.784 156.346 155.944C155.909 156.104 155.285 156.184 154.474 156.184H154.362ZM161.306 153C161.242 153 161.194 152.984 161.162 152.952C161.13 152.909 161.124 152.851 161.146 152.776L165.066 141.96C165.098 141.853 165.167 141.8 165.274 141.8H166.73C166.794 141.8 166.842 141.821 166.874 141.864C166.906 141.896 166.911 141.949 166.89 142.024L162.97 152.84C162.938 152.947 162.868 153 162.762 153H161.306ZM34.964 171.128C34.1213 171.128 33.396 170.915 32.788 170.488C32.1907 170.061 31.7693 169.469 31.524 168.712C31.3427 168.136 31.252 167.528 31.252 166.888C31.252 166.205 31.3373 165.597 31.508 165.064C31.7533 164.317 32.18 163.736 32.788 163.32C33.396 162.904 34.1267 162.696 34.98 162.696C35.7907 162.696 36.4893 162.904 37.076 163.32C37.6733 163.736 38.0947 164.312 38.34 165.048C38.532 165.56 38.628 166.168 38.628 166.872C38.628 167.544 38.5373 168.152 38.356 168.696C38.1107 169.453 37.6893 170.051 37.092 170.488C36.4947 170.915 35.7853 171.128 34.964 171.128ZM34.964 169.528C35.3587 169.528 35.6947 169.416 35.972 169.192C36.26 168.968 36.468 168.653 36.596 168.248C36.7027 167.896 36.756 167.448 36.756 166.904C36.756 166.328 36.7027 165.88 36.596 165.56C36.4787 165.155 36.276 164.845 35.988 164.632C35.7 164.408 35.348 164.296 34.932 164.296C34.5373 164.296 34.196 164.408 33.908 164.632C33.62 164.845 33.412 165.155 33.284 165.56C33.1773 165.933 33.124 166.381 33.124 166.904C33.124 167.427 33.1773 167.875 33.284 168.248C33.4013 168.653 33.604 168.968 33.892 169.192C34.1907 169.416 34.548 169.528 34.964 169.528ZM47.0578 171.128C46.2258 171.128 45.5004 170.995 44.8818 170.728C44.2631 170.461 43.7831 170.088 43.4418 169.608C43.1111 169.128 42.9458 168.563 42.9458 167.912V167.512C42.9458 167.459 42.9618 167.416 42.9938 167.384C43.0364 167.341 43.0844 167.32 43.1378 167.32H44.5618C44.6151 167.32 44.6578 167.341 44.6898 167.384C44.7324 167.416 44.7538 167.459 44.7538 167.512V167.816C44.7538 168.307 44.9724 168.717 45.4098 169.048C45.8471 169.368 46.4444 169.528 47.2018 169.528C47.8524 169.528 48.3431 169.389 48.6738 169.112C49.0044 168.835 49.1698 168.477 49.1698 168.04C49.1698 167.741 49.0791 167.491 48.8978 167.288C48.7164 167.075 48.4551 166.883 48.1138 166.712C47.7831 166.541 47.2818 166.328 46.6098 166.072C45.8524 165.795 45.2391 165.533 44.7698 165.288C44.3004 165.043 43.9058 164.712 43.5858 164.296C43.2764 163.869 43.1218 163.341 43.1218 162.712C43.1218 161.773 43.4631 161.032 44.1458 160.488C44.8284 159.944 45.7404 159.672 46.8818 159.672C47.6818 159.672 48.3858 159.811 48.9938 160.088C49.6124 160.365 50.0924 160.755 50.4338 161.256C50.7751 161.747 50.9458 162.317 50.9458 162.968V163.24C50.9458 163.293 50.9244 163.341 50.8818 163.384C50.8498 163.416 50.8071 163.432 50.7538 163.432H49.3138C49.2604 163.432 49.2124 163.416 49.1698 163.384C49.1378 163.341 49.1218 163.293 49.1218 163.24V163.064C49.1218 162.563 48.9138 162.141 48.4978 161.8C48.0924 161.448 47.5271 161.272 46.8018 161.272C46.2151 161.272 45.7564 161.395 45.4258 161.64C45.1058 161.885 44.9458 162.232 44.9458 162.68C44.9458 163 45.0311 163.261 45.2018 163.464C45.3724 163.667 45.6284 163.853 45.9698 164.024C46.3111 164.184 46.8391 164.392 47.5538 164.648C48.3111 164.936 48.9138 165.197 49.3618 165.432C49.8204 165.667 50.2098 165.997 50.5298 166.424C50.8604 166.84 51.0258 167.363 51.0258 167.992C51.0258 168.952 50.6684 169.715 49.9538 170.28C49.2498 170.845 48.2844 171.128 47.0578 171.128ZM59.4549 165.992C59.4975 166.259 59.5189 166.557 59.5189 166.888L59.5029 167.384C59.5029 167.512 59.4389 167.576 59.3109 167.576H54.3029C54.2495 167.576 54.2229 167.603 54.2229 167.656C54.2549 168.008 54.3029 168.248 54.3669 168.376C54.6229 169.144 55.2469 169.533 56.2389 169.544C56.9642 169.544 57.5402 169.245 57.9669 168.648C58.0095 168.584 58.0629 168.552 58.1269 168.552C58.1695 168.552 58.2069 168.568 58.2389 168.6L59.2309 169.416C59.3269 169.491 59.3429 169.576 59.2789 169.672C58.9482 170.141 58.5055 170.504 57.9509 170.76C57.4069 171.016 56.7989 171.144 56.1269 171.144C55.2949 171.144 54.5855 170.957 53.9989 170.584C53.4229 170.211 53.0015 169.688 52.7349 169.016C52.4895 168.44 52.3669 167.64 52.3669 166.616C52.3669 165.997 52.4309 165.496 52.5589 165.112C52.7722 164.365 53.1722 163.779 53.7589 163.352C54.3562 162.915 55.0709 162.696 55.9029 162.696C58.0042 162.696 59.1882 163.795 59.4549 165.992ZM55.9029 164.296C55.5082 164.296 55.1775 164.397 54.9109 164.6C54.6549 164.792 54.4735 165.064 54.3669 165.416C54.3029 165.597 54.2602 165.832 54.2389 166.12C54.2175 166.173 54.2389 166.2 54.3029 166.2H57.5509C57.6042 166.2 57.6309 166.173 57.6309 166.12C57.6095 165.853 57.5775 165.651 57.5349 165.512C57.4389 165.128 57.2469 164.829 56.9589 164.616C56.6815 164.403 56.3295 164.296 55.9029 164.296ZM64.9751 162.696C65.8391 162.696 66.5271 162.952 67.0391 163.464C67.5618 163.976 67.8231 164.675 67.8231 165.56V170.808C67.8231 170.861 67.8018 170.909 67.7591 170.952C67.7271 170.984 67.6845 171 67.6311 171H66.1591C66.1058 171 66.0578 170.984 66.0151 170.952C65.9831 170.909 65.9671 170.861 65.9671 170.808V165.944C65.9671 165.453 65.8285 165.059 65.5511 164.76C65.2738 164.451 64.9058 164.296 64.4471 164.296C63.9885 164.296 63.6151 164.445 63.3271 164.744C63.0498 165.043 62.9111 165.437 62.9111 165.928V170.808C62.9111 170.861 62.8898 170.909 62.8471 170.952C62.8151 170.984 62.7725 171 62.7191 171H61.2471C61.1938 171 61.1458 170.984 61.1031 170.952C61.0711 170.909 61.0551 170.861 61.0551 170.808V163.016C61.0551 162.963 61.0711 162.92 61.1031 162.888C61.1458 162.845 61.1938 162.824 61.2471 162.824H62.7191C62.7725 162.824 62.8151 162.845 62.8471 162.888C62.8898 162.92 62.9111 162.963 62.9111 163.016V163.528C62.9111 163.56 62.9218 163.581 62.9431 163.592C62.9645 163.603 62.9805 163.592 62.9911 163.56C63.4285 162.984 64.0898 162.696 64.9751 162.696ZM65.4871 161.656C65.2845 161.656 65.1138 161.635 64.9751 161.592C64.8365 161.539 64.6605 161.459 64.4471 161.352C64.4151 161.331 64.3351 161.293 64.2071 161.24C64.0898 161.176 63.9885 161.133 63.9031 161.112C63.8178 161.08 63.7325 161.064 63.6471 161.064C63.4658 161.064 63.3058 161.096 63.1671 161.16C63.0391 161.213 62.9165 161.304 62.7991 161.432C62.7458 161.485 62.6925 161.512 62.6391 161.512C62.5965 161.512 62.5591 161.491 62.5271 161.448L62.0151 160.904C61.9298 160.819 61.9191 160.733 61.9831 160.648C62.1538 160.36 62.3725 160.136 62.6391 159.976C62.9165 159.816 63.2205 159.736 63.5511 159.736C63.7645 159.736 63.9458 159.768 64.0951 159.832C64.2445 159.885 64.4418 159.976 64.6871 160.104C64.8898 160.211 65.0445 160.285 65.1511 160.328C65.2578 160.371 65.3698 160.392 65.4871 160.392C65.8071 160.392 66.0738 160.259 66.2871 159.992C66.3405 159.939 66.3885 159.912 66.4311 159.912C66.4845 159.912 66.5271 159.933 66.5591 159.976L67.0231 160.52C67.0871 160.595 67.1031 160.675 67.0711 160.76C66.9325 161.037 66.7191 161.256 66.4311 161.416C66.1538 161.576 65.8391 161.656 65.4871 161.656ZM72.7183 162.696C73.3903 162.696 73.9823 162.813 74.4943 163.048C75.0063 163.283 75.4009 163.608 75.6783 164.024C75.9556 164.429 76.0943 164.893 76.0943 165.416V170.808C76.0943 170.861 76.0729 170.909 76.0303 170.952C75.9983 170.984 75.9556 171 75.9023 171H74.4303C74.3769 171 74.3289 170.984 74.2863 170.952C74.2543 170.909 74.2383 170.861 74.2383 170.808V170.296C74.2383 170.264 74.2276 170.248 74.2063 170.248C74.1849 170.237 74.1636 170.243 74.1423 170.264C73.6196 170.84 72.8623 171.128 71.8703 171.128C71.0703 171.128 70.4089 170.925 69.8863 170.52C69.3743 170.115 69.1183 169.512 69.1183 168.712C69.1183 167.88 69.4063 167.235 69.9823 166.776C70.5689 166.307 71.3903 166.072 72.4463 166.072H74.1583C74.2116 166.072 74.2383 166.045 74.2383 165.992V165.608C74.2383 165.192 74.1156 164.872 73.8703 164.648C73.6249 164.413 73.2569 164.296 72.7663 164.296C72.3609 164.296 72.0303 164.371 71.7743 164.52C71.5289 164.659 71.3743 164.856 71.3103 165.112C71.2783 165.24 71.2036 165.293 71.0863 165.272L69.5343 165.08C69.4809 165.069 69.4329 165.053 69.3903 165.032C69.3583 165 69.3476 164.963 69.3583 164.92C69.4436 164.269 69.7903 163.736 70.3983 163.32C71.0169 162.904 71.7903 162.696 72.7183 162.696ZM72.3343 169.656C72.8569 169.656 73.3049 169.517 73.6783 169.24C74.0516 168.963 74.2383 168.611 74.2383 168.184V167.432C74.2383 167.379 74.2116 167.352 74.1583 167.352H72.8143C72.2489 167.352 71.8009 167.459 71.4703 167.672C71.1503 167.885 70.9903 168.189 70.9903 168.584C70.9903 168.925 71.1129 169.192 71.3583 169.384C71.6143 169.565 71.9396 169.656 72.3343 169.656ZM77.9896 171C77.9363 171 77.8883 170.984 77.8456 170.952C77.8136 170.909 77.7976 170.861 77.7976 170.808V159.992C77.7976 159.939 77.8136 159.896 77.8456 159.864C77.8883 159.821 77.9363 159.8 77.9896 159.8H79.4616C79.515 159.8 79.5576 159.821 79.5896 159.864C79.6323 159.896 79.6536 159.939 79.6536 159.992V170.808C79.6536 170.861 79.6323 170.909 79.5896 170.952C79.5576 170.984 79.515 171 79.4616 171H77.9896ZM87.6289 162.696C88.3009 162.696 88.8929 162.813 89.4049 163.048C89.9169 163.283 90.3115 163.608 90.5889 164.024C90.8662 164.429 91.0049 164.893 91.0049 165.416V170.808C91.0049 170.861 90.9835 170.909 90.9409 170.952C90.9089 170.984 90.8662 171 90.8129 171H89.3409C89.2875 171 89.2395 170.984 89.1969 170.952C89.1649 170.909 89.1489 170.861 89.1489 170.808V170.296C89.1489 170.264 89.1382 170.248 89.1169 170.248C89.0955 170.237 89.0742 170.243 89.0529 170.264C88.5302 170.84 87.7729 171.128 86.7809 171.128C85.9809 171.128 85.3195 170.925 84.7969 170.52C84.2849 170.115 84.0289 169.512 84.0289 168.712C84.0289 167.88 84.3169 167.235 84.8929 166.776C85.4795 166.307 86.3009 166.072 87.3569 166.072H89.0689C89.1222 166.072 89.1489 166.045 89.1489 165.992V165.608C89.1489 165.192 89.0262 164.872 88.7809 164.648C88.5355 164.413 88.1675 164.296 87.6769 164.296C87.2715 164.296 86.9409 164.371 86.6849 164.52C86.4395 164.659 86.2849 164.856 86.2209 165.112C86.1889 165.24 86.1142 165.293 85.9969 165.272L84.4449 165.08C84.3915 165.069 84.3435 165.053 84.3009 165.032C84.2689 165 84.2582 164.963 84.2689 164.92C84.3542 164.269 84.7009 163.736 85.3089 163.32C85.9275 162.904 86.7009 162.696 87.6289 162.696ZM87.2449 169.656C87.7675 169.656 88.2155 169.517 88.5889 169.24C88.9622 168.963 89.1489 168.611 89.1489 168.184V167.432C89.1489 167.379 89.1222 167.352 89.0689 167.352H87.7249C87.1595 167.352 86.7115 167.459 86.3809 167.672C86.0609 167.885 85.9009 168.189 85.9009 168.584C85.9009 168.925 86.0235 169.192 86.2689 169.384C86.5249 169.565 86.8502 169.656 87.2449 169.656ZM97.7803 163.016C97.7803 162.963 97.7963 162.92 97.8283 162.888C97.8709 162.845 97.9189 162.824 97.9723 162.824H99.4443C99.4976 162.824 99.5403 162.845 99.5723 162.888C99.6149 162.92 99.6363 162.963 99.6363 163.016V173.832C99.6363 173.885 99.6149 173.928 99.5723 173.96C99.5403 174.003 99.4976 174.024 99.4443 174.024H97.9723C97.9189 174.024 97.8709 174.003 97.8283 173.96C97.7963 173.928 97.7803 173.885 97.7803 173.832V170.36C97.7803 170.328 97.7696 170.312 97.7483 170.312C97.7269 170.301 97.7056 170.307 97.6843 170.328C97.2149 170.861 96.6123 171.128 95.8763 171.128C95.0869 171.128 94.4309 170.931 93.9083 170.536C93.3856 170.141 93.0069 169.592 92.7723 168.888C92.5909 168.344 92.5003 167.693 92.5003 166.936C92.5003 166.189 92.5963 165.523 92.7883 164.936C93.0229 164.232 93.4016 163.683 93.9243 163.288C94.4469 162.893 95.0869 162.696 95.8443 162.696C96.6016 162.696 97.2149 162.973 97.6843 163.528C97.7056 163.56 97.7269 163.571 97.7483 163.56C97.7696 163.549 97.7803 163.528 97.7803 163.496V163.016ZM97.3643 168.824C97.6309 168.387 97.7643 167.747 97.7643 166.904C97.7643 166.104 97.6416 165.485 97.3963 165.048C97.0976 164.536 96.6763 164.28 96.1323 164.28C95.5243 164.28 95.0709 164.541 94.7723 165.064C94.5163 165.544 94.3883 166.157 94.3883 166.904C94.3883 167.715 94.5483 168.365 94.8683 168.856C95.1776 169.304 95.6043 169.528 96.1483 169.528C96.6709 169.528 97.0763 169.293 97.3643 168.824ZM106.396 163.016C106.396 162.963 106.412 162.92 106.444 162.888C106.487 162.845 106.535 162.824 106.588 162.824H108.044C108.097 162.824 108.14 162.845 108.172 162.888C108.215 162.92 108.236 162.963 108.236 163.016V170.808C108.236 170.861 108.215 170.909 108.172 170.952C108.14 170.984 108.097 171 108.044 171H106.588C106.535 171 106.487 170.984 106.444 170.952C106.412 170.909 106.396 170.861 106.396 170.808V170.296C106.396 170.264 106.385 170.243 106.364 170.232C106.343 170.221 106.321 170.232 106.3 170.264C105.863 170.829 105.207 171.112 104.332 171.112C103.521 171.112 102.839 170.877 102.284 170.408C101.74 169.939 101.468 169.272 101.468 168.408V163.016C101.468 162.963 101.484 162.92 101.516 162.888C101.559 162.845 101.607 162.824 101.66 162.824H103.132C103.185 162.824 103.228 162.845 103.26 162.888C103.303 162.92 103.324 162.963 103.324 163.016V167.88C103.324 168.381 103.452 168.781 103.708 169.08C103.975 169.379 104.343 169.528 104.812 169.528C105.292 169.528 105.676 169.379 105.964 169.08C106.252 168.781 106.396 168.381 106.396 167.88V163.016ZM110.156 171C110.103 171 110.055 170.984 110.012 170.952C109.98 170.909 109.964 170.861 109.964 170.808V163.016C109.964 162.963 109.98 162.92 110.012 162.888C110.055 162.845 110.103 162.824 110.156 162.824H111.628C111.681 162.824 111.724 162.845 111.756 162.888C111.799 162.92 111.82 162.963 111.82 163.016V170.808C111.82 170.861 111.799 170.909 111.756 170.952C111.724 170.984 111.681 171 111.628 171H110.156ZM110.14 161.8C110.065 161.8 110.017 161.779 109.996 161.736C109.975 161.693 109.98 161.64 110.012 161.576L110.892 159.928C110.935 159.843 111.015 159.8 111.132 159.8H112.396C112.471 159.8 112.519 159.827 112.54 159.88C112.572 159.923 112.567 159.976 112.524 160.04L111.42 161.672C111.367 161.757 111.292 161.8 111.196 161.8H110.14ZM114.693 167.224C114.639 167.224 114.591 167.208 114.549 167.176C114.517 167.133 114.501 167.085 114.501 167.032L114.325 159.992C114.325 159.939 114.341 159.896 114.373 159.864C114.415 159.821 114.463 159.8 114.517 159.8H115.989C116.042 159.8 116.085 159.821 116.117 159.864C116.159 159.896 116.181 159.939 116.181 159.992L116.005 167.032C116.005 167.085 115.983 167.133 115.941 167.176C115.909 167.208 115.866 167.224 115.813 167.224H114.693ZM115.157 170.968C114.826 170.968 114.554 170.861 114.341 170.648C114.138 170.435 114.037 170.163 114.037 169.832C114.037 169.501 114.138 169.235 114.341 169.032C114.554 168.819 114.826 168.712 115.157 168.712C115.487 168.712 115.759 168.819 115.973 169.032C116.186 169.235 116.293 169.501 116.293 169.832C116.293 170.163 116.186 170.435 115.973 170.648C115.759 170.861 115.487 170.968 115.157 170.968Z" fill="white"/>
</g>
<g filter="url(#filter1_d_1100_168)">
<rect x="50.5" y="209" width="100" height="44" rx="4" fill="#3F6385" shape-rendering="crispEdges"/>
<path d="M64.336 237C64.216 237 64.114 236.958 64.03 236.874C63.946 236.79 63.904 236.688 63.904 236.568V224.85C63.904 224.718 63.946 224.61 64.03 224.526C64.114 224.442 64.216 224.4 64.336 224.4H72.256C72.388 224.4 72.496 224.442 72.58 224.526C72.664 224.61 72.706 224.718 72.706 224.85V226.038C72.706 226.158 72.664 226.26 72.58 226.344C72.496 226.428 72.388 226.47 72.256 226.47H66.334V229.656H71.86C71.992 229.656 72.1 229.698 72.184 229.782C72.268 229.854 72.31 229.956 72.31 230.088V231.204C72.31 231.336 72.268 231.444 72.184 231.528C72.1 231.6 71.992 231.636 71.86 231.636H66.334V234.93H72.4C72.532 234.93 72.64 234.972 72.724 235.056C72.808 235.14 72.85 235.248 72.85 235.38V236.568C72.85 236.688 72.808 236.79 72.724 236.874C72.64 236.958 72.532 237 72.4 237H64.336ZM75.1373 237C75.0173 237 74.9153 236.958 74.8313 236.874C74.7473 236.79 74.7053 236.688 74.7053 236.568V228.072C74.7053 227.952 74.7473 227.85 74.8313 227.766C74.9153 227.682 75.0173 227.64 75.1373 227.64H76.5413C76.6613 227.64 76.7633 227.682 76.8473 227.766C76.9313 227.85 76.9733 227.952 76.9733 228.072V228.684C77.2253 228.348 77.5613 228.066 77.9813 227.838C78.4133 227.598 78.9233 227.472 79.5113 227.46C80.8793 227.436 81.8333 227.97 82.3733 229.062C82.6493 228.582 83.0453 228.198 83.5613 227.91C84.0893 227.61 84.6713 227.46 85.3073 227.46C85.9313 227.46 86.4953 227.604 86.9993 227.892C87.5153 228.18 87.9173 228.618 88.2053 229.206C88.5053 229.782 88.6553 230.514 88.6553 231.402V236.568C88.6553 236.688 88.6133 236.79 88.5293 236.874C88.4453 236.958 88.3433 237 88.2233 237H86.7473C86.6273 237 86.5253 236.958 86.4413 236.874C86.3573 236.79 86.3153 236.688 86.3153 236.568V231.546C86.3153 231.006 86.2373 230.58 86.0813 230.268C85.9253 229.944 85.7153 229.716 85.4513 229.584C85.1873 229.452 84.8933 229.386 84.5693 229.386C84.3053 229.386 84.0413 229.452 83.7773 229.584C83.5133 229.716 83.2973 229.944 83.1293 230.268C82.9613 230.58 82.8773 231.006 82.8773 231.546V236.568C82.8773 236.688 82.8353 236.79 82.7513 236.874C82.6673 236.958 82.5653 237 82.4453 237H80.9693C80.8373 237 80.7293 236.958 80.6453 236.874C80.5733 236.79 80.5373 236.688 80.5373 236.568V231.546C80.5373 231.006 80.4533 230.58 80.2853 230.268C80.1173 229.944 79.9013 229.716 79.6373 229.584C79.3733 229.452 79.0913 229.386 78.7913 229.386C78.5153 229.386 78.2453 229.458 77.9813 229.602C77.7173 229.734 77.5013 229.956 77.3333 230.268C77.1653 230.58 77.0813 231.006 77.0813 231.546V236.568C77.0813 236.688 77.0393 236.79 76.9553 236.874C76.8713 236.958 76.7693 237 76.6493 237H75.1373ZM91.2175 240.42C91.0975 240.42 90.9955 240.378 90.9115 240.294C90.8275 240.21 90.7855 240.108 90.7855 239.988V228.072C90.7855 227.952 90.8275 227.85 90.9115 227.766C90.9955 227.682 91.0975 227.64 91.2175 227.64H92.6395C92.7715 227.64 92.8735 227.682 92.9455 227.766C93.0295 227.85 93.0715 227.952 93.0715 228.072V228.792C93.3595 228.408 93.7375 228.09 94.2055 227.838C94.6735 227.586 95.2555 227.46 95.9515 227.46C96.5875 227.46 97.1395 227.562 97.6075 227.766C98.0755 227.97 98.4655 228.264 98.7775 228.648C99.0895 229.02 99.3295 229.464 99.4975 229.98C99.6655 230.496 99.7615 231.066 99.7855 231.69C99.7975 231.894 99.8035 232.104 99.8035 232.32C99.8035 232.536 99.7975 232.752 99.7855 232.968C99.7735 233.568 99.6835 234.126 99.5155 234.642C99.3475 235.146 99.1015 235.59 98.7775 235.974C98.4655 236.346 98.0755 236.64 97.6075 236.856C97.1395 237.072 96.5875 237.18 95.9515 237.18C95.3035 237.18 94.7515 237.066 94.2955 236.838C93.8395 236.598 93.4675 236.286 93.1795 235.902V239.988C93.1795 240.108 93.1375 240.21 93.0535 240.294C92.9815 240.378 92.8795 240.42 92.7475 240.42H91.2175ZM95.2855 235.254C95.8015 235.254 96.2035 235.146 96.4915 234.93C96.7795 234.702 96.9835 234.408 97.1035 234.048C97.2355 233.688 97.3135 233.292 97.3375 232.86C97.3615 232.5 97.3615 232.14 97.3375 231.78C97.3135 231.348 97.2355 230.952 97.1035 230.592C96.9835 230.232 96.7795 229.944 96.4915 229.728C96.2035 229.5 95.8015 229.386 95.2855 229.386C94.7935 229.386 94.3915 229.5 94.0795 229.728C93.7795 229.956 93.5575 230.25 93.4135 230.61C93.2815 230.958 93.2035 231.318 93.1795 231.69C93.1675 231.906 93.1615 232.134 93.1615 232.374C93.1615 232.614 93.1675 232.848 93.1795 233.076C93.1915 233.436 93.2755 233.784 93.4315 234.12C93.5875 234.444 93.8155 234.714 94.1155 234.93C94.4155 235.146 94.8055 235.254 95.2855 235.254ZM105.676 237.18C104.344 237.18 103.288 236.796 102.508 236.028C101.728 235.26 101.308 234.168 101.248 232.752C101.236 232.632 101.23 232.482 101.23 232.302C101.23 232.11 101.236 231.96 101.248 231.852C101.296 230.952 101.5 230.172 101.86 229.512C102.232 228.852 102.742 228.348 103.39 228C104.038 227.64 104.8 227.46 105.676 227.46C106.648 227.46 107.464 227.664 108.124 228.072C108.784 228.468 109.282 229.026 109.618 229.746C109.954 230.454 110.122 231.276 110.122 232.212V232.59C110.122 232.71 110.08 232.812 109.996 232.896C109.912 232.98 109.804 233.022 109.672 233.022H103.696C103.696 233.022 103.696 233.04 103.696 233.076C103.696 233.112 103.696 233.142 103.696 233.166C103.708 233.586 103.786 233.976 103.93 234.336C104.086 234.684 104.308 234.966 104.596 235.182C104.896 235.398 105.25 235.506 105.658 235.506C105.994 235.506 106.276 235.458 106.504 235.362C106.732 235.254 106.918 235.134 107.062 235.002C107.206 234.87 107.308 234.762 107.368 234.678C107.476 234.534 107.56 234.45 107.62 234.426C107.692 234.39 107.794 234.372 107.926 234.372H109.474C109.594 234.372 109.69 234.408 109.762 234.48C109.846 234.552 109.882 234.642 109.87 234.75C109.858 234.942 109.756 235.176 109.564 235.452C109.384 235.728 109.12 235.998 108.772 236.262C108.424 236.526 107.986 236.748 107.458 236.928C106.942 237.096 106.348 237.18 105.676 237.18ZM103.696 231.51H107.674V231.456C107.674 230.988 107.596 230.58 107.44 230.232C107.284 229.884 107.056 229.608 106.756 229.404C106.456 229.2 106.096 229.098 105.676 229.098C105.256 229.098 104.896 229.2 104.596 229.404C104.296 229.608 104.068 229.884 103.912 230.232C103.768 230.58 103.696 230.988 103.696 231.456V231.51ZM111.782 237C111.65 237 111.542 236.958 111.458 236.874C111.386 236.79 111.35 236.688 111.35 236.568V235.542C111.35 235.434 111.374 235.332 111.422 235.236C111.482 235.128 111.542 235.038 111.602 234.966L116.21 229.512H111.926C111.806 229.512 111.704 229.476 111.62 229.404C111.536 229.32 111.494 229.212 111.494 229.08V228.072C111.494 227.952 111.536 227.85 111.62 227.766C111.704 227.682 111.806 227.64 111.926 227.64H118.748C118.88 227.64 118.982 227.682 119.054 227.766C119.138 227.85 119.18 227.952 119.18 228.072V229.17C119.18 229.278 119.156 229.374 119.108 229.458C119.06 229.542 119 229.632 118.928 229.728L114.428 235.128H119.126C119.246 235.128 119.348 235.17 119.432 235.254C119.516 235.326 119.558 235.428 119.558 235.56V236.568C119.558 236.688 119.516 236.79 119.432 236.874C119.348 236.958 119.246 237 119.126 237H111.782ZM123.918 237.18C123.294 237.18 122.73 237.06 122.226 236.82C121.722 236.568 121.32 236.238 121.02 235.83C120.732 235.41 120.588 234.942 120.588 234.426C120.588 233.586 120.924 232.92 121.596 232.428C122.28 231.924 123.18 231.588 124.296 231.42L126.762 231.06V230.682C126.762 230.178 126.636 229.788 126.384 229.512C126.132 229.236 125.7 229.098 125.088 229.098C124.656 229.098 124.302 229.188 124.026 229.368C123.762 229.536 123.564 229.764 123.432 230.052C123.336 230.208 123.198 230.286 123.018 230.286H121.596C121.464 230.286 121.362 230.25 121.29 230.178C121.23 230.106 121.2 230.01 121.2 229.89C121.212 229.698 121.29 229.464 121.434 229.188C121.578 228.912 121.806 228.648 122.118 228.396C122.43 228.132 122.832 227.91 123.324 227.73C123.816 227.55 124.41 227.46 125.106 227.46C125.862 227.46 126.498 227.556 127.014 227.748C127.542 227.928 127.962 228.174 128.274 228.486C128.586 228.798 128.814 229.164 128.958 229.584C129.102 230.004 129.174 230.448 129.174 230.916V236.568C129.174 236.688 129.132 236.79 129.048 236.874C128.964 236.958 128.862 237 128.742 237H127.284C127.152 237 127.044 236.958 126.96 236.874C126.888 236.79 126.852 236.688 126.852 236.568V235.866C126.696 236.094 126.486 236.31 126.222 236.514C125.958 236.706 125.634 236.868 125.25 237C124.878 237.12 124.434 237.18 123.918 237.18ZM124.53 235.47C124.95 235.47 125.328 235.38 125.664 235.2C126.012 235.02 126.282 234.744 126.474 234.372C126.678 233.988 126.78 233.508 126.78 232.932V232.554L124.98 232.842C124.272 232.95 123.744 233.124 123.396 233.364C123.048 233.604 122.874 233.898 122.874 234.246C122.874 234.51 122.952 234.738 123.108 234.93C123.276 235.11 123.486 235.248 123.738 235.344C123.99 235.428 124.254 235.47 124.53 235.47ZM131.735 237C131.615 237 131.513 236.958 131.429 236.874C131.345 236.79 131.303 236.688 131.303 236.568V228.09C131.303 227.958 131.345 227.85 131.429 227.766C131.513 227.682 131.615 227.64 131.735 227.64H133.193C133.313 227.64 133.415 227.682 133.499 227.766C133.595 227.85 133.643 227.958 133.643 228.09V228.828C133.919 228.444 134.273 228.15 134.705 227.946C135.149 227.742 135.659 227.64 136.235 227.64H136.973C137.105 227.64 137.207 227.682 137.279 227.766C137.363 227.85 137.405 227.952 137.405 228.072V229.368C137.405 229.488 137.363 229.59 137.279 229.674C137.207 229.758 137.105 229.8 136.973 229.8H135.569C134.993 229.8 134.543 229.962 134.219 230.286C133.907 230.61 133.751 231.054 133.751 231.618V236.568C133.751 236.688 133.709 236.79 133.625 236.874C133.541 236.958 133.433 237 133.301 237H131.735Z" fill="white"/>
</g>
<rect x="69.833" y="11" width="60" height="8" rx="4" fill="black"/>
<rect x="63.4995" y="354" width="72" height="4" rx="2" fill="black"/>
<rect x="0.499512" y="74" width="7" height="20" rx="3.5" fill="black"/>
<defs>
<filter id="filter0_d_1100_168" x="18.5" y="106" width="161" height="86" filterUnits="userSpaceOnUse" color-interpolation-filters="sRGB">
<feFlood flood-opacity="0" result="BackgroundImageFix"/>
<feColorMatrix in="SourceAlpha" type="matrix" values="0 0 0 0 0 0 0 0 0 0 0 0 0 0 0 0 0 0 127 0" result="hardAlpha"/>
<feOffset dy="2"/>
<feGaussianBlur stdDeviation="2"/>
<feComposite in2="hardAlpha" operator="out"/>
<feColorMatrix type="matrix" values="0 0 0 0 0.349328 0 0 0 0 0.441446 0 0 0 0 0.461667 0 0 0 0.1 0"/>
<feBlend mode="normal" in2="BackgroundImageFix" result="effect1_dropShadow_1100_168"/>
<feBlend mode="normal" in="SourceGraphic" in2="effect1_dropShadow_1100_168" result="shape"/>
</filter>
<filter id="filter1_d_1100_168" x="46.5" y="207" width="108" height="52" filterUnits="userSpaceOnUse" color-interpolation-filters="sRGB">
<feFlood flood-opacity="0" result="BackgroundImageFix"/>
<feColorMatrix in="SourceAlpha" type="matrix" values="0 0 0 0 0 0 0 0 0 0 0 0 0 0 0 0 0 0 127 0" result="hardAlpha"/>
<feOffset dy="2"/>
<feGaussianBlur stdDeviation="2"/>
<feComposite in2="hardAlpha" operator="out"/>
<feColorMatrix type="matrix" values="0 0 0 0 0.349328 0 0 0 0 0.441446 0 0 0 0 0.461667 0 0 0 0.1 0"/>
<feBlend mode="normal" in2="BackgroundImageFix" result="effect1_dropShadow_1100_168"/>
<feBlend mode="normal" in="SourceGraphic" in2="effect1_dropShadow_1100_168" result="shape"/>
</filter>
<linearGradient id="paint0_linear_1100_168" x1="99.833" y1="8" x2="99.833" y2="364" gradientUnits="userSpaceOnUse">
<stop stop-color="#D8DFE6"/>
<stop offset="1" stop-color="#AABAC9"/>
</linearGradient>
</defs>
</svg>
