<svg width="32" height="32" viewBox="0 0 32 32" fill="none" xmlns="http://www.w3.org/2000/svg">
<path fill-rule="evenodd" clip-rule="evenodd" d="M10.6665 29.3199H21.3865V29.3333C23.5998 29.3333 25.3865 27.5466 25.3865 25.3333V11.6133C25.3865 11.2266 25.2132 10.8533 24.9198 10.5999L18.6265 2.99993C18.3865 2.7866 18.0798 2.67993 17.7598 2.67993H10.6665C8.45317 2.67993 6.6665 4.4666 6.6665 6.67993V25.3199C6.6665 27.5333 8.45317 29.3199 10.6665 29.3199ZM21.3865 27.9866H10.6665C9.19984 27.9866 7.99984 26.7866 7.99984 25.3199V6.6666C7.99984 5.19993 9.19984 3.99993 10.6665 3.99993H17.3332V10.6266C17.3332 11.3599 17.9332 11.9599 18.6665 11.9599H24.0532V25.3199C24.0532 26.7866 22.8532 27.9866 21.3865 27.9866ZM23.2582 10.6399L18.6665 5.09485V10.6399H23.2582Z" fill="#002EFF"/>
<path fill-rule="evenodd" clip-rule="evenodd" d="M15.9998 25.3334C13.0532 25.3334 10.6665 22.9467 10.6665 20.0001C10.6665 17.0534 13.0532 14.6667 15.9998 14.6667C18.9465 14.6667 21.3332 17.0534 21.3332 20.0001C21.3332 22.9467 18.9465 25.3334 15.9998 25.3334ZM15.9998 15.7867C13.6665 15.7867 11.7865 17.6801 11.7865 20.0134C11.7865 22.3467 13.6798 24.2267 15.9998 24.2267C18.3198 24.2267 20.2132 22.3334 20.2132 20.0134C20.2132 17.6934 18.3198 15.7867 15.9998 15.7867ZM15.9998 21.72C15.6932 21.72 15.4398 21.4666 15.4398 21.16V17.4266C15.4398 17.12 15.6932 16.8666 15.9998 16.8666C16.3065 16.8666 16.5598 17.12 16.5598 17.4266V21.16C16.5598 21.4666 16.3065 21.72 15.9998 21.72ZM16.5598 22.8934C16.5598 23.2027 16.3091 23.4534 15.9998 23.4534C15.6905 23.4534 15.4398 23.2027 15.4398 22.8934C15.4398 22.5841 15.6905 22.3334 15.9998 22.3334C16.3091 22.3334 16.5598 22.5841 16.5598 22.8934Z" fill="#FF3D00"/>
</svg>
