<svg width="33" height="32" viewBox="0 0 33 32" fill="none" xmlns="http://www.w3.org/2000/svg">
<path d="M26.5132 24.2003C28.6199 21.7736 29.1532 18.3069 27.5932 15.0669C26.3132 12.3869 23.5399 10.8003 20.5799 10.8003C19.7799 6.38693 15.4865 3.32027 10.7665 4.36027C7.77985 5.0136 5.37985 7.4136 4.69985 10.3869C4.09985 13.0136 4.77985 15.6403 6.47319 17.5736L5.71319 18.9469C5.13985 19.9736 6.08652 21.1869 7.21985 20.8803L10.3132 20.0536C10.9932 20.2536 11.6999 20.3469 12.4199 20.3736C13.1265 24.2003 16.4199 27.0136 20.3665 27.0136C21.1399 27.0136 21.8999 26.9069 22.6599 26.6803L25.7532 27.5069C26.8865 27.8136 27.8332 26.6003 27.2599 25.5736L26.4999 24.2003H26.5132ZM10.5532 18.7203L10.3665 18.6536L6.89985 19.5869L8.13985 17.3603L7.99319 17.2136C6.88652 16.0936 6.08652 14.6669 5.89985 13.1069C5.39319 8.98693 8.60652 5.48027 12.6332 5.48027C15.8732 5.48027 18.6199 7.74693 19.2732 10.8669C15.2999 11.4136 12.2865 14.8136 12.2865 18.8936C12.2865 18.9469 12.2865 18.9869 12.2865 19.0403C11.6999 19.0136 11.1265 18.9069 10.5665 18.7203H10.5532ZM26.1132 26.2269L22.6465 25.2936L22.4599 25.3469C21.7799 25.5603 21.0865 25.6669 20.3932 25.6669C16.9132 25.6669 14.0199 23.0669 13.6465 19.6136C13.4999 18.1736 13.7132 16.6269 15.3132 14.7203C16.5932 13.1736 18.4732 12.2403 20.4732 12.1203C24.4465 12.1736 27.6065 15.6669 27.1132 19.7469C26.9265 21.3069 26.1265 22.7336 25.0199 23.8536L24.8732 24.0003L26.1132 26.2269Z" fill="#002EFF"/>
<path d="M17.1532 20.067C17.7497 20.067 18.2332 19.5834 18.2332 18.987C18.2332 18.3905 17.7497 17.907 17.1532 17.907C16.5568 17.907 16.0732 18.3905 16.0732 18.987C16.0732 19.5834 16.5568 20.067 17.1532 20.067Z" fill="#FF3D00"/>
<path d="M20.3935 20.067C20.9899 20.067 21.4735 19.5834 21.4735 18.987C21.4735 18.3905 20.9899 17.907 20.3935 17.907C19.797 17.907 19.3135 18.3905 19.3135 18.987C19.3135 19.5834 19.797 20.067 20.3935 20.067Z" fill="#FF3D00"/>
<path d="M23.6332 20.067C24.2297 20.067 24.7132 19.5834 24.7132 18.987C24.7132 18.3905 24.2297 17.907 23.6332 17.907C23.0368 17.907 22.5532 18.3905 22.5532 18.987C22.5532 19.5834 23.0368 20.067 23.6332 20.067Z" fill="#FF3D00"/>
</svg>
