<svg width="33" height="32" viewBox="0 0 33 32" fill="none" xmlns="http://www.w3.org/2000/svg">
<path fill-rule="evenodd" clip-rule="evenodd" d="M17.1667 2.66699H24.4867C26.7 2.66699 28.4867 4.45366 28.4867 6.66699V21.3337C28.4867 23.547 26.7 25.3337 24.4867 25.3337H19.82C19.82 27.547 18.0333 29.3337 15.82 29.3337H8.5C6.28667 29.3337 4.5 27.547 4.5 25.3337V10.667C4.5 8.45366 6.28667 6.66699 8.5 6.66699H13.1667C13.1667 4.45366 14.9533 2.66699 17.1667 2.66699ZM15.82 28.0003C17.2867 28.0003 18.4867 26.8003 18.4867 25.3337H17.1667C14.9533 25.3337 13.1667 23.547 13.1667 21.3337V8.00033H8.5C7.03333 8.00033 5.83333 9.20033 5.83333 10.667V25.3337C5.83333 26.8003 7.03333 28.0003 8.5 28.0003H15.82ZM24.4867 24.0003C25.9533 24.0003 27.1533 22.8003 27.1533 21.3337V6.68033C27.1533 5.21366 25.9533 4.01366 24.4867 4.01366H17.1667C15.7 4.01366 14.5 5.20033 14.5 6.68033V21.3337C14.5 22.8003 15.7 24.0003 17.1667 24.0003H24.4867ZM10.0334 26.6536H14.3134C14.6867 26.6536 14.98 26.3603 14.98 25.987C14.98 25.6136 14.6867 25.3203 14.3134 25.3203H10.0334C9.66003 25.3203 9.3667 25.6136 9.3667 25.987C9.3667 26.3603 9.66003 26.6536 10.0334 26.6536Z" fill="#002EFF"/>
<path fill-rule="evenodd" clip-rule="evenodd" d="M20.6466 17.1203H20.7933L21.0733 17.0936L21.2333 17.0003C21.8866 16.6136 22.4733 16.2136 23.0066 15.787C23.4866 15.4003 23.8999 15.0003 24.2599 14.587C24.7666 14.0136 25.0066 13.5603 25.1533 13.2403L25.2333 13.027C25.3666 12.6936 25.4466 12.3336 25.4866 11.9603V11.6136C25.4733 11.2403 25.4066 10.867 25.2599 10.5203C25.2199 10.427 25.1799 10.3336 25.1399 10.2536C24.8599 9.72029 24.4199 9.28029 23.8733 9.00029C22.8866 8.48029 21.7666 8.61362 20.8066 9.33362C19.8466 8.61362 18.7399 8.48029 17.7399 9.00029C17.1799 9.28029 16.7399 9.72029 16.4599 10.267C16.3933 10.387 16.3399 10.5203 16.2866 10.6536C16.1799 10.9736 16.1133 11.2936 16.1133 11.627V11.8403C16.1266 11.9336 16.1399 12.027 16.1399 12.1203C16.1799 12.467 16.2733 12.827 16.3933 13.0936L16.5533 13.467C16.6866 13.707 16.9266 14.107 17.4333 14.6936C17.7799 15.0803 18.1799 15.4536 18.6599 15.8403C19.1533 16.227 19.7399 16.627 20.3933 17.0136L20.6466 17.1203ZM18.3666 10.1736C18.5933 10.067 18.8066 10.0136 19.0066 10.0136V10.027C19.5799 10.027 20.0599 10.4136 20.3399 10.6936L20.8199 11.187L21.2999 10.6936C21.6733 10.307 22.4199 9.74696 23.2733 10.187C23.5799 10.347 23.8199 10.587 23.9799 10.8936C23.9933 10.9203 24.0033 10.9436 24.0133 10.967C24.0233 10.9903 24.0333 11.0136 24.0466 11.0403C24.1266 11.2403 24.1666 11.4403 24.1666 11.6403V11.8803C24.1533 12.147 24.0866 12.4003 23.9799 12.6536L23.9266 12.787C23.8733 12.907 23.6866 13.2536 23.2866 13.7203C22.9666 14.0803 22.6199 14.427 22.1933 14.7603C21.7666 15.0936 21.3133 15.4136 20.8199 15.7203C20.3266 15.4136 19.8866 15.107 19.4999 14.8003C19.0866 14.467 18.7266 14.1336 18.3666 13.7203C18.0333 13.3336 17.8466 13.0403 17.7533 12.8536L17.6599 12.627C17.5799 12.4136 17.5133 12.187 17.4733 11.947V11.627C17.4733 11.4403 17.4999 11.267 17.5666 11.0936C17.5724 11.0792 17.5782 11.0641 17.5841 11.0486C17.6055 10.9929 17.6286 10.9325 17.6599 10.8803C17.8199 10.5736 18.0599 10.3336 18.3666 10.1736ZM18.6866 22.6803H22.9666C23.3399 22.6803 23.6333 22.387 23.6333 22.0137C23.6333 21.6403 23.3399 21.347 22.9666 21.347H18.6866C18.3133 21.347 18.0199 21.6403 18.0199 22.0137C18.0199 22.387 18.3133 22.6803 18.6866 22.6803Z" fill="#FF3D00"/>
</svg>
