<svg width="33" height="32" viewBox="0 0 33 32" fill="none" xmlns="http://www.w3.org/2000/svg">
<path fill-rule="evenodd" clip-rule="evenodd" d="M25.9532 29.3335C25.5799 29.3335 25.2865 29.0402 25.2865 28.6669V3.33354C25.2865 2.9602 25.5799 2.66687 25.9532 2.66687C26.3265 2.66687 26.6199 2.9602 26.6199 3.33354V28.6669C26.6199 29.0402 26.3265 29.3335 25.9532 29.3335ZM13.3532 29.3335C12.9799 29.3335 12.6866 29.0401 12.6866 28.6668V12.6001C12.6866 12.2268 12.9799 11.9335 13.3532 11.9335C13.7266 11.9335 14.0199 12.2268 14.0199 12.6001V28.6668C14.0199 29.0401 13.7266 29.3335 13.3532 29.3335ZM6.37988 28.6669C6.37988 29.0402 6.67322 29.3336 7.04655 29.3336C7.41988 29.3336 7.71322 29.0402 7.71322 28.6669V15.3602C7.71322 14.9869 7.41988 14.6936 7.04655 14.6936C6.67322 14.6936 6.37988 14.9869 6.37988 15.3602V28.6669Z" fill="#002EFF"/>
<path d="M19.6466 29.3334C19.2733 29.3334 18.98 29.0401 18.98 28.6667V8.52006C18.98 8.14673 19.2733 7.85339 19.6466 7.85339C20.02 7.85339 20.3133 8.14673 20.3133 8.52006V28.6667C20.3133 29.0401 20.02 29.3334 19.6466 29.3334Z" fill="#FF3D00"/>
</svg>
