<svg width="32" height="32" viewBox="0 0 32 32" fill="none" xmlns="http://www.w3.org/2000/svg">
<path d="M18.6665 25.3335H13.3332C12.965 25.3335 12.6665 25.632 12.6665 26.0002C12.6665 26.3684 12.965 26.6668 13.3332 26.6668H18.6665C19.0347 26.6668 19.3332 26.3684 19.3332 26.0002C19.3332 25.632 19.0347 25.3335 18.6665 25.3335Z" fill="#002EFF"/>
<path d="M21.3332 29.3334H10.6665C8.45317 29.3334 6.6665 27.5467 6.6665 25.3334V6.66675C6.6665 4.45341 8.45317 2.66675 10.6665 2.66675H21.3332C23.5465 2.66675 25.3332 4.45341 25.3332 6.66675V25.3334C25.3332 27.5467 23.5465 29.3334 21.3332 29.3334ZM10.6665 28.0001H21.3332C22.7998 28.0001 23.9998 26.8001 23.9998 25.3334V6.66675C23.9998 5.20008 22.7998 4.00008 21.3332 4.00008H10.6665C9.19984 4.00008 7.99984 5.20008 7.99984 6.66675V25.3334C7.99984 26.8001 9.19984 28.0001 10.6665 28.0001Z" fill="#002EFF"/>
<path d="M12.5065 19.56C12.3332 19.56 12.1598 19.4933 12.0398 19.36C11.7732 19.0933 11.7732 18.68 12.0398 18.4133L19.0132 11.44C19.2798 11.1733 19.6932 11.1733 19.9598 11.44C20.2265 11.7067 20.2265 12.12 19.9598 12.3867L12.9865 19.36C12.8532 19.4933 12.6798 19.56 12.5198 19.56H12.5065Z" fill="#FF3D00"/>
<path d="M19.493 19.56C19.3197 19.56 19.1464 19.4933 19.0264 19.36L12.053 12.3867C11.7864 12.12 11.7864 11.7067 12.053 11.44C12.3197 11.1733 12.733 11.1733 12.9997 11.44L19.973 18.4133C20.2397 18.68 20.2397 19.0933 19.973 19.36C19.8397 19.4933 19.6664 19.56 19.5064 19.56H19.493Z" fill="#FF3D00"/>
</svg>
