<svg width="48" height="48" viewBox="0 0 48 48" fill="none" xmlns="http://www.w3.org/2000/svg">
<path d="M37.2134 12.3672V13.1221L23.9798 23.2142L10.7463 13.1221V12C10.7463 12 9.1977 12.3566 8.83569 13.9681C9.05692 14.4516 9.45916 14.7537 9.45916 14.7537L18.8111 21.8847L20.4804 23.1739L22.6726 24.8458C22.6726 24.8458 23.8592 25.8329 25.2871 24.8458L27.4793 23.1537L29.1485 21.8847L38.5005 14.7537C38.5005 14.7537 38.8625 14.512 39.124 13.9681C39.3854 13.4242 38.2793 12.0247 37.2134 12.3672Z" fill="#002EFF"/>
<path d="M39.3453 11.1885C38.7218 10.7453 37.9978 10.423 37.2335 10.2216C36.7307 10.1007 36.1877 10 35.6447 10H12.3553C11.8123 10 11.2693 10.1007 10.7665 10.2216C10.0022 10.423 9.27821 10.7453 8.65475 11.1885C7.04581 12.3165 6 14.1496 6 16.2446V31.7554C6 35.2 8.85587 38 12.3553 38H35.6447C39.1441 38 42 35.2 42 31.7554V16.2446C42 14.1496 40.9542 12.3165 39.3453 11.1885ZM39.8682 31.7554C39.8682 32.7424 39.5061 33.6489 38.9229 34.354L29.1687 21.8245L27.4994 23.0935L37.2335 35.6029C36.7307 35.8043 36.2078 35.9252 35.6447 35.9252H12.3553C11.7922 35.9252 11.2693 35.8043 10.7866 35.623L20.5006 23.1137L18.8313 21.8245L9.0771 34.3741C8.49385 33.6489 8.13184 32.7626 8.13184 31.7554V16.2446C8.13184 15.3784 8.3933 14.5727 8.85587 13.9079C9.51955 12.8806 10.7665 12.3971 10.7665 12.3971C11.2693 12.1957 11.7922 12.0748 12.3553 12.0748H35.6447C36.2078 12.0748 36.7307 12.2158 37.2335 12.3971C38.2793 12.7799 38.5207 13.1022 39.1441 13.9079C39.6469 14.5525 39.8682 15.3784 39.8682 16.2446V31.7554Z" fill="#002EFF"/>
</svg>
