<svg width="48" height="48" viewBox="0 0 48 48" fill="none" xmlns="http://www.w3.org/2000/svg">
<path fill-rule="evenodd" clip-rule="evenodd" d="M24 4C24.5523 4 25 4.52672 25 5.17647V12.9288L41.8935 8.31025C42.5202 8.13891 43.1464 8.43187 43.292 8.9646C43.4377 9.49733 43.0477 10.0681 42.4209 10.2395L25 15.0022V42H30.6667C31.403 42 32 42.4477 32 43C32 43.5523 31.403 44 30.6667 44H24H17.3333C16.597 44 16 43.5523 16 43C16 42.4477 16.597 42 17.3333 42H23V15.549L6.10656 20.1676C5.47981 20.3389 4.85367 20.046 4.70802 19.5132C4.56237 18.9805 4.95238 18.4097 5.57913 18.2384L23 13.4756V5.17647C23 4.52672 23.4477 4 24 4Z" fill="#002EFF"/>
<path d="M5.1349 31.6356L11.3188 18.3882C11.3906 18.2344 11.6094 18.2344 11.6812 18.3882L17.8497 31.6027C17.9397 31.7955 17.8951 32.0278 17.7393 32.1726C12.3124 37.2158 7.27915 34.4197 5.2101 32.1637C5.07863 32.0204 5.05262 31.8119 5.1349 31.6356Z" stroke="#FF3D00" stroke-width="2"/>
<path d="M30.1349 24.6356L36.3188 11.3882C36.3906 11.2344 36.6094 11.2344 36.6812 11.3882L42.8497 24.6027C42.9397 24.7955 42.8951 25.0278 42.7393 25.1726C37.3124 30.2158 32.2791 27.4197 30.2101 25.1637C30.0786 25.0204 30.0526 24.8119 30.1349 24.6356Z" stroke="#FF3D00" stroke-width="2"/>
</svg>
