<svg width="32" height="32" viewBox="0 0 32 32" fill="none" xmlns="http://www.w3.org/2000/svg">
<path d="M21.36 29.3119H10.64C8.42668 29.3119 6.64001 27.5252 6.64001 25.3119V6.67188C6.64001 4.45854 8.42668 2.67188 10.64 2.67188H17.7333C18.0533 2.67188 18.36 2.77854 18.6 2.99188L24.8933 10.5919C25.1867 10.8452 25.36 11.2185 25.36 11.6052V25.3252C25.36 27.5385 23.5733 29.3252 21.36 29.3252V29.3119ZM10.64 27.9785H21.36C22.8267 27.9785 24.0267 26.7785 24.0267 25.3119V11.5919L17.7333 3.99188H10.64C9.17335 3.99188 7.97335 5.19187 7.97335 6.65854V25.3119C7.97335 26.7785 9.17335 27.9785 10.64 27.9785Z" fill="#002EFF"/>
<path d="M24.6933 11.9532H18.64C17.9066 11.9532 17.3066 11.3532 17.3066 10.6198V3.33984H18.64V10.6332H24.6933V11.9665V11.9532Z" fill="#002EFF"/>
<path d="M22.0265 18.6302H9.89319C9.57319 18.6302 9.30652 18.3369 9.30652 17.9635C9.30652 17.5902 9.57319 17.2969 9.89319 17.2969H22.0265C22.3465 17.2969 22.6132 17.5902 22.6132 17.9635C22.6132 18.3369 22.3465 18.6302 22.0265 18.6302Z" fill="#FF3D00"/>
<path d="M22.0265 21.3099H9.89319C9.57319 21.3099 9.30652 21.0166 9.30652 20.6432C9.30652 20.2699 9.57319 19.9766 9.89319 19.9766H22.0265C22.3465 19.9766 22.6132 20.2699 22.6132 20.6432C22.6132 21.0166 22.3465 21.3099 22.0265 21.3099Z" fill="#FF3D00"/>
<path d="M16.7465 23.9622H9.89319C9.57319 23.9622 9.30652 23.6689 9.30652 23.2956C9.30652 22.9222 9.57319 22.6289 9.89319 22.6289H16.7465C17.0665 22.6289 17.3332 22.9222 17.3332 23.2956C17.3332 23.6689 17.0665 23.9622 16.7465 23.9622Z" fill="#FF3D00"/>
</svg>
