<svg width="350" height="241" viewBox="0 0 350 241" fill="none" xmlns="http://www.w3.org/2000/svg">
<mask id="mask0_6403_29465" style="mask-type:alpha" maskUnits="userSpaceOnUse" x="0" y="0" width="350" height="240">
<rect width="350" height="240" rx="16" fill="#D9D9D9"/>
</mask>
<g mask="url(#mask0_6403_29465)">
<path d="M191.538 778.804C179.507 788.24 159.955 786.668 147.923 775.659L75.7331 706.46C65.2053 695.452 65.2053 679.725 77.2371 670.289C77.2371 670.289 188.53 585.363 188.53 401.359C188.53 228.363 71.2212 127.711 71.2212 127.711C59.1895 118.275 59.1895 100.976 69.7172 89.9669L140.404 22.3413C150.931 11.3325 170.483 9.75977 184.019 19.1959C184.019 19.1959 350.959 138.72 350.959 401.359C353.967 660.852 191.538 778.804 191.538 778.804Z" fill="#42E8B4"/>
</g>
<path d="M189.911 66.0391H184.97C184.006 66.0391 183.224 66.8187 183.224 67.7831V103.563C183.224 104.526 184.006 105.307 184.97 105.307H189.911C190.876 105.307 191.657 104.528 191.657 103.563V67.7831C191.657 66.8208 190.876 66.0391 189.911 66.0391Z" fill="black"/>
<path d="M251.092 148.142L235.164 110.917C232.392 104.44 226.033 100.242 218.998 100.242H186.973L152.623 107.688C145.918 109.139 140.214 113.519 137.073 119.622L101.959 188.544H240.708L251.09 148.144L251.092 148.142Z" fill="#002EFF"/>
<path d="M81.7974 158.625V162.829C81.7337 162.829 81.67 162.825 81.602 162.825C76.3018 162.825 72 167.095 72 172.365C72 177.636 76.2997 181.906 81.602 181.906C81.7082 181.906 81.8166 181.901 81.9228 181.899C82.5898 185.67 85.8847 188.538 89.8529 188.538H101.392C105.843 188.538 109.448 184.935 109.448 180.495V158.625H81.7974ZM75.0144 172.367C75.0144 168.75 77.9651 165.814 81.6041 165.814C81.6678 165.814 81.7358 165.814 81.7996 165.818V178.912C81.7358 178.912 81.6721 178.917 81.6041 178.917C77.963 178.917 75.0144 175.985 75.0144 172.363V172.367Z" fill="#FF3D00"/>
<path d="M92.128 172.16C92.0558 172.16 91.9963 172.102 91.9963 172.028V158.628C91.9963 158.556 92.0537 158.496 92.128 158.496C92.2024 158.496 92.2598 158.553 92.2598 158.628V172.028C92.2598 172.098 92.2024 172.16 92.128 172.16Z" fill="black"/>
<path d="M87.3016 182.988V176.724C87.3016 176.403 87.4333 176.101 87.6691 175.885L92.1323 171.766L96.8483 175.88C97.0969 176.097 97.2413 176.412 97.2413 176.741V182.988C97.2413 183.622 96.7294 184.133 96.0942 184.133H88.4487C87.8135 184.133 87.3016 183.622 87.3016 182.988Z" fill="#002EFF"/>
<path d="M92.1281 181.525C90.7218 181.525 89.5746 180.38 89.5746 178.973C89.5746 177.567 90.7218 176.422 92.1281 176.422C93.5344 176.422 94.6815 177.567 94.6815 178.973C94.6815 180.38 93.5344 181.525 92.1281 181.525ZM92.1281 177.21C91.1552 177.21 90.3606 178 90.3606 178.975C90.3606 179.95 91.1509 180.741 92.1281 180.741C93.1053 180.741 93.8955 179.95 93.8955 178.975C93.8955 178 93.1053 177.21 92.1281 177.21Z" fill="white"/>
<path d="M194.621 100.238L190.374 87.5306C195.957 82.8379 205.24 73.4314 201.589 65.2718C196.488 53.8577 183.6 52.1604 174.117 54.9072C169.201 56.3305 165.135 61.9323 162.834 68.1843C162.828 68.2013 162.82 68.2204 162.813 68.2374L162.091 70.3256C161.107 73.1616 160.602 76.1484 160.729 79.1437C160.814 81.1639 161.146 83.0291 161.715 84.4503C163.321 88.4632 168.94 90.0394 174.427 90.5875L180.49 101.64L175.623 102.694C175.623 102.694 173.499 111.839 184.044 111.948C194.589 112.052 203.346 104.704 199.753 100.245H194.619V100.24L194.621 100.238Z" fill="white" stroke="black" stroke-miterlimit="10"/>
<path d="M201.593 65.2698C196.488 53.8557 182.143 51.8971 172.66 54.6439C170.601 55.2408 164.451 55.0432 166.114 56.8787C169.951 61.1188 179.712 56.5303 179.712 56.5303C176.307 70.8568 184.333 76.1995 184.333 76.1995L185 85.2916L190.988 89.3512C197.467 87.7176 205.723 74.4915 201.597 65.274L201.593 65.2698Z" fill="black"/>
<path d="M184.331 76.1985C184.331 76.1985 190.408 73.5261 191.381 78.3823C192.354 83.2385 185.442 87.8058 181.603 83.6995C177.766 79.5932 184.328 76.1942 184.328 76.1942L184.333 76.1985H184.331Z" fill="white"/>
<path d="M183.375 80.6417C183.307 80.6417 183.239 80.6162 183.186 80.5631C183.082 80.459 183.086 80.2933 183.19 80.1934C185.153 78.273 186.846 77.948 187.916 78.016C189.104 78.0903 189.811 78.6384 189.841 78.6597C189.956 78.7489 189.977 78.9167 189.884 79.0293C189.794 79.144 189.631 79.1652 189.516 79.0718C189.416 78.9932 187.001 77.1939 183.555 80.5631C183.504 80.6119 183.438 80.6374 183.37 80.6374L183.375 80.6417Z" fill="black"/>
<path d="M186.527 82.7758C186.427 82.7758 186.332 82.7184 186.289 82.6186L184.762 79.1963C184.7 79.0646 184.762 78.9074 184.894 78.8521C185.025 78.7905 185.182 78.8521 185.24 78.9838L186.767 82.4061C186.829 82.5379 186.767 82.6951 186.635 82.7503C186.599 82.7652 186.563 82.7715 186.529 82.7715V82.7758H186.527Z" fill="black"/>
<path d="M182.385 105.355C182.291 105.355 182.204 105.304 182.153 105.219L179.774 100.883C179.702 100.756 179.753 100.594 179.878 100.528C180.005 100.458 180.167 100.507 180.235 100.632L182.614 104.968C182.686 105.096 182.635 105.257 182.51 105.323C182.472 105.344 182.427 105.355 182.385 105.355Z" fill="black"/>
<path d="M152.818 188.539C158.114 188.539 162.41 181.019 162.41 171.744C162.41 162.469 158.116 154.949 152.818 154.949C147.52 154.949 143.227 162.469 143.227 171.744C143.227 181.019 147.52 188.539 152.818 188.539Z" fill="black" stroke="black" stroke-miterlimit="10"/>
<path d="M186.969 188.714H251.351L279.998 137.543H215.614L186.971 188.714H186.969Z" fill="#10069F"/>
<path d="M189.204 185.039H142.296V188.714H189.204V185.039Z" fill="#10069F"/>
<path d="M194.383 149.874C194.383 149.874 182.37 142.881 173.698 147.869L194.383 149.874Z" fill="black"/>
<path d="M197.778 145.878C195.192 144.181 189.841 142.093 177.269 143.036C162.214 144.164 151.306 154.048 148.88 156.43C145.995 158.709 143.866 163.412 143.35 169.059C145.096 169.012 147.117 168.923 149.413 168.759C155.726 168.315 159.402 167.251 161.847 166.053C165.598 164.207 166.439 162.036 169.452 161.248C173.057 160.302 177.278 164.587 179.324 167.011C179.997 167.808 180.981 168.252 182.007 168.252C182.217 168.252 182.431 168.235 182.64 168.194C183.687 168.003 184.303 166.896 183.902 165.911C182.249 161.87 179.638 159.425 177.123 157.949C181.337 159.663 184.133 163.228 185.52 165.394C186.232 166.512 187.447 167.204 188.773 167.241C189.75 167.266 190.478 166.344 190.219 165.401C188.021 157.386 182.657 154.121 178.079 152.823C184.367 151.482 190.198 154.422 193.17 156.338C194.459 157.171 196.131 157.103 197.338 156.158L197.37 156.132C198.243 155.446 198.313 154.159 197.538 153.369C195.549 151.348 193.444 149.885 191.324 148.844C192.887 149.303 194.26 149.815 195.288 150.231C196.439 150.7 197.756 150.305 198.455 149.277C199.214 148.155 198.918 146.624 197.786 145.882L197.78 145.878H197.778Z" fill="white" stroke="black" stroke-miterlimit="10"/>
<path d="M191.315 148.843C191.315 148.843 184.042 145.204 173.698 147.872L191.315 148.843Z" fill="white"/>
<path d="M191.315 148.843C191.315 148.843 184.042 145.204 173.698 147.872" stroke="black" stroke-linecap="round" stroke-linejoin="round"/>
<path d="M110.54 171.691C110.54 171.691 117.558 164.262 150.475 154.949" stroke="black" stroke-linecap="round" stroke-linejoin="round"/>
<path d="M177.118 157.947C177.118 157.947 175.009 157.025 172.577 157.182L177.118 157.947Z" fill="white"/>
<path d="M177.118 157.947C177.118 157.947 175.009 157.025 172.577 157.182" stroke="black" stroke-linecap="round" stroke-linejoin="round"/>
<path d="M178.074 152.82C178.074 152.82 175.132 152.293 173.7 152.82H178.074Z" fill="white"/>
<path d="M178.074 152.82C178.074 152.82 175.132 152.293 173.7 152.82" stroke="black" stroke-linecap="round" stroke-linejoin="round"/>
<path d="M140.119 115.227C140.119 115.227 146.046 116.546 150.294 137.492" stroke="black" stroke-linecap="round" stroke-linejoin="round"/>
<path d="M232.812 106.957L223.584 120.944" stroke="black" stroke-linecap="round" stroke-linejoin="round"/>
<path d="M239.051 158.211C238.907 158.11 238.684 158.127 238.554 158.245L237.726 159.006C237.596 159.125 237.607 159.31 237.747 159.412C237.747 159.412 239.026 160.353 239.026 162.373C239.026 164.393 237.681 165.392 237.681 165.392C237.545 165.504 237.539 165.693 237.67 165.812L238.493 166.562C238.62 166.681 238.847 166.698 238.992 166.598C238.992 166.598 240.921 165.283 240.921 162.382C240.921 159.48 239.056 158.214 239.056 158.214" fill="#FF3D00"/>
<path d="M234.834 160.348C234.58 159.802 234.044 159.396 233.235 159.396C232.425 159.396 231.892 159.802 231.635 160.348C231.487 160.683 231.431 160.93 231.414 161.335H235.058C235.038 160.93 234.983 160.683 234.837 160.348M231.659 162.905C231.659 162.905 231.419 162.882 231.419 163.075C231.419 164.171 232.232 164.949 233.511 164.949C234.461 164.949 234.866 164.722 235.44 164.29C235.574 164.188 235.714 164.097 235.824 164.214C235.899 164.295 236.906 165.227 236.906 165.227C237.033 165.346 236.997 165.486 236.863 165.601C236.729 165.716 235.225 166.888 233.494 166.888C231.229 166.888 229.061 165.901 229.061 162.179C229.061 159.181 230.754 157.488 233.237 157.488C235.905 157.488 237.413 159.358 237.413 161.879V162.517C237.413 162.776 237.203 162.903 237.029 162.903H231.659V162.905Z" fill="white"/>
</svg>
