<svg width="48" height="48" viewBox="0 0 48 48" fill="none" xmlns="http://www.w3.org/2000/svg">
<path fill-rule="evenodd" clip-rule="evenodd" d="M12 4.5C12 2.01472 14.0147 0 16.5 0H40.5C44.6421 0 48 3.35786 48 7.5V30C48 34.1421 44.6421 37.5 40.5 37.5H36V40.5C36 44.6421 32.6421 48 28.5 48H7.5C3.35786 48 0 44.6421 0 40.5V15C0 12.5147 2.01472 10.5 4.5 10.5H12V4.5ZM15 10.5H28.5C32.6421 10.5 36 13.8579 36 18V34.5H40.5C42.9853 34.5 45 32.4853 45 30V7.5C45 5.01472 42.9853 3 40.5 3H16.5C15.6716 3 15 3.67157 15 4.5V10.5ZM3 15C3 14.1716 3.67157 13.5 4.5 13.5H28.5C30.9853 13.5 33 15.5147 33 18V40.5C33 42.9853 30.9853 45 28.5 45H7.5C5.01472 45 3 42.9853 3 40.5V15Z" fill="#002EFF"/>
<path fill-rule="evenodd" clip-rule="evenodd" d="M7.5 22.5C6.67157 22.5 6 23.1716 6 24C6 24.8284 6.67157 25.5 7.5 25.5H25.5C26.3284 25.5 27 24.8284 27 24C27 23.1716 26.3284 22.5 25.5 22.5H7.5ZM7.5 33C6.67157 33 6 33.6716 6 34.5C6 35.3284 6.67157 36 7.5 36H18C18.8284 36 19.5 35.3284 19.5 34.5C19.5 33.6716 18.8284 33 18 33H7.5Z" fill="#FD6C98"/>
</svg>
