<svg width="350" height="240" viewBox="0 0 350 240" fill="none" xmlns="http://www.w3.org/2000/svg">
<mask id="mask0_6587_33334" style="mask-type:alpha" maskUnits="userSpaceOnUse" x="0" y="0" width="350" height="240">
<rect width="350" height="240" rx="16" fill="#D9D9D9"/>
</mask>
<g mask="url(#mask0_6587_33334)">
<path d="M191.538 777.804C179.507 787.24 159.955 785.668 147.923 774.659L75.7331 705.46C65.2053 694.452 65.2053 678.725 77.2371 669.289C77.2371 669.289 188.53 584.363 188.53 400.359C188.53 227.363 71.2212 126.711 71.2212 126.711C59.1895 117.275 59.1895 99.9757 69.7172 88.9669L140.404 21.3413C150.931 10.3325 170.483 8.75977 184.019 18.1959C184.019 18.1959 350.959 137.72 350.959 400.359C353.967 659.852 191.538 777.804 191.538 777.804Z" fill="#FF3D00"/>
</g>
<g clip-path="url(#clip0_6587_33334)">
<path d="M153.388 217.722C153.369 217.722 153.347 217.722 153.328 217.715C153.136 217.683 153.004 217.5 153.039 217.306L163.141 157.717C163.771 154.017 166.66 151.33 170.016 151.33H191.899C192.093 151.33 192.255 151.487 192.255 151.686C192.255 151.884 192.097 152.041 191.899 152.041H170.016C167.007 152.041 164.408 154.481 163.84 157.84L153.737 217.429C153.709 217.601 153.556 217.724 153.388 217.724V217.722Z" fill="black"/>
<path d="M162.853 151.688H213.162C214.673 151.688 215.899 150.464 215.899 148.952C215.899 147.439 214.675 146.215 213.162 146.215H162.853C161.342 146.215 160.116 147.439 160.116 148.952C160.116 150.464 161.34 151.688 162.853 151.688Z" fill="black"/>
<path d="M132.369 186.889L125.764 210.201L117.359 207.535L121.898 181.715L132.369 186.887V186.889Z" fill="white" stroke="black" stroke-linecap="round" stroke-linejoin="round"/>
<path d="M164.87 181.701L172.726 204.626L164.303 207.224L153.315 183.419L164.87 181.701Z" fill="white" stroke="black" stroke-linecap="round" stroke-linejoin="round"/>
<path d="M172.313 196.105L177.211 217.371H143.398L142.383 213.248C141.98 211.615 143.046 209.979 144.701 209.688L155.646 207.755L159.073 204.861L153.16 200.284L172.308 196.105H172.311H172.313Z" fill="white" stroke="black" stroke-linecap="round" stroke-linejoin="round"/>
<path d="M131.742 196.002L127.936 206.468L131.304 217.368H97.4886L96.4737 213.245C96.0707 211.612 97.1374 209.976 98.7924 209.686L109.737 207.753L114.687 204.501L114.34 193.857L131.737 196.002H131.739H131.742Z" fill="white" stroke="black" stroke-linecap="round" stroke-linejoin="round"/>
<path d="M166.68 70.8147C166.68 70.8147 166.613 72.7713 167.781 73.5277C168.089 73.7281 167.949 74.1936 167.583 74.1764C166.908 74.1441 166.167 73.8811 165.579 73.0774C164.133 71.1013 166.682 70.8125 166.682 70.8125H166.68V70.8147Z" fill="black"/>
<path d="M166.376 69.8206C166.69 70.3658 167.576 71.6545 168.854 71.4971C169.1 71.4691 169.225 71.7881 169.02 71.926C168.358 72.3613 167.412 72.6673 166.294 72.1027C164.572 71.2342 165.533 70.1697 166.02 69.7581C166.132 69.6633 166.3 69.6956 166.376 69.8206Z" fill="black"/>
<path d="M159.036 122.061L165.841 124.998L167.033 128.275L158.452 128.372L159.036 122.061Z" fill="black"/>
<path d="M216.67 128.372V95.0546C216.67 87.6135 210.641 81.584 203.2 81.584H185.936C178.502 81.584 172.474 87.6071 172.466 95.0416L172.429 128.374H216.67V128.372Z" fill="black"/>
<path d="M211.781 128.372V95.0545C211.781 87.6134 205.85 82.1162 198.414 82.1162L180.571 82.0645C173.136 82.0645 167.585 87.6091 167.581 95.0437L167.544 128.376H211.785H211.783L211.781 128.372Z" fill="white"/>
<path d="M209.818 120.045L192.449 84.6458C191.128 81.9521 188.402 80.2281 185.402 80.1872L169.039 79.9609L169.968 81.1397L165.874 80.8358L155.274 80.8876C152.416 80.9026 149.787 82.4499 148.389 84.9432L130.505 116.83C127.951 121.381 131.166 128.103 136.383 128.146L147.716 128.236L154.886 118.045L144.495 116.166L154.22 100.168L162.932 131.785L200.228 137.933L200.528 128.217L209.363 128.191C209.363 128.191 212.029 125.189 209.815 120.047L209.818 120.045Z" fill="white" stroke="black" stroke-linecap="round" stroke-linejoin="round"/>
<path d="M169.156 79.6533L165.253 72.4903C165.947 71.5637 166.445 70.4689 166.658 69.204C167.445 64.4976 164.525 60.0886 160.139 59.3559C155.752 58.6232 151.558 61.8427 150.772 66.5513C149.985 71.2577 152.244 76.2399 156.735 76.2615C157.689 76.2679 158.653 76.1623 159.588 75.9447L163.105 80.6769L161.083 80.8623C161.083 80.8623 162.902 83.8253 166.022 84.1227C170.289 84.5278 173.246 80.0649 173.246 80.0649L169.16 79.6555L169.156 79.6533Z" fill="white" stroke="black" stroke-miterlimit="10"/>
<path d="M167.731 68.6099C168.518 63.9035 165.221 59.8781 160.816 59.251C156.086 58.5786 152.632 60.8758 150.953 62.4856C150.182 63.2226 155.019 62.1365 155.019 62.1365C155.019 62.1365 157.082 64.2009 159.023 62.8972C159.023 62.8972 158.129 68.1531 162.376 68.3535L165.113 72.6634C165.88 71.7001 167.507 69.9589 167.731 68.6121H167.729L167.731 68.6099Z" fill="black"/>
<path d="M166.281 68.6318C166.712 67.3388 166.074 65.9618 164.857 65.5545C163.639 65.1494 162.303 65.867 161.872 67.1578C161.441 68.4508 162.079 69.8278 163.297 70.2351C164.514 70.6402 165.85 69.9226 166.281 68.6318Z" fill="white"/>
<path d="M162.525 68.0202C162.467 68.0202 162.411 67.9857 162.385 67.9297C162.35 67.8521 162.385 67.7616 162.463 67.7271L164.964 66.5915C165.042 66.557 165.133 66.5915 165.167 66.6691C165.201 66.7466 165.167 66.8372 165.089 66.8716L162.588 68.0073C162.568 68.0159 162.544 68.0224 162.525 68.0224V68.0202Z" fill="black"/>
<path d="M163.659 69.0897C163.6 69.0897 163.544 69.0552 163.518 69.0013L162.984 67.8312C162.95 67.7536 162.984 67.6631 163.062 67.6286C163.139 67.5941 163.23 67.6286 163.264 67.7062L163.799 68.872C163.833 68.9496 163.799 69.0401 163.721 69.0746C163.702 69.0832 163.678 69.0897 163.659 69.0897Z" fill="black"/>
<path d="M125.721 125.838H121.751C121.706 125.838 121.672 125.875 121.672 125.918V126.991C121.672 127.036 121.708 127.071 121.751 127.071H125.721C125.766 127.071 125.8 127.034 125.8 126.991V125.918C125.8 125.875 125.764 125.838 125.721 125.838Z" fill="black"/>
<path d="M130.761 125.838H126.792C126.746 125.838 126.712 125.875 126.712 125.918V126.991C126.712 127.036 126.749 127.071 126.792 127.071H130.761C130.806 127.071 130.841 127.034 130.841 126.991V125.918C130.841 125.875 130.804 125.838 130.761 125.838Z" fill="black"/>
<path d="M131.836 125.838H135.806C135.851 125.838 135.885 125.875 135.885 125.918V126.991C135.885 127.036 135.849 127.071 135.806 127.071H131.836C131.791 127.071 131.757 127.034 131.757 126.991V125.918C131.757 125.872 131.793 125.838 131.836 125.838Z" fill="black"/>
<path d="M140.846 125.838H136.877C136.832 125.838 136.797 125.875 136.797 125.918V126.991C136.797 127.036 136.834 127.071 136.877 127.071H140.846C140.892 127.071 140.926 127.034 140.926 126.991V125.918C140.926 125.875 140.889 125.838 140.846 125.838Z" fill="black"/>
<path d="M145.889 125.838H141.919C141.874 125.838 141.84 125.875 141.84 125.918V126.991C141.84 127.036 141.876 127.071 141.919 127.071H145.889C145.934 127.071 145.968 127.034 145.968 126.991V125.918C145.968 125.875 145.932 125.838 145.889 125.838Z" fill="black"/>
<path d="M146.505 126.562H120.432C120.325 126.562 120.238 126.649 120.238 126.756V128.181C120.238 128.289 120.325 128.375 120.432 128.375H146.505C146.613 128.375 146.699 128.289 146.699 128.181V126.756C146.699 126.649 146.613 126.562 146.505 126.562Z" fill="#002EFF"/>
<path d="M154.401 121.309H150.791C146.891 121.309 143.727 124.472 143.727 128.373H161.465C161.465 124.472 158.301 121.309 154.401 121.309H154.399H154.401Z" fill="#002EFF"/>
<path d="M150.483 128.528C150.397 128.528 150.328 128.459 150.328 128.372V123.175C150.328 123.088 150.397 123.02 150.483 123.02C150.569 123.02 150.638 123.088 150.638 123.175V128.372C150.638 128.459 150.569 128.528 150.483 128.528Z" fill="black"/>
<path d="M202.314 122.462H202.297L196.097 121.77C196.011 121.761 195.95 121.684 195.959 121.598C195.968 121.512 196.045 121.451 196.131 121.46L202.331 122.152C202.417 122.16 202.478 122.238 202.469 122.324C202.461 122.404 202.394 122.462 202.318 122.462H202.316H202.314Z" fill="white"/>
<path d="M177.368 120.289L165.844 118.567C162.818 117.41 158.75 116.24 154.509 116.139C147.785 115.981 145.195 119.007 144.389 120.319C144.318 120.434 144.286 120.563 144.286 120.69C143.973 121.039 143.745 121.362 143.587 121.619C143.378 121.959 143.482 122.395 143.835 122.679C144.406 123.142 145.251 123.228 145.859 122.89C146.035 122.793 146.238 122.688 146.464 122.578C146.419 122.657 146.376 122.733 146.341 122.806C146.106 123.269 146.365 123.841 146.921 124.11C147.369 124.328 147.908 124.293 148.261 124.022C148.281 124.006 148.305 123.989 148.324 123.976C148.369 124.207 148.539 124.429 148.802 124.554C149.391 124.84 150.095 124.797 150.572 124.455C151.13 124.054 152.043 123.511 153.414 123.013C156.019 122.067 160.622 125.649 164.844 126.571C166.132 126.851 173.005 125.737 174.83 124.83C178.566 122.974 177.364 120.287 177.364 120.287L177.368 120.289Z" fill="white" stroke="black" stroke-linecap="round" stroke-linejoin="round"/>
<path d="M198.207 128.189H168.535L169.871 118.229L195.05 121.375" fill="white"/>
<path d="M104.546 126.266L100.391 126.141L105.415 100.49L107.21 101.949L104.544 126.266H104.546Z" fill="black"/>
<path d="M111.375 92.5273H108.033C107.804 92.5273 107.619 92.7127 107.619 92.9411V112.043C107.619 112.271 107.804 112.456 108.033 112.456H111.375C111.604 112.456 111.789 112.271 111.789 112.043V92.9411C111.789 92.7127 111.604 92.5273 111.375 92.5273Z" fill="black"/>
<path d="M114.517 66.2363H110.102C109.88 66.2363 109.701 66.4152 109.701 66.6371V116.643C109.701 116.865 109.88 117.044 110.102 117.044H114.517C114.739 117.044 114.918 116.865 114.918 116.643V66.6371C114.918 66.4152 114.739 66.2363 114.517 66.2363Z" fill="#002EFF"/>
<path d="M105.516 99.0352H109.022C109.205 99.0352 109.356 99.1838 109.356 99.3692V101.617C109.356 101.8 109.207 101.951 109.022 101.951H105.516C105.333 101.951 105.182 101.802 105.182 101.617V99.3692C105.182 99.186 105.33 99.0352 105.516 99.0352Z" fill="black"/>
<path d="M115.084 126.357H96.2344C96.0556 126.357 95.9112 126.502 95.9112 126.681V127.896C95.9112 128.075 96.0556 128.219 96.2344 128.219H115.084C115.263 128.219 115.407 128.075 115.407 127.896V126.681C115.407 126.502 115.263 126.357 115.084 126.357Z" fill="#002EFF"/>
<path d="M190.811 149.293L155.866 149.784L145.441 131.782L182.956 130.523L198.769 133.321L199.633 138.837C200.484 144.278 196.319 149.213 190.811 149.291V149.293Z" fill="#002EFF"/>
<path d="M217.494 128.373C217.494 128.373 193.513 131.72 188.456 151.685L216.797 151.048L217.491 141.725V128.371L217.494 128.373Z" fill="black"/>
<path d="M188.455 152.04C188.436 152.04 188.412 152.04 188.393 152.033C188.201 151.999 188.072 151.813 188.106 151.622C191.559 132.507 217.179 128.126 217.435 128.083C217.627 128.051 217.81 128.182 217.84 128.374C217.873 128.566 217.741 128.749 217.549 128.779C217.295 128.82 192.164 133.123 188.802 151.744C188.77 151.917 188.621 152.035 188.453 152.035L188.455 152.04Z" fill="black"/>
<path d="M167.602 131.024L143.648 131.412C137.493 131.511 133.325 137.719 135.567 143.453L154.765 193.431L171.862 190.755L155.864 149.78L183.439 149.392L167.602 131.021V131.024Z" fill="#002EFF"/>
<path d="M145.438 131.781L133.545 131.958C130.373 132.061 127.714 134.378 127.175 137.503L119.469 188.415L134.952 191.48L143.378 146.25L145.436 131.781H145.438Z" fill="#002EFF"/>
<path d="M221.603 217.722C221.435 217.722 221.286 217.599 221.254 217.427L211.151 157.838C210.583 154.479 207.984 152.039 204.975 152.039H169.781C169.587 152.039 169.425 151.882 169.425 151.684C169.425 151.485 169.582 151.328 169.781 151.328H204.975C208.328 151.328 211.22 154.013 211.85 157.715L221.952 217.304C221.984 217.496 221.855 217.679 221.663 217.713C221.644 217.716 221.622 217.72 221.603 217.72V217.722Z" fill="black"/>
<path d="M210.042 217.722C209.874 217.722 209.725 217.599 209.692 217.427L199.59 157.838C199.021 154.479 196.422 152.039 193.414 152.039H171.53C171.337 152.039 171.175 151.882 171.175 151.684C171.175 151.485 171.332 151.328 171.53 151.328H193.414C196.767 151.328 199.659 154.013 200.288 157.715L210.391 217.304C210.423 217.496 210.294 217.679 210.102 217.713C210.083 217.716 210.061 217.72 210.042 217.72V217.722Z" fill="black"/>
<path d="M86.2743 217.367H91.3557V133.119H86.2743V217.367Z" fill="white"/>
<path d="M91.3578 217.721H86.2765C86.0825 217.721 85.9209 217.563 85.9209 217.365V133.117C85.9209 132.923 86.0782 132.762 86.2765 132.762H91.3578C91.5518 132.762 91.7134 132.919 91.7134 133.117V217.369C91.7134 217.563 91.5561 217.725 91.3578 217.725V217.721Z" fill="white" stroke="black" stroke-linecap="round" stroke-linejoin="round"/>
<path d="M213.36 217.367H218.442V133.119H213.36V217.367Z" fill="white" stroke="black" stroke-linecap="round" stroke-linejoin="round"/>
<path d="M71.5172 133.121H233.199V128.18H71.5172V133.121Z" fill="white"/>
<path d="M233.199 133.471H71.5172C71.3232 133.471 71.1616 133.313 71.1616 133.115V128.174C71.1616 127.98 71.3189 127.818 71.5172 127.818H233.199C233.393 127.818 233.554 127.976 233.554 128.174V133.115C233.554 133.309 233.397 133.471 233.199 133.471Z" fill="white" stroke="black" stroke-linecap="round" stroke-linejoin="round"/>
<path d="M197.032 82.8476C197.032 82.8476 183.18 79.3243 177.564 73.618C177.248 73.2948 176.735 73.2797 176.401 73.5835C175.825 74.1093 175.787 74.9993 176.312 75.5747C177.342 76.7017 179.181 78.5033 181.525 79.9105C180.974 80.1087 180.396 80.4449 179.847 80.9922C178.377 82.4533 179.734 84.494 180.928 85.6168C181.383 86.0456 182.215 86.4507 182.713 86.1339C183.081 86.5369 183.456 86.8688 183.756 87.0864C184.111 87.5778 184.525 88.0281 184.9 88.3708C185.301 88.7393 185.926 88.7134 186.298 88.3169L186.602 87.9915C186.602 87.9915 186.604 87.9894 186.609 87.985C186.818 87.7588 186.87 87.4312 186.751 87.1468L186.182 85.7762L187.031 85.9615C187.031 85.9615 187.632 87.5347 190.419 87.7609C192.757 87.9527 193.811 87.692 193.811 87.692L194.451 86.7309L197.039 82.8476H197.032Z" fill="white" stroke="black" stroke-linecap="round" stroke-linejoin="round"/>
<path d="M265.219 126.686L262.989 207.059L253.977 207.593L249.068 132.222L265.221 126.686H265.219Z" fill="white" stroke="black" stroke-miterlimit="10"/>
<path d="M228.852 75.2294L225.389 136.464L240.864 135.73L234.748 71.8418L228.852 75.2294Z" fill="#42E8B4"/>
<path d="M235.595 107.143L221.939 208.856L231.947 207.598L249.249 123.029L235.595 107.143Z" fill="white" stroke="black" stroke-miterlimit="10"/>
<path d="M235.882 106.281L249.249 123.025L246.473 132.716L231.654 127.751L235.884 106.279L235.882 106.281Z" fill="white" stroke="black" stroke-linecap="round" stroke-linejoin="round"/>
<path d="M238.108 41.7305L234.453 36.1772C235.373 35.2161 236.045 34.0244 236.332 32.5634C237.248 27.8957 234.436 23.4156 230.05 22.5558C225.667 21.696 221.368 24.784 220.454 29.4495C219.539 34.1171 221.288 39.7889 226.124 39.47C227.286 39.3924 228.469 39.2049 229.604 38.886L232.755 43.1614L238.11 41.7327H238.108V41.7305Z" fill="white" stroke="black" stroke-miterlimit="10"/>
<path d="M241.336 43.0397L238.881 39.2793L230.255 42.4686L230.091 47.5392L241.334 43.0418L241.336 43.0397Z" fill="#42E8B4"/>
<path d="M241.03 43.1621L276.196 71.4544C279.89 74.4261 279.942 80.0333 276.302 83.0718L263.146 93.1311L260.513 80.0204L264.258 76.9345L245.348 62.9165L241.034 43.1643H241.032L241.03 43.1621Z" fill="#42E8B4"/>
<path d="M192.781 90.4888L191.903 79.2507L215.315 78.4642L230.598 45.1207L240.75 42.8105C240.75 42.8105 252.473 53.1306 258.782 73.6694C265.09 94.2082 269.835 127.94 269.835 127.94L238.336 140.637L231.147 74.943L222.474 88.2972C221.301 90.1052 219.273 91.1719 217.121 91.1137L192.781 90.491H192.783L192.781 90.4888Z" fill="#42E8B4"/>
<path d="M220.911 26.31C223.038 23.0043 226.975 21.9527 230.048 22.5561C234.431 23.4159 237.98 27.6805 236.929 32.318C236.489 34.2617 240.041 37.8713 244.163 39.2742C244.924 39.5349 243.988 40.1512 242.394 40.8602C242.099 40.9916 238.674 39.9573 238.343 40.0909C237.983 40.2374 239.933 41.8407 239.541 41.9872C236.55 43.1164 233.709 43.9224 233.166 44C231.184 44.2909 232.067 33.7316 232.067 33.7316L231.656 30.0941C228.007 30.1048 228.714 25.7303 228.714 25.7303L228.197 28.1697L225.381 27.0405V25.4782L224.156 26.8573L220.913 26.3057L220.911 26.31Z" fill="black"/>
<path d="M229.559 30.859C229.863 29.4713 231.141 28.5748 232.412 28.8506C233.684 29.1265 234.474 30.4776 234.171 31.8654C233.867 33.2532 232.589 34.1496 231.317 33.8738C230.046 33.5958 229.255 32.2468 229.559 30.859Z" fill="white"/>
<path d="M263.325 203.131L260.875 206.499L255.679 203.943L250.1 206.281L246.738 207.092C245.12 207.48 243.973 208.921 243.956 210.589L243.887 217.164L266.788 217.076L263.327 203.133H263.325V203.131Z" fill="white" stroke="black" stroke-miterlimit="10"/>
<path d="M249.844 206.294C251.289 205.742 252.38 204.344 252.561 202.805C252.755 201.159 254.793 200.105 256.33 200.732C257.866 201.359 258.627 203.309 258.121 204.887C257.614 206.464 256.045 207.574 254.395 207.764C252.748 207.953 249.846 206.294 249.846 206.294H249.844Z" fill="white" stroke="black" stroke-miterlimit="10"/>
<path d="M223.739 202.453L227.536 207.261L233.126 206.257L232.309 217.372L201.478 210.547L203.107 205.752C203.842 203.593 206.238 202.356 208.645 202.895L212.395 203.733L223.739 202.457V202.453Z" fill="white" stroke="black" stroke-miterlimit="10"/>
<path d="M212.395 203.724C216.806 202.938 220.853 202.849 223.215 199.611C223.687 198.962 224.771 198.796 225.482 199.261C226.191 199.727 226.4 200.742 225.917 201.384C222.984 205.276 216.821 206.407 212.397 203.726H212.395V203.724Z" fill="white" stroke="black" stroke-miterlimit="10"/>
<path d="M84.5783 119.502C85.2097 119.694 85.8756 119.334 86.0652 118.699L90.5777 103.648C90.7673 103.013 90.4096 102.347 89.7761 102.155C89.1447 101.963 88.4788 102.323 88.2891 102.959L83.7767 118.009C83.587 118.645 83.9448 119.311 84.5783 119.502Z" fill="#42E8B4"/>
<path d="M90.0972 105.258L87.8086 104.568L88.1405 103.465L90.429 104.154L90.0972 105.258Z" fill="black"/>
<path d="M86.1622 118.091L84.1301 118.335C84.0353 118.346 83.9513 118.279 83.9383 118.184L81.8157 100.546C81.8049 100.451 81.8717 100.367 81.9666 100.354L83.9987 100.111C84.0935 100.1 84.1775 100.167 84.1905 100.261L86.3131 117.9C86.3239 117.994 86.2571 118.078 86.1622 118.091Z" fill="#42E8B4"/>
<path d="M84.3822 101.801L82.0096 102.087L82.1476 103.232L84.5202 102.947L84.3822 101.803V101.801Z" fill="black"/>
<path d="M81.1067 127.789H90.7393C90.9591 127.789 91.1358 127.61 91.1358 127.393V109.623C91.1358 109.403 90.957 109.227 90.7393 109.227H81.1067C80.8869 109.227 80.7102 109.405 80.7102 109.623V127.393C80.7102 127.613 80.8891 127.789 81.1067 127.789Z" fill="#002EFF"/>
<path d="M96.4758 213.248L129.615 213.595" stroke="black" stroke-linecap="round" stroke-linejoin="round"/>
<path d="M142.383 213.248H175.944" stroke="black" stroke-linecap="round" stroke-linejoin="round"/>
<path d="M202.17 208.506L232.466 215.216" stroke="black" stroke-linecap="round" stroke-linejoin="round"/>
<path d="M243.905 215.217H266.325" stroke="black" stroke-miterlimit="10"/>
<path d="M179.844 80.992C179.844 80.992 181.805 78.2725 187.201 80.6925" stroke="black" stroke-linecap="round" stroke-linejoin="round"/>
<path d="M182.835 86.0364C182.835 86.0364 179.862 83.2889 182.331 81.5843C182.331 81.5843 184.072 80.3969 187.201 81.8817" stroke="black" stroke-linecap="round" stroke-linejoin="round"/>
<path d="M183.753 87.0853C183.753 87.0853 181.689 84.521 183.893 83.3745C184.148 83.2431 184.426 83.1569 184.708 83.1052C185.24 83.006 186.21 82.8983 187.322 83.1332" stroke="black" stroke-linecap="round" stroke-linejoin="round"/>
<path d="M230.867 32.3503L232.983 30.2363" stroke="black" stroke-linecap="round" stroke-linejoin="round"/>
<path d="M231.794 31.4902L232.651 32.9448" stroke="black" stroke-linecap="round" stroke-linejoin="round"/>
<path d="M229.887 46.2528C229.887 46.2528 233.604 41.8157 241.336 43.0397C241.336 43.0397 250.966 51.9698 258.455 72.9871" stroke="black" stroke-linecap="round" stroke-linejoin="round"/>
<path d="M215.313 78.4609L215.586 83.691" stroke="black" stroke-linecap="round" stroke-linejoin="round"/>
<path d="M228.872 78.0899L240.625 61.9902" stroke="black" stroke-linecap="round" stroke-linejoin="round"/>
<path d="M231.145 75.2227L235.089 110.413L231.651 127.752" stroke="black" stroke-linecap="round" stroke-linejoin="round"/>
<path d="M260.403 79.6797C260.403 79.6797 264.321 95.6759 265.676 103.113" stroke="black" stroke-linecap="round" stroke-linejoin="round"/>
<path d="M263.976 77.1479L267.993 74.0254" stroke="black" stroke-linecap="round" stroke-linejoin="round"/>
<path d="M168.535 128.19L170.003 118.402L194.782 121.186L183.531 98.0703" stroke="black" stroke-linecap="round" stroke-linejoin="round"/>
<path d="M199.211 124.131L194.782 121.186" stroke="black" stroke-linecap="round" stroke-linejoin="round"/>
<path d="M136.797 116.433L144.495 116.168" stroke="black" stroke-linecap="round" stroke-linejoin="round"/>
<path d="M148.33 123.978C148.33 123.978 149.634 118.53 158.941 119.843" stroke="black" stroke-linecap="round" stroke-linejoin="round"/>
<path d="M146.346 122.711C146.346 122.711 148.305 116.86 158.935 118.724" stroke="black" stroke-linecap="round" stroke-linejoin="round"/>
<path d="M144.092 120.921C144.092 120.921 148.352 114.922 158.062 117.333" stroke="black" stroke-linecap="round" stroke-linejoin="round"/>
<path d="M137.963 133.641C137.963 133.641 134.015 135.615 134.83 141.685C134.955 142.627 135.222 143.54 135.575 144.422L143.098 163.066" stroke="black" stroke-linecap="round" stroke-linejoin="round"/>
<path d="M120.9 213.585L125.29 195.373" stroke="black" stroke-linecap="round" stroke-linejoin="round"/>
<path d="M167.065 197.25L171.179 213.248" stroke="black" stroke-linecap="round" stroke-linejoin="round"/>
<path d="M253.324 207.836C253.324 207.836 255.563 211.107 254.992 215.217" stroke="black" stroke-linecap="round" stroke-linejoin="round"/>
<path d="M211.727 203.537C211.727 203.537 213.966 206.808 213.395 210.918" stroke="black" stroke-linecap="round" stroke-linejoin="round"/>
<path d="M214.149 206.689L212.617 201.179L218.698 205.935L218.899 200.314L223.471 204.825" stroke="black" stroke-linecap="round" stroke-linejoin="round"/>
<path d="M253.449 208.297L246.88 205.668L256.558 207.283L250.759 203.119L257.897 206.093" stroke="black" stroke-linecap="round" stroke-linejoin="round"/>
</g>
<defs>
<clipPath id="clip0_6587_33334">
<rect width="208" height="208" fill="white" transform="translate(71 16)"/>
</clipPath>
</defs>
</svg>
