<svg width="350" height="239" viewBox="0 0 350 239" fill="none" xmlns="http://www.w3.org/2000/svg">
<mask id="mask0_2_1970" style="mask-type:alpha" maskUnits="userSpaceOnUse" x="0" y="0" width="350" height="239">
<rect width="350" height="239" fill="#F30707"/>
</mask>
<g mask="url(#mask0_2_1970)">
<mask id="mask1_2_1970" style="mask-type:alpha" maskUnits="userSpaceOnUse" x="0" y="0" width="350" height="240">
<rect width="350" height="240" rx="16" fill="#D9D9D9"/>
</mask>
<g mask="url(#mask1_2_1970)">
<path d="M191.538 777.804C179.507 787.24 159.955 785.668 147.923 774.659L75.7331 705.46C65.2053 694.452 65.2053 678.725 77.2371 669.289C77.2371 669.289 188.53 584.363 188.53 400.359C188.53 227.363 71.2212 126.711 71.2212 126.711C59.1895 117.275 59.1895 99.9757 69.7172 88.9669L140.404 21.3413C150.931 10.3325 170.483 8.75977 184.019 18.1959C184.019 18.1959 350.959 137.72 350.959 400.359C353.967 659.852 191.538 777.804 191.538 777.804" fill="#FF3D00"/>
</g>
</g>
<g clip-path="url(#clip0_2_1970)">
<g clip-path="url(#clip1_2_1970)">
<path d="M132.637 239.332L131.532 186.563L82.7467 188.077L80.2467 239.332" fill="white"/>
<path d="M132.637 239.332L131.532 186.563L82.7467 188.077L80.2467 239.332" stroke="black" stroke-linecap="round" stroke-linejoin="round"/>
<path d="M96.2099 203.831L131.716 203.382" stroke="black" stroke-linecap="round" stroke-linejoin="round"/>
<path d="M133.591 86.9412C137.458 88.5512 131.085 92.7969 127.444 94.0878C123.803 95.3786 119.717 93.2259 118.316 89.2795C116.916 85.3331 116.608 84.8542 120.249 83.5634C123.891 82.2725 127.755 84.5111 133.591 86.9412Z" fill="black"/>
<path d="M125.299 86.9412L108.175 87.1127L110.004 99.4507C109.964 99.6642 109.95 99.9036 109.956 100.159H109.27V120.607H118.574V111.757C118.949 111.92 119.326 112.058 119.709 112.162C124.112 113.347 129.659 113.036 131.947 101.005C134.235 88.9742 125.299 86.9412 125.299 86.9412V86.9412Z" fill="white" stroke="black" stroke-miterlimit="10"/>
<path d="M112.909 83.4896C118.224 81.9194 124.264 82.0331 125.6 85.8019C126.937 89.5708 123.785 94.1257 118.564 95.9792C116.652 96.6575 114.21 96.891 111.882 96.9149C111.389 99.0278 110.904 100.674 110.904 100.674L109.274 107.914C109.274 107.914 106.321 102.465 104.921 98.517C104.623 97.675 102.295 86.6279 112.909 83.4916V83.4896Z" fill="black"/>
<path d="M113.183 96.6855C113.183 96.6855 111.836 93.5212 108.885 94.421C105.934 95.3208 106.152 100.233 108.608 101.169C111.367 102.222 113.069 100.632 113.069 100.632L113.183 96.6835V96.6855Z" fill="white"/>
<path d="M162.088 206.413H172.82L169.805 224.56L159.646 224.002L162.088 206.413Z" fill="black"/>
<path d="M200.778 239.332L204.091 227.99L173.296 210.83L168.676 239.332H200.778Z" fill="white"/>
<path d="M218.696 239.332L200.752 221.007L201.717 239.332H218.696Z" fill="white"/>
<path d="M165.691 197.073L169.434 223.303L182.953 225.971L172.117 196.048L165.691 197.073Z" fill="white" stroke="black" stroke-linecap="round" stroke-linejoin="round"/>
<path d="M173.771 239.332L174.727 235.643L174.33 223.258L169.434 223.303L171.317 239.332H173.771Z" fill="white"/>
<path d="M209.506 147.584C209.506 147.584 207.667 150.622 204.217 152.709L199.479 152.615L199.936 130.992L209.506 119.879C209.506 119.879 216.1 117.644 216.136 126.264C216.162 132.247 216.152 142.781 216.144 148.665L209.508 147.586L209.506 147.584Z" fill="black"/>
<path d="M227.919 239.334H167.247L171.387 208.697C171.387 208.697 214.953 198.005 219.843 208.697C223.776 217.286 226.297 228.397 227.921 239.334H227.919Z" fill="#42E8B4"/>
<path d="M227.919 239.334H167.247L171.387 208.697C171.387 208.697 214.953 198.005 219.843 208.697C223.776 217.286 226.297 228.397 227.921 239.334H227.919Z" fill="#42E8B4"/>
<path d="M211.475 126.445C213.169 119.033 209.029 112.477 202.42 110.987C195.81 109.496 187.941 115.633 186.249 123.045C184.613 130.212 187.837 135.609 194.527 136.578V146.295L189.685 147.165C190.082 149.323 191.734 154.768 198.286 154.75C205.378 154.73 209.712 149.11 210.733 147.628L203.928 146.297V135.401C207.625 133.801 210.484 130.796 211.477 126.445H211.475Z" fill="white" stroke="black" stroke-linecap="round" stroke-linejoin="round"/>
<path d="M194.551 112.351C197.071 110.989 199.84 110.404 202.42 110.987C209.029 112.477 213.169 119.033 211.475 126.445C211.178 127.744 210.707 128.915 210.105 129.972C209.911 129.865 209.712 129.745 209.506 129.603C202.639 124.963 204.514 114.372 204.514 114.372C201.837 111.469 197.085 111.873 194.551 112.351V112.351Z" fill="black"/>
<path d="M210.965 147.268L228.338 150.096C232.612 150.792 236.175 153.88 237.612 158.138L247.055 186.11L226.74 200.978L221.719 188.935L223.051 208.697H171.385L172.115 196.048L163.867 197.363L162.253 163.283C161.673 157.579 165.244 152.314 170.593 150.989L189.559 146.293C189.559 146.293 190.109 154.77 198.28 154.748C206.45 154.724 210.963 147.266 210.963 147.266L210.965 147.268Z" fill="white" stroke="black" stroke-linecap="round" stroke-linejoin="round"/>
<path d="M267.038 138.625C266.053 137.855 264.634 137.939 264.036 138.805C263.12 140.132 261.751 142.109 260.321 144.17C260.351 142.845 260.359 141.694 260.361 140.878C260.361 140.15 259.71 139.465 258.874 139.314C257.404 139.048 256.131 139.852 256.019 141.115C255.75 144.182 255.141 149.653 254.01 153.208C253.787 153.91 253.473 154.92 253.106 156.123C252.35 154.052 251.648 152.27 251.161 151.073C250.794 150.169 249.72 149.577 248.715 149.722C247.817 149.852 246.411 150.586 246.48 152.308C246.564 154.375 247.151 157.31 246.383 160.013C245.712 162.374 245.876 165.568 246.53 169.387L242.963 189.109L228.753 199.509L238.713 218.844C239.695 221.159 241.927 222.9 244.703 223.158C248.849 223.541 252.466 220.446 252.595 216.408L252.697 213.216L253.781 179.279C253.82 178.004 254.076 176.747 254.537 175.558C255.911 172.002 258.894 164.241 259.425 162.447C260.54 158.685 265.101 151.626 266.472 148.849C266.785 148.214 266.506 147.396 265.789 146.851C265.69 146.776 265.586 146.71 265.48 146.65C265.975 145.662 266.4 144.808 266.709 144.182C266.915 143.769 266.891 143.288 266.677 142.853C267.082 142.045 267.431 141.341 267.701 140.798C268.05 140.096 267.779 139.206 267.038 138.627V138.625Z" fill="white" stroke="black" stroke-linecap="round" stroke-linejoin="round"/>
<path d="M190.052 124.412C189.078 124.412 188.088 124.067 187.262 123.428C185.343 121.944 184.808 119.29 186.069 117.513C186.64 116.709 187.51 116.184 188.515 116.034C189.665 115.865 190.9 116.206 191.895 116.976C193.814 118.46 194.351 121.114 193.088 122.892C192.518 123.696 191.65 124.22 190.644 124.37C190.451 124.4 190.251 124.414 190.054 124.414L190.052 124.412ZM189.106 116.98C188.956 116.98 188.807 116.992 188.659 117.012C187.923 117.122 187.288 117.503 186.875 118.085C185.918 119.434 186.363 121.479 187.867 122.644C188.651 123.249 189.609 123.52 190.497 123.388C191.233 123.279 191.865 122.898 192.28 122.315C193.238 120.964 192.793 118.921 191.289 117.756C190.636 117.251 189.862 116.978 189.108 116.978L189.106 116.98ZM192.681 122.602H192.691H192.681Z" fill="black"/>
<path d="M199.259 130.415C198.156 130.415 197.017 130.012 196.051 129.266C193.906 127.608 193.242 124.739 194.571 122.87C195.143 122.062 196.031 121.531 197.067 121.375C198.357 121.182 199.764 121.585 200.919 122.479C203.064 124.137 203.728 127.006 202.4 128.875C201.825 129.685 200.937 130.216 199.902 130.37C199.69 130.401 199.475 130.415 199.259 130.415V130.415ZM197.715 122.319C197.545 122.319 197.378 122.331 197.212 122.355C196.434 122.471 195.8 122.846 195.379 123.442C194.355 124.883 194.928 127.145 196.658 128.482C197.599 129.21 198.734 129.54 199.758 129.388C200.536 129.272 201.173 128.897 201.596 128.301C202.619 126.86 202.044 124.6 200.317 123.261C199.525 122.648 198.601 122.317 197.717 122.317L197.715 122.319ZM201.999 128.588H202.009H201.999Z" fill="black"/>
<path d="M209.506 130.1C209.484 130.1 209.462 130.1 209.438 130.096L201.931 129.079C201.659 129.043 201.47 128.793 201.508 128.522C201.544 128.251 201.787 128.065 202.064 128.097L209.572 129.115C209.843 129.15 210.033 129.4 209.995 129.671C209.963 129.921 209.75 130.1 209.506 130.1V130.1Z" fill="black"/>
<path d="M194.495 124.681C194.273 124.681 194.072 124.532 194.016 124.308C193.826 123.566 193.463 122.788 193.252 122.66C193.246 122.68 193.186 122.736 193.102 122.868C192.957 123.099 192.653 123.167 192.418 123.019C192.188 122.874 192.119 122.566 192.266 122.337C192.669 121.705 193.104 121.627 193.399 121.675C194.311 121.82 194.806 123.394 194.976 124.065C195.043 124.33 194.882 124.6 194.619 124.665C194.579 124.675 194.537 124.681 194.497 124.681H194.495Z" fill="black"/>
<path d="M206.34 130.804C206.34 130.804 210.175 127.03 212.142 131.146C214.053 135.144 208.932 137.47 207.046 136.363C205.161 135.258 204.89 134.3 204.89 134.3L206.34 130.802V130.804Z" fill="white"/>
<path d="M161.302 203.621H168.875C171.696 203.621 174.144 205.367 175.387 207.931C175.186 207.907 174.982 207.895 174.777 207.895H163.488C161.337 207.895 159.596 209.816 159.596 212.188V216.853C159.596 219.571 161.593 221.773 164.057 221.773H174.779C174.984 221.773 175.19 221.761 175.389 221.737C174.146 224.301 171.698 226.047 168.877 226.047H161.304C156.791 226.047 155.268 222.621 155.268 219.391V210.277C155.268 206.602 156.657 203.621 161.304 203.621H161.302Z" fill="#10069F"/>
<path d="M176.253 211.76C176.253 210.375 175.938 209.072 175.385 207.931C178.304 208.268 180.581 210.989 180.581 214.297V215.371C180.581 218.679 178.306 221.4 175.385 221.737C175.938 220.596 176.253 219.293 176.253 217.909V211.76V211.76Z" fill="#10069F"/>
<path d="M162.088 206.413L154.949 206.317C153.762 206.301 152.798 207.428 152.808 208.819C152.818 210.251 153.854 211.384 155.073 211.299L162.197 210.804C163.243 210.732 164.031 209.667 163.947 208.442C163.867 207.306 163.061 206.424 162.09 206.413H162.088Z" fill="white" stroke="black" stroke-linecap="round" stroke-linejoin="round"/>
<path d="M162.83 215.411L154.303 215.866C153.377 215.915 152.543 215.189 152.299 214.124L152.25 213.904C151.92 212.452 152.814 211.025 154.077 210.991L162.654 210.756C163.684 210.728 164.566 211.65 164.671 212.869C164.787 214.194 163.947 215.353 162.828 215.413L162.83 215.411Z" fill="white" stroke="black" stroke-linecap="round" stroke-linejoin="round"/>
<path d="M162.798 217.194C162.682 216.195 161.936 215.463 161.042 215.472L155.362 215.532C154.442 215.542 153.658 216.336 153.546 217.372L153.491 217.889C153.353 219.16 154.265 220.229 155.39 220.115L161.126 219.539C162.165 219.435 162.932 218.359 162.798 217.194Z" fill="white" stroke="black" stroke-linecap="round" stroke-linejoin="round"/>
<path d="M162.975 220.61C162.79 219.842 162.146 219.339 161.417 219.397L156.136 219.808C155.274 219.876 154.586 220.694 154.59 221.649V222.252C154.598 223.299 155.426 224.06 156.364 223.88L161.641 222.866C162.59 222.685 163.219 221.622 162.973 220.61H162.975Z" fill="white" stroke="black" stroke-linecap="round" stroke-linejoin="round"/>
<path d="M166.615 229.221H185.772C186.278 229.221 186.688 228.811 186.688 228.305V202.336C186.688 201.831 186.278 201.421 185.772 201.421H166.615C166.109 201.421 165.699 201.831 165.699 202.336V228.305C165.699 228.811 166.109 229.221 166.615 229.221Z" fill="#10069F"/>
<path d="M119.601 196.339C118.687 196.339 117.997 195.078 117.997 193.408C117.997 191.738 118.687 190.475 119.601 190.475C120.515 190.475 121.207 191.736 121.207 193.408C121.207 195.08 120.517 196.339 119.601 196.339ZM119.601 191.217C119.25 191.217 118.739 192.069 118.739 193.406C118.739 194.743 119.25 195.595 119.601 195.595C119.952 195.595 120.463 194.741 120.463 193.406C120.463 192.071 119.952 191.217 119.601 191.217Z" fill="black"/>
<path d="M84.1413 126.836L104.093 121.228L105.288 114.546L122.029 114.069L121.824 120.21L132.123 121.703C138.437 122.616 143.555 127.291 145.035 133.496L155.733 180.22C156.755 184.679 157.636 198.576 150.029 198.41C138.76 198.167 135.191 197.803 135.191 197.803L132.735 176.982L137.595 184.931L132.348 161.608L131.811 196.838L79.9455 198.41L84.1433 126.838L84.1413 126.836Z" fill="#002EFF"/>
<path d="M101.629 211.329L132.986 197.151L116.403 145.098L85.0451 159.277L101.629 211.329Z" fill="black"/>
<path d="M88.2373 157.996L119.322 143.942L135.814 195.709L104.731 209.762L88.2373 157.996Z" fill="white"/>
<path d="M119.23 144.148L135.632 195.625L104.823 209.555L88.4209 158.078L119.23 144.148M119.413 143.737L88.0557 157.915L104.639 209.966L135.997 195.788L119.413 143.737Z" fill="black"/>
<path d="M99.9349 122.584L84.1433 126.836C77.2561 128.692 71.9789 134.234 70.4626 141.203L60.2634 196.409C59.1003 202.706 61.8556 209.082 67.2385 212.548C72.8688 216.173 80.171 215.852 85.4621 211.748L116.846 187.399L106.782 168.622L80.9072 190.166L86.2163 130.419L99.9329 122.586L99.9349 122.584Z" fill="#002EFF"/>
<path d="M130.774 168.072C130.169 167.463 129.26 167.296 128.569 167.669L128.545 167.681L130.014 166.771C131.087 166.107 131.372 164.672 130.638 163.647C130.087 162.878 129.118 162.563 128.24 162.825L129.265 162.248C130.447 161.582 130.772 160.029 129.976 158.842C129.246 157.751 127.823 157.36 126.722 157.946L126.516 158.056C127.39 157.354 127.598 156.073 126.947 155.059C126.287 154.03 124.968 153.637 123.909 154.154L122.67 154.758C122.995 153.894 123.749 150.965 117.229 154.439C109.681 158.463 109.208 168.603 109.208 168.603L108.003 170.895L113.877 181.906C113.877 181.906 115.417 179.997 117.151 179.312C119.535 178.373 124.563 175.51 126.147 173.84L130.688 170.687C131.528 170.105 131.568 168.87 130.774 168.07V168.072Z" fill="white" stroke="black" stroke-linecap="round" stroke-linejoin="round"/>
<path d="M123.956 176.352L132.378 173.197C133.779 172.673 135.391 173.566 135.959 175.184C136.544 176.848 135.79 178.602 134.309 179.025L125.658 181.489C124.387 181.85 123.011 180.952 122.6 179.496C122.221 178.145 122.807 176.781 123.954 176.352H123.956Z" fill="white" stroke="black" stroke-miterlimit="10"/>
<path d="M126.827 187.373L137.124 184.266C138.242 183.929 138.93 182.73 138.772 181.393L138.74 181.118C138.525 179.292 136.871 178.024 135.359 178.522L125.094 181.904C123.861 182.311 123.2 183.756 123.583 185.212C123.998 186.796 125.477 187.782 126.827 187.373V187.373Z" fill="white" stroke="black" stroke-miterlimit="10"/>
<path d="M127.61 189.703C127.33 188.496 127.911 187.329 128.972 186.958L135.73 184.606C136.825 184.225 138.084 184.811 138.649 185.964L138.932 186.541C139.624 187.953 138.988 189.583 137.607 189.933L130.566 191.708C129.291 192.03 127.935 191.11 127.608 189.703H127.61Z" fill="white" stroke="black" stroke-miterlimit="10"/>
<path d="M130.504 193.514C130.427 192.544 130.917 191.686 131.692 191.435L137.312 189.615C138.23 189.318 139.233 189.967 139.564 191.07L139.774 191.766C140.139 192.977 139.546 194.218 138.511 194.418L132.679 195.541C131.63 195.742 130.604 194.787 130.502 193.514H130.504Z" fill="white" stroke="black" stroke-miterlimit="10"/>
<path d="M128.545 167.681L124.32 170.209" stroke="black" stroke-linecap="round" stroke-linejoin="round"/>
<path d="M128.24 162.827L122.486 166.073" stroke="black" stroke-linecap="round" stroke-linejoin="round"/>
<path d="M126.516 158.056L120.142 161.935" stroke="black" stroke-linecap="round" stroke-linejoin="round"/>
<path d="M122.67 154.76L116.846 158.83" stroke="black" stroke-linecap="round" stroke-linejoin="round"/>
<path d="M266.717 142.923C266.717 142.923 265.213 139.988 262.956 142.825L254.894 156.007" fill="white"/>
<path d="M266.717 142.923C266.717 142.923 265.213 139.988 262.956 142.825L254.894 156.007" stroke="black" stroke-linecap="round" stroke-linejoin="round"/>
<path d="M265.478 146.648C265.478 146.648 263.736 145.092 262.031 147.895C261.556 148.675 261.087 149.455 260.578 150.213L255.893 157.186" fill="white"/>
<path d="M265.478 146.648C265.478 146.648 263.736 145.092 262.031 147.895C261.556 148.675 261.087 149.455 260.578 150.213L255.893 157.186" stroke="black" stroke-linecap="round" stroke-linejoin="round"/>
<path d="M260.321 144.17L254.245 154.818" stroke="black" stroke-linecap="round" stroke-linejoin="round"/>
<path d="M253.104 156.123L249.216 164.995" stroke="black" stroke-linecap="round" stroke-linejoin="round"/>
<path d="M80.2288 129.256C80.2288 129.256 86.9165 136.215 88.9476 148.058" stroke="black" stroke-linecap="round" stroke-linejoin="round"/>
<path d="M132.278 141.588V162.866" stroke="black" stroke-linecap="round" stroke-linejoin="round"/>
<path d="M137.204 178.73L145.3 178.945" stroke="black" stroke-linecap="round" stroke-linejoin="round"/>
<path d="M74.1795 195.409L106.784 168.622L116.802 187.688L103.177 197.875" stroke="black" stroke-linecap="round" stroke-linejoin="round"/>
<path d="M80.2467 190.423L87.0263 165.075" stroke="black" stroke-linecap="round" stroke-linejoin="round"/>
<path d="M108.749 239.332L110.012 224.453L115.258 221.205" stroke="black" stroke-linecap="round" stroke-linejoin="round"/>
<path d="M108.269 208.326L108.111 211.153" stroke="black" stroke-linecap="round" stroke-linejoin="round"/>
<path d="M115.697 204.968L115.447 215.245" stroke="black" stroke-linecap="round" stroke-linejoin="round"/>
<path d="M185.77 147.406C185.77 147.406 187.219 157.37 194.99 159.383C202.761 161.398 210.574 155.305 212.371 152.556" stroke="black" stroke-linecap="round" stroke-linejoin="round"/>
<path d="M167.487 155.79L171.044 168.303" stroke="black" stroke-linecap="round" stroke-linejoin="round"/>
<path d="M233.891 152.685L222.914 168.084" stroke="black" stroke-linecap="round" stroke-linejoin="round"/>
<path d="M172.117 196.048L172.999 178.463" stroke="black" stroke-linecap="round" stroke-linejoin="round"/>
<path d="M164.895 192.546L172.251 191.714" stroke="black" stroke-linecap="round" stroke-linejoin="round"/>
<path d="M221.723 189.306L220.651 173.714" stroke="black" stroke-linecap="round" stroke-linejoin="round"/>
<path d="M224.909 196.347L240.026 185.216" stroke="black" stroke-linecap="round" stroke-linejoin="round"/>
<path d="M242.961 189.109C242.552 192.556 240.549 207.121 240.549 207.121" stroke="black" stroke-linecap="round" stroke-linejoin="round"/>
<path d="M206.861 132.752C206.861 132.752 208.826 130.715 211.43 131.473" stroke="black" stroke-linecap="round" stroke-linejoin="round"/>
<path d="M207.78 132.257L208.311 134.17" stroke="black" stroke-linecap="round" stroke-linejoin="round"/>
<path d="M108.668 95.8315C108.668 95.8315 110.98 96.6735 112.329 99.0796" stroke="black" stroke-linecap="round" stroke-linejoin="round"/>
<path d="M111.11 97.6411L109.657 99.1135" stroke="black" stroke-linecap="round" stroke-linejoin="round"/>
</g>
</g>
<defs>
<clipPath id="clip0_2_1970">
<rect width="240" height="198" fill="white" transform="translate(44 41)"/>
</clipPath>
<clipPath id="clip1_2_1970">
<rect width="208" height="208" fill="white" transform="translate(60 57)"/>
</clipPath>
</defs>
</svg>
