<svg width="46" height="50" viewBox="0 0 46 50" fill="none" xmlns="http://www.w3.org/2000/svg">
<path fill-rule="evenodd" clip-rule="evenodd" d="M12.7668 29.7081C12.7668 28.6767 14.0626 28.7992 14.0626 28.7992H43.0927C44.0304 28.7992 45.1673 28.1339 45.1673 26.7503V23.357C45.1673 9.94521 37.0124 0 22.5856 0C9.15447 0 0 9.00598 0 24.9577C0 44.7459 11.7446 50 23.9771 50C33.3294 50 41.468 43.7599 42.194 43.1527C42.925 42.548 43.1116 41.7944 42.4297 41.1632C42.4297 41.1632 36.9872 36.2032 36.5788 35.7715C35.9927 35.1403 35.2201 35.6402 34.4953 36.1767C31.3972 38.4667 29.2066 39.6862 24.0766 39.6862C17.1657 39.6862 12.7668 35.5341 12.7668 29.7081ZM22.5855 10.1282C26.9667 10.1282 29.8468 12.2932 31.2383 15.1967C32.0336 16.9805 32.3349 18.2959 32.4357 20.4496H12.734C12.8336 18.2959 13.1373 16.9805 13.9327 15.1967C15.3254 12.2932 18.2093 10.1282 22.5855 10.1282Z" fill="white"/>
</svg>
